  0
SECTION
  2
BLOCKS
  0
ENDSEC
  0
SECTION
  2
ENTITIES
  0
LINE
  8
0
 10
69
 20
640
 11
0
 21
640
  0
LINE
  8
0
 10
0
 20
640
 11
0
 21
0
  0
LINE
  8
0
 10
0
 20
0
 11
69
 21
0
  0
LINE
  8
0
 10
69
 20
0
 11
69
 21
640
  0
LINE
  8
0
 10
22.3611
 20
570.712
 11
22.1
 21
570.807
  0
LINE
  8
0
 10
22.1
 20
570.807
 11
21.8872
 21
570.986
  0
LINE
  8
0
 10
21.8872
 20
570.986
 11
21.7482
 21
571.226
  0
LINE
  8
0
 10
21.7482
 20
571.226
 11
21.7
 21
571.5
  0
LINE
  8
0
 10
21.7
 20
571.5
 11
21.7482
 21
571.774
  0
LINE
  8
0
 10
21.7482
 20
571.774
 11
21.8872
 21
572.014
  0
LINE
  8
0
 10
21.8872
 20
572.014
 11
22.1
 21
572.193
  0
LINE
  8
0
 10
22.1
 20
572.193
 11
22.3611
 21
572.288
  0
LINE
  8
0
 10
22.3611
 20
572.288
 11
22.6389
 21
572.288
  0
LINE
  8
0
 10
22.6389
 20
572.288
 11
22.9
 21
572.193
  0
LINE
  8
0
 10
22.9
 20
572.193
 11
23.1128
 21
572.014
  0
LINE
  8
0
 10
23.1128
 20
572.014
 11
23.2518
 21
571.774
  0
LINE
  8
0
 10
23.2518
 20
571.774
 11
23.3
 21
571.5
  0
LINE
  8
0
 10
23.3
 20
571.5
 11
23.2518
 21
571.226
  0
LINE
  8
0
 10
23.2518
 20
571.226
 11
23.1128
 21
570.986
  0
LINE
  8
0
 10
23.1128
 20
570.986
 11
22.9
 21
570.807
  0
LINE
  8
0
 10
22.9
 20
570.807
 11
22.6389
 21
570.712
  0
LINE
  8
0
 10
22.6389
 20
570.712
 11
22.3611
 21
570.712
  0
LINE
  8
0
 10
46.3611
 20
570.712
 11
46.1
 21
570.807
  0
LINE
  8
0
 10
46.1
 20
570.807
 11
45.8872
 21
570.986
  0
LINE
  8
0
 10
45.8872
 20
570.986
 11
45.7482
 21
571.226
  0
LINE
  8
0
 10
45.7482
 20
571.226
 11
45.7
 21
571.5
  0
LINE
  8
0
 10
45.7
 20
571.5
 11
45.7482
 21
571.774
  0
LINE
  8
0
 10
45.7482
 20
571.774
 11
45.8872
 21
572.014
  0
LINE
  8
0
 10
45.8872
 20
572.014
 11
46.1
 21
572.193
  0
LINE
  8
0
 10
46.1
 20
572.193
 11
46.3611
 21
572.288
  0
LINE
  8
0
 10
46.3611
 20
572.288
 11
46.6389
 21
572.288
  0
LINE
  8
0
 10
46.6389
 20
572.288
 11
46.9
 21
572.193
  0
LINE
  8
0
 10
46.9
 20
572.193
 11
47.1128
 21
572.014
  0
LINE
  8
0
 10
47.1128
 20
572.014
 11
47.2518
 21
571.774
  0
LINE
  8
0
 10
47.2518
 20
571.774
 11
47.3
 21
571.5
  0
LINE
  8
0
 10
47.3
 20
571.5
 11
47.2518
 21
571.226
  0
LINE
  8
0
 10
47.2518
 20
571.226
 11
47.1128
 21
570.986
  0
LINE
  8
0
 10
47.1128
 20
570.986
 11
46.9
 21
570.807
  0
LINE
  8
0
 10
46.9
 20
570.807
 11
46.6389
 21
570.712
  0
LINE
  8
0
 10
46.6389
 20
570.712
 11
46.3611
 21
570.712
  0
LINE
  8
0
 10
50.3611
 20
560.045
 11
50.1
 21
560.14
  0
LINE
  8
0
 10
50.1
 20
560.14
 11
49.8872
 21
560.319
  0
LINE
  8
0
 10
49.8872
 20
560.319
 11
49.7482
 21
560.56
  0
LINE
  8
0
 10
49.7482
 20
560.56
 11
49.7
 21
560.833
  0
LINE
  8
0
 10
49.7
 20
560.833
 11
49.7482
 21
561.107
  0
LINE
  8
0
 10
49.7482
 20
561.107
 11
49.8872
 21
561.348
  0
LINE
  8
0
 10
49.8872
 20
561.348
 11
50.1
 21
561.526
  0
LINE
  8
0
 10
50.1
 20
561.526
 11
50.3611
 21
561.621
  0
LINE
  8
0
 10
50.3611
 20
561.621
 11
50.6389
 21
561.621
  0
LINE
  8
0
 10
50.6389
 20
561.621
 11
50.9
 21
561.526
  0
LINE
  8
0
 10
50.9
 20
561.526
 11
51.1128
 21
561.348
  0
LINE
  8
0
 10
51.1128
 20
561.348
 11
51.2518
 21
561.107
  0
LINE
  8
0
 10
51.2518
 20
561.107
 11
51.3
 21
560.833
  0
LINE
  8
0
 10
51.3
 20
560.833
 11
51.2518
 21
560.56
  0
LINE
  8
0
 10
51.2518
 20
560.56
 11
51.1128
 21
560.319
  0
LINE
  8
0
 10
51.1128
 20
560.319
 11
50.9
 21
560.14
  0
LINE
  8
0
 10
50.9
 20
560.14
 11
50.6389
 21
560.045
  0
LINE
  8
0
 10
50.6389
 20
560.045
 11
50.3611
 21
560.045
  0
LINE
  8
0
 10
28.3611
 20
560.045
 11
28.1
 21
560.14
  0
LINE
  8
0
 10
28.1
 20
560.14
 11
27.8872
 21
560.319
  0
LINE
  8
0
 10
27.8872
 20
560.319
 11
27.7482
 21
560.56
  0
LINE
  8
0
 10
27.7482
 20
560.56
 11
27.7
 21
560.833
  0
LINE
  8
0
 10
27.7
 20
560.833
 11
27.7482
 21
561.107
  0
LINE
  8
0
 10
27.7482
 20
561.107
 11
27.8872
 21
561.348
  0
LINE
  8
0
 10
27.8872
 20
561.348
 11
28.1
 21
561.526
  0
LINE
  8
0
 10
28.1
 20
561.526
 11
28.3611
 21
561.621
  0
LINE
  8
0
 10
28.3611
 20
561.621
 11
28.6389
 21
561.621
  0
LINE
  8
0
 10
28.6389
 20
561.621
 11
28.9
 21
561.526
  0
LINE
  8
0
 10
28.9
 20
561.526
 11
29.1128
 21
561.348
  0
LINE
  8
0
 10
29.1128
 20
561.348
 11
29.2518
 21
561.107
  0
LINE
  8
0
 10
29.2518
 20
561.107
 11
29.3
 21
560.833
  0
LINE
  8
0
 10
29.3
 20
560.833
 11
29.2518
 21
560.56
  0
LINE
  8
0
 10
29.2518
 20
560.56
 11
29.1128
 21
560.319
  0
LINE
  8
0
 10
29.1128
 20
560.319
 11
28.9
 21
560.14
  0
LINE
  8
0
 10
28.9
 20
560.14
 11
28.6389
 21
560.045
  0
LINE
  8
0
 10
28.6389
 20
560.045
 11
28.3611
 21
560.045
  0
LINE
  8
0
 10
24.3611
 20
549.379
 11
24.1
 21
549.474
  0
LINE
  8
0
 10
24.1
 20
549.474
 11
23.8872
 21
549.652
  0
LINE
  8
0
 10
23.8872
 20
549.652
 11
23.7482
 21
549.893
  0
LINE
  8
0
 10
23.7482
 20
549.893
 11
23.7
 21
550.167
  0
LINE
  8
0
 10
23.7
 20
550.167
 11
23.7482
 21
550.44
  0
LINE
  8
0
 10
23.7482
 20
550.44
 11
23.8872
 21
550.681
  0
LINE
  8
0
 10
23.8872
 20
550.681
 11
24.1
 21
550.859
  0
LINE
  8
0
 10
24.1
 20
550.859
 11
24.3611
 21
550.954
  0
LINE
  8
0
 10
24.3611
 20
550.954
 11
24.6389
 21
550.954
  0
LINE
  8
0
 10
24.6389
 20
550.954
 11
24.9
 21
550.859
  0
LINE
  8
0
 10
24.9
 20
550.859
 11
25.1128
 21
550.681
  0
LINE
  8
0
 10
25.1128
 20
550.681
 11
25.2518
 21
550.44
  0
LINE
  8
0
 10
25.2518
 20
550.44
 11
25.3
 21
550.167
  0
LINE
  8
0
 10
25.3
 20
550.167
 11
25.2518
 21
549.893
  0
LINE
  8
0
 10
25.2518
 20
549.893
 11
25.1128
 21
549.652
  0
LINE
  8
0
 10
25.1128
 20
549.652
 11
24.9
 21
549.474
  0
LINE
  8
0
 10
24.9
 20
549.474
 11
24.6389
 21
549.379
  0
LINE
  8
0
 10
24.6389
 20
549.379
 11
24.3611
 21
549.379
  0
LINE
  8
0
 10
48.3611
 20
549.379
 11
48.1
 21
549.474
  0
LINE
  8
0
 10
48.1
 20
549.474
 11
47.8872
 21
549.652
  0
LINE
  8
0
 10
47.8872
 20
549.652
 11
47.7482
 21
549.893
  0
LINE
  8
0
 10
47.7482
 20
549.893
 11
47.7
 21
550.167
  0
LINE
  8
0
 10
47.7
 20
550.167
 11
47.7482
 21
550.44
  0
LINE
  8
0
 10
47.7482
 20
550.44
 11
47.8872
 21
550.681
  0
LINE
  8
0
 10
47.8872
 20
550.681
 11
48.1
 21
550.859
  0
LINE
  8
0
 10
48.1
 20
550.859
 11
48.3611
 21
550.954
  0
LINE
  8
0
 10
48.3611
 20
550.954
 11
48.6389
 21
550.954
  0
LINE
  8
0
 10
48.6389
 20
550.954
 11
48.9
 21
550.859
  0
LINE
  8
0
 10
48.9
 20
550.859
 11
49.1128
 21
550.681
  0
LINE
  8
0
 10
49.1128
 20
550.681
 11
49.2518
 21
550.44
  0
LINE
  8
0
 10
49.2518
 20
550.44
 11
49.3
 21
550.167
  0
LINE
  8
0
 10
49.3
 20
550.167
 11
49.2518
 21
549.893
  0
LINE
  8
0
 10
49.2518
 20
549.893
 11
49.1128
 21
549.652
  0
LINE
  8
0
 10
49.1128
 20
549.652
 11
48.9
 21
549.474
  0
LINE
  8
0
 10
48.9
 20
549.474
 11
48.6389
 21
549.379
  0
LINE
  8
0
 10
48.6389
 20
549.379
 11
48.3611
 21
549.379
  0
LINE
  8
0
 10
22.3611
 20
538.712
 11
22.1
 21
538.807
  0
LINE
  8
0
 10
22.1
 20
538.807
 11
21.8872
 21
538.986
  0
LINE
  8
0
 10
21.8872
 20
538.986
 11
21.7482
 21
539.226
  0
LINE
  8
0
 10
21.7482
 20
539.226
 11
21.7
 21
539.5
  0
LINE
  8
0
 10
21.7
 20
539.5
 11
21.7482
 21
539.774
  0
LINE
  8
0
 10
21.7482
 20
539.774
 11
21.8872
 21
540.014
  0
LINE
  8
0
 10
21.8872
 20
540.014
 11
22.1
 21
540.193
  0
LINE
  8
0
 10
22.1
 20
540.193
 11
22.3611
 21
540.288
  0
LINE
  8
0
 10
22.3611
 20
540.288
 11
22.6389
 21
540.288
  0
LINE
  8
0
 10
22.6389
 20
540.288
 11
22.9
 21
540.193
  0
LINE
  8
0
 10
22.9
 20
540.193
 11
23.1128
 21
540.014
  0
LINE
  8
0
 10
23.1128
 20
540.014
 11
23.2518
 21
539.774
  0
LINE
  8
0
 10
23.2518
 20
539.774
 11
23.3
 21
539.5
  0
LINE
  8
0
 10
23.3
 20
539.5
 11
23.2518
 21
539.226
  0
LINE
  8
0
 10
23.2518
 20
539.226
 11
23.1128
 21
538.986
  0
LINE
  8
0
 10
23.1128
 20
538.986
 11
22.9
 21
538.807
  0
LINE
  8
0
 10
22.9
 20
538.807
 11
22.6389
 21
538.712
  0
LINE
  8
0
 10
22.6389
 20
538.712
 11
22.3611
 21
538.712
  0
LINE
  8
0
 10
46.3611
 20
538.712
 11
46.1
 21
538.807
  0
LINE
  8
0
 10
46.1
 20
538.807
 11
45.8872
 21
538.986
  0
LINE
  8
0
 10
45.8872
 20
538.986
 11
45.7482
 21
539.226
  0
LINE
  8
0
 10
45.7482
 20
539.226
 11
45.7
 21
539.5
  0
LINE
  8
0
 10
45.7
 20
539.5
 11
45.7482
 21
539.774
  0
LINE
  8
0
 10
45.7482
 20
539.774
 11
45.8872
 21
540.014
  0
LINE
  8
0
 10
45.8872
 20
540.014
 11
46.1
 21
540.193
  0
LINE
  8
0
 10
46.1
 20
540.193
 11
46.3611
 21
540.288
  0
LINE
  8
0
 10
46.3611
 20
540.288
 11
46.6389
 21
540.288
  0
LINE
  8
0
 10
46.6389
 20
540.288
 11
46.9
 21
540.193
  0
LINE
  8
0
 10
46.9
 20
540.193
 11
47.1128
 21
540.014
  0
LINE
  8
0
 10
47.1128
 20
540.014
 11
47.2518
 21
539.774
  0
LINE
  8
0
 10
47.2518
 20
539.774
 11
47.3
 21
539.5
  0
LINE
  8
0
 10
47.3
 20
539.5
 11
47.2518
 21
539.226
  0
LINE
  8
0
 10
47.2518
 20
539.226
 11
47.1128
 21
538.986
  0
LINE
  8
0
 10
47.1128
 20
538.986
 11
46.9
 21
538.807
  0
LINE
  8
0
 10
46.9
 20
538.807
 11
46.6389
 21
538.712
  0
LINE
  8
0
 10
46.6389
 20
538.712
 11
46.3611
 21
538.712
  0
LINE
  8
0
 10
52.3611
 20
530.712
 11
52.1
 21
530.807
  0
LINE
  8
0
 10
52.1
 20
530.807
 11
51.8872
 21
530.986
  0
LINE
  8
0
 10
51.8872
 20
530.986
 11
51.7482
 21
531.226
  0
LINE
  8
0
 10
51.7482
 20
531.226
 11
51.7
 21
531.5
  0
LINE
  8
0
 10
51.7
 20
531.5
 11
51.7482
 21
531.774
  0
LINE
  8
0
 10
51.7482
 20
531.774
 11
51.8872
 21
532.014
  0
LINE
  8
0
 10
51.8872
 20
532.014
 11
52.1
 21
532.193
  0
LINE
  8
0
 10
52.1
 20
532.193
 11
52.3611
 21
532.288
  0
LINE
  8
0
 10
52.3611
 20
532.288
 11
52.6389
 21
532.288
  0
LINE
  8
0
 10
52.6389
 20
532.288
 11
52.9
 21
532.193
  0
LINE
  8
0
 10
52.9
 20
532.193
 11
53.1128
 21
532.014
  0
LINE
  8
0
 10
53.1128
 20
532.014
 11
53.2518
 21
531.774
  0
LINE
  8
0
 10
53.2518
 20
531.774
 11
53.3
 21
531.5
  0
LINE
  8
0
 10
53.3
 20
531.5
 11
53.2518
 21
531.226
  0
LINE
  8
0
 10
53.2518
 20
531.226
 11
53.1128
 21
530.986
  0
LINE
  8
0
 10
53.1128
 20
530.986
 11
52.9
 21
530.807
  0
LINE
  8
0
 10
52.9
 20
530.807
 11
52.6389
 21
530.712
  0
LINE
  8
0
 10
52.6389
 20
530.712
 11
52.3611
 21
530.712
  0
LINE
  8
0
 10
32.3611
 20
530.712
 11
32.1
 21
530.807
  0
LINE
  8
0
 10
32.1
 20
530.807
 11
31.8872
 21
530.986
  0
LINE
  8
0
 10
31.8872
 20
530.986
 11
31.7482
 21
531.226
  0
LINE
  8
0
 10
31.7482
 20
531.226
 11
31.7
 21
531.5
  0
LINE
  8
0
 10
31.7
 20
531.5
 11
31.7482
 21
531.774
  0
LINE
  8
0
 10
31.7482
 20
531.774
 11
31.8872
 21
532.014
  0
LINE
  8
0
 10
31.8872
 20
532.014
 11
32.1
 21
532.193
  0
LINE
  8
0
 10
32.1
 20
532.193
 11
32.3611
 21
532.288
  0
LINE
  8
0
 10
32.3611
 20
532.288
 11
32.6389
 21
532.288
  0
LINE
  8
0
 10
32.6389
 20
532.288
 11
32.9
 21
532.193
  0
LINE
  8
0
 10
32.9
 20
532.193
 11
33.1128
 21
532.014
  0
LINE
  8
0
 10
33.1128
 20
532.014
 11
33.2518
 21
531.774
  0
LINE
  8
0
 10
33.2518
 20
531.774
 11
33.3
 21
531.5
  0
LINE
  8
0
 10
33.3
 20
531.5
 11
33.2518
 21
531.226
  0
LINE
  8
0
 10
33.2518
 20
531.226
 11
33.1128
 21
530.986
  0
LINE
  8
0
 10
33.1128
 20
530.986
 11
32.9
 21
530.807
  0
LINE
  8
0
 10
32.9
 20
530.807
 11
32.6389
 21
530.712
  0
LINE
  8
0
 10
32.6389
 20
530.712
 11
32.3611
 21
530.712
  0
LINE
  8
0
 10
52.3611
 20
498.712
 11
52.1
 21
498.807
  0
LINE
  8
0
 10
52.1
 20
498.807
 11
51.8872
 21
498.986
  0
LINE
  8
0
 10
51.8872
 20
498.986
 11
51.7482
 21
499.226
  0
LINE
  8
0
 10
51.7482
 20
499.226
 11
51.7
 21
499.5
  0
LINE
  8
0
 10
51.7
 20
499.5
 11
51.7482
 21
499.774
  0
LINE
  8
0
 10
51.7482
 20
499.774
 11
51.8872
 21
500.014
  0
LINE
  8
0
 10
51.8872
 20
500.014
 11
52.1
 21
500.193
  0
LINE
  8
0
 10
52.1
 20
500.193
 11
52.3611
 21
500.288
  0
LINE
  8
0
 10
52.3611
 20
500.288
 11
52.6389
 21
500.288
  0
LINE
  8
0
 10
52.6389
 20
500.288
 11
52.9
 21
500.193
  0
LINE
  8
0
 10
52.9
 20
500.193
 11
53.1128
 21
500.014
  0
LINE
  8
0
 10
53.1128
 20
500.014
 11
53.2518
 21
499.774
  0
LINE
  8
0
 10
53.2518
 20
499.774
 11
53.3
 21
499.5
  0
LINE
  8
0
 10
53.3
 20
499.5
 11
53.2518
 21
499.226
  0
LINE
  8
0
 10
53.2518
 20
499.226
 11
53.1128
 21
498.986
  0
LINE
  8
0
 10
53.1128
 20
498.986
 11
52.9
 21
498.807
  0
LINE
  8
0
 10
52.9
 20
498.807
 11
52.6389
 21
498.712
  0
LINE
  8
0
 10
52.6389
 20
498.712
 11
52.3611
 21
498.712
  0
LINE
  8
0
 10
32.3611
 20
498.712
 11
32.1
 21
498.807
  0
LINE
  8
0
 10
32.1
 20
498.807
 11
31.8872
 21
498.986
  0
LINE
  8
0
 10
31.8872
 20
498.986
 11
31.7482
 21
499.226
  0
LINE
  8
0
 10
31.7482
 20
499.226
 11
31.7
 21
499.5
  0
LINE
  8
0
 10
31.7
 20
499.5
 11
31.7482
 21
499.774
  0
LINE
  8
0
 10
31.7482
 20
499.774
 11
31.8872
 21
500.014
  0
LINE
  8
0
 10
31.8872
 20
500.014
 11
32.1
 21
500.193
  0
LINE
  8
0
 10
32.1
 20
500.193
 11
32.3611
 21
500.288
  0
LINE
  8
0
 10
32.3611
 20
500.288
 11
32.6389
 21
500.288
  0
LINE
  8
0
 10
32.6389
 20
500.288
 11
32.9
 21
500.193
  0
LINE
  8
0
 10
32.9
 20
500.193
 11
33.1128
 21
500.014
  0
LINE
  8
0
 10
33.1128
 20
500.014
 11
33.2518
 21
499.774
  0
LINE
  8
0
 10
33.2518
 20
499.774
 11
33.3
 21
499.5
  0
LINE
  8
0
 10
33.3
 20
499.5
 11
33.2518
 21
499.226
  0
LINE
  8
0
 10
33.2518
 20
499.226
 11
33.1128
 21
498.986
  0
LINE
  8
0
 10
33.1128
 20
498.986
 11
32.9
 21
498.807
  0
LINE
  8
0
 10
32.9
 20
498.807
 11
32.6389
 21
498.712
  0
LINE
  8
0
 10
32.6389
 20
498.712
 11
32.3611
 21
498.712
  0
LINE
  8
0
 10
52.3611
 20
490.712
 11
52.1
 21
490.807
  0
LINE
  8
0
 10
52.1
 20
490.807
 11
51.8872
 21
490.986
  0
LINE
  8
0
 10
51.8872
 20
490.986
 11
51.7482
 21
491.226
  0
LINE
  8
0
 10
51.7482
 20
491.226
 11
51.7
 21
491.5
  0
LINE
  8
0
 10
51.7
 20
491.5
 11
51.7482
 21
491.774
  0
LINE
  8
0
 10
51.7482
 20
491.774
 11
51.8872
 21
492.014
  0
LINE
  8
0
 10
51.8872
 20
492.014
 11
52.1
 21
492.193
  0
LINE
  8
0
 10
52.1
 20
492.193
 11
52.3611
 21
492.288
  0
LINE
  8
0
 10
52.3611
 20
492.288
 11
52.6389
 21
492.288
  0
LINE
  8
0
 10
52.6389
 20
492.288
 11
52.9
 21
492.193
  0
LINE
  8
0
 10
52.9
 20
492.193
 11
53.1128
 21
492.014
  0
LINE
  8
0
 10
53.1128
 20
492.014
 11
53.2518
 21
491.774
  0
LINE
  8
0
 10
53.2518
 20
491.774
 11
53.3
 21
491.5
  0
LINE
  8
0
 10
53.3
 20
491.5
 11
53.2518
 21
491.226
  0
LINE
  8
0
 10
53.2518
 20
491.226
 11
53.1128
 21
490.986
  0
LINE
  8
0
 10
53.1128
 20
490.986
 11
52.9
 21
490.807
  0
LINE
  8
0
 10
52.9
 20
490.807
 11
52.6389
 21
490.712
  0
LINE
  8
0
 10
52.6389
 20
490.712
 11
52.3611
 21
490.712
  0
LINE
  8
0
 10
32.3611
 20
490.712
 11
32.1
 21
490.807
  0
LINE
  8
0
 10
32.1
 20
490.807
 11
31.8872
 21
490.986
  0
LINE
  8
0
 10
31.8872
 20
490.986
 11
31.7482
 21
491.226
  0
LINE
  8
0
 10
31.7482
 20
491.226
 11
31.7
 21
491.5
  0
LINE
  8
0
 10
31.7
 20
491.5
 11
31.7482
 21
491.774
  0
LINE
  8
0
 10
31.7482
 20
491.774
 11
31.8872
 21
492.014
  0
LINE
  8
0
 10
31.8872
 20
492.014
 11
32.1
 21
492.193
  0
LINE
  8
0
 10
32.1
 20
492.193
 11
32.3611
 21
492.288
  0
LINE
  8
0
 10
32.3611
 20
492.288
 11
32.6389
 21
492.288
  0
LINE
  8
0
 10
32.6389
 20
492.288
 11
32.9
 21
492.193
  0
LINE
  8
0
 10
32.9
 20
492.193
 11
33.1128
 21
492.014
  0
LINE
  8
0
 10
33.1128
 20
492.014
 11
33.2518
 21
491.774
  0
LINE
  8
0
 10
33.2518
 20
491.774
 11
33.3
 21
491.5
  0
LINE
  8
0
 10
33.3
 20
491.5
 11
33.2518
 21
491.226
  0
LINE
  8
0
 10
33.2518
 20
491.226
 11
33.1128
 21
490.986
  0
LINE
  8
0
 10
33.1128
 20
490.986
 11
32.9
 21
490.807
  0
LINE
  8
0
 10
32.9
 20
490.807
 11
32.6389
 21
490.712
  0
LINE
  8
0
 10
32.6389
 20
490.712
 11
32.3611
 21
490.712
  0
LINE
  8
0
 10
46.3611
 20
474.712
 11
46.1
 21
474.807
  0
LINE
  8
0
 10
46.1
 20
474.807
 11
45.8872
 21
474.986
  0
LINE
  8
0
 10
45.8872
 20
474.986
 11
45.7482
 21
475.226
  0
LINE
  8
0
 10
45.7482
 20
475.226
 11
45.7
 21
475.5
  0
LINE
  8
0
 10
45.7
 20
475.5
 11
45.7482
 21
475.774
  0
LINE
  8
0
 10
45.7482
 20
475.774
 11
45.8872
 21
476.014
  0
LINE
  8
0
 10
45.8872
 20
476.014
 11
46.1
 21
476.193
  0
LINE
  8
0
 10
46.1
 20
476.193
 11
46.3611
 21
476.288
  0
LINE
  8
0
 10
46.3611
 20
476.288
 11
46.6389
 21
476.288
  0
LINE
  8
0
 10
46.6389
 20
476.288
 11
46.9
 21
476.193
  0
LINE
  8
0
 10
46.9
 20
476.193
 11
47.1128
 21
476.014
  0
LINE
  8
0
 10
47.1128
 20
476.014
 11
47.2518
 21
475.774
  0
LINE
  8
0
 10
47.2518
 20
475.774
 11
47.3
 21
475.5
  0
LINE
  8
0
 10
47.3
 20
475.5
 11
47.2518
 21
475.226
  0
LINE
  8
0
 10
47.2518
 20
475.226
 11
47.1128
 21
474.986
  0
LINE
  8
0
 10
47.1128
 20
474.986
 11
46.9
 21
474.807
  0
LINE
  8
0
 10
46.9
 20
474.807
 11
46.6389
 21
474.712
  0
LINE
  8
0
 10
46.6389
 20
474.712
 11
46.3611
 21
474.712
  0
LINE
  8
0
 10
22.3611
 20
474.712
 11
22.1
 21
474.807
  0
LINE
  8
0
 10
22.1
 20
474.807
 11
21.8872
 21
474.986
  0
LINE
  8
0
 10
21.8872
 20
474.986
 11
21.7482
 21
475.226
  0
LINE
  8
0
 10
21.7482
 20
475.226
 11
21.7
 21
475.5
  0
LINE
  8
0
 10
21.7
 20
475.5
 11
21.7482
 21
475.774
  0
LINE
  8
0
 10
21.7482
 20
475.774
 11
21.8872
 21
476.014
  0
LINE
  8
0
 10
21.8872
 20
476.014
 11
22.1
 21
476.193
  0
LINE
  8
0
 10
22.1
 20
476.193
 11
22.3611
 21
476.288
  0
LINE
  8
0
 10
22.3611
 20
476.288
 11
22.6389
 21
476.288
  0
LINE
  8
0
 10
22.6389
 20
476.288
 11
22.9
 21
476.193
  0
LINE
  8
0
 10
22.9
 20
476.193
 11
23.1128
 21
476.014
  0
LINE
  8
0
 10
23.1128
 20
476.014
 11
23.2518
 21
475.774
  0
LINE
  8
0
 10
23.2518
 20
475.774
 11
23.3
 21
475.5
  0
LINE
  8
0
 10
23.3
 20
475.5
 11
23.2518
 21
475.226
  0
LINE
  8
0
 10
23.2518
 20
475.226
 11
23.1128
 21
474.986
  0
LINE
  8
0
 10
23.1128
 20
474.986
 11
22.9
 21
474.807
  0
LINE
  8
0
 10
22.9
 20
474.807
 11
22.6389
 21
474.712
  0
LINE
  8
0
 10
22.6389
 20
474.712
 11
22.3611
 21
474.712
  0
LINE
  8
0
 10
28.3611
 20
464.045
 11
28.1
 21
464.14
  0
LINE
  8
0
 10
28.1
 20
464.14
 11
27.8872
 21
464.319
  0
LINE
  8
0
 10
27.8872
 20
464.319
 11
27.7482
 21
464.56
  0
LINE
  8
0
 10
27.7482
 20
464.56
 11
27.7
 21
464.833
  0
LINE
  8
0
 10
27.7
 20
464.833
 11
27.7482
 21
465.107
  0
LINE
  8
0
 10
27.7482
 20
465.107
 11
27.8872
 21
465.348
  0
LINE
  8
0
 10
27.8872
 20
465.348
 11
28.1
 21
465.526
  0
LINE
  8
0
 10
28.1
 20
465.526
 11
28.3611
 21
465.621
  0
LINE
  8
0
 10
28.3611
 20
465.621
 11
28.6389
 21
465.621
  0
LINE
  8
0
 10
28.6389
 20
465.621
 11
28.9
 21
465.526
  0
LINE
  8
0
 10
28.9
 20
465.526
 11
29.1128
 21
465.348
  0
LINE
  8
0
 10
29.1128
 20
465.348
 11
29.2518
 21
465.107
  0
LINE
  8
0
 10
29.2518
 20
465.107
 11
29.3
 21
464.833
  0
LINE
  8
0
 10
29.3
 20
464.833
 11
29.2518
 21
464.56
  0
LINE
  8
0
 10
29.2518
 20
464.56
 11
29.1128
 21
464.319
  0
LINE
  8
0
 10
29.1128
 20
464.319
 11
28.9
 21
464.14
  0
LINE
  8
0
 10
28.9
 20
464.14
 11
28.6389
 21
464.045
  0
LINE
  8
0
 10
28.6389
 20
464.045
 11
28.3611
 21
464.045
  0
LINE
  8
0
 10
50.3611
 20
464.045
 11
50.1
 21
464.14
  0
LINE
  8
0
 10
50.1
 20
464.14
 11
49.8872
 21
464.319
  0
LINE
  8
0
 10
49.8872
 20
464.319
 11
49.7482
 21
464.56
  0
LINE
  8
0
 10
49.7482
 20
464.56
 11
49.7
 21
464.833
  0
LINE
  8
0
 10
49.7
 20
464.833
 11
49.7482
 21
465.107
  0
LINE
  8
0
 10
49.7482
 20
465.107
 11
49.8872
 21
465.348
  0
LINE
  8
0
 10
49.8872
 20
465.348
 11
50.1
 21
465.526
  0
LINE
  8
0
 10
50.1
 20
465.526
 11
50.3611
 21
465.621
  0
LINE
  8
0
 10
50.3611
 20
465.621
 11
50.6389
 21
465.621
  0
LINE
  8
0
 10
50.6389
 20
465.621
 11
50.9
 21
465.526
  0
LINE
  8
0
 10
50.9
 20
465.526
 11
51.1128
 21
465.348
  0
LINE
  8
0
 10
51.1128
 20
465.348
 11
51.2518
 21
465.107
  0
LINE
  8
0
 10
51.2518
 20
465.107
 11
51.3
 21
464.833
  0
LINE
  8
0
 10
51.3
 20
464.833
 11
51.2518
 21
464.56
  0
LINE
  8
0
 10
51.2518
 20
464.56
 11
51.1128
 21
464.319
  0
LINE
  8
0
 10
51.1128
 20
464.319
 11
50.9
 21
464.14
  0
LINE
  8
0
 10
50.9
 20
464.14
 11
50.6389
 21
464.045
  0
LINE
  8
0
 10
50.6389
 20
464.045
 11
50.3611
 21
464.045
  0
LINE
  8
0
 10
48.3611
 20
453.379
 11
48.1
 21
453.474
  0
LINE
  8
0
 10
48.1
 20
453.474
 11
47.8872
 21
453.652
  0
LINE
  8
0
 10
47.8872
 20
453.652
 11
47.7482
 21
453.893
  0
LINE
  8
0
 10
47.7482
 20
453.893
 11
47.7
 21
454.167
  0
LINE
  8
0
 10
47.7
 20
454.167
 11
47.7482
 21
454.44
  0
LINE
  8
0
 10
47.7482
 20
454.44
 11
47.8872
 21
454.681
  0
LINE
  8
0
 10
47.8872
 20
454.681
 11
48.1
 21
454.859
  0
LINE
  8
0
 10
48.1
 20
454.859
 11
48.3611
 21
454.954
  0
LINE
  8
0
 10
48.3611
 20
454.954
 11
48.6389
 21
454.954
  0
LINE
  8
0
 10
48.6389
 20
454.954
 11
48.9
 21
454.859
  0
LINE
  8
0
 10
48.9
 20
454.859
 11
49.1128
 21
454.681
  0
LINE
  8
0
 10
49.1128
 20
454.681
 11
49.2518
 21
454.44
  0
LINE
  8
0
 10
49.2518
 20
454.44
 11
49.3
 21
454.167
  0
LINE
  8
0
 10
49.3
 20
454.167
 11
49.2518
 21
453.893
  0
LINE
  8
0
 10
49.2518
 20
453.893
 11
49.1128
 21
453.652
  0
LINE
  8
0
 10
49.1128
 20
453.652
 11
48.9
 21
453.474
  0
LINE
  8
0
 10
48.9
 20
453.474
 11
48.6389
 21
453.379
  0
LINE
  8
0
 10
48.6389
 20
453.379
 11
48.3611
 21
453.379
  0
LINE
  8
0
 10
24.3611
 20
453.379
 11
24.1
 21
453.474
  0
LINE
  8
0
 10
24.1
 20
453.474
 11
23.8872
 21
453.652
  0
LINE
  8
0
 10
23.8872
 20
453.652
 11
23.7482
 21
453.893
  0
LINE
  8
0
 10
23.7482
 20
453.893
 11
23.7
 21
454.167
  0
LINE
  8
0
 10
23.7
 20
454.167
 11
23.7482
 21
454.44
  0
LINE
  8
0
 10
23.7482
 20
454.44
 11
23.8872
 21
454.681
  0
LINE
  8
0
 10
23.8872
 20
454.681
 11
24.1
 21
454.859
  0
LINE
  8
0
 10
24.1
 20
454.859
 11
24.3611
 21
454.954
  0
LINE
  8
0
 10
24.3611
 20
454.954
 11
24.6389
 21
454.954
  0
LINE
  8
0
 10
24.6389
 20
454.954
 11
24.9
 21
454.859
  0
LINE
  8
0
 10
24.9
 20
454.859
 11
25.1128
 21
454.681
  0
LINE
  8
0
 10
25.1128
 20
454.681
 11
25.2518
 21
454.44
  0
LINE
  8
0
 10
25.2518
 20
454.44
 11
25.3
 21
454.167
  0
LINE
  8
0
 10
25.3
 20
454.167
 11
25.2518
 21
453.893
  0
LINE
  8
0
 10
25.2518
 20
453.893
 11
25.1128
 21
453.652
  0
LINE
  8
0
 10
25.1128
 20
453.652
 11
24.9
 21
453.474
  0
LINE
  8
0
 10
24.9
 20
453.474
 11
24.6389
 21
453.379
  0
LINE
  8
0
 10
24.6389
 20
453.379
 11
24.3611
 21
453.379
  0
LINE
  8
0
 10
46.3611
 20
442.712
 11
46.1
 21
442.807
  0
LINE
  8
0
 10
46.1
 20
442.807
 11
45.8872
 21
442.986
  0
LINE
  8
0
 10
45.8872
 20
442.986
 11
45.7482
 21
443.226
  0
LINE
  8
0
 10
45.7482
 20
443.226
 11
45.7
 21
443.5
  0
LINE
  8
0
 10
45.7
 20
443.5
 11
45.7482
 21
443.774
  0
LINE
  8
0
 10
45.7482
 20
443.774
 11
45.8872
 21
444.014
  0
LINE
  8
0
 10
45.8872
 20
444.014
 11
46.1
 21
444.193
  0
LINE
  8
0
 10
46.1
 20
444.193
 11
46.3611
 21
444.288
  0
LINE
  8
0
 10
46.3611
 20
444.288
 11
46.6389
 21
444.288
  0
LINE
  8
0
 10
46.6389
 20
444.288
 11
46.9
 21
444.193
  0
LINE
  8
0
 10
46.9
 20
444.193
 11
47.1128
 21
444.014
  0
LINE
  8
0
 10
47.1128
 20
444.014
 11
47.2518
 21
443.774
  0
LINE
  8
0
 10
47.2518
 20
443.774
 11
47.3
 21
443.5
  0
LINE
  8
0
 10
47.3
 20
443.5
 11
47.2518
 21
443.226
  0
LINE
  8
0
 10
47.2518
 20
443.226
 11
47.1128
 21
442.986
  0
LINE
  8
0
 10
47.1128
 20
442.986
 11
46.9
 21
442.807
  0
LINE
  8
0
 10
46.9
 20
442.807
 11
46.6389
 21
442.712
  0
LINE
  8
0
 10
46.6389
 20
442.712
 11
46.3611
 21
442.712
  0
LINE
  8
0
 10
22.3611
 20
442.712
 11
22.1
 21
442.807
  0
LINE
  8
0
 10
22.1
 20
442.807
 11
21.8872
 21
442.986
  0
LINE
  8
0
 10
21.8872
 20
442.986
 11
21.7482
 21
443.226
  0
LINE
  8
0
 10
21.7482
 20
443.226
 11
21.7
 21
443.5
  0
LINE
  8
0
 10
21.7
 20
443.5
 11
21.7482
 21
443.774
  0
LINE
  8
0
 10
21.7482
 20
443.774
 11
21.8872
 21
444.014
  0
LINE
  8
0
 10
21.8872
 20
444.014
 11
22.1
 21
444.193
  0
LINE
  8
0
 10
22.1
 20
444.193
 11
22.3611
 21
444.288
  0
LINE
  8
0
 10
22.3611
 20
444.288
 11
22.6389
 21
444.288
  0
LINE
  8
0
 10
22.6389
 20
444.288
 11
22.9
 21
444.193
  0
LINE
  8
0
 10
22.9
 20
444.193
 11
23.1128
 21
444.014
  0
LINE
  8
0
 10
23.1128
 20
444.014
 11
23.2518
 21
443.774
  0
LINE
  8
0
 10
23.2518
 20
443.774
 11
23.3
 21
443.5
  0
LINE
  8
0
 10
23.3
 20
443.5
 11
23.2518
 21
443.226
  0
LINE
  8
0
 10
23.2518
 20
443.226
 11
23.1128
 21
442.986
  0
LINE
  8
0
 10
23.1128
 20
442.986
 11
22.9
 21
442.807
  0
LINE
  8
0
 10
22.9
 20
442.807
 11
22.6389
 21
442.712
  0
LINE
  8
0
 10
22.6389
 20
442.712
 11
22.3611
 21
442.712
  0
LINE
  8
0
 10
32.3611
 20
402.712
 11
32.1
 21
402.807
  0
LINE
  8
0
 10
32.1
 20
402.807
 11
31.8872
 21
402.986
  0
LINE
  8
0
 10
31.8872
 20
402.986
 11
31.7482
 21
403.226
  0
LINE
  8
0
 10
31.7482
 20
403.226
 11
31.7
 21
403.5
  0
LINE
  8
0
 10
31.7
 20
403.5
 11
31.7482
 21
403.774
  0
LINE
  8
0
 10
31.7482
 20
403.774
 11
31.8872
 21
404.014
  0
LINE
  8
0
 10
31.8872
 20
404.014
 11
32.1
 21
404.193
  0
LINE
  8
0
 10
32.1
 20
404.193
 11
32.3611
 21
404.288
  0
LINE
  8
0
 10
32.3611
 20
404.288
 11
32.6389
 21
404.288
  0
LINE
  8
0
 10
32.6389
 20
404.288
 11
32.9
 21
404.193
  0
LINE
  8
0
 10
32.9
 20
404.193
 11
33.1128
 21
404.014
  0
LINE
  8
0
 10
33.1128
 20
404.014
 11
33.2518
 21
403.774
  0
LINE
  8
0
 10
33.2518
 20
403.774
 11
33.3
 21
403.5
  0
LINE
  8
0
 10
33.3
 20
403.5
 11
33.2518
 21
403.226
  0
LINE
  8
0
 10
33.2518
 20
403.226
 11
33.1128
 21
402.986
  0
LINE
  8
0
 10
33.1128
 20
402.986
 11
32.9
 21
402.807
  0
LINE
  8
0
 10
32.9
 20
402.807
 11
32.6389
 21
402.712
  0
LINE
  8
0
 10
32.6389
 20
402.712
 11
32.3611
 21
402.712
  0
LINE
  8
0
 10
52.3611
 20
402.712
 11
52.1
 21
402.807
  0
LINE
  8
0
 10
52.1
 20
402.807
 11
51.8872
 21
402.986
  0
LINE
  8
0
 10
51.8872
 20
402.986
 11
51.7482
 21
403.226
  0
LINE
  8
0
 10
51.7482
 20
403.226
 11
51.7
 21
403.5
  0
LINE
  8
0
 10
51.7
 20
403.5
 11
51.7482
 21
403.774
  0
LINE
  8
0
 10
51.7482
 20
403.774
 11
51.8872
 21
404.014
  0
LINE
  8
0
 10
51.8872
 20
404.014
 11
52.1
 21
404.193
  0
LINE
  8
0
 10
52.1
 20
404.193
 11
52.3611
 21
404.288
  0
LINE
  8
0
 10
52.3611
 20
404.288
 11
52.6389
 21
404.288
  0
LINE
  8
0
 10
52.6389
 20
404.288
 11
52.9
 21
404.193
  0
LINE
  8
0
 10
52.9
 20
404.193
 11
53.1128
 21
404.014
  0
LINE
  8
0
 10
53.1128
 20
404.014
 11
53.2518
 21
403.774
  0
LINE
  8
0
 10
53.2518
 20
403.774
 11
53.3
 21
403.5
  0
LINE
  8
0
 10
53.3
 20
403.5
 11
53.2518
 21
403.226
  0
LINE
  8
0
 10
53.2518
 20
403.226
 11
53.1128
 21
402.986
  0
LINE
  8
0
 10
53.1128
 20
402.986
 11
52.9
 21
402.807
  0
LINE
  8
0
 10
52.9
 20
402.807
 11
52.6389
 21
402.712
  0
LINE
  8
0
 10
52.6389
 20
402.712
 11
52.3611
 21
402.712
  0
LINE
  8
0
 10
50.3611
 20
394.712
 11
50.1
 21
394.807
  0
LINE
  8
0
 10
50.1
 20
394.807
 11
49.8872
 21
394.986
  0
LINE
  8
0
 10
49.8872
 20
394.986
 11
49.7482
 21
395.226
  0
LINE
  8
0
 10
49.7482
 20
395.226
 11
49.7
 21
395.5
  0
LINE
  8
0
 10
49.7
 20
395.5
 11
49.7482
 21
395.774
  0
LINE
  8
0
 10
49.7482
 20
395.774
 11
49.8872
 21
396.014
  0
LINE
  8
0
 10
49.8872
 20
396.014
 11
50.1
 21
396.193
  0
LINE
  8
0
 10
50.1
 20
396.193
 11
50.3611
 21
396.288
  0
LINE
  8
0
 10
50.3611
 20
396.288
 11
50.6389
 21
396.288
  0
LINE
  8
0
 10
50.6389
 20
396.288
 11
50.9
 21
396.193
  0
LINE
  8
0
 10
50.9
 20
396.193
 11
51.1128
 21
396.014
  0
LINE
  8
0
 10
51.1128
 20
396.014
 11
51.2518
 21
395.774
  0
LINE
  8
0
 10
51.2518
 20
395.774
 11
51.3
 21
395.5
  0
LINE
  8
0
 10
51.3
 20
395.5
 11
51.2518
 21
395.226
  0
LINE
  8
0
 10
51.2518
 20
395.226
 11
51.1128
 21
394.986
  0
LINE
  8
0
 10
51.1128
 20
394.986
 11
50.9
 21
394.807
  0
LINE
  8
0
 10
50.9
 20
394.807
 11
50.6389
 21
394.712
  0
LINE
  8
0
 10
50.6389
 20
394.712
 11
50.3611
 21
394.712
  0
LINE
  8
0
 10
28.3611
 20
394.712
 11
28.1
 21
394.807
  0
LINE
  8
0
 10
28.1
 20
394.807
 11
27.8872
 21
394.986
  0
LINE
  8
0
 10
27.8872
 20
394.986
 11
27.7482
 21
395.226
  0
LINE
  8
0
 10
27.7482
 20
395.226
 11
27.7
 21
395.5
  0
LINE
  8
0
 10
27.7
 20
395.5
 11
27.7482
 21
395.774
  0
LINE
  8
0
 10
27.7482
 20
395.774
 11
27.8872
 21
396.014
  0
LINE
  8
0
 10
27.8872
 20
396.014
 11
28.1
 21
396.193
  0
LINE
  8
0
 10
28.1
 20
396.193
 11
28.3611
 21
396.288
  0
LINE
  8
0
 10
28.3611
 20
396.288
 11
28.6389
 21
396.288
  0
LINE
  8
0
 10
28.6389
 20
396.288
 11
28.9
 21
396.193
  0
LINE
  8
0
 10
28.9
 20
396.193
 11
29.1128
 21
396.014
  0
LINE
  8
0
 10
29.1128
 20
396.014
 11
29.2518
 21
395.774
  0
LINE
  8
0
 10
29.2518
 20
395.774
 11
29.3
 21
395.5
  0
LINE
  8
0
 10
29.3
 20
395.5
 11
29.2518
 21
395.226
  0
LINE
  8
0
 10
29.2518
 20
395.226
 11
29.1128
 21
394.986
  0
LINE
  8
0
 10
29.1128
 20
394.986
 11
28.9
 21
394.807
  0
LINE
  8
0
 10
28.9
 20
394.807
 11
28.6389
 21
394.712
  0
LINE
  8
0
 10
28.6389
 20
394.712
 11
28.3611
 21
394.712
  0
LINE
  8
0
 10
48.3611
 20
386.712
 11
48.1
 21
386.807
  0
LINE
  8
0
 10
48.1
 20
386.807
 11
47.8872
 21
386.986
  0
LINE
  8
0
 10
47.8872
 20
386.986
 11
47.7482
 21
387.226
  0
LINE
  8
0
 10
47.7482
 20
387.226
 11
47.7
 21
387.5
  0
LINE
  8
0
 10
47.7
 20
387.5
 11
47.7482
 21
387.774
  0
LINE
  8
0
 10
47.7482
 20
387.774
 11
47.8872
 21
388.014
  0
LINE
  8
0
 10
47.8872
 20
388.014
 11
48.1
 21
388.193
  0
LINE
  8
0
 10
48.1
 20
388.193
 11
48.3611
 21
388.288
  0
LINE
  8
0
 10
48.3611
 20
388.288
 11
48.6389
 21
388.288
  0
LINE
  8
0
 10
48.6389
 20
388.288
 11
48.9
 21
388.193
  0
LINE
  8
0
 10
48.9
 20
388.193
 11
49.1128
 21
388.014
  0
LINE
  8
0
 10
49.1128
 20
388.014
 11
49.2518
 21
387.774
  0
LINE
  8
0
 10
49.2518
 20
387.774
 11
49.3
 21
387.5
  0
LINE
  8
0
 10
49.3
 20
387.5
 11
49.2518
 21
387.226
  0
LINE
  8
0
 10
49.2518
 20
387.226
 11
49.1128
 21
386.986
  0
LINE
  8
0
 10
49.1128
 20
386.986
 11
48.9
 21
386.807
  0
LINE
  8
0
 10
48.9
 20
386.807
 11
48.6389
 21
386.712
  0
LINE
  8
0
 10
48.6389
 20
386.712
 11
48.3611
 21
386.712
  0
LINE
  8
0
 10
24.3611
 20
386.712
 11
24.1
 21
386.807
  0
LINE
  8
0
 10
24.1
 20
386.807
 11
23.8872
 21
386.986
  0
LINE
  8
0
 10
23.8872
 20
386.986
 11
23.7482
 21
387.226
  0
LINE
  8
0
 10
23.7482
 20
387.226
 11
23.7
 21
387.5
  0
LINE
  8
0
 10
23.7
 20
387.5
 11
23.7482
 21
387.774
  0
LINE
  8
0
 10
23.7482
 20
387.774
 11
23.8872
 21
388.014
  0
LINE
  8
0
 10
23.8872
 20
388.014
 11
24.1
 21
388.193
  0
LINE
  8
0
 10
24.1
 20
388.193
 11
24.3611
 21
388.288
  0
LINE
  8
0
 10
24.3611
 20
388.288
 11
24.6389
 21
388.288
  0
LINE
  8
0
 10
24.6389
 20
388.288
 11
24.9
 21
388.193
  0
LINE
  8
0
 10
24.9
 20
388.193
 11
25.1128
 21
388.014
  0
LINE
  8
0
 10
25.1128
 20
388.014
 11
25.2518
 21
387.774
  0
LINE
  8
0
 10
25.2518
 20
387.774
 11
25.3
 21
387.5
  0
LINE
  8
0
 10
25.3
 20
387.5
 11
25.2518
 21
387.226
  0
LINE
  8
0
 10
25.2518
 20
387.226
 11
25.1128
 21
386.986
  0
LINE
  8
0
 10
25.1128
 20
386.986
 11
24.9
 21
386.807
  0
LINE
  8
0
 10
24.9
 20
386.807
 11
24.6389
 21
386.712
  0
LINE
  8
0
 10
24.6389
 20
386.712
 11
24.3611
 21
386.712
  0
LINE
  8
0
 10
46.3611
 20
378.712
 11
46.1
 21
378.807
  0
LINE
  8
0
 10
46.1
 20
378.807
 11
45.8872
 21
378.986
  0
LINE
  8
0
 10
45.8872
 20
378.986
 11
45.7482
 21
379.226
  0
LINE
  8
0
 10
45.7482
 20
379.226
 11
45.7
 21
379.5
  0
LINE
  8
0
 10
45.7
 20
379.5
 11
45.7482
 21
379.774
  0
LINE
  8
0
 10
45.7482
 20
379.774
 11
45.8872
 21
380.014
  0
LINE
  8
0
 10
45.8872
 20
380.014
 11
46.1
 21
380.193
  0
LINE
  8
0
 10
46.1
 20
380.193
 11
46.3611
 21
380.288
  0
LINE
  8
0
 10
46.3611
 20
380.288
 11
46.6389
 21
380.288
  0
LINE
  8
0
 10
46.6389
 20
380.288
 11
46.9
 21
380.193
  0
LINE
  8
0
 10
46.9
 20
380.193
 11
47.1128
 21
380.014
  0
LINE
  8
0
 10
47.1128
 20
380.014
 11
47.2518
 21
379.774
  0
LINE
  8
0
 10
47.2518
 20
379.774
 11
47.3
 21
379.5
  0
LINE
  8
0
 10
47.3
 20
379.5
 11
47.2518
 21
379.226
  0
LINE
  8
0
 10
47.2518
 20
379.226
 11
47.1128
 21
378.986
  0
LINE
  8
0
 10
47.1128
 20
378.986
 11
46.9
 21
378.807
  0
LINE
  8
0
 10
46.9
 20
378.807
 11
46.6389
 21
378.712
  0
LINE
  8
0
 10
46.6389
 20
378.712
 11
46.3611
 21
378.712
  0
LINE
  8
0
 10
22.3611
 20
378.712
 11
22.1
 21
378.807
  0
LINE
  8
0
 10
22.1
 20
378.807
 11
21.8872
 21
378.986
  0
LINE
  8
0
 10
21.8872
 20
378.986
 11
21.7482
 21
379.226
  0
LINE
  8
0
 10
21.7482
 20
379.226
 11
21.7
 21
379.5
  0
LINE
  8
0
 10
21.7
 20
379.5
 11
21.7482
 21
379.774
  0
LINE
  8
0
 10
21.7482
 20
379.774
 11
21.8872
 21
380.014
  0
LINE
  8
0
 10
21.8872
 20
380.014
 11
22.1
 21
380.193
  0
LINE
  8
0
 10
22.1
 20
380.193
 11
22.3611
 21
380.288
  0
LINE
  8
0
 10
22.3611
 20
380.288
 11
22.6389
 21
380.288
  0
LINE
  8
0
 10
22.6389
 20
380.288
 11
22.9
 21
380.193
  0
LINE
  8
0
 10
22.9
 20
380.193
 11
23.1128
 21
380.014
  0
LINE
  8
0
 10
23.1128
 20
380.014
 11
23.2518
 21
379.774
  0
LINE
  8
0
 10
23.2518
 20
379.774
 11
23.3
 21
379.5
  0
LINE
  8
0
 10
23.3
 20
379.5
 11
23.2518
 21
379.226
  0
LINE
  8
0
 10
23.2518
 20
379.226
 11
23.1128
 21
378.986
  0
LINE
  8
0
 10
23.1128
 20
378.986
 11
22.9
 21
378.807
  0
LINE
  8
0
 10
22.9
 20
378.807
 11
22.6389
 21
378.712
  0
LINE
  8
0
 10
22.6389
 20
378.712
 11
22.3611
 21
378.712
  0
LINE
  8
0
 10
32.3611
 20
370.712
 11
32.1
 21
370.807
  0
LINE
  8
0
 10
32.1
 20
370.807
 11
31.8872
 21
370.986
  0
LINE
  8
0
 10
31.8872
 20
370.986
 11
31.7482
 21
371.226
  0
LINE
  8
0
 10
31.7482
 20
371.226
 11
31.7
 21
371.5
  0
LINE
  8
0
 10
31.7
 20
371.5
 11
31.7482
 21
371.774
  0
LINE
  8
0
 10
31.7482
 20
371.774
 11
31.8872
 21
372.014
  0
LINE
  8
0
 10
31.8872
 20
372.014
 11
32.1
 21
372.193
  0
LINE
  8
0
 10
32.1
 20
372.193
 11
32.3611
 21
372.288
  0
LINE
  8
0
 10
32.3611
 20
372.288
 11
32.6389
 21
372.288
  0
LINE
  8
0
 10
32.6389
 20
372.288
 11
32.9
 21
372.193
  0
LINE
  8
0
 10
32.9
 20
372.193
 11
33.1128
 21
372.014
  0
LINE
  8
0
 10
33.1128
 20
372.014
 11
33.2518
 21
371.774
  0
LINE
  8
0
 10
33.2518
 20
371.774
 11
33.3
 21
371.5
  0
LINE
  8
0
 10
33.3
 20
371.5
 11
33.2518
 21
371.226
  0
LINE
  8
0
 10
33.2518
 20
371.226
 11
33.1128
 21
370.986
  0
LINE
  8
0
 10
33.1128
 20
370.986
 11
32.9
 21
370.807
  0
LINE
  8
0
 10
32.9
 20
370.807
 11
32.6389
 21
370.712
  0
LINE
  8
0
 10
32.6389
 20
370.712
 11
32.3611
 21
370.712
  0
LINE
  8
0
 10
52.3611
 20
370.712
 11
52.1
 21
370.807
  0
LINE
  8
0
 10
52.1
 20
370.807
 11
51.8872
 21
370.986
  0
LINE
  8
0
 10
51.8872
 20
370.986
 11
51.7482
 21
371.226
  0
LINE
  8
0
 10
51.7482
 20
371.226
 11
51.7
 21
371.5
  0
LINE
  8
0
 10
51.7
 20
371.5
 11
51.7482
 21
371.774
  0
LINE
  8
0
 10
51.7482
 20
371.774
 11
51.8872
 21
372.014
  0
LINE
  8
0
 10
51.8872
 20
372.014
 11
52.1
 21
372.193
  0
LINE
  8
0
 10
52.1
 20
372.193
 11
52.3611
 21
372.288
  0
LINE
  8
0
 10
52.3611
 20
372.288
 11
52.6389
 21
372.288
  0
LINE
  8
0
 10
52.6389
 20
372.288
 11
52.9
 21
372.193
  0
LINE
  8
0
 10
52.9
 20
372.193
 11
53.1128
 21
372.014
  0
LINE
  8
0
 10
53.1128
 20
372.014
 11
53.2518
 21
371.774
  0
LINE
  8
0
 10
53.2518
 20
371.774
 11
53.3
 21
371.5
  0
LINE
  8
0
 10
53.3
 20
371.5
 11
53.2518
 21
371.226
  0
LINE
  8
0
 10
53.2518
 20
371.226
 11
53.1128
 21
370.986
  0
LINE
  8
0
 10
53.1128
 20
370.986
 11
52.9
 21
370.807
  0
LINE
  8
0
 10
52.9
 20
370.807
 11
52.6389
 21
370.712
  0
LINE
  8
0
 10
52.6389
 20
370.712
 11
52.3611
 21
370.712
  0
LINE
  8
0
 10
52.3611
 20
362.712
 11
52.1
 21
362.807
  0
LINE
  8
0
 10
52.1
 20
362.807
 11
51.8872
 21
362.986
  0
LINE
  8
0
 10
51.8872
 20
362.986
 11
51.7482
 21
363.226
  0
LINE
  8
0
 10
51.7482
 20
363.226
 11
51.7
 21
363.5
  0
LINE
  8
0
 10
51.7
 20
363.5
 11
51.7482
 21
363.774
  0
LINE
  8
0
 10
51.7482
 20
363.774
 11
51.8872
 21
364.014
  0
LINE
  8
0
 10
51.8872
 20
364.014
 11
52.1
 21
364.193
  0
LINE
  8
0
 10
52.1
 20
364.193
 11
52.3611
 21
364.288
  0
LINE
  8
0
 10
52.3611
 20
364.288
 11
52.6389
 21
364.288
  0
LINE
  8
0
 10
52.6389
 20
364.288
 11
52.9
 21
364.193
  0
LINE
  8
0
 10
52.9
 20
364.193
 11
53.1128
 21
364.014
  0
LINE
  8
0
 10
53.1128
 20
364.014
 11
53.2518
 21
363.774
  0
LINE
  8
0
 10
53.2518
 20
363.774
 11
53.3
 21
363.5
  0
LINE
  8
0
 10
53.3
 20
363.5
 11
53.2518
 21
363.226
  0
LINE
  8
0
 10
53.2518
 20
363.226
 11
53.1128
 21
362.986
  0
LINE
  8
0
 10
53.1128
 20
362.986
 11
52.9
 21
362.807
  0
LINE
  8
0
 10
52.9
 20
362.807
 11
52.6389
 21
362.712
  0
LINE
  8
0
 10
52.6389
 20
362.712
 11
52.3611
 21
362.712
  0
LINE
  8
0
 10
32.3611
 20
362.712
 11
32.1
 21
362.807
  0
LINE
  8
0
 10
32.1
 20
362.807
 11
31.8872
 21
362.986
  0
LINE
  8
0
 10
31.8872
 20
362.986
 11
31.7482
 21
363.226
  0
LINE
  8
0
 10
31.7482
 20
363.226
 11
31.7
 21
363.5
  0
LINE
  8
0
 10
31.7
 20
363.5
 11
31.7482
 21
363.774
  0
LINE
  8
0
 10
31.7482
 20
363.774
 11
31.8872
 21
364.014
  0
LINE
  8
0
 10
31.8872
 20
364.014
 11
32.1
 21
364.193
  0
LINE
  8
0
 10
32.1
 20
364.193
 11
32.3611
 21
364.288
  0
LINE
  8
0
 10
32.3611
 20
364.288
 11
32.6389
 21
364.288
  0
LINE
  8
0
 10
32.6389
 20
364.288
 11
32.9
 21
364.193
  0
LINE
  8
0
 10
32.9
 20
364.193
 11
33.1128
 21
364.014
  0
LINE
  8
0
 10
33.1128
 20
364.014
 11
33.2518
 21
363.774
  0
LINE
  8
0
 10
33.2518
 20
363.774
 11
33.3
 21
363.5
  0
LINE
  8
0
 10
33.3
 20
363.5
 11
33.2518
 21
363.226
  0
LINE
  8
0
 10
33.2518
 20
363.226
 11
33.1128
 21
362.986
  0
LINE
  8
0
 10
33.1128
 20
362.986
 11
32.9
 21
362.807
  0
LINE
  8
0
 10
32.9
 20
362.807
 11
32.6389
 21
362.712
  0
LINE
  8
0
 10
32.6389
 20
362.712
 11
32.3611
 21
362.712
  0
LINE
  8
0
 10
50.3611
 20
338.712
 11
50.1
 21
338.807
  0
LINE
  8
0
 10
50.1
 20
338.807
 11
49.8872
 21
338.986
  0
LINE
  8
0
 10
49.8872
 20
338.986
 11
49.7482
 21
339.226
  0
LINE
  8
0
 10
49.7482
 20
339.226
 11
49.7
 21
339.5
  0
LINE
  8
0
 10
49.7
 20
339.5
 11
49.7482
 21
339.774
  0
LINE
  8
0
 10
49.7482
 20
339.774
 11
49.8872
 21
340.014
  0
LINE
  8
0
 10
49.8872
 20
340.014
 11
50.1
 21
340.193
  0
LINE
  8
0
 10
50.1
 20
340.193
 11
50.3611
 21
340.288
  0
LINE
  8
0
 10
50.3611
 20
340.288
 11
50.6389
 21
340.288
  0
LINE
  8
0
 10
50.6389
 20
340.288
 11
50.9
 21
340.193
  0
LINE
  8
0
 10
50.9
 20
340.193
 11
51.1128
 21
340.014
  0
LINE
  8
0
 10
51.1128
 20
340.014
 11
51.2518
 21
339.774
  0
LINE
  8
0
 10
51.2518
 20
339.774
 11
51.3
 21
339.5
  0
LINE
  8
0
 10
51.3
 20
339.5
 11
51.2518
 21
339.226
  0
LINE
  8
0
 10
51.2518
 20
339.226
 11
51.1128
 21
338.986
  0
LINE
  8
0
 10
51.1128
 20
338.986
 11
50.9
 21
338.807
  0
LINE
  8
0
 10
50.9
 20
338.807
 11
50.6389
 21
338.712
  0
LINE
  8
0
 10
50.6389
 20
338.712
 11
50.3611
 21
338.712
  0
LINE
  8
0
 10
28.3611
 20
338.712
 11
28.1
 21
338.807
  0
LINE
  8
0
 10
28.1
 20
338.807
 11
27.8872
 21
338.986
  0
LINE
  8
0
 10
27.8872
 20
338.986
 11
27.7482
 21
339.226
  0
LINE
  8
0
 10
27.7482
 20
339.226
 11
27.7
 21
339.5
  0
LINE
  8
0
 10
27.7
 20
339.5
 11
27.7482
 21
339.774
  0
LINE
  8
0
 10
27.7482
 20
339.774
 11
27.8872
 21
340.014
  0
LINE
  8
0
 10
27.8872
 20
340.014
 11
28.1
 21
340.193
  0
LINE
  8
0
 10
28.1
 20
340.193
 11
28.3611
 21
340.288
  0
LINE
  8
0
 10
28.3611
 20
340.288
 11
28.6389
 21
340.288
  0
LINE
  8
0
 10
28.6389
 20
340.288
 11
28.9
 21
340.193
  0
LINE
  8
0
 10
28.9
 20
340.193
 11
29.1128
 21
340.014
  0
LINE
  8
0
 10
29.1128
 20
340.014
 11
29.2518
 21
339.774
  0
LINE
  8
0
 10
29.2518
 20
339.774
 11
29.3
 21
339.5
  0
LINE
  8
0
 10
29.3
 20
339.5
 11
29.2518
 21
339.226
  0
LINE
  8
0
 10
29.2518
 20
339.226
 11
29.1128
 21
338.986
  0
LINE
  8
0
 10
29.1128
 20
338.986
 11
28.9
 21
338.807
  0
LINE
  8
0
 10
28.9
 20
338.807
 11
28.6389
 21
338.712
  0
LINE
  8
0
 10
28.6389
 20
338.712
 11
28.3611
 21
338.712
  0
LINE
  8
0
 10
24.3611
 20
314.712
 11
24.1
 21
314.807
  0
LINE
  8
0
 10
24.1
 20
314.807
 11
23.8872
 21
314.986
  0
LINE
  8
0
 10
23.8872
 20
314.986
 11
23.7482
 21
315.226
  0
LINE
  8
0
 10
23.7482
 20
315.226
 11
23.7
 21
315.5
  0
LINE
  8
0
 10
23.7
 20
315.5
 11
23.7482
 21
315.774
  0
LINE
  8
0
 10
23.7482
 20
315.774
 11
23.8872
 21
316.014
  0
LINE
  8
0
 10
23.8872
 20
316.014
 11
24.1
 21
316.193
  0
LINE
  8
0
 10
24.1
 20
316.193
 11
24.3611
 21
316.288
  0
LINE
  8
0
 10
24.3611
 20
316.288
 11
24.6389
 21
316.288
  0
LINE
  8
0
 10
24.6389
 20
316.288
 11
24.9
 21
316.193
  0
LINE
  8
0
 10
24.9
 20
316.193
 11
25.1128
 21
316.014
  0
LINE
  8
0
 10
25.1128
 20
316.014
 11
25.2518
 21
315.774
  0
LINE
  8
0
 10
25.2518
 20
315.774
 11
25.3
 21
315.5
  0
LINE
  8
0
 10
25.3
 20
315.5
 11
25.2518
 21
315.226
  0
LINE
  8
0
 10
25.2518
 20
315.226
 11
25.1128
 21
314.986
  0
LINE
  8
0
 10
25.1128
 20
314.986
 11
24.9
 21
314.807
  0
LINE
  8
0
 10
24.9
 20
314.807
 11
24.6389
 21
314.712
  0
LINE
  8
0
 10
24.6389
 20
314.712
 11
24.3611
 21
314.712
  0
LINE
  8
0
 10
48.3611
 20
314.712
 11
48.1
 21
314.807
  0
LINE
  8
0
 10
48.1
 20
314.807
 11
47.8872
 21
314.986
  0
LINE
  8
0
 10
47.8872
 20
314.986
 11
47.7482
 21
315.226
  0
LINE
  8
0
 10
47.7482
 20
315.226
 11
47.7
 21
315.5
  0
LINE
  8
0
 10
47.7
 20
315.5
 11
47.7482
 21
315.774
  0
LINE
  8
0
 10
47.7482
 20
315.774
 11
47.8872
 21
316.014
  0
LINE
  8
0
 10
47.8872
 20
316.014
 11
48.1
 21
316.193
  0
LINE
  8
0
 10
48.1
 20
316.193
 11
48.3611
 21
316.288
  0
LINE
  8
0
 10
48.3611
 20
316.288
 11
48.6389
 21
316.288
  0
LINE
  8
0
 10
48.6389
 20
316.288
 11
48.9
 21
316.193
  0
LINE
  8
0
 10
48.9
 20
316.193
 11
49.1128
 21
316.014
  0
LINE
  8
0
 10
49.1128
 20
316.014
 11
49.2518
 21
315.774
  0
LINE
  8
0
 10
49.2518
 20
315.774
 11
49.3
 21
315.5
  0
LINE
  8
0
 10
49.3
 20
315.5
 11
49.2518
 21
315.226
  0
LINE
  8
0
 10
49.2518
 20
315.226
 11
49.1128
 21
314.986
  0
LINE
  8
0
 10
49.1128
 20
314.986
 11
48.9
 21
314.807
  0
LINE
  8
0
 10
48.9
 20
314.807
 11
48.6389
 21
314.712
  0
LINE
  8
0
 10
48.6389
 20
314.712
 11
48.3611
 21
314.712
  0
LINE
  8
0
 10
48.3611
 20
306.712
 11
48.1
 21
306.807
  0
LINE
  8
0
 10
48.1
 20
306.807
 11
47.8872
 21
306.986
  0
LINE
  8
0
 10
47.8872
 20
306.986
 11
47.7482
 21
307.226
  0
LINE
  8
0
 10
47.7482
 20
307.226
 11
47.7
 21
307.5
  0
LINE
  8
0
 10
47.7
 20
307.5
 11
47.7482
 21
307.774
  0
LINE
  8
0
 10
47.7482
 20
307.774
 11
47.8872
 21
308.014
  0
LINE
  8
0
 10
47.8872
 20
308.014
 11
48.1
 21
308.193
  0
LINE
  8
0
 10
48.1
 20
308.193
 11
48.3611
 21
308.288
  0
LINE
  8
0
 10
48.3611
 20
308.288
 11
48.6389
 21
308.288
  0
LINE
  8
0
 10
48.6389
 20
308.288
 11
48.9
 21
308.193
  0
LINE
  8
0
 10
48.9
 20
308.193
 11
49.1128
 21
308.014
  0
LINE
  8
0
 10
49.1128
 20
308.014
 11
49.2518
 21
307.774
  0
LINE
  8
0
 10
49.2518
 20
307.774
 11
49.3
 21
307.5
  0
LINE
  8
0
 10
49.3
 20
307.5
 11
49.2518
 21
307.226
  0
LINE
  8
0
 10
49.2518
 20
307.226
 11
49.1128
 21
306.986
  0
LINE
  8
0
 10
49.1128
 20
306.986
 11
48.9
 21
306.807
  0
LINE
  8
0
 10
48.9
 20
306.807
 11
48.6389
 21
306.712
  0
LINE
  8
0
 10
48.6389
 20
306.712
 11
48.3611
 21
306.712
  0
LINE
  8
0
 10
24.3611
 20
306.712
 11
24.1
 21
306.807
  0
LINE
  8
0
 10
24.1
 20
306.807
 11
23.8872
 21
306.986
  0
LINE
  8
0
 10
23.8872
 20
306.986
 11
23.7482
 21
307.226
  0
LINE
  8
0
 10
23.7482
 20
307.226
 11
23.7
 21
307.5
  0
LINE
  8
0
 10
23.7
 20
307.5
 11
23.7482
 21
307.774
  0
LINE
  8
0
 10
23.7482
 20
307.774
 11
23.8872
 21
308.014
  0
LINE
  8
0
 10
23.8872
 20
308.014
 11
24.1
 21
308.193
  0
LINE
  8
0
 10
24.1
 20
308.193
 11
24.3611
 21
308.288
  0
LINE
  8
0
 10
24.3611
 20
308.288
 11
24.6389
 21
308.288
  0
LINE
  8
0
 10
24.6389
 20
308.288
 11
24.9
 21
308.193
  0
LINE
  8
0
 10
24.9
 20
308.193
 11
25.1128
 21
308.014
  0
LINE
  8
0
 10
25.1128
 20
308.014
 11
25.2518
 21
307.774
  0
LINE
  8
0
 10
25.2518
 20
307.774
 11
25.3
 21
307.5
  0
LINE
  8
0
 10
25.3
 20
307.5
 11
25.2518
 21
307.226
  0
LINE
  8
0
 10
25.2518
 20
307.226
 11
25.1128
 21
306.986
  0
LINE
  8
0
 10
25.1128
 20
306.986
 11
24.9
 21
306.807
  0
LINE
  8
0
 10
24.9
 20
306.807
 11
24.6389
 21
306.712
  0
LINE
  8
0
 10
24.6389
 20
306.712
 11
24.3611
 21
306.712
  0
LINE
  8
0
 10
46.3611
 20
282.712
 11
46.1
 21
282.807
  0
LINE
  8
0
 10
46.1
 20
282.807
 11
45.8872
 21
282.986
  0
LINE
  8
0
 10
45.8872
 20
282.986
 11
45.7482
 21
283.226
  0
LINE
  8
0
 10
45.7482
 20
283.226
 11
45.7
 21
283.5
  0
LINE
  8
0
 10
45.7
 20
283.5
 11
45.7482
 21
283.774
  0
LINE
  8
0
 10
45.7482
 20
283.774
 11
45.8872
 21
284.014
  0
LINE
  8
0
 10
45.8872
 20
284.014
 11
46.1
 21
284.193
  0
LINE
  8
0
 10
46.1
 20
284.193
 11
46.3611
 21
284.288
  0
LINE
  8
0
 10
46.3611
 20
284.288
 11
46.6389
 21
284.288
  0
LINE
  8
0
 10
46.6389
 20
284.288
 11
46.9
 21
284.193
  0
LINE
  8
0
 10
46.9
 20
284.193
 11
47.1128
 21
284.014
  0
LINE
  8
0
 10
47.1128
 20
284.014
 11
47.2518
 21
283.774
  0
LINE
  8
0
 10
47.2518
 20
283.774
 11
47.3
 21
283.5
  0
LINE
  8
0
 10
47.3
 20
283.5
 11
47.2518
 21
283.226
  0
LINE
  8
0
 10
47.2518
 20
283.226
 11
47.1128
 21
282.986
  0
LINE
  8
0
 10
47.1128
 20
282.986
 11
46.9
 21
282.807
  0
LINE
  8
0
 10
46.9
 20
282.807
 11
46.6389
 21
282.712
  0
LINE
  8
0
 10
46.6389
 20
282.712
 11
46.3611
 21
282.712
  0
LINE
  8
0
 10
22.3611
 20
282.712
 11
22.1
 21
282.807
  0
LINE
  8
0
 10
22.1
 20
282.807
 11
21.8872
 21
282.986
  0
LINE
  8
0
 10
21.8872
 20
282.986
 11
21.7482
 21
283.226
  0
LINE
  8
0
 10
21.7482
 20
283.226
 11
21.7
 21
283.5
  0
LINE
  8
0
 10
21.7
 20
283.5
 11
21.7482
 21
283.774
  0
LINE
  8
0
 10
21.7482
 20
283.774
 11
21.8872
 21
284.014
  0
LINE
  8
0
 10
21.8872
 20
284.014
 11
22.1
 21
284.193
  0
LINE
  8
0
 10
22.1
 20
284.193
 11
22.3611
 21
284.288
  0
LINE
  8
0
 10
22.3611
 20
284.288
 11
22.6389
 21
284.288
  0
LINE
  8
0
 10
22.6389
 20
284.288
 11
22.9
 21
284.193
  0
LINE
  8
0
 10
22.9
 20
284.193
 11
23.1128
 21
284.014
  0
LINE
  8
0
 10
23.1128
 20
284.014
 11
23.2518
 21
283.774
  0
LINE
  8
0
 10
23.2518
 20
283.774
 11
23.3
 21
283.5
  0
LINE
  8
0
 10
23.3
 20
283.5
 11
23.2518
 21
283.226
  0
LINE
  8
0
 10
23.2518
 20
283.226
 11
23.1128
 21
282.986
  0
LINE
  8
0
 10
23.1128
 20
282.986
 11
22.9
 21
282.807
  0
LINE
  8
0
 10
22.9
 20
282.807
 11
22.6389
 21
282.712
  0
LINE
  8
0
 10
22.6389
 20
282.712
 11
22.3611
 21
282.712
  0
LINE
  8
0
 10
32.3611
 20
274.712
 11
32.1
 21
274.807
  0
LINE
  8
0
 10
32.1
 20
274.807
 11
31.8872
 21
274.986
  0
LINE
  8
0
 10
31.8872
 20
274.986
 11
31.7482
 21
275.226
  0
LINE
  8
0
 10
31.7482
 20
275.226
 11
31.7
 21
275.5
  0
LINE
  8
0
 10
31.7
 20
275.5
 11
31.7482
 21
275.774
  0
LINE
  8
0
 10
31.7482
 20
275.774
 11
31.8872
 21
276.014
  0
LINE
  8
0
 10
31.8872
 20
276.014
 11
32.1
 21
276.193
  0
LINE
  8
0
 10
32.1
 20
276.193
 11
32.3611
 21
276.288
  0
LINE
  8
0
 10
32.3611
 20
276.288
 11
32.6389
 21
276.288
  0
LINE
  8
0
 10
32.6389
 20
276.288
 11
32.9
 21
276.193
  0
LINE
  8
0
 10
32.9
 20
276.193
 11
33.1128
 21
276.014
  0
LINE
  8
0
 10
33.1128
 20
276.014
 11
33.2518
 21
275.774
  0
LINE
  8
0
 10
33.2518
 20
275.774
 11
33.3
 21
275.5
  0
LINE
  8
0
 10
33.3
 20
275.5
 11
33.2518
 21
275.226
  0
LINE
  8
0
 10
33.2518
 20
275.226
 11
33.1128
 21
274.986
  0
LINE
  8
0
 10
33.1128
 20
274.986
 11
32.9
 21
274.807
  0
LINE
  8
0
 10
32.9
 20
274.807
 11
32.6389
 21
274.712
  0
LINE
  8
0
 10
32.6389
 20
274.712
 11
32.3611
 21
274.712
  0
LINE
  8
0
 10
52.3611
 20
274.712
 11
52.1
 21
274.807
  0
LINE
  8
0
 10
52.1
 20
274.807
 11
51.8872
 21
274.986
  0
LINE
  8
0
 10
51.8872
 20
274.986
 11
51.7482
 21
275.226
  0
LINE
  8
0
 10
51.7482
 20
275.226
 11
51.7
 21
275.5
  0
LINE
  8
0
 10
51.7
 20
275.5
 11
51.7482
 21
275.774
  0
LINE
  8
0
 10
51.7482
 20
275.774
 11
51.8872
 21
276.014
  0
LINE
  8
0
 10
51.8872
 20
276.014
 11
52.1
 21
276.193
  0
LINE
  8
0
 10
52.1
 20
276.193
 11
52.3611
 21
276.288
  0
LINE
  8
0
 10
52.3611
 20
276.288
 11
52.6389
 21
276.288
  0
LINE
  8
0
 10
52.6389
 20
276.288
 11
52.9
 21
276.193
  0
LINE
  8
0
 10
52.9
 20
276.193
 11
53.1128
 21
276.014
  0
LINE
  8
0
 10
53.1128
 20
276.014
 11
53.2518
 21
275.774
  0
LINE
  8
0
 10
53.2518
 20
275.774
 11
53.3
 21
275.5
  0
LINE
  8
0
 10
53.3
 20
275.5
 11
53.2518
 21
275.226
  0
LINE
  8
0
 10
53.2518
 20
275.226
 11
53.1128
 21
274.986
  0
LINE
  8
0
 10
53.1128
 20
274.986
 11
52.9
 21
274.807
  0
LINE
  8
0
 10
52.9
 20
274.807
 11
52.6389
 21
274.712
  0
LINE
  8
0
 10
52.6389
 20
274.712
 11
52.3611
 21
274.712
  0
LINE
  8
0
 10
50.3611
 20
266.712
 11
50.1
 21
266.807
  0
LINE
  8
0
 10
50.1
 20
266.807
 11
49.8872
 21
266.986
  0
LINE
  8
0
 10
49.8872
 20
266.986
 11
49.7482
 21
267.226
  0
LINE
  8
0
 10
49.7482
 20
267.226
 11
49.7
 21
267.5
  0
LINE
  8
0
 10
49.7
 20
267.5
 11
49.7482
 21
267.774
  0
LINE
  8
0
 10
49.7482
 20
267.774
 11
49.8872
 21
268.014
  0
LINE
  8
0
 10
49.8872
 20
268.014
 11
50.1
 21
268.193
  0
LINE
  8
0
 10
50.1
 20
268.193
 11
50.3611
 21
268.288
  0
LINE
  8
0
 10
50.3611
 20
268.288
 11
50.6389
 21
268.288
  0
LINE
  8
0
 10
50.6389
 20
268.288
 11
50.9
 21
268.193
  0
LINE
  8
0
 10
50.9
 20
268.193
 11
51.1128
 21
268.014
  0
LINE
  8
0
 10
51.1128
 20
268.014
 11
51.2518
 21
267.774
  0
LINE
  8
0
 10
51.2518
 20
267.774
 11
51.3
 21
267.5
  0
LINE
  8
0
 10
51.3
 20
267.5
 11
51.2518
 21
267.226
  0
LINE
  8
0
 10
51.2518
 20
267.226
 11
51.1128
 21
266.986
  0
LINE
  8
0
 10
51.1128
 20
266.986
 11
50.9
 21
266.807
  0
LINE
  8
0
 10
50.9
 20
266.807
 11
50.6389
 21
266.712
  0
LINE
  8
0
 10
50.6389
 20
266.712
 11
50.3611
 21
266.712
  0
LINE
  8
0
 10
28.3611
 20
266.712
 11
28.1
 21
266.807
  0
LINE
  8
0
 10
28.1
 20
266.807
 11
27.8872
 21
266.986
  0
LINE
  8
0
 10
27.8872
 20
266.986
 11
27.7482
 21
267.226
  0
LINE
  8
0
 10
27.7482
 20
267.226
 11
27.7
 21
267.5
  0
LINE
  8
0
 10
27.7
 20
267.5
 11
27.7482
 21
267.774
  0
LINE
  8
0
 10
27.7482
 20
267.774
 11
27.8872
 21
268.014
  0
LINE
  8
0
 10
27.8872
 20
268.014
 11
28.1
 21
268.193
  0
LINE
  8
0
 10
28.1
 20
268.193
 11
28.3611
 21
268.288
  0
LINE
  8
0
 10
28.3611
 20
268.288
 11
28.6389
 21
268.288
  0
LINE
  8
0
 10
28.6389
 20
268.288
 11
28.9
 21
268.193
  0
LINE
  8
0
 10
28.9
 20
268.193
 11
29.1128
 21
268.014
  0
LINE
  8
0
 10
29.1128
 20
268.014
 11
29.2518
 21
267.774
  0
LINE
  8
0
 10
29.2518
 20
267.774
 11
29.3
 21
267.5
  0
LINE
  8
0
 10
29.3
 20
267.5
 11
29.2518
 21
267.226
  0
LINE
  8
0
 10
29.2518
 20
267.226
 11
29.1128
 21
266.986
  0
LINE
  8
0
 10
29.1128
 20
266.986
 11
28.9
 21
266.807
  0
LINE
  8
0
 10
28.9
 20
266.807
 11
28.6389
 21
266.712
  0
LINE
  8
0
 10
28.6389
 20
266.712
 11
28.3611
 21
266.712
  0
LINE
  8
0
 10
24.3611
 20
258.712
 11
24.1
 21
258.807
  0
LINE
  8
0
 10
24.1
 20
258.807
 11
23.8872
 21
258.986
  0
LINE
  8
0
 10
23.8872
 20
258.986
 11
23.7482
 21
259.226
  0
LINE
  8
0
 10
23.7482
 20
259.226
 11
23.7
 21
259.5
  0
LINE
  8
0
 10
23.7
 20
259.5
 11
23.7482
 21
259.774
  0
LINE
  8
0
 10
23.7482
 20
259.774
 11
23.8872
 21
260.014
  0
LINE
  8
0
 10
23.8872
 20
260.014
 11
24.1
 21
260.193
  0
LINE
  8
0
 10
24.1
 20
260.193
 11
24.3611
 21
260.288
  0
LINE
  8
0
 10
24.3611
 20
260.288
 11
24.6389
 21
260.288
  0
LINE
  8
0
 10
24.6389
 20
260.288
 11
24.9
 21
260.193
  0
LINE
  8
0
 10
24.9
 20
260.193
 11
25.1128
 21
260.014
  0
LINE
  8
0
 10
25.1128
 20
260.014
 11
25.2518
 21
259.774
  0
LINE
  8
0
 10
25.2518
 20
259.774
 11
25.3
 21
259.5
  0
LINE
  8
0
 10
25.3
 20
259.5
 11
25.2518
 21
259.226
  0
LINE
  8
0
 10
25.2518
 20
259.226
 11
25.1128
 21
258.986
  0
LINE
  8
0
 10
25.1128
 20
258.986
 11
24.9
 21
258.807
  0
LINE
  8
0
 10
24.9
 20
258.807
 11
24.6389
 21
258.712
  0
LINE
  8
0
 10
24.6389
 20
258.712
 11
24.3611
 21
258.712
  0
LINE
  8
0
 10
48.3611
 20
258.712
 11
48.1
 21
258.807
  0
LINE
  8
0
 10
48.1
 20
258.807
 11
47.8872
 21
258.986
  0
LINE
  8
0
 10
47.8872
 20
258.986
 11
47.7482
 21
259.226
  0
LINE
  8
0
 10
47.7482
 20
259.226
 11
47.7
 21
259.5
  0
LINE
  8
0
 10
47.7
 20
259.5
 11
47.7482
 21
259.774
  0
LINE
  8
0
 10
47.7482
 20
259.774
 11
47.8872
 21
260.014
  0
LINE
  8
0
 10
47.8872
 20
260.014
 11
48.1
 21
260.193
  0
LINE
  8
0
 10
48.1
 20
260.193
 11
48.3611
 21
260.288
  0
LINE
  8
0
 10
48.3611
 20
260.288
 11
48.6389
 21
260.288
  0
LINE
  8
0
 10
48.6389
 20
260.288
 11
48.9
 21
260.193
  0
LINE
  8
0
 10
48.9
 20
260.193
 11
49.1128
 21
260.014
  0
LINE
  8
0
 10
49.1128
 20
260.014
 11
49.2518
 21
259.774
  0
LINE
  8
0
 10
49.2518
 20
259.774
 11
49.3
 21
259.5
  0
LINE
  8
0
 10
49.3
 20
259.5
 11
49.2518
 21
259.226
  0
LINE
  8
0
 10
49.2518
 20
259.226
 11
49.1128
 21
258.986
  0
LINE
  8
0
 10
49.1128
 20
258.986
 11
48.9
 21
258.807
  0
LINE
  8
0
 10
48.9
 20
258.807
 11
48.6389
 21
258.712
  0
LINE
  8
0
 10
48.6389
 20
258.712
 11
48.3611
 21
258.712
  0
LINE
  8
0
 10
22.3611
 20
250.712
 11
22.1
 21
250.807
  0
LINE
  8
0
 10
22.1
 20
250.807
 11
21.8872
 21
250.986
  0
LINE
  8
0
 10
21.8872
 20
250.986
 11
21.7482
 21
251.226
  0
LINE
  8
0
 10
21.7482
 20
251.226
 11
21.7
 21
251.5
  0
LINE
  8
0
 10
21.7
 20
251.5
 11
21.7482
 21
251.774
  0
LINE
  8
0
 10
21.7482
 20
251.774
 11
21.8872
 21
252.014
  0
LINE
  8
0
 10
21.8872
 20
252.014
 11
22.1
 21
252.193
  0
LINE
  8
0
 10
22.1
 20
252.193
 11
22.3611
 21
252.288
  0
LINE
  8
0
 10
22.3611
 20
252.288
 11
22.6389
 21
252.288
  0
LINE
  8
0
 10
22.6389
 20
252.288
 11
22.9
 21
252.193
  0
LINE
  8
0
 10
22.9
 20
252.193
 11
23.1128
 21
252.014
  0
LINE
  8
0
 10
23.1128
 20
252.014
 11
23.2518
 21
251.774
  0
LINE
  8
0
 10
23.2518
 20
251.774
 11
23.3
 21
251.5
  0
LINE
  8
0
 10
23.3
 20
251.5
 11
23.2518
 21
251.226
  0
LINE
  8
0
 10
23.2518
 20
251.226
 11
23.1128
 21
250.986
  0
LINE
  8
0
 10
23.1128
 20
250.986
 11
22.9
 21
250.807
  0
LINE
  8
0
 10
22.9
 20
250.807
 11
22.6389
 21
250.712
  0
LINE
  8
0
 10
22.6389
 20
250.712
 11
22.3611
 21
250.712
  0
LINE
  8
0
 10
46.3611
 20
250.712
 11
46.1
 21
250.807
  0
LINE
  8
0
 10
46.1
 20
250.807
 11
45.8872
 21
250.986
  0
LINE
  8
0
 10
45.8872
 20
250.986
 11
45.7482
 21
251.226
  0
LINE
  8
0
 10
45.7482
 20
251.226
 11
45.7
 21
251.5
  0
LINE
  8
0
 10
45.7
 20
251.5
 11
45.7482
 21
251.774
  0
LINE
  8
0
 10
45.7482
 20
251.774
 11
45.8872
 21
252.014
  0
LINE
  8
0
 10
45.8872
 20
252.014
 11
46.1
 21
252.193
  0
LINE
  8
0
 10
46.1
 20
252.193
 11
46.3611
 21
252.288
  0
LINE
  8
0
 10
46.3611
 20
252.288
 11
46.6389
 21
252.288
  0
LINE
  8
0
 10
46.6389
 20
252.288
 11
46.9
 21
252.193
  0
LINE
  8
0
 10
46.9
 20
252.193
 11
47.1128
 21
252.014
  0
LINE
  8
0
 10
47.1128
 20
252.014
 11
47.2518
 21
251.774
  0
LINE
  8
0
 10
47.2518
 20
251.774
 11
47.3
 21
251.5
  0
LINE
  8
0
 10
47.3
 20
251.5
 11
47.2518
 21
251.226
  0
LINE
  8
0
 10
47.2518
 20
251.226
 11
47.1128
 21
250.986
  0
LINE
  8
0
 10
47.1128
 20
250.986
 11
46.9
 21
250.807
  0
LINE
  8
0
 10
46.9
 20
250.807
 11
46.6389
 21
250.712
  0
LINE
  8
0
 10
46.6389
 20
250.712
 11
46.3611
 21
250.712
  0
LINE
  8
0
 10
52.3611
 20
242.712
 11
52.1
 21
242.807
  0
LINE
  8
0
 10
52.1
 20
242.807
 11
51.8872
 21
242.986
  0
LINE
  8
0
 10
51.8872
 20
242.986
 11
51.7482
 21
243.226
  0
LINE
  8
0
 10
51.7482
 20
243.226
 11
51.7
 21
243.5
  0
LINE
  8
0
 10
51.7
 20
243.5
 11
51.7482
 21
243.774
  0
LINE
  8
0
 10
51.7482
 20
243.774
 11
51.8872
 21
244.014
  0
LINE
  8
0
 10
51.8872
 20
244.014
 11
52.1
 21
244.193
  0
LINE
  8
0
 10
52.1
 20
244.193
 11
52.3611
 21
244.288
  0
LINE
  8
0
 10
52.3611
 20
244.288
 11
52.6389
 21
244.288
  0
LINE
  8
0
 10
52.6389
 20
244.288
 11
52.9
 21
244.193
  0
LINE
  8
0
 10
52.9
 20
244.193
 11
53.1128
 21
244.014
  0
LINE
  8
0
 10
53.1128
 20
244.014
 11
53.2518
 21
243.774
  0
LINE
  8
0
 10
53.2518
 20
243.774
 11
53.3
 21
243.5
  0
LINE
  8
0
 10
53.3
 20
243.5
 11
53.2518
 21
243.226
  0
LINE
  8
0
 10
53.2518
 20
243.226
 11
53.1128
 21
242.986
  0
LINE
  8
0
 10
53.1128
 20
242.986
 11
52.9
 21
242.807
  0
LINE
  8
0
 10
52.9
 20
242.807
 11
52.6389
 21
242.712
  0
LINE
  8
0
 10
52.6389
 20
242.712
 11
52.3611
 21
242.712
  0
LINE
  8
0
 10
32.3611
 20
242.712
 11
32.1
 21
242.807
  0
LINE
  8
0
 10
32.1
 20
242.807
 11
31.8872
 21
242.986
  0
LINE
  8
0
 10
31.8872
 20
242.986
 11
31.7482
 21
243.226
  0
LINE
  8
0
 10
31.7482
 20
243.226
 11
31.7
 21
243.5
  0
LINE
  8
0
 10
31.7
 20
243.5
 11
31.7482
 21
243.774
  0
LINE
  8
0
 10
31.7482
 20
243.774
 11
31.8872
 21
244.014
  0
LINE
  8
0
 10
31.8872
 20
244.014
 11
32.1
 21
244.193
  0
LINE
  8
0
 10
32.1
 20
244.193
 11
32.3611
 21
244.288
  0
LINE
  8
0
 10
32.3611
 20
244.288
 11
32.6389
 21
244.288
  0
LINE
  8
0
 10
32.6389
 20
244.288
 11
32.9
 21
244.193
  0
LINE
  8
0
 10
32.9
 20
244.193
 11
33.1128
 21
244.014
  0
LINE
  8
0
 10
33.1128
 20
244.014
 11
33.2518
 21
243.774
  0
LINE
  8
0
 10
33.2518
 20
243.774
 11
33.3
 21
243.5
  0
LINE
  8
0
 10
33.3
 20
243.5
 11
33.2518
 21
243.226
  0
LINE
  8
0
 10
33.2518
 20
243.226
 11
33.1128
 21
242.986
  0
LINE
  8
0
 10
33.1128
 20
242.986
 11
32.9
 21
242.807
  0
LINE
  8
0
 10
32.9
 20
242.807
 11
32.6389
 21
242.712
  0
LINE
  8
0
 10
32.6389
 20
242.712
 11
32.3611
 21
242.712
  0
LINE
  8
0
 10
32.3611
 20
234.712
 11
32.1
 21
234.807
  0
LINE
  8
0
 10
32.1
 20
234.807
 11
31.8872
 21
234.986
  0
LINE
  8
0
 10
31.8872
 20
234.986
 11
31.7482
 21
235.226
  0
LINE
  8
0
 10
31.7482
 20
235.226
 11
31.7
 21
235.5
  0
LINE
  8
0
 10
31.7
 20
235.5
 11
31.7482
 21
235.774
  0
LINE
  8
0
 10
31.7482
 20
235.774
 11
31.8872
 21
236.014
  0
LINE
  8
0
 10
31.8872
 20
236.014
 11
32.1
 21
236.193
  0
LINE
  8
0
 10
32.1
 20
236.193
 11
32.3611
 21
236.288
  0
LINE
  8
0
 10
32.3611
 20
236.288
 11
32.6389
 21
236.288
  0
LINE
  8
0
 10
32.6389
 20
236.288
 11
32.9
 21
236.193
  0
LINE
  8
0
 10
32.9
 20
236.193
 11
33.1128
 21
236.014
  0
LINE
  8
0
 10
33.1128
 20
236.014
 11
33.2518
 21
235.774
  0
LINE
  8
0
 10
33.2518
 20
235.774
 11
33.3
 21
235.5
  0
LINE
  8
0
 10
33.3
 20
235.5
 11
33.2518
 21
235.226
  0
LINE
  8
0
 10
33.2518
 20
235.226
 11
33.1128
 21
234.986
  0
LINE
  8
0
 10
33.1128
 20
234.986
 11
32.9
 21
234.807
  0
LINE
  8
0
 10
32.9
 20
234.807
 11
32.6389
 21
234.712
  0
LINE
  8
0
 10
32.6389
 20
234.712
 11
32.3611
 21
234.712
  0
LINE
  8
0
 10
52.3611
 20
234.712
 11
52.1
 21
234.807
  0
LINE
  8
0
 10
52.1
 20
234.807
 11
51.8872
 21
234.986
  0
LINE
  8
0
 10
51.8872
 20
234.986
 11
51.7482
 21
235.226
  0
LINE
  8
0
 10
51.7482
 20
235.226
 11
51.7
 21
235.5
  0
LINE
  8
0
 10
51.7
 20
235.5
 11
51.7482
 21
235.774
  0
LINE
  8
0
 10
51.7482
 20
235.774
 11
51.8872
 21
236.014
  0
LINE
  8
0
 10
51.8872
 20
236.014
 11
52.1
 21
236.193
  0
LINE
  8
0
 10
52.1
 20
236.193
 11
52.3611
 21
236.288
  0
LINE
  8
0
 10
52.3611
 20
236.288
 11
52.6389
 21
236.288
  0
LINE
  8
0
 10
52.6389
 20
236.288
 11
52.9
 21
236.193
  0
LINE
  8
0
 10
52.9
 20
236.193
 11
53.1128
 21
236.014
  0
LINE
  8
0
 10
53.1128
 20
236.014
 11
53.2518
 21
235.774
  0
LINE
  8
0
 10
53.2518
 20
235.774
 11
53.3
 21
235.5
  0
LINE
  8
0
 10
53.3
 20
235.5
 11
53.2518
 21
235.226
  0
LINE
  8
0
 10
53.2518
 20
235.226
 11
53.1128
 21
234.986
  0
LINE
  8
0
 10
53.1128
 20
234.986
 11
52.9
 21
234.807
  0
LINE
  8
0
 10
52.9
 20
234.807
 11
52.6389
 21
234.712
  0
LINE
  8
0
 10
52.6389
 20
234.712
 11
52.3611
 21
234.712
  0
LINE
  8
0
 10
24.3611
 20
218.712
 11
24.1
 21
218.807
  0
LINE
  8
0
 10
24.1
 20
218.807
 11
23.8872
 21
218.986
  0
LINE
  8
0
 10
23.8872
 20
218.986
 11
23.7482
 21
219.226
  0
LINE
  8
0
 10
23.7482
 20
219.226
 11
23.7
 21
219.5
  0
LINE
  8
0
 10
23.7
 20
219.5
 11
23.7482
 21
219.774
  0
LINE
  8
0
 10
23.7482
 20
219.774
 11
23.8872
 21
220.014
  0
LINE
  8
0
 10
23.8872
 20
220.014
 11
24.1
 21
220.193
  0
LINE
  8
0
 10
24.1
 20
220.193
 11
24.3611
 21
220.288
  0
LINE
  8
0
 10
24.3611
 20
220.288
 11
24.6389
 21
220.288
  0
LINE
  8
0
 10
24.6389
 20
220.288
 11
24.9
 21
220.193
  0
LINE
  8
0
 10
24.9
 20
220.193
 11
25.1128
 21
220.014
  0
LINE
  8
0
 10
25.1128
 20
220.014
 11
25.2518
 21
219.774
  0
LINE
  8
0
 10
25.2518
 20
219.774
 11
25.3
 21
219.5
  0
LINE
  8
0
 10
25.3
 20
219.5
 11
25.2518
 21
219.226
  0
LINE
  8
0
 10
25.2518
 20
219.226
 11
25.1128
 21
218.986
  0
LINE
  8
0
 10
25.1128
 20
218.986
 11
24.9
 21
218.807
  0
LINE
  8
0
 10
24.9
 20
218.807
 11
24.6389
 21
218.712
  0
LINE
  8
0
 10
24.6389
 20
218.712
 11
24.3611
 21
218.712
  0
LINE
  8
0
 10
48.3611
 20
218.712
 11
48.1
 21
218.807
  0
LINE
  8
0
 10
48.1
 20
218.807
 11
47.8872
 21
218.986
  0
LINE
  8
0
 10
47.8872
 20
218.986
 11
47.7482
 21
219.226
  0
LINE
  8
0
 10
47.7482
 20
219.226
 11
47.7
 21
219.5
  0
LINE
  8
0
 10
47.7
 20
219.5
 11
47.7482
 21
219.774
  0
LINE
  8
0
 10
47.7482
 20
219.774
 11
47.8872
 21
220.014
  0
LINE
  8
0
 10
47.8872
 20
220.014
 11
48.1
 21
220.193
  0
LINE
  8
0
 10
48.1
 20
220.193
 11
48.3611
 21
220.288
  0
LINE
  8
0
 10
48.3611
 20
220.288
 11
48.6389
 21
220.288
  0
LINE
  8
0
 10
48.6389
 20
220.288
 11
48.9
 21
220.193
  0
LINE
  8
0
 10
48.9
 20
220.193
 11
49.1128
 21
220.014
  0
LINE
  8
0
 10
49.1128
 20
220.014
 11
49.2518
 21
219.774
  0
LINE
  8
0
 10
49.2518
 20
219.774
 11
49.3
 21
219.5
  0
LINE
  8
0
 10
49.3
 20
219.5
 11
49.2518
 21
219.226
  0
LINE
  8
0
 10
49.2518
 20
219.226
 11
49.1128
 21
218.986
  0
LINE
  8
0
 10
49.1128
 20
218.986
 11
48.9
 21
218.807
  0
LINE
  8
0
 10
48.9
 20
218.807
 11
48.6389
 21
218.712
  0
LINE
  8
0
 10
48.6389
 20
218.712
 11
48.3611
 21
218.712
  0
LINE
  8
0
 10
48.3611
 20
210.712
 11
48.1
 21
210.807
  0
LINE
  8
0
 10
48.1
 20
210.807
 11
47.8872
 21
210.986
  0
LINE
  8
0
 10
47.8872
 20
210.986
 11
47.7482
 21
211.226
  0
LINE
  8
0
 10
47.7482
 20
211.226
 11
47.7
 21
211.5
  0
LINE
  8
0
 10
47.7
 20
211.5
 11
47.7482
 21
211.774
  0
LINE
  8
0
 10
47.7482
 20
211.774
 11
47.8872
 21
212.014
  0
LINE
  8
0
 10
47.8872
 20
212.014
 11
48.1
 21
212.193
  0
LINE
  8
0
 10
48.1
 20
212.193
 11
48.3611
 21
212.288
  0
LINE
  8
0
 10
48.3611
 20
212.288
 11
48.6389
 21
212.288
  0
LINE
  8
0
 10
48.6389
 20
212.288
 11
48.9
 21
212.193
  0
LINE
  8
0
 10
48.9
 20
212.193
 11
49.1128
 21
212.014
  0
LINE
  8
0
 10
49.1128
 20
212.014
 11
49.2518
 21
211.774
  0
LINE
  8
0
 10
49.2518
 20
211.774
 11
49.3
 21
211.5
  0
LINE
  8
0
 10
49.3
 20
211.5
 11
49.2518
 21
211.226
  0
LINE
  8
0
 10
49.2518
 20
211.226
 11
49.1128
 21
210.986
  0
LINE
  8
0
 10
49.1128
 20
210.986
 11
48.9
 21
210.807
  0
LINE
  8
0
 10
48.9
 20
210.807
 11
48.6389
 21
210.712
  0
LINE
  8
0
 10
48.6389
 20
210.712
 11
48.3611
 21
210.712
  0
LINE
  8
0
 10
24.3611
 20
210.712
 11
24.1
 21
210.807
  0
LINE
  8
0
 10
24.1
 20
210.807
 11
23.8872
 21
210.986
  0
LINE
  8
0
 10
23.8872
 20
210.986
 11
23.7482
 21
211.226
  0
LINE
  8
0
 10
23.7482
 20
211.226
 11
23.7
 21
211.5
  0
LINE
  8
0
 10
23.7
 20
211.5
 11
23.7482
 21
211.774
  0
LINE
  8
0
 10
23.7482
 20
211.774
 11
23.8872
 21
212.014
  0
LINE
  8
0
 10
23.8872
 20
212.014
 11
24.1
 21
212.193
  0
LINE
  8
0
 10
24.1
 20
212.193
 11
24.3611
 21
212.288
  0
LINE
  8
0
 10
24.3611
 20
212.288
 11
24.6389
 21
212.288
  0
LINE
  8
0
 10
24.6389
 20
212.288
 11
24.9
 21
212.193
  0
LINE
  8
0
 10
24.9
 20
212.193
 11
25.1128
 21
212.014
  0
LINE
  8
0
 10
25.1128
 20
212.014
 11
25.2518
 21
211.774
  0
LINE
  8
0
 10
25.2518
 20
211.774
 11
25.3
 21
211.5
  0
LINE
  8
0
 10
25.3
 20
211.5
 11
25.2518
 21
211.226
  0
LINE
  8
0
 10
25.2518
 20
211.226
 11
25.1128
 21
210.986
  0
LINE
  8
0
 10
25.1128
 20
210.986
 11
24.9
 21
210.807
  0
LINE
  8
0
 10
24.9
 20
210.807
 11
24.6389
 21
210.712
  0
LINE
  8
0
 10
24.6389
 20
210.712
 11
24.3611
 21
210.712
  0
LINE
  8
0
 10
46.3611
 20
186.712
 11
46.1
 21
186.807
  0
LINE
  8
0
 10
46.1
 20
186.807
 11
45.8872
 21
186.986
  0
LINE
  8
0
 10
45.8872
 20
186.986
 11
45.7482
 21
187.226
  0
LINE
  8
0
 10
45.7482
 20
187.226
 11
45.7
 21
187.5
  0
LINE
  8
0
 10
45.7
 20
187.5
 11
45.7482
 21
187.774
  0
LINE
  8
0
 10
45.7482
 20
187.774
 11
45.8872
 21
188.014
  0
LINE
  8
0
 10
45.8872
 20
188.014
 11
46.1
 21
188.193
  0
LINE
  8
0
 10
46.1
 20
188.193
 11
46.3611
 21
188.288
  0
LINE
  8
0
 10
46.3611
 20
188.288
 11
46.6389
 21
188.288
  0
LINE
  8
0
 10
46.6389
 20
188.288
 11
46.9
 21
188.193
  0
LINE
  8
0
 10
46.9
 20
188.193
 11
47.1128
 21
188.014
  0
LINE
  8
0
 10
47.1128
 20
188.014
 11
47.2518
 21
187.774
  0
LINE
  8
0
 10
47.2518
 20
187.774
 11
47.3
 21
187.5
  0
LINE
  8
0
 10
47.3
 20
187.5
 11
47.2518
 21
187.226
  0
LINE
  8
0
 10
47.2518
 20
187.226
 11
47.1128
 21
186.986
  0
LINE
  8
0
 10
47.1128
 20
186.986
 11
46.9
 21
186.807
  0
LINE
  8
0
 10
46.9
 20
186.807
 11
46.6389
 21
186.712
  0
LINE
  8
0
 10
46.6389
 20
186.712
 11
46.3611
 21
186.712
  0
LINE
  8
0
 10
22.3611
 20
186.712
 11
22.1
 21
186.807
  0
LINE
  8
0
 10
22.1
 20
186.807
 11
21.8872
 21
186.986
  0
LINE
  8
0
 10
21.8872
 20
186.986
 11
21.7482
 21
187.226
  0
LINE
  8
0
 10
21.7482
 20
187.226
 11
21.7
 21
187.5
  0
LINE
  8
0
 10
21.7
 20
187.5
 11
21.7482
 21
187.774
  0
LINE
  8
0
 10
21.7482
 20
187.774
 11
21.8872
 21
188.014
  0
LINE
  8
0
 10
21.8872
 20
188.014
 11
22.1
 21
188.193
  0
LINE
  8
0
 10
22.1
 20
188.193
 11
22.3611
 21
188.288
  0
LINE
  8
0
 10
22.3611
 20
188.288
 11
22.6389
 21
188.288
  0
LINE
  8
0
 10
22.6389
 20
188.288
 11
22.9
 21
188.193
  0
LINE
  8
0
 10
22.9
 20
188.193
 11
23.1128
 21
188.014
  0
LINE
  8
0
 10
23.1128
 20
188.014
 11
23.2518
 21
187.774
  0
LINE
  8
0
 10
23.2518
 20
187.774
 11
23.3
 21
187.5
  0
LINE
  8
0
 10
23.3
 20
187.5
 11
23.2518
 21
187.226
  0
LINE
  8
0
 10
23.2518
 20
187.226
 11
23.1128
 21
186.986
  0
LINE
  8
0
 10
23.1128
 20
186.986
 11
22.9
 21
186.807
  0
LINE
  8
0
 10
22.9
 20
186.807
 11
22.6389
 21
186.712
  0
LINE
  8
0
 10
22.6389
 20
186.712
 11
22.3611
 21
186.712
  0
LINE
  8
0
 10
52.3611
 20
178.712
 11
52.1
 21
178.807
  0
LINE
  8
0
 10
52.1
 20
178.807
 11
51.8872
 21
178.986
  0
LINE
  8
0
 10
51.8872
 20
178.986
 11
51.7482
 21
179.226
  0
LINE
  8
0
 10
51.7482
 20
179.226
 11
51.7
 21
179.5
  0
LINE
  8
0
 10
51.7
 20
179.5
 11
51.7482
 21
179.774
  0
LINE
  8
0
 10
51.7482
 20
179.774
 11
51.8872
 21
180.014
  0
LINE
  8
0
 10
51.8872
 20
180.014
 11
52.1
 21
180.193
  0
LINE
  8
0
 10
52.1
 20
180.193
 11
52.3611
 21
180.288
  0
LINE
  8
0
 10
52.3611
 20
180.288
 11
52.6389
 21
180.288
  0
LINE
  8
0
 10
52.6389
 20
180.288
 11
52.9
 21
180.193
  0
LINE
  8
0
 10
52.9
 20
180.193
 11
53.1128
 21
180.014
  0
LINE
  8
0
 10
53.1128
 20
180.014
 11
53.2518
 21
179.774
  0
LINE
  8
0
 10
53.2518
 20
179.774
 11
53.3
 21
179.5
  0
LINE
  8
0
 10
53.3
 20
179.5
 11
53.2518
 21
179.226
  0
LINE
  8
0
 10
53.2518
 20
179.226
 11
53.1128
 21
178.986
  0
LINE
  8
0
 10
53.1128
 20
178.986
 11
52.9
 21
178.807
  0
LINE
  8
0
 10
52.9
 20
178.807
 11
52.6389
 21
178.712
  0
LINE
  8
0
 10
52.6389
 20
178.712
 11
52.3611
 21
178.712
  0
LINE
  8
0
 10
32.3611
 20
178.712
 11
32.1
 21
178.807
  0
LINE
  8
0
 10
32.1
 20
178.807
 11
31.8872
 21
178.986
  0
LINE
  8
0
 10
31.8872
 20
178.986
 11
31.7482
 21
179.226
  0
LINE
  8
0
 10
31.7482
 20
179.226
 11
31.7
 21
179.5
  0
LINE
  8
0
 10
31.7
 20
179.5
 11
31.7482
 21
179.774
  0
LINE
  8
0
 10
31.7482
 20
179.774
 11
31.8872
 21
180.014
  0
LINE
  8
0
 10
31.8872
 20
180.014
 11
32.1
 21
180.193
  0
LINE
  8
0
 10
32.1
 20
180.193
 11
32.3611
 21
180.288
  0
LINE
  8
0
 10
32.3611
 20
180.288
 11
32.6389
 21
180.288
  0
LINE
  8
0
 10
32.6389
 20
180.288
 11
32.9
 21
180.193
  0
LINE
  8
0
 10
32.9
 20
180.193
 11
33.1128
 21
180.014
  0
LINE
  8
0
 10
33.1128
 20
180.014
 11
33.2518
 21
179.774
  0
LINE
  8
0
 10
33.2518
 20
179.774
 11
33.3
 21
179.5
  0
LINE
  8
0
 10
33.3
 20
179.5
 11
33.2518
 21
179.226
  0
LINE
  8
0
 10
33.2518
 20
179.226
 11
33.1128
 21
178.986
  0
LINE
  8
0
 10
33.1128
 20
178.986
 11
32.9
 21
178.807
  0
LINE
  8
0
 10
32.9
 20
178.807
 11
32.6389
 21
178.712
  0
LINE
  8
0
 10
32.6389
 20
178.712
 11
32.3611
 21
178.712
  0
LINE
  8
0
 10
50.3611
 20
170.712
 11
50.1
 21
170.807
  0
LINE
  8
0
 10
50.1
 20
170.807
 11
49.8872
 21
170.986
  0
LINE
  8
0
 10
49.8872
 20
170.986
 11
49.7482
 21
171.226
  0
LINE
  8
0
 10
49.7482
 20
171.226
 11
49.7
 21
171.5
  0
LINE
  8
0
 10
49.7
 20
171.5
 11
49.7482
 21
171.774
  0
LINE
  8
0
 10
49.7482
 20
171.774
 11
49.8872
 21
172.014
  0
LINE
  8
0
 10
49.8872
 20
172.014
 11
50.1
 21
172.193
  0
LINE
  8
0
 10
50.1
 20
172.193
 11
50.3611
 21
172.288
  0
LINE
  8
0
 10
50.3611
 20
172.288
 11
50.6389
 21
172.288
  0
LINE
  8
0
 10
50.6389
 20
172.288
 11
50.9
 21
172.193
  0
LINE
  8
0
 10
50.9
 20
172.193
 11
51.1128
 21
172.014
  0
LINE
  8
0
 10
51.1128
 20
172.014
 11
51.2518
 21
171.774
  0
LINE
  8
0
 10
51.2518
 20
171.774
 11
51.3
 21
171.5
  0
LINE
  8
0
 10
51.3
 20
171.5
 11
51.2518
 21
171.226
  0
LINE
  8
0
 10
51.2518
 20
171.226
 11
51.1128
 21
170.986
  0
LINE
  8
0
 10
51.1128
 20
170.986
 11
50.9
 21
170.807
  0
LINE
  8
0
 10
50.9
 20
170.807
 11
50.6389
 21
170.712
  0
LINE
  8
0
 10
50.6389
 20
170.712
 11
50.3611
 21
170.712
  0
LINE
  8
0
 10
28.3611
 20
170.712
 11
28.1
 21
170.807
  0
LINE
  8
0
 10
28.1
 20
170.807
 11
27.8872
 21
170.986
  0
LINE
  8
0
 10
27.8872
 20
170.986
 11
27.7482
 21
171.226
  0
LINE
  8
0
 10
27.7482
 20
171.226
 11
27.7
 21
171.5
  0
LINE
  8
0
 10
27.7
 20
171.5
 11
27.7482
 21
171.774
  0
LINE
  8
0
 10
27.7482
 20
171.774
 11
27.8872
 21
172.014
  0
LINE
  8
0
 10
27.8872
 20
172.014
 11
28.1
 21
172.193
  0
LINE
  8
0
 10
28.1
 20
172.193
 11
28.3611
 21
172.288
  0
LINE
  8
0
 10
28.3611
 20
172.288
 11
28.6389
 21
172.288
  0
LINE
  8
0
 10
28.6389
 20
172.288
 11
28.9
 21
172.193
  0
LINE
  8
0
 10
28.9
 20
172.193
 11
29.1128
 21
172.014
  0
LINE
  8
0
 10
29.1128
 20
172.014
 11
29.2518
 21
171.774
  0
LINE
  8
0
 10
29.2518
 20
171.774
 11
29.3
 21
171.5
  0
LINE
  8
0
 10
29.3
 20
171.5
 11
29.2518
 21
171.226
  0
LINE
  8
0
 10
29.2518
 20
171.226
 11
29.1128
 21
170.986
  0
LINE
  8
0
 10
29.1128
 20
170.986
 11
28.9
 21
170.807
  0
LINE
  8
0
 10
28.9
 20
170.807
 11
28.6389
 21
170.712
  0
LINE
  8
0
 10
28.6389
 20
170.712
 11
28.3611
 21
170.712
  0
LINE
  8
0
 10
48.3611
 20
162.712
 11
48.1
 21
162.807
  0
LINE
  8
0
 10
48.1
 20
162.807
 11
47.8872
 21
162.986
  0
LINE
  8
0
 10
47.8872
 20
162.986
 11
47.7482
 21
163.226
  0
LINE
  8
0
 10
47.7482
 20
163.226
 11
47.7
 21
163.5
  0
LINE
  8
0
 10
47.7
 20
163.5
 11
47.7482
 21
163.774
  0
LINE
  8
0
 10
47.7482
 20
163.774
 11
47.8872
 21
164.014
  0
LINE
  8
0
 10
47.8872
 20
164.014
 11
48.1
 21
164.193
  0
LINE
  8
0
 10
48.1
 20
164.193
 11
48.3611
 21
164.288
  0
LINE
  8
0
 10
48.3611
 20
164.288
 11
48.6389
 21
164.288
  0
LINE
  8
0
 10
48.6389
 20
164.288
 11
48.9
 21
164.193
  0
LINE
  8
0
 10
48.9
 20
164.193
 11
49.1128
 21
164.014
  0
LINE
  8
0
 10
49.1128
 20
164.014
 11
49.2518
 21
163.774
  0
LINE
  8
0
 10
49.2518
 20
163.774
 11
49.3
 21
163.5
  0
LINE
  8
0
 10
49.3
 20
163.5
 11
49.2518
 21
163.226
  0
LINE
  8
0
 10
49.2518
 20
163.226
 11
49.1128
 21
162.986
  0
LINE
  8
0
 10
49.1128
 20
162.986
 11
48.9
 21
162.807
  0
LINE
  8
0
 10
48.9
 20
162.807
 11
48.6389
 21
162.712
  0
LINE
  8
0
 10
48.6389
 20
162.712
 11
48.3611
 21
162.712
  0
LINE
  8
0
 10
24.3611
 20
162.712
 11
24.1
 21
162.807
  0
LINE
  8
0
 10
24.1
 20
162.807
 11
23.8872
 21
162.986
  0
LINE
  8
0
 10
23.8872
 20
162.986
 11
23.7482
 21
163.226
  0
LINE
  8
0
 10
23.7482
 20
163.226
 11
23.7
 21
163.5
  0
LINE
  8
0
 10
23.7
 20
163.5
 11
23.7482
 21
163.774
  0
LINE
  8
0
 10
23.7482
 20
163.774
 11
23.8872
 21
164.014
  0
LINE
  8
0
 10
23.8872
 20
164.014
 11
24.1
 21
164.193
  0
LINE
  8
0
 10
24.1
 20
164.193
 11
24.3611
 21
164.288
  0
LINE
  8
0
 10
24.3611
 20
164.288
 11
24.6389
 21
164.288
  0
LINE
  8
0
 10
24.6389
 20
164.288
 11
24.9
 21
164.193
  0
LINE
  8
0
 10
24.9
 20
164.193
 11
25.1128
 21
164.014
  0
LINE
  8
0
 10
25.1128
 20
164.014
 11
25.2518
 21
163.774
  0
LINE
  8
0
 10
25.2518
 20
163.774
 11
25.3
 21
163.5
  0
LINE
  8
0
 10
25.3
 20
163.5
 11
25.2518
 21
163.226
  0
LINE
  8
0
 10
25.2518
 20
163.226
 11
25.1128
 21
162.986
  0
LINE
  8
0
 10
25.1128
 20
162.986
 11
24.9
 21
162.807
  0
LINE
  8
0
 10
24.9
 20
162.807
 11
24.6389
 21
162.712
  0
LINE
  8
0
 10
24.6389
 20
162.712
 11
24.3611
 21
162.712
  0
LINE
  8
0
 10
46.3611
 20
154.712
 11
46.1
 21
154.807
  0
LINE
  8
0
 10
46.1
 20
154.807
 11
45.8872
 21
154.986
  0
LINE
  8
0
 10
45.8872
 20
154.986
 11
45.7482
 21
155.226
  0
LINE
  8
0
 10
45.7482
 20
155.226
 11
45.7
 21
155.5
  0
LINE
  8
0
 10
45.7
 20
155.5
 11
45.7482
 21
155.774
  0
LINE
  8
0
 10
45.7482
 20
155.774
 11
45.8872
 21
156.014
  0
LINE
  8
0
 10
45.8872
 20
156.014
 11
46.1
 21
156.193
  0
LINE
  8
0
 10
46.1
 20
156.193
 11
46.3611
 21
156.288
  0
LINE
  8
0
 10
46.3611
 20
156.288
 11
46.6389
 21
156.288
  0
LINE
  8
0
 10
46.6389
 20
156.288
 11
46.9
 21
156.193
  0
LINE
  8
0
 10
46.9
 20
156.193
 11
47.1128
 21
156.014
  0
LINE
  8
0
 10
47.1128
 20
156.014
 11
47.2518
 21
155.774
  0
LINE
  8
0
 10
47.2518
 20
155.774
 11
47.3
 21
155.5
  0
LINE
  8
0
 10
47.3
 20
155.5
 11
47.2518
 21
155.226
  0
LINE
  8
0
 10
47.2518
 20
155.226
 11
47.1128
 21
154.986
  0
LINE
  8
0
 10
47.1128
 20
154.986
 11
46.9
 21
154.807
  0
LINE
  8
0
 10
46.9
 20
154.807
 11
46.6389
 21
154.712
  0
LINE
  8
0
 10
46.6389
 20
154.712
 11
46.3611
 21
154.712
  0
LINE
  8
0
 10
22.3611
 20
154.712
 11
22.1
 21
154.807
  0
LINE
  8
0
 10
22.1
 20
154.807
 11
21.8872
 21
154.986
  0
LINE
  8
0
 10
21.8872
 20
154.986
 11
21.7482
 21
155.226
  0
LINE
  8
0
 10
21.7482
 20
155.226
 11
21.7
 21
155.5
  0
LINE
  8
0
 10
21.7
 20
155.5
 11
21.7482
 21
155.774
  0
LINE
  8
0
 10
21.7482
 20
155.774
 11
21.8872
 21
156.014
  0
LINE
  8
0
 10
21.8872
 20
156.014
 11
22.1
 21
156.193
  0
LINE
  8
0
 10
22.1
 20
156.193
 11
22.3611
 21
156.288
  0
LINE
  8
0
 10
22.3611
 20
156.288
 11
22.6389
 21
156.288
  0
LINE
  8
0
 10
22.6389
 20
156.288
 11
22.9
 21
156.193
  0
LINE
  8
0
 10
22.9
 20
156.193
 11
23.1128
 21
156.014
  0
LINE
  8
0
 10
23.1128
 20
156.014
 11
23.2518
 21
155.774
  0
LINE
  8
0
 10
23.2518
 20
155.774
 11
23.3
 21
155.5
  0
LINE
  8
0
 10
23.3
 20
155.5
 11
23.2518
 21
155.226
  0
LINE
  8
0
 10
23.2518
 20
155.226
 11
23.1128
 21
154.986
  0
LINE
  8
0
 10
23.1128
 20
154.986
 11
22.9
 21
154.807
  0
LINE
  8
0
 10
22.9
 20
154.807
 11
22.6389
 21
154.712
  0
LINE
  8
0
 10
22.6389
 20
154.712
 11
22.3611
 21
154.712
  0
LINE
  8
0
 10
32.3611
 20
146.712
 11
32.1
 21
146.807
  0
LINE
  8
0
 10
32.1
 20
146.807
 11
31.8872
 21
146.986
  0
LINE
  8
0
 10
31.8872
 20
146.986
 11
31.7482
 21
147.226
  0
LINE
  8
0
 10
31.7482
 20
147.226
 11
31.7
 21
147.5
  0
LINE
  8
0
 10
31.7
 20
147.5
 11
31.7482
 21
147.774
  0
LINE
  8
0
 10
31.7482
 20
147.774
 11
31.8872
 21
148.014
  0
LINE
  8
0
 10
31.8872
 20
148.014
 11
32.1
 21
148.193
  0
LINE
  8
0
 10
32.1
 20
148.193
 11
32.3611
 21
148.288
  0
LINE
  8
0
 10
32.3611
 20
148.288
 11
32.6389
 21
148.288
  0
LINE
  8
0
 10
32.6389
 20
148.288
 11
32.9
 21
148.193
  0
LINE
  8
0
 10
32.9
 20
148.193
 11
33.1128
 21
148.014
  0
LINE
  8
0
 10
33.1128
 20
148.014
 11
33.2518
 21
147.774
  0
LINE
  8
0
 10
33.2518
 20
147.774
 11
33.3
 21
147.5
  0
LINE
  8
0
 10
33.3
 20
147.5
 11
33.2518
 21
147.226
  0
LINE
  8
0
 10
33.2518
 20
147.226
 11
33.1128
 21
146.986
  0
LINE
  8
0
 10
33.1128
 20
146.986
 11
32.9
 21
146.807
  0
LINE
  8
0
 10
32.9
 20
146.807
 11
32.6389
 21
146.712
  0
LINE
  8
0
 10
32.6389
 20
146.712
 11
32.3611
 21
146.712
  0
LINE
  8
0
 10
52.3611
 20
146.712
 11
52.1
 21
146.807
  0
LINE
  8
0
 10
52.1
 20
146.807
 11
51.8872
 21
146.986
  0
LINE
  8
0
 10
51.8872
 20
146.986
 11
51.7482
 21
147.226
  0
LINE
  8
0
 10
51.7482
 20
147.226
 11
51.7
 21
147.5
  0
LINE
  8
0
 10
51.7
 20
147.5
 11
51.7482
 21
147.774
  0
LINE
  8
0
 10
51.7482
 20
147.774
 11
51.8872
 21
148.014
  0
LINE
  8
0
 10
51.8872
 20
148.014
 11
52.1
 21
148.193
  0
LINE
  8
0
 10
52.1
 20
148.193
 11
52.3611
 21
148.288
  0
LINE
  8
0
 10
52.3611
 20
148.288
 11
52.6389
 21
148.288
  0
LINE
  8
0
 10
52.6389
 20
148.288
 11
52.9
 21
148.193
  0
LINE
  8
0
 10
52.9
 20
148.193
 11
53.1128
 21
148.014
  0
LINE
  8
0
 10
53.1128
 20
148.014
 11
53.2518
 21
147.774
  0
LINE
  8
0
 10
53.2518
 20
147.774
 11
53.3
 21
147.5
  0
LINE
  8
0
 10
53.3
 20
147.5
 11
53.2518
 21
147.226
  0
LINE
  8
0
 10
53.2518
 20
147.226
 11
53.1128
 21
146.986
  0
LINE
  8
0
 10
53.1128
 20
146.986
 11
52.9
 21
146.807
  0
LINE
  8
0
 10
52.9
 20
146.807
 11
52.6389
 21
146.712
  0
LINE
  8
0
 10
52.6389
 20
146.712
 11
52.3611
 21
146.712
  0
LINE
  8
0
 10
50.3611
 20
114.712
 11
50.1
 21
114.807
  0
LINE
  8
0
 10
50.1
 20
114.807
 11
49.8872
 21
114.986
  0
LINE
  8
0
 10
49.8872
 20
114.986
 11
49.7482
 21
115.226
  0
LINE
  8
0
 10
49.7482
 20
115.226
 11
49.7
 21
115.5
  0
LINE
  8
0
 10
49.7
 20
115.5
 11
49.7482
 21
115.774
  0
LINE
  8
0
 10
49.7482
 20
115.774
 11
49.8872
 21
116.014
  0
LINE
  8
0
 10
49.8872
 20
116.014
 11
50.1
 21
116.193
  0
LINE
  8
0
 10
50.1
 20
116.193
 11
50.3611
 21
116.288
  0
LINE
  8
0
 10
50.3611
 20
116.288
 11
50.6389
 21
116.288
  0
LINE
  8
0
 10
50.6389
 20
116.288
 11
50.9
 21
116.193
  0
LINE
  8
0
 10
50.9
 20
116.193
 11
51.1128
 21
116.014
  0
LINE
  8
0
 10
51.1128
 20
116.014
 11
51.2518
 21
115.774
  0
LINE
  8
0
 10
51.2518
 20
115.774
 11
51.3
 21
115.5
  0
LINE
  8
0
 10
51.3
 20
115.5
 11
51.2518
 21
115.226
  0
LINE
  8
0
 10
51.2518
 20
115.226
 11
51.1128
 21
114.986
  0
LINE
  8
0
 10
51.1128
 20
114.986
 11
50.9
 21
114.807
  0
LINE
  8
0
 10
50.9
 20
114.807
 11
50.6389
 21
114.712
  0
LINE
  8
0
 10
50.6389
 20
114.712
 11
50.3611
 21
114.712
  0
LINE
  8
0
 10
28.3611
 20
114.712
 11
28.1
 21
114.807
  0
LINE
  8
0
 10
28.1
 20
114.807
 11
27.8872
 21
114.986
  0
LINE
  8
0
 10
27.8872
 20
114.986
 11
27.7482
 21
115.226
  0
LINE
  8
0
 10
27.7482
 20
115.226
 11
27.7
 21
115.5
  0
LINE
  8
0
 10
27.7
 20
115.5
 11
27.7482
 21
115.774
  0
LINE
  8
0
 10
27.7482
 20
115.774
 11
27.8872
 21
116.014
  0
LINE
  8
0
 10
27.8872
 20
116.014
 11
28.1
 21
116.193
  0
LINE
  8
0
 10
28.1
 20
116.193
 11
28.3611
 21
116.288
  0
LINE
  8
0
 10
28.3611
 20
116.288
 11
28.6389
 21
116.288
  0
LINE
  8
0
 10
28.6389
 20
116.288
 11
28.9
 21
116.193
  0
LINE
  8
0
 10
28.9
 20
116.193
 11
29.1128
 21
116.014
  0
LINE
  8
0
 10
29.1128
 20
116.014
 11
29.2518
 21
115.774
  0
LINE
  8
0
 10
29.2518
 20
115.774
 11
29.3
 21
115.5
  0
LINE
  8
0
 10
29.3
 20
115.5
 11
29.2518
 21
115.226
  0
LINE
  8
0
 10
29.2518
 20
115.226
 11
29.1128
 21
114.986
  0
LINE
  8
0
 10
29.1128
 20
114.986
 11
28.9
 21
114.807
  0
LINE
  8
0
 10
28.9
 20
114.807
 11
28.6389
 21
114.712
  0
LINE
  8
0
 10
28.6389
 20
114.712
 11
28.3611
 21
114.712
  0
LINE
  8
0
 10
48.3611
 20
90.7121
 11
48.1
 21
90.8072
  0
LINE
  8
0
 10
48.1
 20
90.8072
 11
47.8872
 21
90.9858
  0
LINE
  8
0
 10
47.8872
 20
90.9858
 11
47.7482
 21
91.2264
  0
LINE
  8
0
 10
47.7482
 20
91.2264
 11
47.7
 21
91.5
  0
LINE
  8
0
 10
47.7
 20
91.5
 11
47.7482
 21
91.7736
  0
LINE
  8
0
 10
47.7482
 20
91.7736
 11
47.8872
 21
92.0142
  0
LINE
  8
0
 10
47.8872
 20
92.0142
 11
48.1
 21
92.1928
  0
LINE
  8
0
 10
48.1
 20
92.1928
 11
48.3611
 21
92.2878
  0
LINE
  8
0
 10
48.3611
 20
92.2878
 11
48.6389
 21
92.2878
  0
LINE
  8
0
 10
48.6389
 20
92.2878
 11
48.9
 21
92.1928
  0
LINE
  8
0
 10
48.9
 20
92.1928
 11
49.1128
 21
92.0142
  0
LINE
  8
0
 10
49.1128
 20
92.0142
 11
49.2518
 21
91.7736
  0
LINE
  8
0
 10
49.2518
 20
91.7736
 11
49.3
 21
91.5
  0
LINE
  8
0
 10
49.3
 20
91.5
 11
49.2518
 21
91.2264
  0
LINE
  8
0
 10
49.2518
 20
91.2264
 11
49.1128
 21
90.9858
  0
LINE
  8
0
 10
49.1128
 20
90.9858
 11
48.9
 21
90.8072
  0
LINE
  8
0
 10
48.9
 20
90.8072
 11
48.6389
 21
90.7121
  0
LINE
  8
0
 10
48.6389
 20
90.7121
 11
48.3611
 21
90.7121
  0
LINE
  8
0
 10
24.3611
 20
90.7121
 11
24.1
 21
90.8072
  0
LINE
  8
0
 10
24.1
 20
90.8072
 11
23.8872
 21
90.9858
  0
LINE
  8
0
 10
23.8872
 20
90.9858
 11
23.7482
 21
91.2264
  0
LINE
  8
0
 10
23.7482
 20
91.2264
 11
23.7
 21
91.5
  0
LINE
  8
0
 10
23.7
 20
91.5
 11
23.7482
 21
91.7736
  0
LINE
  8
0
 10
23.7482
 20
91.7736
 11
23.8872
 21
92.0142
  0
LINE
  8
0
 10
23.8872
 20
92.0142
 11
24.1
 21
92.1928
  0
LINE
  8
0
 10
24.1
 20
92.1928
 11
24.3611
 21
92.2878
  0
LINE
  8
0
 10
24.3611
 20
92.2878
 11
24.6389
 21
92.2878
  0
LINE
  8
0
 10
24.6389
 20
92.2878
 11
24.9
 21
92.1928
  0
LINE
  8
0
 10
24.9
 20
92.1928
 11
25.1128
 21
92.0142
  0
LINE
  8
0
 10
25.1128
 20
92.0142
 11
25.2518
 21
91.7736
  0
LINE
  8
0
 10
25.2518
 20
91.7736
 11
25.3
 21
91.5
  0
LINE
  8
0
 10
25.3
 20
91.5
 11
25.2518
 21
91.2264
  0
LINE
  8
0
 10
25.2518
 20
91.2264
 11
25.1128
 21
90.9858
  0
LINE
  8
0
 10
25.1128
 20
90.9858
 11
24.9
 21
90.8072
  0
LINE
  8
0
 10
24.9
 20
90.8072
 11
24.6389
 21
90.7121
  0
LINE
  8
0
 10
24.6389
 20
90.7121
 11
24.3611
 21
90.7121
  0
LINE
  8
0
 10
48.3611
 20
82.7121
 11
48.1
 21
82.8072
  0
LINE
  8
0
 10
48.1
 20
82.8072
 11
47.8872
 21
82.9858
  0
LINE
  8
0
 10
47.8872
 20
82.9858
 11
47.7482
 21
83.2264
  0
LINE
  8
0
 10
47.7482
 20
83.2264
 11
47.7
 21
83.5
  0
LINE
  8
0
 10
47.7
 20
83.5
 11
47.7482
 21
83.7736
  0
LINE
  8
0
 10
47.7482
 20
83.7736
 11
47.8872
 21
84.0142
  0
LINE
  8
0
 10
47.8872
 20
84.0142
 11
48.1
 21
84.1928
  0
LINE
  8
0
 10
48.1
 20
84.1928
 11
48.3611
 21
84.2878
  0
LINE
  8
0
 10
48.3611
 20
84.2878
 11
48.6389
 21
84.2878
  0
LINE
  8
0
 10
48.6389
 20
84.2878
 11
48.9
 21
84.1928
  0
LINE
  8
0
 10
48.9
 20
84.1928
 11
49.1128
 21
84.0142
  0
LINE
  8
0
 10
49.1128
 20
84.0142
 11
49.2518
 21
83.7736
  0
LINE
  8
0
 10
49.2518
 20
83.7736
 11
49.3
 21
83.5
  0
LINE
  8
0
 10
49.3
 20
83.5
 11
49.2518
 21
83.2264
  0
LINE
  8
0
 10
49.2518
 20
83.2264
 11
49.1128
 21
82.9858
  0
LINE
  8
0
 10
49.1128
 20
82.9858
 11
48.9
 21
82.8072
  0
LINE
  8
0
 10
48.9
 20
82.8072
 11
48.6389
 21
82.7121
  0
LINE
  8
0
 10
48.6389
 20
82.7121
 11
48.3611
 21
82.7121
  0
LINE
  8
0
 10
24.3611
 20
82.7121
 11
24.1
 21
82.8072
  0
LINE
  8
0
 10
24.1
 20
82.8072
 11
23.8872
 21
82.9858
  0
LINE
  8
0
 10
23.8872
 20
82.9858
 11
23.7482
 21
83.2264
  0
LINE
  8
0
 10
23.7482
 20
83.2264
 11
23.7
 21
83.5
  0
LINE
  8
0
 10
23.7
 20
83.5
 11
23.7482
 21
83.7736
  0
LINE
  8
0
 10
23.7482
 20
83.7736
 11
23.8872
 21
84.0142
  0
LINE
  8
0
 10
23.8872
 20
84.0142
 11
24.1
 21
84.1928
  0
LINE
  8
0
 10
24.1
 20
84.1928
 11
24.3611
 21
84.2878
  0
LINE
  8
0
 10
24.3611
 20
84.2878
 11
24.6389
 21
84.2878
  0
LINE
  8
0
 10
24.6389
 20
84.2878
 11
24.9
 21
84.1928
  0
LINE
  8
0
 10
24.9
 20
84.1928
 11
25.1128
 21
84.0142
  0
LINE
  8
0
 10
25.1128
 20
84.0142
 11
25.2518
 21
83.7736
  0
LINE
  8
0
 10
25.2518
 20
83.7736
 11
25.3
 21
83.5
  0
LINE
  8
0
 10
25.3
 20
83.5
 11
25.2518
 21
83.2264
  0
LINE
  8
0
 10
25.2518
 20
83.2264
 11
25.1128
 21
82.9858
  0
LINE
  8
0
 10
25.1128
 20
82.9858
 11
24.9
 21
82.8072
  0
LINE
  8
0
 10
24.9
 20
82.8072
 11
24.6389
 21
82.7121
  0
LINE
  8
0
 10
24.6389
 20
82.7121
 11
24.3611
 21
82.7121
  0
LINE
  8
0
 10
45.7482
 20
59.7736
 11
45.8872
 21
60.0142
  0
LINE
  8
0
 10
45.8872
 20
60.0142
 11
46.1
 21
60.1928
  0
LINE
  8
0
 10
46.1
 20
60.1928
 11
46.3611
 21
60.2878
  0
LINE
  8
0
 10
46.3611
 20
60.2878
 11
46.6389
 21
60.2878
  0
LINE
  8
0
 10
46.6389
 20
60.2878
 11
46.9
 21
60.1928
  0
LINE
  8
0
 10
46.9
 20
60.1928
 11
47.1128
 21
60.0142
  0
LINE
  8
0
 10
47.1128
 20
60.0142
 11
47.2518
 21
59.7736
  0
LINE
  8
0
 10
47.2518
 20
59.7736
 11
47.3
 21
59.5
  0
LINE
  8
0
 10
47.3
 20
59.5
 11
47.2518
 21
59.2264
  0
LINE
  8
0
 10
47.2518
 20
59.2264
 11
47.1128
 21
58.9858
  0
LINE
  8
0
 10
47.1128
 20
58.9858
 11
46.9
 21
58.8072
  0
LINE
  8
0
 10
46.9
 20
58.8072
 11
46.6389
 21
58.7121
  0
LINE
  8
0
 10
46.6389
 20
58.7121
 11
46.3611
 21
58.7121
  0
LINE
  8
0
 10
46.3611
 20
58.7121
 11
46.1
 21
58.8072
  0
LINE
  8
0
 10
46.1
 20
58.8072
 11
45.8872
 21
58.9858
  0
LINE
  8
0
 10
45.8872
 20
58.9858
 11
45.7482
 21
59.2264
  0
LINE
  8
0
 10
45.7482
 20
59.2264
 11
45.7
 21
59.5
  0
LINE
  8
0
 10
45.7
 20
59.5
 11
45.7482
 21
59.7736
  0
LINE
  8
0
 10
22.3611
 20
50.7121
 11
22.1
 21
50.8072
  0
LINE
  8
0
 10
22.1
 20
50.8072
 11
21.8872
 21
50.9858
  0
LINE
  8
0
 10
21.8872
 20
50.9858
 11
21.7482
 21
51.2264
  0
LINE
  8
0
 10
21.7482
 20
51.2264
 11
21.7
 21
51.5
  0
LINE
  8
0
 10
21.7
 20
51.5
 11
21.7482
 21
51.7736
  0
LINE
  8
0
 10
21.7482
 20
51.7736
 11
21.8872
 21
52.0142
  0
LINE
  8
0
 10
21.8872
 20
52.0142
 11
22.1
 21
52.1928
  0
LINE
  8
0
 10
22.1
 20
52.1928
 11
22.3611
 21
52.2878
  0
LINE
  8
0
 10
22.3611
 20
52.2878
 11
22.6389
 21
52.2878
  0
LINE
  8
0
 10
22.6389
 20
52.2878
 11
22.9
 21
52.1928
  0
LINE
  8
0
 10
22.9
 20
52.1928
 11
23.1128
 21
52.0142
  0
LINE
  8
0
 10
23.1128
 20
52.0142
 11
23.2518
 21
51.7736
  0
LINE
  8
0
 10
23.2518
 20
51.7736
 11
23.3
 21
51.5
  0
LINE
  8
0
 10
23.3
 20
51.5
 11
23.2518
 21
51.2264
  0
LINE
  8
0
 10
23.2518
 20
51.2264
 11
23.1128
 21
50.9858
  0
LINE
  8
0
 10
23.1128
 20
50.9858
 11
22.9
 21
50.8072
  0
LINE
  8
0
 10
22.9
 20
50.8072
 11
22.6389
 21
50.7121
  0
LINE
  8
0
 10
22.6389
 20
50.7121
 11
22.3611
 21
50.7121
  0
LINE
  8
0
 10
46.3611
 20
50.7121
 11
46.1
 21
50.8072
  0
LINE
  8
0
 10
46.1
 20
50.8072
 11
45.8872
 21
50.9858
  0
LINE
  8
0
 10
45.8872
 20
50.9858
 11
45.7482
 21
51.2264
  0
LINE
  8
0
 10
45.7482
 20
51.2264
 11
45.7
 21
51.5
  0
LINE
  8
0
 10
45.7
 20
51.5
 11
45.7482
 21
51.7736
  0
LINE
  8
0
 10
45.7482
 20
51.7736
 11
45.8872
 21
52.0142
  0
LINE
  8
0
 10
45.8872
 20
52.0142
 11
46.1
 21
52.1928
  0
LINE
  8
0
 10
46.1
 20
52.1928
 11
46.3611
 21
52.2878
  0
LINE
  8
0
 10
46.3611
 20
52.2878
 11
46.6389
 21
52.2878
  0
LINE
  8
0
 10
46.6389
 20
52.2878
 11
46.9
 21
52.1928
  0
LINE
  8
0
 10
46.9
 20
52.1928
 11
47.1128
 21
52.0142
  0
LINE
  8
0
 10
47.1128
 20
52.0142
 11
47.2518
 21
51.7736
  0
LINE
  8
0
 10
47.2518
 20
51.7736
 11
47.3
 21
51.5
  0
LINE
  8
0
 10
47.3
 20
51.5
 11
47.2518
 21
51.2264
  0
LINE
  8
0
 10
47.2518
 20
51.2264
 11
47.1128
 21
50.9858
  0
LINE
  8
0
 10
47.1128
 20
50.9858
 11
46.9
 21
50.8072
  0
LINE
  8
0
 10
46.9
 20
50.8072
 11
46.6389
 21
50.7121
  0
LINE
  8
0
 10
46.6389
 20
50.7121
 11
46.3611
 21
50.7121
  0
LINE
  8
0
 10
46.3611
 20
42.7121
 11
46.1
 21
42.8072
  0
LINE
  8
0
 10
46.1
 20
42.8072
 11
45.8872
 21
42.9858
  0
LINE
  8
0
 10
45.8872
 20
42.9858
 11
45.7482
 21
43.2264
  0
LINE
  8
0
 10
45.7482
 20
43.2264
 11
45.7
 21
43.5
  0
LINE
  8
0
 10
45.7
 20
43.5
 11
45.7482
 21
43.7736
  0
LINE
  8
0
 10
45.7482
 20
43.7736
 11
45.8872
 21
44.0142
  0
LINE
  8
0
 10
45.8872
 20
44.0142
 11
46.1
 21
44.1928
  0
LINE
  8
0
 10
46.1
 20
44.1928
 11
46.3611
 21
44.2878
  0
LINE
  8
0
 10
46.3611
 20
44.2878
 11
46.6389
 21
44.2878
  0
LINE
  8
0
 10
46.6389
 20
44.2878
 11
46.9
 21
44.1928
  0
LINE
  8
0
 10
46.9
 20
44.1928
 11
47.1128
 21
44.0142
  0
LINE
  8
0
 10
47.1128
 20
44.0142
 11
47.2518
 21
43.7736
  0
LINE
  8
0
 10
47.2518
 20
43.7736
 11
47.3
 21
43.5
  0
LINE
  8
0
 10
47.3
 20
43.5
 11
47.2518
 21
43.2264
  0
LINE
  8
0
 10
47.2518
 20
43.2264
 11
47.1128
 21
42.9858
  0
LINE
  8
0
 10
47.1128
 20
42.9858
 11
46.9
 21
42.8072
  0
LINE
  8
0
 10
46.9
 20
42.8072
 11
46.6389
 21
42.7121
  0
LINE
  8
0
 10
46.6389
 20
42.7121
 11
46.3611
 21
42.7121
  0
LINE
  8
0
 10
22.3611
 20
42.7121
 11
22.1
 21
42.8072
  0
LINE
  8
0
 10
22.1
 20
42.8072
 11
21.8872
 21
42.9858
  0
LINE
  8
0
 10
21.8872
 20
42.9858
 11
21.7482
 21
43.2264
  0
LINE
  8
0
 10
21.7482
 20
43.2264
 11
21.7
 21
43.5
  0
LINE
  8
0
 10
21.7
 20
43.5
 11
21.7482
 21
43.7736
  0
LINE
  8
0
 10
21.7482
 20
43.7736
 11
21.8872
 21
44.0142
  0
LINE
  8
0
 10
21.8872
 20
44.0142
 11
22.1
 21
44.1928
  0
LINE
  8
0
 10
22.1
 20
44.1928
 11
22.3611
 21
44.2878
  0
LINE
  8
0
 10
22.3611
 20
44.2878
 11
22.6389
 21
44.2878
  0
LINE
  8
0
 10
22.6389
 20
44.2878
 11
22.9
 21
44.1928
  0
LINE
  8
0
 10
22.9
 20
44.1928
 11
23.1128
 21
44.0142
  0
LINE
  8
0
 10
23.1128
 20
44.0142
 11
23.2518
 21
43.7736
  0
LINE
  8
0
 10
23.2518
 20
43.7736
 11
23.3
 21
43.5
  0
LINE
  8
0
 10
23.3
 20
43.5
 11
23.2518
 21
43.2264
  0
LINE
  8
0
 10
23.2518
 20
43.2264
 11
23.1128
 21
42.9858
  0
LINE
  8
0
 10
23.1128
 20
42.9858
 11
22.9
 21
42.8072
  0
LINE
  8
0
 10
22.9
 20
42.8072
 11
22.6389
 21
42.7121
  0
LINE
  8
0
 10
22.6389
 20
42.7121
 11
22.3611
 21
42.7121
  0
LINE
  8
0
 10
22.3611
 20
34.7121
 11
22.1
 21
34.8072
  0
LINE
  8
0
 10
22.1
 20
34.8072
 11
21.8872
 21
34.9858
  0
LINE
  8
0
 10
21.8872
 20
34.9858
 11
21.7482
 21
35.2264
  0
LINE
  8
0
 10
21.7482
 20
35.2264
 11
21.7
 21
35.5
  0
LINE
  8
0
 10
21.7
 20
35.5
 11
21.7482
 21
35.7736
  0
LINE
  8
0
 10
21.7482
 20
35.7736
 11
21.8872
 21
36.0142
  0
LINE
  8
0
 10
21.8872
 20
36.0142
 11
22.1
 21
36.1928
  0
LINE
  8
0
 10
22.1
 20
36.1928
 11
22.3611
 21
36.2878
  0
LINE
  8
0
 10
22.3611
 20
36.2878
 11
22.6389
 21
36.2878
  0
LINE
  8
0
 10
22.6389
 20
36.2878
 11
22.9
 21
36.1928
  0
LINE
  8
0
 10
22.9
 20
36.1928
 11
23.1128
 21
36.0142
  0
LINE
  8
0
 10
23.1128
 20
36.0142
 11
23.2518
 21
35.7736
  0
LINE
  8
0
 10
23.2518
 20
35.7736
 11
23.3
 21
35.5
  0
LINE
  8
0
 10
23.3
 20
35.5
 11
23.2518
 21
35.2264
  0
LINE
  8
0
 10
23.2518
 20
35.2264
 11
23.1128
 21
34.9858
  0
LINE
  8
0
 10
23.1128
 20
34.9858
 11
22.9
 21
34.8072
  0
LINE
  8
0
 10
22.9
 20
34.8072
 11
22.6389
 21
34.7121
  0
LINE
  8
0
 10
22.6389
 20
34.7121
 11
22.3611
 21
34.7121
  0
LINE
  8
0
 10
46.3611
 20
34.7121
 11
46.1
 21
34.8072
  0
LINE
  8
0
 10
46.1
 20
34.8072
 11
45.8872
 21
34.9858
  0
LINE
  8
0
 10
45.8872
 20
34.9858
 11
45.7482
 21
35.2264
  0
LINE
  8
0
 10
45.7482
 20
35.2264
 11
45.7
 21
35.5
  0
LINE
  8
0
 10
45.7
 20
35.5
 11
45.7482
 21
35.7736
  0
LINE
  8
0
 10
45.7482
 20
35.7736
 11
45.8872
 21
36.0142
  0
LINE
  8
0
 10
45.8872
 20
36.0142
 11
46.1
 21
36.1928
  0
LINE
  8
0
 10
46.1
 20
36.1928
 11
46.3611
 21
36.2878
  0
LINE
  8
0
 10
46.3611
 20
36.2878
 11
46.6389
 21
36.2878
  0
LINE
  8
0
 10
46.6389
 20
36.2878
 11
46.9
 21
36.1928
  0
LINE
  8
0
 10
46.9
 20
36.1928
 11
47.1128
 21
36.0142
  0
LINE
  8
0
 10
47.1128
 20
36.0142
 11
47.2518
 21
35.7736
  0
LINE
  8
0
 10
47.2518
 20
35.7736
 11
47.3
 21
35.5
  0
LINE
  8
0
 10
47.3
 20
35.5
 11
47.2518
 21
35.2264
  0
LINE
  8
0
 10
47.2518
 20
35.2264
 11
47.1128
 21
34.9858
  0
LINE
  8
0
 10
47.1128
 20
34.9858
 11
46.9
 21
34.8072
  0
LINE
  8
0
 10
46.9
 20
34.8072
 11
46.6389
 21
34.7121
  0
LINE
  8
0
 10
46.6389
 20
34.7121
 11
46.3611
 21
34.7121
  0
LINE
  8
0
 10
22.3611
 20
26.7121
 11
22.1
 21
26.8072
  0
LINE
  8
0
 10
22.1
 20
26.8072
 11
21.8872
 21
26.9858
  0
LINE
  8
0
 10
21.8872
 20
26.9858
 11
21.7482
 21
27.2264
  0
LINE
  8
0
 10
21.7482
 20
27.2264
 11
21.7
 21
27.5
  0
LINE
  8
0
 10
21.7
 20
27.5
 11
21.7482
 21
27.7736
  0
LINE
  8
0
 10
21.7482
 20
27.7736
 11
21.8872
 21
28.0142
  0
LINE
  8
0
 10
21.8872
 20
28.0142
 11
22.1
 21
28.1928
  0
LINE
  8
0
 10
22.1
 20
28.1928
 11
22.3611
 21
28.2878
  0
LINE
  8
0
 10
22.3611
 20
28.2878
 11
22.6389
 21
28.2878
  0
LINE
  8
0
 10
22.6389
 20
28.2878
 11
22.9
 21
28.1928
  0
LINE
  8
0
 10
22.9
 20
28.1928
 11
23.1128
 21
28.0142
  0
LINE
  8
0
 10
23.1128
 20
28.0142
 11
23.2518
 21
27.7736
  0
LINE
  8
0
 10
23.2518
 20
27.7736
 11
23.3
 21
27.5
  0
LINE
  8
0
 10
23.3
 20
27.5
 11
23.2518
 21
27.2264
  0
LINE
  8
0
 10
23.2518
 20
27.2264
 11
23.1128
 21
26.9858
  0
LINE
  8
0
 10
23.1128
 20
26.9858
 11
22.9
 21
26.8072
  0
LINE
  8
0
 10
22.9
 20
26.8072
 11
22.6389
 21
26.7121
  0
LINE
  8
0
 10
22.6389
 20
26.7121
 11
22.3611
 21
26.7121
  0
LINE
  8
0
 10
46.3611
 20
26.7121
 11
46.1
 21
26.8072
  0
LINE
  8
0
 10
46.1
 20
26.8072
 11
45.8872
 21
26.9858
  0
LINE
  8
0
 10
45.8872
 20
26.9858
 11
45.7482
 21
27.2264
  0
LINE
  8
0
 10
45.7482
 20
27.2264
 11
45.7
 21
27.5
  0
LINE
  8
0
 10
45.7
 20
27.5
 11
45.7482
 21
27.7736
  0
LINE
  8
0
 10
45.7482
 20
27.7736
 11
45.8872
 21
28.0142
  0
LINE
  8
0
 10
45.8872
 20
28.0142
 11
46.1
 21
28.1928
  0
LINE
  8
0
 10
46.1
 20
28.1928
 11
46.3611
 21
28.2878
  0
LINE
  8
0
 10
46.3611
 20
28.2878
 11
46.6389
 21
28.2878
  0
LINE
  8
0
 10
46.6389
 20
28.2878
 11
46.9
 21
28.1928
  0
LINE
  8
0
 10
46.9
 20
28.1928
 11
47.1128
 21
28.0142
  0
LINE
  8
0
 10
47.1128
 20
28.0142
 11
47.2518
 21
27.7736
  0
LINE
  8
0
 10
47.2518
 20
27.7736
 11
47.3
 21
27.5
  0
LINE
  8
0
 10
47.3
 20
27.5
 11
47.2518
 21
27.2264
  0
LINE
  8
0
 10
47.2518
 20
27.2264
 11
47.1128
 21
26.9858
  0
LINE
  8
0
 10
47.1128
 20
26.9858
 11
46.9
 21
26.8072
  0
LINE
  8
0
 10
46.9
 20
26.8072
 11
46.6389
 21
26.7121
  0
LINE
  8
0
 10
46.6389
 20
26.7121
 11
46.3611
 21
26.7121
  0
LINE
  8
0
 10
46.3611
 20
18.7121
 11
46.1
 21
18.8072
  0
LINE
  8
0
 10
46.1
 20
18.8072
 11
45.8872
 21
18.9858
  0
LINE
  8
0
 10
45.8872
 20
18.9858
 11
45.7482
 21
19.2264
  0
LINE
  8
0
 10
45.7482
 20
19.2264
 11
45.7
 21
19.5
  0
LINE
  8
0
 10
45.7
 20
19.5
 11
45.7482
 21
19.7736
  0
LINE
  8
0
 10
45.7482
 20
19.7736
 11
45.8872
 21
20.0142
  0
LINE
  8
0
 10
45.8872
 20
20.0142
 11
46.1
 21
20.1928
  0
LINE
  8
0
 10
46.1
 20
20.1928
 11
46.3611
 21
20.2878
  0
LINE
  8
0
 10
46.3611
 20
20.2878
 11
46.6389
 21
20.2878
  0
LINE
  8
0
 10
46.6389
 20
20.2878
 11
46.9
 21
20.1928
  0
LINE
  8
0
 10
46.9
 20
20.1928
 11
47.1128
 21
20.0142
  0
LINE
  8
0
 10
47.1128
 20
20.0142
 11
47.2518
 21
19.7736
  0
LINE
  8
0
 10
47.2518
 20
19.7736
 11
47.3
 21
19.5
  0
LINE
  8
0
 10
47.3
 20
19.5
 11
47.2518
 21
19.2264
  0
LINE
  8
0
 10
47.2518
 20
19.2264
 11
47.1128
 21
18.9858
  0
LINE
  8
0
 10
47.1128
 20
18.9858
 11
46.9
 21
18.8072
  0
LINE
  8
0
 10
46.9
 20
18.8072
 11
46.6389
 21
18.7121
  0
LINE
  8
0
 10
46.6389
 20
18.7121
 11
46.3611
 21
18.7121
  0
LINE
  8
0
 10
22.3611
 20
18.7121
 11
22.1
 21
18.8072
  0
LINE
  8
0
 10
22.1
 20
18.8072
 11
21.8872
 21
18.9858
  0
LINE
  8
0
 10
21.8872
 20
18.9858
 11
21.7482
 21
19.2264
  0
LINE
  8
0
 10
21.7482
 20
19.2264
 11
21.7
 21
19.5
  0
LINE
  8
0
 10
21.7
 20
19.5
 11
21.7482
 21
19.7736
  0
LINE
  8
0
 10
21.7482
 20
19.7736
 11
21.8872
 21
20.0142
  0
LINE
  8
0
 10
21.8872
 20
20.0142
 11
22.1
 21
20.1928
  0
LINE
  8
0
 10
22.1
 20
20.1928
 11
22.3611
 21
20.2878
  0
LINE
  8
0
 10
22.3611
 20
20.2878
 11
22.6389
 21
20.2878
  0
LINE
  8
0
 10
22.6389
 20
20.2878
 11
22.9
 21
20.1928
  0
LINE
  8
0
 10
22.9
 20
20.1928
 11
23.1128
 21
20.0142
  0
LINE
  8
0
 10
23.1128
 20
20.0142
 11
23.2518
 21
19.7736
  0
LINE
  8
0
 10
23.2518
 20
19.7736
 11
23.3
 21
19.5
  0
LINE
  8
0
 10
23.3
 20
19.5
 11
23.2518
 21
19.2264
  0
LINE
  8
0
 10
23.2518
 20
19.2264
 11
23.1128
 21
18.9858
  0
LINE
  8
0
 10
23.1128
 20
18.9858
 11
22.9
 21
18.8072
  0
LINE
  8
0
 10
22.9
 20
18.8072
 11
22.6389
 21
18.7121
  0
LINE
  8
0
 10
22.6389
 20
18.7121
 11
22.3611
 21
18.7121
  0
LINE
  8
0
 10
22.9
 20
58.8072
 11
22.6389
 21
58.7121
  0
LINE
  8
0
 10
22.6389
 20
58.7121
 11
22.3611
 21
58.7121
  0
LINE
  8
0
 10
22.3611
 20
58.7121
 11
22.1
 21
58.8072
  0
LINE
  8
0
 10
22.1
 20
58.8072
 11
21.8872
 21
58.9858
  0
LINE
  8
0
 10
21.8872
 20
58.9858
 11
21.7482
 21
59.2264
  0
LINE
  8
0
 10
21.7482
 20
59.2264
 11
21.7
 21
59.5
  0
LINE
  8
0
 10
21.7
 20
59.5
 11
21.7482
 21
59.7736
  0
LINE
  8
0
 10
21.7482
 20
59.7736
 11
21.8872
 21
60.0142
  0
LINE
  8
0
 10
21.8872
 20
60.0142
 11
22.1
 21
60.1928
  0
LINE
  8
0
 10
22.1
 20
60.1928
 11
22.3611
 21
60.2878
  0
LINE
  8
0
 10
22.3611
 20
60.2878
 11
22.6389
 21
60.2878
  0
LINE
  8
0
 10
22.6389
 20
60.2878
 11
22.9
 21
60.1928
  0
LINE
  8
0
 10
22.9
 20
60.1928
 11
23.1128
 21
60.0142
  0
LINE
  8
0
 10
23.1128
 20
60.0142
 11
23.2518
 21
59.7736
  0
LINE
  8
0
 10
23.2518
 20
59.7736
 11
23.3
 21
59.5
  0
LINE
  8
0
 10
23.3
 20
59.5
 11
23.2518
 21
59.2264
  0
LINE
  8
0
 10
23.2518
 20
59.2264
 11
23.1128
 21
58.9858
  0
LINE
  8
0
 10
23.1128
 20
58.9858
 11
22.9
 21
58.8072
  0
ENDSEC
  0
SECTION
  2
OBJECTS
  0
DICTIONARY
  0
ENDSEC
  0
EOF
