  0
SECTION
  2
BLOCKS
  0
ENDSEC
  0
SECTION
  2
ENTITIES
  0
LINE
  8
0
 10
69
 20
700
 11
0
 21
700
  0
LINE
  8
0
 10
0
 20
700
 11
0
 21
0
  0
LINE
  8
0
 10
0
 20
0
 11
69
 21
0
  0
LINE
  8
0
 10
69
 20
0
 11
69
 21
700
  0
LINE
  8
0
 10
22.3611
 20
634.712
 11
22.1
 21
634.807
  0
LINE
  8
0
 10
22.1
 20
634.807
 11
21.8872
 21
634.986
  0
LINE
  8
0
 10
21.8872
 20
634.986
 11
21.7482
 21
635.226
  0
LINE
  8
0
 10
21.7482
 20
635.226
 11
21.7
 21
635.5
  0
LINE
  8
0
 10
21.7
 20
635.5
 11
21.7482
 21
635.774
  0
LINE
  8
0
 10
21.7482
 20
635.774
 11
21.8872
 21
636.014
  0
LINE
  8
0
 10
21.8872
 20
636.014
 11
22.1
 21
636.193
  0
LINE
  8
0
 10
22.1
 20
636.193
 11
22.3611
 21
636.288
  0
LINE
  8
0
 10
22.3611
 20
636.288
 11
22.6389
 21
636.288
  0
LINE
  8
0
 10
22.6389
 20
636.288
 11
22.9
 21
636.193
  0
LINE
  8
0
 10
22.9
 20
636.193
 11
23.1128
 21
636.014
  0
LINE
  8
0
 10
23.1128
 20
636.014
 11
23.2518
 21
635.774
  0
LINE
  8
0
 10
23.2518
 20
635.774
 11
23.3
 21
635.5
  0
LINE
  8
0
 10
23.3
 20
635.5
 11
23.2518
 21
635.226
  0
LINE
  8
0
 10
23.2518
 20
635.226
 11
23.1128
 21
634.986
  0
LINE
  8
0
 10
23.1128
 20
634.986
 11
22.9
 21
634.807
  0
LINE
  8
0
 10
22.9
 20
634.807
 11
22.6389
 21
634.712
  0
LINE
  8
0
 10
22.6389
 20
634.712
 11
22.3611
 21
634.712
  0
LINE
  8
0
 10
28.3611
 20
624.045
 11
28.1
 21
624.14
  0
LINE
  8
0
 10
28.1
 20
624.14
 11
27.8872
 21
624.319
  0
LINE
  8
0
 10
27.8872
 20
624.319
 11
27.7482
 21
624.56
  0
LINE
  8
0
 10
27.7482
 20
624.56
 11
27.7
 21
624.833
  0
LINE
  8
0
 10
27.7
 20
624.833
 11
27.7482
 21
625.107
  0
LINE
  8
0
 10
27.7482
 20
625.107
 11
27.8872
 21
625.348
  0
LINE
  8
0
 10
27.8872
 20
625.348
 11
28.1
 21
625.526
  0
LINE
  8
0
 10
28.1
 20
625.526
 11
28.3611
 21
625.621
  0
LINE
  8
0
 10
28.3611
 20
625.621
 11
28.6389
 21
625.621
  0
LINE
  8
0
 10
28.6389
 20
625.621
 11
28.9
 21
625.526
  0
LINE
  8
0
 10
28.9
 20
625.526
 11
29.1128
 21
625.348
  0
LINE
  8
0
 10
29.1128
 20
625.348
 11
29.2518
 21
625.107
  0
LINE
  8
0
 10
29.2518
 20
625.107
 11
29.3
 21
624.833
  0
LINE
  8
0
 10
29.3
 20
624.833
 11
29.2518
 21
624.56
  0
LINE
  8
0
 10
29.2518
 20
624.56
 11
29.1128
 21
624.319
  0
LINE
  8
0
 10
29.1128
 20
624.319
 11
28.9
 21
624.14
  0
LINE
  8
0
 10
28.9
 20
624.14
 11
28.6389
 21
624.045
  0
LINE
  8
0
 10
28.6389
 20
624.045
 11
28.3611
 21
624.045
  0
LINE
  8
0
 10
24.3611
 20
613.379
 11
24.1
 21
613.474
  0
LINE
  8
0
 10
24.1
 20
613.474
 11
23.8872
 21
613.652
  0
LINE
  8
0
 10
23.8872
 20
613.652
 11
23.7482
 21
613.893
  0
LINE
  8
0
 10
23.7482
 20
613.893
 11
23.7
 21
614.167
  0
LINE
  8
0
 10
23.7
 20
614.167
 11
23.7482
 21
614.44
  0
LINE
  8
0
 10
23.7482
 20
614.44
 11
23.8872
 21
614.681
  0
LINE
  8
0
 10
23.8872
 20
614.681
 11
24.1
 21
614.859
  0
LINE
  8
0
 10
24.1
 20
614.859
 11
24.3611
 21
614.954
  0
LINE
  8
0
 10
24.3611
 20
614.954
 11
24.6389
 21
614.954
  0
LINE
  8
0
 10
24.6389
 20
614.954
 11
24.9
 21
614.859
  0
LINE
  8
0
 10
24.9
 20
614.859
 11
25.1128
 21
614.681
  0
LINE
  8
0
 10
25.1128
 20
614.681
 11
25.2518
 21
614.44
  0
LINE
  8
0
 10
25.2518
 20
614.44
 11
25.3
 21
614.167
  0
LINE
  8
0
 10
25.3
 20
614.167
 11
25.2518
 21
613.893
  0
LINE
  8
0
 10
25.2518
 20
613.893
 11
25.1128
 21
613.652
  0
LINE
  8
0
 10
25.1128
 20
613.652
 11
24.9
 21
613.474
  0
LINE
  8
0
 10
24.9
 20
613.474
 11
24.6389
 21
613.379
  0
LINE
  8
0
 10
24.6389
 20
613.379
 11
24.3611
 21
613.379
  0
LINE
  8
0
 10
22.3611
 20
602.712
 11
22.1
 21
602.807
  0
LINE
  8
0
 10
22.1
 20
602.807
 11
21.8872
 21
602.986
  0
LINE
  8
0
 10
21.8872
 20
602.986
 11
21.7482
 21
603.226
  0
LINE
  8
0
 10
21.7482
 20
603.226
 11
21.7
 21
603.5
  0
LINE
  8
0
 10
21.7
 20
603.5
 11
21.7482
 21
603.774
  0
LINE
  8
0
 10
21.7482
 20
603.774
 11
21.8872
 21
604.014
  0
LINE
  8
0
 10
21.8872
 20
604.014
 11
22.1
 21
604.193
  0
LINE
  8
0
 10
22.1
 20
604.193
 11
22.3611
 21
604.288
  0
LINE
  8
0
 10
22.3611
 20
604.288
 11
22.6389
 21
604.288
  0
LINE
  8
0
 10
22.6389
 20
604.288
 11
22.9
 21
604.193
  0
LINE
  8
0
 10
22.9
 20
604.193
 11
23.1128
 21
604.014
  0
LINE
  8
0
 10
23.1128
 20
604.014
 11
23.2518
 21
603.774
  0
LINE
  8
0
 10
23.2518
 20
603.774
 11
23.3
 21
603.5
  0
LINE
  8
0
 10
23.3
 20
603.5
 11
23.2518
 21
603.226
  0
LINE
  8
0
 10
23.2518
 20
603.226
 11
23.1128
 21
602.986
  0
LINE
  8
0
 10
23.1128
 20
602.986
 11
22.9
 21
602.807
  0
LINE
  8
0
 10
22.9
 20
602.807
 11
22.6389
 21
602.712
  0
LINE
  8
0
 10
22.6389
 20
602.712
 11
22.3611
 21
602.712
  0
LINE
  8
0
 10
32.3611
 20
594.712
 11
32.1
 21
594.807
  0
LINE
  8
0
 10
32.1
 20
594.807
 11
31.8872
 21
594.986
  0
LINE
  8
0
 10
31.8872
 20
594.986
 11
31.7482
 21
595.226
  0
LINE
  8
0
 10
31.7482
 20
595.226
 11
31.7
 21
595.5
  0
LINE
  8
0
 10
31.7
 20
595.5
 11
31.7482
 21
595.774
  0
LINE
  8
0
 10
31.7482
 20
595.774
 11
31.8872
 21
596.014
  0
LINE
  8
0
 10
31.8872
 20
596.014
 11
32.1
 21
596.193
  0
LINE
  8
0
 10
32.1
 20
596.193
 11
32.3611
 21
596.288
  0
LINE
  8
0
 10
32.3611
 20
596.288
 11
32.6389
 21
596.288
  0
LINE
  8
0
 10
32.6389
 20
596.288
 11
32.9
 21
596.193
  0
LINE
  8
0
 10
32.9
 20
596.193
 11
33.1128
 21
596.014
  0
LINE
  8
0
 10
33.1128
 20
596.014
 11
33.2518
 21
595.774
  0
LINE
  8
0
 10
33.2518
 20
595.774
 11
33.3
 21
595.5
  0
LINE
  8
0
 10
33.3
 20
595.5
 11
33.2518
 21
595.226
  0
LINE
  8
0
 10
33.2518
 20
595.226
 11
33.1128
 21
594.986
  0
LINE
  8
0
 10
33.1128
 20
594.986
 11
32.9
 21
594.807
  0
LINE
  8
0
 10
32.9
 20
594.807
 11
32.6389
 21
594.712
  0
LINE
  8
0
 10
32.6389
 20
594.712
 11
32.3611
 21
594.712
  0
LINE
  8
0
 10
32.3611
 20
562.712
 11
32.1
 21
562.807
  0
LINE
  8
0
 10
32.1
 20
562.807
 11
31.8872
 21
562.986
  0
LINE
  8
0
 10
31.8872
 20
562.986
 11
31.7482
 21
563.226
  0
LINE
  8
0
 10
31.7482
 20
563.226
 11
31.7
 21
563.5
  0
LINE
  8
0
 10
31.7
 20
563.5
 11
31.7482
 21
563.774
  0
LINE
  8
0
 10
31.7482
 20
563.774
 11
31.8872
 21
564.014
  0
LINE
  8
0
 10
31.8872
 20
564.014
 11
32.1
 21
564.193
  0
LINE
  8
0
 10
32.1
 20
564.193
 11
32.3611
 21
564.288
  0
LINE
  8
0
 10
32.3611
 20
564.288
 11
32.6389
 21
564.288
  0
LINE
  8
0
 10
32.6389
 20
564.288
 11
32.9
 21
564.193
  0
LINE
  8
0
 10
32.9
 20
564.193
 11
33.1128
 21
564.014
  0
LINE
  8
0
 10
33.1128
 20
564.014
 11
33.2518
 21
563.774
  0
LINE
  8
0
 10
33.2518
 20
563.774
 11
33.3
 21
563.5
  0
LINE
  8
0
 10
33.3
 20
563.5
 11
33.2518
 21
563.226
  0
LINE
  8
0
 10
33.2518
 20
563.226
 11
33.1128
 21
562.986
  0
LINE
  8
0
 10
33.1128
 20
562.986
 11
32.9
 21
562.807
  0
LINE
  8
0
 10
32.9
 20
562.807
 11
32.6389
 21
562.712
  0
LINE
  8
0
 10
32.6389
 20
562.712
 11
32.3611
 21
562.712
  0
LINE
  8
0
 10
32.3611
 20
554.712
 11
32.1
 21
554.807
  0
LINE
  8
0
 10
32.1
 20
554.807
 11
31.8872
 21
554.986
  0
LINE
  8
0
 10
31.8872
 20
554.986
 11
31.7482
 21
555.226
  0
LINE
  8
0
 10
31.7482
 20
555.226
 11
31.7
 21
555.5
  0
LINE
  8
0
 10
31.7
 20
555.5
 11
31.7482
 21
555.774
  0
LINE
  8
0
 10
31.7482
 20
555.774
 11
31.8872
 21
556.014
  0
LINE
  8
0
 10
31.8872
 20
556.014
 11
32.1
 21
556.193
  0
LINE
  8
0
 10
32.1
 20
556.193
 11
32.3611
 21
556.288
  0
LINE
  8
0
 10
32.3611
 20
556.288
 11
32.6389
 21
556.288
  0
LINE
  8
0
 10
32.6389
 20
556.288
 11
32.9
 21
556.193
  0
LINE
  8
0
 10
32.9
 20
556.193
 11
33.1128
 21
556.014
  0
LINE
  8
0
 10
33.1128
 20
556.014
 11
33.2518
 21
555.774
  0
LINE
  8
0
 10
33.2518
 20
555.774
 11
33.3
 21
555.5
  0
LINE
  8
0
 10
33.3
 20
555.5
 11
33.2518
 21
555.226
  0
LINE
  8
0
 10
33.2518
 20
555.226
 11
33.1128
 21
554.986
  0
LINE
  8
0
 10
33.1128
 20
554.986
 11
32.9
 21
554.807
  0
LINE
  8
0
 10
32.9
 20
554.807
 11
32.6389
 21
554.712
  0
LINE
  8
0
 10
32.6389
 20
554.712
 11
32.3611
 21
554.712
  0
LINE
  8
0
 10
22.3611
 20
506.712
 11
22.1
 21
506.807
  0
LINE
  8
0
 10
22.1
 20
506.807
 11
21.8872
 21
506.986
  0
LINE
  8
0
 10
21.8872
 20
506.986
 11
21.7482
 21
507.226
  0
LINE
  8
0
 10
21.7482
 20
507.226
 11
21.7
 21
507.5
  0
LINE
  8
0
 10
21.7
 20
507.5
 11
21.7482
 21
507.774
  0
LINE
  8
0
 10
21.7482
 20
507.774
 11
21.8872
 21
508.014
  0
LINE
  8
0
 10
21.8872
 20
508.014
 11
22.1
 21
508.193
  0
LINE
  8
0
 10
22.1
 20
508.193
 11
22.3611
 21
508.288
  0
LINE
  8
0
 10
22.3611
 20
508.288
 11
22.6389
 21
508.288
  0
LINE
  8
0
 10
22.6389
 20
508.288
 11
22.9
 21
508.193
  0
LINE
  8
0
 10
22.9
 20
508.193
 11
23.1128
 21
508.014
  0
LINE
  8
0
 10
23.1128
 20
508.014
 11
23.2518
 21
507.774
  0
LINE
  8
0
 10
23.2518
 20
507.774
 11
23.3
 21
507.5
  0
LINE
  8
0
 10
23.3
 20
507.5
 11
23.2518
 21
507.226
  0
LINE
  8
0
 10
23.2518
 20
507.226
 11
23.1128
 21
506.986
  0
LINE
  8
0
 10
23.1128
 20
506.986
 11
22.9
 21
506.807
  0
LINE
  8
0
 10
22.9
 20
506.807
 11
22.6389
 21
506.712
  0
LINE
  8
0
 10
22.6389
 20
506.712
 11
22.3611
 21
506.712
  0
LINE
  8
0
 10
28.3611
 20
496.045
 11
28.1
 21
496.14
  0
LINE
  8
0
 10
28.1
 20
496.14
 11
27.8872
 21
496.319
  0
LINE
  8
0
 10
27.8872
 20
496.319
 11
27.7482
 21
496.56
  0
LINE
  8
0
 10
27.7482
 20
496.56
 11
27.7
 21
496.833
  0
LINE
  8
0
 10
27.7
 20
496.833
 11
27.7482
 21
497.107
  0
LINE
  8
0
 10
27.7482
 20
497.107
 11
27.8872
 21
497.348
  0
LINE
  8
0
 10
27.8872
 20
497.348
 11
28.1
 21
497.526
  0
LINE
  8
0
 10
28.1
 20
497.526
 11
28.3611
 21
497.621
  0
LINE
  8
0
 10
28.3611
 20
497.621
 11
28.6389
 21
497.621
  0
LINE
  8
0
 10
28.6389
 20
497.621
 11
28.9
 21
497.526
  0
LINE
  8
0
 10
28.9
 20
497.526
 11
29.1128
 21
497.348
  0
LINE
  8
0
 10
29.1128
 20
497.348
 11
29.2518
 21
497.107
  0
LINE
  8
0
 10
29.2518
 20
497.107
 11
29.3
 21
496.833
  0
LINE
  8
0
 10
29.3
 20
496.833
 11
29.2518
 21
496.56
  0
LINE
  8
0
 10
29.2518
 20
496.56
 11
29.1128
 21
496.319
  0
LINE
  8
0
 10
29.1128
 20
496.319
 11
28.9
 21
496.14
  0
LINE
  8
0
 10
28.9
 20
496.14
 11
28.6389
 21
496.045
  0
LINE
  8
0
 10
28.6389
 20
496.045
 11
28.3611
 21
496.045
  0
LINE
  8
0
 10
24.3611
 20
485.379
 11
24.1
 21
485.474
  0
LINE
  8
0
 10
24.1
 20
485.474
 11
23.8872
 21
485.652
  0
LINE
  8
0
 10
23.8872
 20
485.652
 11
23.7482
 21
485.893
  0
LINE
  8
0
 10
23.7482
 20
485.893
 11
23.7
 21
486.167
  0
LINE
  8
0
 10
23.7
 20
486.167
 11
23.7482
 21
486.44
  0
LINE
  8
0
 10
23.7482
 20
486.44
 11
23.8872
 21
486.681
  0
LINE
  8
0
 10
23.8872
 20
486.681
 11
24.1
 21
486.859
  0
LINE
  8
0
 10
24.1
 20
486.859
 11
24.3611
 21
486.954
  0
LINE
  8
0
 10
24.3611
 20
486.954
 11
24.6389
 21
486.954
  0
LINE
  8
0
 10
24.6389
 20
486.954
 11
24.9
 21
486.859
  0
LINE
  8
0
 10
24.9
 20
486.859
 11
25.1128
 21
486.681
  0
LINE
  8
0
 10
25.1128
 20
486.681
 11
25.2518
 21
486.44
  0
LINE
  8
0
 10
25.2518
 20
486.44
 11
25.3
 21
486.167
  0
LINE
  8
0
 10
25.3
 20
486.167
 11
25.2518
 21
485.893
  0
LINE
  8
0
 10
25.2518
 20
485.893
 11
25.1128
 21
485.652
  0
LINE
  8
0
 10
25.1128
 20
485.652
 11
24.9
 21
485.474
  0
LINE
  8
0
 10
24.9
 20
485.474
 11
24.6389
 21
485.379
  0
LINE
  8
0
 10
24.6389
 20
485.379
 11
24.3611
 21
485.379
  0
LINE
  8
0
 10
22.3611
 20
474.712
 11
22.1
 21
474.807
  0
LINE
  8
0
 10
22.1
 20
474.807
 11
21.8872
 21
474.986
  0
LINE
  8
0
 10
21.8872
 20
474.986
 11
21.7482
 21
475.226
  0
LINE
  8
0
 10
21.7482
 20
475.226
 11
21.7
 21
475.5
  0
LINE
  8
0
 10
21.7
 20
475.5
 11
21.7482
 21
475.774
  0
LINE
  8
0
 10
21.7482
 20
475.774
 11
21.8872
 21
476.014
  0
LINE
  8
0
 10
21.8872
 20
476.014
 11
22.1
 21
476.193
  0
LINE
  8
0
 10
22.1
 20
476.193
 11
22.3611
 21
476.288
  0
LINE
  8
0
 10
22.3611
 20
476.288
 11
22.6389
 21
476.288
  0
LINE
  8
0
 10
22.6389
 20
476.288
 11
22.9
 21
476.193
  0
LINE
  8
0
 10
22.9
 20
476.193
 11
23.1128
 21
476.014
  0
LINE
  8
0
 10
23.1128
 20
476.014
 11
23.2518
 21
475.774
  0
LINE
  8
0
 10
23.2518
 20
475.774
 11
23.3
 21
475.5
  0
LINE
  8
0
 10
23.3
 20
475.5
 11
23.2518
 21
475.226
  0
LINE
  8
0
 10
23.2518
 20
475.226
 11
23.1128
 21
474.986
  0
LINE
  8
0
 10
23.1128
 20
474.986
 11
22.9
 21
474.807
  0
LINE
  8
0
 10
22.9
 20
474.807
 11
22.6389
 21
474.712
  0
LINE
  8
0
 10
22.6389
 20
474.712
 11
22.3611
 21
474.712
  0
LINE
  8
0
 10
32.3611
 20
434.712
 11
32.1
 21
434.807
  0
LINE
  8
0
 10
32.1
 20
434.807
 11
31.8872
 21
434.986
  0
LINE
  8
0
 10
31.8872
 20
434.986
 11
31.7482
 21
435.226
  0
LINE
  8
0
 10
31.7482
 20
435.226
 11
31.7
 21
435.5
  0
LINE
  8
0
 10
31.7
 20
435.5
 11
31.7482
 21
435.774
  0
LINE
  8
0
 10
31.7482
 20
435.774
 11
31.8872
 21
436.014
  0
LINE
  8
0
 10
31.8872
 20
436.014
 11
32.1
 21
436.193
  0
LINE
  8
0
 10
32.1
 20
436.193
 11
32.3611
 21
436.288
  0
LINE
  8
0
 10
32.3611
 20
436.288
 11
32.6389
 21
436.288
  0
LINE
  8
0
 10
32.6389
 20
436.288
 11
32.9
 21
436.193
  0
LINE
  8
0
 10
32.9
 20
436.193
 11
33.1128
 21
436.014
  0
LINE
  8
0
 10
33.1128
 20
436.014
 11
33.2518
 21
435.774
  0
LINE
  8
0
 10
33.2518
 20
435.774
 11
33.3
 21
435.5
  0
LINE
  8
0
 10
33.3
 20
435.5
 11
33.2518
 21
435.226
  0
LINE
  8
0
 10
33.2518
 20
435.226
 11
33.1128
 21
434.986
  0
LINE
  8
0
 10
33.1128
 20
434.986
 11
32.9
 21
434.807
  0
LINE
  8
0
 10
32.9
 20
434.807
 11
32.6389
 21
434.712
  0
LINE
  8
0
 10
32.6389
 20
434.712
 11
32.3611
 21
434.712
  0
LINE
  8
0
 10
28.3611
 20
426.712
 11
28.1
 21
426.807
  0
LINE
  8
0
 10
28.1
 20
426.807
 11
27.8872
 21
426.986
  0
LINE
  8
0
 10
27.8872
 20
426.986
 11
27.7482
 21
427.226
  0
LINE
  8
0
 10
27.7482
 20
427.226
 11
27.7
 21
427.5
  0
LINE
  8
0
 10
27.7
 20
427.5
 11
27.7482
 21
427.774
  0
LINE
  8
0
 10
27.7482
 20
427.774
 11
27.8872
 21
428.014
  0
LINE
  8
0
 10
27.8872
 20
428.014
 11
28.1
 21
428.193
  0
LINE
  8
0
 10
28.1
 20
428.193
 11
28.3611
 21
428.288
  0
LINE
  8
0
 10
28.3611
 20
428.288
 11
28.6389
 21
428.288
  0
LINE
  8
0
 10
28.6389
 20
428.288
 11
28.9
 21
428.193
  0
LINE
  8
0
 10
28.9
 20
428.193
 11
29.1128
 21
428.014
  0
LINE
  8
0
 10
29.1128
 20
428.014
 11
29.2518
 21
427.774
  0
LINE
  8
0
 10
29.2518
 20
427.774
 11
29.3
 21
427.5
  0
LINE
  8
0
 10
29.3
 20
427.5
 11
29.2518
 21
427.226
  0
LINE
  8
0
 10
29.2518
 20
427.226
 11
29.1128
 21
426.986
  0
LINE
  8
0
 10
29.1128
 20
426.986
 11
28.9
 21
426.807
  0
LINE
  8
0
 10
28.9
 20
426.807
 11
28.6389
 21
426.712
  0
LINE
  8
0
 10
28.6389
 20
426.712
 11
28.3611
 21
426.712
  0
LINE
  8
0
 10
24.3611
 20
418.712
 11
24.1
 21
418.807
  0
LINE
  8
0
 10
24.1
 20
418.807
 11
23.8872
 21
418.986
  0
LINE
  8
0
 10
23.8872
 20
418.986
 11
23.7482
 21
419.226
  0
LINE
  8
0
 10
23.7482
 20
419.226
 11
23.7
 21
419.5
  0
LINE
  8
0
 10
23.7
 20
419.5
 11
23.7482
 21
419.774
  0
LINE
  8
0
 10
23.7482
 20
419.774
 11
23.8872
 21
420.014
  0
LINE
  8
0
 10
23.8872
 20
420.014
 11
24.1
 21
420.193
  0
LINE
  8
0
 10
24.1
 20
420.193
 11
24.3611
 21
420.288
  0
LINE
  8
0
 10
24.3611
 20
420.288
 11
24.6389
 21
420.288
  0
LINE
  8
0
 10
24.6389
 20
420.288
 11
24.9
 21
420.193
  0
LINE
  8
0
 10
24.9
 20
420.193
 11
25.1128
 21
420.014
  0
LINE
  8
0
 10
25.1128
 20
420.014
 11
25.2518
 21
419.774
  0
LINE
  8
0
 10
25.2518
 20
419.774
 11
25.3
 21
419.5
  0
LINE
  8
0
 10
25.3
 20
419.5
 11
25.2518
 21
419.226
  0
LINE
  8
0
 10
25.2518
 20
419.226
 11
25.1128
 21
418.986
  0
LINE
  8
0
 10
25.1128
 20
418.986
 11
24.9
 21
418.807
  0
LINE
  8
0
 10
24.9
 20
418.807
 11
24.6389
 21
418.712
  0
LINE
  8
0
 10
24.6389
 20
418.712
 11
24.3611
 21
418.712
  0
LINE
  8
0
 10
22.3611
 20
410.712
 11
22.1
 21
410.807
  0
LINE
  8
0
 10
22.1
 20
410.807
 11
21.8872
 21
410.986
  0
LINE
  8
0
 10
21.8872
 20
410.986
 11
21.7482
 21
411.226
  0
LINE
  8
0
 10
21.7482
 20
411.226
 11
21.7
 21
411.5
  0
LINE
  8
0
 10
21.7
 20
411.5
 11
21.7482
 21
411.774
  0
LINE
  8
0
 10
21.7482
 20
411.774
 11
21.8872
 21
412.014
  0
LINE
  8
0
 10
21.8872
 20
412.014
 11
22.1
 21
412.193
  0
LINE
  8
0
 10
22.1
 20
412.193
 11
22.3611
 21
412.288
  0
LINE
  8
0
 10
22.3611
 20
412.288
 11
22.6389
 21
412.288
  0
LINE
  8
0
 10
22.6389
 20
412.288
 11
22.9
 21
412.193
  0
LINE
  8
0
 10
22.9
 20
412.193
 11
23.1128
 21
412.014
  0
LINE
  8
0
 10
23.1128
 20
412.014
 11
23.2518
 21
411.774
  0
LINE
  8
0
 10
23.2518
 20
411.774
 11
23.3
 21
411.5
  0
LINE
  8
0
 10
23.3
 20
411.5
 11
23.2518
 21
411.226
  0
LINE
  8
0
 10
23.2518
 20
411.226
 11
23.1128
 21
410.986
  0
LINE
  8
0
 10
23.1128
 20
410.986
 11
22.9
 21
410.807
  0
LINE
  8
0
 10
22.9
 20
410.807
 11
22.6389
 21
410.712
  0
LINE
  8
0
 10
22.6389
 20
410.712
 11
22.3611
 21
410.712
  0
LINE
  8
0
 10
32.3611
 20
402.712
 11
32.1
 21
402.807
  0
LINE
  8
0
 10
32.1
 20
402.807
 11
31.8872
 21
402.986
  0
LINE
  8
0
 10
31.8872
 20
402.986
 11
31.7482
 21
403.226
  0
LINE
  8
0
 10
31.7482
 20
403.226
 11
31.7
 21
403.5
  0
LINE
  8
0
 10
31.7
 20
403.5
 11
31.7482
 21
403.774
  0
LINE
  8
0
 10
31.7482
 20
403.774
 11
31.8872
 21
404.014
  0
LINE
  8
0
 10
31.8872
 20
404.014
 11
32.1
 21
404.193
  0
LINE
  8
0
 10
32.1
 20
404.193
 11
32.3611
 21
404.288
  0
LINE
  8
0
 10
32.3611
 20
404.288
 11
32.6389
 21
404.288
  0
LINE
  8
0
 10
32.6389
 20
404.288
 11
32.9
 21
404.193
  0
LINE
  8
0
 10
32.9
 20
404.193
 11
33.1128
 21
404.014
  0
LINE
  8
0
 10
33.1128
 20
404.014
 11
33.2518
 21
403.774
  0
LINE
  8
0
 10
33.2518
 20
403.774
 11
33.3
 21
403.5
  0
LINE
  8
0
 10
33.3
 20
403.5
 11
33.2518
 21
403.226
  0
LINE
  8
0
 10
33.2518
 20
403.226
 11
33.1128
 21
402.986
  0
LINE
  8
0
 10
33.1128
 20
402.986
 11
32.9
 21
402.807
  0
LINE
  8
0
 10
32.9
 20
402.807
 11
32.6389
 21
402.712
  0
LINE
  8
0
 10
32.6389
 20
402.712
 11
32.3611
 21
402.712
  0
LINE
  8
0
 10
32.3611
 20
394.712
 11
32.1
 21
394.807
  0
LINE
  8
0
 10
32.1
 20
394.807
 11
31.8872
 21
394.986
  0
LINE
  8
0
 10
31.8872
 20
394.986
 11
31.7482
 21
395.226
  0
LINE
  8
0
 10
31.7482
 20
395.226
 11
31.7
 21
395.5
  0
LINE
  8
0
 10
31.7
 20
395.5
 11
31.7482
 21
395.774
  0
LINE
  8
0
 10
31.7482
 20
395.774
 11
31.8872
 21
396.014
  0
LINE
  8
0
 10
31.8872
 20
396.014
 11
32.1
 21
396.193
  0
LINE
  8
0
 10
32.1
 20
396.193
 11
32.3611
 21
396.288
  0
LINE
  8
0
 10
32.3611
 20
396.288
 11
32.6389
 21
396.288
  0
LINE
  8
0
 10
32.6389
 20
396.288
 11
32.9
 21
396.193
  0
LINE
  8
0
 10
32.9
 20
396.193
 11
33.1128
 21
396.014
  0
LINE
  8
0
 10
33.1128
 20
396.014
 11
33.2518
 21
395.774
  0
LINE
  8
0
 10
33.2518
 20
395.774
 11
33.3
 21
395.5
  0
LINE
  8
0
 10
33.3
 20
395.5
 11
33.2518
 21
395.226
  0
LINE
  8
0
 10
33.2518
 20
395.226
 11
33.1128
 21
394.986
  0
LINE
  8
0
 10
33.1128
 20
394.986
 11
32.9
 21
394.807
  0
LINE
  8
0
 10
32.9
 20
394.807
 11
32.6389
 21
394.712
  0
LINE
  8
0
 10
32.6389
 20
394.712
 11
32.3611
 21
394.712
  0
LINE
  8
0
 10
28.3611
 20
370.712
 11
28.1
 21
370.807
  0
LINE
  8
0
 10
28.1
 20
370.807
 11
27.8872
 21
370.986
  0
LINE
  8
0
 10
27.8872
 20
370.986
 11
27.7482
 21
371.226
  0
LINE
  8
0
 10
27.7482
 20
371.226
 11
27.7
 21
371.5
  0
LINE
  8
0
 10
27.7
 20
371.5
 11
27.7482
 21
371.774
  0
LINE
  8
0
 10
27.7482
 20
371.774
 11
27.8872
 21
372.014
  0
LINE
  8
0
 10
27.8872
 20
372.014
 11
28.1
 21
372.193
  0
LINE
  8
0
 10
28.1
 20
372.193
 11
28.3611
 21
372.288
  0
LINE
  8
0
 10
28.3611
 20
372.288
 11
28.6389
 21
372.288
  0
LINE
  8
0
 10
28.6389
 20
372.288
 11
28.9
 21
372.193
  0
LINE
  8
0
 10
28.9
 20
372.193
 11
29.1128
 21
372.014
  0
LINE
  8
0
 10
29.1128
 20
372.014
 11
29.2518
 21
371.774
  0
LINE
  8
0
 10
29.2518
 20
371.774
 11
29.3
 21
371.5
  0
LINE
  8
0
 10
29.3
 20
371.5
 11
29.2518
 21
371.226
  0
LINE
  8
0
 10
29.2518
 20
371.226
 11
29.1128
 21
370.986
  0
LINE
  8
0
 10
29.1128
 20
370.986
 11
28.9
 21
370.807
  0
LINE
  8
0
 10
28.9
 20
370.807
 11
28.6389
 21
370.712
  0
LINE
  8
0
 10
28.6389
 20
370.712
 11
28.3611
 21
370.712
  0
LINE
  8
0
 10
24.3611
 20
346.712
 11
24.1
 21
346.807
  0
LINE
  8
0
 10
24.1
 20
346.807
 11
23.8872
 21
346.986
  0
LINE
  8
0
 10
23.8872
 20
346.986
 11
23.7482
 21
347.226
  0
LINE
  8
0
 10
23.7482
 20
347.226
 11
23.7
 21
347.5
  0
LINE
  8
0
 10
23.7
 20
347.5
 11
23.7482
 21
347.774
  0
LINE
  8
0
 10
23.7482
 20
347.774
 11
23.8872
 21
348.014
  0
LINE
  8
0
 10
23.8872
 20
348.014
 11
24.1
 21
348.193
  0
LINE
  8
0
 10
24.1
 20
348.193
 11
24.3611
 21
348.288
  0
LINE
  8
0
 10
24.3611
 20
348.288
 11
24.6389
 21
348.288
  0
LINE
  8
0
 10
24.6389
 20
348.288
 11
24.9
 21
348.193
  0
LINE
  8
0
 10
24.9
 20
348.193
 11
25.1128
 21
348.014
  0
LINE
  8
0
 10
25.1128
 20
348.014
 11
25.2518
 21
347.774
  0
LINE
  8
0
 10
25.2518
 20
347.774
 11
25.3
 21
347.5
  0
LINE
  8
0
 10
25.3
 20
347.5
 11
25.2518
 21
347.226
  0
LINE
  8
0
 10
25.2518
 20
347.226
 11
25.1128
 21
346.986
  0
LINE
  8
0
 10
25.1128
 20
346.986
 11
24.9
 21
346.807
  0
LINE
  8
0
 10
24.9
 20
346.807
 11
24.6389
 21
346.712
  0
LINE
  8
0
 10
24.6389
 20
346.712
 11
24.3611
 21
346.712
  0
LINE
  8
0
 10
24.3611
 20
338.712
 11
24.1
 21
338.807
  0
LINE
  8
0
 10
24.1
 20
338.807
 11
23.8872
 21
338.986
  0
LINE
  8
0
 10
23.8872
 20
338.986
 11
23.7482
 21
339.226
  0
LINE
  8
0
 10
23.7482
 20
339.226
 11
23.7
 21
339.5
  0
LINE
  8
0
 10
23.7
 20
339.5
 11
23.7482
 21
339.774
  0
LINE
  8
0
 10
23.7482
 20
339.774
 11
23.8872
 21
340.014
  0
LINE
  8
0
 10
23.8872
 20
340.014
 11
24.1
 21
340.193
  0
LINE
  8
0
 10
24.1
 20
340.193
 11
24.3611
 21
340.288
  0
LINE
  8
0
 10
24.3611
 20
340.288
 11
24.6389
 21
340.288
  0
LINE
  8
0
 10
24.6389
 20
340.288
 11
24.9
 21
340.193
  0
LINE
  8
0
 10
24.9
 20
340.193
 11
25.1128
 21
340.014
  0
LINE
  8
0
 10
25.1128
 20
340.014
 11
25.2518
 21
339.774
  0
LINE
  8
0
 10
25.2518
 20
339.774
 11
25.3
 21
339.5
  0
LINE
  8
0
 10
25.3
 20
339.5
 11
25.2518
 21
339.226
  0
LINE
  8
0
 10
25.2518
 20
339.226
 11
25.1128
 21
338.986
  0
LINE
  8
0
 10
25.1128
 20
338.986
 11
24.9
 21
338.807
  0
LINE
  8
0
 10
24.9
 20
338.807
 11
24.6389
 21
338.712
  0
LINE
  8
0
 10
24.6389
 20
338.712
 11
24.3611
 21
338.712
  0
LINE
  8
0
 10
22.3611
 20
314.712
 11
22.1
 21
314.807
  0
LINE
  8
0
 10
22.1
 20
314.807
 11
21.8872
 21
314.986
  0
LINE
  8
0
 10
21.8872
 20
314.986
 11
21.7482
 21
315.226
  0
LINE
  8
0
 10
21.7482
 20
315.226
 11
21.7
 21
315.5
  0
LINE
  8
0
 10
21.7
 20
315.5
 11
21.7482
 21
315.774
  0
LINE
  8
0
 10
21.7482
 20
315.774
 11
21.8872
 21
316.014
  0
LINE
  8
0
 10
21.8872
 20
316.014
 11
22.1
 21
316.193
  0
LINE
  8
0
 10
22.1
 20
316.193
 11
22.3611
 21
316.288
  0
LINE
  8
0
 10
22.3611
 20
316.288
 11
22.6389
 21
316.288
  0
LINE
  8
0
 10
22.6389
 20
316.288
 11
22.9
 21
316.193
  0
LINE
  8
0
 10
22.9
 20
316.193
 11
23.1128
 21
316.014
  0
LINE
  8
0
 10
23.1128
 20
316.014
 11
23.2518
 21
315.774
  0
LINE
  8
0
 10
23.2518
 20
315.774
 11
23.3
 21
315.5
  0
LINE
  8
0
 10
23.3
 20
315.5
 11
23.2518
 21
315.226
  0
LINE
  8
0
 10
23.2518
 20
315.226
 11
23.1128
 21
314.986
  0
LINE
  8
0
 10
23.1128
 20
314.986
 11
22.9
 21
314.807
  0
LINE
  8
0
 10
22.9
 20
314.807
 11
22.6389
 21
314.712
  0
LINE
  8
0
 10
22.6389
 20
314.712
 11
22.3611
 21
314.712
  0
LINE
  8
0
 10
32.3611
 20
306.712
 11
32.1
 21
306.807
  0
LINE
  8
0
 10
32.1
 20
306.807
 11
31.8872
 21
306.986
  0
LINE
  8
0
 10
31.8872
 20
306.986
 11
31.7482
 21
307.226
  0
LINE
  8
0
 10
31.7482
 20
307.226
 11
31.7
 21
307.5
  0
LINE
  8
0
 10
31.7
 20
307.5
 11
31.7482
 21
307.774
  0
LINE
  8
0
 10
31.7482
 20
307.774
 11
31.8872
 21
308.014
  0
LINE
  8
0
 10
31.8872
 20
308.014
 11
32.1
 21
308.193
  0
LINE
  8
0
 10
32.1
 20
308.193
 11
32.3611
 21
308.288
  0
LINE
  8
0
 10
32.3611
 20
308.288
 11
32.6389
 21
308.288
  0
LINE
  8
0
 10
32.6389
 20
308.288
 11
32.9
 21
308.193
  0
LINE
  8
0
 10
32.9
 20
308.193
 11
33.1128
 21
308.014
  0
LINE
  8
0
 10
33.1128
 20
308.014
 11
33.2518
 21
307.774
  0
LINE
  8
0
 10
33.2518
 20
307.774
 11
33.3
 21
307.5
  0
LINE
  8
0
 10
33.3
 20
307.5
 11
33.2518
 21
307.226
  0
LINE
  8
0
 10
33.2518
 20
307.226
 11
33.1128
 21
306.986
  0
LINE
  8
0
 10
33.1128
 20
306.986
 11
32.9
 21
306.807
  0
LINE
  8
0
 10
32.9
 20
306.807
 11
32.6389
 21
306.712
  0
LINE
  8
0
 10
32.6389
 20
306.712
 11
32.3611
 21
306.712
  0
LINE
  8
0
 10
28.3611
 20
298.712
 11
28.1
 21
298.807
  0
LINE
  8
0
 10
28.1
 20
298.807
 11
27.8872
 21
298.986
  0
LINE
  8
0
 10
27.8872
 20
298.986
 11
27.7482
 21
299.226
  0
LINE
  8
0
 10
27.7482
 20
299.226
 11
27.7
 21
299.5
  0
LINE
  8
0
 10
27.7
 20
299.5
 11
27.7482
 21
299.774
  0
LINE
  8
0
 10
27.7482
 20
299.774
 11
27.8872
 21
300.014
  0
LINE
  8
0
 10
27.8872
 20
300.014
 11
28.1
 21
300.193
  0
LINE
  8
0
 10
28.1
 20
300.193
 11
28.3611
 21
300.288
  0
LINE
  8
0
 10
28.3611
 20
300.288
 11
28.6389
 21
300.288
  0
LINE
  8
0
 10
28.6389
 20
300.288
 11
28.9
 21
300.193
  0
LINE
  8
0
 10
28.9
 20
300.193
 11
29.1128
 21
300.014
  0
LINE
  8
0
 10
29.1128
 20
300.014
 11
29.2518
 21
299.774
  0
LINE
  8
0
 10
29.2518
 20
299.774
 11
29.3
 21
299.5
  0
LINE
  8
0
 10
29.3
 20
299.5
 11
29.2518
 21
299.226
  0
LINE
  8
0
 10
29.2518
 20
299.226
 11
29.1128
 21
298.986
  0
LINE
  8
0
 10
29.1128
 20
298.986
 11
28.9
 21
298.807
  0
LINE
  8
0
 10
28.9
 20
298.807
 11
28.6389
 21
298.712
  0
LINE
  8
0
 10
28.6389
 20
298.712
 11
28.3611
 21
298.712
  0
LINE
  8
0
 10
24.3611
 20
290.712
 11
24.1
 21
290.807
  0
LINE
  8
0
 10
24.1
 20
290.807
 11
23.8872
 21
290.986
  0
LINE
  8
0
 10
23.8872
 20
290.986
 11
23.7482
 21
291.226
  0
LINE
  8
0
 10
23.7482
 20
291.226
 11
23.7
 21
291.5
  0
LINE
  8
0
 10
23.7
 20
291.5
 11
23.7482
 21
291.774
  0
LINE
  8
0
 10
23.7482
 20
291.774
 11
23.8872
 21
292.014
  0
LINE
  8
0
 10
23.8872
 20
292.014
 11
24.1
 21
292.193
  0
LINE
  8
0
 10
24.1
 20
292.193
 11
24.3611
 21
292.288
  0
LINE
  8
0
 10
24.3611
 20
292.288
 11
24.6389
 21
292.288
  0
LINE
  8
0
 10
24.6389
 20
292.288
 11
24.9
 21
292.193
  0
LINE
  8
0
 10
24.9
 20
292.193
 11
25.1128
 21
292.014
  0
LINE
  8
0
 10
25.1128
 20
292.014
 11
25.2518
 21
291.774
  0
LINE
  8
0
 10
25.2518
 20
291.774
 11
25.3
 21
291.5
  0
LINE
  8
0
 10
25.3
 20
291.5
 11
25.2518
 21
291.226
  0
LINE
  8
0
 10
25.2518
 20
291.226
 11
25.1128
 21
290.986
  0
LINE
  8
0
 10
25.1128
 20
290.986
 11
24.9
 21
290.807
  0
LINE
  8
0
 10
24.9
 20
290.807
 11
24.6389
 21
290.712
  0
LINE
  8
0
 10
24.6389
 20
290.712
 11
24.3611
 21
290.712
  0
LINE
  8
0
 10
22.3611
 20
282.712
 11
22.1
 21
282.807
  0
LINE
  8
0
 10
22.1
 20
282.807
 11
21.8872
 21
282.986
  0
LINE
  8
0
 10
21.8872
 20
282.986
 11
21.7482
 21
283.226
  0
LINE
  8
0
 10
21.7482
 20
283.226
 11
21.7
 21
283.5
  0
LINE
  8
0
 10
21.7
 20
283.5
 11
21.7482
 21
283.774
  0
LINE
  8
0
 10
21.7482
 20
283.774
 11
21.8872
 21
284.014
  0
LINE
  8
0
 10
21.8872
 20
284.014
 11
22.1
 21
284.193
  0
LINE
  8
0
 10
22.1
 20
284.193
 11
22.3611
 21
284.288
  0
LINE
  8
0
 10
22.3611
 20
284.288
 11
22.6389
 21
284.288
  0
LINE
  8
0
 10
22.6389
 20
284.288
 11
22.9
 21
284.193
  0
LINE
  8
0
 10
22.9
 20
284.193
 11
23.1128
 21
284.014
  0
LINE
  8
0
 10
23.1128
 20
284.014
 11
23.2518
 21
283.774
  0
LINE
  8
0
 10
23.2518
 20
283.774
 11
23.3
 21
283.5
  0
LINE
  8
0
 10
23.3
 20
283.5
 11
23.2518
 21
283.226
  0
LINE
  8
0
 10
23.2518
 20
283.226
 11
23.1128
 21
282.986
  0
LINE
  8
0
 10
23.1128
 20
282.986
 11
22.9
 21
282.807
  0
LINE
  8
0
 10
22.9
 20
282.807
 11
22.6389
 21
282.712
  0
LINE
  8
0
 10
22.6389
 20
282.712
 11
22.3611
 21
282.712
  0
LINE
  8
0
 10
32.3611
 20
274.712
 11
32.1
 21
274.807
  0
LINE
  8
0
 10
32.1
 20
274.807
 11
31.8872
 21
274.986
  0
LINE
  8
0
 10
31.8872
 20
274.986
 11
31.7482
 21
275.226
  0
LINE
  8
0
 10
31.7482
 20
275.226
 11
31.7
 21
275.5
  0
LINE
  8
0
 10
31.7
 20
275.5
 11
31.7482
 21
275.774
  0
LINE
  8
0
 10
31.7482
 20
275.774
 11
31.8872
 21
276.014
  0
LINE
  8
0
 10
31.8872
 20
276.014
 11
32.1
 21
276.193
  0
LINE
  8
0
 10
32.1
 20
276.193
 11
32.3611
 21
276.288
  0
LINE
  8
0
 10
32.3611
 20
276.288
 11
32.6389
 21
276.288
  0
LINE
  8
0
 10
32.6389
 20
276.288
 11
32.9
 21
276.193
  0
LINE
  8
0
 10
32.9
 20
276.193
 11
33.1128
 21
276.014
  0
LINE
  8
0
 10
33.1128
 20
276.014
 11
33.2518
 21
275.774
  0
LINE
  8
0
 10
33.2518
 20
275.774
 11
33.3
 21
275.5
  0
LINE
  8
0
 10
33.3
 20
275.5
 11
33.2518
 21
275.226
  0
LINE
  8
0
 10
33.2518
 20
275.226
 11
33.1128
 21
274.986
  0
LINE
  8
0
 10
33.1128
 20
274.986
 11
32.9
 21
274.807
  0
LINE
  8
0
 10
32.9
 20
274.807
 11
32.6389
 21
274.712
  0
LINE
  8
0
 10
32.6389
 20
274.712
 11
32.3611
 21
274.712
  0
LINE
  8
0
 10
32.3611
 20
266.712
 11
32.1
 21
266.807
  0
LINE
  8
0
 10
32.1
 20
266.807
 11
31.8872
 21
266.986
  0
LINE
  8
0
 10
31.8872
 20
266.986
 11
31.7482
 21
267.226
  0
LINE
  8
0
 10
31.7482
 20
267.226
 11
31.7
 21
267.5
  0
LINE
  8
0
 10
31.7
 20
267.5
 11
31.7482
 21
267.774
  0
LINE
  8
0
 10
31.7482
 20
267.774
 11
31.8872
 21
268.014
  0
LINE
  8
0
 10
31.8872
 20
268.014
 11
32.1
 21
268.193
  0
LINE
  8
0
 10
32.1
 20
268.193
 11
32.3611
 21
268.288
  0
LINE
  8
0
 10
32.3611
 20
268.288
 11
32.6389
 21
268.288
  0
LINE
  8
0
 10
32.6389
 20
268.288
 11
32.9
 21
268.193
  0
LINE
  8
0
 10
32.9
 20
268.193
 11
33.1128
 21
268.014
  0
LINE
  8
0
 10
33.1128
 20
268.014
 11
33.2518
 21
267.774
  0
LINE
  8
0
 10
33.2518
 20
267.774
 11
33.3
 21
267.5
  0
LINE
  8
0
 10
33.3
 20
267.5
 11
33.2518
 21
267.226
  0
LINE
  8
0
 10
33.2518
 20
267.226
 11
33.1128
 21
266.986
  0
LINE
  8
0
 10
33.1128
 20
266.986
 11
32.9
 21
266.807
  0
LINE
  8
0
 10
32.9
 20
266.807
 11
32.6389
 21
266.712
  0
LINE
  8
0
 10
32.6389
 20
266.712
 11
32.3611
 21
266.712
  0
LINE
  8
0
 10
24.3611
 20
218.712
 11
24.1
 21
218.807
  0
LINE
  8
0
 10
24.1
 20
218.807
 11
23.8872
 21
218.986
  0
LINE
  8
0
 10
23.8872
 20
218.986
 11
23.7482
 21
219.226
  0
LINE
  8
0
 10
23.7482
 20
219.226
 11
23.7
 21
219.5
  0
LINE
  8
0
 10
23.7
 20
219.5
 11
23.7482
 21
219.774
  0
LINE
  8
0
 10
23.7482
 20
219.774
 11
23.8872
 21
220.014
  0
LINE
  8
0
 10
23.8872
 20
220.014
 11
24.1
 21
220.193
  0
LINE
  8
0
 10
24.1
 20
220.193
 11
24.3611
 21
220.288
  0
LINE
  8
0
 10
24.3611
 20
220.288
 11
24.6389
 21
220.288
  0
LINE
  8
0
 10
24.6389
 20
220.288
 11
24.9
 21
220.193
  0
LINE
  8
0
 10
24.9
 20
220.193
 11
25.1128
 21
220.014
  0
LINE
  8
0
 10
25.1128
 20
220.014
 11
25.2518
 21
219.774
  0
LINE
  8
0
 10
25.2518
 20
219.774
 11
25.3
 21
219.5
  0
LINE
  8
0
 10
25.3
 20
219.5
 11
25.2518
 21
219.226
  0
LINE
  8
0
 10
25.2518
 20
219.226
 11
25.1128
 21
218.986
  0
LINE
  8
0
 10
25.1128
 20
218.986
 11
24.9
 21
218.807
  0
LINE
  8
0
 10
24.9
 20
218.807
 11
24.6389
 21
218.712
  0
LINE
  8
0
 10
24.6389
 20
218.712
 11
24.3611
 21
218.712
  0
LINE
  8
0
 10
24.3611
 20
210.712
 11
24.1
 21
210.807
  0
LINE
  8
0
 10
24.1
 20
210.807
 11
23.8872
 21
210.986
  0
LINE
  8
0
 10
23.8872
 20
210.986
 11
23.7482
 21
211.226
  0
LINE
  8
0
 10
23.7482
 20
211.226
 11
23.7
 21
211.5
  0
LINE
  8
0
 10
23.7
 20
211.5
 11
23.7482
 21
211.774
  0
LINE
  8
0
 10
23.7482
 20
211.774
 11
23.8872
 21
212.014
  0
LINE
  8
0
 10
23.8872
 20
212.014
 11
24.1
 21
212.193
  0
LINE
  8
0
 10
24.1
 20
212.193
 11
24.3611
 21
212.288
  0
LINE
  8
0
 10
24.3611
 20
212.288
 11
24.6389
 21
212.288
  0
LINE
  8
0
 10
24.6389
 20
212.288
 11
24.9
 21
212.193
  0
LINE
  8
0
 10
24.9
 20
212.193
 11
25.1128
 21
212.014
  0
LINE
  8
0
 10
25.1128
 20
212.014
 11
25.2518
 21
211.774
  0
LINE
  8
0
 10
25.2518
 20
211.774
 11
25.3
 21
211.5
  0
LINE
  8
0
 10
25.3
 20
211.5
 11
25.2518
 21
211.226
  0
LINE
  8
0
 10
25.2518
 20
211.226
 11
25.1128
 21
210.986
  0
LINE
  8
0
 10
25.1128
 20
210.986
 11
24.9
 21
210.807
  0
LINE
  8
0
 10
24.9
 20
210.807
 11
24.6389
 21
210.712
  0
LINE
  8
0
 10
24.6389
 20
210.712
 11
24.3611
 21
210.712
  0
LINE
  8
0
 10
22.3611
 20
186.712
 11
22.1
 21
186.807
  0
LINE
  8
0
 10
22.1
 20
186.807
 11
21.8872
 21
186.986
  0
LINE
  8
0
 10
21.8872
 20
186.986
 11
21.7482
 21
187.226
  0
LINE
  8
0
 10
21.7482
 20
187.226
 11
21.7
 21
187.5
  0
LINE
  8
0
 10
21.7
 20
187.5
 11
21.7482
 21
187.774
  0
LINE
  8
0
 10
21.7482
 20
187.774
 11
21.8872
 21
188.014
  0
LINE
  8
0
 10
21.8872
 20
188.014
 11
22.1
 21
188.193
  0
LINE
  8
0
 10
22.1
 20
188.193
 11
22.3611
 21
188.288
  0
LINE
  8
0
 10
22.3611
 20
188.288
 11
22.6389
 21
188.288
  0
LINE
  8
0
 10
22.6389
 20
188.288
 11
22.9
 21
188.193
  0
LINE
  8
0
 10
22.9
 20
188.193
 11
23.1128
 21
188.014
  0
LINE
  8
0
 10
23.1128
 20
188.014
 11
23.2518
 21
187.774
  0
LINE
  8
0
 10
23.2518
 20
187.774
 11
23.3
 21
187.5
  0
LINE
  8
0
 10
23.3
 20
187.5
 11
23.2518
 21
187.226
  0
LINE
  8
0
 10
23.2518
 20
187.226
 11
23.1128
 21
186.986
  0
LINE
  8
0
 10
23.1128
 20
186.986
 11
22.9
 21
186.807
  0
LINE
  8
0
 10
22.9
 20
186.807
 11
22.6389
 21
186.712
  0
LINE
  8
0
 10
22.6389
 20
186.712
 11
22.3611
 21
186.712
  0
LINE
  8
0
 10
32.3611
 20
178.712
 11
32.1
 21
178.807
  0
LINE
  8
0
 10
32.1
 20
178.807
 11
31.8872
 21
178.986
  0
LINE
  8
0
 10
31.8872
 20
178.986
 11
31.7482
 21
179.226
  0
LINE
  8
0
 10
31.7482
 20
179.226
 11
31.7
 21
179.5
  0
LINE
  8
0
 10
31.7
 20
179.5
 11
31.7482
 21
179.774
  0
LINE
  8
0
 10
31.7482
 20
179.774
 11
31.8872
 21
180.014
  0
LINE
  8
0
 10
31.8872
 20
180.014
 11
32.1
 21
180.193
  0
LINE
  8
0
 10
32.1
 20
180.193
 11
32.3611
 21
180.288
  0
LINE
  8
0
 10
32.3611
 20
180.288
 11
32.6389
 21
180.288
  0
LINE
  8
0
 10
32.6389
 20
180.288
 11
32.9
 21
180.193
  0
LINE
  8
0
 10
32.9
 20
180.193
 11
33.1128
 21
180.014
  0
LINE
  8
0
 10
33.1128
 20
180.014
 11
33.2518
 21
179.774
  0
LINE
  8
0
 10
33.2518
 20
179.774
 11
33.3
 21
179.5
  0
LINE
  8
0
 10
33.3
 20
179.5
 11
33.2518
 21
179.226
  0
LINE
  8
0
 10
33.2518
 20
179.226
 11
33.1128
 21
178.986
  0
LINE
  8
0
 10
33.1128
 20
178.986
 11
32.9
 21
178.807
  0
LINE
  8
0
 10
32.9
 20
178.807
 11
32.6389
 21
178.712
  0
LINE
  8
0
 10
32.6389
 20
178.712
 11
32.3611
 21
178.712
  0
LINE
  8
0
 10
28.3611
 20
170.712
 11
28.1
 21
170.807
  0
LINE
  8
0
 10
28.1
 20
170.807
 11
27.8872
 21
170.986
  0
LINE
  8
0
 10
27.8872
 20
170.986
 11
27.7482
 21
171.226
  0
LINE
  8
0
 10
27.7482
 20
171.226
 11
27.7
 21
171.5
  0
LINE
  8
0
 10
27.7
 20
171.5
 11
27.7482
 21
171.774
  0
LINE
  8
0
 10
27.7482
 20
171.774
 11
27.8872
 21
172.014
  0
LINE
  8
0
 10
27.8872
 20
172.014
 11
28.1
 21
172.193
  0
LINE
  8
0
 10
28.1
 20
172.193
 11
28.3611
 21
172.288
  0
LINE
  8
0
 10
28.3611
 20
172.288
 11
28.6389
 21
172.288
  0
LINE
  8
0
 10
28.6389
 20
172.288
 11
28.9
 21
172.193
  0
LINE
  8
0
 10
28.9
 20
172.193
 11
29.1128
 21
172.014
  0
LINE
  8
0
 10
29.1128
 20
172.014
 11
29.2518
 21
171.774
  0
LINE
  8
0
 10
29.2518
 20
171.774
 11
29.3
 21
171.5
  0
LINE
  8
0
 10
29.3
 20
171.5
 11
29.2518
 21
171.226
  0
LINE
  8
0
 10
29.2518
 20
171.226
 11
29.1128
 21
170.986
  0
LINE
  8
0
 10
29.1128
 20
170.986
 11
28.9
 21
170.807
  0
LINE
  8
0
 10
28.9
 20
170.807
 11
28.6389
 21
170.712
  0
LINE
  8
0
 10
28.6389
 20
170.712
 11
28.3611
 21
170.712
  0
LINE
  8
0
 10
24.3611
 20
162.712
 11
24.1
 21
162.807
  0
LINE
  8
0
 10
24.1
 20
162.807
 11
23.8872
 21
162.986
  0
LINE
  8
0
 10
23.8872
 20
162.986
 11
23.7482
 21
163.226
  0
LINE
  8
0
 10
23.7482
 20
163.226
 11
23.7
 21
163.5
  0
LINE
  8
0
 10
23.7
 20
163.5
 11
23.7482
 21
163.774
  0
LINE
  8
0
 10
23.7482
 20
163.774
 11
23.8872
 21
164.014
  0
LINE
  8
0
 10
23.8872
 20
164.014
 11
24.1
 21
164.193
  0
LINE
  8
0
 10
24.1
 20
164.193
 11
24.3611
 21
164.288
  0
LINE
  8
0
 10
24.3611
 20
164.288
 11
24.6389
 21
164.288
  0
LINE
  8
0
 10
24.6389
 20
164.288
 11
24.9
 21
164.193
  0
LINE
  8
0
 10
24.9
 20
164.193
 11
25.1128
 21
164.014
  0
LINE
  8
0
 10
25.1128
 20
164.014
 11
25.2518
 21
163.774
  0
LINE
  8
0
 10
25.2518
 20
163.774
 11
25.3
 21
163.5
  0
LINE
  8
0
 10
25.3
 20
163.5
 11
25.2518
 21
163.226
  0
LINE
  8
0
 10
25.2518
 20
163.226
 11
25.1128
 21
162.986
  0
LINE
  8
0
 10
25.1128
 20
162.986
 11
24.9
 21
162.807
  0
LINE
  8
0
 10
24.9
 20
162.807
 11
24.6389
 21
162.712
  0
LINE
  8
0
 10
24.6389
 20
162.712
 11
24.3611
 21
162.712
  0
LINE
  8
0
 10
22.3611
 20
154.712
 11
22.1
 21
154.807
  0
LINE
  8
0
 10
22.1
 20
154.807
 11
21.8872
 21
154.986
  0
LINE
  8
0
 10
21.8872
 20
154.986
 11
21.7482
 21
155.226
  0
LINE
  8
0
 10
21.7482
 20
155.226
 11
21.7
 21
155.5
  0
LINE
  8
0
 10
21.7
 20
155.5
 11
21.7482
 21
155.774
  0
LINE
  8
0
 10
21.7482
 20
155.774
 11
21.8872
 21
156.014
  0
LINE
  8
0
 10
21.8872
 20
156.014
 11
22.1
 21
156.193
  0
LINE
  8
0
 10
22.1
 20
156.193
 11
22.3611
 21
156.288
  0
LINE
  8
0
 10
22.3611
 20
156.288
 11
22.6389
 21
156.288
  0
LINE
  8
0
 10
22.6389
 20
156.288
 11
22.9
 21
156.193
  0
LINE
  8
0
 10
22.9
 20
156.193
 11
23.1128
 21
156.014
  0
LINE
  8
0
 10
23.1128
 20
156.014
 11
23.2518
 21
155.774
  0
LINE
  8
0
 10
23.2518
 20
155.774
 11
23.3
 21
155.5
  0
LINE
  8
0
 10
23.3
 20
155.5
 11
23.2518
 21
155.226
  0
LINE
  8
0
 10
23.2518
 20
155.226
 11
23.1128
 21
154.986
  0
LINE
  8
0
 10
23.1128
 20
154.986
 11
22.9
 21
154.807
  0
LINE
  8
0
 10
22.9
 20
154.807
 11
22.6389
 21
154.712
  0
LINE
  8
0
 10
22.6389
 20
154.712
 11
22.3611
 21
154.712
  0
LINE
  8
0
 10
32.3611
 20
146.712
 11
32.1
 21
146.807
  0
LINE
  8
0
 10
32.1
 20
146.807
 11
31.8872
 21
146.986
  0
LINE
  8
0
 10
31.8872
 20
146.986
 11
31.7482
 21
147.226
  0
LINE
  8
0
 10
31.7482
 20
147.226
 11
31.7
 21
147.5
  0
LINE
  8
0
 10
31.7
 20
147.5
 11
31.7482
 21
147.774
  0
LINE
  8
0
 10
31.7482
 20
147.774
 11
31.8872
 21
148.014
  0
LINE
  8
0
 10
31.8872
 20
148.014
 11
32.1
 21
148.193
  0
LINE
  8
0
 10
32.1
 20
148.193
 11
32.3611
 21
148.288
  0
LINE
  8
0
 10
32.3611
 20
148.288
 11
32.6389
 21
148.288
  0
LINE
  8
0
 10
32.6389
 20
148.288
 11
32.9
 21
148.193
  0
LINE
  8
0
 10
32.9
 20
148.193
 11
33.1128
 21
148.014
  0
LINE
  8
0
 10
33.1128
 20
148.014
 11
33.2518
 21
147.774
  0
LINE
  8
0
 10
33.2518
 20
147.774
 11
33.3
 21
147.5
  0
LINE
  8
0
 10
33.3
 20
147.5
 11
33.2518
 21
147.226
  0
LINE
  8
0
 10
33.2518
 20
147.226
 11
33.1128
 21
146.986
  0
LINE
  8
0
 10
33.1128
 20
146.986
 11
32.9
 21
146.807
  0
LINE
  8
0
 10
32.9
 20
146.807
 11
32.6389
 21
146.712
  0
LINE
  8
0
 10
32.6389
 20
146.712
 11
32.3611
 21
146.712
  0
LINE
  8
0
 10
28.3611
 20
114.712
 11
28.1
 21
114.807
  0
LINE
  8
0
 10
28.1
 20
114.807
 11
27.8872
 21
114.986
  0
LINE
  8
0
 10
27.8872
 20
114.986
 11
27.7482
 21
115.226
  0
LINE
  8
0
 10
27.7482
 20
115.226
 11
27.7
 21
115.5
  0
LINE
  8
0
 10
27.7
 20
115.5
 11
27.7482
 21
115.774
  0
LINE
  8
0
 10
27.7482
 20
115.774
 11
27.8872
 21
116.014
  0
LINE
  8
0
 10
27.8872
 20
116.014
 11
28.1
 21
116.193
  0
LINE
  8
0
 10
28.1
 20
116.193
 11
28.3611
 21
116.288
  0
LINE
  8
0
 10
28.3611
 20
116.288
 11
28.6389
 21
116.288
  0
LINE
  8
0
 10
28.6389
 20
116.288
 11
28.9
 21
116.193
  0
LINE
  8
0
 10
28.9
 20
116.193
 11
29.1128
 21
116.014
  0
LINE
  8
0
 10
29.1128
 20
116.014
 11
29.2518
 21
115.774
  0
LINE
  8
0
 10
29.2518
 20
115.774
 11
29.3
 21
115.5
  0
LINE
  8
0
 10
29.3
 20
115.5
 11
29.2518
 21
115.226
  0
LINE
  8
0
 10
29.2518
 20
115.226
 11
29.1128
 21
114.986
  0
LINE
  8
0
 10
29.1128
 20
114.986
 11
28.9
 21
114.807
  0
LINE
  8
0
 10
28.9
 20
114.807
 11
28.6389
 21
114.712
  0
LINE
  8
0
 10
28.6389
 20
114.712
 11
28.3611
 21
114.712
  0
LINE
  8
0
 10
24.3611
 20
90.7121
 11
24.1
 21
90.8072
  0
LINE
  8
0
 10
24.1
 20
90.8072
 11
23.8872
 21
90.9858
  0
LINE
  8
0
 10
23.8872
 20
90.9858
 11
23.7482
 21
91.2264
  0
LINE
  8
0
 10
23.7482
 20
91.2264
 11
23.7
 21
91.5
  0
LINE
  8
0
 10
23.7
 20
91.5
 11
23.7482
 21
91.7736
  0
LINE
  8
0
 10
23.7482
 20
91.7736
 11
23.8872
 21
92.0142
  0
LINE
  8
0
 10
23.8872
 20
92.0142
 11
24.1
 21
92.1928
  0
LINE
  8
0
 10
24.1
 20
92.1928
 11
24.3611
 21
92.2878
  0
LINE
  8
0
 10
24.3611
 20
92.2878
 11
24.6389
 21
92.2878
  0
LINE
  8
0
 10
24.6389
 20
92.2878
 11
24.9
 21
92.1928
  0
LINE
  8
0
 10
24.9
 20
92.1928
 11
25.1128
 21
92.0142
  0
LINE
  8
0
 10
25.1128
 20
92.0142
 11
25.2518
 21
91.7736
  0
LINE
  8
0
 10
25.2518
 20
91.7736
 11
25.3
 21
91.5
  0
LINE
  8
0
 10
25.3
 20
91.5
 11
25.2518
 21
91.2264
  0
LINE
  8
0
 10
25.2518
 20
91.2264
 11
25.1128
 21
90.9858
  0
LINE
  8
0
 10
25.1128
 20
90.9858
 11
24.9
 21
90.8072
  0
LINE
  8
0
 10
24.9
 20
90.8072
 11
24.6389
 21
90.7121
  0
LINE
  8
0
 10
24.6389
 20
90.7121
 11
24.3611
 21
90.7121
  0
LINE
  8
0
 10
24.3611
 20
82.7121
 11
24.1
 21
82.8072
  0
LINE
  8
0
 10
24.1
 20
82.8072
 11
23.8872
 21
82.9858
  0
LINE
  8
0
 10
23.8872
 20
82.9858
 11
23.7482
 21
83.2264
  0
LINE
  8
0
 10
23.7482
 20
83.2264
 11
23.7
 21
83.5
  0
LINE
  8
0
 10
23.7
 20
83.5
 11
23.7482
 21
83.7736
  0
LINE
  8
0
 10
23.7482
 20
83.7736
 11
23.8872
 21
84.0142
  0
LINE
  8
0
 10
23.8872
 20
84.0142
 11
24.1
 21
84.1928
  0
LINE
  8
0
 10
24.1
 20
84.1928
 11
24.3611
 21
84.2878
  0
LINE
  8
0
 10
24.3611
 20
84.2878
 11
24.6389
 21
84.2878
  0
LINE
  8
0
 10
24.6389
 20
84.2878
 11
24.9
 21
84.1928
  0
LINE
  8
0
 10
24.9
 20
84.1928
 11
25.1128
 21
84.0142
  0
LINE
  8
0
 10
25.1128
 20
84.0142
 11
25.2518
 21
83.7736
  0
LINE
  8
0
 10
25.2518
 20
83.7736
 11
25.3
 21
83.5
  0
LINE
  8
0
 10
25.3
 20
83.5
 11
25.2518
 21
83.2264
  0
LINE
  8
0
 10
25.2518
 20
83.2264
 11
25.1128
 21
82.9858
  0
LINE
  8
0
 10
25.1128
 20
82.9858
 11
24.9
 21
82.8072
  0
LINE
  8
0
 10
24.9
 20
82.8072
 11
24.6389
 21
82.7121
  0
LINE
  8
0
 10
24.6389
 20
82.7121
 11
24.3611
 21
82.7121
  0
LINE
  8
0
 10
22.3611
 20
58.7121
 11
22.1
 21
58.8072
  0
LINE
  8
0
 10
22.1
 20
58.8072
 11
21.8872
 21
58.9858
  0
LINE
  8
0
 10
21.8872
 20
58.9858
 11
21.7482
 21
59.2264
  0
LINE
  8
0
 10
21.7482
 20
59.2264
 11
21.7
 21
59.5
  0
LINE
  8
0
 10
21.7
 20
59.5
 11
21.7482
 21
59.7736
  0
LINE
  8
0
 10
21.7482
 20
59.7736
 11
21.8872
 21
60.0142
  0
LINE
  8
0
 10
21.8872
 20
60.0142
 11
22.1
 21
60.1928
  0
LINE
  8
0
 10
22.1
 20
60.1928
 11
22.3611
 21
60.2878
  0
LINE
  8
0
 10
22.3611
 20
60.2878
 11
22.6389
 21
60.2878
  0
LINE
  8
0
 10
22.6389
 20
60.2878
 11
22.9
 21
60.1928
  0
LINE
  8
0
 10
22.9
 20
60.1928
 11
23.1128
 21
60.0142
  0
LINE
  8
0
 10
23.1128
 20
60.0142
 11
23.2518
 21
59.7736
  0
LINE
  8
0
 10
23.2518
 20
59.7736
 11
23.3
 21
59.5
  0
LINE
  8
0
 10
23.3
 20
59.5
 11
23.2518
 21
59.2264
  0
LINE
  8
0
 10
23.2518
 20
59.2264
 11
23.1128
 21
58.9858
  0
LINE
  8
0
 10
23.1128
 20
58.9858
 11
22.9
 21
58.8072
  0
LINE
  8
0
 10
22.9
 20
58.8072
 11
22.6389
 21
58.7121
  0
LINE
  8
0
 10
22.6389
 20
58.7121
 11
22.3611
 21
58.7121
  0
LINE
  8
0
 10
22.3611
 20
50.7121
 11
22.1
 21
50.8072
  0
LINE
  8
0
 10
22.1
 20
50.8072
 11
21.8872
 21
50.9858
  0
LINE
  8
0
 10
21.8872
 20
50.9858
 11
21.7482
 21
51.2264
  0
LINE
  8
0
 10
21.7482
 20
51.2264
 11
21.7
 21
51.5
  0
LINE
  8
0
 10
21.7
 20
51.5
 11
21.7482
 21
51.7736
  0
LINE
  8
0
 10
21.7482
 20
51.7736
 11
21.8872
 21
52.0142
  0
LINE
  8
0
 10
21.8872
 20
52.0142
 11
22.1
 21
52.1928
  0
LINE
  8
0
 10
22.1
 20
52.1928
 11
22.3611
 21
52.2878
  0
LINE
  8
0
 10
22.3611
 20
52.2878
 11
22.6389
 21
52.2878
  0
LINE
  8
0
 10
22.6389
 20
52.2878
 11
22.9
 21
52.1928
  0
LINE
  8
0
 10
22.9
 20
52.1928
 11
23.1128
 21
52.0142
  0
LINE
  8
0
 10
23.1128
 20
52.0142
 11
23.2518
 21
51.7736
  0
LINE
  8
0
 10
23.2518
 20
51.7736
 11
23.3
 21
51.5
  0
LINE
  8
0
 10
23.3
 20
51.5
 11
23.2518
 21
51.2264
  0
LINE
  8
0
 10
23.2518
 20
51.2264
 11
23.1128
 21
50.9858
  0
LINE
  8
0
 10
23.1128
 20
50.9858
 11
22.9
 21
50.8072
  0
LINE
  8
0
 10
22.9
 20
50.8072
 11
22.6389
 21
50.7121
  0
LINE
  8
0
 10
22.6389
 20
50.7121
 11
22.3611
 21
50.7121
  0
LINE
  8
0
 10
22.3611
 20
42.7121
 11
22.1
 21
42.8072
  0
LINE
  8
0
 10
22.1
 20
42.8072
 11
21.8872
 21
42.9858
  0
LINE
  8
0
 10
21.8872
 20
42.9858
 11
21.7482
 21
43.2264
  0
LINE
  8
0
 10
21.7482
 20
43.2264
 11
21.7
 21
43.5
  0
LINE
  8
0
 10
21.7
 20
43.5
 11
21.7482
 21
43.7736
  0
LINE
  8
0
 10
21.7482
 20
43.7736
 11
21.8872
 21
44.0142
  0
LINE
  8
0
 10
21.8872
 20
44.0142
 11
22.1
 21
44.1928
  0
LINE
  8
0
 10
22.1
 20
44.1928
 11
22.3611
 21
44.2878
  0
LINE
  8
0
 10
22.3611
 20
44.2878
 11
22.6389
 21
44.2878
  0
LINE
  8
0
 10
22.6389
 20
44.2878
 11
22.9
 21
44.1928
  0
LINE
  8
0
 10
22.9
 20
44.1928
 11
23.1128
 21
44.0142
  0
LINE
  8
0
 10
23.1128
 20
44.0142
 11
23.2518
 21
43.7736
  0
LINE
  8
0
 10
23.2518
 20
43.7736
 11
23.3
 21
43.5
  0
LINE
  8
0
 10
23.3
 20
43.5
 11
23.2518
 21
43.2264
  0
LINE
  8
0
 10
23.2518
 20
43.2264
 11
23.1128
 21
42.9858
  0
LINE
  8
0
 10
23.1128
 20
42.9858
 11
22.9
 21
42.8072
  0
LINE
  8
0
 10
22.9
 20
42.8072
 11
22.6389
 21
42.7121
  0
LINE
  8
0
 10
22.6389
 20
42.7121
 11
22.3611
 21
42.7121
  0
LINE
  8
0
 10
22.3611
 20
34.7121
 11
22.1
 21
34.8072
  0
LINE
  8
0
 10
22.1
 20
34.8072
 11
21.8872
 21
34.9858
  0
LINE
  8
0
 10
21.8872
 20
34.9858
 11
21.7482
 21
35.2264
  0
LINE
  8
0
 10
21.7482
 20
35.2264
 11
21.7
 21
35.5
  0
LINE
  8
0
 10
21.7
 20
35.5
 11
21.7482
 21
35.7736
  0
LINE
  8
0
 10
21.7482
 20
35.7736
 11
21.8872
 21
36.0142
  0
LINE
  8
0
 10
21.8872
 20
36.0142
 11
22.1
 21
36.1928
  0
LINE
  8
0
 10
22.1
 20
36.1928
 11
22.3611
 21
36.2878
  0
LINE
  8
0
 10
22.3611
 20
36.2878
 11
22.6389
 21
36.2878
  0
LINE
  8
0
 10
22.6389
 20
36.2878
 11
22.9
 21
36.1928
  0
LINE
  8
0
 10
22.9
 20
36.1928
 11
23.1128
 21
36.0142
  0
LINE
  8
0
 10
23.1128
 20
36.0142
 11
23.2518
 21
35.7736
  0
LINE
  8
0
 10
23.2518
 20
35.7736
 11
23.3
 21
35.5
  0
LINE
  8
0
 10
23.3
 20
35.5
 11
23.2518
 21
35.2264
  0
LINE
  8
0
 10
23.2518
 20
35.2264
 11
23.1128
 21
34.9858
  0
LINE
  8
0
 10
23.1128
 20
34.9858
 11
22.9
 21
34.8072
  0
LINE
  8
0
 10
22.9
 20
34.8072
 11
22.6389
 21
34.7121
  0
LINE
  8
0
 10
22.6389
 20
34.7121
 11
22.3611
 21
34.7121
  0
LINE
  8
0
 10
22.3611
 20
26.7121
 11
22.1
 21
26.8072
  0
LINE
  8
0
 10
22.1
 20
26.8072
 11
21.8872
 21
26.9858
  0
LINE
  8
0
 10
21.8872
 20
26.9858
 11
21.7482
 21
27.2264
  0
LINE
  8
0
 10
21.7482
 20
27.2264
 11
21.7
 21
27.5
  0
LINE
  8
0
 10
21.7
 20
27.5
 11
21.7482
 21
27.7736
  0
LINE
  8
0
 10
21.7482
 20
27.7736
 11
21.8872
 21
28.0142
  0
LINE
  8
0
 10
21.8872
 20
28.0142
 11
22.1
 21
28.1928
  0
LINE
  8
0
 10
22.1
 20
28.1928
 11
22.3611
 21
28.2878
  0
LINE
  8
0
 10
22.3611
 20
28.2878
 11
22.6389
 21
28.2878
  0
LINE
  8
0
 10
22.6389
 20
28.2878
 11
22.9
 21
28.1928
  0
LINE
  8
0
 10
22.9
 20
28.1928
 11
23.1128
 21
28.0142
  0
LINE
  8
0
 10
23.1128
 20
28.0142
 11
23.2518
 21
27.7736
  0
LINE
  8
0
 10
23.2518
 20
27.7736
 11
23.3
 21
27.5
  0
LINE
  8
0
 10
23.3
 20
27.5
 11
23.2518
 21
27.2264
  0
LINE
  8
0
 10
23.2518
 20
27.2264
 11
23.1128
 21
26.9858
  0
LINE
  8
0
 10
23.1128
 20
26.9858
 11
22.9
 21
26.8072
  0
LINE
  8
0
 10
22.9
 20
26.8072
 11
22.6389
 21
26.7121
  0
LINE
  8
0
 10
22.6389
 20
26.7121
 11
22.3611
 21
26.7121
  0
LINE
  8
0
 10
22.3611
 20
18.7121
 11
22.1
 21
18.8072
  0
LINE
  8
0
 10
22.1
 20
18.8072
 11
21.8872
 21
18.9858
  0
LINE
  8
0
 10
21.8872
 20
18.9858
 11
21.7482
 21
19.2264
  0
LINE
  8
0
 10
21.7482
 20
19.2264
 11
21.7
 21
19.5
  0
LINE
  8
0
 10
21.7
 20
19.5
 11
21.7482
 21
19.7736
  0
LINE
  8
0
 10
21.7482
 20
19.7736
 11
21.8872
 21
20.0142
  0
LINE
  8
0
 10
21.8872
 20
20.0142
 11
22.1
 21
20.1928
  0
LINE
  8
0
 10
22.1
 20
20.1928
 11
22.3611
 21
20.2878
  0
LINE
  8
0
 10
22.3611
 20
20.2878
 11
22.6389
 21
20.2878
  0
LINE
  8
0
 10
22.6389
 20
20.2878
 11
22.9
 21
20.1928
  0
LINE
  8
0
 10
22.9
 20
20.1928
 11
23.1128
 21
20.0142
  0
LINE
  8
0
 10
23.1128
 20
20.0142
 11
23.2518
 21
19.7736
  0
LINE
  8
0
 10
23.2518
 20
19.7736
 11
23.3
 21
19.5
  0
LINE
  8
0
 10
23.3
 20
19.5
 11
23.2518
 21
19.2264
  0
LINE
  8
0
 10
23.2518
 20
19.2264
 11
23.1128
 21
18.9858
  0
LINE
  8
0
 10
23.1128
 20
18.9858
 11
22.9
 21
18.8072
  0
LINE
  8
0
 10
22.9
 20
18.8072
 11
22.6389
 21
18.7121
  0
LINE
  8
0
 10
22.6389
 20
18.7121
 11
22.3611
 21
18.7121
  0
ENDSEC
  0
SECTION
  2
OBJECTS
  0
DICTIONARY
  0
ENDSEC
  0
EOF
