  0
SECTION
  2
BLOCKS
  0
ENDSEC
  0
SECTION
  2
ENTITIES
  0
LINE
  8
0
 10
69
 20
640
 11
0
 21
640
  0
LINE
  8
0
 10
0
 20
640
 11
0
 21
0
  0
LINE
  8
0
 10
0
 20
0
 11
69
 21
0
  0
LINE
  8
0
 10
69
 20
0
 11
69
 21
640
  0
LINE
  8
0
 10
21.6111
 20
571.462
 11
21.35
 21
571.557
  0
LINE
  8
0
 10
21.35
 20
571.557
 11
21.1372
 21
571.736
  0
LINE
  8
0
 10
21.1372
 20
571.736
 11
20.9982
 21
571.976
  0
LINE
  8
0
 10
20.9982
 20
571.976
 11
20.95
 21
572.25
  0
LINE
  8
0
 10
20.95
 20
572.25
 11
20.9982
 21
572.524
  0
LINE
  8
0
 10
20.9982
 20
572.524
 11
21.1372
 21
572.764
  0
LINE
  8
0
 10
21.1372
 20
572.764
 11
21.35
 21
572.943
  0
LINE
  8
0
 10
21.35
 20
572.943
 11
21.6111
 21
573.038
  0
LINE
  8
0
 10
21.6111
 20
573.038
 11
21.8889
 21
573.038
  0
LINE
  8
0
 10
21.8889
 20
573.038
 11
22.15
 21
572.943
  0
LINE
  8
0
 10
22.15
 20
572.943
 11
22.3628
 21
572.764
  0
LINE
  8
0
 10
22.3628
 20
572.764
 11
22.5018
 21
572.524
  0
LINE
  8
0
 10
22.5018
 20
572.524
 11
22.55
 21
572.25
  0
LINE
  8
0
 10
22.55
 20
572.25
 11
22.5018
 21
571.976
  0
LINE
  8
0
 10
22.5018
 20
571.976
 11
22.3628
 21
571.736
  0
LINE
  8
0
 10
22.3628
 20
571.736
 11
22.15
 21
571.557
  0
LINE
  8
0
 10
22.15
 20
571.557
 11
21.8889
 21
571.462
  0
LINE
  8
0
 10
21.8889
 20
571.462
 11
21.6111
 21
571.462
  0
LINE
  8
0
 10
45.6111
 20
571.462
 11
45.35
 21
571.557
  0
LINE
  8
0
 10
45.35
 20
571.557
 11
45.1372
 21
571.736
  0
LINE
  8
0
 10
45.1372
 20
571.736
 11
44.9982
 21
571.976
  0
LINE
  8
0
 10
44.9982
 20
571.976
 11
44.95
 21
572.25
  0
LINE
  8
0
 10
44.95
 20
572.25
 11
44.9982
 21
572.524
  0
LINE
  8
0
 10
44.9982
 20
572.524
 11
45.1372
 21
572.764
  0
LINE
  8
0
 10
45.1372
 20
572.764
 11
45.35
 21
572.943
  0
LINE
  8
0
 10
45.35
 20
572.943
 11
45.6111
 21
573.038
  0
LINE
  8
0
 10
45.6111
 20
573.038
 11
45.8889
 21
573.038
  0
LINE
  8
0
 10
45.8889
 20
573.038
 11
46.15
 21
572.943
  0
LINE
  8
0
 10
46.15
 20
572.943
 11
46.3628
 21
572.764
  0
LINE
  8
0
 10
46.3628
 20
572.764
 11
46.5018
 21
572.524
  0
LINE
  8
0
 10
46.5018
 20
572.524
 11
46.55
 21
572.25
  0
LINE
  8
0
 10
46.55
 20
572.25
 11
46.5018
 21
571.976
  0
LINE
  8
0
 10
46.5018
 20
571.976
 11
46.3628
 21
571.736
  0
LINE
  8
0
 10
46.3628
 20
571.736
 11
46.15
 21
571.557
  0
LINE
  8
0
 10
46.15
 20
571.557
 11
45.8889
 21
571.462
  0
LINE
  8
0
 10
45.8889
 20
571.462
 11
45.6111
 21
571.462
  0
LINE
  8
0
 10
49.6111
 20
560.795
 11
49.35
 21
560.89
  0
LINE
  8
0
 10
49.35
 20
560.89
 11
49.1372
 21
561.069
  0
LINE
  8
0
 10
49.1372
 20
561.069
 11
48.9982
 21
561.31
  0
LINE
  8
0
 10
48.9982
 20
561.31
 11
48.95
 21
561.583
  0
LINE
  8
0
 10
48.95
 20
561.583
 11
48.9982
 21
561.857
  0
LINE
  8
0
 10
48.9982
 20
561.857
 11
49.1372
 21
562.098
  0
LINE
  8
0
 10
49.1372
 20
562.098
 11
49.35
 21
562.276
  0
LINE
  8
0
 10
49.35
 20
562.276
 11
49.6111
 21
562.371
  0
LINE
  8
0
 10
49.6111
 20
562.371
 11
49.8889
 21
562.371
  0
LINE
  8
0
 10
49.8889
 20
562.371
 11
50.15
 21
562.276
  0
LINE
  8
0
 10
50.15
 20
562.276
 11
50.3628
 21
562.098
  0
LINE
  8
0
 10
50.3628
 20
562.098
 11
50.5018
 21
561.857
  0
LINE
  8
0
 10
50.5018
 20
561.857
 11
50.55
 21
561.583
  0
LINE
  8
0
 10
50.55
 20
561.583
 11
50.5018
 21
561.31
  0
LINE
  8
0
 10
50.5018
 20
561.31
 11
50.3628
 21
561.069
  0
LINE
  8
0
 10
50.3628
 20
561.069
 11
50.15
 21
560.89
  0
LINE
  8
0
 10
50.15
 20
560.89
 11
49.8889
 21
560.795
  0
LINE
  8
0
 10
49.8889
 20
560.795
 11
49.6111
 21
560.795
  0
LINE
  8
0
 10
27.6111
 20
560.795
 11
27.35
 21
560.89
  0
LINE
  8
0
 10
27.35
 20
560.89
 11
27.1372
 21
561.069
  0
LINE
  8
0
 10
27.1372
 20
561.069
 11
26.9982
 21
561.31
  0
LINE
  8
0
 10
26.9982
 20
561.31
 11
26.95
 21
561.583
  0
LINE
  8
0
 10
26.95
 20
561.583
 11
26.9982
 21
561.857
  0
LINE
  8
0
 10
26.9982
 20
561.857
 11
27.1372
 21
562.098
  0
LINE
  8
0
 10
27.1372
 20
562.098
 11
27.35
 21
562.276
  0
LINE
  8
0
 10
27.35
 20
562.276
 11
27.6111
 21
562.371
  0
LINE
  8
0
 10
27.6111
 20
562.371
 11
27.8889
 21
562.371
  0
LINE
  8
0
 10
27.8889
 20
562.371
 11
28.15
 21
562.276
  0
LINE
  8
0
 10
28.15
 20
562.276
 11
28.3628
 21
562.098
  0
LINE
  8
0
 10
28.3628
 20
562.098
 11
28.5018
 21
561.857
  0
LINE
  8
0
 10
28.5018
 20
561.857
 11
28.55
 21
561.583
  0
LINE
  8
0
 10
28.55
 20
561.583
 11
28.5018
 21
561.31
  0
LINE
  8
0
 10
28.5018
 20
561.31
 11
28.3628
 21
561.069
  0
LINE
  8
0
 10
28.3628
 20
561.069
 11
28.15
 21
560.89
  0
LINE
  8
0
 10
28.15
 20
560.89
 11
27.8889
 21
560.795
  0
LINE
  8
0
 10
27.8889
 20
560.795
 11
27.6111
 21
560.795
  0
LINE
  8
0
 10
23.6111
 20
550.129
 11
23.35
 21
550.224
  0
LINE
  8
0
 10
23.35
 20
550.224
 11
23.1372
 21
550.402
  0
LINE
  8
0
 10
23.1372
 20
550.402
 11
22.9982
 21
550.643
  0
LINE
  8
0
 10
22.9982
 20
550.643
 11
22.95
 21
550.917
  0
LINE
  8
0
 10
22.95
 20
550.917
 11
22.9982
 21
551.19
  0
LINE
  8
0
 10
22.9982
 20
551.19
 11
23.1372
 21
551.431
  0
LINE
  8
0
 10
23.1372
 20
551.431
 11
23.35
 21
551.609
  0
LINE
  8
0
 10
23.35
 20
551.609
 11
23.6111
 21
551.704
  0
LINE
  8
0
 10
23.6111
 20
551.704
 11
23.8889
 21
551.704
  0
LINE
  8
0
 10
23.8889
 20
551.704
 11
24.15
 21
551.609
  0
LINE
  8
0
 10
24.15
 20
551.609
 11
24.3628
 21
551.431
  0
LINE
  8
0
 10
24.3628
 20
551.431
 11
24.5018
 21
551.19
  0
LINE
  8
0
 10
24.5018
 20
551.19
 11
24.55
 21
550.917
  0
LINE
  8
0
 10
24.55
 20
550.917
 11
24.5018
 21
550.643
  0
LINE
  8
0
 10
24.5018
 20
550.643
 11
24.3628
 21
550.402
  0
LINE
  8
0
 10
24.3628
 20
550.402
 11
24.15
 21
550.224
  0
LINE
  8
0
 10
24.15
 20
550.224
 11
23.8889
 21
550.129
  0
LINE
  8
0
 10
23.8889
 20
550.129
 11
23.6111
 21
550.129
  0
LINE
  8
0
 10
47.6111
 20
550.129
 11
47.35
 21
550.224
  0
LINE
  8
0
 10
47.35
 20
550.224
 11
47.1372
 21
550.402
  0
LINE
  8
0
 10
47.1372
 20
550.402
 11
46.9982
 21
550.643
  0
LINE
  8
0
 10
46.9982
 20
550.643
 11
46.95
 21
550.917
  0
LINE
  8
0
 10
46.95
 20
550.917
 11
46.9982
 21
551.19
  0
LINE
  8
0
 10
46.9982
 20
551.19
 11
47.1372
 21
551.431
  0
LINE
  8
0
 10
47.1372
 20
551.431
 11
47.35
 21
551.609
  0
LINE
  8
0
 10
47.35
 20
551.609
 11
47.6111
 21
551.704
  0
LINE
  8
0
 10
47.6111
 20
551.704
 11
47.8889
 21
551.704
  0
LINE
  8
0
 10
47.8889
 20
551.704
 11
48.15
 21
551.609
  0
LINE
  8
0
 10
48.15
 20
551.609
 11
48.3628
 21
551.431
  0
LINE
  8
0
 10
48.3628
 20
551.431
 11
48.5018
 21
551.19
  0
LINE
  8
0
 10
48.5018
 20
551.19
 11
48.55
 21
550.917
  0
LINE
  8
0
 10
48.55
 20
550.917
 11
48.5018
 21
550.643
  0
LINE
  8
0
 10
48.5018
 20
550.643
 11
48.3628
 21
550.402
  0
LINE
  8
0
 10
48.3628
 20
550.402
 11
48.15
 21
550.224
  0
LINE
  8
0
 10
48.15
 20
550.224
 11
47.8889
 21
550.129
  0
LINE
  8
0
 10
47.8889
 20
550.129
 11
47.6111
 21
550.129
  0
LINE
  8
0
 10
21.6111
 20
539.462
 11
21.35
 21
539.557
  0
LINE
  8
0
 10
21.35
 20
539.557
 11
21.1372
 21
539.736
  0
LINE
  8
0
 10
21.1372
 20
539.736
 11
20.9982
 21
539.976
  0
LINE
  8
0
 10
20.9982
 20
539.976
 11
20.95
 21
540.25
  0
LINE
  8
0
 10
20.95
 20
540.25
 11
20.9982
 21
540.524
  0
LINE
  8
0
 10
20.9982
 20
540.524
 11
21.1372
 21
540.764
  0
LINE
  8
0
 10
21.1372
 20
540.764
 11
21.35
 21
540.943
  0
LINE
  8
0
 10
21.35
 20
540.943
 11
21.6111
 21
541.038
  0
LINE
  8
0
 10
21.6111
 20
541.038
 11
21.8889
 21
541.038
  0
LINE
  8
0
 10
21.8889
 20
541.038
 11
22.15
 21
540.943
  0
LINE
  8
0
 10
22.15
 20
540.943
 11
22.3628
 21
540.764
  0
LINE
  8
0
 10
22.3628
 20
540.764
 11
22.5018
 21
540.524
  0
LINE
  8
0
 10
22.5018
 20
540.524
 11
22.55
 21
540.25
  0
LINE
  8
0
 10
22.55
 20
540.25
 11
22.5018
 21
539.976
  0
LINE
  8
0
 10
22.5018
 20
539.976
 11
22.3628
 21
539.736
  0
LINE
  8
0
 10
22.3628
 20
539.736
 11
22.15
 21
539.557
  0
LINE
  8
0
 10
22.15
 20
539.557
 11
21.8889
 21
539.462
  0
LINE
  8
0
 10
21.8889
 20
539.462
 11
21.6111
 21
539.462
  0
LINE
  8
0
 10
45.6111
 20
539.462
 11
45.35
 21
539.557
  0
LINE
  8
0
 10
45.35
 20
539.557
 11
45.1372
 21
539.736
  0
LINE
  8
0
 10
45.1372
 20
539.736
 11
44.9982
 21
539.976
  0
LINE
  8
0
 10
44.9982
 20
539.976
 11
44.95
 21
540.25
  0
LINE
  8
0
 10
44.95
 20
540.25
 11
44.9982
 21
540.524
  0
LINE
  8
0
 10
44.9982
 20
540.524
 11
45.1372
 21
540.764
  0
LINE
  8
0
 10
45.1372
 20
540.764
 11
45.35
 21
540.943
  0
LINE
  8
0
 10
45.35
 20
540.943
 11
45.6111
 21
541.038
  0
LINE
  8
0
 10
45.6111
 20
541.038
 11
45.8889
 21
541.038
  0
LINE
  8
0
 10
45.8889
 20
541.038
 11
46.15
 21
540.943
  0
LINE
  8
0
 10
46.15
 20
540.943
 11
46.3628
 21
540.764
  0
LINE
  8
0
 10
46.3628
 20
540.764
 11
46.5018
 21
540.524
  0
LINE
  8
0
 10
46.5018
 20
540.524
 11
46.55
 21
540.25
  0
LINE
  8
0
 10
46.55
 20
540.25
 11
46.5018
 21
539.976
  0
LINE
  8
0
 10
46.5018
 20
539.976
 11
46.3628
 21
539.736
  0
LINE
  8
0
 10
46.3628
 20
539.736
 11
46.15
 21
539.557
  0
LINE
  8
0
 10
46.15
 20
539.557
 11
45.8889
 21
539.462
  0
LINE
  8
0
 10
45.8889
 20
539.462
 11
45.6111
 21
539.462
  0
LINE
  8
0
 10
51.6111
 20
531.462
 11
51.35
 21
531.557
  0
LINE
  8
0
 10
51.35
 20
531.557
 11
51.1372
 21
531.736
  0
LINE
  8
0
 10
51.1372
 20
531.736
 11
50.9982
 21
531.976
  0
LINE
  8
0
 10
50.9982
 20
531.976
 11
50.95
 21
532.25
  0
LINE
  8
0
 10
50.95
 20
532.25
 11
50.9982
 21
532.524
  0
LINE
  8
0
 10
50.9982
 20
532.524
 11
51.1372
 21
532.764
  0
LINE
  8
0
 10
51.1372
 20
532.764
 11
51.35
 21
532.943
  0
LINE
  8
0
 10
51.35
 20
532.943
 11
51.6111
 21
533.038
  0
LINE
  8
0
 10
51.6111
 20
533.038
 11
51.8889
 21
533.038
  0
LINE
  8
0
 10
51.8889
 20
533.038
 11
52.15
 21
532.943
  0
LINE
  8
0
 10
52.15
 20
532.943
 11
52.3628
 21
532.764
  0
LINE
  8
0
 10
52.3628
 20
532.764
 11
52.5018
 21
532.524
  0
LINE
  8
0
 10
52.5018
 20
532.524
 11
52.55
 21
532.25
  0
LINE
  8
0
 10
52.55
 20
532.25
 11
52.5018
 21
531.976
  0
LINE
  8
0
 10
52.5018
 20
531.976
 11
52.3628
 21
531.736
  0
LINE
  8
0
 10
52.3628
 20
531.736
 11
52.15
 21
531.557
  0
LINE
  8
0
 10
52.15
 20
531.557
 11
51.8889
 21
531.462
  0
LINE
  8
0
 10
51.8889
 20
531.462
 11
51.6111
 21
531.462
  0
LINE
  8
0
 10
31.6111
 20
531.462
 11
31.35
 21
531.557
  0
LINE
  8
0
 10
31.35
 20
531.557
 11
31.1372
 21
531.736
  0
LINE
  8
0
 10
31.1372
 20
531.736
 11
30.9982
 21
531.976
  0
LINE
  8
0
 10
30.9982
 20
531.976
 11
30.95
 21
532.25
  0
LINE
  8
0
 10
30.95
 20
532.25
 11
30.9982
 21
532.524
  0
LINE
  8
0
 10
30.9982
 20
532.524
 11
31.1372
 21
532.764
  0
LINE
  8
0
 10
31.1372
 20
532.764
 11
31.35
 21
532.943
  0
LINE
  8
0
 10
31.35
 20
532.943
 11
31.6111
 21
533.038
  0
LINE
  8
0
 10
31.6111
 20
533.038
 11
31.8889
 21
533.038
  0
LINE
  8
0
 10
31.8889
 20
533.038
 11
32.15
 21
532.943
  0
LINE
  8
0
 10
32.15
 20
532.943
 11
32.3628
 21
532.764
  0
LINE
  8
0
 10
32.3628
 20
532.764
 11
32.5018
 21
532.524
  0
LINE
  8
0
 10
32.5018
 20
532.524
 11
32.55
 21
532.25
  0
LINE
  8
0
 10
32.55
 20
532.25
 11
32.5018
 21
531.976
  0
LINE
  8
0
 10
32.5018
 20
531.976
 11
32.3628
 21
531.736
  0
LINE
  8
0
 10
32.3628
 20
531.736
 11
32.15
 21
531.557
  0
LINE
  8
0
 10
32.15
 20
531.557
 11
31.8889
 21
531.462
  0
LINE
  8
0
 10
31.8889
 20
531.462
 11
31.6111
 21
531.462
  0
LINE
  8
0
 10
51.6111
 20
499.462
 11
51.35
 21
499.557
  0
LINE
  8
0
 10
51.35
 20
499.557
 11
51.1372
 21
499.736
  0
LINE
  8
0
 10
51.1372
 20
499.736
 11
50.9982
 21
499.976
  0
LINE
  8
0
 10
50.9982
 20
499.976
 11
50.95
 21
500.25
  0
LINE
  8
0
 10
50.95
 20
500.25
 11
50.9982
 21
500.524
  0
LINE
  8
0
 10
50.9982
 20
500.524
 11
51.1372
 21
500.764
  0
LINE
  8
0
 10
51.1372
 20
500.764
 11
51.35
 21
500.943
  0
LINE
  8
0
 10
51.35
 20
500.943
 11
51.6111
 21
501.038
  0
LINE
  8
0
 10
51.6111
 20
501.038
 11
51.8889
 21
501.038
  0
LINE
  8
0
 10
51.8889
 20
501.038
 11
52.15
 21
500.943
  0
LINE
  8
0
 10
52.15
 20
500.943
 11
52.3628
 21
500.764
  0
LINE
  8
0
 10
52.3628
 20
500.764
 11
52.5018
 21
500.524
  0
LINE
  8
0
 10
52.5018
 20
500.524
 11
52.55
 21
500.25
  0
LINE
  8
0
 10
52.55
 20
500.25
 11
52.5018
 21
499.976
  0
LINE
  8
0
 10
52.5018
 20
499.976
 11
52.3628
 21
499.736
  0
LINE
  8
0
 10
52.3628
 20
499.736
 11
52.15
 21
499.557
  0
LINE
  8
0
 10
52.15
 20
499.557
 11
51.8889
 21
499.462
  0
LINE
  8
0
 10
51.8889
 20
499.462
 11
51.6111
 21
499.462
  0
LINE
  8
0
 10
31.6111
 20
499.462
 11
31.35
 21
499.557
  0
LINE
  8
0
 10
31.35
 20
499.557
 11
31.1372
 21
499.736
  0
LINE
  8
0
 10
31.1372
 20
499.736
 11
30.9982
 21
499.976
  0
LINE
  8
0
 10
30.9982
 20
499.976
 11
30.95
 21
500.25
  0
LINE
  8
0
 10
30.95
 20
500.25
 11
30.9982
 21
500.524
  0
LINE
  8
0
 10
30.9982
 20
500.524
 11
31.1372
 21
500.764
  0
LINE
  8
0
 10
31.1372
 20
500.764
 11
31.35
 21
500.943
  0
LINE
  8
0
 10
31.35
 20
500.943
 11
31.6111
 21
501.038
  0
LINE
  8
0
 10
31.6111
 20
501.038
 11
31.8889
 21
501.038
  0
LINE
  8
0
 10
31.8889
 20
501.038
 11
32.15
 21
500.943
  0
LINE
  8
0
 10
32.15
 20
500.943
 11
32.3628
 21
500.764
  0
LINE
  8
0
 10
32.3628
 20
500.764
 11
32.5018
 21
500.524
  0
LINE
  8
0
 10
32.5018
 20
500.524
 11
32.55
 21
500.25
  0
LINE
  8
0
 10
32.55
 20
500.25
 11
32.5018
 21
499.976
  0
LINE
  8
0
 10
32.5018
 20
499.976
 11
32.3628
 21
499.736
  0
LINE
  8
0
 10
32.3628
 20
499.736
 11
32.15
 21
499.557
  0
LINE
  8
0
 10
32.15
 20
499.557
 11
31.8889
 21
499.462
  0
LINE
  8
0
 10
31.8889
 20
499.462
 11
31.6111
 21
499.462
  0
LINE
  8
0
 10
51.6111
 20
491.462
 11
51.35
 21
491.557
  0
LINE
  8
0
 10
51.35
 20
491.557
 11
51.1372
 21
491.736
  0
LINE
  8
0
 10
51.1372
 20
491.736
 11
50.9982
 21
491.976
  0
LINE
  8
0
 10
50.9982
 20
491.976
 11
50.95
 21
492.25
  0
LINE
  8
0
 10
50.95
 20
492.25
 11
50.9982
 21
492.524
  0
LINE
  8
0
 10
50.9982
 20
492.524
 11
51.1372
 21
492.764
  0
LINE
  8
0
 10
51.1372
 20
492.764
 11
51.35
 21
492.943
  0
LINE
  8
0
 10
51.35
 20
492.943
 11
51.6111
 21
493.038
  0
LINE
  8
0
 10
51.6111
 20
493.038
 11
51.8889
 21
493.038
  0
LINE
  8
0
 10
51.8889
 20
493.038
 11
52.15
 21
492.943
  0
LINE
  8
0
 10
52.15
 20
492.943
 11
52.3628
 21
492.764
  0
LINE
  8
0
 10
52.3628
 20
492.764
 11
52.5018
 21
492.524
  0
LINE
  8
0
 10
52.5018
 20
492.524
 11
52.55
 21
492.25
  0
LINE
  8
0
 10
52.55
 20
492.25
 11
52.5018
 21
491.976
  0
LINE
  8
0
 10
52.5018
 20
491.976
 11
52.3628
 21
491.736
  0
LINE
  8
0
 10
52.3628
 20
491.736
 11
52.15
 21
491.557
  0
LINE
  8
0
 10
52.15
 20
491.557
 11
51.8889
 21
491.462
  0
LINE
  8
0
 10
51.8889
 20
491.462
 11
51.6111
 21
491.462
  0
LINE
  8
0
 10
31.6111
 20
491.462
 11
31.35
 21
491.557
  0
LINE
  8
0
 10
31.35
 20
491.557
 11
31.1372
 21
491.736
  0
LINE
  8
0
 10
31.1372
 20
491.736
 11
30.9982
 21
491.976
  0
LINE
  8
0
 10
30.9982
 20
491.976
 11
30.95
 21
492.25
  0
LINE
  8
0
 10
30.95
 20
492.25
 11
30.9982
 21
492.524
  0
LINE
  8
0
 10
30.9982
 20
492.524
 11
31.1372
 21
492.764
  0
LINE
  8
0
 10
31.1372
 20
492.764
 11
31.35
 21
492.943
  0
LINE
  8
0
 10
31.35
 20
492.943
 11
31.6111
 21
493.038
  0
LINE
  8
0
 10
31.6111
 20
493.038
 11
31.8889
 21
493.038
  0
LINE
  8
0
 10
31.8889
 20
493.038
 11
32.15
 21
492.943
  0
LINE
  8
0
 10
32.15
 20
492.943
 11
32.3628
 21
492.764
  0
LINE
  8
0
 10
32.3628
 20
492.764
 11
32.5018
 21
492.524
  0
LINE
  8
0
 10
32.5018
 20
492.524
 11
32.55
 21
492.25
  0
LINE
  8
0
 10
32.55
 20
492.25
 11
32.5018
 21
491.976
  0
LINE
  8
0
 10
32.5018
 20
491.976
 11
32.3628
 21
491.736
  0
LINE
  8
0
 10
32.3628
 20
491.736
 11
32.15
 21
491.557
  0
LINE
  8
0
 10
32.15
 20
491.557
 11
31.8889
 21
491.462
  0
LINE
  8
0
 10
31.8889
 20
491.462
 11
31.6111
 21
491.462
  0
LINE
  8
0
 10
45.6111
 20
475.462
 11
45.35
 21
475.557
  0
LINE
  8
0
 10
45.35
 20
475.557
 11
45.1372
 21
475.736
  0
LINE
  8
0
 10
45.1372
 20
475.736
 11
44.9982
 21
475.976
  0
LINE
  8
0
 10
44.9982
 20
475.976
 11
44.95
 21
476.25
  0
LINE
  8
0
 10
44.95
 20
476.25
 11
44.9982
 21
476.524
  0
LINE
  8
0
 10
44.9982
 20
476.524
 11
45.1372
 21
476.764
  0
LINE
  8
0
 10
45.1372
 20
476.764
 11
45.35
 21
476.943
  0
LINE
  8
0
 10
45.35
 20
476.943
 11
45.6111
 21
477.038
  0
LINE
  8
0
 10
45.6111
 20
477.038
 11
45.8889
 21
477.038
  0
LINE
  8
0
 10
45.8889
 20
477.038
 11
46.15
 21
476.943
  0
LINE
  8
0
 10
46.15
 20
476.943
 11
46.3628
 21
476.764
  0
LINE
  8
0
 10
46.3628
 20
476.764
 11
46.5018
 21
476.524
  0
LINE
  8
0
 10
46.5018
 20
476.524
 11
46.55
 21
476.25
  0
LINE
  8
0
 10
46.55
 20
476.25
 11
46.5018
 21
475.976
  0
LINE
  8
0
 10
46.5018
 20
475.976
 11
46.3628
 21
475.736
  0
LINE
  8
0
 10
46.3628
 20
475.736
 11
46.15
 21
475.557
  0
LINE
  8
0
 10
46.15
 20
475.557
 11
45.8889
 21
475.462
  0
LINE
  8
0
 10
45.8889
 20
475.462
 11
45.6111
 21
475.462
  0
LINE
  8
0
 10
21.6111
 20
475.462
 11
21.35
 21
475.557
  0
LINE
  8
0
 10
21.35
 20
475.557
 11
21.1372
 21
475.736
  0
LINE
  8
0
 10
21.1372
 20
475.736
 11
20.9982
 21
475.976
  0
LINE
  8
0
 10
20.9982
 20
475.976
 11
20.95
 21
476.25
  0
LINE
  8
0
 10
20.95
 20
476.25
 11
20.9982
 21
476.524
  0
LINE
  8
0
 10
20.9982
 20
476.524
 11
21.1372
 21
476.764
  0
LINE
  8
0
 10
21.1372
 20
476.764
 11
21.35
 21
476.943
  0
LINE
  8
0
 10
21.35
 20
476.943
 11
21.6111
 21
477.038
  0
LINE
  8
0
 10
21.6111
 20
477.038
 11
21.8889
 21
477.038
  0
LINE
  8
0
 10
21.8889
 20
477.038
 11
22.15
 21
476.943
  0
LINE
  8
0
 10
22.15
 20
476.943
 11
22.3628
 21
476.764
  0
LINE
  8
0
 10
22.3628
 20
476.764
 11
22.5018
 21
476.524
  0
LINE
  8
0
 10
22.5018
 20
476.524
 11
22.55
 21
476.25
  0
LINE
  8
0
 10
22.55
 20
476.25
 11
22.5018
 21
475.976
  0
LINE
  8
0
 10
22.5018
 20
475.976
 11
22.3628
 21
475.736
  0
LINE
  8
0
 10
22.3628
 20
475.736
 11
22.15
 21
475.557
  0
LINE
  8
0
 10
22.15
 20
475.557
 11
21.8889
 21
475.462
  0
LINE
  8
0
 10
21.8889
 20
475.462
 11
21.6111
 21
475.462
  0
LINE
  8
0
 10
27.6111
 20
464.795
 11
27.35
 21
464.89
  0
LINE
  8
0
 10
27.35
 20
464.89
 11
27.1372
 21
465.069
  0
LINE
  8
0
 10
27.1372
 20
465.069
 11
26.9982
 21
465.31
  0
LINE
  8
0
 10
26.9982
 20
465.31
 11
26.95
 21
465.583
  0
LINE
  8
0
 10
26.95
 20
465.583
 11
26.9982
 21
465.857
  0
LINE
  8
0
 10
26.9982
 20
465.857
 11
27.1372
 21
466.098
  0
LINE
  8
0
 10
27.1372
 20
466.098
 11
27.35
 21
466.276
  0
LINE
  8
0
 10
27.35
 20
466.276
 11
27.6111
 21
466.371
  0
LINE
  8
0
 10
27.6111
 20
466.371
 11
27.8889
 21
466.371
  0
LINE
  8
0
 10
27.8889
 20
466.371
 11
28.15
 21
466.276
  0
LINE
  8
0
 10
28.15
 20
466.276
 11
28.3628
 21
466.098
  0
LINE
  8
0
 10
28.3628
 20
466.098
 11
28.5018
 21
465.857
  0
LINE
  8
0
 10
28.5018
 20
465.857
 11
28.55
 21
465.583
  0
LINE
  8
0
 10
28.55
 20
465.583
 11
28.5018
 21
465.31
  0
LINE
  8
0
 10
28.5018
 20
465.31
 11
28.3628
 21
465.069
  0
LINE
  8
0
 10
28.3628
 20
465.069
 11
28.15
 21
464.89
  0
LINE
  8
0
 10
28.15
 20
464.89
 11
27.8889
 21
464.795
  0
LINE
  8
0
 10
27.8889
 20
464.795
 11
27.6111
 21
464.795
  0
LINE
  8
0
 10
49.6111
 20
464.795
 11
49.35
 21
464.89
  0
LINE
  8
0
 10
49.35
 20
464.89
 11
49.1372
 21
465.069
  0
LINE
  8
0
 10
49.1372
 20
465.069
 11
48.9982
 21
465.31
  0
LINE
  8
0
 10
48.9982
 20
465.31
 11
48.95
 21
465.583
  0
LINE
  8
0
 10
48.95
 20
465.583
 11
48.9982
 21
465.857
  0
LINE
  8
0
 10
48.9982
 20
465.857
 11
49.1372
 21
466.098
  0
LINE
  8
0
 10
49.1372
 20
466.098
 11
49.35
 21
466.276
  0
LINE
  8
0
 10
49.35
 20
466.276
 11
49.6111
 21
466.371
  0
LINE
  8
0
 10
49.6111
 20
466.371
 11
49.8889
 21
466.371
  0
LINE
  8
0
 10
49.8889
 20
466.371
 11
50.15
 21
466.276
  0
LINE
  8
0
 10
50.15
 20
466.276
 11
50.3628
 21
466.098
  0
LINE
  8
0
 10
50.3628
 20
466.098
 11
50.5018
 21
465.857
  0
LINE
  8
0
 10
50.5018
 20
465.857
 11
50.55
 21
465.583
  0
LINE
  8
0
 10
50.55
 20
465.583
 11
50.5018
 21
465.31
  0
LINE
  8
0
 10
50.5018
 20
465.31
 11
50.3628
 21
465.069
  0
LINE
  8
0
 10
50.3628
 20
465.069
 11
50.15
 21
464.89
  0
LINE
  8
0
 10
50.15
 20
464.89
 11
49.8889
 21
464.795
  0
LINE
  8
0
 10
49.8889
 20
464.795
 11
49.6111
 21
464.795
  0
LINE
  8
0
 10
47.6111
 20
454.129
 11
47.35
 21
454.224
  0
LINE
  8
0
 10
47.35
 20
454.224
 11
47.1372
 21
454.402
  0
LINE
  8
0
 10
47.1372
 20
454.402
 11
46.9982
 21
454.643
  0
LINE
  8
0
 10
46.9982
 20
454.643
 11
46.95
 21
454.917
  0
LINE
  8
0
 10
46.95
 20
454.917
 11
46.9982
 21
455.19
  0
LINE
  8
0
 10
46.9982
 20
455.19
 11
47.1372
 21
455.431
  0
LINE
  8
0
 10
47.1372
 20
455.431
 11
47.35
 21
455.609
  0
LINE
  8
0
 10
47.35
 20
455.609
 11
47.6111
 21
455.704
  0
LINE
  8
0
 10
47.6111
 20
455.704
 11
47.8889
 21
455.704
  0
LINE
  8
0
 10
47.8889
 20
455.704
 11
48.15
 21
455.609
  0
LINE
  8
0
 10
48.15
 20
455.609
 11
48.3628
 21
455.431
  0
LINE
  8
0
 10
48.3628
 20
455.431
 11
48.5018
 21
455.19
  0
LINE
  8
0
 10
48.5018
 20
455.19
 11
48.55
 21
454.917
  0
LINE
  8
0
 10
48.55
 20
454.917
 11
48.5018
 21
454.643
  0
LINE
  8
0
 10
48.5018
 20
454.643
 11
48.3628
 21
454.402
  0
LINE
  8
0
 10
48.3628
 20
454.402
 11
48.15
 21
454.224
  0
LINE
  8
0
 10
48.15
 20
454.224
 11
47.8889
 21
454.129
  0
LINE
  8
0
 10
47.8889
 20
454.129
 11
47.6111
 21
454.129
  0
LINE
  8
0
 10
23.6111
 20
454.129
 11
23.35
 21
454.224
  0
LINE
  8
0
 10
23.35
 20
454.224
 11
23.1372
 21
454.402
  0
LINE
  8
0
 10
23.1372
 20
454.402
 11
22.9982
 21
454.643
  0
LINE
  8
0
 10
22.9982
 20
454.643
 11
22.95
 21
454.917
  0
LINE
  8
0
 10
22.95
 20
454.917
 11
22.9982
 21
455.19
  0
LINE
  8
0
 10
22.9982
 20
455.19
 11
23.1372
 21
455.431
  0
LINE
  8
0
 10
23.1372
 20
455.431
 11
23.35
 21
455.609
  0
LINE
  8
0
 10
23.35
 20
455.609
 11
23.6111
 21
455.704
  0
LINE
  8
0
 10
23.6111
 20
455.704
 11
23.8889
 21
455.704
  0
LINE
  8
0
 10
23.8889
 20
455.704
 11
24.15
 21
455.609
  0
LINE
  8
0
 10
24.15
 20
455.609
 11
24.3628
 21
455.431
  0
LINE
  8
0
 10
24.3628
 20
455.431
 11
24.5018
 21
455.19
  0
LINE
  8
0
 10
24.5018
 20
455.19
 11
24.55
 21
454.917
  0
LINE
  8
0
 10
24.55
 20
454.917
 11
24.5018
 21
454.643
  0
LINE
  8
0
 10
24.5018
 20
454.643
 11
24.3628
 21
454.402
  0
LINE
  8
0
 10
24.3628
 20
454.402
 11
24.15
 21
454.224
  0
LINE
  8
0
 10
24.15
 20
454.224
 11
23.8889
 21
454.129
  0
LINE
  8
0
 10
23.8889
 20
454.129
 11
23.6111
 21
454.129
  0
LINE
  8
0
 10
45.6111
 20
443.462
 11
45.35
 21
443.557
  0
LINE
  8
0
 10
45.35
 20
443.557
 11
45.1372
 21
443.736
  0
LINE
  8
0
 10
45.1372
 20
443.736
 11
44.9982
 21
443.976
  0
LINE
  8
0
 10
44.9982
 20
443.976
 11
44.95
 21
444.25
  0
LINE
  8
0
 10
44.95
 20
444.25
 11
44.9982
 21
444.524
  0
LINE
  8
0
 10
44.9982
 20
444.524
 11
45.1372
 21
444.764
  0
LINE
  8
0
 10
45.1372
 20
444.764
 11
45.35
 21
444.943
  0
LINE
  8
0
 10
45.35
 20
444.943
 11
45.6111
 21
445.038
  0
LINE
  8
0
 10
45.6111
 20
445.038
 11
45.8889
 21
445.038
  0
LINE
  8
0
 10
45.8889
 20
445.038
 11
46.15
 21
444.943
  0
LINE
  8
0
 10
46.15
 20
444.943
 11
46.3628
 21
444.764
  0
LINE
  8
0
 10
46.3628
 20
444.764
 11
46.5018
 21
444.524
  0
LINE
  8
0
 10
46.5018
 20
444.524
 11
46.55
 21
444.25
  0
LINE
  8
0
 10
46.55
 20
444.25
 11
46.5018
 21
443.976
  0
LINE
  8
0
 10
46.5018
 20
443.976
 11
46.3628
 21
443.736
  0
LINE
  8
0
 10
46.3628
 20
443.736
 11
46.15
 21
443.557
  0
LINE
  8
0
 10
46.15
 20
443.557
 11
45.8889
 21
443.462
  0
LINE
  8
0
 10
45.8889
 20
443.462
 11
45.6111
 21
443.462
  0
LINE
  8
0
 10
21.6111
 20
443.462
 11
21.35
 21
443.557
  0
LINE
  8
0
 10
21.35
 20
443.557
 11
21.1372
 21
443.736
  0
LINE
  8
0
 10
21.1372
 20
443.736
 11
20.9982
 21
443.976
  0
LINE
  8
0
 10
20.9982
 20
443.976
 11
20.95
 21
444.25
  0
LINE
  8
0
 10
20.95
 20
444.25
 11
20.9982
 21
444.524
  0
LINE
  8
0
 10
20.9982
 20
444.524
 11
21.1372
 21
444.764
  0
LINE
  8
0
 10
21.1372
 20
444.764
 11
21.35
 21
444.943
  0
LINE
  8
0
 10
21.35
 20
444.943
 11
21.6111
 21
445.038
  0
LINE
  8
0
 10
21.6111
 20
445.038
 11
21.8889
 21
445.038
  0
LINE
  8
0
 10
21.8889
 20
445.038
 11
22.15
 21
444.943
  0
LINE
  8
0
 10
22.15
 20
444.943
 11
22.3628
 21
444.764
  0
LINE
  8
0
 10
22.3628
 20
444.764
 11
22.5018
 21
444.524
  0
LINE
  8
0
 10
22.5018
 20
444.524
 11
22.55
 21
444.25
  0
LINE
  8
0
 10
22.55
 20
444.25
 11
22.5018
 21
443.976
  0
LINE
  8
0
 10
22.5018
 20
443.976
 11
22.3628
 21
443.736
  0
LINE
  8
0
 10
22.3628
 20
443.736
 11
22.15
 21
443.557
  0
LINE
  8
0
 10
22.15
 20
443.557
 11
21.8889
 21
443.462
  0
LINE
  8
0
 10
21.8889
 20
443.462
 11
21.6111
 21
443.462
  0
LINE
  8
0
 10
31.6111
 20
403.462
 11
31.35
 21
403.557
  0
LINE
  8
0
 10
31.35
 20
403.557
 11
31.1372
 21
403.736
  0
LINE
  8
0
 10
31.1372
 20
403.736
 11
30.9982
 21
403.976
  0
LINE
  8
0
 10
30.9982
 20
403.976
 11
30.95
 21
404.25
  0
LINE
  8
0
 10
30.95
 20
404.25
 11
30.9982
 21
404.524
  0
LINE
  8
0
 10
30.9982
 20
404.524
 11
31.1372
 21
404.764
  0
LINE
  8
0
 10
31.1372
 20
404.764
 11
31.35
 21
404.943
  0
LINE
  8
0
 10
31.35
 20
404.943
 11
31.6111
 21
405.038
  0
LINE
  8
0
 10
31.6111
 20
405.038
 11
31.8889
 21
405.038
  0
LINE
  8
0
 10
31.8889
 20
405.038
 11
32.15
 21
404.943
  0
LINE
  8
0
 10
32.15
 20
404.943
 11
32.3628
 21
404.764
  0
LINE
  8
0
 10
32.3628
 20
404.764
 11
32.5018
 21
404.524
  0
LINE
  8
0
 10
32.5018
 20
404.524
 11
32.55
 21
404.25
  0
LINE
  8
0
 10
32.55
 20
404.25
 11
32.5018
 21
403.976
  0
LINE
  8
0
 10
32.5018
 20
403.976
 11
32.3628
 21
403.736
  0
LINE
  8
0
 10
32.3628
 20
403.736
 11
32.15
 21
403.557
  0
LINE
  8
0
 10
32.15
 20
403.557
 11
31.8889
 21
403.462
  0
LINE
  8
0
 10
31.8889
 20
403.462
 11
31.6111
 21
403.462
  0
LINE
  8
0
 10
51.6111
 20
403.462
 11
51.35
 21
403.557
  0
LINE
  8
0
 10
51.35
 20
403.557
 11
51.1372
 21
403.736
  0
LINE
  8
0
 10
51.1372
 20
403.736
 11
50.9982
 21
403.976
  0
LINE
  8
0
 10
50.9982
 20
403.976
 11
50.95
 21
404.25
  0
LINE
  8
0
 10
50.95
 20
404.25
 11
50.9982
 21
404.524
  0
LINE
  8
0
 10
50.9982
 20
404.524
 11
51.1372
 21
404.764
  0
LINE
  8
0
 10
51.1372
 20
404.764
 11
51.35
 21
404.943
  0
LINE
  8
0
 10
51.35
 20
404.943
 11
51.6111
 21
405.038
  0
LINE
  8
0
 10
51.6111
 20
405.038
 11
51.8889
 21
405.038
  0
LINE
  8
0
 10
51.8889
 20
405.038
 11
52.15
 21
404.943
  0
LINE
  8
0
 10
52.15
 20
404.943
 11
52.3628
 21
404.764
  0
LINE
  8
0
 10
52.3628
 20
404.764
 11
52.5018
 21
404.524
  0
LINE
  8
0
 10
52.5018
 20
404.524
 11
52.55
 21
404.25
  0
LINE
  8
0
 10
52.55
 20
404.25
 11
52.5018
 21
403.976
  0
LINE
  8
0
 10
52.5018
 20
403.976
 11
52.3628
 21
403.736
  0
LINE
  8
0
 10
52.3628
 20
403.736
 11
52.15
 21
403.557
  0
LINE
  8
0
 10
52.15
 20
403.557
 11
51.8889
 21
403.462
  0
LINE
  8
0
 10
51.8889
 20
403.462
 11
51.6111
 21
403.462
  0
LINE
  8
0
 10
49.6111
 20
395.462
 11
49.35
 21
395.557
  0
LINE
  8
0
 10
49.35
 20
395.557
 11
49.1372
 21
395.736
  0
LINE
  8
0
 10
49.1372
 20
395.736
 11
48.9982
 21
395.976
  0
LINE
  8
0
 10
48.9982
 20
395.976
 11
48.95
 21
396.25
  0
LINE
  8
0
 10
48.95
 20
396.25
 11
48.9982
 21
396.524
  0
LINE
  8
0
 10
48.9982
 20
396.524
 11
49.1372
 21
396.764
  0
LINE
  8
0
 10
49.1372
 20
396.764
 11
49.35
 21
396.943
  0
LINE
  8
0
 10
49.35
 20
396.943
 11
49.6111
 21
397.038
  0
LINE
  8
0
 10
49.6111
 20
397.038
 11
49.8889
 21
397.038
  0
LINE
  8
0
 10
49.8889
 20
397.038
 11
50.15
 21
396.943
  0
LINE
  8
0
 10
50.15
 20
396.943
 11
50.3628
 21
396.764
  0
LINE
  8
0
 10
50.3628
 20
396.764
 11
50.5018
 21
396.524
  0
LINE
  8
0
 10
50.5018
 20
396.524
 11
50.55
 21
396.25
  0
LINE
  8
0
 10
50.55
 20
396.25
 11
50.5018
 21
395.976
  0
LINE
  8
0
 10
50.5018
 20
395.976
 11
50.3628
 21
395.736
  0
LINE
  8
0
 10
50.3628
 20
395.736
 11
50.15
 21
395.557
  0
LINE
  8
0
 10
50.15
 20
395.557
 11
49.8889
 21
395.462
  0
LINE
  8
0
 10
49.8889
 20
395.462
 11
49.6111
 21
395.462
  0
LINE
  8
0
 10
27.6111
 20
395.462
 11
27.35
 21
395.557
  0
LINE
  8
0
 10
27.35
 20
395.557
 11
27.1372
 21
395.736
  0
LINE
  8
0
 10
27.1372
 20
395.736
 11
26.9982
 21
395.976
  0
LINE
  8
0
 10
26.9982
 20
395.976
 11
26.95
 21
396.25
  0
LINE
  8
0
 10
26.95
 20
396.25
 11
26.9982
 21
396.524
  0
LINE
  8
0
 10
26.9982
 20
396.524
 11
27.1372
 21
396.764
  0
LINE
  8
0
 10
27.1372
 20
396.764
 11
27.35
 21
396.943
  0
LINE
  8
0
 10
27.35
 20
396.943
 11
27.6111
 21
397.038
  0
LINE
  8
0
 10
27.6111
 20
397.038
 11
27.8889
 21
397.038
  0
LINE
  8
0
 10
27.8889
 20
397.038
 11
28.15
 21
396.943
  0
LINE
  8
0
 10
28.15
 20
396.943
 11
28.3628
 21
396.764
  0
LINE
  8
0
 10
28.3628
 20
396.764
 11
28.5018
 21
396.524
  0
LINE
  8
0
 10
28.5018
 20
396.524
 11
28.55
 21
396.25
  0
LINE
  8
0
 10
28.55
 20
396.25
 11
28.5018
 21
395.976
  0
LINE
  8
0
 10
28.5018
 20
395.976
 11
28.3628
 21
395.736
  0
LINE
  8
0
 10
28.3628
 20
395.736
 11
28.15
 21
395.557
  0
LINE
  8
0
 10
28.15
 20
395.557
 11
27.8889
 21
395.462
  0
LINE
  8
0
 10
27.8889
 20
395.462
 11
27.6111
 21
395.462
  0
LINE
  8
0
 10
47.6111
 20
387.462
 11
47.35
 21
387.557
  0
LINE
  8
0
 10
47.35
 20
387.557
 11
47.1372
 21
387.736
  0
LINE
  8
0
 10
47.1372
 20
387.736
 11
46.9982
 21
387.976
  0
LINE
  8
0
 10
46.9982
 20
387.976
 11
46.95
 21
388.25
  0
LINE
  8
0
 10
46.95
 20
388.25
 11
46.9982
 21
388.524
  0
LINE
  8
0
 10
46.9982
 20
388.524
 11
47.1372
 21
388.764
  0
LINE
  8
0
 10
47.1372
 20
388.764
 11
47.35
 21
388.943
  0
LINE
  8
0
 10
47.35
 20
388.943
 11
47.6111
 21
389.038
  0
LINE
  8
0
 10
47.6111
 20
389.038
 11
47.8889
 21
389.038
  0
LINE
  8
0
 10
47.8889
 20
389.038
 11
48.15
 21
388.943
  0
LINE
  8
0
 10
48.15
 20
388.943
 11
48.3628
 21
388.764
  0
LINE
  8
0
 10
48.3628
 20
388.764
 11
48.5018
 21
388.524
  0
LINE
  8
0
 10
48.5018
 20
388.524
 11
48.55
 21
388.25
  0
LINE
  8
0
 10
48.55
 20
388.25
 11
48.5018
 21
387.976
  0
LINE
  8
0
 10
48.5018
 20
387.976
 11
48.3628
 21
387.736
  0
LINE
  8
0
 10
48.3628
 20
387.736
 11
48.15
 21
387.557
  0
LINE
  8
0
 10
48.15
 20
387.557
 11
47.8889
 21
387.462
  0
LINE
  8
0
 10
47.8889
 20
387.462
 11
47.6111
 21
387.462
  0
LINE
  8
0
 10
23.6111
 20
387.462
 11
23.35
 21
387.557
  0
LINE
  8
0
 10
23.35
 20
387.557
 11
23.1372
 21
387.736
  0
LINE
  8
0
 10
23.1372
 20
387.736
 11
22.9982
 21
387.976
  0
LINE
  8
0
 10
22.9982
 20
387.976
 11
22.95
 21
388.25
  0
LINE
  8
0
 10
22.95
 20
388.25
 11
22.9982
 21
388.524
  0
LINE
  8
0
 10
22.9982
 20
388.524
 11
23.1372
 21
388.764
  0
LINE
  8
0
 10
23.1372
 20
388.764
 11
23.35
 21
388.943
  0
LINE
  8
0
 10
23.35
 20
388.943
 11
23.6111
 21
389.038
  0
LINE
  8
0
 10
23.6111
 20
389.038
 11
23.8889
 21
389.038
  0
LINE
  8
0
 10
23.8889
 20
389.038
 11
24.15
 21
388.943
  0
LINE
  8
0
 10
24.15
 20
388.943
 11
24.3628
 21
388.764
  0
LINE
  8
0
 10
24.3628
 20
388.764
 11
24.5018
 21
388.524
  0
LINE
  8
0
 10
24.5018
 20
388.524
 11
24.55
 21
388.25
  0
LINE
  8
0
 10
24.55
 20
388.25
 11
24.5018
 21
387.976
  0
LINE
  8
0
 10
24.5018
 20
387.976
 11
24.3628
 21
387.736
  0
LINE
  8
0
 10
24.3628
 20
387.736
 11
24.15
 21
387.557
  0
LINE
  8
0
 10
24.15
 20
387.557
 11
23.8889
 21
387.462
  0
LINE
  8
0
 10
23.8889
 20
387.462
 11
23.6111
 21
387.462
  0
LINE
  8
0
 10
45.6111
 20
379.462
 11
45.35
 21
379.557
  0
LINE
  8
0
 10
45.35
 20
379.557
 11
45.1372
 21
379.736
  0
LINE
  8
0
 10
45.1372
 20
379.736
 11
44.9982
 21
379.976
  0
LINE
  8
0
 10
44.9982
 20
379.976
 11
44.95
 21
380.25
  0
LINE
  8
0
 10
44.95
 20
380.25
 11
44.9982
 21
380.524
  0
LINE
  8
0
 10
44.9982
 20
380.524
 11
45.1372
 21
380.764
  0
LINE
  8
0
 10
45.1372
 20
380.764
 11
45.35
 21
380.943
  0
LINE
  8
0
 10
45.35
 20
380.943
 11
45.6111
 21
381.038
  0
LINE
  8
0
 10
45.6111
 20
381.038
 11
45.8889
 21
381.038
  0
LINE
  8
0
 10
45.8889
 20
381.038
 11
46.15
 21
380.943
  0
LINE
  8
0
 10
46.15
 20
380.943
 11
46.3628
 21
380.764
  0
LINE
  8
0
 10
46.3628
 20
380.764
 11
46.5018
 21
380.524
  0
LINE
  8
0
 10
46.5018
 20
380.524
 11
46.55
 21
380.25
  0
LINE
  8
0
 10
46.55
 20
380.25
 11
46.5018
 21
379.976
  0
LINE
  8
0
 10
46.5018
 20
379.976
 11
46.3628
 21
379.736
  0
LINE
  8
0
 10
46.3628
 20
379.736
 11
46.15
 21
379.557
  0
LINE
  8
0
 10
46.15
 20
379.557
 11
45.8889
 21
379.462
  0
LINE
  8
0
 10
45.8889
 20
379.462
 11
45.6111
 21
379.462
  0
LINE
  8
0
 10
21.6111
 20
379.462
 11
21.35
 21
379.557
  0
LINE
  8
0
 10
21.35
 20
379.557
 11
21.1372
 21
379.736
  0
LINE
  8
0
 10
21.1372
 20
379.736
 11
20.9982
 21
379.976
  0
LINE
  8
0
 10
20.9982
 20
379.976
 11
20.95
 21
380.25
  0
LINE
  8
0
 10
20.95
 20
380.25
 11
20.9982
 21
380.524
  0
LINE
  8
0
 10
20.9982
 20
380.524
 11
21.1372
 21
380.764
  0
LINE
  8
0
 10
21.1372
 20
380.764
 11
21.35
 21
380.943
  0
LINE
  8
0
 10
21.35
 20
380.943
 11
21.6111
 21
381.038
  0
LINE
  8
0
 10
21.6111
 20
381.038
 11
21.8889
 21
381.038
  0
LINE
  8
0
 10
21.8889
 20
381.038
 11
22.15
 21
380.943
  0
LINE
  8
0
 10
22.15
 20
380.943
 11
22.3628
 21
380.764
  0
LINE
  8
0
 10
22.3628
 20
380.764
 11
22.5018
 21
380.524
  0
LINE
  8
0
 10
22.5018
 20
380.524
 11
22.55
 21
380.25
  0
LINE
  8
0
 10
22.55
 20
380.25
 11
22.5018
 21
379.976
  0
LINE
  8
0
 10
22.5018
 20
379.976
 11
22.3628
 21
379.736
  0
LINE
  8
0
 10
22.3628
 20
379.736
 11
22.15
 21
379.557
  0
LINE
  8
0
 10
22.15
 20
379.557
 11
21.8889
 21
379.462
  0
LINE
  8
0
 10
21.8889
 20
379.462
 11
21.6111
 21
379.462
  0
LINE
  8
0
 10
31.6111
 20
371.462
 11
31.35
 21
371.557
  0
LINE
  8
0
 10
31.35
 20
371.557
 11
31.1372
 21
371.736
  0
LINE
  8
0
 10
31.1372
 20
371.736
 11
30.9982
 21
371.976
  0
LINE
  8
0
 10
30.9982
 20
371.976
 11
30.95
 21
372.25
  0
LINE
  8
0
 10
30.95
 20
372.25
 11
30.9982
 21
372.524
  0
LINE
  8
0
 10
30.9982
 20
372.524
 11
31.1372
 21
372.764
  0
LINE
  8
0
 10
31.1372
 20
372.764
 11
31.35
 21
372.943
  0
LINE
  8
0
 10
31.35
 20
372.943
 11
31.6111
 21
373.038
  0
LINE
  8
0
 10
31.6111
 20
373.038
 11
31.8889
 21
373.038
  0
LINE
  8
0
 10
31.8889
 20
373.038
 11
32.15
 21
372.943
  0
LINE
  8
0
 10
32.15
 20
372.943
 11
32.3628
 21
372.764
  0
LINE
  8
0
 10
32.3628
 20
372.764
 11
32.5018
 21
372.524
  0
LINE
  8
0
 10
32.5018
 20
372.524
 11
32.55
 21
372.25
  0
LINE
  8
0
 10
32.55
 20
372.25
 11
32.5018
 21
371.976
  0
LINE
  8
0
 10
32.5018
 20
371.976
 11
32.3628
 21
371.736
  0
LINE
  8
0
 10
32.3628
 20
371.736
 11
32.15
 21
371.557
  0
LINE
  8
0
 10
32.15
 20
371.557
 11
31.8889
 21
371.462
  0
LINE
  8
0
 10
31.8889
 20
371.462
 11
31.6111
 21
371.462
  0
LINE
  8
0
 10
51.6111
 20
371.462
 11
51.35
 21
371.557
  0
LINE
  8
0
 10
51.35
 20
371.557
 11
51.1372
 21
371.736
  0
LINE
  8
0
 10
51.1372
 20
371.736
 11
50.9982
 21
371.976
  0
LINE
  8
0
 10
50.9982
 20
371.976
 11
50.95
 21
372.25
  0
LINE
  8
0
 10
50.95
 20
372.25
 11
50.9982
 21
372.524
  0
LINE
  8
0
 10
50.9982
 20
372.524
 11
51.1372
 21
372.764
  0
LINE
  8
0
 10
51.1372
 20
372.764
 11
51.35
 21
372.943
  0
LINE
  8
0
 10
51.35
 20
372.943
 11
51.6111
 21
373.038
  0
LINE
  8
0
 10
51.6111
 20
373.038
 11
51.8889
 21
373.038
  0
LINE
  8
0
 10
51.8889
 20
373.038
 11
52.15
 21
372.943
  0
LINE
  8
0
 10
52.15
 20
372.943
 11
52.3628
 21
372.764
  0
LINE
  8
0
 10
52.3628
 20
372.764
 11
52.5018
 21
372.524
  0
LINE
  8
0
 10
52.5018
 20
372.524
 11
52.55
 21
372.25
  0
LINE
  8
0
 10
52.55
 20
372.25
 11
52.5018
 21
371.976
  0
LINE
  8
0
 10
52.5018
 20
371.976
 11
52.3628
 21
371.736
  0
LINE
  8
0
 10
52.3628
 20
371.736
 11
52.15
 21
371.557
  0
LINE
  8
0
 10
52.15
 20
371.557
 11
51.8889
 21
371.462
  0
LINE
  8
0
 10
51.8889
 20
371.462
 11
51.6111
 21
371.462
  0
LINE
  8
0
 10
51.6111
 20
363.462
 11
51.35
 21
363.557
  0
LINE
  8
0
 10
51.35
 20
363.557
 11
51.1372
 21
363.736
  0
LINE
  8
0
 10
51.1372
 20
363.736
 11
50.9982
 21
363.976
  0
LINE
  8
0
 10
50.9982
 20
363.976
 11
50.95
 21
364.25
  0
LINE
  8
0
 10
50.95
 20
364.25
 11
50.9982
 21
364.524
  0
LINE
  8
0
 10
50.9982
 20
364.524
 11
51.1372
 21
364.764
  0
LINE
  8
0
 10
51.1372
 20
364.764
 11
51.35
 21
364.943
  0
LINE
  8
0
 10
51.35
 20
364.943
 11
51.6111
 21
365.038
  0
LINE
  8
0
 10
51.6111
 20
365.038
 11
51.8889
 21
365.038
  0
LINE
  8
0
 10
51.8889
 20
365.038
 11
52.15
 21
364.943
  0
LINE
  8
0
 10
52.15
 20
364.943
 11
52.3628
 21
364.764
  0
LINE
  8
0
 10
52.3628
 20
364.764
 11
52.5018
 21
364.524
  0
LINE
  8
0
 10
52.5018
 20
364.524
 11
52.55
 21
364.25
  0
LINE
  8
0
 10
52.55
 20
364.25
 11
52.5018
 21
363.976
  0
LINE
  8
0
 10
52.5018
 20
363.976
 11
52.3628
 21
363.736
  0
LINE
  8
0
 10
52.3628
 20
363.736
 11
52.15
 21
363.557
  0
LINE
  8
0
 10
52.15
 20
363.557
 11
51.8889
 21
363.462
  0
LINE
  8
0
 10
51.8889
 20
363.462
 11
51.6111
 21
363.462
  0
LINE
  8
0
 10
31.6111
 20
363.462
 11
31.35
 21
363.557
  0
LINE
  8
0
 10
31.35
 20
363.557
 11
31.1372
 21
363.736
  0
LINE
  8
0
 10
31.1372
 20
363.736
 11
30.9982
 21
363.976
  0
LINE
  8
0
 10
30.9982
 20
363.976
 11
30.95
 21
364.25
  0
LINE
  8
0
 10
30.95
 20
364.25
 11
30.9982
 21
364.524
  0
LINE
  8
0
 10
30.9982
 20
364.524
 11
31.1372
 21
364.764
  0
LINE
  8
0
 10
31.1372
 20
364.764
 11
31.35
 21
364.943
  0
LINE
  8
0
 10
31.35
 20
364.943
 11
31.6111
 21
365.038
  0
LINE
  8
0
 10
31.6111
 20
365.038
 11
31.8889
 21
365.038
  0
LINE
  8
0
 10
31.8889
 20
365.038
 11
32.15
 21
364.943
  0
LINE
  8
0
 10
32.15
 20
364.943
 11
32.3628
 21
364.764
  0
LINE
  8
0
 10
32.3628
 20
364.764
 11
32.5018
 21
364.524
  0
LINE
  8
0
 10
32.5018
 20
364.524
 11
32.55
 21
364.25
  0
LINE
  8
0
 10
32.55
 20
364.25
 11
32.5018
 21
363.976
  0
LINE
  8
0
 10
32.5018
 20
363.976
 11
32.3628
 21
363.736
  0
LINE
  8
0
 10
32.3628
 20
363.736
 11
32.15
 21
363.557
  0
LINE
  8
0
 10
32.15
 20
363.557
 11
31.8889
 21
363.462
  0
LINE
  8
0
 10
31.8889
 20
363.462
 11
31.6111
 21
363.462
  0
LINE
  8
0
 10
49.6111
 20
339.462
 11
49.35
 21
339.557
  0
LINE
  8
0
 10
49.35
 20
339.557
 11
49.1372
 21
339.736
  0
LINE
  8
0
 10
49.1372
 20
339.736
 11
48.9982
 21
339.976
  0
LINE
  8
0
 10
48.9982
 20
339.976
 11
48.95
 21
340.25
  0
LINE
  8
0
 10
48.95
 20
340.25
 11
48.9982
 21
340.524
  0
LINE
  8
0
 10
48.9982
 20
340.524
 11
49.1372
 21
340.764
  0
LINE
  8
0
 10
49.1372
 20
340.764
 11
49.35
 21
340.943
  0
LINE
  8
0
 10
49.35
 20
340.943
 11
49.6111
 21
341.038
  0
LINE
  8
0
 10
49.6111
 20
341.038
 11
49.8889
 21
341.038
  0
LINE
  8
0
 10
49.8889
 20
341.038
 11
50.15
 21
340.943
  0
LINE
  8
0
 10
50.15
 20
340.943
 11
50.3628
 21
340.764
  0
LINE
  8
0
 10
50.3628
 20
340.764
 11
50.5018
 21
340.524
  0
LINE
  8
0
 10
50.5018
 20
340.524
 11
50.55
 21
340.25
  0
LINE
  8
0
 10
50.55
 20
340.25
 11
50.5018
 21
339.976
  0
LINE
  8
0
 10
50.5018
 20
339.976
 11
50.3628
 21
339.736
  0
LINE
  8
0
 10
50.3628
 20
339.736
 11
50.15
 21
339.557
  0
LINE
  8
0
 10
50.15
 20
339.557
 11
49.8889
 21
339.462
  0
LINE
  8
0
 10
49.8889
 20
339.462
 11
49.6111
 21
339.462
  0
LINE
  8
0
 10
27.6111
 20
339.462
 11
27.35
 21
339.557
  0
LINE
  8
0
 10
27.35
 20
339.557
 11
27.1372
 21
339.736
  0
LINE
  8
0
 10
27.1372
 20
339.736
 11
26.9982
 21
339.976
  0
LINE
  8
0
 10
26.9982
 20
339.976
 11
26.95
 21
340.25
  0
LINE
  8
0
 10
26.95
 20
340.25
 11
26.9982
 21
340.524
  0
LINE
  8
0
 10
26.9982
 20
340.524
 11
27.1372
 21
340.764
  0
LINE
  8
0
 10
27.1372
 20
340.764
 11
27.35
 21
340.943
  0
LINE
  8
0
 10
27.35
 20
340.943
 11
27.6111
 21
341.038
  0
LINE
  8
0
 10
27.6111
 20
341.038
 11
27.8889
 21
341.038
  0
LINE
  8
0
 10
27.8889
 20
341.038
 11
28.15
 21
340.943
  0
LINE
  8
0
 10
28.15
 20
340.943
 11
28.3628
 21
340.764
  0
LINE
  8
0
 10
28.3628
 20
340.764
 11
28.5018
 21
340.524
  0
LINE
  8
0
 10
28.5018
 20
340.524
 11
28.55
 21
340.25
  0
LINE
  8
0
 10
28.55
 20
340.25
 11
28.5018
 21
339.976
  0
LINE
  8
0
 10
28.5018
 20
339.976
 11
28.3628
 21
339.736
  0
LINE
  8
0
 10
28.3628
 20
339.736
 11
28.15
 21
339.557
  0
LINE
  8
0
 10
28.15
 20
339.557
 11
27.8889
 21
339.462
  0
LINE
  8
0
 10
27.8889
 20
339.462
 11
27.6111
 21
339.462
  0
LINE
  8
0
 10
23.6111
 20
315.462
 11
23.35
 21
315.557
  0
LINE
  8
0
 10
23.35
 20
315.557
 11
23.1372
 21
315.736
  0
LINE
  8
0
 10
23.1372
 20
315.736
 11
22.9982
 21
315.976
  0
LINE
  8
0
 10
22.9982
 20
315.976
 11
22.95
 21
316.25
  0
LINE
  8
0
 10
22.95
 20
316.25
 11
22.9982
 21
316.524
  0
LINE
  8
0
 10
22.9982
 20
316.524
 11
23.1372
 21
316.764
  0
LINE
  8
0
 10
23.1372
 20
316.764
 11
23.35
 21
316.943
  0
LINE
  8
0
 10
23.35
 20
316.943
 11
23.6111
 21
317.038
  0
LINE
  8
0
 10
23.6111
 20
317.038
 11
23.8889
 21
317.038
  0
LINE
  8
0
 10
23.8889
 20
317.038
 11
24.15
 21
316.943
  0
LINE
  8
0
 10
24.15
 20
316.943
 11
24.3628
 21
316.764
  0
LINE
  8
0
 10
24.3628
 20
316.764
 11
24.5018
 21
316.524
  0
LINE
  8
0
 10
24.5018
 20
316.524
 11
24.55
 21
316.25
  0
LINE
  8
0
 10
24.55
 20
316.25
 11
24.5018
 21
315.976
  0
LINE
  8
0
 10
24.5018
 20
315.976
 11
24.3628
 21
315.736
  0
LINE
  8
0
 10
24.3628
 20
315.736
 11
24.15
 21
315.557
  0
LINE
  8
0
 10
24.15
 20
315.557
 11
23.8889
 21
315.462
  0
LINE
  8
0
 10
23.8889
 20
315.462
 11
23.6111
 21
315.462
  0
LINE
  8
0
 10
47.6111
 20
315.462
 11
47.35
 21
315.557
  0
LINE
  8
0
 10
47.35
 20
315.557
 11
47.1372
 21
315.736
  0
LINE
  8
0
 10
47.1372
 20
315.736
 11
46.9982
 21
315.976
  0
LINE
  8
0
 10
46.9982
 20
315.976
 11
46.95
 21
316.25
  0
LINE
  8
0
 10
46.95
 20
316.25
 11
46.9982
 21
316.524
  0
LINE
  8
0
 10
46.9982
 20
316.524
 11
47.1372
 21
316.764
  0
LINE
  8
0
 10
47.1372
 20
316.764
 11
47.35
 21
316.943
  0
LINE
  8
0
 10
47.35
 20
316.943
 11
47.6111
 21
317.038
  0
LINE
  8
0
 10
47.6111
 20
317.038
 11
47.8889
 21
317.038
  0
LINE
  8
0
 10
47.8889
 20
317.038
 11
48.15
 21
316.943
  0
LINE
  8
0
 10
48.15
 20
316.943
 11
48.3628
 21
316.764
  0
LINE
  8
0
 10
48.3628
 20
316.764
 11
48.5018
 21
316.524
  0
LINE
  8
0
 10
48.5018
 20
316.524
 11
48.55
 21
316.25
  0
LINE
  8
0
 10
48.55
 20
316.25
 11
48.5018
 21
315.976
  0
LINE
  8
0
 10
48.5018
 20
315.976
 11
48.3628
 21
315.736
  0
LINE
  8
0
 10
48.3628
 20
315.736
 11
48.15
 21
315.557
  0
LINE
  8
0
 10
48.15
 20
315.557
 11
47.8889
 21
315.462
  0
LINE
  8
0
 10
47.8889
 20
315.462
 11
47.6111
 21
315.462
  0
LINE
  8
0
 10
47.6111
 20
307.462
 11
47.35
 21
307.557
  0
LINE
  8
0
 10
47.35
 20
307.557
 11
47.1372
 21
307.736
  0
LINE
  8
0
 10
47.1372
 20
307.736
 11
46.9982
 21
307.976
  0
LINE
  8
0
 10
46.9982
 20
307.976
 11
46.95
 21
308.25
  0
LINE
  8
0
 10
46.95
 20
308.25
 11
46.9982
 21
308.524
  0
LINE
  8
0
 10
46.9982
 20
308.524
 11
47.1372
 21
308.764
  0
LINE
  8
0
 10
47.1372
 20
308.764
 11
47.35
 21
308.943
  0
LINE
  8
0
 10
47.35
 20
308.943
 11
47.6111
 21
309.038
  0
LINE
  8
0
 10
47.6111
 20
309.038
 11
47.8889
 21
309.038
  0
LINE
  8
0
 10
47.8889
 20
309.038
 11
48.15
 21
308.943
  0
LINE
  8
0
 10
48.15
 20
308.943
 11
48.3628
 21
308.764
  0
LINE
  8
0
 10
48.3628
 20
308.764
 11
48.5018
 21
308.524
  0
LINE
  8
0
 10
48.5018
 20
308.524
 11
48.55
 21
308.25
  0
LINE
  8
0
 10
48.55
 20
308.25
 11
48.5018
 21
307.976
  0
LINE
  8
0
 10
48.5018
 20
307.976
 11
48.3628
 21
307.736
  0
LINE
  8
0
 10
48.3628
 20
307.736
 11
48.15
 21
307.557
  0
LINE
  8
0
 10
48.15
 20
307.557
 11
47.8889
 21
307.462
  0
LINE
  8
0
 10
47.8889
 20
307.462
 11
47.6111
 21
307.462
  0
LINE
  8
0
 10
23.6111
 20
307.462
 11
23.35
 21
307.557
  0
LINE
  8
0
 10
23.35
 20
307.557
 11
23.1372
 21
307.736
  0
LINE
  8
0
 10
23.1372
 20
307.736
 11
22.9982
 21
307.976
  0
LINE
  8
0
 10
22.9982
 20
307.976
 11
22.95
 21
308.25
  0
LINE
  8
0
 10
22.95
 20
308.25
 11
22.9982
 21
308.524
  0
LINE
  8
0
 10
22.9982
 20
308.524
 11
23.1372
 21
308.764
  0
LINE
  8
0
 10
23.1372
 20
308.764
 11
23.35
 21
308.943
  0
LINE
  8
0
 10
23.35
 20
308.943
 11
23.6111
 21
309.038
  0
LINE
  8
0
 10
23.6111
 20
309.038
 11
23.8889
 21
309.038
  0
LINE
  8
0
 10
23.8889
 20
309.038
 11
24.15
 21
308.943
  0
LINE
  8
0
 10
24.15
 20
308.943
 11
24.3628
 21
308.764
  0
LINE
  8
0
 10
24.3628
 20
308.764
 11
24.5018
 21
308.524
  0
LINE
  8
0
 10
24.5018
 20
308.524
 11
24.55
 21
308.25
  0
LINE
  8
0
 10
24.55
 20
308.25
 11
24.5018
 21
307.976
  0
LINE
  8
0
 10
24.5018
 20
307.976
 11
24.3628
 21
307.736
  0
LINE
  8
0
 10
24.3628
 20
307.736
 11
24.15
 21
307.557
  0
LINE
  8
0
 10
24.15
 20
307.557
 11
23.8889
 21
307.462
  0
LINE
  8
0
 10
23.8889
 20
307.462
 11
23.6111
 21
307.462
  0
LINE
  8
0
 10
45.6111
 20
283.462
 11
45.35
 21
283.557
  0
LINE
  8
0
 10
45.35
 20
283.557
 11
45.1372
 21
283.736
  0
LINE
  8
0
 10
45.1372
 20
283.736
 11
44.9982
 21
283.976
  0
LINE
  8
0
 10
44.9982
 20
283.976
 11
44.95
 21
284.25
  0
LINE
  8
0
 10
44.95
 20
284.25
 11
44.9982
 21
284.524
  0
LINE
  8
0
 10
44.9982
 20
284.524
 11
45.1372
 21
284.764
  0
LINE
  8
0
 10
45.1372
 20
284.764
 11
45.35
 21
284.943
  0
LINE
  8
0
 10
45.35
 20
284.943
 11
45.6111
 21
285.038
  0
LINE
  8
0
 10
45.6111
 20
285.038
 11
45.8889
 21
285.038
  0
LINE
  8
0
 10
45.8889
 20
285.038
 11
46.15
 21
284.943
  0
LINE
  8
0
 10
46.15
 20
284.943
 11
46.3628
 21
284.764
  0
LINE
  8
0
 10
46.3628
 20
284.764
 11
46.5018
 21
284.524
  0
LINE
  8
0
 10
46.5018
 20
284.524
 11
46.55
 21
284.25
  0
LINE
  8
0
 10
46.55
 20
284.25
 11
46.5018
 21
283.976
  0
LINE
  8
0
 10
46.5018
 20
283.976
 11
46.3628
 21
283.736
  0
LINE
  8
0
 10
46.3628
 20
283.736
 11
46.15
 21
283.557
  0
LINE
  8
0
 10
46.15
 20
283.557
 11
45.8889
 21
283.462
  0
LINE
  8
0
 10
45.8889
 20
283.462
 11
45.6111
 21
283.462
  0
LINE
  8
0
 10
21.6111
 20
283.462
 11
21.35
 21
283.557
  0
LINE
  8
0
 10
21.35
 20
283.557
 11
21.1372
 21
283.736
  0
LINE
  8
0
 10
21.1372
 20
283.736
 11
20.9982
 21
283.976
  0
LINE
  8
0
 10
20.9982
 20
283.976
 11
20.95
 21
284.25
  0
LINE
  8
0
 10
20.95
 20
284.25
 11
20.9982
 21
284.524
  0
LINE
  8
0
 10
20.9982
 20
284.524
 11
21.1372
 21
284.764
  0
LINE
  8
0
 10
21.1372
 20
284.764
 11
21.35
 21
284.943
  0
LINE
  8
0
 10
21.35
 20
284.943
 11
21.6111
 21
285.038
  0
LINE
  8
0
 10
21.6111
 20
285.038
 11
21.8889
 21
285.038
  0
LINE
  8
0
 10
21.8889
 20
285.038
 11
22.15
 21
284.943
  0
LINE
  8
0
 10
22.15
 20
284.943
 11
22.3628
 21
284.764
  0
LINE
  8
0
 10
22.3628
 20
284.764
 11
22.5018
 21
284.524
  0
LINE
  8
0
 10
22.5018
 20
284.524
 11
22.55
 21
284.25
  0
LINE
  8
0
 10
22.55
 20
284.25
 11
22.5018
 21
283.976
  0
LINE
  8
0
 10
22.5018
 20
283.976
 11
22.3628
 21
283.736
  0
LINE
  8
0
 10
22.3628
 20
283.736
 11
22.15
 21
283.557
  0
LINE
  8
0
 10
22.15
 20
283.557
 11
21.8889
 21
283.462
  0
LINE
  8
0
 10
21.8889
 20
283.462
 11
21.6111
 21
283.462
  0
LINE
  8
0
 10
31.6111
 20
275.462
 11
31.35
 21
275.557
  0
LINE
  8
0
 10
31.35
 20
275.557
 11
31.1372
 21
275.736
  0
LINE
  8
0
 10
31.1372
 20
275.736
 11
30.9982
 21
275.976
  0
LINE
  8
0
 10
30.9982
 20
275.976
 11
30.95
 21
276.25
  0
LINE
  8
0
 10
30.95
 20
276.25
 11
30.9982
 21
276.524
  0
LINE
  8
0
 10
30.9982
 20
276.524
 11
31.1372
 21
276.764
  0
LINE
  8
0
 10
31.1372
 20
276.764
 11
31.35
 21
276.943
  0
LINE
  8
0
 10
31.35
 20
276.943
 11
31.6111
 21
277.038
  0
LINE
  8
0
 10
31.6111
 20
277.038
 11
31.8889
 21
277.038
  0
LINE
  8
0
 10
31.8889
 20
277.038
 11
32.15
 21
276.943
  0
LINE
  8
0
 10
32.15
 20
276.943
 11
32.3628
 21
276.764
  0
LINE
  8
0
 10
32.3628
 20
276.764
 11
32.5018
 21
276.524
  0
LINE
  8
0
 10
32.5018
 20
276.524
 11
32.55
 21
276.25
  0
LINE
  8
0
 10
32.55
 20
276.25
 11
32.5018
 21
275.976
  0
LINE
  8
0
 10
32.5018
 20
275.976
 11
32.3628
 21
275.736
  0
LINE
  8
0
 10
32.3628
 20
275.736
 11
32.15
 21
275.557
  0
LINE
  8
0
 10
32.15
 20
275.557
 11
31.8889
 21
275.462
  0
LINE
  8
0
 10
31.8889
 20
275.462
 11
31.6111
 21
275.462
  0
LINE
  8
0
 10
51.6111
 20
275.462
 11
51.35
 21
275.557
  0
LINE
  8
0
 10
51.35
 20
275.557
 11
51.1372
 21
275.736
  0
LINE
  8
0
 10
51.1372
 20
275.736
 11
50.9982
 21
275.976
  0
LINE
  8
0
 10
50.9982
 20
275.976
 11
50.95
 21
276.25
  0
LINE
  8
0
 10
50.95
 20
276.25
 11
50.9982
 21
276.524
  0
LINE
  8
0
 10
50.9982
 20
276.524
 11
51.1372
 21
276.764
  0
LINE
  8
0
 10
51.1372
 20
276.764
 11
51.35
 21
276.943
  0
LINE
  8
0
 10
51.35
 20
276.943
 11
51.6111
 21
277.038
  0
LINE
  8
0
 10
51.6111
 20
277.038
 11
51.8889
 21
277.038
  0
LINE
  8
0
 10
51.8889
 20
277.038
 11
52.15
 21
276.943
  0
LINE
  8
0
 10
52.15
 20
276.943
 11
52.3628
 21
276.764
  0
LINE
  8
0
 10
52.3628
 20
276.764
 11
52.5018
 21
276.524
  0
LINE
  8
0
 10
52.5018
 20
276.524
 11
52.55
 21
276.25
  0
LINE
  8
0
 10
52.55
 20
276.25
 11
52.5018
 21
275.976
  0
LINE
  8
0
 10
52.5018
 20
275.976
 11
52.3628
 21
275.736
  0
LINE
  8
0
 10
52.3628
 20
275.736
 11
52.15
 21
275.557
  0
LINE
  8
0
 10
52.15
 20
275.557
 11
51.8889
 21
275.462
  0
LINE
  8
0
 10
51.8889
 20
275.462
 11
51.6111
 21
275.462
  0
LINE
  8
0
 10
49.6111
 20
267.462
 11
49.35
 21
267.557
  0
LINE
  8
0
 10
49.35
 20
267.557
 11
49.1372
 21
267.736
  0
LINE
  8
0
 10
49.1372
 20
267.736
 11
48.9982
 21
267.976
  0
LINE
  8
0
 10
48.9982
 20
267.976
 11
48.95
 21
268.25
  0
LINE
  8
0
 10
48.95
 20
268.25
 11
48.9982
 21
268.524
  0
LINE
  8
0
 10
48.9982
 20
268.524
 11
49.1372
 21
268.764
  0
LINE
  8
0
 10
49.1372
 20
268.764
 11
49.35
 21
268.943
  0
LINE
  8
0
 10
49.35
 20
268.943
 11
49.6111
 21
269.038
  0
LINE
  8
0
 10
49.6111
 20
269.038
 11
49.8889
 21
269.038
  0
LINE
  8
0
 10
49.8889
 20
269.038
 11
50.15
 21
268.943
  0
LINE
  8
0
 10
50.15
 20
268.943
 11
50.3628
 21
268.764
  0
LINE
  8
0
 10
50.3628
 20
268.764
 11
50.5018
 21
268.524
  0
LINE
  8
0
 10
50.5018
 20
268.524
 11
50.55
 21
268.25
  0
LINE
  8
0
 10
50.55
 20
268.25
 11
50.5018
 21
267.976
  0
LINE
  8
0
 10
50.5018
 20
267.976
 11
50.3628
 21
267.736
  0
LINE
  8
0
 10
50.3628
 20
267.736
 11
50.15
 21
267.557
  0
LINE
  8
0
 10
50.15
 20
267.557
 11
49.8889
 21
267.462
  0
LINE
  8
0
 10
49.8889
 20
267.462
 11
49.6111
 21
267.462
  0
LINE
  8
0
 10
27.6111
 20
267.462
 11
27.35
 21
267.557
  0
LINE
  8
0
 10
27.35
 20
267.557
 11
27.1372
 21
267.736
  0
LINE
  8
0
 10
27.1372
 20
267.736
 11
26.9982
 21
267.976
  0
LINE
  8
0
 10
26.9982
 20
267.976
 11
26.95
 21
268.25
  0
LINE
  8
0
 10
26.95
 20
268.25
 11
26.9982
 21
268.524
  0
LINE
  8
0
 10
26.9982
 20
268.524
 11
27.1372
 21
268.764
  0
LINE
  8
0
 10
27.1372
 20
268.764
 11
27.35
 21
268.943
  0
LINE
  8
0
 10
27.35
 20
268.943
 11
27.6111
 21
269.038
  0
LINE
  8
0
 10
27.6111
 20
269.038
 11
27.8889
 21
269.038
  0
LINE
  8
0
 10
27.8889
 20
269.038
 11
28.15
 21
268.943
  0
LINE
  8
0
 10
28.15
 20
268.943
 11
28.3628
 21
268.764
  0
LINE
  8
0
 10
28.3628
 20
268.764
 11
28.5018
 21
268.524
  0
LINE
  8
0
 10
28.5018
 20
268.524
 11
28.55
 21
268.25
  0
LINE
  8
0
 10
28.55
 20
268.25
 11
28.5018
 21
267.976
  0
LINE
  8
0
 10
28.5018
 20
267.976
 11
28.3628
 21
267.736
  0
LINE
  8
0
 10
28.3628
 20
267.736
 11
28.15
 21
267.557
  0
LINE
  8
0
 10
28.15
 20
267.557
 11
27.8889
 21
267.462
  0
LINE
  8
0
 10
27.8889
 20
267.462
 11
27.6111
 21
267.462
  0
LINE
  8
0
 10
23.6111
 20
259.462
 11
23.35
 21
259.557
  0
LINE
  8
0
 10
23.35
 20
259.557
 11
23.1372
 21
259.736
  0
LINE
  8
0
 10
23.1372
 20
259.736
 11
22.9982
 21
259.976
  0
LINE
  8
0
 10
22.9982
 20
259.976
 11
22.95
 21
260.25
  0
LINE
  8
0
 10
22.95
 20
260.25
 11
22.9982
 21
260.524
  0
LINE
  8
0
 10
22.9982
 20
260.524
 11
23.1372
 21
260.764
  0
LINE
  8
0
 10
23.1372
 20
260.764
 11
23.35
 21
260.943
  0
LINE
  8
0
 10
23.35
 20
260.943
 11
23.6111
 21
261.038
  0
LINE
  8
0
 10
23.6111
 20
261.038
 11
23.8889
 21
261.038
  0
LINE
  8
0
 10
23.8889
 20
261.038
 11
24.15
 21
260.943
  0
LINE
  8
0
 10
24.15
 20
260.943
 11
24.3628
 21
260.764
  0
LINE
  8
0
 10
24.3628
 20
260.764
 11
24.5018
 21
260.524
  0
LINE
  8
0
 10
24.5018
 20
260.524
 11
24.55
 21
260.25
  0
LINE
  8
0
 10
24.55
 20
260.25
 11
24.5018
 21
259.976
  0
LINE
  8
0
 10
24.5018
 20
259.976
 11
24.3628
 21
259.736
  0
LINE
  8
0
 10
24.3628
 20
259.736
 11
24.15
 21
259.557
  0
LINE
  8
0
 10
24.15
 20
259.557
 11
23.8889
 21
259.462
  0
LINE
  8
0
 10
23.8889
 20
259.462
 11
23.6111
 21
259.462
  0
LINE
  8
0
 10
47.6111
 20
259.462
 11
47.35
 21
259.557
  0
LINE
  8
0
 10
47.35
 20
259.557
 11
47.1372
 21
259.736
  0
LINE
  8
0
 10
47.1372
 20
259.736
 11
46.9982
 21
259.976
  0
LINE
  8
0
 10
46.9982
 20
259.976
 11
46.95
 21
260.25
  0
LINE
  8
0
 10
46.95
 20
260.25
 11
46.9982
 21
260.524
  0
LINE
  8
0
 10
46.9982
 20
260.524
 11
47.1372
 21
260.764
  0
LINE
  8
0
 10
47.1372
 20
260.764
 11
47.35
 21
260.943
  0
LINE
  8
0
 10
47.35
 20
260.943
 11
47.6111
 21
261.038
  0
LINE
  8
0
 10
47.6111
 20
261.038
 11
47.8889
 21
261.038
  0
LINE
  8
0
 10
47.8889
 20
261.038
 11
48.15
 21
260.943
  0
LINE
  8
0
 10
48.15
 20
260.943
 11
48.3628
 21
260.764
  0
LINE
  8
0
 10
48.3628
 20
260.764
 11
48.5018
 21
260.524
  0
LINE
  8
0
 10
48.5018
 20
260.524
 11
48.55
 21
260.25
  0
LINE
  8
0
 10
48.55
 20
260.25
 11
48.5018
 21
259.976
  0
LINE
  8
0
 10
48.5018
 20
259.976
 11
48.3628
 21
259.736
  0
LINE
  8
0
 10
48.3628
 20
259.736
 11
48.15
 21
259.557
  0
LINE
  8
0
 10
48.15
 20
259.557
 11
47.8889
 21
259.462
  0
LINE
  8
0
 10
47.8889
 20
259.462
 11
47.6111
 21
259.462
  0
LINE
  8
0
 10
21.6111
 20
251.462
 11
21.35
 21
251.557
  0
LINE
  8
0
 10
21.35
 20
251.557
 11
21.1372
 21
251.736
  0
LINE
  8
0
 10
21.1372
 20
251.736
 11
20.9982
 21
251.976
  0
LINE
  8
0
 10
20.9982
 20
251.976
 11
20.95
 21
252.25
  0
LINE
  8
0
 10
20.95
 20
252.25
 11
20.9982
 21
252.524
  0
LINE
  8
0
 10
20.9982
 20
252.524
 11
21.1372
 21
252.764
  0
LINE
  8
0
 10
21.1372
 20
252.764
 11
21.35
 21
252.943
  0
LINE
  8
0
 10
21.35
 20
252.943
 11
21.6111
 21
253.038
  0
LINE
  8
0
 10
21.6111
 20
253.038
 11
21.8889
 21
253.038
  0
LINE
  8
0
 10
21.8889
 20
253.038
 11
22.15
 21
252.943
  0
LINE
  8
0
 10
22.15
 20
252.943
 11
22.3628
 21
252.764
  0
LINE
  8
0
 10
22.3628
 20
252.764
 11
22.5018
 21
252.524
  0
LINE
  8
0
 10
22.5018
 20
252.524
 11
22.55
 21
252.25
  0
LINE
  8
0
 10
22.55
 20
252.25
 11
22.5018
 21
251.976
  0
LINE
  8
0
 10
22.5018
 20
251.976
 11
22.3628
 21
251.736
  0
LINE
  8
0
 10
22.3628
 20
251.736
 11
22.15
 21
251.557
  0
LINE
  8
0
 10
22.15
 20
251.557
 11
21.8889
 21
251.462
  0
LINE
  8
0
 10
21.8889
 20
251.462
 11
21.6111
 21
251.462
  0
LINE
  8
0
 10
45.6111
 20
251.462
 11
45.35
 21
251.557
  0
LINE
  8
0
 10
45.35
 20
251.557
 11
45.1372
 21
251.736
  0
LINE
  8
0
 10
45.1372
 20
251.736
 11
44.9982
 21
251.976
  0
LINE
  8
0
 10
44.9982
 20
251.976
 11
44.95
 21
252.25
  0
LINE
  8
0
 10
44.95
 20
252.25
 11
44.9982
 21
252.524
  0
LINE
  8
0
 10
44.9982
 20
252.524
 11
45.1372
 21
252.764
  0
LINE
  8
0
 10
45.1372
 20
252.764
 11
45.35
 21
252.943
  0
LINE
  8
0
 10
45.35
 20
252.943
 11
45.6111
 21
253.038
  0
LINE
  8
0
 10
45.6111
 20
253.038
 11
45.8889
 21
253.038
  0
LINE
  8
0
 10
45.8889
 20
253.038
 11
46.15
 21
252.943
  0
LINE
  8
0
 10
46.15
 20
252.943
 11
46.3628
 21
252.764
  0
LINE
  8
0
 10
46.3628
 20
252.764
 11
46.5018
 21
252.524
  0
LINE
  8
0
 10
46.5018
 20
252.524
 11
46.55
 21
252.25
  0
LINE
  8
0
 10
46.55
 20
252.25
 11
46.5018
 21
251.976
  0
LINE
  8
0
 10
46.5018
 20
251.976
 11
46.3628
 21
251.736
  0
LINE
  8
0
 10
46.3628
 20
251.736
 11
46.15
 21
251.557
  0
LINE
  8
0
 10
46.15
 20
251.557
 11
45.8889
 21
251.462
  0
LINE
  8
0
 10
45.8889
 20
251.462
 11
45.6111
 21
251.462
  0
LINE
  8
0
 10
51.6111
 20
243.462
 11
51.35
 21
243.557
  0
LINE
  8
0
 10
51.35
 20
243.557
 11
51.1372
 21
243.736
  0
LINE
  8
0
 10
51.1372
 20
243.736
 11
50.9982
 21
243.976
  0
LINE
  8
0
 10
50.9982
 20
243.976
 11
50.95
 21
244.25
  0
LINE
  8
0
 10
50.95
 20
244.25
 11
50.9982
 21
244.524
  0
LINE
  8
0
 10
50.9982
 20
244.524
 11
51.1372
 21
244.764
  0
LINE
  8
0
 10
51.1372
 20
244.764
 11
51.35
 21
244.943
  0
LINE
  8
0
 10
51.35
 20
244.943
 11
51.6111
 21
245.038
  0
LINE
  8
0
 10
51.6111
 20
245.038
 11
51.8889
 21
245.038
  0
LINE
  8
0
 10
51.8889
 20
245.038
 11
52.15
 21
244.943
  0
LINE
  8
0
 10
52.15
 20
244.943
 11
52.3628
 21
244.764
  0
LINE
  8
0
 10
52.3628
 20
244.764
 11
52.5018
 21
244.524
  0
LINE
  8
0
 10
52.5018
 20
244.524
 11
52.55
 21
244.25
  0
LINE
  8
0
 10
52.55
 20
244.25
 11
52.5018
 21
243.976
  0
LINE
  8
0
 10
52.5018
 20
243.976
 11
52.3628
 21
243.736
  0
LINE
  8
0
 10
52.3628
 20
243.736
 11
52.15
 21
243.557
  0
LINE
  8
0
 10
52.15
 20
243.557
 11
51.8889
 21
243.462
  0
LINE
  8
0
 10
51.8889
 20
243.462
 11
51.6111
 21
243.462
  0
LINE
  8
0
 10
31.6111
 20
243.462
 11
31.35
 21
243.557
  0
LINE
  8
0
 10
31.35
 20
243.557
 11
31.1372
 21
243.736
  0
LINE
  8
0
 10
31.1372
 20
243.736
 11
30.9982
 21
243.976
  0
LINE
  8
0
 10
30.9982
 20
243.976
 11
30.95
 21
244.25
  0
LINE
  8
0
 10
30.95
 20
244.25
 11
30.9982
 21
244.524
  0
LINE
  8
0
 10
30.9982
 20
244.524
 11
31.1372
 21
244.764
  0
LINE
  8
0
 10
31.1372
 20
244.764
 11
31.35
 21
244.943
  0
LINE
  8
0
 10
31.35
 20
244.943
 11
31.6111
 21
245.038
  0
LINE
  8
0
 10
31.6111
 20
245.038
 11
31.8889
 21
245.038
  0
LINE
  8
0
 10
31.8889
 20
245.038
 11
32.15
 21
244.943
  0
LINE
  8
0
 10
32.15
 20
244.943
 11
32.3628
 21
244.764
  0
LINE
  8
0
 10
32.3628
 20
244.764
 11
32.5018
 21
244.524
  0
LINE
  8
0
 10
32.5018
 20
244.524
 11
32.55
 21
244.25
  0
LINE
  8
0
 10
32.55
 20
244.25
 11
32.5018
 21
243.976
  0
LINE
  8
0
 10
32.5018
 20
243.976
 11
32.3628
 21
243.736
  0
LINE
  8
0
 10
32.3628
 20
243.736
 11
32.15
 21
243.557
  0
LINE
  8
0
 10
32.15
 20
243.557
 11
31.8889
 21
243.462
  0
LINE
  8
0
 10
31.8889
 20
243.462
 11
31.6111
 21
243.462
  0
LINE
  8
0
 10
31.6111
 20
235.462
 11
31.35
 21
235.557
  0
LINE
  8
0
 10
31.35
 20
235.557
 11
31.1372
 21
235.736
  0
LINE
  8
0
 10
31.1372
 20
235.736
 11
30.9982
 21
235.976
  0
LINE
  8
0
 10
30.9982
 20
235.976
 11
30.95
 21
236.25
  0
LINE
  8
0
 10
30.95
 20
236.25
 11
30.9982
 21
236.524
  0
LINE
  8
0
 10
30.9982
 20
236.524
 11
31.1372
 21
236.764
  0
LINE
  8
0
 10
31.1372
 20
236.764
 11
31.35
 21
236.943
  0
LINE
  8
0
 10
31.35
 20
236.943
 11
31.6111
 21
237.038
  0
LINE
  8
0
 10
31.6111
 20
237.038
 11
31.8889
 21
237.038
  0
LINE
  8
0
 10
31.8889
 20
237.038
 11
32.15
 21
236.943
  0
LINE
  8
0
 10
32.15
 20
236.943
 11
32.3628
 21
236.764
  0
LINE
  8
0
 10
32.3628
 20
236.764
 11
32.5018
 21
236.524
  0
LINE
  8
0
 10
32.5018
 20
236.524
 11
32.55
 21
236.25
  0
LINE
  8
0
 10
32.55
 20
236.25
 11
32.5018
 21
235.976
  0
LINE
  8
0
 10
32.5018
 20
235.976
 11
32.3628
 21
235.736
  0
LINE
  8
0
 10
32.3628
 20
235.736
 11
32.15
 21
235.557
  0
LINE
  8
0
 10
32.15
 20
235.557
 11
31.8889
 21
235.462
  0
LINE
  8
0
 10
31.8889
 20
235.462
 11
31.6111
 21
235.462
  0
LINE
  8
0
 10
51.6111
 20
235.462
 11
51.35
 21
235.557
  0
LINE
  8
0
 10
51.35
 20
235.557
 11
51.1372
 21
235.736
  0
LINE
  8
0
 10
51.1372
 20
235.736
 11
50.9982
 21
235.976
  0
LINE
  8
0
 10
50.9982
 20
235.976
 11
50.95
 21
236.25
  0
LINE
  8
0
 10
50.95
 20
236.25
 11
50.9982
 21
236.524
  0
LINE
  8
0
 10
50.9982
 20
236.524
 11
51.1372
 21
236.764
  0
LINE
  8
0
 10
51.1372
 20
236.764
 11
51.35
 21
236.943
  0
LINE
  8
0
 10
51.35
 20
236.943
 11
51.6111
 21
237.038
  0
LINE
  8
0
 10
51.6111
 20
237.038
 11
51.8889
 21
237.038
  0
LINE
  8
0
 10
51.8889
 20
237.038
 11
52.15
 21
236.943
  0
LINE
  8
0
 10
52.15
 20
236.943
 11
52.3628
 21
236.764
  0
LINE
  8
0
 10
52.3628
 20
236.764
 11
52.5018
 21
236.524
  0
LINE
  8
0
 10
52.5018
 20
236.524
 11
52.55
 21
236.25
  0
LINE
  8
0
 10
52.55
 20
236.25
 11
52.5018
 21
235.976
  0
LINE
  8
0
 10
52.5018
 20
235.976
 11
52.3628
 21
235.736
  0
LINE
  8
0
 10
52.3628
 20
235.736
 11
52.15
 21
235.557
  0
LINE
  8
0
 10
52.15
 20
235.557
 11
51.8889
 21
235.462
  0
LINE
  8
0
 10
51.8889
 20
235.462
 11
51.6111
 21
235.462
  0
LINE
  8
0
 10
23.6111
 20
219.462
 11
23.35
 21
219.557
  0
LINE
  8
0
 10
23.35
 20
219.557
 11
23.1372
 21
219.736
  0
LINE
  8
0
 10
23.1372
 20
219.736
 11
22.9982
 21
219.976
  0
LINE
  8
0
 10
22.9982
 20
219.976
 11
22.95
 21
220.25
  0
LINE
  8
0
 10
22.95
 20
220.25
 11
22.9982
 21
220.524
  0
LINE
  8
0
 10
22.9982
 20
220.524
 11
23.1372
 21
220.764
  0
LINE
  8
0
 10
23.1372
 20
220.764
 11
23.35
 21
220.943
  0
LINE
  8
0
 10
23.35
 20
220.943
 11
23.6111
 21
221.038
  0
LINE
  8
0
 10
23.6111
 20
221.038
 11
23.8889
 21
221.038
  0
LINE
  8
0
 10
23.8889
 20
221.038
 11
24.15
 21
220.943
  0
LINE
  8
0
 10
24.15
 20
220.943
 11
24.3628
 21
220.764
  0
LINE
  8
0
 10
24.3628
 20
220.764
 11
24.5018
 21
220.524
  0
LINE
  8
0
 10
24.5018
 20
220.524
 11
24.55
 21
220.25
  0
LINE
  8
0
 10
24.55
 20
220.25
 11
24.5018
 21
219.976
  0
LINE
  8
0
 10
24.5018
 20
219.976
 11
24.3628
 21
219.736
  0
LINE
  8
0
 10
24.3628
 20
219.736
 11
24.15
 21
219.557
  0
LINE
  8
0
 10
24.15
 20
219.557
 11
23.8889
 21
219.462
  0
LINE
  8
0
 10
23.8889
 20
219.462
 11
23.6111
 21
219.462
  0
LINE
  8
0
 10
47.6111
 20
219.462
 11
47.35
 21
219.557
  0
LINE
  8
0
 10
47.35
 20
219.557
 11
47.1372
 21
219.736
  0
LINE
  8
0
 10
47.1372
 20
219.736
 11
46.9982
 21
219.976
  0
LINE
  8
0
 10
46.9982
 20
219.976
 11
46.95
 21
220.25
  0
LINE
  8
0
 10
46.95
 20
220.25
 11
46.9982
 21
220.524
  0
LINE
  8
0
 10
46.9982
 20
220.524
 11
47.1372
 21
220.764
  0
LINE
  8
0
 10
47.1372
 20
220.764
 11
47.35
 21
220.943
  0
LINE
  8
0
 10
47.35
 20
220.943
 11
47.6111
 21
221.038
  0
LINE
  8
0
 10
47.6111
 20
221.038
 11
47.8889
 21
221.038
  0
LINE
  8
0
 10
47.8889
 20
221.038
 11
48.15
 21
220.943
  0
LINE
  8
0
 10
48.15
 20
220.943
 11
48.3628
 21
220.764
  0
LINE
  8
0
 10
48.3628
 20
220.764
 11
48.5018
 21
220.524
  0
LINE
  8
0
 10
48.5018
 20
220.524
 11
48.55
 21
220.25
  0
LINE
  8
0
 10
48.55
 20
220.25
 11
48.5018
 21
219.976
  0
LINE
  8
0
 10
48.5018
 20
219.976
 11
48.3628
 21
219.736
  0
LINE
  8
0
 10
48.3628
 20
219.736
 11
48.15
 21
219.557
  0
LINE
  8
0
 10
48.15
 20
219.557
 11
47.8889
 21
219.462
  0
LINE
  8
0
 10
47.8889
 20
219.462
 11
47.6111
 21
219.462
  0
LINE
  8
0
 10
47.6111
 20
211.462
 11
47.35
 21
211.557
  0
LINE
  8
0
 10
47.35
 20
211.557
 11
47.1372
 21
211.736
  0
LINE
  8
0
 10
47.1372
 20
211.736
 11
46.9982
 21
211.976
  0
LINE
  8
0
 10
46.9982
 20
211.976
 11
46.95
 21
212.25
  0
LINE
  8
0
 10
46.95
 20
212.25
 11
46.9982
 21
212.524
  0
LINE
  8
0
 10
46.9982
 20
212.524
 11
47.1372
 21
212.764
  0
LINE
  8
0
 10
47.1372
 20
212.764
 11
47.35
 21
212.943
  0
LINE
  8
0
 10
47.35
 20
212.943
 11
47.6111
 21
213.038
  0
LINE
  8
0
 10
47.6111
 20
213.038
 11
47.8889
 21
213.038
  0
LINE
  8
0
 10
47.8889
 20
213.038
 11
48.15
 21
212.943
  0
LINE
  8
0
 10
48.15
 20
212.943
 11
48.3628
 21
212.764
  0
LINE
  8
0
 10
48.3628
 20
212.764
 11
48.5018
 21
212.524
  0
LINE
  8
0
 10
48.5018
 20
212.524
 11
48.55
 21
212.25
  0
LINE
  8
0
 10
48.55
 20
212.25
 11
48.5018
 21
211.976
  0
LINE
  8
0
 10
48.5018
 20
211.976
 11
48.3628
 21
211.736
  0
LINE
  8
0
 10
48.3628
 20
211.736
 11
48.15
 21
211.557
  0
LINE
  8
0
 10
48.15
 20
211.557
 11
47.8889
 21
211.462
  0
LINE
  8
0
 10
47.8889
 20
211.462
 11
47.6111
 21
211.462
  0
LINE
  8
0
 10
23.6111
 20
211.462
 11
23.35
 21
211.557
  0
LINE
  8
0
 10
23.35
 20
211.557
 11
23.1372
 21
211.736
  0
LINE
  8
0
 10
23.1372
 20
211.736
 11
22.9982
 21
211.976
  0
LINE
  8
0
 10
22.9982
 20
211.976
 11
22.95
 21
212.25
  0
LINE
  8
0
 10
22.95
 20
212.25
 11
22.9982
 21
212.524
  0
LINE
  8
0
 10
22.9982
 20
212.524
 11
23.1372
 21
212.764
  0
LINE
  8
0
 10
23.1372
 20
212.764
 11
23.35
 21
212.943
  0
LINE
  8
0
 10
23.35
 20
212.943
 11
23.6111
 21
213.038
  0
LINE
  8
0
 10
23.6111
 20
213.038
 11
23.8889
 21
213.038
  0
LINE
  8
0
 10
23.8889
 20
213.038
 11
24.15
 21
212.943
  0
LINE
  8
0
 10
24.15
 20
212.943
 11
24.3628
 21
212.764
  0
LINE
  8
0
 10
24.3628
 20
212.764
 11
24.5018
 21
212.524
  0
LINE
  8
0
 10
24.5018
 20
212.524
 11
24.55
 21
212.25
  0
LINE
  8
0
 10
24.55
 20
212.25
 11
24.5018
 21
211.976
  0
LINE
  8
0
 10
24.5018
 20
211.976
 11
24.3628
 21
211.736
  0
LINE
  8
0
 10
24.3628
 20
211.736
 11
24.15
 21
211.557
  0
LINE
  8
0
 10
24.15
 20
211.557
 11
23.8889
 21
211.462
  0
LINE
  8
0
 10
23.8889
 20
211.462
 11
23.6111
 21
211.462
  0
LINE
  8
0
 10
45.6111
 20
187.462
 11
45.35
 21
187.557
  0
LINE
  8
0
 10
45.35
 20
187.557
 11
45.1372
 21
187.736
  0
LINE
  8
0
 10
45.1372
 20
187.736
 11
44.9982
 21
187.976
  0
LINE
  8
0
 10
44.9982
 20
187.976
 11
44.95
 21
188.25
  0
LINE
  8
0
 10
44.95
 20
188.25
 11
44.9982
 21
188.524
  0
LINE
  8
0
 10
44.9982
 20
188.524
 11
45.1372
 21
188.764
  0
LINE
  8
0
 10
45.1372
 20
188.764
 11
45.35
 21
188.943
  0
LINE
  8
0
 10
45.35
 20
188.943
 11
45.6111
 21
189.038
  0
LINE
  8
0
 10
45.6111
 20
189.038
 11
45.8889
 21
189.038
  0
LINE
  8
0
 10
45.8889
 20
189.038
 11
46.15
 21
188.943
  0
LINE
  8
0
 10
46.15
 20
188.943
 11
46.3628
 21
188.764
  0
LINE
  8
0
 10
46.3628
 20
188.764
 11
46.5018
 21
188.524
  0
LINE
  8
0
 10
46.5018
 20
188.524
 11
46.55
 21
188.25
  0
LINE
  8
0
 10
46.55
 20
188.25
 11
46.5018
 21
187.976
  0
LINE
  8
0
 10
46.5018
 20
187.976
 11
46.3628
 21
187.736
  0
LINE
  8
0
 10
46.3628
 20
187.736
 11
46.15
 21
187.557
  0
LINE
  8
0
 10
46.15
 20
187.557
 11
45.8889
 21
187.462
  0
LINE
  8
0
 10
45.8889
 20
187.462
 11
45.6111
 21
187.462
  0
LINE
  8
0
 10
21.6111
 20
187.462
 11
21.35
 21
187.557
  0
LINE
  8
0
 10
21.35
 20
187.557
 11
21.1372
 21
187.736
  0
LINE
  8
0
 10
21.1372
 20
187.736
 11
20.9982
 21
187.976
  0
LINE
  8
0
 10
20.9982
 20
187.976
 11
20.95
 21
188.25
  0
LINE
  8
0
 10
20.95
 20
188.25
 11
20.9982
 21
188.524
  0
LINE
  8
0
 10
20.9982
 20
188.524
 11
21.1372
 21
188.764
  0
LINE
  8
0
 10
21.1372
 20
188.764
 11
21.35
 21
188.943
  0
LINE
  8
0
 10
21.35
 20
188.943
 11
21.6111
 21
189.038
  0
LINE
  8
0
 10
21.6111
 20
189.038
 11
21.8889
 21
189.038
  0
LINE
  8
0
 10
21.8889
 20
189.038
 11
22.15
 21
188.943
  0
LINE
  8
0
 10
22.15
 20
188.943
 11
22.3628
 21
188.764
  0
LINE
  8
0
 10
22.3628
 20
188.764
 11
22.5018
 21
188.524
  0
LINE
  8
0
 10
22.5018
 20
188.524
 11
22.55
 21
188.25
  0
LINE
  8
0
 10
22.55
 20
188.25
 11
22.5018
 21
187.976
  0
LINE
  8
0
 10
22.5018
 20
187.976
 11
22.3628
 21
187.736
  0
LINE
  8
0
 10
22.3628
 20
187.736
 11
22.15
 21
187.557
  0
LINE
  8
0
 10
22.15
 20
187.557
 11
21.8889
 21
187.462
  0
LINE
  8
0
 10
21.8889
 20
187.462
 11
21.6111
 21
187.462
  0
LINE
  8
0
 10
51.6111
 20
179.462
 11
51.35
 21
179.557
  0
LINE
  8
0
 10
51.35
 20
179.557
 11
51.1372
 21
179.736
  0
LINE
  8
0
 10
51.1372
 20
179.736
 11
50.9982
 21
179.976
  0
LINE
  8
0
 10
50.9982
 20
179.976
 11
50.95
 21
180.25
  0
LINE
  8
0
 10
50.95
 20
180.25
 11
50.9982
 21
180.524
  0
LINE
  8
0
 10
50.9982
 20
180.524
 11
51.1372
 21
180.764
  0
LINE
  8
0
 10
51.1372
 20
180.764
 11
51.35
 21
180.943
  0
LINE
  8
0
 10
51.35
 20
180.943
 11
51.6111
 21
181.038
  0
LINE
  8
0
 10
51.6111
 20
181.038
 11
51.8889
 21
181.038
  0
LINE
  8
0
 10
51.8889
 20
181.038
 11
52.15
 21
180.943
  0
LINE
  8
0
 10
52.15
 20
180.943
 11
52.3628
 21
180.764
  0
LINE
  8
0
 10
52.3628
 20
180.764
 11
52.5018
 21
180.524
  0
LINE
  8
0
 10
52.5018
 20
180.524
 11
52.55
 21
180.25
  0
LINE
  8
0
 10
52.55
 20
180.25
 11
52.5018
 21
179.976
  0
LINE
  8
0
 10
52.5018
 20
179.976
 11
52.3628
 21
179.736
  0
LINE
  8
0
 10
52.3628
 20
179.736
 11
52.15
 21
179.557
  0
LINE
  8
0
 10
52.15
 20
179.557
 11
51.8889
 21
179.462
  0
LINE
  8
0
 10
51.8889
 20
179.462
 11
51.6111
 21
179.462
  0
LINE
  8
0
 10
31.6111
 20
179.462
 11
31.35
 21
179.557
  0
LINE
  8
0
 10
31.35
 20
179.557
 11
31.1372
 21
179.736
  0
LINE
  8
0
 10
31.1372
 20
179.736
 11
30.9982
 21
179.976
  0
LINE
  8
0
 10
30.9982
 20
179.976
 11
30.95
 21
180.25
  0
LINE
  8
0
 10
30.95
 20
180.25
 11
30.9982
 21
180.524
  0
LINE
  8
0
 10
30.9982
 20
180.524
 11
31.1372
 21
180.764
  0
LINE
  8
0
 10
31.1372
 20
180.764
 11
31.35
 21
180.943
  0
LINE
  8
0
 10
31.35
 20
180.943
 11
31.6111
 21
181.038
  0
LINE
  8
0
 10
31.6111
 20
181.038
 11
31.8889
 21
181.038
  0
LINE
  8
0
 10
31.8889
 20
181.038
 11
32.15
 21
180.943
  0
LINE
  8
0
 10
32.15
 20
180.943
 11
32.3628
 21
180.764
  0
LINE
  8
0
 10
32.3628
 20
180.764
 11
32.5018
 21
180.524
  0
LINE
  8
0
 10
32.5018
 20
180.524
 11
32.55
 21
180.25
  0
LINE
  8
0
 10
32.55
 20
180.25
 11
32.5018
 21
179.976
  0
LINE
  8
0
 10
32.5018
 20
179.976
 11
32.3628
 21
179.736
  0
LINE
  8
0
 10
32.3628
 20
179.736
 11
32.15
 21
179.557
  0
LINE
  8
0
 10
32.15
 20
179.557
 11
31.8889
 21
179.462
  0
LINE
  8
0
 10
31.8889
 20
179.462
 11
31.6111
 21
179.462
  0
LINE
  8
0
 10
49.6111
 20
171.462
 11
49.35
 21
171.557
  0
LINE
  8
0
 10
49.35
 20
171.557
 11
49.1372
 21
171.736
  0
LINE
  8
0
 10
49.1372
 20
171.736
 11
48.9982
 21
171.976
  0
LINE
  8
0
 10
48.9982
 20
171.976
 11
48.95
 21
172.25
  0
LINE
  8
0
 10
48.95
 20
172.25
 11
48.9982
 21
172.524
  0
LINE
  8
0
 10
48.9982
 20
172.524
 11
49.1372
 21
172.764
  0
LINE
  8
0
 10
49.1372
 20
172.764
 11
49.35
 21
172.943
  0
LINE
  8
0
 10
49.35
 20
172.943
 11
49.6111
 21
173.038
  0
LINE
  8
0
 10
49.6111
 20
173.038
 11
49.8889
 21
173.038
  0
LINE
  8
0
 10
49.8889
 20
173.038
 11
50.15
 21
172.943
  0
LINE
  8
0
 10
50.15
 20
172.943
 11
50.3628
 21
172.764
  0
LINE
  8
0
 10
50.3628
 20
172.764
 11
50.5018
 21
172.524
  0
LINE
  8
0
 10
50.5018
 20
172.524
 11
50.55
 21
172.25
  0
LINE
  8
0
 10
50.55
 20
172.25
 11
50.5018
 21
171.976
  0
LINE
  8
0
 10
50.5018
 20
171.976
 11
50.3628
 21
171.736
  0
LINE
  8
0
 10
50.3628
 20
171.736
 11
50.15
 21
171.557
  0
LINE
  8
0
 10
50.15
 20
171.557
 11
49.8889
 21
171.462
  0
LINE
  8
0
 10
49.8889
 20
171.462
 11
49.6111
 21
171.462
  0
LINE
  8
0
 10
27.6111
 20
171.462
 11
27.35
 21
171.557
  0
LINE
  8
0
 10
27.35
 20
171.557
 11
27.1372
 21
171.736
  0
LINE
  8
0
 10
27.1372
 20
171.736
 11
26.9982
 21
171.976
  0
LINE
  8
0
 10
26.9982
 20
171.976
 11
26.95
 21
172.25
  0
LINE
  8
0
 10
26.95
 20
172.25
 11
26.9982
 21
172.524
  0
LINE
  8
0
 10
26.9982
 20
172.524
 11
27.1372
 21
172.764
  0
LINE
  8
0
 10
27.1372
 20
172.764
 11
27.35
 21
172.943
  0
LINE
  8
0
 10
27.35
 20
172.943
 11
27.6111
 21
173.038
  0
LINE
  8
0
 10
27.6111
 20
173.038
 11
27.8889
 21
173.038
  0
LINE
  8
0
 10
27.8889
 20
173.038
 11
28.15
 21
172.943
  0
LINE
  8
0
 10
28.15
 20
172.943
 11
28.3628
 21
172.764
  0
LINE
  8
0
 10
28.3628
 20
172.764
 11
28.5018
 21
172.524
  0
LINE
  8
0
 10
28.5018
 20
172.524
 11
28.55
 21
172.25
  0
LINE
  8
0
 10
28.55
 20
172.25
 11
28.5018
 21
171.976
  0
LINE
  8
0
 10
28.5018
 20
171.976
 11
28.3628
 21
171.736
  0
LINE
  8
0
 10
28.3628
 20
171.736
 11
28.15
 21
171.557
  0
LINE
  8
0
 10
28.15
 20
171.557
 11
27.8889
 21
171.462
  0
LINE
  8
0
 10
27.8889
 20
171.462
 11
27.6111
 21
171.462
  0
LINE
  8
0
 10
47.6111
 20
163.462
 11
47.35
 21
163.557
  0
LINE
  8
0
 10
47.35
 20
163.557
 11
47.1372
 21
163.736
  0
LINE
  8
0
 10
47.1372
 20
163.736
 11
46.9982
 21
163.976
  0
LINE
  8
0
 10
46.9982
 20
163.976
 11
46.95
 21
164.25
  0
LINE
  8
0
 10
46.95
 20
164.25
 11
46.9982
 21
164.524
  0
LINE
  8
0
 10
46.9982
 20
164.524
 11
47.1372
 21
164.764
  0
LINE
  8
0
 10
47.1372
 20
164.764
 11
47.35
 21
164.943
  0
LINE
  8
0
 10
47.35
 20
164.943
 11
47.6111
 21
165.038
  0
LINE
  8
0
 10
47.6111
 20
165.038
 11
47.8889
 21
165.038
  0
LINE
  8
0
 10
47.8889
 20
165.038
 11
48.15
 21
164.943
  0
LINE
  8
0
 10
48.15
 20
164.943
 11
48.3628
 21
164.764
  0
LINE
  8
0
 10
48.3628
 20
164.764
 11
48.5018
 21
164.524
  0
LINE
  8
0
 10
48.5018
 20
164.524
 11
48.55
 21
164.25
  0
LINE
  8
0
 10
48.55
 20
164.25
 11
48.5018
 21
163.976
  0
LINE
  8
0
 10
48.5018
 20
163.976
 11
48.3628
 21
163.736
  0
LINE
  8
0
 10
48.3628
 20
163.736
 11
48.15
 21
163.557
  0
LINE
  8
0
 10
48.15
 20
163.557
 11
47.8889
 21
163.462
  0
LINE
  8
0
 10
47.8889
 20
163.462
 11
47.6111
 21
163.462
  0
LINE
  8
0
 10
23.6111
 20
163.462
 11
23.35
 21
163.557
  0
LINE
  8
0
 10
23.35
 20
163.557
 11
23.1372
 21
163.736
  0
LINE
  8
0
 10
23.1372
 20
163.736
 11
22.9982
 21
163.976
  0
LINE
  8
0
 10
22.9982
 20
163.976
 11
22.95
 21
164.25
  0
LINE
  8
0
 10
22.95
 20
164.25
 11
22.9982
 21
164.524
  0
LINE
  8
0
 10
22.9982
 20
164.524
 11
23.1372
 21
164.764
  0
LINE
  8
0
 10
23.1372
 20
164.764
 11
23.35
 21
164.943
  0
LINE
  8
0
 10
23.35
 20
164.943
 11
23.6111
 21
165.038
  0
LINE
  8
0
 10
23.6111
 20
165.038
 11
23.8889
 21
165.038
  0
LINE
  8
0
 10
23.8889
 20
165.038
 11
24.15
 21
164.943
  0
LINE
  8
0
 10
24.15
 20
164.943
 11
24.3628
 21
164.764
  0
LINE
  8
0
 10
24.3628
 20
164.764
 11
24.5018
 21
164.524
  0
LINE
  8
0
 10
24.5018
 20
164.524
 11
24.55
 21
164.25
  0
LINE
  8
0
 10
24.55
 20
164.25
 11
24.5018
 21
163.976
  0
LINE
  8
0
 10
24.5018
 20
163.976
 11
24.3628
 21
163.736
  0
LINE
  8
0
 10
24.3628
 20
163.736
 11
24.15
 21
163.557
  0
LINE
  8
0
 10
24.15
 20
163.557
 11
23.8889
 21
163.462
  0
LINE
  8
0
 10
23.8889
 20
163.462
 11
23.6111
 21
163.462
  0
LINE
  8
0
 10
45.6111
 20
155.462
 11
45.35
 21
155.557
  0
LINE
  8
0
 10
45.35
 20
155.557
 11
45.1372
 21
155.736
  0
LINE
  8
0
 10
45.1372
 20
155.736
 11
44.9982
 21
155.976
  0
LINE
  8
0
 10
44.9982
 20
155.976
 11
44.95
 21
156.25
  0
LINE
  8
0
 10
44.95
 20
156.25
 11
44.9982
 21
156.524
  0
LINE
  8
0
 10
44.9982
 20
156.524
 11
45.1372
 21
156.764
  0
LINE
  8
0
 10
45.1372
 20
156.764
 11
45.35
 21
156.943
  0
LINE
  8
0
 10
45.35
 20
156.943
 11
45.6111
 21
157.038
  0
LINE
  8
0
 10
45.6111
 20
157.038
 11
45.8889
 21
157.038
  0
LINE
  8
0
 10
45.8889
 20
157.038
 11
46.15
 21
156.943
  0
LINE
  8
0
 10
46.15
 20
156.943
 11
46.3628
 21
156.764
  0
LINE
  8
0
 10
46.3628
 20
156.764
 11
46.5018
 21
156.524
  0
LINE
  8
0
 10
46.5018
 20
156.524
 11
46.55
 21
156.25
  0
LINE
  8
0
 10
46.55
 20
156.25
 11
46.5018
 21
155.976
  0
LINE
  8
0
 10
46.5018
 20
155.976
 11
46.3628
 21
155.736
  0
LINE
  8
0
 10
46.3628
 20
155.736
 11
46.15
 21
155.557
  0
LINE
  8
0
 10
46.15
 20
155.557
 11
45.8889
 21
155.462
  0
LINE
  8
0
 10
45.8889
 20
155.462
 11
45.6111
 21
155.462
  0
LINE
  8
0
 10
21.6111
 20
155.462
 11
21.35
 21
155.557
  0
LINE
  8
0
 10
21.35
 20
155.557
 11
21.1372
 21
155.736
  0
LINE
  8
0
 10
21.1372
 20
155.736
 11
20.9982
 21
155.976
  0
LINE
  8
0
 10
20.9982
 20
155.976
 11
20.95
 21
156.25
  0
LINE
  8
0
 10
20.95
 20
156.25
 11
20.9982
 21
156.524
  0
LINE
  8
0
 10
20.9982
 20
156.524
 11
21.1372
 21
156.764
  0
LINE
  8
0
 10
21.1372
 20
156.764
 11
21.35
 21
156.943
  0
LINE
  8
0
 10
21.35
 20
156.943
 11
21.6111
 21
157.038
  0
LINE
  8
0
 10
21.6111
 20
157.038
 11
21.8889
 21
157.038
  0
LINE
  8
0
 10
21.8889
 20
157.038
 11
22.15
 21
156.943
  0
LINE
  8
0
 10
22.15
 20
156.943
 11
22.3628
 21
156.764
  0
LINE
  8
0
 10
22.3628
 20
156.764
 11
22.5018
 21
156.524
  0
LINE
  8
0
 10
22.5018
 20
156.524
 11
22.55
 21
156.25
  0
LINE
  8
0
 10
22.55
 20
156.25
 11
22.5018
 21
155.976
  0
LINE
  8
0
 10
22.5018
 20
155.976
 11
22.3628
 21
155.736
  0
LINE
  8
0
 10
22.3628
 20
155.736
 11
22.15
 21
155.557
  0
LINE
  8
0
 10
22.15
 20
155.557
 11
21.8889
 21
155.462
  0
LINE
  8
0
 10
21.8889
 20
155.462
 11
21.6111
 21
155.462
  0
LINE
  8
0
 10
31.6111
 20
147.462
 11
31.35
 21
147.557
  0
LINE
  8
0
 10
31.35
 20
147.557
 11
31.1372
 21
147.736
  0
LINE
  8
0
 10
31.1372
 20
147.736
 11
30.9982
 21
147.976
  0
LINE
  8
0
 10
30.9982
 20
147.976
 11
30.95
 21
148.25
  0
LINE
  8
0
 10
30.95
 20
148.25
 11
30.9982
 21
148.524
  0
LINE
  8
0
 10
30.9982
 20
148.524
 11
31.1372
 21
148.764
  0
LINE
  8
0
 10
31.1372
 20
148.764
 11
31.35
 21
148.943
  0
LINE
  8
0
 10
31.35
 20
148.943
 11
31.6111
 21
149.038
  0
LINE
  8
0
 10
31.6111
 20
149.038
 11
31.8889
 21
149.038
  0
LINE
  8
0
 10
31.8889
 20
149.038
 11
32.15
 21
148.943
  0
LINE
  8
0
 10
32.15
 20
148.943
 11
32.3628
 21
148.764
  0
LINE
  8
0
 10
32.3628
 20
148.764
 11
32.5018
 21
148.524
  0
LINE
  8
0
 10
32.5018
 20
148.524
 11
32.55
 21
148.25
  0
LINE
  8
0
 10
32.55
 20
148.25
 11
32.5018
 21
147.976
  0
LINE
  8
0
 10
32.5018
 20
147.976
 11
32.3628
 21
147.736
  0
LINE
  8
0
 10
32.3628
 20
147.736
 11
32.15
 21
147.557
  0
LINE
  8
0
 10
32.15
 20
147.557
 11
31.8889
 21
147.462
  0
LINE
  8
0
 10
31.8889
 20
147.462
 11
31.6111
 21
147.462
  0
LINE
  8
0
 10
51.6111
 20
147.462
 11
51.35
 21
147.557
  0
LINE
  8
0
 10
51.35
 20
147.557
 11
51.1372
 21
147.736
  0
LINE
  8
0
 10
51.1372
 20
147.736
 11
50.9982
 21
147.976
  0
LINE
  8
0
 10
50.9982
 20
147.976
 11
50.95
 21
148.25
  0
LINE
  8
0
 10
50.95
 20
148.25
 11
50.9982
 21
148.524
  0
LINE
  8
0
 10
50.9982
 20
148.524
 11
51.1372
 21
148.764
  0
LINE
  8
0
 10
51.1372
 20
148.764
 11
51.35
 21
148.943
  0
LINE
  8
0
 10
51.35
 20
148.943
 11
51.6111
 21
149.038
  0
LINE
  8
0
 10
51.6111
 20
149.038
 11
51.8889
 21
149.038
  0
LINE
  8
0
 10
51.8889
 20
149.038
 11
52.15
 21
148.943
  0
LINE
  8
0
 10
52.15
 20
148.943
 11
52.3628
 21
148.764
  0
LINE
  8
0
 10
52.3628
 20
148.764
 11
52.5018
 21
148.524
  0
LINE
  8
0
 10
52.5018
 20
148.524
 11
52.55
 21
148.25
  0
LINE
  8
0
 10
52.55
 20
148.25
 11
52.5018
 21
147.976
  0
LINE
  8
0
 10
52.5018
 20
147.976
 11
52.3628
 21
147.736
  0
LINE
  8
0
 10
52.3628
 20
147.736
 11
52.15
 21
147.557
  0
LINE
  8
0
 10
52.15
 20
147.557
 11
51.8889
 21
147.462
  0
LINE
  8
0
 10
51.8889
 20
147.462
 11
51.6111
 21
147.462
  0
LINE
  8
0
 10
49.6111
 20
115.462
 11
49.35
 21
115.557
  0
LINE
  8
0
 10
49.35
 20
115.557
 11
49.1372
 21
115.736
  0
LINE
  8
0
 10
49.1372
 20
115.736
 11
48.9982
 21
115.976
  0
LINE
  8
0
 10
48.9982
 20
115.976
 11
48.95
 21
116.25
  0
LINE
  8
0
 10
48.95
 20
116.25
 11
48.9982
 21
116.524
  0
LINE
  8
0
 10
48.9982
 20
116.524
 11
49.1372
 21
116.764
  0
LINE
  8
0
 10
49.1372
 20
116.764
 11
49.35
 21
116.943
  0
LINE
  8
0
 10
49.35
 20
116.943
 11
49.6111
 21
117.038
  0
LINE
  8
0
 10
49.6111
 20
117.038
 11
49.8889
 21
117.038
  0
LINE
  8
0
 10
49.8889
 20
117.038
 11
50.15
 21
116.943
  0
LINE
  8
0
 10
50.15
 20
116.943
 11
50.3628
 21
116.764
  0
LINE
  8
0
 10
50.3628
 20
116.764
 11
50.5018
 21
116.524
  0
LINE
  8
0
 10
50.5018
 20
116.524
 11
50.55
 21
116.25
  0
LINE
  8
0
 10
50.55
 20
116.25
 11
50.5018
 21
115.976
  0
LINE
  8
0
 10
50.5018
 20
115.976
 11
50.3628
 21
115.736
  0
LINE
  8
0
 10
50.3628
 20
115.736
 11
50.15
 21
115.557
  0
LINE
  8
0
 10
50.15
 20
115.557
 11
49.8889
 21
115.462
  0
LINE
  8
0
 10
49.8889
 20
115.462
 11
49.6111
 21
115.462
  0
LINE
  8
0
 10
27.6111
 20
115.462
 11
27.35
 21
115.557
  0
LINE
  8
0
 10
27.35
 20
115.557
 11
27.1372
 21
115.736
  0
LINE
  8
0
 10
27.1372
 20
115.736
 11
26.9982
 21
115.976
  0
LINE
  8
0
 10
26.9982
 20
115.976
 11
26.95
 21
116.25
  0
LINE
  8
0
 10
26.95
 20
116.25
 11
26.9982
 21
116.524
  0
LINE
  8
0
 10
26.9982
 20
116.524
 11
27.1372
 21
116.764
  0
LINE
  8
0
 10
27.1372
 20
116.764
 11
27.35
 21
116.943
  0
LINE
  8
0
 10
27.35
 20
116.943
 11
27.6111
 21
117.038
  0
LINE
  8
0
 10
27.6111
 20
117.038
 11
27.8889
 21
117.038
  0
LINE
  8
0
 10
27.8889
 20
117.038
 11
28.15
 21
116.943
  0
LINE
  8
0
 10
28.15
 20
116.943
 11
28.3628
 21
116.764
  0
LINE
  8
0
 10
28.3628
 20
116.764
 11
28.5018
 21
116.524
  0
LINE
  8
0
 10
28.5018
 20
116.524
 11
28.55
 21
116.25
  0
LINE
  8
0
 10
28.55
 20
116.25
 11
28.5018
 21
115.976
  0
LINE
  8
0
 10
28.5018
 20
115.976
 11
28.3628
 21
115.736
  0
LINE
  8
0
 10
28.3628
 20
115.736
 11
28.15
 21
115.557
  0
LINE
  8
0
 10
28.15
 20
115.557
 11
27.8889
 21
115.462
  0
LINE
  8
0
 10
27.8889
 20
115.462
 11
27.6111
 21
115.462
  0
LINE
  8
0
 10
23.6111
 20
91.4621
 11
23.35
 21
91.5572
  0
LINE
  8
0
 10
23.35
 20
91.5572
 11
23.1372
 21
91.7358
  0
LINE
  8
0
 10
23.1372
 20
91.7358
 11
22.9982
 21
91.9764
  0
LINE
  8
0
 10
22.9982
 20
91.9764
 11
22.95
 21
92.25
  0
LINE
  8
0
 10
22.95
 20
92.25
 11
22.9982
 21
92.5236
  0
LINE
  8
0
 10
22.9982
 20
92.5236
 11
23.1372
 21
92.7642
  0
LINE
  8
0
 10
23.1372
 20
92.7642
 11
23.35
 21
92.9428
  0
LINE
  8
0
 10
23.35
 20
92.9428
 11
23.6111
 21
93.0378
  0
LINE
  8
0
 10
23.6111
 20
93.0378
 11
23.8889
 21
93.0378
  0
LINE
  8
0
 10
23.8889
 20
93.0378
 11
24.15
 21
92.9428
  0
LINE
  8
0
 10
24.15
 20
92.9428
 11
24.3628
 21
92.7642
  0
LINE
  8
0
 10
24.3628
 20
92.7642
 11
24.5018
 21
92.5236
  0
LINE
  8
0
 10
24.5018
 20
92.5236
 11
24.55
 21
92.25
  0
LINE
  8
0
 10
24.55
 20
92.25
 11
24.5018
 21
91.9764
  0
LINE
  8
0
 10
24.5018
 20
91.9764
 11
24.3628
 21
91.7358
  0
LINE
  8
0
 10
24.3628
 20
91.7358
 11
24.15
 21
91.5572
  0
LINE
  8
0
 10
24.15
 20
91.5572
 11
23.8889
 21
91.4621
  0
LINE
  8
0
 10
23.8889
 20
91.4621
 11
23.6111
 21
91.4621
  0
LINE
  8
0
 10
47.6111
 20
91.4621
 11
47.35
 21
91.5572
  0
LINE
  8
0
 10
47.35
 20
91.5572
 11
47.1372
 21
91.7358
  0
LINE
  8
0
 10
47.1372
 20
91.7358
 11
46.9982
 21
91.9764
  0
LINE
  8
0
 10
46.9982
 20
91.9764
 11
46.95
 21
92.25
  0
LINE
  8
0
 10
46.95
 20
92.25
 11
46.9982
 21
92.5236
  0
LINE
  8
0
 10
46.9982
 20
92.5236
 11
47.1372
 21
92.7642
  0
LINE
  8
0
 10
47.1372
 20
92.7642
 11
47.35
 21
92.9428
  0
LINE
  8
0
 10
47.35
 20
92.9428
 11
47.6111
 21
93.0378
  0
LINE
  8
0
 10
47.6111
 20
93.0378
 11
47.8889
 21
93.0378
  0
LINE
  8
0
 10
47.8889
 20
93.0378
 11
48.15
 21
92.9428
  0
LINE
  8
0
 10
48.15
 20
92.9428
 11
48.3628
 21
92.7642
  0
LINE
  8
0
 10
48.3628
 20
92.7642
 11
48.5018
 21
92.5236
  0
LINE
  8
0
 10
48.5018
 20
92.5236
 11
48.55
 21
92.25
  0
LINE
  8
0
 10
48.55
 20
92.25
 11
48.5018
 21
91.9764
  0
LINE
  8
0
 10
48.5018
 20
91.9764
 11
48.3628
 21
91.7358
  0
LINE
  8
0
 10
48.3628
 20
91.7358
 11
48.15
 21
91.5572
  0
LINE
  8
0
 10
48.15
 20
91.5572
 11
47.8889
 21
91.4621
  0
LINE
  8
0
 10
47.8889
 20
91.4621
 11
47.6111
 21
91.4621
  0
LINE
  8
0
 10
47.6111
 20
83.4621
 11
47.35
 21
83.5572
  0
LINE
  8
0
 10
47.35
 20
83.5572
 11
47.1372
 21
83.7358
  0
LINE
  8
0
 10
47.1372
 20
83.7358
 11
46.9982
 21
83.9764
  0
LINE
  8
0
 10
46.9982
 20
83.9764
 11
46.95
 21
84.25
  0
LINE
  8
0
 10
46.95
 20
84.25
 11
46.9982
 21
84.5236
  0
LINE
  8
0
 10
46.9982
 20
84.5236
 11
47.1372
 21
84.7642
  0
LINE
  8
0
 10
47.1372
 20
84.7642
 11
47.35
 21
84.9428
  0
LINE
  8
0
 10
47.35
 20
84.9428
 11
47.6111
 21
85.0378
  0
LINE
  8
0
 10
47.6111
 20
85.0378
 11
47.8889
 21
85.0378
  0
LINE
  8
0
 10
47.8889
 20
85.0378
 11
48.15
 21
84.9428
  0
LINE
  8
0
 10
48.15
 20
84.9428
 11
48.3628
 21
84.7642
  0
LINE
  8
0
 10
48.3628
 20
84.7642
 11
48.5018
 21
84.5236
  0
LINE
  8
0
 10
48.5018
 20
84.5236
 11
48.55
 21
84.25
  0
LINE
  8
0
 10
48.55
 20
84.25
 11
48.5018
 21
83.9764
  0
LINE
  8
0
 10
48.5018
 20
83.9764
 11
48.3628
 21
83.7358
  0
LINE
  8
0
 10
48.3628
 20
83.7358
 11
48.15
 21
83.5572
  0
LINE
  8
0
 10
48.15
 20
83.5572
 11
47.8889
 21
83.4621
  0
LINE
  8
0
 10
47.8889
 20
83.4621
 11
47.6111
 21
83.4621
  0
LINE
  8
0
 10
23.6111
 20
83.4621
 11
23.35
 21
83.5572
  0
LINE
  8
0
 10
23.35
 20
83.5572
 11
23.1372
 21
83.7358
  0
LINE
  8
0
 10
23.1372
 20
83.7358
 11
22.9982
 21
83.9764
  0
LINE
  8
0
 10
22.9982
 20
83.9764
 11
22.95
 21
84.25
  0
LINE
  8
0
 10
22.95
 20
84.25
 11
22.9982
 21
84.5236
  0
LINE
  8
0
 10
22.9982
 20
84.5236
 11
23.1372
 21
84.7642
  0
LINE
  8
0
 10
23.1372
 20
84.7642
 11
23.35
 21
84.9428
  0
LINE
  8
0
 10
23.35
 20
84.9428
 11
23.6111
 21
85.0378
  0
LINE
  8
0
 10
23.6111
 20
85.0378
 11
23.8889
 21
85.0378
  0
LINE
  8
0
 10
23.8889
 20
85.0378
 11
24.15
 21
84.9428
  0
LINE
  8
0
 10
24.15
 20
84.9428
 11
24.3628
 21
84.7642
  0
LINE
  8
0
 10
24.3628
 20
84.7642
 11
24.5018
 21
84.5236
  0
LINE
  8
0
 10
24.5018
 20
84.5236
 11
24.55
 21
84.25
  0
LINE
  8
0
 10
24.55
 20
84.25
 11
24.5018
 21
83.9764
  0
LINE
  8
0
 10
24.5018
 20
83.9764
 11
24.3628
 21
83.7358
  0
LINE
  8
0
 10
24.3628
 20
83.7358
 11
24.15
 21
83.5572
  0
LINE
  8
0
 10
24.15
 20
83.5572
 11
23.8889
 21
83.4621
  0
LINE
  8
0
 10
23.8889
 20
83.4621
 11
23.6111
 21
83.4621
  0
LINE
  8
0
 10
44.9982
 20
60.5236
 11
45.1372
 21
60.7642
  0
LINE
  8
0
 10
45.1372
 20
60.7642
 11
45.35
 21
60.9428
  0
LINE
  8
0
 10
45.35
 20
60.9428
 11
45.6111
 21
61.0378
  0
LINE
  8
0
 10
45.6111
 20
61.0378
 11
45.8889
 21
61.0378
  0
LINE
  8
0
 10
45.8889
 20
61.0378
 11
46.15
 21
60.9428
  0
LINE
  8
0
 10
46.15
 20
60.9428
 11
46.3628
 21
60.7642
  0
LINE
  8
0
 10
46.3628
 20
60.7642
 11
46.5018
 21
60.5236
  0
LINE
  8
0
 10
46.5018
 20
60.5236
 11
46.55
 21
60.25
  0
LINE
  8
0
 10
46.55
 20
60.25
 11
46.5018
 21
59.9764
  0
LINE
  8
0
 10
46.5018
 20
59.9764
 11
46.3628
 21
59.7358
  0
LINE
  8
0
 10
46.3628
 20
59.7358
 11
46.15
 21
59.5572
  0
LINE
  8
0
 10
46.15
 20
59.5572
 11
45.8889
 21
59.4621
  0
LINE
  8
0
 10
45.8889
 20
59.4621
 11
45.6111
 21
59.4621
  0
LINE
  8
0
 10
45.6111
 20
59.4621
 11
45.35
 21
59.5572
  0
LINE
  8
0
 10
45.35
 20
59.5572
 11
45.1372
 21
59.7358
  0
LINE
  8
0
 10
45.1372
 20
59.7358
 11
44.9982
 21
59.9764
  0
LINE
  8
0
 10
44.9982
 20
59.9764
 11
44.95
 21
60.25
  0
LINE
  8
0
 10
44.95
 20
60.25
 11
44.9982
 21
60.5236
  0
LINE
  8
0
 10
21.6111
 20
51.4621
 11
21.35
 21
51.5572
  0
LINE
  8
0
 10
21.35
 20
51.5572
 11
21.1372
 21
51.7358
  0
LINE
  8
0
 10
21.1372
 20
51.7358
 11
20.9982
 21
51.9764
  0
LINE
  8
0
 10
20.9982
 20
51.9764
 11
20.95
 21
52.25
  0
LINE
  8
0
 10
20.95
 20
52.25
 11
20.9982
 21
52.5236
  0
LINE
  8
0
 10
20.9982
 20
52.5236
 11
21.1372
 21
52.7642
  0
LINE
  8
0
 10
21.1372
 20
52.7642
 11
21.35
 21
52.9428
  0
LINE
  8
0
 10
21.35
 20
52.9428
 11
21.6111
 21
53.0378
  0
LINE
  8
0
 10
21.6111
 20
53.0378
 11
21.8889
 21
53.0378
  0
LINE
  8
0
 10
21.8889
 20
53.0378
 11
22.15
 21
52.9428
  0
LINE
  8
0
 10
22.15
 20
52.9428
 11
22.3628
 21
52.7642
  0
LINE
  8
0
 10
22.3628
 20
52.7642
 11
22.5018
 21
52.5236
  0
LINE
  8
0
 10
22.5018
 20
52.5236
 11
22.55
 21
52.25
  0
LINE
  8
0
 10
22.55
 20
52.25
 11
22.5018
 21
51.9764
  0
LINE
  8
0
 10
22.5018
 20
51.9764
 11
22.3628
 21
51.7358
  0
LINE
  8
0
 10
22.3628
 20
51.7358
 11
22.15
 21
51.5572
  0
LINE
  8
0
 10
22.15
 20
51.5572
 11
21.8889
 21
51.4621
  0
LINE
  8
0
 10
21.8889
 20
51.4621
 11
21.6111
 21
51.4621
  0
LINE
  8
0
 10
45.6111
 20
51.4621
 11
45.35
 21
51.5572
  0
LINE
  8
0
 10
45.35
 20
51.5572
 11
45.1372
 21
51.7358
  0
LINE
  8
0
 10
45.1372
 20
51.7358
 11
44.9982
 21
51.9764
  0
LINE
  8
0
 10
44.9982
 20
51.9764
 11
44.95
 21
52.25
  0
LINE
  8
0
 10
44.95
 20
52.25
 11
44.9982
 21
52.5236
  0
LINE
  8
0
 10
44.9982
 20
52.5236
 11
45.1372
 21
52.7642
  0
LINE
  8
0
 10
45.1372
 20
52.7642
 11
45.35
 21
52.9428
  0
LINE
  8
0
 10
45.35
 20
52.9428
 11
45.6111
 21
53.0378
  0
LINE
  8
0
 10
45.6111
 20
53.0378
 11
45.8889
 21
53.0378
  0
LINE
  8
0
 10
45.8889
 20
53.0378
 11
46.15
 21
52.9428
  0
LINE
  8
0
 10
46.15
 20
52.9428
 11
46.3628
 21
52.7642
  0
LINE
  8
0
 10
46.3628
 20
52.7642
 11
46.5018
 21
52.5236
  0
LINE
  8
0
 10
46.5018
 20
52.5236
 11
46.55
 21
52.25
  0
LINE
  8
0
 10
46.55
 20
52.25
 11
46.5018
 21
51.9764
  0
LINE
  8
0
 10
46.5018
 20
51.9764
 11
46.3628
 21
51.7358
  0
LINE
  8
0
 10
46.3628
 20
51.7358
 11
46.15
 21
51.5572
  0
LINE
  8
0
 10
46.15
 20
51.5572
 11
45.8889
 21
51.4621
  0
LINE
  8
0
 10
45.8889
 20
51.4621
 11
45.6111
 21
51.4621
  0
LINE
  8
0
 10
45.6111
 20
43.4621
 11
45.35
 21
43.5572
  0
LINE
  8
0
 10
45.35
 20
43.5572
 11
45.1372
 21
43.7358
  0
LINE
  8
0
 10
45.1372
 20
43.7358
 11
44.9982
 21
43.9764
  0
LINE
  8
0
 10
44.9982
 20
43.9764
 11
44.95
 21
44.25
  0
LINE
  8
0
 10
44.95
 20
44.25
 11
44.9982
 21
44.5236
  0
LINE
  8
0
 10
44.9982
 20
44.5236
 11
45.1372
 21
44.7642
  0
LINE
  8
0
 10
45.1372
 20
44.7642
 11
45.35
 21
44.9428
  0
LINE
  8
0
 10
45.35
 20
44.9428
 11
45.6111
 21
45.0378
  0
LINE
  8
0
 10
45.6111
 20
45.0378
 11
45.8889
 21
45.0378
  0
LINE
  8
0
 10
45.8889
 20
45.0378
 11
46.15
 21
44.9428
  0
LINE
  8
0
 10
46.15
 20
44.9428
 11
46.3628
 21
44.7642
  0
LINE
  8
0
 10
46.3628
 20
44.7642
 11
46.5018
 21
44.5236
  0
LINE
  8
0
 10
46.5018
 20
44.5236
 11
46.55
 21
44.25
  0
LINE
  8
0
 10
46.55
 20
44.25
 11
46.5018
 21
43.9764
  0
LINE
  8
0
 10
46.5018
 20
43.9764
 11
46.3628
 21
43.7358
  0
LINE
  8
0
 10
46.3628
 20
43.7358
 11
46.15
 21
43.5572
  0
LINE
  8
0
 10
46.15
 20
43.5572
 11
45.8889
 21
43.4621
  0
LINE
  8
0
 10
45.8889
 20
43.4621
 11
45.6111
 21
43.4621
  0
LINE
  8
0
 10
21.6111
 20
43.4621
 11
21.35
 21
43.5572
  0
LINE
  8
0
 10
21.35
 20
43.5572
 11
21.1372
 21
43.7358
  0
LINE
  8
0
 10
21.1372
 20
43.7358
 11
20.9982
 21
43.9764
  0
LINE
  8
0
 10
20.9982
 20
43.9764
 11
20.95
 21
44.25
  0
LINE
  8
0
 10
20.95
 20
44.25
 11
20.9982
 21
44.5236
  0
LINE
  8
0
 10
20.9982
 20
44.5236
 11
21.1372
 21
44.7642
  0
LINE
  8
0
 10
21.1372
 20
44.7642
 11
21.35
 21
44.9428
  0
LINE
  8
0
 10
21.35
 20
44.9428
 11
21.6111
 21
45.0378
  0
LINE
  8
0
 10
21.6111
 20
45.0378
 11
21.8889
 21
45.0378
  0
LINE
  8
0
 10
21.8889
 20
45.0378
 11
22.15
 21
44.9428
  0
LINE
  8
0
 10
22.15
 20
44.9428
 11
22.3628
 21
44.7642
  0
LINE
  8
0
 10
22.3628
 20
44.7642
 11
22.5018
 21
44.5236
  0
LINE
  8
0
 10
22.5018
 20
44.5236
 11
22.55
 21
44.25
  0
LINE
  8
0
 10
22.55
 20
44.25
 11
22.5018
 21
43.9764
  0
LINE
  8
0
 10
22.5018
 20
43.9764
 11
22.3628
 21
43.7358
  0
LINE
  8
0
 10
22.3628
 20
43.7358
 11
22.15
 21
43.5572
  0
LINE
  8
0
 10
22.15
 20
43.5572
 11
21.8889
 21
43.4621
  0
LINE
  8
0
 10
21.8889
 20
43.4621
 11
21.6111
 21
43.4621
  0
LINE
  8
0
 10
21.6111
 20
35.4621
 11
21.35
 21
35.5572
  0
LINE
  8
0
 10
21.35
 20
35.5572
 11
21.1372
 21
35.7358
  0
LINE
  8
0
 10
21.1372
 20
35.7358
 11
20.9982
 21
35.9764
  0
LINE
  8
0
 10
20.9982
 20
35.9764
 11
20.95
 21
36.25
  0
LINE
  8
0
 10
20.95
 20
36.25
 11
20.9982
 21
36.5236
  0
LINE
  8
0
 10
20.9982
 20
36.5236
 11
21.1372
 21
36.7642
  0
LINE
  8
0
 10
21.1372
 20
36.7642
 11
21.35
 21
36.9428
  0
LINE
  8
0
 10
21.35
 20
36.9428
 11
21.6111
 21
37.0378
  0
LINE
  8
0
 10
21.6111
 20
37.0378
 11
21.8889
 21
37.0378
  0
LINE
  8
0
 10
21.8889
 20
37.0378
 11
22.15
 21
36.9428
  0
LINE
  8
0
 10
22.15
 20
36.9428
 11
22.3628
 21
36.7642
  0
LINE
  8
0
 10
22.3628
 20
36.7642
 11
22.5018
 21
36.5236
  0
LINE
  8
0
 10
22.5018
 20
36.5236
 11
22.55
 21
36.25
  0
LINE
  8
0
 10
22.55
 20
36.25
 11
22.5018
 21
35.9764
  0
LINE
  8
0
 10
22.5018
 20
35.9764
 11
22.3628
 21
35.7358
  0
LINE
  8
0
 10
22.3628
 20
35.7358
 11
22.15
 21
35.5572
  0
LINE
  8
0
 10
22.15
 20
35.5572
 11
21.8889
 21
35.4621
  0
LINE
  8
0
 10
21.8889
 20
35.4621
 11
21.6111
 21
35.4621
  0
LINE
  8
0
 10
45.6111
 20
35.4621
 11
45.35
 21
35.5572
  0
LINE
  8
0
 10
45.35
 20
35.5572
 11
45.1372
 21
35.7358
  0
LINE
  8
0
 10
45.1372
 20
35.7358
 11
44.9982
 21
35.9764
  0
LINE
  8
0
 10
44.9982
 20
35.9764
 11
44.95
 21
36.25
  0
LINE
  8
0
 10
44.95
 20
36.25
 11
44.9982
 21
36.5236
  0
LINE
  8
0
 10
44.9982
 20
36.5236
 11
45.1372
 21
36.7642
  0
LINE
  8
0
 10
45.1372
 20
36.7642
 11
45.35
 21
36.9428
  0
LINE
  8
0
 10
45.35
 20
36.9428
 11
45.6111
 21
37.0378
  0
LINE
  8
0
 10
45.6111
 20
37.0378
 11
45.8889
 21
37.0378
  0
LINE
  8
0
 10
45.8889
 20
37.0378
 11
46.15
 21
36.9428
  0
LINE
  8
0
 10
46.15
 20
36.9428
 11
46.3628
 21
36.7642
  0
LINE
  8
0
 10
46.3628
 20
36.7642
 11
46.5018
 21
36.5236
  0
LINE
  8
0
 10
46.5018
 20
36.5236
 11
46.55
 21
36.25
  0
LINE
  8
0
 10
46.55
 20
36.25
 11
46.5018
 21
35.9764
  0
LINE
  8
0
 10
46.5018
 20
35.9764
 11
46.3628
 21
35.7358
  0
LINE
  8
0
 10
46.3628
 20
35.7358
 11
46.15
 21
35.5572
  0
LINE
  8
0
 10
46.15
 20
35.5572
 11
45.8889
 21
35.4621
  0
LINE
  8
0
 10
45.8889
 20
35.4621
 11
45.6111
 21
35.4621
  0
LINE
  8
0
 10
21.6111
 20
27.4621
 11
21.35
 21
27.5572
  0
LINE
  8
0
 10
21.35
 20
27.5572
 11
21.1372
 21
27.7358
  0
LINE
  8
0
 10
21.1372
 20
27.7358
 11
20.9982
 21
27.9764
  0
LINE
  8
0
 10
20.9982
 20
27.9764
 11
20.95
 21
28.25
  0
LINE
  8
0
 10
20.95
 20
28.25
 11
20.9982
 21
28.5236
  0
LINE
  8
0
 10
20.9982
 20
28.5236
 11
21.1372
 21
28.7642
  0
LINE
  8
0
 10
21.1372
 20
28.7642
 11
21.35
 21
28.9428
  0
LINE
  8
0
 10
21.35
 20
28.9428
 11
21.6111
 21
29.0378
  0
LINE
  8
0
 10
21.6111
 20
29.0378
 11
21.8889
 21
29.0378
  0
LINE
  8
0
 10
21.8889
 20
29.0378
 11
22.15
 21
28.9428
  0
LINE
  8
0
 10
22.15
 20
28.9428
 11
22.3628
 21
28.7642
  0
LINE
  8
0
 10
22.3628
 20
28.7642
 11
22.5018
 21
28.5236
  0
LINE
  8
0
 10
22.5018
 20
28.5236
 11
22.55
 21
28.25
  0
LINE
  8
0
 10
22.55
 20
28.25
 11
22.5018
 21
27.9764
  0
LINE
  8
0
 10
22.5018
 20
27.9764
 11
22.3628
 21
27.7358
  0
LINE
  8
0
 10
22.3628
 20
27.7358
 11
22.15
 21
27.5572
  0
LINE
  8
0
 10
22.15
 20
27.5572
 11
21.8889
 21
27.4621
  0
LINE
  8
0
 10
21.8889
 20
27.4621
 11
21.6111
 21
27.4621
  0
LINE
  8
0
 10
45.6111
 20
27.4621
 11
45.35
 21
27.5572
  0
LINE
  8
0
 10
45.35
 20
27.5572
 11
45.1372
 21
27.7358
  0
LINE
  8
0
 10
45.1372
 20
27.7358
 11
44.9982
 21
27.9764
  0
LINE
  8
0
 10
44.9982
 20
27.9764
 11
44.95
 21
28.25
  0
LINE
  8
0
 10
44.95
 20
28.25
 11
44.9982
 21
28.5236
  0
LINE
  8
0
 10
44.9982
 20
28.5236
 11
45.1372
 21
28.7642
  0
LINE
  8
0
 10
45.1372
 20
28.7642
 11
45.35
 21
28.9428
  0
LINE
  8
0
 10
45.35
 20
28.9428
 11
45.6111
 21
29.0378
  0
LINE
  8
0
 10
45.6111
 20
29.0378
 11
45.8889
 21
29.0378
  0
LINE
  8
0
 10
45.8889
 20
29.0378
 11
46.15
 21
28.9428
  0
LINE
  8
0
 10
46.15
 20
28.9428
 11
46.3628
 21
28.7642
  0
LINE
  8
0
 10
46.3628
 20
28.7642
 11
46.5018
 21
28.5236
  0
LINE
  8
0
 10
46.5018
 20
28.5236
 11
46.55
 21
28.25
  0
LINE
  8
0
 10
46.55
 20
28.25
 11
46.5018
 21
27.9764
  0
LINE
  8
0
 10
46.5018
 20
27.9764
 11
46.3628
 21
27.7358
  0
LINE
  8
0
 10
46.3628
 20
27.7358
 11
46.15
 21
27.5572
  0
LINE
  8
0
 10
46.15
 20
27.5572
 11
45.8889
 21
27.4621
  0
LINE
  8
0
 10
45.8889
 20
27.4621
 11
45.6111
 21
27.4621
  0
LINE
  8
0
 10
45.6111
 20
19.4621
 11
45.35
 21
19.5572
  0
LINE
  8
0
 10
45.35
 20
19.5572
 11
45.1372
 21
19.7358
  0
LINE
  8
0
 10
45.1372
 20
19.7358
 11
44.9982
 21
19.9764
  0
LINE
  8
0
 10
44.9982
 20
19.9764
 11
44.95
 21
20.25
  0
LINE
  8
0
 10
44.95
 20
20.25
 11
44.9982
 21
20.5236
  0
LINE
  8
0
 10
44.9982
 20
20.5236
 11
45.1372
 21
20.7642
  0
LINE
  8
0
 10
45.1372
 20
20.7642
 11
45.35
 21
20.9428
  0
LINE
  8
0
 10
45.35
 20
20.9428
 11
45.6111
 21
21.0378
  0
LINE
  8
0
 10
45.6111
 20
21.0378
 11
45.8889
 21
21.0378
  0
LINE
  8
0
 10
45.8889
 20
21.0378
 11
46.15
 21
20.9428
  0
LINE
  8
0
 10
46.15
 20
20.9428
 11
46.3628
 21
20.7642
  0
LINE
  8
0
 10
46.3628
 20
20.7642
 11
46.5018
 21
20.5236
  0
LINE
  8
0
 10
46.5018
 20
20.5236
 11
46.55
 21
20.25
  0
LINE
  8
0
 10
46.55
 20
20.25
 11
46.5018
 21
19.9764
  0
LINE
  8
0
 10
46.5018
 20
19.9764
 11
46.3628
 21
19.7358
  0
LINE
  8
0
 10
46.3628
 20
19.7358
 11
46.15
 21
19.5572
  0
LINE
  8
0
 10
46.15
 20
19.5572
 11
45.8889
 21
19.4621
  0
LINE
  8
0
 10
45.8889
 20
19.4621
 11
45.6111
 21
19.4621
  0
LINE
  8
0
 10
21.6111
 20
19.4621
 11
21.35
 21
19.5572
  0
LINE
  8
0
 10
21.35
 20
19.5572
 11
21.1372
 21
19.7358
  0
LINE
  8
0
 10
21.1372
 20
19.7358
 11
20.9982
 21
19.9764
  0
LINE
  8
0
 10
20.9982
 20
19.9764
 11
20.95
 21
20.25
  0
LINE
  8
0
 10
20.95
 20
20.25
 11
20.9982
 21
20.5236
  0
LINE
  8
0
 10
20.9982
 20
20.5236
 11
21.1372
 21
20.7642
  0
LINE
  8
0
 10
21.1372
 20
20.7642
 11
21.35
 21
20.9428
  0
LINE
  8
0
 10
21.35
 20
20.9428
 11
21.6111
 21
21.0378
  0
LINE
  8
0
 10
21.6111
 20
21.0378
 11
21.8889
 21
21.0378
  0
LINE
  8
0
 10
21.8889
 20
21.0378
 11
22.15
 21
20.9428
  0
LINE
  8
0
 10
22.15
 20
20.9428
 11
22.3628
 21
20.7642
  0
LINE
  8
0
 10
22.3628
 20
20.7642
 11
22.5018
 21
20.5236
  0
LINE
  8
0
 10
22.5018
 20
20.5236
 11
22.55
 21
20.25
  0
LINE
  8
0
 10
22.55
 20
20.25
 11
22.5018
 21
19.9764
  0
LINE
  8
0
 10
22.5018
 20
19.9764
 11
22.3628
 21
19.7358
  0
LINE
  8
0
 10
22.3628
 20
19.7358
 11
22.15
 21
19.5572
  0
LINE
  8
0
 10
22.15
 20
19.5572
 11
21.8889
 21
19.4621
  0
LINE
  8
0
 10
21.8889
 20
19.4621
 11
21.6111
 21
19.4621
  0
LINE
  8
0
 10
22.15
 20
59.5572
 11
21.8889
 21
59.4621
  0
LINE
  8
0
 10
21.8889
 20
59.4621
 11
21.6111
 21
59.4621
  0
LINE
  8
0
 10
21.6111
 20
59.4621
 11
21.35
 21
59.5572
  0
LINE
  8
0
 10
21.35
 20
59.5572
 11
21.1372
 21
59.7358
  0
LINE
  8
0
 10
21.1372
 20
59.7358
 11
20.9982
 21
59.9764
  0
LINE
  8
0
 10
20.9982
 20
59.9764
 11
20.95
 21
60.25
  0
LINE
  8
0
 10
20.95
 20
60.25
 11
20.9982
 21
60.5236
  0
LINE
  8
0
 10
20.9982
 20
60.5236
 11
21.1372
 21
60.7642
  0
LINE
  8
0
 10
21.1372
 20
60.7642
 11
21.35
 21
60.9428
  0
LINE
  8
0
 10
21.35
 20
60.9428
 11
21.6111
 21
61.0378
  0
LINE
  8
0
 10
21.6111
 20
61.0378
 11
21.8889
 21
61.0378
  0
LINE
  8
0
 10
21.8889
 20
61.0378
 11
22.15
 21
60.9428
  0
LINE
  8
0
 10
22.15
 20
60.9428
 11
22.3628
 21
60.7642
  0
LINE
  8
0
 10
22.3628
 20
60.7642
 11
22.5018
 21
60.5236
  0
LINE
  8
0
 10
22.5018
 20
60.5236
 11
22.55
 21
60.25
  0
LINE
  8
0
 10
22.55
 20
60.25
 11
22.5018
 21
59.9764
  0
LINE
  8
0
 10
22.5018
 20
59.9764
 11
22.3628
 21
59.7358
  0
LINE
  8
0
 10
22.3628
 20
59.7358
 11
22.15
 21
59.5572
  0
ENDSEC
  0
SECTION
  2
OBJECTS
  0
DICTIONARY
  0
ENDSEC
  0
EOF
