  0
SECTION
  2
BLOCKS
  0
ENDSEC
  0
SECTION
  2
ENTITIES
  0
LINE
  8
0
 10
41
 20
1800
 11
0
 21
1800
  0
LINE
  8
0
 10
0
 20
1800
 11
0
 21
900
  0
LINE
  8
0
 10
0
 20
900
 11
41
 21
900
  0
LINE
  8
0
 10
41
 20
900
 11
41
 21
1800
  0
LINE
  8
0
 10
8.79161
 20
1611.82
 11
8.39999
 21
1611.96
  0
LINE
  8
0
 10
8.39999
 20
1611.96
 11
8.08073
 21
1612.23
  0
LINE
  8
0
 10
8.08073
 20
1612.23
 11
7.87236
 21
1612.59
  0
LINE
  8
0
 10
7.87236
 20
1612.59
 11
7.79999
 21
1613
  0
LINE
  8
0
 10
7.79999
 20
1613
 11
7.87236
 21
1613.41
  0
LINE
  8
0
 10
7.87236
 20
1613.41
 11
8.08073
 21
1613.77
  0
LINE
  8
0
 10
8.08073
 20
1613.77
 11
8.39999
 21
1614.04
  0
LINE
  8
0
 10
8.39999
 20
1614.04
 11
8.79161
 21
1614.18
  0
LINE
  8
0
 10
8.79161
 20
1614.18
 11
9.20837
 21
1614.18
  0
LINE
  8
0
 10
9.20837
 20
1614.18
 11
9.59999
 21
1614.04
  0
LINE
  8
0
 10
9.59999
 20
1614.04
 11
9.91925
 21
1613.77
  0
LINE
  8
0
 10
9.91925
 20
1613.77
 11
10.1276
 21
1613.41
  0
LINE
  8
0
 10
10.1276
 20
1613.41
 11
10.2
 21
1613
  0
LINE
  8
0
 10
10.2
 20
1613
 11
10.1276
 21
1612.59
  0
LINE
  8
0
 10
10.1276
 20
1612.59
 11
9.91925
 21
1612.23
  0
LINE
  8
0
 10
9.91925
 20
1612.23
 11
9.59999
 21
1611.96
  0
LINE
  8
0
 10
9.59999
 20
1611.96
 11
9.20837
 21
1611.82
  0
LINE
  8
0
 10
9.20837
 20
1611.82
 11
8.79161
 21
1611.82
  0
LINE
  8
0
 10
12.7916
 20
1601.15
 11
12.4
 21
1601.29
  0
LINE
  8
0
 10
12.4
 20
1601.29
 11
12.0807
 21
1601.56
  0
LINE
  8
0
 10
12.0807
 20
1601.56
 11
11.8724
 21
1601.92
  0
LINE
  8
0
 10
11.8724
 20
1601.92
 11
11.8
 21
1602.33
  0
LINE
  8
0
 10
11.8
 20
1602.33
 11
11.8724
 21
1602.74
  0
LINE
  8
0
 10
11.8724
 20
1602.74
 11
12.0807
 21
1603.1
  0
LINE
  8
0
 10
12.0807
 20
1603.1
 11
12.4
 21
1603.37
  0
LINE
  8
0
 10
12.4
 20
1603.37
 11
12.7916
 21
1603.52
  0
LINE
  8
0
 10
12.7916
 20
1603.52
 11
13.2084
 21
1603.52
  0
LINE
  8
0
 10
13.2084
 20
1603.52
 11
13.6
 21
1603.37
  0
LINE
  8
0
 10
13.6
 20
1603.37
 11
13.9193
 21
1603.1
  0
LINE
  8
0
 10
13.9193
 20
1603.1
 11
14.1276
 21
1602.74
  0
LINE
  8
0
 10
14.1276
 20
1602.74
 11
14.2
 21
1602.33
  0
LINE
  8
0
 10
14.2
 20
1602.33
 11
14.1276
 21
1601.92
  0
LINE
  8
0
 10
14.1276
 20
1601.92
 11
13.9193
 21
1601.56
  0
LINE
  8
0
 10
13.9193
 20
1601.56
 11
13.6
 21
1601.29
  0
LINE
  8
0
 10
13.6
 20
1601.29
 11
13.2084
 21
1601.15
  0
LINE
  8
0
 10
13.2084
 20
1601.15
 11
12.7916
 21
1601.15
  0
LINE
  8
0
 10
10.7916
 20
1590.48
 11
10.4
 21
1590.63
  0
LINE
  8
0
 10
10.4
 20
1590.63
 11
10.0807
 21
1590.9
  0
LINE
  8
0
 10
10.0807
 20
1590.9
 11
9.87236
 21
1591.26
  0
LINE
  8
0
 10
9.87236
 20
1591.26
 11
9.79999
 21
1591.67
  0
LINE
  8
0
 10
9.79999
 20
1591.67
 11
9.87236
 21
1592.08
  0
LINE
  8
0
 10
9.87236
 20
1592.08
 11
10.0807
 21
1592.44
  0
LINE
  8
0
 10
10.0807
 20
1592.44
 11
10.4
 21
1592.71
  0
LINE
  8
0
 10
10.4
 20
1592.71
 11
10.7916
 21
1592.85
  0
LINE
  8
0
 10
10.7916
 20
1592.85
 11
11.2084
 21
1592.85
  0
LINE
  8
0
 10
11.2084
 20
1592.85
 11
11.6
 21
1592.71
  0
LINE
  8
0
 10
11.6
 20
1592.71
 11
11.9193
 21
1592.44
  0
LINE
  8
0
 10
11.9193
 20
1592.44
 11
12.1276
 21
1592.08
  0
LINE
  8
0
 10
12.1276
 20
1592.08
 11
12.2
 21
1591.67
  0
LINE
  8
0
 10
12.2
 20
1591.67
 11
12.1276
 21
1591.26
  0
LINE
  8
0
 10
12.1276
 20
1591.26
 11
11.9193
 21
1590.9
  0
LINE
  8
0
 10
11.9193
 20
1590.9
 11
11.6
 21
1590.63
  0
LINE
  8
0
 10
11.6
 20
1590.63
 11
11.2084
 21
1590.48
  0
LINE
  8
0
 10
11.2084
 20
1590.48
 11
10.7916
 21
1590.48
  0
LINE
  8
0
 10
8.79161
 20
1579.82
 11
8.39999
 21
1579.96
  0
LINE
  8
0
 10
8.39999
 20
1579.96
 11
8.08073
 21
1580.23
  0
LINE
  8
0
 10
8.08073
 20
1580.23
 11
7.87236
 21
1580.59
  0
LINE
  8
0
 10
7.87236
 20
1580.59
 11
7.79999
 21
1581
  0
LINE
  8
0
 10
7.79999
 20
1581
 11
7.87236
 21
1581.41
  0
LINE
  8
0
 10
7.87236
 20
1581.41
 11
8.08073
 21
1581.77
  0
LINE
  8
0
 10
8.08073
 20
1581.77
 11
8.39999
 21
1582.04
  0
LINE
  8
0
 10
8.39999
 20
1582.04
 11
8.79161
 21
1582.18
  0
LINE
  8
0
 10
8.79161
 20
1582.18
 11
9.20837
 21
1582.18
  0
LINE
  8
0
 10
9.20837
 20
1582.18
 11
9.59999
 21
1582.04
  0
LINE
  8
0
 10
9.59999
 20
1582.04
 11
9.91925
 21
1581.77
  0
LINE
  8
0
 10
9.91925
 20
1581.77
 11
10.1276
 21
1581.41
  0
LINE
  8
0
 10
10.1276
 20
1581.41
 11
10.2
 21
1581
  0
LINE
  8
0
 10
10.2
 20
1581
 11
10.1276
 21
1580.59
  0
LINE
  8
0
 10
10.1276
 20
1580.59
 11
9.91925
 21
1580.23
  0
LINE
  8
0
 10
9.91925
 20
1580.23
 11
9.59999
 21
1579.96
  0
LINE
  8
0
 10
9.59999
 20
1579.96
 11
9.20837
 21
1579.82
  0
LINE
  8
0
 10
9.20837
 20
1579.82
 11
8.79161
 21
1579.82
  0
LINE
  8
0
 10
14.7916
 20
1539.82
 11
14.4
 21
1539.96
  0
LINE
  8
0
 10
14.4
 20
1539.96
 11
14.0807
 21
1540.23
  0
LINE
  8
0
 10
14.0807
 20
1540.23
 11
13.8724
 21
1540.59
  0
LINE
  8
0
 10
13.8724
 20
1540.59
 11
13.8
 21
1541
  0
LINE
  8
0
 10
13.8
 20
1541
 11
13.8724
 21
1541.41
  0
LINE
  8
0
 10
13.8724
 20
1541.41
 11
14.0807
 21
1541.77
  0
LINE
  8
0
 10
14.0807
 20
1541.77
 11
14.4
 21
1542.04
  0
LINE
  8
0
 10
14.4
 20
1542.04
 11
14.7916
 21
1542.18
  0
LINE
  8
0
 10
14.7916
 20
1542.18
 11
15.2084
 21
1542.18
  0
LINE
  8
0
 10
15.2084
 20
1542.18
 11
15.6
 21
1542.04
  0
LINE
  8
0
 10
15.6
 20
1542.04
 11
15.9193
 21
1541.77
  0
LINE
  8
0
 10
15.9193
 20
1541.77
 11
16.1276
 21
1541.41
  0
LINE
  8
0
 10
16.1276
 20
1541.41
 11
16.2
 21
1541
  0
LINE
  8
0
 10
16.2
 20
1541
 11
16.1276
 21
1540.59
  0
LINE
  8
0
 10
16.1276
 20
1540.59
 11
15.9193
 21
1540.23
  0
LINE
  8
0
 10
15.9193
 20
1540.23
 11
15.6
 21
1539.96
  0
LINE
  8
0
 10
15.6
 20
1539.96
 11
15.2084
 21
1539.82
  0
LINE
  8
0
 10
15.2084
 20
1539.82
 11
14.7916
 21
1539.82
  0
LINE
  8
0
 10
12.7916
 20
1531.82
 11
12.4
 21
1531.96
  0
LINE
  8
0
 10
12.4
 20
1531.96
 11
12.0807
 21
1532.23
  0
LINE
  8
0
 10
12.0807
 20
1532.23
 11
11.8724
 21
1532.59
  0
LINE
  8
0
 10
11.8724
 20
1532.59
 11
11.8
 21
1533
  0
LINE
  8
0
 10
11.8
 20
1533
 11
11.8724
 21
1533.41
  0
LINE
  8
0
 10
11.8724
 20
1533.41
 11
12.0807
 21
1533.77
  0
LINE
  8
0
 10
12.0807
 20
1533.77
 11
12.4
 21
1534.04
  0
LINE
  8
0
 10
12.4
 20
1534.04
 11
12.7916
 21
1534.18
  0
LINE
  8
0
 10
12.7916
 20
1534.18
 11
13.2084
 21
1534.18
  0
LINE
  8
0
 10
13.2084
 20
1534.18
 11
13.6
 21
1534.04
  0
LINE
  8
0
 10
13.6
 20
1534.04
 11
13.9193
 21
1533.77
  0
LINE
  8
0
 10
13.9193
 20
1533.77
 11
14.1276
 21
1533.41
  0
LINE
  8
0
 10
14.1276
 20
1533.41
 11
14.2
 21
1533
  0
LINE
  8
0
 10
14.2
 20
1533
 11
14.1276
 21
1532.59
  0
LINE
  8
0
 10
14.1276
 20
1532.59
 11
13.9193
 21
1532.23
  0
LINE
  8
0
 10
13.9193
 20
1532.23
 11
13.6
 21
1531.96
  0
LINE
  8
0
 10
13.6
 20
1531.96
 11
13.2084
 21
1531.82
  0
LINE
  8
0
 10
13.2084
 20
1531.82
 11
12.7916
 21
1531.82
  0
LINE
  8
0
 10
10.7916
 20
1523.82
 11
10.4
 21
1523.96
  0
LINE
  8
0
 10
10.4
 20
1523.96
 11
10.0807
 21
1524.23
  0
LINE
  8
0
 10
10.0807
 20
1524.23
 11
9.87236
 21
1524.59
  0
LINE
  8
0
 10
9.87236
 20
1524.59
 11
9.79999
 21
1525
  0
LINE
  8
0
 10
9.79999
 20
1525
 11
9.87236
 21
1525.41
  0
LINE
  8
0
 10
9.87236
 20
1525.41
 11
10.0807
 21
1525.77
  0
LINE
  8
0
 10
10.0807
 20
1525.77
 11
10.4
 21
1526.04
  0
LINE
  8
0
 10
10.4
 20
1526.04
 11
10.7916
 21
1526.18
  0
LINE
  8
0
 10
10.7916
 20
1526.18
 11
11.2084
 21
1526.18
  0
LINE
  8
0
 10
11.2084
 20
1526.18
 11
11.6
 21
1526.04
  0
LINE
  8
0
 10
11.6
 20
1526.04
 11
11.9193
 21
1525.77
  0
LINE
  8
0
 10
11.9193
 20
1525.77
 11
12.1276
 21
1525.41
  0
LINE
  8
0
 10
12.1276
 20
1525.41
 11
12.2
 21
1525
  0
LINE
  8
0
 10
12.2
 20
1525
 11
12.1276
 21
1524.59
  0
LINE
  8
0
 10
12.1276
 20
1524.59
 11
11.9193
 21
1524.23
  0
LINE
  8
0
 10
11.9193
 20
1524.23
 11
11.6
 21
1523.96
  0
LINE
  8
0
 10
11.6
 20
1523.96
 11
11.2084
 21
1523.82
  0
LINE
  8
0
 10
11.2084
 20
1523.82
 11
10.7916
 21
1523.82
  0
LINE
  8
0
 10
8.79161
 20
1515.82
 11
8.39999
 21
1515.96
  0
LINE
  8
0
 10
8.39999
 20
1515.96
 11
8.08073
 21
1516.23
  0
LINE
  8
0
 10
8.08073
 20
1516.23
 11
7.87236
 21
1516.59
  0
LINE
  8
0
 10
7.87236
 20
1516.59
 11
7.79999
 21
1517
  0
LINE
  8
0
 10
7.79999
 20
1517
 11
7.87236
 21
1517.41
  0
LINE
  8
0
 10
7.87236
 20
1517.41
 11
8.08073
 21
1517.77
  0
LINE
  8
0
 10
8.08073
 20
1517.77
 11
8.39999
 21
1518.04
  0
LINE
  8
0
 10
8.39999
 20
1518.04
 11
8.79161
 21
1518.18
  0
LINE
  8
0
 10
8.79161
 20
1518.18
 11
9.20837
 21
1518.18
  0
LINE
  8
0
 10
9.20837
 20
1518.18
 11
9.59999
 21
1518.04
  0
LINE
  8
0
 10
9.59999
 20
1518.04
 11
9.91925
 21
1517.77
  0
LINE
  8
0
 10
9.91925
 20
1517.77
 11
10.1276
 21
1517.41
  0
LINE
  8
0
 10
10.1276
 20
1517.41
 11
10.2
 21
1517
  0
LINE
  8
0
 10
10.2
 20
1517
 11
10.1276
 21
1516.59
  0
LINE
  8
0
 10
10.1276
 20
1516.59
 11
9.91925
 21
1516.23
  0
LINE
  8
0
 10
9.91925
 20
1516.23
 11
9.59999
 21
1515.96
  0
LINE
  8
0
 10
9.59999
 20
1515.96
 11
9.20837
 21
1515.82
  0
LINE
  8
0
 10
9.20837
 20
1515.82
 11
8.79161
 21
1515.82
  0
LINE
  8
0
 10
14.7916
 20
1507.82
 11
14.4
 21
1507.96
  0
LINE
  8
0
 10
14.4
 20
1507.96
 11
14.0807
 21
1508.23
  0
LINE
  8
0
 10
14.0807
 20
1508.23
 11
13.8724
 21
1508.59
  0
LINE
  8
0
 10
13.8724
 20
1508.59
 11
13.8
 21
1509
  0
LINE
  8
0
 10
13.8
 20
1509
 11
13.8724
 21
1509.41
  0
LINE
  8
0
 10
13.8724
 20
1509.41
 11
14.0807
 21
1509.77
  0
LINE
  8
0
 10
14.0807
 20
1509.77
 11
14.4
 21
1510.04
  0
LINE
  8
0
 10
14.4
 20
1510.04
 11
14.7916
 21
1510.18
  0
LINE
  8
0
 10
14.7916
 20
1510.18
 11
15.2084
 21
1510.18
  0
LINE
  8
0
 10
15.2084
 20
1510.18
 11
15.6
 21
1510.04
  0
LINE
  8
0
 10
15.6
 20
1510.04
 11
15.9193
 21
1509.77
  0
LINE
  8
0
 10
15.9193
 20
1509.77
 11
16.1276
 21
1509.41
  0
LINE
  8
0
 10
16.1276
 20
1509.41
 11
16.2
 21
1509
  0
LINE
  8
0
 10
16.2
 20
1509
 11
16.1276
 21
1508.59
  0
LINE
  8
0
 10
16.1276
 20
1508.59
 11
15.9193
 21
1508.23
  0
LINE
  8
0
 10
15.9193
 20
1508.23
 11
15.6
 21
1507.96
  0
LINE
  8
0
 10
15.6
 20
1507.96
 11
15.2084
 21
1507.82
  0
LINE
  8
0
 10
15.2084
 20
1507.82
 11
14.7916
 21
1507.82
  0
LINE
  8
0
 10
14.7916
 20
1499.82
 11
14.4
 21
1499.96
  0
LINE
  8
0
 10
14.4
 20
1499.96
 11
14.0807
 21
1500.23
  0
LINE
  8
0
 10
14.0807
 20
1500.23
 11
13.8724
 21
1500.59
  0
LINE
  8
0
 10
13.8724
 20
1500.59
 11
13.8
 21
1501
  0
LINE
  8
0
 10
13.8
 20
1501
 11
13.8724
 21
1501.41
  0
LINE
  8
0
 10
13.8724
 20
1501.41
 11
14.0807
 21
1501.77
  0
LINE
  8
0
 10
14.0807
 20
1501.77
 11
14.4
 21
1502.04
  0
LINE
  8
0
 10
14.4
 20
1502.04
 11
14.7916
 21
1502.18
  0
LINE
  8
0
 10
14.7916
 20
1502.18
 11
15.2084
 21
1502.18
  0
LINE
  8
0
 10
15.2084
 20
1502.18
 11
15.6
 21
1502.04
  0
LINE
  8
0
 10
15.6
 20
1502.04
 11
15.9193
 21
1501.77
  0
LINE
  8
0
 10
15.9193
 20
1501.77
 11
16.1276
 21
1501.41
  0
LINE
  8
0
 10
16.1276
 20
1501.41
 11
16.2
 21
1501
  0
LINE
  8
0
 10
16.2
 20
1501
 11
16.1276
 21
1500.59
  0
LINE
  8
0
 10
16.1276
 20
1500.59
 11
15.9193
 21
1500.23
  0
LINE
  8
0
 10
15.9193
 20
1500.23
 11
15.6
 21
1499.96
  0
LINE
  8
0
 10
15.6
 20
1499.96
 11
15.2084
 21
1499.82
  0
LINE
  8
0
 10
15.2084
 20
1499.82
 11
14.7916
 21
1499.82
  0
LINE
  8
0
 10
12.7916
 20
1475.82
 11
12.4
 21
1475.96
  0
LINE
  8
0
 10
12.4
 20
1475.96
 11
12.0807
 21
1476.23
  0
LINE
  8
0
 10
12.0807
 20
1476.23
 11
11.8724
 21
1476.59
  0
LINE
  8
0
 10
11.8724
 20
1476.59
 11
11.8
 21
1477
  0
LINE
  8
0
 10
11.8
 20
1477
 11
11.8724
 21
1477.41
  0
LINE
  8
0
 10
11.8724
 20
1477.41
 11
12.0807
 21
1477.77
  0
LINE
  8
0
 10
12.0807
 20
1477.77
 11
12.4
 21
1478.04
  0
LINE
  8
0
 10
12.4
 20
1478.04
 11
12.7916
 21
1478.18
  0
LINE
  8
0
 10
12.7916
 20
1478.18
 11
13.2084
 21
1478.18
  0
LINE
  8
0
 10
13.2084
 20
1478.18
 11
13.6
 21
1478.04
  0
LINE
  8
0
 10
13.6
 20
1478.04
 11
13.9193
 21
1477.77
  0
LINE
  8
0
 10
13.9193
 20
1477.77
 11
14.1276
 21
1477.41
  0
LINE
  8
0
 10
14.1276
 20
1477.41
 11
14.2
 21
1477
  0
LINE
  8
0
 10
14.2
 20
1477
 11
14.1276
 21
1476.59
  0
LINE
  8
0
 10
14.1276
 20
1476.59
 11
13.9193
 21
1476.23
  0
LINE
  8
0
 10
13.9193
 20
1476.23
 11
13.6
 21
1475.96
  0
LINE
  8
0
 10
13.6
 20
1475.96
 11
13.2084
 21
1475.82
  0
LINE
  8
0
 10
13.2084
 20
1475.82
 11
12.7916
 21
1475.82
  0
LINE
  8
0
 10
10.7916
 20
1451.82
 11
10.4
 21
1451.96
  0
LINE
  8
0
 10
10.4
 20
1451.96
 11
10.0807
 21
1452.23
  0
LINE
  8
0
 10
10.0807
 20
1452.23
 11
9.87236
 21
1452.59
  0
LINE
  8
0
 10
9.87236
 20
1452.59
 11
9.79999
 21
1453
  0
LINE
  8
0
 10
9.79999
 20
1453
 11
9.87236
 21
1453.41
  0
LINE
  8
0
 10
9.87236
 20
1453.41
 11
10.0807
 21
1453.77
  0
LINE
  8
0
 10
10.0807
 20
1453.77
 11
10.4
 21
1454.04
  0
LINE
  8
0
 10
10.4
 20
1454.04
 11
10.7916
 21
1454.18
  0
LINE
  8
0
 10
10.7916
 20
1454.18
 11
11.2084
 21
1454.18
  0
LINE
  8
0
 10
11.2084
 20
1454.18
 11
11.6
 21
1454.04
  0
LINE
  8
0
 10
11.6
 20
1454.04
 11
11.9193
 21
1453.77
  0
LINE
  8
0
 10
11.9193
 20
1453.77
 11
12.1276
 21
1453.41
  0
LINE
  8
0
 10
12.1276
 20
1453.41
 11
12.2
 21
1453
  0
LINE
  8
0
 10
12.2
 20
1453
 11
12.1276
 21
1452.59
  0
LINE
  8
0
 10
12.1276
 20
1452.59
 11
11.9193
 21
1452.23
  0
LINE
  8
0
 10
11.9193
 20
1452.23
 11
11.6
 21
1451.96
  0
LINE
  8
0
 10
11.6
 20
1451.96
 11
11.2084
 21
1451.82
  0
LINE
  8
0
 10
11.2084
 20
1451.82
 11
10.7916
 21
1451.82
  0
LINE
  8
0
 10
10.7916
 20
1443.82
 11
10.4
 21
1443.96
  0
LINE
  8
0
 10
10.4
 20
1443.96
 11
10.0807
 21
1444.23
  0
LINE
  8
0
 10
10.0807
 20
1444.23
 11
9.87236
 21
1444.59
  0
LINE
  8
0
 10
9.87236
 20
1444.59
 11
9.79999
 21
1445
  0
LINE
  8
0
 10
9.79999
 20
1445
 11
9.87236
 21
1445.41
  0
LINE
  8
0
 10
9.87236
 20
1445.41
 11
10.0807
 21
1445.77
  0
LINE
  8
0
 10
10.0807
 20
1445.77
 11
10.4
 21
1446.04
  0
LINE
  8
0
 10
10.4
 20
1446.04
 11
10.7916
 21
1446.18
  0
LINE
  8
0
 10
10.7916
 20
1446.18
 11
11.2084
 21
1446.18
  0
LINE
  8
0
 10
11.2084
 20
1446.18
 11
11.6
 21
1446.04
  0
LINE
  8
0
 10
11.6
 20
1446.04
 11
11.9193
 21
1445.77
  0
LINE
  8
0
 10
11.9193
 20
1445.77
 11
12.1276
 21
1445.41
  0
LINE
  8
0
 10
12.1276
 20
1445.41
 11
12.2
 21
1445
  0
LINE
  8
0
 10
12.2
 20
1445
 11
12.1276
 21
1444.59
  0
LINE
  8
0
 10
12.1276
 20
1444.59
 11
11.9193
 21
1444.23
  0
LINE
  8
0
 10
11.9193
 20
1444.23
 11
11.6
 21
1443.96
  0
LINE
  8
0
 10
11.6
 20
1443.96
 11
11.2084
 21
1443.82
  0
LINE
  8
0
 10
11.2084
 20
1443.82
 11
10.7916
 21
1443.82
  0
LINE
  8
0
 10
8.79161
 20
1419.82
 11
8.39999
 21
1419.96
  0
LINE
  8
0
 10
8.39999
 20
1419.96
 11
8.08073
 21
1420.23
  0
LINE
  8
0
 10
8.08073
 20
1420.23
 11
7.87236
 21
1420.59
  0
LINE
  8
0
 10
7.87236
 20
1420.59
 11
7.79999
 21
1421
  0
LINE
  8
0
 10
7.79999
 20
1421
 11
7.87236
 21
1421.41
  0
LINE
  8
0
 10
7.87236
 20
1421.41
 11
8.08073
 21
1421.77
  0
LINE
  8
0
 10
8.08073
 20
1421.77
 11
8.39999
 21
1422.04
  0
LINE
  8
0
 10
8.39999
 20
1422.04
 11
8.79161
 21
1422.18
  0
LINE
  8
0
 10
8.79161
 20
1422.18
 11
9.20837
 21
1422.18
  0
LINE
  8
0
 10
9.20837
 20
1422.18
 11
9.59999
 21
1422.04
  0
LINE
  8
0
 10
9.59999
 20
1422.04
 11
9.91925
 21
1421.77
  0
LINE
  8
0
 10
9.91925
 20
1421.77
 11
10.1276
 21
1421.41
  0
LINE
  8
0
 10
10.1276
 20
1421.41
 11
10.2
 21
1421
  0
LINE
  8
0
 10
10.2
 20
1421
 11
10.1276
 21
1420.59
  0
LINE
  8
0
 10
10.1276
 20
1420.59
 11
9.91925
 21
1420.23
  0
LINE
  8
0
 10
9.91925
 20
1420.23
 11
9.59999
 21
1419.96
  0
LINE
  8
0
 10
9.59999
 20
1419.96
 11
9.20837
 21
1419.82
  0
LINE
  8
0
 10
9.20837
 20
1419.82
 11
8.79161
 21
1419.82
  0
LINE
  8
0
 10
14.7916
 20
1411.82
 11
14.4
 21
1411.96
  0
LINE
  8
0
 10
14.4
 20
1411.96
 11
14.0807
 21
1412.23
  0
LINE
  8
0
 10
14.0807
 20
1412.23
 11
13.8724
 21
1412.59
  0
LINE
  8
0
 10
13.8724
 20
1412.59
 11
13.8
 21
1413
  0
LINE
  8
0
 10
13.8
 20
1413
 11
13.8724
 21
1413.41
  0
LINE
  8
0
 10
13.8724
 20
1413.41
 11
14.0807
 21
1413.77
  0
LINE
  8
0
 10
14.0807
 20
1413.77
 11
14.4
 21
1414.04
  0
LINE
  8
0
 10
14.4
 20
1414.04
 11
14.7916
 21
1414.18
  0
LINE
  8
0
 10
14.7916
 20
1414.18
 11
15.2084
 21
1414.18
  0
LINE
  8
0
 10
15.2084
 20
1414.18
 11
15.6
 21
1414.04
  0
LINE
  8
0
 10
15.6
 20
1414.04
 11
15.9193
 21
1413.77
  0
LINE
  8
0
 10
15.9193
 20
1413.77
 11
16.1276
 21
1413.41
  0
LINE
  8
0
 10
16.1276
 20
1413.41
 11
16.2
 21
1413
  0
LINE
  8
0
 10
16.2
 20
1413
 11
16.1276
 21
1412.59
  0
LINE
  8
0
 10
16.1276
 20
1412.59
 11
15.9193
 21
1412.23
  0
LINE
  8
0
 10
15.9193
 20
1412.23
 11
15.6
 21
1411.96
  0
LINE
  8
0
 10
15.6
 20
1411.96
 11
15.2084
 21
1411.82
  0
LINE
  8
0
 10
15.2084
 20
1411.82
 11
14.7916
 21
1411.82
  0
LINE
  8
0
 10
12.7916
 20
1403.82
 11
12.4
 21
1403.96
  0
LINE
  8
0
 10
12.4
 20
1403.96
 11
12.0807
 21
1404.23
  0
LINE
  8
0
 10
12.0807
 20
1404.23
 11
11.8724
 21
1404.59
  0
LINE
  8
0
 10
11.8724
 20
1404.59
 11
11.8
 21
1405
  0
LINE
  8
0
 10
11.8
 20
1405
 11
11.8724
 21
1405.41
  0
LINE
  8
0
 10
11.8724
 20
1405.41
 11
12.0807
 21
1405.77
  0
LINE
  8
0
 10
12.0807
 20
1405.77
 11
12.4
 21
1406.04
  0
LINE
  8
0
 10
12.4
 20
1406.04
 11
12.7916
 21
1406.18
  0
LINE
  8
0
 10
12.7916
 20
1406.18
 11
13.2084
 21
1406.18
  0
LINE
  8
0
 10
13.2084
 20
1406.18
 11
13.6
 21
1406.04
  0
LINE
  8
0
 10
13.6
 20
1406.04
 11
13.9193
 21
1405.77
  0
LINE
  8
0
 10
13.9193
 20
1405.77
 11
14.1276
 21
1405.41
  0
LINE
  8
0
 10
14.1276
 20
1405.41
 11
14.2
 21
1405
  0
LINE
  8
0
 10
14.2
 20
1405
 11
14.1276
 21
1404.59
  0
LINE
  8
0
 10
14.1276
 20
1404.59
 11
13.9193
 21
1404.23
  0
LINE
  8
0
 10
13.9193
 20
1404.23
 11
13.6
 21
1403.96
  0
LINE
  8
0
 10
13.6
 20
1403.96
 11
13.2084
 21
1403.82
  0
LINE
  8
0
 10
13.2084
 20
1403.82
 11
12.7916
 21
1403.82
  0
LINE
  8
0
 10
10.7916
 20
1395.82
 11
10.4
 21
1395.96
  0
LINE
  8
0
 10
10.4
 20
1395.96
 11
10.0807
 21
1396.23
  0
LINE
  8
0
 10
10.0807
 20
1396.23
 11
9.87236
 21
1396.59
  0
LINE
  8
0
 10
9.87236
 20
1396.59
 11
9.79999
 21
1397
  0
LINE
  8
0
 10
9.79999
 20
1397
 11
9.87236
 21
1397.41
  0
LINE
  8
0
 10
9.87236
 20
1397.41
 11
10.0807
 21
1397.77
  0
LINE
  8
0
 10
10.0807
 20
1397.77
 11
10.4
 21
1398.04
  0
LINE
  8
0
 10
10.4
 20
1398.04
 11
10.7916
 21
1398.18
  0
LINE
  8
0
 10
10.7916
 20
1398.18
 11
11.2084
 21
1398.18
  0
LINE
  8
0
 10
11.2084
 20
1398.18
 11
11.6
 21
1398.04
  0
LINE
  8
0
 10
11.6
 20
1398.04
 11
11.9193
 21
1397.77
  0
LINE
  8
0
 10
11.9193
 20
1397.77
 11
12.1276
 21
1397.41
  0
LINE
  8
0
 10
12.1276
 20
1397.41
 11
12.2
 21
1397
  0
LINE
  8
0
 10
12.2
 20
1397
 11
12.1276
 21
1396.59
  0
LINE
  8
0
 10
12.1276
 20
1396.59
 11
11.9193
 21
1396.23
  0
LINE
  8
0
 10
11.9193
 20
1396.23
 11
11.6
 21
1395.96
  0
LINE
  8
0
 10
11.6
 20
1395.96
 11
11.2084
 21
1395.82
  0
LINE
  8
0
 10
11.2084
 20
1395.82
 11
10.7916
 21
1395.82
  0
LINE
  8
0
 10
8.79161
 20
1387.82
 11
8.39999
 21
1387.96
  0
LINE
  8
0
 10
8.39999
 20
1387.96
 11
8.08073
 21
1388.23
  0
LINE
  8
0
 10
8.08073
 20
1388.23
 11
7.87236
 21
1388.59
  0
LINE
  8
0
 10
7.87236
 20
1388.59
 11
7.79999
 21
1389
  0
LINE
  8
0
 10
7.79999
 20
1389
 11
7.87236
 21
1389.41
  0
LINE
  8
0
 10
7.87236
 20
1389.41
 11
8.08073
 21
1389.77
  0
LINE
  8
0
 10
8.08073
 20
1389.77
 11
8.39999
 21
1390.04
  0
LINE
  8
0
 10
8.39999
 20
1390.04
 11
8.79161
 21
1390.18
  0
LINE
  8
0
 10
8.79161
 20
1390.18
 11
9.20837
 21
1390.18
  0
LINE
  8
0
 10
9.20837
 20
1390.18
 11
9.59999
 21
1390.04
  0
LINE
  8
0
 10
9.59999
 20
1390.04
 11
9.91925
 21
1389.77
  0
LINE
  8
0
 10
9.91925
 20
1389.77
 11
10.1276
 21
1389.41
  0
LINE
  8
0
 10
10.1276
 20
1389.41
 11
10.2
 21
1389
  0
LINE
  8
0
 10
10.2
 20
1389
 11
10.1276
 21
1388.59
  0
LINE
  8
0
 10
10.1276
 20
1388.59
 11
9.91925
 21
1388.23
  0
LINE
  8
0
 10
9.91925
 20
1388.23
 11
9.59999
 21
1387.96
  0
LINE
  8
0
 10
9.59999
 20
1387.96
 11
9.20837
 21
1387.82
  0
LINE
  8
0
 10
9.20837
 20
1387.82
 11
8.79161
 21
1387.82
  0
LINE
  8
0
 10
14.7916
 20
1379.82
 11
14.4
 21
1379.96
  0
LINE
  8
0
 10
14.4
 20
1379.96
 11
14.0807
 21
1380.23
  0
LINE
  8
0
 10
14.0807
 20
1380.23
 11
13.8724
 21
1380.59
  0
LINE
  8
0
 10
13.8724
 20
1380.59
 11
13.8
 21
1381
  0
LINE
  8
0
 10
13.8
 20
1381
 11
13.8724
 21
1381.41
  0
LINE
  8
0
 10
13.8724
 20
1381.41
 11
14.0807
 21
1381.77
  0
LINE
  8
0
 10
14.0807
 20
1381.77
 11
14.4
 21
1382.04
  0
LINE
  8
0
 10
14.4
 20
1382.04
 11
14.7916
 21
1382.18
  0
LINE
  8
0
 10
14.7916
 20
1382.18
 11
15.2084
 21
1382.18
  0
LINE
  8
0
 10
15.2084
 20
1382.18
 11
15.6
 21
1382.04
  0
LINE
  8
0
 10
15.6
 20
1382.04
 11
15.9193
 21
1381.77
  0
LINE
  8
0
 10
15.9193
 20
1381.77
 11
16.1276
 21
1381.41
  0
LINE
  8
0
 10
16.1276
 20
1381.41
 11
16.2
 21
1381
  0
LINE
  8
0
 10
16.2
 20
1381
 11
16.1276
 21
1380.59
  0
LINE
  8
0
 10
16.1276
 20
1380.59
 11
15.9193
 21
1380.23
  0
LINE
  8
0
 10
15.9193
 20
1380.23
 11
15.6
 21
1379.96
  0
LINE
  8
0
 10
15.6
 20
1379.96
 11
15.2084
 21
1379.82
  0
LINE
  8
0
 10
15.2084
 20
1379.82
 11
14.7916
 21
1379.82
  0
LINE
  8
0
 10
14.7916
 20
1371.82
 11
14.4
 21
1371.96
  0
LINE
  8
0
 10
14.4
 20
1371.96
 11
14.0807
 21
1372.23
  0
LINE
  8
0
 10
14.0807
 20
1372.23
 11
13.8724
 21
1372.59
  0
LINE
  8
0
 10
13.8724
 20
1372.59
 11
13.8
 21
1373
  0
LINE
  8
0
 10
13.8
 20
1373
 11
13.8724
 21
1373.41
  0
LINE
  8
0
 10
13.8724
 20
1373.41
 11
14.0807
 21
1373.77
  0
LINE
  8
0
 10
14.0807
 20
1373.77
 11
14.4
 21
1374.04
  0
LINE
  8
0
 10
14.4
 20
1374.04
 11
14.7916
 21
1374.18
  0
LINE
  8
0
 10
14.7916
 20
1374.18
 11
15.2084
 21
1374.18
  0
LINE
  8
0
 10
15.2084
 20
1374.18
 11
15.6
 21
1374.04
  0
LINE
  8
0
 10
15.6
 20
1374.04
 11
15.9193
 21
1373.77
  0
LINE
  8
0
 10
15.9193
 20
1373.77
 11
16.1276
 21
1373.41
  0
LINE
  8
0
 10
16.1276
 20
1373.41
 11
16.2
 21
1373
  0
LINE
  8
0
 10
16.2
 20
1373
 11
16.1276
 21
1372.59
  0
LINE
  8
0
 10
16.1276
 20
1372.59
 11
15.9193
 21
1372.23
  0
LINE
  8
0
 10
15.9193
 20
1372.23
 11
15.6
 21
1371.96
  0
LINE
  8
0
 10
15.6
 20
1371.96
 11
15.2084
 21
1371.82
  0
LINE
  8
0
 10
15.2084
 20
1371.82
 11
14.7916
 21
1371.82
  0
LINE
  8
0
 10
10.7916
 20
1323.82
 11
10.4
 21
1323.96
  0
LINE
  8
0
 10
10.4
 20
1323.96
 11
10.0807
 21
1324.23
  0
LINE
  8
0
 10
10.0807
 20
1324.23
 11
9.87236
 21
1324.59
  0
LINE
  8
0
 10
9.87236
 20
1324.59
 11
9.79999
 21
1325
  0
LINE
  8
0
 10
9.79999
 20
1325
 11
9.87236
 21
1325.41
  0
LINE
  8
0
 10
9.87236
 20
1325.41
 11
10.0807
 21
1325.77
  0
LINE
  8
0
 10
10.0807
 20
1325.77
 11
10.4
 21
1326.04
  0
LINE
  8
0
 10
10.4
 20
1326.04
 11
10.7916
 21
1326.18
  0
LINE
  8
0
 10
10.7916
 20
1326.18
 11
11.2084
 21
1326.18
  0
LINE
  8
0
 10
11.2084
 20
1326.18
 11
11.6
 21
1326.04
  0
LINE
  8
0
 10
11.6
 20
1326.04
 11
11.9193
 21
1325.77
  0
LINE
  8
0
 10
11.9193
 20
1325.77
 11
12.1276
 21
1325.41
  0
LINE
  8
0
 10
12.1276
 20
1325.41
 11
12.2
 21
1325
  0
LINE
  8
0
 10
12.2
 20
1325
 11
12.1276
 21
1324.59
  0
LINE
  8
0
 10
12.1276
 20
1324.59
 11
11.9193
 21
1324.23
  0
LINE
  8
0
 10
11.9193
 20
1324.23
 11
11.6
 21
1323.96
  0
LINE
  8
0
 10
11.6
 20
1323.96
 11
11.2084
 21
1323.82
  0
LINE
  8
0
 10
11.2084
 20
1323.82
 11
10.7916
 21
1323.82
  0
LINE
  8
0
 10
10.7916
 20
1315.82
 11
10.4
 21
1315.96
  0
LINE
  8
0
 10
10.4
 20
1315.96
 11
10.0807
 21
1316.23
  0
LINE
  8
0
 10
10.0807
 20
1316.23
 11
9.87236
 21
1316.59
  0
LINE
  8
0
 10
9.87236
 20
1316.59
 11
9.79999
 21
1317
  0
LINE
  8
0
 10
9.79999
 20
1317
 11
9.87236
 21
1317.41
  0
LINE
  8
0
 10
9.87236
 20
1317.41
 11
10.0807
 21
1317.77
  0
LINE
  8
0
 10
10.0807
 20
1317.77
 11
10.4
 21
1318.04
  0
LINE
  8
0
 10
10.4
 20
1318.04
 11
10.7916
 21
1318.18
  0
LINE
  8
0
 10
10.7916
 20
1318.18
 11
11.2084
 21
1318.18
  0
LINE
  8
0
 10
11.2084
 20
1318.18
 11
11.6
 21
1318.04
  0
LINE
  8
0
 10
11.6
 20
1318.04
 11
11.9193
 21
1317.77
  0
LINE
  8
0
 10
11.9193
 20
1317.77
 11
12.1276
 21
1317.41
  0
LINE
  8
0
 10
12.1276
 20
1317.41
 11
12.2
 21
1317
  0
LINE
  8
0
 10
12.2
 20
1317
 11
12.1276
 21
1316.59
  0
LINE
  8
0
 10
12.1276
 20
1316.59
 11
11.9193
 21
1316.23
  0
LINE
  8
0
 10
11.9193
 20
1316.23
 11
11.6
 21
1315.96
  0
LINE
  8
0
 10
11.6
 20
1315.96
 11
11.2084
 21
1315.82
  0
LINE
  8
0
 10
11.2084
 20
1315.82
 11
10.7916
 21
1315.82
  0
LINE
  8
0
 10
8.79161
 20
1291.82
 11
8.39999
 21
1291.96
  0
LINE
  8
0
 10
8.39999
 20
1291.96
 11
8.08073
 21
1292.23
  0
LINE
  8
0
 10
8.08073
 20
1292.23
 11
7.87236
 21
1292.59
  0
LINE
  8
0
 10
7.87236
 20
1292.59
 11
7.79999
 21
1293
  0
LINE
  8
0
 10
7.79999
 20
1293
 11
7.87236
 21
1293.41
  0
LINE
  8
0
 10
7.87236
 20
1293.41
 11
8.08073
 21
1293.77
  0
LINE
  8
0
 10
8.08073
 20
1293.77
 11
8.39999
 21
1294.04
  0
LINE
  8
0
 10
8.39999
 20
1294.04
 11
8.79161
 21
1294.18
  0
LINE
  8
0
 10
8.79161
 20
1294.18
 11
9.20837
 21
1294.18
  0
LINE
  8
0
 10
9.20837
 20
1294.18
 11
9.59999
 21
1294.04
  0
LINE
  8
0
 10
9.59999
 20
1294.04
 11
9.91925
 21
1293.77
  0
LINE
  8
0
 10
9.91925
 20
1293.77
 11
10.1276
 21
1293.41
  0
LINE
  8
0
 10
10.1276
 20
1293.41
 11
10.2
 21
1293
  0
LINE
  8
0
 10
10.2
 20
1293
 11
10.1276
 21
1292.59
  0
LINE
  8
0
 10
10.1276
 20
1292.59
 11
9.91925
 21
1292.23
  0
LINE
  8
0
 10
9.91925
 20
1292.23
 11
9.59999
 21
1291.96
  0
LINE
  8
0
 10
9.59999
 20
1291.96
 11
9.20837
 21
1291.82
  0
LINE
  8
0
 10
9.20837
 20
1291.82
 11
8.79161
 21
1291.82
  0
LINE
  8
0
 10
14.7916
 20
1283.82
 11
14.4
 21
1283.96
  0
LINE
  8
0
 10
14.4
 20
1283.96
 11
14.0807
 21
1284.23
  0
LINE
  8
0
 10
14.0807
 20
1284.23
 11
13.8724
 21
1284.59
  0
LINE
  8
0
 10
13.8724
 20
1284.59
 11
13.8
 21
1285
  0
LINE
  8
0
 10
13.8
 20
1285
 11
13.8724
 21
1285.41
  0
LINE
  8
0
 10
13.8724
 20
1285.41
 11
14.0807
 21
1285.77
  0
LINE
  8
0
 10
14.0807
 20
1285.77
 11
14.4
 21
1286.04
  0
LINE
  8
0
 10
14.4
 20
1286.04
 11
14.7916
 21
1286.18
  0
LINE
  8
0
 10
14.7916
 20
1286.18
 11
15.2084
 21
1286.18
  0
LINE
  8
0
 10
15.2084
 20
1286.18
 11
15.6
 21
1286.04
  0
LINE
  8
0
 10
15.6
 20
1286.04
 11
15.9193
 21
1285.77
  0
LINE
  8
0
 10
15.9193
 20
1285.77
 11
16.1276
 21
1285.41
  0
LINE
  8
0
 10
16.1276
 20
1285.41
 11
16.2
 21
1285
  0
LINE
  8
0
 10
16.2
 20
1285
 11
16.1276
 21
1284.59
  0
LINE
  8
0
 10
16.1276
 20
1284.59
 11
15.9193
 21
1284.23
  0
LINE
  8
0
 10
15.9193
 20
1284.23
 11
15.6
 21
1283.96
  0
LINE
  8
0
 10
15.6
 20
1283.96
 11
15.2084
 21
1283.82
  0
LINE
  8
0
 10
15.2084
 20
1283.82
 11
14.7916
 21
1283.82
  0
LINE
  8
0
 10
12.7916
 20
1275.82
 11
12.4
 21
1275.96
  0
LINE
  8
0
 10
12.4
 20
1275.96
 11
12.0807
 21
1276.23
  0
LINE
  8
0
 10
12.0807
 20
1276.23
 11
11.8724
 21
1276.59
  0
LINE
  8
0
 10
11.8724
 20
1276.59
 11
11.8
 21
1277
  0
LINE
  8
0
 10
11.8
 20
1277
 11
11.8724
 21
1277.41
  0
LINE
  8
0
 10
11.8724
 20
1277.41
 11
12.0807
 21
1277.77
  0
LINE
  8
0
 10
12.0807
 20
1277.77
 11
12.4
 21
1278.04
  0
LINE
  8
0
 10
12.4
 20
1278.04
 11
12.7916
 21
1278.18
  0
LINE
  8
0
 10
12.7916
 20
1278.18
 11
13.2084
 21
1278.18
  0
LINE
  8
0
 10
13.2084
 20
1278.18
 11
13.6
 21
1278.04
  0
LINE
  8
0
 10
13.6
 20
1278.04
 11
13.9193
 21
1277.77
  0
LINE
  8
0
 10
13.9193
 20
1277.77
 11
14.1276
 21
1277.41
  0
LINE
  8
0
 10
14.1276
 20
1277.41
 11
14.2
 21
1277
  0
LINE
  8
0
 10
14.2
 20
1277
 11
14.1276
 21
1276.59
  0
LINE
  8
0
 10
14.1276
 20
1276.59
 11
13.9193
 21
1276.23
  0
LINE
  8
0
 10
13.9193
 20
1276.23
 11
13.6
 21
1275.96
  0
LINE
  8
0
 10
13.6
 20
1275.96
 11
13.2084
 21
1275.82
  0
LINE
  8
0
 10
13.2084
 20
1275.82
 11
12.7916
 21
1275.82
  0
LINE
  8
0
 10
10.7916
 20
1267.82
 11
10.4
 21
1267.96
  0
LINE
  8
0
 10
10.4
 20
1267.96
 11
10.0807
 21
1268.23
  0
LINE
  8
0
 10
10.0807
 20
1268.23
 11
9.87236
 21
1268.59
  0
LINE
  8
0
 10
9.87236
 20
1268.59
 11
9.79999
 21
1269
  0
LINE
  8
0
 10
9.79999
 20
1269
 11
9.87236
 21
1269.41
  0
LINE
  8
0
 10
9.87236
 20
1269.41
 11
10.0807
 21
1269.77
  0
LINE
  8
0
 10
10.0807
 20
1269.77
 11
10.4
 21
1270.04
  0
LINE
  8
0
 10
10.4
 20
1270.04
 11
10.7916
 21
1270.18
  0
LINE
  8
0
 10
10.7916
 20
1270.18
 11
11.2084
 21
1270.18
  0
LINE
  8
0
 10
11.2084
 20
1270.18
 11
11.6
 21
1270.04
  0
LINE
  8
0
 10
11.6
 20
1270.04
 11
11.9193
 21
1269.77
  0
LINE
  8
0
 10
11.9193
 20
1269.77
 11
12.1276
 21
1269.41
  0
LINE
  8
0
 10
12.1276
 20
1269.41
 11
12.2
 21
1269
  0
LINE
  8
0
 10
12.2
 20
1269
 11
12.1276
 21
1268.59
  0
LINE
  8
0
 10
12.1276
 20
1268.59
 11
11.9193
 21
1268.23
  0
LINE
  8
0
 10
11.9193
 20
1268.23
 11
11.6
 21
1267.96
  0
LINE
  8
0
 10
11.6
 20
1267.96
 11
11.2084
 21
1267.82
  0
LINE
  8
0
 10
11.2084
 20
1267.82
 11
10.7916
 21
1267.82
  0
LINE
  8
0
 10
8.79161
 20
1259.82
 11
8.39999
 21
1259.96
  0
LINE
  8
0
 10
8.39999
 20
1259.96
 11
8.08073
 21
1260.23
  0
LINE
  8
0
 10
8.08073
 20
1260.23
 11
7.87236
 21
1260.59
  0
LINE
  8
0
 10
7.87236
 20
1260.59
 11
7.79999
 21
1261
  0
LINE
  8
0
 10
7.79999
 20
1261
 11
7.87236
 21
1261.41
  0
LINE
  8
0
 10
7.87236
 20
1261.41
 11
8.08073
 21
1261.77
  0
LINE
  8
0
 10
8.08073
 20
1261.77
 11
8.39999
 21
1262.04
  0
LINE
  8
0
 10
8.39999
 20
1262.04
 11
8.79161
 21
1262.18
  0
LINE
  8
0
 10
8.79161
 20
1262.18
 11
9.20837
 21
1262.18
  0
LINE
  8
0
 10
9.20837
 20
1262.18
 11
9.59999
 21
1262.04
  0
LINE
  8
0
 10
9.59999
 20
1262.04
 11
9.91925
 21
1261.77
  0
LINE
  8
0
 10
9.91925
 20
1261.77
 11
10.1276
 21
1261.41
  0
LINE
  8
0
 10
10.1276
 20
1261.41
 11
10.2
 21
1261
  0
LINE
  8
0
 10
10.2
 20
1261
 11
10.1276
 21
1260.59
  0
LINE
  8
0
 10
10.1276
 20
1260.59
 11
9.91925
 21
1260.23
  0
LINE
  8
0
 10
9.91925
 20
1260.23
 11
9.59999
 21
1259.96
  0
LINE
  8
0
 10
9.59999
 20
1259.96
 11
9.20837
 21
1259.82
  0
LINE
  8
0
 10
9.20837
 20
1259.82
 11
8.79161
 21
1259.82
  0
LINE
  8
0
 10
14.7916
 20
1251.82
 11
14.4
 21
1251.96
  0
LINE
  8
0
 10
14.4
 20
1251.96
 11
14.0807
 21
1252.23
  0
LINE
  8
0
 10
14.0807
 20
1252.23
 11
13.8724
 21
1252.59
  0
LINE
  8
0
 10
13.8724
 20
1252.59
 11
13.8
 21
1253
  0
LINE
  8
0
 10
13.8
 20
1253
 11
13.8724
 21
1253.41
  0
LINE
  8
0
 10
13.8724
 20
1253.41
 11
14.0807
 21
1253.77
  0
LINE
  8
0
 10
14.0807
 20
1253.77
 11
14.4
 21
1254.04
  0
LINE
  8
0
 10
14.4
 20
1254.04
 11
14.7916
 21
1254.18
  0
LINE
  8
0
 10
14.7916
 20
1254.18
 11
15.2084
 21
1254.18
  0
LINE
  8
0
 10
15.2084
 20
1254.18
 11
15.6
 21
1254.04
  0
LINE
  8
0
 10
15.6
 20
1254.04
 11
15.9193
 21
1253.77
  0
LINE
  8
0
 10
15.9193
 20
1253.77
 11
16.1276
 21
1253.41
  0
LINE
  8
0
 10
16.1276
 20
1253.41
 11
16.2
 21
1253
  0
LINE
  8
0
 10
16.2
 20
1253
 11
16.1276
 21
1252.59
  0
LINE
  8
0
 10
16.1276
 20
1252.59
 11
15.9193
 21
1252.23
  0
LINE
  8
0
 10
15.9193
 20
1252.23
 11
15.6
 21
1251.96
  0
LINE
  8
0
 10
15.6
 20
1251.96
 11
15.2084
 21
1251.82
  0
LINE
  8
0
 10
15.2084
 20
1251.82
 11
14.7916
 21
1251.82
  0
LINE
  8
0
 10
12.7916
 20
1219.82
 11
12.4
 21
1219.96
  0
LINE
  8
0
 10
12.4
 20
1219.96
 11
12.0807
 21
1220.23
  0
LINE
  8
0
 10
12.0807
 20
1220.23
 11
11.8724
 21
1220.59
  0
LINE
  8
0
 10
11.8724
 20
1220.59
 11
11.8
 21
1221
  0
LINE
  8
0
 10
11.8
 20
1221
 11
11.8724
 21
1221.41
  0
LINE
  8
0
 10
11.8724
 20
1221.41
 11
12.0807
 21
1221.77
  0
LINE
  8
0
 10
12.0807
 20
1221.77
 11
12.4
 21
1222.04
  0
LINE
  8
0
 10
12.4
 20
1222.04
 11
12.7916
 21
1222.18
  0
LINE
  8
0
 10
12.7916
 20
1222.18
 11
13.2084
 21
1222.18
  0
LINE
  8
0
 10
13.2084
 20
1222.18
 11
13.6
 21
1222.04
  0
LINE
  8
0
 10
13.6
 20
1222.04
 11
13.9193
 21
1221.77
  0
LINE
  8
0
 10
13.9193
 20
1221.77
 11
14.1276
 21
1221.41
  0
LINE
  8
0
 10
14.1276
 20
1221.41
 11
14.2
 21
1221
  0
LINE
  8
0
 10
14.2
 20
1221
 11
14.1276
 21
1220.59
  0
LINE
  8
0
 10
14.1276
 20
1220.59
 11
13.9193
 21
1220.23
  0
LINE
  8
0
 10
13.9193
 20
1220.23
 11
13.6
 21
1219.96
  0
LINE
  8
0
 10
13.6
 20
1219.96
 11
13.2084
 21
1219.82
  0
LINE
  8
0
 10
13.2084
 20
1219.82
 11
12.7916
 21
1219.82
  0
LINE
  8
0
 10
10.7916
 20
1195.82
 11
10.4
 21
1195.96
  0
LINE
  8
0
 10
10.4
 20
1195.96
 11
10.0807
 21
1196.23
  0
LINE
  8
0
 10
10.0807
 20
1196.23
 11
9.87236
 21
1196.59
  0
LINE
  8
0
 10
9.87236
 20
1196.59
 11
9.79999
 21
1197
  0
LINE
  8
0
 10
9.79999
 20
1197
 11
9.87236
 21
1197.41
  0
LINE
  8
0
 10
9.87236
 20
1197.41
 11
10.0807
 21
1197.77
  0
LINE
  8
0
 10
10.0807
 20
1197.77
 11
10.4
 21
1198.04
  0
LINE
  8
0
 10
10.4
 20
1198.04
 11
10.7916
 21
1198.18
  0
LINE
  8
0
 10
10.7916
 20
1198.18
 11
11.2084
 21
1198.18
  0
LINE
  8
0
 10
11.2084
 20
1198.18
 11
11.6
 21
1198.04
  0
LINE
  8
0
 10
11.6
 20
1198.04
 11
11.9193
 21
1197.77
  0
LINE
  8
0
 10
11.9193
 20
1197.77
 11
12.1276
 21
1197.41
  0
LINE
  8
0
 10
12.1276
 20
1197.41
 11
12.2
 21
1197
  0
LINE
  8
0
 10
12.2
 20
1197
 11
12.1276
 21
1196.59
  0
LINE
  8
0
 10
12.1276
 20
1196.59
 11
11.9193
 21
1196.23
  0
LINE
  8
0
 10
11.9193
 20
1196.23
 11
11.6
 21
1195.96
  0
LINE
  8
0
 10
11.6
 20
1195.96
 11
11.2084
 21
1195.82
  0
LINE
  8
0
 10
11.2084
 20
1195.82
 11
10.7916
 21
1195.82
  0
LINE
  8
0
 10
10.7916
 20
1187.82
 11
10.4
 21
1187.96
  0
LINE
  8
0
 10
10.4
 20
1187.96
 11
10.0807
 21
1188.23
  0
LINE
  8
0
 10
10.0807
 20
1188.23
 11
9.87236
 21
1188.59
  0
LINE
  8
0
 10
9.87236
 20
1188.59
 11
9.79999
 21
1189
  0
LINE
  8
0
 10
9.79999
 20
1189
 11
9.87236
 21
1189.41
  0
LINE
  8
0
 10
9.87236
 20
1189.41
 11
10.0807
 21
1189.77
  0
LINE
  8
0
 10
10.0807
 20
1189.77
 11
10.4
 21
1190.04
  0
LINE
  8
0
 10
10.4
 20
1190.04
 11
10.7916
 21
1190.18
  0
LINE
  8
0
 10
10.7916
 20
1190.18
 11
11.2084
 21
1190.18
  0
LINE
  8
0
 10
11.2084
 20
1190.18
 11
11.6
 21
1190.04
  0
LINE
  8
0
 10
11.6
 20
1190.04
 11
11.9193
 21
1189.77
  0
LINE
  8
0
 10
11.9193
 20
1189.77
 11
12.1276
 21
1189.41
  0
LINE
  8
0
 10
12.1276
 20
1189.41
 11
12.2
 21
1189
  0
LINE
  8
0
 10
12.2
 20
1189
 11
12.1276
 21
1188.59
  0
LINE
  8
0
 10
12.1276
 20
1188.59
 11
11.9193
 21
1188.23
  0
LINE
  8
0
 10
11.9193
 20
1188.23
 11
11.6
 21
1187.96
  0
LINE
  8
0
 10
11.6
 20
1187.96
 11
11.2084
 21
1187.82
  0
LINE
  8
0
 10
11.2084
 20
1187.82
 11
10.7916
 21
1187.82
  0
LINE
  8
0
 10
8.79161
 20
1163.82
 11
8.39999
 21
1163.96
  0
LINE
  8
0
 10
8.39999
 20
1163.96
 11
8.08073
 21
1164.23
  0
LINE
  8
0
 10
8.08073
 20
1164.23
 11
7.87236
 21
1164.59
  0
LINE
  8
0
 10
7.87236
 20
1164.59
 11
7.79999
 21
1165
  0
LINE
  8
0
 10
7.79999
 20
1165
 11
7.87236
 21
1165.41
  0
LINE
  8
0
 10
7.87236
 20
1165.41
 11
8.08073
 21
1165.77
  0
LINE
  8
0
 10
8.08073
 20
1165.77
 11
8.39999
 21
1166.04
  0
LINE
  8
0
 10
8.39999
 20
1166.04
 11
8.79161
 21
1166.18
  0
LINE
  8
0
 10
8.79161
 20
1166.18
 11
9.20837
 21
1166.18
  0
LINE
  8
0
 10
9.20837
 20
1166.18
 11
9.59999
 21
1166.04
  0
LINE
  8
0
 10
9.59999
 20
1166.04
 11
9.91925
 21
1165.77
  0
LINE
  8
0
 10
9.91925
 20
1165.77
 11
10.1276
 21
1165.41
  0
LINE
  8
0
 10
10.1276
 20
1165.41
 11
10.2
 21
1165
  0
LINE
  8
0
 10
10.2
 20
1165
 11
10.1276
 21
1164.59
  0
LINE
  8
0
 10
10.1276
 20
1164.59
 11
9.91925
 21
1164.23
  0
LINE
  8
0
 10
9.91925
 20
1164.23
 11
9.59999
 21
1163.96
  0
LINE
  8
0
 10
9.59999
 20
1163.96
 11
9.20837
 21
1163.82
  0
LINE
  8
0
 10
9.20837
 20
1163.82
 11
8.79161
 21
1163.82
  0
LINE
  8
0
 10
8.79161
 20
1155.82
 11
8.39999
 21
1155.96
  0
LINE
  8
0
 10
8.39999
 20
1155.96
 11
8.08073
 21
1156.23
  0
LINE
  8
0
 10
8.08073
 20
1156.23
 11
7.87236
 21
1156.59
  0
LINE
  8
0
 10
7.87236
 20
1156.59
 11
7.79999
 21
1157
  0
LINE
  8
0
 10
7.79999
 20
1157
 11
7.87236
 21
1157.41
  0
LINE
  8
0
 10
7.87236
 20
1157.41
 11
8.08073
 21
1157.77
  0
LINE
  8
0
 10
8.08073
 20
1157.77
 11
8.39999
 21
1158.04
  0
LINE
  8
0
 10
8.39999
 20
1158.04
 11
8.79161
 21
1158.18
  0
LINE
  8
0
 10
8.79161
 20
1158.18
 11
9.20837
 21
1158.18
  0
LINE
  8
0
 10
9.20837
 20
1158.18
 11
9.59999
 21
1158.04
  0
LINE
  8
0
 10
9.59999
 20
1158.04
 11
9.91925
 21
1157.77
  0
LINE
  8
0
 10
9.91925
 20
1157.77
 11
10.1276
 21
1157.41
  0
LINE
  8
0
 10
10.1276
 20
1157.41
 11
10.2
 21
1157
  0
LINE
  8
0
 10
10.2
 20
1157
 11
10.1276
 21
1156.59
  0
LINE
  8
0
 10
10.1276
 20
1156.59
 11
9.91925
 21
1156.23
  0
LINE
  8
0
 10
9.91925
 20
1156.23
 11
9.59999
 21
1155.96
  0
LINE
  8
0
 10
9.59999
 20
1155.96
 11
9.20837
 21
1155.82
  0
LINE
  8
0
 10
9.20837
 20
1155.82
 11
8.79161
 21
1155.82
  0
LINE
  8
0
 10
8.79161
 20
1147.82
 11
8.39999
 21
1147.96
  0
LINE
  8
0
 10
8.39999
 20
1147.96
 11
8.08073
 21
1148.23
  0
LINE
  8
0
 10
8.08073
 20
1148.23
 11
7.87236
 21
1148.59
  0
LINE
  8
0
 10
7.87236
 20
1148.59
 11
7.79999
 21
1149
  0
LINE
  8
0
 10
7.79999
 20
1149
 11
7.87236
 21
1149.41
  0
LINE
  8
0
 10
7.87236
 20
1149.41
 11
8.08073
 21
1149.77
  0
LINE
  8
0
 10
8.08073
 20
1149.77
 11
8.39999
 21
1150.04
  0
LINE
  8
0
 10
8.39999
 20
1150.04
 11
8.79161
 21
1150.18
  0
LINE
  8
0
 10
8.79161
 20
1150.18
 11
9.20837
 21
1150.18
  0
LINE
  8
0
 10
9.20837
 20
1150.18
 11
9.59999
 21
1150.04
  0
LINE
  8
0
 10
9.59999
 20
1150.04
 11
9.91925
 21
1149.77
  0
LINE
  8
0
 10
9.91925
 20
1149.77
 11
10.1276
 21
1149.41
  0
LINE
  8
0
 10
10.1276
 20
1149.41
 11
10.2
 21
1149
  0
LINE
  8
0
 10
10.2
 20
1149
 11
10.1276
 21
1148.59
  0
LINE
  8
0
 10
10.1276
 20
1148.59
 11
9.91925
 21
1148.23
  0
LINE
  8
0
 10
9.91925
 20
1148.23
 11
9.59999
 21
1147.96
  0
LINE
  8
0
 10
9.59999
 20
1147.96
 11
9.20837
 21
1147.82
  0
LINE
  8
0
 10
9.20837
 20
1147.82
 11
8.79161
 21
1147.82
  0
LINE
  8
0
 10
8.79161
 20
1139.82
 11
8.39999
 21
1139.96
  0
LINE
  8
0
 10
8.39999
 20
1139.96
 11
8.08073
 21
1140.23
  0
LINE
  8
0
 10
8.08073
 20
1140.23
 11
7.87236
 21
1140.59
  0
LINE
  8
0
 10
7.87236
 20
1140.59
 11
7.79999
 21
1141
  0
LINE
  8
0
 10
7.79999
 20
1141
 11
7.87236
 21
1141.41
  0
LINE
  8
0
 10
7.87236
 20
1141.41
 11
8.08073
 21
1141.77
  0
LINE
  8
0
 10
8.08073
 20
1141.77
 11
8.39999
 21
1142.04
  0
LINE
  8
0
 10
8.39999
 20
1142.04
 11
8.79161
 21
1142.18
  0
LINE
  8
0
 10
8.79161
 20
1142.18
 11
9.20837
 21
1142.18
  0
LINE
  8
0
 10
9.20837
 20
1142.18
 11
9.59999
 21
1142.04
  0
LINE
  8
0
 10
9.59999
 20
1142.04
 11
9.91925
 21
1141.77
  0
LINE
  8
0
 10
9.91925
 20
1141.77
 11
10.1276
 21
1141.41
  0
LINE
  8
0
 10
10.1276
 20
1141.41
 11
10.2
 21
1141
  0
LINE
  8
0
 10
10.2
 20
1141
 11
10.1276
 21
1140.59
  0
LINE
  8
0
 10
10.1276
 20
1140.59
 11
9.91925
 21
1140.23
  0
LINE
  8
0
 10
9.91925
 20
1140.23
 11
9.59999
 21
1139.96
  0
LINE
  8
0
 10
9.59999
 20
1139.96
 11
9.20837
 21
1139.82
  0
LINE
  8
0
 10
9.20837
 20
1139.82
 11
8.79161
 21
1139.82
  0
LINE
  8
0
 10
8.79161
 20
1131.82
 11
8.39999
 21
1131.96
  0
LINE
  8
0
 10
8.39999
 20
1131.96
 11
8.08073
 21
1132.23
  0
LINE
  8
0
 10
8.08073
 20
1132.23
 11
7.87236
 21
1132.59
  0
LINE
  8
0
 10
7.87236
 20
1132.59
 11
7.79999
 21
1133
  0
LINE
  8
0
 10
7.79999
 20
1133
 11
7.87236
 21
1133.41
  0
LINE
  8
0
 10
7.87236
 20
1133.41
 11
8.08073
 21
1133.77
  0
LINE
  8
0
 10
8.08073
 20
1133.77
 11
8.39999
 21
1134.04
  0
LINE
  8
0
 10
8.39999
 20
1134.04
 11
8.79161
 21
1134.18
  0
LINE
  8
0
 10
8.79161
 20
1134.18
 11
9.20837
 21
1134.18
  0
LINE
  8
0
 10
9.20837
 20
1134.18
 11
9.59999
 21
1134.04
  0
LINE
  8
0
 10
9.59999
 20
1134.04
 11
9.91925
 21
1133.77
  0
LINE
  8
0
 10
9.91925
 20
1133.77
 11
10.1276
 21
1133.41
  0
LINE
  8
0
 10
10.1276
 20
1133.41
 11
10.2
 21
1133
  0
LINE
  8
0
 10
10.2
 20
1133
 11
10.1276
 21
1132.59
  0
LINE
  8
0
 10
10.1276
 20
1132.59
 11
9.91925
 21
1132.23
  0
LINE
  8
0
 10
9.91925
 20
1132.23
 11
9.59999
 21
1131.96
  0
LINE
  8
0
 10
9.59999
 20
1131.96
 11
9.20837
 21
1131.82
  0
LINE
  8
0
 10
9.20837
 20
1131.82
 11
8.79161
 21
1131.82
  0
LINE
  8
0
 10
8.79161
 20
1123.82
 11
8.39999
 21
1123.96
  0
LINE
  8
0
 10
8.39999
 20
1123.96
 11
8.08073
 21
1124.23
  0
LINE
  8
0
 10
8.08073
 20
1124.23
 11
7.87236
 21
1124.59
  0
LINE
  8
0
 10
7.87236
 20
1124.59
 11
7.79999
 21
1125
  0
LINE
  8
0
 10
7.79999
 20
1125
 11
7.87236
 21
1125.41
  0
LINE
  8
0
 10
7.87236
 20
1125.41
 11
8.08073
 21
1125.77
  0
LINE
  8
0
 10
8.08073
 20
1125.77
 11
8.39999
 21
1126.04
  0
LINE
  8
0
 10
8.39999
 20
1126.04
 11
8.79161
 21
1126.18
  0
LINE
  8
0
 10
8.79161
 20
1126.18
 11
9.20837
 21
1126.18
  0
LINE
  8
0
 10
9.20837
 20
1126.18
 11
9.59999
 21
1126.04
  0
LINE
  8
0
 10
9.59999
 20
1126.04
 11
9.91925
 21
1125.77
  0
LINE
  8
0
 10
9.91925
 20
1125.77
 11
10.1276
 21
1125.41
  0
LINE
  8
0
 10
10.1276
 20
1125.41
 11
10.2
 21
1125
  0
LINE
  8
0
 10
10.2
 20
1125
 11
10.1276
 21
1124.59
  0
LINE
  8
0
 10
10.1276
 20
1124.59
 11
9.91925
 21
1124.23
  0
LINE
  8
0
 10
9.91925
 20
1124.23
 11
9.59999
 21
1123.96
  0
LINE
  8
0
 10
9.59999
 20
1123.96
 11
9.20837
 21
1123.82
  0
LINE
  8
0
 10
9.20837
 20
1123.82
 11
8.79161
 21
1123.82
  0
LINE
  8
0
 10
28.7916
 20
1043.82
 11
28.4
 21
1043.96
  0
LINE
  8
0
 10
28.4
 20
1043.96
 11
28.0807
 21
1044.23
  0
LINE
  8
0
 10
28.0807
 20
1044.23
 11
27.8724
 21
1044.59
  0
LINE
  8
0
 10
27.8724
 20
1044.59
 11
27.8
 21
1045
  0
LINE
  8
0
 10
27.8
 20
1045
 11
27.8724
 21
1045.41
  0
LINE
  8
0
 10
27.8724
 20
1045.41
 11
28.0807
 21
1045.77
  0
LINE
  8
0
 10
28.0807
 20
1045.77
 11
28.4
 21
1046.04
  0
LINE
  8
0
 10
28.4
 20
1046.04
 11
28.7916
 21
1046.18
  0
LINE
  8
0
 10
28.7916
 20
1046.18
 11
29.2084
 21
1046.18
  0
LINE
  8
0
 10
29.2084
 20
1046.18
 11
29.6
 21
1046.04
  0
LINE
  8
0
 10
29.6
 20
1046.04
 11
29.9193
 21
1045.77
  0
LINE
  8
0
 10
29.9193
 20
1045.77
 11
30.1276
 21
1045.41
  0
LINE
  8
0
 10
30.1276
 20
1045.41
 11
30.2
 21
1045
  0
LINE
  8
0
 10
30.2
 20
1045
 11
30.1276
 21
1044.59
  0
LINE
  8
0
 10
30.1276
 20
1044.59
 11
29.9193
 21
1044.23
  0
LINE
  8
0
 10
29.9193
 20
1044.23
 11
29.6
 21
1043.96
  0
LINE
  8
0
 10
29.6
 20
1043.96
 11
29.2084
 21
1043.82
  0
LINE
  8
0
 10
29.2084
 20
1043.82
 11
28.7916
 21
1043.82
  0
LINE
  8
0
 10
24.7916
 20
1027.82
 11
24.4
 21
1027.96
  0
LINE
  8
0
 10
24.4
 20
1027.96
 11
24.0807
 21
1028.23
  0
LINE
  8
0
 10
24.0807
 20
1028.23
 11
23.8724
 21
1028.59
  0
LINE
  8
0
 10
23.8724
 20
1028.59
 11
23.8
 21
1029
  0
LINE
  8
0
 10
23.8
 20
1029
 11
23.8724
 21
1029.41
  0
LINE
  8
0
 10
23.8724
 20
1029.41
 11
24.0807
 21
1029.77
  0
LINE
  8
0
 10
24.0807
 20
1029.77
 11
24.4
 21
1030.04
  0
LINE
  8
0
 10
24.4
 20
1030.04
 11
24.7916
 21
1030.18
  0
LINE
  8
0
 10
24.7916
 20
1030.18
 11
25.2084
 21
1030.18
  0
LINE
  8
0
 10
25.2084
 20
1030.18
 11
25.6
 21
1030.04
  0
LINE
  8
0
 10
25.6
 20
1030.04
 11
25.9193
 21
1029.77
  0
LINE
  8
0
 10
25.9193
 20
1029.77
 11
26.1276
 21
1029.41
  0
LINE
  8
0
 10
26.1276
 20
1029.41
 11
26.2
 21
1029
  0
LINE
  8
0
 10
26.2
 20
1029
 11
26.1276
 21
1028.59
  0
LINE
  8
0
 10
26.1276
 20
1028.59
 11
25.9193
 21
1028.23
  0
LINE
  8
0
 10
25.9193
 20
1028.23
 11
25.6
 21
1027.96
  0
LINE
  8
0
 10
25.6
 20
1027.96
 11
25.2084
 21
1027.82
  0
LINE
  8
0
 10
25.2084
 20
1027.82
 11
24.7916
 21
1027.82
  0
LINE
  8
0
 10
22.7916
 20
1011.82
 11
22.4
 21
1011.96
  0
LINE
  8
0
 10
22.4
 20
1011.96
 11
22.0807
 21
1012.23
  0
LINE
  8
0
 10
22.0807
 20
1012.23
 11
21.8724
 21
1012.59
  0
LINE
  8
0
 10
21.8724
 20
1012.59
 11
21.8
 21
1013
  0
LINE
  8
0
 10
21.8
 20
1013
 11
21.8724
 21
1013.41
  0
LINE
  8
0
 10
21.8724
 20
1013.41
 11
22.0807
 21
1013.77
  0
LINE
  8
0
 10
22.0807
 20
1013.77
 11
22.4
 21
1014.04
  0
LINE
  8
0
 10
22.4
 20
1014.04
 11
22.7916
 21
1014.18
  0
LINE
  8
0
 10
22.7916
 20
1014.18
 11
23.2084
 21
1014.18
  0
LINE
  8
0
 10
23.2084
 20
1014.18
 11
23.6
 21
1014.04
  0
LINE
  8
0
 10
23.6
 20
1014.04
 11
23.9193
 21
1013.77
  0
LINE
  8
0
 10
23.9193
 20
1013.77
 11
24.1276
 21
1013.41
  0
LINE
  8
0
 10
24.1276
 20
1013.41
 11
24.2
 21
1013
  0
LINE
  8
0
 10
24.2
 20
1013
 11
24.1276
 21
1012.59
  0
LINE
  8
0
 10
24.1276
 20
1012.59
 11
23.9193
 21
1012.23
  0
LINE
  8
0
 10
23.9193
 20
1012.23
 11
23.6
 21
1011.96
  0
LINE
  8
0
 10
23.6
 20
1011.96
 11
23.2084
 21
1011.82
  0
LINE
  8
0
 10
23.2084
 20
1011.82
 11
22.7916
 21
1011.82
  0
LINE
  8
0
 10
20.7916
 20
1003.82
 11
20.4
 21
1003.96
  0
LINE
  8
0
 10
20.4
 20
1003.96
 11
20.0807
 21
1004.23
  0
LINE
  8
0
 10
20.0807
 20
1004.23
 11
19.8724
 21
1004.59
  0
LINE
  8
0
 10
19.8724
 20
1004.59
 11
19.8
 21
1005
  0
LINE
  8
0
 10
19.8
 20
1005
 11
19.8724
 21
1005.41
  0
LINE
  8
0
 10
19.8724
 20
1005.41
 11
20.0807
 21
1005.77
  0
LINE
  8
0
 10
20.0807
 20
1005.77
 11
20.4
 21
1006.04
  0
LINE
  8
0
 10
20.4
 20
1006.04
 11
20.7916
 21
1006.18
  0
LINE
  8
0
 10
20.7916
 20
1006.18
 11
21.2084
 21
1006.18
  0
LINE
  8
0
 10
21.2084
 20
1006.18
 11
21.6
 21
1006.04
  0
LINE
  8
0
 10
21.6
 20
1006.04
 11
21.9193
 21
1005.77
  0
LINE
  8
0
 10
21.9193
 20
1005.77
 11
22.1276
 21
1005.41
  0
LINE
  8
0
 10
22.1276
 20
1005.41
 11
22.2
 21
1005
  0
LINE
  8
0
 10
22.2
 20
1005
 11
22.1276
 21
1004.59
  0
LINE
  8
0
 10
22.1276
 20
1004.59
 11
21.9193
 21
1004.23
  0
LINE
  8
0
 10
21.9193
 20
1004.23
 11
21.6
 21
1003.96
  0
LINE
  8
0
 10
21.6
 20
1003.96
 11
21.2084
 21
1003.82
  0
LINE
  8
0
 10
21.2084
 20
1003.82
 11
20.7916
 21
1003.82
  0
LINE
  8
0
 10
20.7916
 20
987.818
 11
20.4
 21
987.961
  0
LINE
  8
0
 10
20.4
 20
987.961
 11
20.0807
 21
988.229
  0
LINE
  8
0
 10
20.0807
 20
988.229
 11
19.8724
 21
988.59
  0
LINE
  8
0
 10
19.8724
 20
988.59
 11
19.8
 21
989
  0
LINE
  8
0
 10
19.8
 20
989
 11
19.8724
 21
989.41
  0
LINE
  8
0
 10
19.8724
 20
989.41
 11
20.0807
 21
989.771
  0
LINE
  8
0
 10
20.0807
 20
989.771
 11
20.4
 21
990.039
  0
LINE
  8
0
 10
20.4
 20
990.039
 11
20.7916
 21
990.182
  0
LINE
  8
0
 10
20.7916
 20
990.182
 11
21.2084
 21
990.182
  0
LINE
  8
0
 10
21.2084
 20
990.182
 11
21.6
 21
990.039
  0
LINE
  8
0
 10
21.6
 20
990.039
 11
21.9193
 21
989.771
  0
LINE
  8
0
 10
21.9193
 20
989.771
 11
22.1276
 21
989.41
  0
LINE
  8
0
 10
22.1276
 20
989.41
 11
22.2
 21
989
  0
LINE
  8
0
 10
22.2
 20
989
 11
22.1276
 21
988.59
  0
LINE
  8
0
 10
22.1276
 20
988.59
 11
21.9193
 21
988.229
  0
LINE
  8
0
 10
21.9193
 20
988.229
 11
21.6
 21
987.961
  0
LINE
  8
0
 10
21.6
 20
987.961
 11
21.2084
 21
987.818
  0
LINE
  8
0
 10
21.2084
 20
987.818
 11
20.7916
 21
987.818
  0
LINE
  8
0
 10
20.7916
 20
971.818
 11
20.4
 21
971.961
  0
LINE
  8
0
 10
20.4
 20
971.961
 11
20.0807
 21
972.229
  0
LINE
  8
0
 10
20.0807
 20
972.229
 11
19.8724
 21
972.59
  0
LINE
  8
0
 10
19.8724
 20
972.59
 11
19.8
 21
973
  0
LINE
  8
0
 10
19.8
 20
973
 11
19.8724
 21
973.41
  0
LINE
  8
0
 10
19.8724
 20
973.41
 11
20.0807
 21
973.771
  0
LINE
  8
0
 10
20.0807
 20
973.771
 11
20.4
 21
974.039
  0
LINE
  8
0
 10
20.4
 20
974.039
 11
20.7916
 21
974.182
  0
LINE
  8
0
 10
20.7916
 20
974.182
 11
21.2084
 21
974.182
  0
LINE
  8
0
 10
21.2084
 20
974.182
 11
21.6
 21
974.039
  0
LINE
  8
0
 10
21.6
 20
974.039
 11
21.9193
 21
973.771
  0
LINE
  8
0
 10
21.9193
 20
973.771
 11
22.1276
 21
973.41
  0
LINE
  8
0
 10
22.1276
 20
973.41
 11
22.2
 21
973
  0
LINE
  8
0
 10
22.2
 20
973
 11
22.1276
 21
972.59
  0
LINE
  8
0
 10
22.1276
 20
972.59
 11
21.9193
 21
972.229
  0
LINE
  8
0
 10
21.9193
 20
972.229
 11
21.6
 21
971.961
  0
LINE
  8
0
 10
21.6
 20
971.961
 11
21.2084
 21
971.818
  0
LINE
  8
0
 10
21.2084
 20
971.818
 11
20.7916
 21
971.818
  0
LINE
  8
0
 10
24.7916
 20
955.818
 11
24.4
 21
955.961
  0
LINE
  8
0
 10
24.4
 20
955.961
 11
24.0807
 21
956.229
  0
LINE
  8
0
 10
24.0807
 20
956.229
 11
23.8724
 21
956.59
  0
LINE
  8
0
 10
23.8724
 20
956.59
 11
23.8
 21
957
  0
LINE
  8
0
 10
23.8
 20
957
 11
23.8724
 21
957.41
  0
LINE
  8
0
 10
23.8724
 20
957.41
 11
24.0807
 21
957.771
  0
LINE
  8
0
 10
24.0807
 20
957.771
 11
24.4
 21
958.039
  0
LINE
  8
0
 10
24.4
 20
958.039
 11
24.7916
 21
958.182
  0
LINE
  8
0
 10
24.7916
 20
958.182
 11
25.2084
 21
958.182
  0
LINE
  8
0
 10
25.2084
 20
958.182
 11
25.6
 21
958.039
  0
LINE
  8
0
 10
25.6
 20
958.039
 11
25.9193
 21
957.771
  0
LINE
  8
0
 10
25.9193
 20
957.771
 11
26.1276
 21
957.41
  0
LINE
  8
0
 10
26.1276
 20
957.41
 11
26.2
 21
957
  0
LINE
  8
0
 10
26.2
 20
957
 11
26.1276
 21
956.59
  0
LINE
  8
0
 10
26.1276
 20
956.59
 11
25.9193
 21
956.229
  0
LINE
  8
0
 10
25.9193
 20
956.229
 11
25.6
 21
955.961
  0
LINE
  8
0
 10
25.6
 20
955.961
 11
25.2084
 21
955.818
  0
LINE
  8
0
 10
25.2084
 20
955.818
 11
24.7916
 21
955.818
  0
LINE
  8
0
 10
20.7916
 20
947.818
 11
20.4
 21
947.961
  0
LINE
  8
0
 10
20.4
 20
947.961
 11
20.0807
 21
948.229
  0
LINE
  8
0
 10
20.0807
 20
948.229
 11
19.8724
 21
948.59
  0
LINE
  8
0
 10
19.8724
 20
948.59
 11
19.8
 21
949
  0
LINE
  8
0
 10
19.8
 20
949
 11
19.8724
 21
949.41
  0
LINE
  8
0
 10
19.8724
 20
949.41
 11
20.0807
 21
949.771
  0
LINE
  8
0
 10
20.0807
 20
949.771
 11
20.4
 21
950.039
  0
LINE
  8
0
 10
20.4
 20
950.039
 11
20.7916
 21
950.182
  0
LINE
  8
0
 10
20.7916
 20
950.182
 11
21.2084
 21
950.182
  0
LINE
  8
0
 10
21.2084
 20
950.182
 11
21.6
 21
950.039
  0
LINE
  8
0
 10
21.6
 20
950.039
 11
21.9193
 21
949.771
  0
LINE
  8
0
 10
21.9193
 20
949.771
 11
22.1276
 21
949.41
  0
LINE
  8
0
 10
22.1276
 20
949.41
 11
22.2
 21
949
  0
LINE
  8
0
 10
22.2
 20
949
 11
22.1276
 21
948.59
  0
LINE
  8
0
 10
22.1276
 20
948.59
 11
21.9193
 21
948.229
  0
LINE
  8
0
 10
21.9193
 20
948.229
 11
21.6
 21
947.961
  0
LINE
  8
0
 10
21.6
 20
947.961
 11
21.2084
 21
947.818
  0
LINE
  8
0
 10
21.2084
 20
947.818
 11
20.7916
 21
947.818
  0
LINE
  8
0
 10
18.7916
 20
939.818
 11
18.4
 21
939.961
  0
LINE
  8
0
 10
18.4
 20
939.961
 11
18.0807
 21
940.229
  0
LINE
  8
0
 10
18.0807
 20
940.229
 11
17.8724
 21
940.59
  0
LINE
  8
0
 10
17.8724
 20
940.59
 11
17.8
 21
941
  0
LINE
  8
0
 10
17.8
 20
941
 11
17.8724
 21
941.41
  0
LINE
  8
0
 10
17.8724
 20
941.41
 11
18.0807
 21
941.771
  0
LINE
  8
0
 10
18.0807
 20
941.771
 11
18.4
 21
942.039
  0
LINE
  8
0
 10
18.4
 20
942.039
 11
18.7916
 21
942.182
  0
LINE
  8
0
 10
18.7916
 20
942.182
 11
19.2084
 21
942.182
  0
LINE
  8
0
 10
19.2084
 20
942.182
 11
19.6
 21
942.039
  0
LINE
  8
0
 10
19.6
 20
942.039
 11
19.9193
 21
941.771
  0
LINE
  8
0
 10
19.9193
 20
941.771
 11
20.1276
 21
941.41
  0
LINE
  8
0
 10
20.1276
 20
941.41
 11
20.2
 21
941
  0
LINE
  8
0
 10
20.2
 20
941
 11
20.1276
 21
940.59
  0
LINE
  8
0
 10
20.1276
 20
940.59
 11
19.9193
 21
940.229
  0
LINE
  8
0
 10
19.9193
 20
940.229
 11
19.6
 21
939.961
  0
LINE
  8
0
 10
19.6
 20
939.961
 11
19.2084
 21
939.818
  0
LINE
  8
0
 10
19.2084
 20
939.818
 11
18.7916
 21
939.818
  0
LINE
  8
0
 10
18.7916
 20
923.818
 11
18.4
 21
923.961
  0
LINE
  8
0
 10
18.4
 20
923.961
 11
18.0807
 21
924.229
  0
LINE
  8
0
 10
18.0807
 20
924.229
 11
17.8724
 21
924.59
  0
LINE
  8
0
 10
17.8724
 20
924.59
 11
17.8
 21
925
  0
LINE
  8
0
 10
17.8
 20
925
 11
17.8724
 21
925.41
  0
LINE
  8
0
 10
17.8724
 20
925.41
 11
18.0807
 21
925.771
  0
LINE
  8
0
 10
18.0807
 20
925.771
 11
18.4
 21
926.039
  0
LINE
  8
0
 10
18.4
 20
926.039
 11
18.7916
 21
926.182
  0
LINE
  8
0
 10
18.7916
 20
926.182
 11
19.2084
 21
926.182
  0
LINE
  8
0
 10
19.2084
 20
926.182
 11
19.6
 21
926.039
  0
LINE
  8
0
 10
19.6
 20
926.039
 11
19.9193
 21
925.771
  0
LINE
  8
0
 10
19.9193
 20
925.771
 11
20.1276
 21
925.41
  0
LINE
  8
0
 10
20.1276
 20
925.41
 11
20.2
 21
925
  0
LINE
  8
0
 10
20.2
 20
925
 11
20.1276
 21
924.59
  0
LINE
  8
0
 10
20.1276
 20
924.59
 11
19.9193
 21
924.229
  0
LINE
  8
0
 10
19.9193
 20
924.229
 11
19.6
 21
923.961
  0
LINE
  8
0
 10
19.6
 20
923.961
 11
19.2084
 21
923.818
  0
LINE
  8
0
 10
19.2084
 20
923.818
 11
18.7916
 21
923.818
  0
LINE
  8
0
 10
18.7916
 20
907.818
 11
18.4
 21
907.961
  0
LINE
  8
0
 10
18.4
 20
907.961
 11
18.0807
 21
908.229
  0
LINE
  8
0
 10
18.0807
 20
908.229
 11
17.8724
 21
908.59
  0
LINE
  8
0
 10
17.8724
 20
908.59
 11
17.8
 21
909
  0
LINE
  8
0
 10
17.8
 20
909
 11
17.8724
 21
909.41
  0
LINE
  8
0
 10
17.8724
 20
909.41
 11
18.0807
 21
909.771
  0
LINE
  8
0
 10
18.0807
 20
909.771
 11
18.4
 21
910.039
  0
LINE
  8
0
 10
18.4
 20
910.039
 11
18.7916
 21
910.182
  0
LINE
  8
0
 10
18.7916
 20
910.182
 11
19.2084
 21
910.182
  0
LINE
  8
0
 10
19.2084
 20
910.182
 11
19.6
 21
910.039
  0
LINE
  8
0
 10
19.6
 20
910.039
 11
19.9193
 21
909.771
  0
LINE
  8
0
 10
19.9193
 20
909.771
 11
20.1276
 21
909.41
  0
LINE
  8
0
 10
20.1276
 20
909.41
 11
20.2
 21
909
  0
LINE
  8
0
 10
20.2
 20
909
 11
20.1276
 21
908.59
  0
LINE
  8
0
 10
20.1276
 20
908.59
 11
19.9193
 21
908.229
  0
LINE
  8
0
 10
19.9193
 20
908.229
 11
19.6
 21
907.961
  0
LINE
  8
0
 10
19.6
 20
907.961
 11
19.2084
 21
907.818
  0
LINE
  8
0
 10
19.2084
 20
907.818
 11
18.7916
 21
907.818
  0
ENDSEC
  0
SECTION
  2
OBJECTS
  0
DICTIONARY
  0
ENDSEC
  0
EOF
