  0
SECTION
  2
BLOCKS
  0
ENDSEC
  0
SECTION
  2
ENTITIES
  0
LINE
  8
0
 10
69
 20
650
 11
0
 21
650
  0
LINE
  8
0
 10
0
 20
650
 11
0
 21
0
  0
LINE
  8
0
 10
0
 20
0
 11
69
 21
0
  0
LINE
  8
0
 10
69
 20
0
 11
69
 21
650
  0
LINE
  8
0
 10
32.3611
 20
646.712
 11
32.1
 21
646.807
  0
LINE
  8
0
 10
32.1
 20
646.807
 11
31.8872
 21
646.986
  0
LINE
  8
0
 10
31.8872
 20
646.986
 11
31.7482
 21
647.226
  0
LINE
  8
0
 10
31.7482
 20
647.226
 11
31.7
 21
647.5
  0
LINE
  8
0
 10
31.7
 20
647.5
 11
31.7482
 21
647.774
  0
LINE
  8
0
 10
31.7482
 20
647.774
 11
31.8872
 21
648.014
  0
LINE
  8
0
 10
31.8872
 20
648.014
 11
32.1
 21
648.193
  0
LINE
  8
0
 10
32.1
 20
648.193
 11
32.3611
 21
648.288
  0
LINE
  8
0
 10
32.3611
 20
648.288
 11
32.6389
 21
648.288
  0
LINE
  8
0
 10
32.6389
 20
648.288
 11
32.9
 21
648.193
  0
LINE
  8
0
 10
32.9
 20
648.193
 11
33.1128
 21
648.014
  0
LINE
  8
0
 10
33.1128
 20
648.014
 11
33.2518
 21
647.774
  0
LINE
  8
0
 10
33.2518
 20
647.774
 11
33.3
 21
647.5
  0
LINE
  8
0
 10
33.3
 20
647.5
 11
33.2518
 21
647.226
  0
LINE
  8
0
 10
33.2518
 20
647.226
 11
33.1128
 21
646.986
  0
LINE
  8
0
 10
33.1128
 20
646.986
 11
32.9
 21
646.807
  0
LINE
  8
0
 10
32.9
 20
646.807
 11
32.6389
 21
646.712
  0
LINE
  8
0
 10
32.6389
 20
646.712
 11
32.3611
 21
646.712
  0
LINE
  8
0
 10
22.3611
 20
610.712
 11
22.1
 21
610.807
  0
LINE
  8
0
 10
22.1
 20
610.807
 11
21.8872
 21
610.986
  0
LINE
  8
0
 10
21.8872
 20
610.986
 11
21.7482
 21
611.226
  0
LINE
  8
0
 10
21.7482
 20
611.226
 11
21.7
 21
611.5
  0
LINE
  8
0
 10
21.7
 20
611.5
 11
21.7482
 21
611.774
  0
LINE
  8
0
 10
21.7482
 20
611.774
 11
21.8872
 21
612.014
  0
LINE
  8
0
 10
21.8872
 20
612.014
 11
22.1
 21
612.193
  0
LINE
  8
0
 10
22.1
 20
612.193
 11
22.3611
 21
612.288
  0
LINE
  8
0
 10
22.3611
 20
612.288
 11
22.6389
 21
612.288
  0
LINE
  8
0
 10
22.6389
 20
612.288
 11
22.9
 21
612.193
  0
LINE
  8
0
 10
22.9
 20
612.193
 11
23.1128
 21
612.014
  0
LINE
  8
0
 10
23.1128
 20
612.014
 11
23.2518
 21
611.774
  0
LINE
  8
0
 10
23.2518
 20
611.774
 11
23.3
 21
611.5
  0
LINE
  8
0
 10
23.3
 20
611.5
 11
23.2518
 21
611.226
  0
LINE
  8
0
 10
23.2518
 20
611.226
 11
23.1128
 21
610.986
  0
LINE
  8
0
 10
23.1128
 20
610.986
 11
22.9
 21
610.807
  0
LINE
  8
0
 10
22.9
 20
610.807
 11
22.6389
 21
610.712
  0
LINE
  8
0
 10
22.6389
 20
610.712
 11
22.3611
 21
610.712
  0
LINE
  8
0
 10
28.3611
 20
602.712
 11
28.1
 21
602.807
  0
LINE
  8
0
 10
28.1
 20
602.807
 11
27.8872
 21
602.986
  0
LINE
  8
0
 10
27.8872
 20
602.986
 11
27.7482
 21
603.226
  0
LINE
  8
0
 10
27.7482
 20
603.226
 11
27.7
 21
603.5
  0
LINE
  8
0
 10
27.7
 20
603.5
 11
27.7482
 21
603.774
  0
LINE
  8
0
 10
27.7482
 20
603.774
 11
27.8872
 21
604.014
  0
LINE
  8
0
 10
27.8872
 20
604.014
 11
28.1
 21
604.193
  0
LINE
  8
0
 10
28.1
 20
604.193
 11
28.3611
 21
604.288
  0
LINE
  8
0
 10
28.3611
 20
604.288
 11
28.6389
 21
604.288
  0
LINE
  8
0
 10
28.6389
 20
604.288
 11
28.9
 21
604.193
  0
LINE
  8
0
 10
28.9
 20
604.193
 11
29.1128
 21
604.014
  0
LINE
  8
0
 10
29.1128
 20
604.014
 11
29.2518
 21
603.774
  0
LINE
  8
0
 10
29.2518
 20
603.774
 11
29.3
 21
603.5
  0
LINE
  8
0
 10
29.3
 20
603.5
 11
29.2518
 21
603.226
  0
LINE
  8
0
 10
29.2518
 20
603.226
 11
29.1128
 21
602.986
  0
LINE
  8
0
 10
29.1128
 20
602.986
 11
28.9
 21
602.807
  0
LINE
  8
0
 10
28.9
 20
602.807
 11
28.6389
 21
602.712
  0
LINE
  8
0
 10
28.6389
 20
602.712
 11
28.3611
 21
602.712
  0
LINE
  8
0
 10
24.3611
 20
594.712
 11
24.1
 21
594.807
  0
LINE
  8
0
 10
24.1
 20
594.807
 11
23.8872
 21
594.986
  0
LINE
  8
0
 10
23.8872
 20
594.986
 11
23.7482
 21
595.226
  0
LINE
  8
0
 10
23.7482
 20
595.226
 11
23.7
 21
595.5
  0
LINE
  8
0
 10
23.7
 20
595.5
 11
23.7482
 21
595.774
  0
LINE
  8
0
 10
23.7482
 20
595.774
 11
23.8872
 21
596.014
  0
LINE
  8
0
 10
23.8872
 20
596.014
 11
24.1
 21
596.193
  0
LINE
  8
0
 10
24.1
 20
596.193
 11
24.3611
 21
596.288
  0
LINE
  8
0
 10
24.3611
 20
596.288
 11
24.6389
 21
596.288
  0
LINE
  8
0
 10
24.6389
 20
596.288
 11
24.9
 21
596.193
  0
LINE
  8
0
 10
24.9
 20
596.193
 11
25.1128
 21
596.014
  0
LINE
  8
0
 10
25.1128
 20
596.014
 11
25.2518
 21
595.774
  0
LINE
  8
0
 10
25.2518
 20
595.774
 11
25.3
 21
595.5
  0
LINE
  8
0
 10
25.3
 20
595.5
 11
25.2518
 21
595.226
  0
LINE
  8
0
 10
25.2518
 20
595.226
 11
25.1128
 21
594.986
  0
LINE
  8
0
 10
25.1128
 20
594.986
 11
24.9
 21
594.807
  0
LINE
  8
0
 10
24.9
 20
594.807
 11
24.6389
 21
594.712
  0
LINE
  8
0
 10
24.6389
 20
594.712
 11
24.3611
 21
594.712
  0
LINE
  8
0
 10
22.3611
 20
586.712
 11
22.1
 21
586.807
  0
LINE
  8
0
 10
22.1
 20
586.807
 11
21.8872
 21
586.986
  0
LINE
  8
0
 10
21.8872
 20
586.986
 11
21.7482
 21
587.226
  0
LINE
  8
0
 10
21.7482
 20
587.226
 11
21.7
 21
587.5
  0
LINE
  8
0
 10
21.7
 20
587.5
 11
21.7482
 21
587.774
  0
LINE
  8
0
 10
21.7482
 20
587.774
 11
21.8872
 21
588.014
  0
LINE
  8
0
 10
21.8872
 20
588.014
 11
22.1
 21
588.193
  0
LINE
  8
0
 10
22.1
 20
588.193
 11
22.3611
 21
588.288
  0
LINE
  8
0
 10
22.3611
 20
588.288
 11
22.6389
 21
588.288
  0
LINE
  8
0
 10
22.6389
 20
588.288
 11
22.9
 21
588.193
  0
LINE
  8
0
 10
22.9
 20
588.193
 11
23.1128
 21
588.014
  0
LINE
  8
0
 10
23.1128
 20
588.014
 11
23.2518
 21
587.774
  0
LINE
  8
0
 10
23.2518
 20
587.774
 11
23.3
 21
587.5
  0
LINE
  8
0
 10
23.3
 20
587.5
 11
23.2518
 21
587.226
  0
LINE
  8
0
 10
23.2518
 20
587.226
 11
23.1128
 21
586.986
  0
LINE
  8
0
 10
23.1128
 20
586.986
 11
22.9
 21
586.807
  0
LINE
  8
0
 10
22.9
 20
586.807
 11
22.6389
 21
586.712
  0
LINE
  8
0
 10
22.6389
 20
586.712
 11
22.3611
 21
586.712
  0
LINE
  8
0
 10
32.3611
 20
556.712
 11
32.1
 21
556.807
  0
LINE
  8
0
 10
32.1
 20
556.807
 11
31.8872
 21
556.986
  0
LINE
  8
0
 10
31.8872
 20
556.986
 11
31.7482
 21
557.226
  0
LINE
  8
0
 10
31.7482
 20
557.226
 11
31.7
 21
557.5
  0
LINE
  8
0
 10
31.7
 20
557.5
 11
31.7482
 21
557.774
  0
LINE
  8
0
 10
31.7482
 20
557.774
 11
31.8872
 21
558.014
  0
LINE
  8
0
 10
31.8872
 20
558.014
 11
32.1
 21
558.193
  0
LINE
  8
0
 10
32.1
 20
558.193
 11
32.3611
 21
558.288
  0
LINE
  8
0
 10
32.3611
 20
558.288
 11
32.6389
 21
558.288
  0
LINE
  8
0
 10
32.6389
 20
558.288
 11
32.9
 21
558.193
  0
LINE
  8
0
 10
32.9
 20
558.193
 11
33.1128
 21
558.014
  0
LINE
  8
0
 10
33.1128
 20
558.014
 11
33.2518
 21
557.774
  0
LINE
  8
0
 10
33.2518
 20
557.774
 11
33.3
 21
557.5
  0
LINE
  8
0
 10
33.3
 20
557.5
 11
33.2518
 21
557.226
  0
LINE
  8
0
 10
33.2518
 20
557.226
 11
33.1128
 21
556.986
  0
LINE
  8
0
 10
33.1128
 20
556.986
 11
32.9
 21
556.807
  0
LINE
  8
0
 10
32.9
 20
556.807
 11
32.6389
 21
556.712
  0
LINE
  8
0
 10
32.6389
 20
556.712
 11
32.3611
 21
556.712
  0
LINE
  8
0
 10
28.3611
 20
550.712
 11
28.1
 21
550.807
  0
LINE
  8
0
 10
28.1
 20
550.807
 11
27.8872
 21
550.986
  0
LINE
  8
0
 10
27.8872
 20
550.986
 11
27.7482
 21
551.226
  0
LINE
  8
0
 10
27.7482
 20
551.226
 11
27.7
 21
551.5
  0
LINE
  8
0
 10
27.7
 20
551.5
 11
27.7482
 21
551.774
  0
LINE
  8
0
 10
27.7482
 20
551.774
 11
27.8872
 21
552.014
  0
LINE
  8
0
 10
27.8872
 20
552.014
 11
28.1
 21
552.193
  0
LINE
  8
0
 10
28.1
 20
552.193
 11
28.3611
 21
552.288
  0
LINE
  8
0
 10
28.3611
 20
552.288
 11
28.6389
 21
552.288
  0
LINE
  8
0
 10
28.6389
 20
552.288
 11
28.9
 21
552.193
  0
LINE
  8
0
 10
28.9
 20
552.193
 11
29.1128
 21
552.014
  0
LINE
  8
0
 10
29.1128
 20
552.014
 11
29.2518
 21
551.774
  0
LINE
  8
0
 10
29.2518
 20
551.774
 11
29.3
 21
551.5
  0
LINE
  8
0
 10
29.3
 20
551.5
 11
29.2518
 21
551.226
  0
LINE
  8
0
 10
29.2518
 20
551.226
 11
29.1128
 21
550.986
  0
LINE
  8
0
 10
29.1128
 20
550.986
 11
28.9
 21
550.807
  0
LINE
  8
0
 10
28.9
 20
550.807
 11
28.6389
 21
550.712
  0
LINE
  8
0
 10
28.6389
 20
550.712
 11
28.3611
 21
550.712
  0
LINE
  8
0
 10
24.3611
 20
544.712
 11
24.1
 21
544.807
  0
LINE
  8
0
 10
24.1
 20
544.807
 11
23.8872
 21
544.986
  0
LINE
  8
0
 10
23.8872
 20
544.986
 11
23.7482
 21
545.226
  0
LINE
  8
0
 10
23.7482
 20
545.226
 11
23.7
 21
545.5
  0
LINE
  8
0
 10
23.7
 20
545.5
 11
23.7482
 21
545.774
  0
LINE
  8
0
 10
23.7482
 20
545.774
 11
23.8872
 21
546.014
  0
LINE
  8
0
 10
23.8872
 20
546.014
 11
24.1
 21
546.193
  0
LINE
  8
0
 10
24.1
 20
546.193
 11
24.3611
 21
546.288
  0
LINE
  8
0
 10
24.3611
 20
546.288
 11
24.6389
 21
546.288
  0
LINE
  8
0
 10
24.6389
 20
546.288
 11
24.9
 21
546.193
  0
LINE
  8
0
 10
24.9
 20
546.193
 11
25.1128
 21
546.014
  0
LINE
  8
0
 10
25.1128
 20
546.014
 11
25.2518
 21
545.774
  0
LINE
  8
0
 10
25.2518
 20
545.774
 11
25.3
 21
545.5
  0
LINE
  8
0
 10
25.3
 20
545.5
 11
25.2518
 21
545.226
  0
LINE
  8
0
 10
25.2518
 20
545.226
 11
25.1128
 21
544.986
  0
LINE
  8
0
 10
25.1128
 20
544.986
 11
24.9
 21
544.807
  0
LINE
  8
0
 10
24.9
 20
544.807
 11
24.6389
 21
544.712
  0
LINE
  8
0
 10
24.6389
 20
544.712
 11
24.3611
 21
544.712
  0
LINE
  8
0
 10
22.3611
 20
538.712
 11
22.1
 21
538.807
  0
LINE
  8
0
 10
22.1
 20
538.807
 11
21.8872
 21
538.986
  0
LINE
  8
0
 10
21.8872
 20
538.986
 11
21.7482
 21
539.226
  0
LINE
  8
0
 10
21.7482
 20
539.226
 11
21.7
 21
539.5
  0
LINE
  8
0
 10
21.7
 20
539.5
 11
21.7482
 21
539.774
  0
LINE
  8
0
 10
21.7482
 20
539.774
 11
21.8872
 21
540.014
  0
LINE
  8
0
 10
21.8872
 20
540.014
 11
22.1
 21
540.193
  0
LINE
  8
0
 10
22.1
 20
540.193
 11
22.3611
 21
540.288
  0
LINE
  8
0
 10
22.3611
 20
540.288
 11
22.6389
 21
540.288
  0
LINE
  8
0
 10
22.6389
 20
540.288
 11
22.9
 21
540.193
  0
LINE
  8
0
 10
22.9
 20
540.193
 11
23.1128
 21
540.014
  0
LINE
  8
0
 10
23.1128
 20
540.014
 11
23.2518
 21
539.774
  0
LINE
  8
0
 10
23.2518
 20
539.774
 11
23.3
 21
539.5
  0
LINE
  8
0
 10
23.3
 20
539.5
 11
23.2518
 21
539.226
  0
LINE
  8
0
 10
23.2518
 20
539.226
 11
23.1128
 21
538.986
  0
LINE
  8
0
 10
23.1128
 20
538.986
 11
22.9
 21
538.807
  0
LINE
  8
0
 10
22.9
 20
538.807
 11
22.6389
 21
538.712
  0
LINE
  8
0
 10
22.6389
 20
538.712
 11
22.3611
 21
538.712
  0
LINE
  8
0
 10
32.3611
 20
532.712
 11
32.1
 21
532.807
  0
LINE
  8
0
 10
32.1
 20
532.807
 11
31.8872
 21
532.986
  0
LINE
  8
0
 10
31.8872
 20
532.986
 11
31.7482
 21
533.226
  0
LINE
  8
0
 10
31.7482
 20
533.226
 11
31.7
 21
533.5
  0
LINE
  8
0
 10
31.7
 20
533.5
 11
31.7482
 21
533.774
  0
LINE
  8
0
 10
31.7482
 20
533.774
 11
31.8872
 21
534.014
  0
LINE
  8
0
 10
31.8872
 20
534.014
 11
32.1
 21
534.193
  0
LINE
  8
0
 10
32.1
 20
534.193
 11
32.3611
 21
534.288
  0
LINE
  8
0
 10
32.3611
 20
534.288
 11
32.6389
 21
534.288
  0
LINE
  8
0
 10
32.6389
 20
534.288
 11
32.9
 21
534.193
  0
LINE
  8
0
 10
32.9
 20
534.193
 11
33.1128
 21
534.014
  0
LINE
  8
0
 10
33.1128
 20
534.014
 11
33.2518
 21
533.774
  0
LINE
  8
0
 10
33.2518
 20
533.774
 11
33.3
 21
533.5
  0
LINE
  8
0
 10
33.3
 20
533.5
 11
33.2518
 21
533.226
  0
LINE
  8
0
 10
33.2518
 20
533.226
 11
33.1128
 21
532.986
  0
LINE
  8
0
 10
33.1128
 20
532.986
 11
32.9
 21
532.807
  0
LINE
  8
0
 10
32.9
 20
532.807
 11
32.6389
 21
532.712
  0
LINE
  8
0
 10
32.6389
 20
532.712
 11
32.3611
 21
532.712
  0
LINE
  8
0
 10
32.3611
 20
526.712
 11
32.1
 21
526.807
  0
LINE
  8
0
 10
32.1
 20
526.807
 11
31.8872
 21
526.986
  0
LINE
  8
0
 10
31.8872
 20
526.986
 11
31.7482
 21
527.226
  0
LINE
  8
0
 10
31.7482
 20
527.226
 11
31.7
 21
527.5
  0
LINE
  8
0
 10
31.7
 20
527.5
 11
31.7482
 21
527.774
  0
LINE
  8
0
 10
31.7482
 20
527.774
 11
31.8872
 21
528.014
  0
LINE
  8
0
 10
31.8872
 20
528.014
 11
32.1
 21
528.193
  0
LINE
  8
0
 10
32.1
 20
528.193
 11
32.3611
 21
528.288
  0
LINE
  8
0
 10
32.3611
 20
528.288
 11
32.6389
 21
528.288
  0
LINE
  8
0
 10
32.6389
 20
528.288
 11
32.9
 21
528.193
  0
LINE
  8
0
 10
32.9
 20
528.193
 11
33.1128
 21
528.014
  0
LINE
  8
0
 10
33.1128
 20
528.014
 11
33.2518
 21
527.774
  0
LINE
  8
0
 10
33.2518
 20
527.774
 11
33.3
 21
527.5
  0
LINE
  8
0
 10
33.3
 20
527.5
 11
33.2518
 21
527.226
  0
LINE
  8
0
 10
33.2518
 20
527.226
 11
33.1128
 21
526.986
  0
LINE
  8
0
 10
33.1128
 20
526.986
 11
32.9
 21
526.807
  0
LINE
  8
0
 10
32.9
 20
526.807
 11
32.6389
 21
526.712
  0
LINE
  8
0
 10
32.6389
 20
526.712
 11
32.3611
 21
526.712
  0
LINE
  8
0
 10
28.3611
 20
508.712
 11
28.1
 21
508.807
  0
LINE
  8
0
 10
28.1
 20
508.807
 11
27.8872
 21
508.986
  0
LINE
  8
0
 10
27.8872
 20
508.986
 11
27.7482
 21
509.226
  0
LINE
  8
0
 10
27.7482
 20
509.226
 11
27.7
 21
509.5
  0
LINE
  8
0
 10
27.7
 20
509.5
 11
27.7482
 21
509.774
  0
LINE
  8
0
 10
27.7482
 20
509.774
 11
27.8872
 21
510.014
  0
LINE
  8
0
 10
27.8872
 20
510.014
 11
28.1
 21
510.193
  0
LINE
  8
0
 10
28.1
 20
510.193
 11
28.3611
 21
510.288
  0
LINE
  8
0
 10
28.3611
 20
510.288
 11
28.6389
 21
510.288
  0
LINE
  8
0
 10
28.6389
 20
510.288
 11
28.9
 21
510.193
  0
LINE
  8
0
 10
28.9
 20
510.193
 11
29.1128
 21
510.014
  0
LINE
  8
0
 10
29.1128
 20
510.014
 11
29.2518
 21
509.774
  0
LINE
  8
0
 10
29.2518
 20
509.774
 11
29.3
 21
509.5
  0
LINE
  8
0
 10
29.3
 20
509.5
 11
29.2518
 21
509.226
  0
LINE
  8
0
 10
29.2518
 20
509.226
 11
29.1128
 21
508.986
  0
LINE
  8
0
 10
29.1128
 20
508.986
 11
28.9
 21
508.807
  0
LINE
  8
0
 10
28.9
 20
508.807
 11
28.6389
 21
508.712
  0
LINE
  8
0
 10
28.6389
 20
508.712
 11
28.3611
 21
508.712
  0
LINE
  8
0
 10
24.3611
 20
490.712
 11
24.1
 21
490.807
  0
LINE
  8
0
 10
24.1
 20
490.807
 11
23.8872
 21
490.986
  0
LINE
  8
0
 10
23.8872
 20
490.986
 11
23.7482
 21
491.226
  0
LINE
  8
0
 10
23.7482
 20
491.226
 11
23.7
 21
491.5
  0
LINE
  8
0
 10
23.7
 20
491.5
 11
23.7482
 21
491.774
  0
LINE
  8
0
 10
23.7482
 20
491.774
 11
23.8872
 21
492.014
  0
LINE
  8
0
 10
23.8872
 20
492.014
 11
24.1
 21
492.193
  0
LINE
  8
0
 10
24.1
 20
492.193
 11
24.3611
 21
492.288
  0
LINE
  8
0
 10
24.3611
 20
492.288
 11
24.6389
 21
492.288
  0
LINE
  8
0
 10
24.6389
 20
492.288
 11
24.9
 21
492.193
  0
LINE
  8
0
 10
24.9
 20
492.193
 11
25.1128
 21
492.014
  0
LINE
  8
0
 10
25.1128
 20
492.014
 11
25.2518
 21
491.774
  0
LINE
  8
0
 10
25.2518
 20
491.774
 11
25.3
 21
491.5
  0
LINE
  8
0
 10
25.3
 20
491.5
 11
25.2518
 21
491.226
  0
LINE
  8
0
 10
25.2518
 20
491.226
 11
25.1128
 21
490.986
  0
LINE
  8
0
 10
25.1128
 20
490.986
 11
24.9
 21
490.807
  0
LINE
  8
0
 10
24.9
 20
490.807
 11
24.6389
 21
490.712
  0
LINE
  8
0
 10
24.6389
 20
490.712
 11
24.3611
 21
490.712
  0
LINE
  8
0
 10
24.3611
 20
484.712
 11
24.1
 21
484.807
  0
LINE
  8
0
 10
24.1
 20
484.807
 11
23.8872
 21
484.986
  0
LINE
  8
0
 10
23.8872
 20
484.986
 11
23.7482
 21
485.226
  0
LINE
  8
0
 10
23.7482
 20
485.226
 11
23.7
 21
485.5
  0
LINE
  8
0
 10
23.7
 20
485.5
 11
23.7482
 21
485.774
  0
LINE
  8
0
 10
23.7482
 20
485.774
 11
23.8872
 21
486.014
  0
LINE
  8
0
 10
23.8872
 20
486.014
 11
24.1
 21
486.193
  0
LINE
  8
0
 10
24.1
 20
486.193
 11
24.3611
 21
486.288
  0
LINE
  8
0
 10
24.3611
 20
486.288
 11
24.6389
 21
486.288
  0
LINE
  8
0
 10
24.6389
 20
486.288
 11
24.9
 21
486.193
  0
LINE
  8
0
 10
24.9
 20
486.193
 11
25.1128
 21
486.014
  0
LINE
  8
0
 10
25.1128
 20
486.014
 11
25.2518
 21
485.774
  0
LINE
  8
0
 10
25.2518
 20
485.774
 11
25.3
 21
485.5
  0
LINE
  8
0
 10
25.3
 20
485.5
 11
25.2518
 21
485.226
  0
LINE
  8
0
 10
25.2518
 20
485.226
 11
25.1128
 21
484.986
  0
LINE
  8
0
 10
25.1128
 20
484.986
 11
24.9
 21
484.807
  0
LINE
  8
0
 10
24.9
 20
484.807
 11
24.6389
 21
484.712
  0
LINE
  8
0
 10
24.6389
 20
484.712
 11
24.3611
 21
484.712
  0
LINE
  8
0
 10
22.3611
 20
466.712
 11
22.1
 21
466.807
  0
LINE
  8
0
 10
22.1
 20
466.807
 11
21.8872
 21
466.986
  0
LINE
  8
0
 10
21.8872
 20
466.986
 11
21.7482
 21
467.226
  0
LINE
  8
0
 10
21.7482
 20
467.226
 11
21.7
 21
467.5
  0
LINE
  8
0
 10
21.7
 20
467.5
 11
21.7482
 21
467.774
  0
LINE
  8
0
 10
21.7482
 20
467.774
 11
21.8872
 21
468.014
  0
LINE
  8
0
 10
21.8872
 20
468.014
 11
22.1
 21
468.193
  0
LINE
  8
0
 10
22.1
 20
468.193
 11
22.3611
 21
468.288
  0
LINE
  8
0
 10
22.3611
 20
468.288
 11
22.6389
 21
468.288
  0
LINE
  8
0
 10
22.6389
 20
468.288
 11
22.9
 21
468.193
  0
LINE
  8
0
 10
22.9
 20
468.193
 11
23.1128
 21
468.014
  0
LINE
  8
0
 10
23.1128
 20
468.014
 11
23.2518
 21
467.774
  0
LINE
  8
0
 10
23.2518
 20
467.774
 11
23.3
 21
467.5
  0
LINE
  8
0
 10
23.3
 20
467.5
 11
23.2518
 21
467.226
  0
LINE
  8
0
 10
23.2518
 20
467.226
 11
23.1128
 21
466.986
  0
LINE
  8
0
 10
23.1128
 20
466.986
 11
22.9
 21
466.807
  0
LINE
  8
0
 10
22.9
 20
466.807
 11
22.6389
 21
466.712
  0
LINE
  8
0
 10
22.6389
 20
466.712
 11
22.3611
 21
466.712
  0
LINE
  8
0
 10
32.3611
 20
460.712
 11
32.1
 21
460.807
  0
LINE
  8
0
 10
32.1
 20
460.807
 11
31.8872
 21
460.986
  0
LINE
  8
0
 10
31.8872
 20
460.986
 11
31.7482
 21
461.226
  0
LINE
  8
0
 10
31.7482
 20
461.226
 11
31.7
 21
461.5
  0
LINE
  8
0
 10
31.7
 20
461.5
 11
31.7482
 21
461.774
  0
LINE
  8
0
 10
31.7482
 20
461.774
 11
31.8872
 21
462.014
  0
LINE
  8
0
 10
31.8872
 20
462.014
 11
32.1
 21
462.193
  0
LINE
  8
0
 10
32.1
 20
462.193
 11
32.3611
 21
462.288
  0
LINE
  8
0
 10
32.3611
 20
462.288
 11
32.6389
 21
462.288
  0
LINE
  8
0
 10
32.6389
 20
462.288
 11
32.9
 21
462.193
  0
LINE
  8
0
 10
32.9
 20
462.193
 11
33.1128
 21
462.014
  0
LINE
  8
0
 10
33.1128
 20
462.014
 11
33.2518
 21
461.774
  0
LINE
  8
0
 10
33.2518
 20
461.774
 11
33.3
 21
461.5
  0
LINE
  8
0
 10
33.3
 20
461.5
 11
33.2518
 21
461.226
  0
LINE
  8
0
 10
33.2518
 20
461.226
 11
33.1128
 21
460.986
  0
LINE
  8
0
 10
33.1128
 20
460.986
 11
32.9
 21
460.807
  0
LINE
  8
0
 10
32.9
 20
460.807
 11
32.6389
 21
460.712
  0
LINE
  8
0
 10
32.6389
 20
460.712
 11
32.3611
 21
460.712
  0
LINE
  8
0
 10
28.3611
 20
454.712
 11
28.1
 21
454.807
  0
LINE
  8
0
 10
28.1
 20
454.807
 11
27.8872
 21
454.986
  0
LINE
  8
0
 10
27.8872
 20
454.986
 11
27.7482
 21
455.226
  0
LINE
  8
0
 10
27.7482
 20
455.226
 11
27.7
 21
455.5
  0
LINE
  8
0
 10
27.7
 20
455.5
 11
27.7482
 21
455.774
  0
LINE
  8
0
 10
27.7482
 20
455.774
 11
27.8872
 21
456.014
  0
LINE
  8
0
 10
27.8872
 20
456.014
 11
28.1
 21
456.193
  0
LINE
  8
0
 10
28.1
 20
456.193
 11
28.3611
 21
456.288
  0
LINE
  8
0
 10
28.3611
 20
456.288
 11
28.6389
 21
456.288
  0
LINE
  8
0
 10
28.6389
 20
456.288
 11
28.9
 21
456.193
  0
LINE
  8
0
 10
28.9
 20
456.193
 11
29.1128
 21
456.014
  0
LINE
  8
0
 10
29.1128
 20
456.014
 11
29.2518
 21
455.774
  0
LINE
  8
0
 10
29.2518
 20
455.774
 11
29.3
 21
455.5
  0
LINE
  8
0
 10
29.3
 20
455.5
 11
29.2518
 21
455.226
  0
LINE
  8
0
 10
29.2518
 20
455.226
 11
29.1128
 21
454.986
  0
LINE
  8
0
 10
29.1128
 20
454.986
 11
28.9
 21
454.807
  0
LINE
  8
0
 10
28.9
 20
454.807
 11
28.6389
 21
454.712
  0
LINE
  8
0
 10
28.6389
 20
454.712
 11
28.3611
 21
454.712
  0
LINE
  8
0
 10
24.3611
 20
448.712
 11
24.1
 21
448.807
  0
LINE
  8
0
 10
24.1
 20
448.807
 11
23.8872
 21
448.986
  0
LINE
  8
0
 10
23.8872
 20
448.986
 11
23.7482
 21
449.226
  0
LINE
  8
0
 10
23.7482
 20
449.226
 11
23.7
 21
449.5
  0
LINE
  8
0
 10
23.7
 20
449.5
 11
23.7482
 21
449.774
  0
LINE
  8
0
 10
23.7482
 20
449.774
 11
23.8872
 21
450.014
  0
LINE
  8
0
 10
23.8872
 20
450.014
 11
24.1
 21
450.193
  0
LINE
  8
0
 10
24.1
 20
450.193
 11
24.3611
 21
450.288
  0
LINE
  8
0
 10
24.3611
 20
450.288
 11
24.6389
 21
450.288
  0
LINE
  8
0
 10
24.6389
 20
450.288
 11
24.9
 21
450.193
  0
LINE
  8
0
 10
24.9
 20
450.193
 11
25.1128
 21
450.014
  0
LINE
  8
0
 10
25.1128
 20
450.014
 11
25.2518
 21
449.774
  0
LINE
  8
0
 10
25.2518
 20
449.774
 11
25.3
 21
449.5
  0
LINE
  8
0
 10
25.3
 20
449.5
 11
25.2518
 21
449.226
  0
LINE
  8
0
 10
25.2518
 20
449.226
 11
25.1128
 21
448.986
  0
LINE
  8
0
 10
25.1128
 20
448.986
 11
24.9
 21
448.807
  0
LINE
  8
0
 10
24.9
 20
448.807
 11
24.6389
 21
448.712
  0
LINE
  8
0
 10
24.6389
 20
448.712
 11
24.3611
 21
448.712
  0
LINE
  8
0
 10
22.3611
 20
442.712
 11
22.1
 21
442.807
  0
LINE
  8
0
 10
22.1
 20
442.807
 11
21.8872
 21
442.986
  0
LINE
  8
0
 10
21.8872
 20
442.986
 11
21.7482
 21
443.226
  0
LINE
  8
0
 10
21.7482
 20
443.226
 11
21.7
 21
443.5
  0
LINE
  8
0
 10
21.7
 20
443.5
 11
21.7482
 21
443.774
  0
LINE
  8
0
 10
21.7482
 20
443.774
 11
21.8872
 21
444.014
  0
LINE
  8
0
 10
21.8872
 20
444.014
 11
22.1
 21
444.193
  0
LINE
  8
0
 10
22.1
 20
444.193
 11
22.3611
 21
444.288
  0
LINE
  8
0
 10
22.3611
 20
444.288
 11
22.6389
 21
444.288
  0
LINE
  8
0
 10
22.6389
 20
444.288
 11
22.9
 21
444.193
  0
LINE
  8
0
 10
22.9
 20
444.193
 11
23.1128
 21
444.014
  0
LINE
  8
0
 10
23.1128
 20
444.014
 11
23.2518
 21
443.774
  0
LINE
  8
0
 10
23.2518
 20
443.774
 11
23.3
 21
443.5
  0
LINE
  8
0
 10
23.3
 20
443.5
 11
23.2518
 21
443.226
  0
LINE
  8
0
 10
23.2518
 20
443.226
 11
23.1128
 21
442.986
  0
LINE
  8
0
 10
23.1128
 20
442.986
 11
22.9
 21
442.807
  0
LINE
  8
0
 10
22.9
 20
442.807
 11
22.6389
 21
442.712
  0
LINE
  8
0
 10
22.6389
 20
442.712
 11
22.3611
 21
442.712
  0
LINE
  8
0
 10
32.3611
 20
436.712
 11
32.1
 21
436.807
  0
LINE
  8
0
 10
32.1
 20
436.807
 11
31.8872
 21
436.986
  0
LINE
  8
0
 10
31.8872
 20
436.986
 11
31.7482
 21
437.226
  0
LINE
  8
0
 10
31.7482
 20
437.226
 11
31.7
 21
437.5
  0
LINE
  8
0
 10
31.7
 20
437.5
 11
31.7482
 21
437.774
  0
LINE
  8
0
 10
31.7482
 20
437.774
 11
31.8872
 21
438.014
  0
LINE
  8
0
 10
31.8872
 20
438.014
 11
32.1
 21
438.193
  0
LINE
  8
0
 10
32.1
 20
438.193
 11
32.3611
 21
438.288
  0
LINE
  8
0
 10
32.3611
 20
438.288
 11
32.6389
 21
438.288
  0
LINE
  8
0
 10
32.6389
 20
438.288
 11
32.9
 21
438.193
  0
LINE
  8
0
 10
32.9
 20
438.193
 11
33.1128
 21
438.014
  0
LINE
  8
0
 10
33.1128
 20
438.014
 11
33.2518
 21
437.774
  0
LINE
  8
0
 10
33.2518
 20
437.774
 11
33.3
 21
437.5
  0
LINE
  8
0
 10
33.3
 20
437.5
 11
33.2518
 21
437.226
  0
LINE
  8
0
 10
33.2518
 20
437.226
 11
33.1128
 21
436.986
  0
LINE
  8
0
 10
33.1128
 20
436.986
 11
32.9
 21
436.807
  0
LINE
  8
0
 10
32.9
 20
436.807
 11
32.6389
 21
436.712
  0
LINE
  8
0
 10
32.6389
 20
436.712
 11
32.3611
 21
436.712
  0
LINE
  8
0
 10
32.3611
 20
430.712
 11
32.1
 21
430.807
  0
LINE
  8
0
 10
32.1
 20
430.807
 11
31.8872
 21
430.986
  0
LINE
  8
0
 10
31.8872
 20
430.986
 11
31.7482
 21
431.226
  0
LINE
  8
0
 10
31.7482
 20
431.226
 11
31.7
 21
431.5
  0
LINE
  8
0
 10
31.7
 20
431.5
 11
31.7482
 21
431.774
  0
LINE
  8
0
 10
31.7482
 20
431.774
 11
31.8872
 21
432.014
  0
LINE
  8
0
 10
31.8872
 20
432.014
 11
32.1
 21
432.193
  0
LINE
  8
0
 10
32.1
 20
432.193
 11
32.3611
 21
432.288
  0
LINE
  8
0
 10
32.3611
 20
432.288
 11
32.6389
 21
432.288
  0
LINE
  8
0
 10
32.6389
 20
432.288
 11
32.9
 21
432.193
  0
LINE
  8
0
 10
32.9
 20
432.193
 11
33.1128
 21
432.014
  0
LINE
  8
0
 10
33.1128
 20
432.014
 11
33.2518
 21
431.774
  0
LINE
  8
0
 10
33.2518
 20
431.774
 11
33.3
 21
431.5
  0
LINE
  8
0
 10
33.3
 20
431.5
 11
33.2518
 21
431.226
  0
LINE
  8
0
 10
33.2518
 20
431.226
 11
33.1128
 21
430.986
  0
LINE
  8
0
 10
33.1128
 20
430.986
 11
32.9
 21
430.807
  0
LINE
  8
0
 10
32.9
 20
430.807
 11
32.6389
 21
430.712
  0
LINE
  8
0
 10
32.6389
 20
430.712
 11
32.3611
 21
430.712
  0
LINE
  8
0
 10
24.3611
 20
394.712
 11
24.1
 21
394.807
  0
LINE
  8
0
 10
24.1
 20
394.807
 11
23.8872
 21
394.986
  0
LINE
  8
0
 10
23.8872
 20
394.986
 11
23.7482
 21
395.226
  0
LINE
  8
0
 10
23.7482
 20
395.226
 11
23.7
 21
395.5
  0
LINE
  8
0
 10
23.7
 20
395.5
 11
23.7482
 21
395.774
  0
LINE
  8
0
 10
23.7482
 20
395.774
 11
23.8872
 21
396.014
  0
LINE
  8
0
 10
23.8872
 20
396.014
 11
24.1
 21
396.193
  0
LINE
  8
0
 10
24.1
 20
396.193
 11
24.3611
 21
396.288
  0
LINE
  8
0
 10
24.3611
 20
396.288
 11
24.6389
 21
396.288
  0
LINE
  8
0
 10
24.6389
 20
396.288
 11
24.9
 21
396.193
  0
LINE
  8
0
 10
24.9
 20
396.193
 11
25.1128
 21
396.014
  0
LINE
  8
0
 10
25.1128
 20
396.014
 11
25.2518
 21
395.774
  0
LINE
  8
0
 10
25.2518
 20
395.774
 11
25.3
 21
395.5
  0
LINE
  8
0
 10
25.3
 20
395.5
 11
25.2518
 21
395.226
  0
LINE
  8
0
 10
25.2518
 20
395.226
 11
25.1128
 21
394.986
  0
LINE
  8
0
 10
25.1128
 20
394.986
 11
24.9
 21
394.807
  0
LINE
  8
0
 10
24.9
 20
394.807
 11
24.6389
 21
394.712
  0
LINE
  8
0
 10
24.6389
 20
394.712
 11
24.3611
 21
394.712
  0
LINE
  8
0
 10
24.3611
 20
388.712
 11
24.1
 21
388.807
  0
LINE
  8
0
 10
24.1
 20
388.807
 11
23.8872
 21
388.986
  0
LINE
  8
0
 10
23.8872
 20
388.986
 11
23.7482
 21
389.226
  0
LINE
  8
0
 10
23.7482
 20
389.226
 11
23.7
 21
389.5
  0
LINE
  8
0
 10
23.7
 20
389.5
 11
23.7482
 21
389.774
  0
LINE
  8
0
 10
23.7482
 20
389.774
 11
23.8872
 21
390.014
  0
LINE
  8
0
 10
23.8872
 20
390.014
 11
24.1
 21
390.193
  0
LINE
  8
0
 10
24.1
 20
390.193
 11
24.3611
 21
390.288
  0
LINE
  8
0
 10
24.3611
 20
390.288
 11
24.6389
 21
390.288
  0
LINE
  8
0
 10
24.6389
 20
390.288
 11
24.9
 21
390.193
  0
LINE
  8
0
 10
24.9
 20
390.193
 11
25.1128
 21
390.014
  0
LINE
  8
0
 10
25.1128
 20
390.014
 11
25.2518
 21
389.774
  0
LINE
  8
0
 10
25.2518
 20
389.774
 11
25.3
 21
389.5
  0
LINE
  8
0
 10
25.3
 20
389.5
 11
25.2518
 21
389.226
  0
LINE
  8
0
 10
25.2518
 20
389.226
 11
25.1128
 21
388.986
  0
LINE
  8
0
 10
25.1128
 20
388.986
 11
24.9
 21
388.807
  0
LINE
  8
0
 10
24.9
 20
388.807
 11
24.6389
 21
388.712
  0
LINE
  8
0
 10
24.6389
 20
388.712
 11
24.3611
 21
388.712
  0
LINE
  8
0
 10
22.3611
 20
370.712
 11
22.1
 21
370.807
  0
LINE
  8
0
 10
22.1
 20
370.807
 11
21.8872
 21
370.986
  0
LINE
  8
0
 10
21.8872
 20
370.986
 11
21.7482
 21
371.226
  0
LINE
  8
0
 10
21.7482
 20
371.226
 11
21.7
 21
371.5
  0
LINE
  8
0
 10
21.7
 20
371.5
 11
21.7482
 21
371.774
  0
LINE
  8
0
 10
21.7482
 20
371.774
 11
21.8872
 21
372.014
  0
LINE
  8
0
 10
21.8872
 20
372.014
 11
22.1
 21
372.193
  0
LINE
  8
0
 10
22.1
 20
372.193
 11
22.3611
 21
372.288
  0
LINE
  8
0
 10
22.3611
 20
372.288
 11
22.6389
 21
372.288
  0
LINE
  8
0
 10
22.6389
 20
372.288
 11
22.9
 21
372.193
  0
LINE
  8
0
 10
22.9
 20
372.193
 11
23.1128
 21
372.014
  0
LINE
  8
0
 10
23.1128
 20
372.014
 11
23.2518
 21
371.774
  0
LINE
  8
0
 10
23.2518
 20
371.774
 11
23.3
 21
371.5
  0
LINE
  8
0
 10
23.3
 20
371.5
 11
23.2518
 21
371.226
  0
LINE
  8
0
 10
23.2518
 20
371.226
 11
23.1128
 21
370.986
  0
LINE
  8
0
 10
23.1128
 20
370.986
 11
22.9
 21
370.807
  0
LINE
  8
0
 10
22.9
 20
370.807
 11
22.6389
 21
370.712
  0
LINE
  8
0
 10
22.6389
 20
370.712
 11
22.3611
 21
370.712
  0
LINE
  8
0
 10
32.3611
 20
364.712
 11
32.1
 21
364.807
  0
LINE
  8
0
 10
32.1
 20
364.807
 11
31.8872
 21
364.986
  0
LINE
  8
0
 10
31.8872
 20
364.986
 11
31.7482
 21
365.226
  0
LINE
  8
0
 10
31.7482
 20
365.226
 11
31.7
 21
365.5
  0
LINE
  8
0
 10
31.7
 20
365.5
 11
31.7482
 21
365.774
  0
LINE
  8
0
 10
31.7482
 20
365.774
 11
31.8872
 21
366.014
  0
LINE
  8
0
 10
31.8872
 20
366.014
 11
32.1
 21
366.193
  0
LINE
  8
0
 10
32.1
 20
366.193
 11
32.3611
 21
366.288
  0
LINE
  8
0
 10
32.3611
 20
366.288
 11
32.6389
 21
366.288
  0
LINE
  8
0
 10
32.6389
 20
366.288
 11
32.9
 21
366.193
  0
LINE
  8
0
 10
32.9
 20
366.193
 11
33.1128
 21
366.014
  0
LINE
  8
0
 10
33.1128
 20
366.014
 11
33.2518
 21
365.774
  0
LINE
  8
0
 10
33.2518
 20
365.774
 11
33.3
 21
365.5
  0
LINE
  8
0
 10
33.3
 20
365.5
 11
33.2518
 21
365.226
  0
LINE
  8
0
 10
33.2518
 20
365.226
 11
33.1128
 21
364.986
  0
LINE
  8
0
 10
33.1128
 20
364.986
 11
32.9
 21
364.807
  0
LINE
  8
0
 10
32.9
 20
364.807
 11
32.6389
 21
364.712
  0
LINE
  8
0
 10
32.6389
 20
364.712
 11
32.3611
 21
364.712
  0
LINE
  8
0
 10
28.3611
 20
358.712
 11
28.1
 21
358.807
  0
LINE
  8
0
 10
28.1
 20
358.807
 11
27.8872
 21
358.986
  0
LINE
  8
0
 10
27.8872
 20
358.986
 11
27.7482
 21
359.226
  0
LINE
  8
0
 10
27.7482
 20
359.226
 11
27.7
 21
359.5
  0
LINE
  8
0
 10
27.7
 20
359.5
 11
27.7482
 21
359.774
  0
LINE
  8
0
 10
27.7482
 20
359.774
 11
27.8872
 21
360.014
  0
LINE
  8
0
 10
27.8872
 20
360.014
 11
28.1
 21
360.193
  0
LINE
  8
0
 10
28.1
 20
360.193
 11
28.3611
 21
360.288
  0
LINE
  8
0
 10
28.3611
 20
360.288
 11
28.6389
 21
360.288
  0
LINE
  8
0
 10
28.6389
 20
360.288
 11
28.9
 21
360.193
  0
LINE
  8
0
 10
28.9
 20
360.193
 11
29.1128
 21
360.014
  0
LINE
  8
0
 10
29.1128
 20
360.014
 11
29.2518
 21
359.774
  0
LINE
  8
0
 10
29.2518
 20
359.774
 11
29.3
 21
359.5
  0
LINE
  8
0
 10
29.3
 20
359.5
 11
29.2518
 21
359.226
  0
LINE
  8
0
 10
29.2518
 20
359.226
 11
29.1128
 21
358.986
  0
LINE
  8
0
 10
29.1128
 20
358.986
 11
28.9
 21
358.807
  0
LINE
  8
0
 10
28.9
 20
358.807
 11
28.6389
 21
358.712
  0
LINE
  8
0
 10
28.6389
 20
358.712
 11
28.3611
 21
358.712
  0
LINE
  8
0
 10
24.3611
 20
352.712
 11
24.1
 21
352.807
  0
LINE
  8
0
 10
24.1
 20
352.807
 11
23.8872
 21
352.986
  0
LINE
  8
0
 10
23.8872
 20
352.986
 11
23.7482
 21
353.226
  0
LINE
  8
0
 10
23.7482
 20
353.226
 11
23.7
 21
353.5
  0
LINE
  8
0
 10
23.7
 20
353.5
 11
23.7482
 21
353.774
  0
LINE
  8
0
 10
23.7482
 20
353.774
 11
23.8872
 21
354.014
  0
LINE
  8
0
 10
23.8872
 20
354.014
 11
24.1
 21
354.193
  0
LINE
  8
0
 10
24.1
 20
354.193
 11
24.3611
 21
354.288
  0
LINE
  8
0
 10
24.3611
 20
354.288
 11
24.6389
 21
354.288
  0
LINE
  8
0
 10
24.6389
 20
354.288
 11
24.9
 21
354.193
  0
LINE
  8
0
 10
24.9
 20
354.193
 11
25.1128
 21
354.014
  0
LINE
  8
0
 10
25.1128
 20
354.014
 11
25.2518
 21
353.774
  0
LINE
  8
0
 10
25.2518
 20
353.774
 11
25.3
 21
353.5
  0
LINE
  8
0
 10
25.3
 20
353.5
 11
25.2518
 21
353.226
  0
LINE
  8
0
 10
25.2518
 20
353.226
 11
25.1128
 21
352.986
  0
LINE
  8
0
 10
25.1128
 20
352.986
 11
24.9
 21
352.807
  0
LINE
  8
0
 10
24.9
 20
352.807
 11
24.6389
 21
352.712
  0
LINE
  8
0
 10
24.6389
 20
352.712
 11
24.3611
 21
352.712
  0
LINE
  8
0
 10
22.3611
 20
346.712
 11
22.1
 21
346.807
  0
LINE
  8
0
 10
22.1
 20
346.807
 11
21.8872
 21
346.986
  0
LINE
  8
0
 10
21.8872
 20
346.986
 11
21.7482
 21
347.226
  0
LINE
  8
0
 10
21.7482
 20
347.226
 11
21.7
 21
347.5
  0
LINE
  8
0
 10
21.7
 20
347.5
 11
21.7482
 21
347.774
  0
LINE
  8
0
 10
21.7482
 20
347.774
 11
21.8872
 21
348.014
  0
LINE
  8
0
 10
21.8872
 20
348.014
 11
22.1
 21
348.193
  0
LINE
  8
0
 10
22.1
 20
348.193
 11
22.3611
 21
348.288
  0
LINE
  8
0
 10
22.3611
 20
348.288
 11
22.6389
 21
348.288
  0
LINE
  8
0
 10
22.6389
 20
348.288
 11
22.9
 21
348.193
  0
LINE
  8
0
 10
22.9
 20
348.193
 11
23.1128
 21
348.014
  0
LINE
  8
0
 10
23.1128
 20
348.014
 11
23.2518
 21
347.774
  0
LINE
  8
0
 10
23.2518
 20
347.774
 11
23.3
 21
347.5
  0
LINE
  8
0
 10
23.3
 20
347.5
 11
23.2518
 21
347.226
  0
LINE
  8
0
 10
23.2518
 20
347.226
 11
23.1128
 21
346.986
  0
LINE
  8
0
 10
23.1128
 20
346.986
 11
22.9
 21
346.807
  0
LINE
  8
0
 10
22.9
 20
346.807
 11
22.6389
 21
346.712
  0
LINE
  8
0
 10
22.6389
 20
346.712
 11
22.3611
 21
346.712
  0
LINE
  8
0
 10
32.3611
 20
340.712
 11
32.1
 21
340.807
  0
LINE
  8
0
 10
32.1
 20
340.807
 11
31.8872
 21
340.986
  0
LINE
  8
0
 10
31.8872
 20
340.986
 11
31.7482
 21
341.226
  0
LINE
  8
0
 10
31.7482
 20
341.226
 11
31.7
 21
341.5
  0
LINE
  8
0
 10
31.7
 20
341.5
 11
31.7482
 21
341.774
  0
LINE
  8
0
 10
31.7482
 20
341.774
 11
31.8872
 21
342.014
  0
LINE
  8
0
 10
31.8872
 20
342.014
 11
32.1
 21
342.193
  0
LINE
  8
0
 10
32.1
 20
342.193
 11
32.3611
 21
342.288
  0
LINE
  8
0
 10
32.3611
 20
342.288
 11
32.6389
 21
342.288
  0
LINE
  8
0
 10
32.6389
 20
342.288
 11
32.9
 21
342.193
  0
LINE
  8
0
 10
32.9
 20
342.193
 11
33.1128
 21
342.014
  0
LINE
  8
0
 10
33.1128
 20
342.014
 11
33.2518
 21
341.774
  0
LINE
  8
0
 10
33.2518
 20
341.774
 11
33.3
 21
341.5
  0
LINE
  8
0
 10
33.3
 20
341.5
 11
33.2518
 21
341.226
  0
LINE
  8
0
 10
33.2518
 20
341.226
 11
33.1128
 21
340.986
  0
LINE
  8
0
 10
33.1128
 20
340.986
 11
32.9
 21
340.807
  0
LINE
  8
0
 10
32.9
 20
340.807
 11
32.6389
 21
340.712
  0
LINE
  8
0
 10
32.6389
 20
340.712
 11
32.3611
 21
340.712
  0
LINE
  8
0
 10
28.3611
 20
316.712
 11
28.1
 21
316.807
  0
LINE
  8
0
 10
28.1
 20
316.807
 11
27.8872
 21
316.986
  0
LINE
  8
0
 10
27.8872
 20
316.986
 11
27.7482
 21
317.226
  0
LINE
  8
0
 10
27.7482
 20
317.226
 11
27.7
 21
317.5
  0
LINE
  8
0
 10
27.7
 20
317.5
 11
27.7482
 21
317.774
  0
LINE
  8
0
 10
27.7482
 20
317.774
 11
27.8872
 21
318.014
  0
LINE
  8
0
 10
27.8872
 20
318.014
 11
28.1
 21
318.193
  0
LINE
  8
0
 10
28.1
 20
318.193
 11
28.3611
 21
318.288
  0
LINE
  8
0
 10
28.3611
 20
318.288
 11
28.6389
 21
318.288
  0
LINE
  8
0
 10
28.6389
 20
318.288
 11
28.9
 21
318.193
  0
LINE
  8
0
 10
28.9
 20
318.193
 11
29.1128
 21
318.014
  0
LINE
  8
0
 10
29.1128
 20
318.014
 11
29.2518
 21
317.774
  0
LINE
  8
0
 10
29.2518
 20
317.774
 11
29.3
 21
317.5
  0
LINE
  8
0
 10
29.3
 20
317.5
 11
29.2518
 21
317.226
  0
LINE
  8
0
 10
29.2518
 20
317.226
 11
29.1128
 21
316.986
  0
LINE
  8
0
 10
29.1128
 20
316.986
 11
28.9
 21
316.807
  0
LINE
  8
0
 10
28.9
 20
316.807
 11
28.6389
 21
316.712
  0
LINE
  8
0
 10
28.6389
 20
316.712
 11
28.3611
 21
316.712
  0
LINE
  8
0
 10
24.3611
 20
298.712
 11
24.1
 21
298.807
  0
LINE
  8
0
 10
24.1
 20
298.807
 11
23.8872
 21
298.986
  0
LINE
  8
0
 10
23.8872
 20
298.986
 11
23.7482
 21
299.226
  0
LINE
  8
0
 10
23.7482
 20
299.226
 11
23.7
 21
299.5
  0
LINE
  8
0
 10
23.7
 20
299.5
 11
23.7482
 21
299.774
  0
LINE
  8
0
 10
23.7482
 20
299.774
 11
23.8872
 21
300.014
  0
LINE
  8
0
 10
23.8872
 20
300.014
 11
24.1
 21
300.193
  0
LINE
  8
0
 10
24.1
 20
300.193
 11
24.3611
 21
300.288
  0
LINE
  8
0
 10
24.3611
 20
300.288
 11
24.6389
 21
300.288
  0
LINE
  8
0
 10
24.6389
 20
300.288
 11
24.9
 21
300.193
  0
LINE
  8
0
 10
24.9
 20
300.193
 11
25.1128
 21
300.014
  0
LINE
  8
0
 10
25.1128
 20
300.014
 11
25.2518
 21
299.774
  0
LINE
  8
0
 10
25.2518
 20
299.774
 11
25.3
 21
299.5
  0
LINE
  8
0
 10
25.3
 20
299.5
 11
25.2518
 21
299.226
  0
LINE
  8
0
 10
25.2518
 20
299.226
 11
25.1128
 21
298.986
  0
LINE
  8
0
 10
25.1128
 20
298.986
 11
24.9
 21
298.807
  0
LINE
  8
0
 10
24.9
 20
298.807
 11
24.6389
 21
298.712
  0
LINE
  8
0
 10
24.6389
 20
298.712
 11
24.3611
 21
298.712
  0
LINE
  8
0
 10
24.3611
 20
292.712
 11
24.1
 21
292.807
  0
LINE
  8
0
 10
24.1
 20
292.807
 11
23.8872
 21
292.986
  0
LINE
  8
0
 10
23.8872
 20
292.986
 11
23.7482
 21
293.226
  0
LINE
  8
0
 10
23.7482
 20
293.226
 11
23.7
 21
293.5
  0
LINE
  8
0
 10
23.7
 20
293.5
 11
23.7482
 21
293.774
  0
LINE
  8
0
 10
23.7482
 20
293.774
 11
23.8872
 21
294.014
  0
LINE
  8
0
 10
23.8872
 20
294.014
 11
24.1
 21
294.193
  0
LINE
  8
0
 10
24.1
 20
294.193
 11
24.3611
 21
294.288
  0
LINE
  8
0
 10
24.3611
 20
294.288
 11
24.6389
 21
294.288
  0
LINE
  8
0
 10
24.6389
 20
294.288
 11
24.9
 21
294.193
  0
LINE
  8
0
 10
24.9
 20
294.193
 11
25.1128
 21
294.014
  0
LINE
  8
0
 10
25.1128
 20
294.014
 11
25.2518
 21
293.774
  0
LINE
  8
0
 10
25.2518
 20
293.774
 11
25.3
 21
293.5
  0
LINE
  8
0
 10
25.3
 20
293.5
 11
25.2518
 21
293.226
  0
LINE
  8
0
 10
25.2518
 20
293.226
 11
25.1128
 21
292.986
  0
LINE
  8
0
 10
25.1128
 20
292.986
 11
24.9
 21
292.807
  0
LINE
  8
0
 10
24.9
 20
292.807
 11
24.6389
 21
292.712
  0
LINE
  8
0
 10
24.6389
 20
292.712
 11
24.3611
 21
292.712
  0
LINE
  8
0
 10
22.3611
 20
274.712
 11
22.1
 21
274.807
  0
LINE
  8
0
 10
22.1
 20
274.807
 11
21.8872
 21
274.986
  0
LINE
  8
0
 10
21.8872
 20
274.986
 11
21.7482
 21
275.226
  0
LINE
  8
0
 10
21.7482
 20
275.226
 11
21.7
 21
275.5
  0
LINE
  8
0
 10
21.7
 20
275.5
 11
21.7482
 21
275.774
  0
LINE
  8
0
 10
21.7482
 20
275.774
 11
21.8872
 21
276.014
  0
LINE
  8
0
 10
21.8872
 20
276.014
 11
22.1
 21
276.193
  0
LINE
  8
0
 10
22.1
 20
276.193
 11
22.3611
 21
276.288
  0
LINE
  8
0
 10
22.3611
 20
276.288
 11
22.6389
 21
276.288
  0
LINE
  8
0
 10
22.6389
 20
276.288
 11
22.9
 21
276.193
  0
LINE
  8
0
 10
22.9
 20
276.193
 11
23.1128
 21
276.014
  0
LINE
  8
0
 10
23.1128
 20
276.014
 11
23.2518
 21
275.774
  0
LINE
  8
0
 10
23.2518
 20
275.774
 11
23.3
 21
275.5
  0
LINE
  8
0
 10
23.3
 20
275.5
 11
23.2518
 21
275.226
  0
LINE
  8
0
 10
23.2518
 20
275.226
 11
23.1128
 21
274.986
  0
LINE
  8
0
 10
23.1128
 20
274.986
 11
22.9
 21
274.807
  0
LINE
  8
0
 10
22.9
 20
274.807
 11
22.6389
 21
274.712
  0
LINE
  8
0
 10
22.6389
 20
274.712
 11
22.3611
 21
274.712
  0
LINE
  8
0
 10
22.3611
 20
268.712
 11
22.1
 21
268.807
  0
LINE
  8
0
 10
22.1
 20
268.807
 11
21.8872
 21
268.986
  0
LINE
  8
0
 10
21.8872
 20
268.986
 11
21.7482
 21
269.226
  0
LINE
  8
0
 10
21.7482
 20
269.226
 11
21.7
 21
269.5
  0
LINE
  8
0
 10
21.7
 20
269.5
 11
21.7482
 21
269.774
  0
LINE
  8
0
 10
21.7482
 20
269.774
 11
21.8872
 21
270.014
  0
LINE
  8
0
 10
21.8872
 20
270.014
 11
22.1
 21
270.193
  0
LINE
  8
0
 10
22.1
 20
270.193
 11
22.3611
 21
270.288
  0
LINE
  8
0
 10
22.3611
 20
270.288
 11
22.6389
 21
270.288
  0
LINE
  8
0
 10
22.6389
 20
270.288
 11
22.9
 21
270.193
  0
LINE
  8
0
 10
22.9
 20
270.193
 11
23.1128
 21
270.014
  0
LINE
  8
0
 10
23.1128
 20
270.014
 11
23.2518
 21
269.774
  0
LINE
  8
0
 10
23.2518
 20
269.774
 11
23.3
 21
269.5
  0
LINE
  8
0
 10
23.3
 20
269.5
 11
23.2518
 21
269.226
  0
LINE
  8
0
 10
23.2518
 20
269.226
 11
23.1128
 21
268.986
  0
LINE
  8
0
 10
23.1128
 20
268.986
 11
22.9
 21
268.807
  0
LINE
  8
0
 10
22.9
 20
268.807
 11
22.6389
 21
268.712
  0
LINE
  8
0
 10
22.6389
 20
268.712
 11
22.3611
 21
268.712
  0
LINE
  8
0
 10
22.3611
 20
262.712
 11
22.1
 21
262.807
  0
LINE
  8
0
 10
22.1
 20
262.807
 11
21.8872
 21
262.986
  0
LINE
  8
0
 10
21.8872
 20
262.986
 11
21.7482
 21
263.226
  0
LINE
  8
0
 10
21.7482
 20
263.226
 11
21.7
 21
263.5
  0
LINE
  8
0
 10
21.7
 20
263.5
 11
21.7482
 21
263.774
  0
LINE
  8
0
 10
21.7482
 20
263.774
 11
21.8872
 21
264.014
  0
LINE
  8
0
 10
21.8872
 20
264.014
 11
22.1
 21
264.193
  0
LINE
  8
0
 10
22.1
 20
264.193
 11
22.3611
 21
264.288
  0
LINE
  8
0
 10
22.3611
 20
264.288
 11
22.6389
 21
264.288
  0
LINE
  8
0
 10
22.6389
 20
264.288
 11
22.9
 21
264.193
  0
LINE
  8
0
 10
22.9
 20
264.193
 11
23.1128
 21
264.014
  0
LINE
  8
0
 10
23.1128
 20
264.014
 11
23.2518
 21
263.774
  0
LINE
  8
0
 10
23.2518
 20
263.774
 11
23.3
 21
263.5
  0
LINE
  8
0
 10
23.3
 20
263.5
 11
23.2518
 21
263.226
  0
LINE
  8
0
 10
23.2518
 20
263.226
 11
23.1128
 21
262.986
  0
LINE
  8
0
 10
23.1128
 20
262.986
 11
22.9
 21
262.807
  0
LINE
  8
0
 10
22.9
 20
262.807
 11
22.6389
 21
262.712
  0
LINE
  8
0
 10
22.6389
 20
262.712
 11
22.3611
 21
262.712
  0
LINE
  8
0
 10
22.3611
 20
256.712
 11
22.1
 21
256.807
  0
LINE
  8
0
 10
22.1
 20
256.807
 11
21.8872
 21
256.986
  0
LINE
  8
0
 10
21.8872
 20
256.986
 11
21.7482
 21
257.226
  0
LINE
  8
0
 10
21.7482
 20
257.226
 11
21.7
 21
257.5
  0
LINE
  8
0
 10
21.7
 20
257.5
 11
21.7482
 21
257.774
  0
LINE
  8
0
 10
21.7482
 20
257.774
 11
21.8872
 21
258.014
  0
LINE
  8
0
 10
21.8872
 20
258.014
 11
22.1
 21
258.193
  0
LINE
  8
0
 10
22.1
 20
258.193
 11
22.3611
 21
258.288
  0
LINE
  8
0
 10
22.3611
 20
258.288
 11
22.6389
 21
258.288
  0
LINE
  8
0
 10
22.6389
 20
258.288
 11
22.9
 21
258.193
  0
LINE
  8
0
 10
22.9
 20
258.193
 11
23.1128
 21
258.014
  0
LINE
  8
0
 10
23.1128
 20
258.014
 11
23.2518
 21
257.774
  0
LINE
  8
0
 10
23.2518
 20
257.774
 11
23.3
 21
257.5
  0
LINE
  8
0
 10
23.3
 20
257.5
 11
23.2518
 21
257.226
  0
LINE
  8
0
 10
23.2518
 20
257.226
 11
23.1128
 21
256.986
  0
LINE
  8
0
 10
23.1128
 20
256.986
 11
22.9
 21
256.807
  0
LINE
  8
0
 10
22.9
 20
256.807
 11
22.6389
 21
256.712
  0
LINE
  8
0
 10
22.6389
 20
256.712
 11
22.3611
 21
256.712
  0
LINE
  8
0
 10
22.3611
 20
250.712
 11
22.1
 21
250.807
  0
LINE
  8
0
 10
22.1
 20
250.807
 11
21.8872
 21
250.986
  0
LINE
  8
0
 10
21.8872
 20
250.986
 11
21.7482
 21
251.226
  0
LINE
  8
0
 10
21.7482
 20
251.226
 11
21.7
 21
251.5
  0
LINE
  8
0
 10
21.7
 20
251.5
 11
21.7482
 21
251.774
  0
LINE
  8
0
 10
21.7482
 20
251.774
 11
21.8872
 21
252.014
  0
LINE
  8
0
 10
21.8872
 20
252.014
 11
22.1
 21
252.193
  0
LINE
  8
0
 10
22.1
 20
252.193
 11
22.3611
 21
252.288
  0
LINE
  8
0
 10
22.3611
 20
252.288
 11
22.6389
 21
252.288
  0
LINE
  8
0
 10
22.6389
 20
252.288
 11
22.9
 21
252.193
  0
LINE
  8
0
 10
22.9
 20
252.193
 11
23.1128
 21
252.014
  0
LINE
  8
0
 10
23.1128
 20
252.014
 11
23.2518
 21
251.774
  0
LINE
  8
0
 10
23.2518
 20
251.774
 11
23.3
 21
251.5
  0
LINE
  8
0
 10
23.3
 20
251.5
 11
23.2518
 21
251.226
  0
LINE
  8
0
 10
23.2518
 20
251.226
 11
23.1128
 21
250.986
  0
LINE
  8
0
 10
23.1128
 20
250.986
 11
22.9
 21
250.807
  0
LINE
  8
0
 10
22.9
 20
250.807
 11
22.6389
 21
250.712
  0
LINE
  8
0
 10
22.6389
 20
250.712
 11
22.3611
 21
250.712
  0
LINE
  8
0
 10
22.3611
 20
244.712
 11
22.1
 21
244.807
  0
LINE
  8
0
 10
22.1
 20
244.807
 11
21.8872
 21
244.986
  0
LINE
  8
0
 10
21.8872
 20
244.986
 11
21.7482
 21
245.226
  0
LINE
  8
0
 10
21.7482
 20
245.226
 11
21.7
 21
245.5
  0
LINE
  8
0
 10
21.7
 20
245.5
 11
21.7482
 21
245.774
  0
LINE
  8
0
 10
21.7482
 20
245.774
 11
21.8872
 21
246.014
  0
LINE
  8
0
 10
21.8872
 20
246.014
 11
22.1
 21
246.193
  0
LINE
  8
0
 10
22.1
 20
246.193
 11
22.3611
 21
246.288
  0
LINE
  8
0
 10
22.3611
 20
246.288
 11
22.6389
 21
246.288
  0
LINE
  8
0
 10
22.6389
 20
246.288
 11
22.9
 21
246.193
  0
LINE
  8
0
 10
22.9
 20
246.193
 11
23.1128
 21
246.014
  0
LINE
  8
0
 10
23.1128
 20
246.014
 11
23.2518
 21
245.774
  0
LINE
  8
0
 10
23.2518
 20
245.774
 11
23.3
 21
245.5
  0
LINE
  8
0
 10
23.3
 20
245.5
 11
23.2518
 21
245.226
  0
LINE
  8
0
 10
23.2518
 20
245.226
 11
23.1128
 21
244.986
  0
LINE
  8
0
 10
23.1128
 20
244.986
 11
22.9
 21
244.807
  0
LINE
  8
0
 10
22.9
 20
244.807
 11
22.6389
 21
244.712
  0
LINE
  8
0
 10
22.6389
 20
244.712
 11
22.3611
 21
244.712
  0
LINE
  8
0
 10
51.8872
 20
186.014
 11
52.1
 21
186.193
  0
LINE
  8
0
 10
52.1
 20
186.193
 11
52.3611
 21
186.288
  0
LINE
  8
0
 10
52.3611
 20
186.288
 11
52.6389
 21
186.288
  0
LINE
  8
0
 10
52.6389
 20
186.288
 11
52.9
 21
186.193
  0
LINE
  8
0
 10
52.9
 20
186.193
 11
53.1128
 21
186.014
  0
LINE
  8
0
 10
53.1128
 20
186.014
 11
53.2518
 21
185.774
  0
LINE
  8
0
 10
53.2518
 20
185.774
 11
53.3
 21
185.5
  0
LINE
  8
0
 10
53.3
 20
185.5
 11
53.2518
 21
185.226
  0
LINE
  8
0
 10
53.2518
 20
185.226
 11
53.1128
 21
184.986
  0
LINE
  8
0
 10
53.1128
 20
184.986
 11
52.9
 21
184.807
  0
LINE
  8
0
 10
52.9
 20
184.807
 11
52.6389
 21
184.712
  0
LINE
  8
0
 10
52.6389
 20
184.712
 11
52.3611
 21
184.712
  0
LINE
  8
0
 10
52.3611
 20
184.712
 11
52.1
 21
184.807
  0
LINE
  8
0
 10
52.1
 20
184.807
 11
51.8872
 21
184.986
  0
LINE
  8
0
 10
51.8872
 20
184.986
 11
51.7482
 21
185.226
  0
LINE
  8
0
 10
51.7482
 20
185.226
 11
51.7
 21
185.5
  0
LINE
  8
0
 10
51.7
 20
185.5
 11
51.7482
 21
185.774
  0
LINE
  8
0
 10
51.7482
 20
185.774
 11
51.8872
 21
186.014
  0
LINE
  8
0
 10
24.3611
 20
172.712
 11
24.1
 21
172.807
  0
LINE
  8
0
 10
24.1
 20
172.807
 11
23.8872
 21
172.986
  0
LINE
  8
0
 10
23.8872
 20
172.986
 11
23.7482
 21
173.226
  0
LINE
  8
0
 10
23.7482
 20
173.226
 11
23.7
 21
173.5
  0
LINE
  8
0
 10
23.7
 20
173.5
 11
23.7482
 21
173.774
  0
LINE
  8
0
 10
23.7482
 20
173.774
 11
23.8872
 21
174.014
  0
LINE
  8
0
 10
23.8872
 20
174.014
 11
24.1
 21
174.193
  0
LINE
  8
0
 10
24.1
 20
174.193
 11
24.3611
 21
174.288
  0
LINE
  8
0
 10
24.3611
 20
174.288
 11
24.6389
 21
174.288
  0
LINE
  8
0
 10
24.6389
 20
174.288
 11
24.9
 21
174.193
  0
LINE
  8
0
 10
24.9
 20
174.193
 11
25.1128
 21
174.014
  0
LINE
  8
0
 10
25.1128
 20
174.014
 11
25.2518
 21
173.774
  0
LINE
  8
0
 10
25.2518
 20
173.774
 11
25.3
 21
173.5
  0
LINE
  8
0
 10
25.3
 20
173.5
 11
25.2518
 21
173.226
  0
LINE
  8
0
 10
25.2518
 20
173.226
 11
25.1128
 21
172.986
  0
LINE
  8
0
 10
25.1128
 20
172.986
 11
24.9
 21
172.807
  0
LINE
  8
0
 10
24.9
 20
172.807
 11
24.6389
 21
172.712
  0
LINE
  8
0
 10
24.6389
 20
172.712
 11
24.3611
 21
172.712
  0
LINE
  8
0
 10
48.3611
 20
172.712
 11
48.1
 21
172.807
  0
LINE
  8
0
 10
48.1
 20
172.807
 11
47.8872
 21
172.986
  0
LINE
  8
0
 10
47.8872
 20
172.986
 11
47.7482
 21
173.226
  0
LINE
  8
0
 10
47.7482
 20
173.226
 11
47.7
 21
173.5
  0
LINE
  8
0
 10
47.7
 20
173.5
 11
47.7482
 21
173.774
  0
LINE
  8
0
 10
47.7482
 20
173.774
 11
47.8872
 21
174.014
  0
LINE
  8
0
 10
47.8872
 20
174.014
 11
48.1
 21
174.193
  0
LINE
  8
0
 10
48.1
 20
174.193
 11
48.3611
 21
174.288
  0
LINE
  8
0
 10
48.3611
 20
174.288
 11
48.6389
 21
174.288
  0
LINE
  8
0
 10
48.6389
 20
174.288
 11
48.9
 21
174.193
  0
LINE
  8
0
 10
48.9
 20
174.193
 11
49.1128
 21
174.014
  0
LINE
  8
0
 10
49.1128
 20
174.014
 11
49.2518
 21
173.774
  0
LINE
  8
0
 10
49.2518
 20
173.774
 11
49.3
 21
173.5
  0
LINE
  8
0
 10
49.3
 20
173.5
 11
49.2518
 21
173.226
  0
LINE
  8
0
 10
49.2518
 20
173.226
 11
49.1128
 21
172.986
  0
LINE
  8
0
 10
49.1128
 20
172.986
 11
48.9
 21
172.807
  0
LINE
  8
0
 10
48.9
 20
172.807
 11
48.6389
 21
172.712
  0
LINE
  8
0
 10
48.6389
 20
172.712
 11
48.3611
 21
172.712
  0
LINE
  8
0
 10
22.3611
 20
160.712
 11
22.1
 21
160.807
  0
LINE
  8
0
 10
22.1
 20
160.807
 11
21.8872
 21
160.986
  0
LINE
  8
0
 10
21.8872
 20
160.986
 11
21.7482
 21
161.226
  0
LINE
  8
0
 10
21.7482
 20
161.226
 11
21.7
 21
161.5
  0
LINE
  8
0
 10
21.7
 20
161.5
 11
21.7482
 21
161.774
  0
LINE
  8
0
 10
21.7482
 20
161.774
 11
21.8872
 21
162.014
  0
LINE
  8
0
 10
21.8872
 20
162.014
 11
22.1
 21
162.193
  0
LINE
  8
0
 10
22.1
 20
162.193
 11
22.3611
 21
162.288
  0
LINE
  8
0
 10
22.3611
 20
162.288
 11
22.6389
 21
162.288
  0
LINE
  8
0
 10
22.6389
 20
162.288
 11
22.9
 21
162.193
  0
LINE
  8
0
 10
22.9
 20
162.193
 11
23.1128
 21
162.014
  0
LINE
  8
0
 10
23.1128
 20
162.014
 11
23.2518
 21
161.774
  0
LINE
  8
0
 10
23.2518
 20
161.774
 11
23.3
 21
161.5
  0
LINE
  8
0
 10
23.3
 20
161.5
 11
23.2518
 21
161.226
  0
LINE
  8
0
 10
23.2518
 20
161.226
 11
23.1128
 21
160.986
  0
LINE
  8
0
 10
23.1128
 20
160.986
 11
22.9
 21
160.807
  0
LINE
  8
0
 10
22.9
 20
160.807
 11
22.6389
 21
160.712
  0
LINE
  8
0
 10
22.6389
 20
160.712
 11
22.3611
 21
160.712
  0
LINE
  8
0
 10
46.3611
 20
160.712
 11
46.1
 21
160.807
  0
LINE
  8
0
 10
46.1
 20
160.807
 11
45.8872
 21
160.986
  0
LINE
  8
0
 10
45.8872
 20
160.986
 11
45.7482
 21
161.226
  0
LINE
  8
0
 10
45.7482
 20
161.226
 11
45.7
 21
161.5
  0
LINE
  8
0
 10
45.7
 20
161.5
 11
45.7482
 21
161.774
  0
LINE
  8
0
 10
45.7482
 20
161.774
 11
45.8872
 21
162.014
  0
LINE
  8
0
 10
45.8872
 20
162.014
 11
46.1
 21
162.193
  0
LINE
  8
0
 10
46.1
 20
162.193
 11
46.3611
 21
162.288
  0
LINE
  8
0
 10
46.3611
 20
162.288
 11
46.6389
 21
162.288
  0
LINE
  8
0
 10
46.6389
 20
162.288
 11
46.9
 21
162.193
  0
LINE
  8
0
 10
46.9
 20
162.193
 11
47.1128
 21
162.014
  0
LINE
  8
0
 10
47.1128
 20
162.014
 11
47.2518
 21
161.774
  0
LINE
  8
0
 10
47.2518
 20
161.774
 11
47.3
 21
161.5
  0
LINE
  8
0
 10
47.3
 20
161.5
 11
47.2518
 21
161.226
  0
LINE
  8
0
 10
47.2518
 20
161.226
 11
47.1128
 21
160.986
  0
LINE
  8
0
 10
47.1128
 20
160.986
 11
46.9
 21
160.807
  0
LINE
  8
0
 10
46.9
 20
160.807
 11
46.6389
 21
160.712
  0
LINE
  8
0
 10
46.6389
 20
160.712
 11
46.3611
 21
160.712
  0
LINE
  8
0
 10
18.3611
 20
154.712
 11
18.1
 21
154.807
  0
LINE
  8
0
 10
18.1
 20
154.807
 11
17.8872
 21
154.986
  0
LINE
  8
0
 10
17.8872
 20
154.986
 11
17.7482
 21
155.226
  0
LINE
  8
0
 10
17.7482
 20
155.226
 11
17.7
 21
155.5
  0
LINE
  8
0
 10
17.7
 20
155.5
 11
17.7482
 21
155.774
  0
LINE
  8
0
 10
17.7482
 20
155.774
 11
17.8872
 21
156.014
  0
LINE
  8
0
 10
17.8872
 20
156.014
 11
18.1
 21
156.193
  0
LINE
  8
0
 10
18.1
 20
156.193
 11
18.3611
 21
156.288
  0
LINE
  8
0
 10
18.3611
 20
156.288
 11
18.6389
 21
156.288
  0
LINE
  8
0
 10
18.6389
 20
156.288
 11
18.9
 21
156.193
  0
LINE
  8
0
 10
18.9
 20
156.193
 11
19.1128
 21
156.014
  0
LINE
  8
0
 10
19.1128
 20
156.014
 11
19.2518
 21
155.774
  0
LINE
  8
0
 10
19.2518
 20
155.774
 11
19.3
 21
155.5
  0
LINE
  8
0
 10
19.3
 20
155.5
 11
19.2518
 21
155.226
  0
LINE
  8
0
 10
19.2518
 20
155.226
 11
19.1128
 21
154.986
  0
LINE
  8
0
 10
19.1128
 20
154.986
 11
18.9
 21
154.807
  0
LINE
  8
0
 10
18.9
 20
154.807
 11
18.6389
 21
154.712
  0
LINE
  8
0
 10
18.6389
 20
154.712
 11
18.3611
 21
154.712
  0
LINE
  8
0
 10
42.3611
 20
154.712
 11
42.1
 21
154.807
  0
LINE
  8
0
 10
42.1
 20
154.807
 11
41.8872
 21
154.986
  0
LINE
  8
0
 10
41.8872
 20
154.986
 11
41.7482
 21
155.226
  0
LINE
  8
0
 10
41.7482
 20
155.226
 11
41.7
 21
155.5
  0
LINE
  8
0
 10
41.7
 20
155.5
 11
41.7482
 21
155.774
  0
LINE
  8
0
 10
41.7482
 20
155.774
 11
41.8872
 21
156.014
  0
LINE
  8
0
 10
41.8872
 20
156.014
 11
42.1
 21
156.193
  0
LINE
  8
0
 10
42.1
 20
156.193
 11
42.3611
 21
156.288
  0
LINE
  8
0
 10
42.3611
 20
156.288
 11
42.6389
 21
156.288
  0
LINE
  8
0
 10
42.6389
 20
156.288
 11
42.9
 21
156.193
  0
LINE
  8
0
 10
42.9
 20
156.193
 11
43.1128
 21
156.014
  0
LINE
  8
0
 10
43.1128
 20
156.014
 11
43.2518
 21
155.774
  0
LINE
  8
0
 10
43.2518
 20
155.774
 11
43.3
 21
155.5
  0
LINE
  8
0
 10
43.3
 20
155.5
 11
43.2518
 21
155.226
  0
LINE
  8
0
 10
43.2518
 20
155.226
 11
43.1128
 21
154.986
  0
LINE
  8
0
 10
43.1128
 20
154.986
 11
42.9
 21
154.807
  0
LINE
  8
0
 10
42.9
 20
154.807
 11
42.6389
 21
154.712
  0
LINE
  8
0
 10
42.6389
 20
154.712
 11
42.3611
 21
154.712
  0
LINE
  8
0
 10
18.3611
 20
142.712
 11
18.1
 21
142.807
  0
LINE
  8
0
 10
18.1
 20
142.807
 11
17.8872
 21
142.986
  0
LINE
  8
0
 10
17.8872
 20
142.986
 11
17.7482
 21
143.226
  0
LINE
  8
0
 10
17.7482
 20
143.226
 11
17.7
 21
143.5
  0
LINE
  8
0
 10
17.7
 20
143.5
 11
17.7482
 21
143.774
  0
LINE
  8
0
 10
17.7482
 20
143.774
 11
17.8872
 21
144.014
  0
LINE
  8
0
 10
17.8872
 20
144.014
 11
18.1
 21
144.193
  0
LINE
  8
0
 10
18.1
 20
144.193
 11
18.3611
 21
144.288
  0
LINE
  8
0
 10
18.3611
 20
144.288
 11
18.6389
 21
144.288
  0
LINE
  8
0
 10
18.6389
 20
144.288
 11
18.9
 21
144.193
  0
LINE
  8
0
 10
18.9
 20
144.193
 11
19.1128
 21
144.014
  0
LINE
  8
0
 10
19.1128
 20
144.014
 11
19.2518
 21
143.774
  0
LINE
  8
0
 10
19.2518
 20
143.774
 11
19.3
 21
143.5
  0
LINE
  8
0
 10
19.3
 20
143.5
 11
19.2518
 21
143.226
  0
LINE
  8
0
 10
19.2518
 20
143.226
 11
19.1128
 21
142.986
  0
LINE
  8
0
 10
19.1128
 20
142.986
 11
18.9
 21
142.807
  0
LINE
  8
0
 10
18.9
 20
142.807
 11
18.6389
 21
142.712
  0
LINE
  8
0
 10
18.6389
 20
142.712
 11
18.3611
 21
142.712
  0
LINE
  8
0
 10
42.3611
 20
142.712
 11
42.1
 21
142.807
  0
LINE
  8
0
 10
42.1
 20
142.807
 11
41.8872
 21
142.986
  0
LINE
  8
0
 10
41.8872
 20
142.986
 11
41.7482
 21
143.226
  0
LINE
  8
0
 10
41.7482
 20
143.226
 11
41.7
 21
143.5
  0
LINE
  8
0
 10
41.7
 20
143.5
 11
41.7482
 21
143.774
  0
LINE
  8
0
 10
41.7482
 20
143.774
 11
41.8872
 21
144.014
  0
LINE
  8
0
 10
41.8872
 20
144.014
 11
42.1
 21
144.193
  0
LINE
  8
0
 10
42.1
 20
144.193
 11
42.3611
 21
144.288
  0
LINE
  8
0
 10
42.3611
 20
144.288
 11
42.6389
 21
144.288
  0
LINE
  8
0
 10
42.6389
 20
144.288
 11
42.9
 21
144.193
  0
LINE
  8
0
 10
42.9
 20
144.193
 11
43.1128
 21
144.014
  0
LINE
  8
0
 10
43.1128
 20
144.014
 11
43.2518
 21
143.774
  0
LINE
  8
0
 10
43.2518
 20
143.774
 11
43.3
 21
143.5
  0
LINE
  8
0
 10
43.3
 20
143.5
 11
43.2518
 21
143.226
  0
LINE
  8
0
 10
43.2518
 20
143.226
 11
43.1128
 21
142.986
  0
LINE
  8
0
 10
43.1128
 20
142.986
 11
42.9
 21
142.807
  0
LINE
  8
0
 10
42.9
 20
142.807
 11
42.6389
 21
142.712
  0
LINE
  8
0
 10
42.6389
 20
142.712
 11
42.3611
 21
142.712
  0
LINE
  8
0
 10
18.3611
 20
130.712
 11
18.1
 21
130.807
  0
LINE
  8
0
 10
18.1
 20
130.807
 11
17.8872
 21
130.986
  0
LINE
  8
0
 10
17.8872
 20
130.986
 11
17.7482
 21
131.226
  0
LINE
  8
0
 10
17.7482
 20
131.226
 11
17.7
 21
131.5
  0
LINE
  8
0
 10
17.7
 20
131.5
 11
17.7482
 21
131.774
  0
LINE
  8
0
 10
17.7482
 20
131.774
 11
17.8872
 21
132.014
  0
LINE
  8
0
 10
17.8872
 20
132.014
 11
18.1
 21
132.193
  0
LINE
  8
0
 10
18.1
 20
132.193
 11
18.3611
 21
132.288
  0
LINE
  8
0
 10
18.3611
 20
132.288
 11
18.6389
 21
132.288
  0
LINE
  8
0
 10
18.6389
 20
132.288
 11
18.9
 21
132.193
  0
LINE
  8
0
 10
18.9
 20
132.193
 11
19.1128
 21
132.014
  0
LINE
  8
0
 10
19.1128
 20
132.014
 11
19.2518
 21
131.774
  0
LINE
  8
0
 10
19.2518
 20
131.774
 11
19.3
 21
131.5
  0
LINE
  8
0
 10
19.3
 20
131.5
 11
19.2518
 21
131.226
  0
LINE
  8
0
 10
19.2518
 20
131.226
 11
19.1128
 21
130.986
  0
LINE
  8
0
 10
19.1128
 20
130.986
 11
18.9
 21
130.807
  0
LINE
  8
0
 10
18.9
 20
130.807
 11
18.6389
 21
130.712
  0
LINE
  8
0
 10
18.6389
 20
130.712
 11
18.3611
 21
130.712
  0
LINE
  8
0
 10
42.3611
 20
130.712
 11
42.1
 21
130.807
  0
LINE
  8
0
 10
42.1
 20
130.807
 11
41.8872
 21
130.986
  0
LINE
  8
0
 10
41.8872
 20
130.986
 11
41.7482
 21
131.226
  0
LINE
  8
0
 10
41.7482
 20
131.226
 11
41.7
 21
131.5
  0
LINE
  8
0
 10
41.7
 20
131.5
 11
41.7482
 21
131.774
  0
LINE
  8
0
 10
41.7482
 20
131.774
 11
41.8872
 21
132.014
  0
LINE
  8
0
 10
41.8872
 20
132.014
 11
42.1
 21
132.193
  0
LINE
  8
0
 10
42.1
 20
132.193
 11
42.3611
 21
132.288
  0
LINE
  8
0
 10
42.3611
 20
132.288
 11
42.6389
 21
132.288
  0
LINE
  8
0
 10
42.6389
 20
132.288
 11
42.9
 21
132.193
  0
LINE
  8
0
 10
42.9
 20
132.193
 11
43.1128
 21
132.014
  0
LINE
  8
0
 10
43.1128
 20
132.014
 11
43.2518
 21
131.774
  0
LINE
  8
0
 10
43.2518
 20
131.774
 11
43.3
 21
131.5
  0
LINE
  8
0
 10
43.3
 20
131.5
 11
43.2518
 21
131.226
  0
LINE
  8
0
 10
43.2518
 20
131.226
 11
43.1128
 21
130.986
  0
LINE
  8
0
 10
43.1128
 20
130.986
 11
42.9
 21
130.807
  0
LINE
  8
0
 10
42.9
 20
130.807
 11
42.6389
 21
130.712
  0
LINE
  8
0
 10
42.6389
 20
130.712
 11
42.3611
 21
130.712
  0
LINE
  8
0
 10
48.3611
 20
118.712
 11
48.1
 21
118.807
  0
LINE
  8
0
 10
48.1
 20
118.807
 11
47.8872
 21
118.986
  0
LINE
  8
0
 10
47.8872
 20
118.986
 11
47.7482
 21
119.226
  0
LINE
  8
0
 10
47.7482
 20
119.226
 11
47.7
 21
119.5
  0
LINE
  8
0
 10
47.7
 20
119.5
 11
47.7482
 21
119.774
  0
LINE
  8
0
 10
47.7482
 20
119.774
 11
47.8872
 21
120.014
  0
LINE
  8
0
 10
47.8872
 20
120.014
 11
48.1
 21
120.193
  0
LINE
  8
0
 10
48.1
 20
120.193
 11
48.3611
 21
120.288
  0
LINE
  8
0
 10
48.3611
 20
120.288
 11
48.6389
 21
120.288
  0
LINE
  8
0
 10
48.6389
 20
120.288
 11
48.9
 21
120.193
  0
LINE
  8
0
 10
48.9
 20
120.193
 11
49.1128
 21
120.014
  0
LINE
  8
0
 10
49.1128
 20
120.014
 11
49.2518
 21
119.774
  0
LINE
  8
0
 10
49.2518
 20
119.774
 11
49.3
 21
119.5
  0
LINE
  8
0
 10
49.3
 20
119.5
 11
49.2518
 21
119.226
  0
LINE
  8
0
 10
49.2518
 20
119.226
 11
49.1128
 21
118.986
  0
LINE
  8
0
 10
49.1128
 20
118.986
 11
48.9
 21
118.807
  0
LINE
  8
0
 10
48.9
 20
118.807
 11
48.6389
 21
118.712
  0
LINE
  8
0
 10
48.6389
 20
118.712
 11
48.3611
 21
118.712
  0
LINE
  8
0
 10
24.3611
 20
118.712
 11
24.1
 21
118.807
  0
LINE
  8
0
 10
24.1
 20
118.807
 11
23.8872
 21
118.986
  0
LINE
  8
0
 10
23.8872
 20
118.986
 11
23.7482
 21
119.226
  0
LINE
  8
0
 10
23.7482
 20
119.226
 11
23.7
 21
119.5
  0
LINE
  8
0
 10
23.7
 20
119.5
 11
23.7482
 21
119.774
  0
LINE
  8
0
 10
23.7482
 20
119.774
 11
23.8872
 21
120.014
  0
LINE
  8
0
 10
23.8872
 20
120.014
 11
24.1
 21
120.193
  0
LINE
  8
0
 10
24.1
 20
120.193
 11
24.3611
 21
120.288
  0
LINE
  8
0
 10
24.3611
 20
120.288
 11
24.6389
 21
120.288
  0
LINE
  8
0
 10
24.6389
 20
120.288
 11
24.9
 21
120.193
  0
LINE
  8
0
 10
24.9
 20
120.193
 11
25.1128
 21
120.014
  0
LINE
  8
0
 10
25.1128
 20
120.014
 11
25.2518
 21
119.774
  0
LINE
  8
0
 10
25.2518
 20
119.774
 11
25.3
 21
119.5
  0
LINE
  8
0
 10
25.3
 20
119.5
 11
25.2518
 21
119.226
  0
LINE
  8
0
 10
25.2518
 20
119.226
 11
25.1128
 21
118.986
  0
LINE
  8
0
 10
25.1128
 20
118.986
 11
24.9
 21
118.807
  0
LINE
  8
0
 10
24.9
 20
118.807
 11
24.6389
 21
118.712
  0
LINE
  8
0
 10
24.6389
 20
118.712
 11
24.3611
 21
118.712
  0
LINE
  8
0
 10
18.3611
 20
112.712
 11
18.1
 21
112.807
  0
LINE
  8
0
 10
18.1
 20
112.807
 11
17.8872
 21
112.986
  0
LINE
  8
0
 10
17.8872
 20
112.986
 11
17.7482
 21
113.226
  0
LINE
  8
0
 10
17.7482
 20
113.226
 11
17.7
 21
113.5
  0
LINE
  8
0
 10
17.7
 20
113.5
 11
17.7482
 21
113.774
  0
LINE
  8
0
 10
17.7482
 20
113.774
 11
17.8872
 21
114.014
  0
LINE
  8
0
 10
17.8872
 20
114.014
 11
18.1
 21
114.193
  0
LINE
  8
0
 10
18.1
 20
114.193
 11
18.3611
 21
114.288
  0
LINE
  8
0
 10
18.3611
 20
114.288
 11
18.6389
 21
114.288
  0
LINE
  8
0
 10
18.6389
 20
114.288
 11
18.9
 21
114.193
  0
LINE
  8
0
 10
18.9
 20
114.193
 11
19.1128
 21
114.014
  0
LINE
  8
0
 10
19.1128
 20
114.014
 11
19.2518
 21
113.774
  0
LINE
  8
0
 10
19.2518
 20
113.774
 11
19.3
 21
113.5
  0
LINE
  8
0
 10
19.3
 20
113.5
 11
19.2518
 21
113.226
  0
LINE
  8
0
 10
19.2518
 20
113.226
 11
19.1128
 21
112.986
  0
LINE
  8
0
 10
19.1128
 20
112.986
 11
18.9
 21
112.807
  0
LINE
  8
0
 10
18.9
 20
112.807
 11
18.6389
 21
112.712
  0
LINE
  8
0
 10
18.6389
 20
112.712
 11
18.3611
 21
112.712
  0
LINE
  8
0
 10
42.3611
 20
112.712
 11
42.1
 21
112.807
  0
LINE
  8
0
 10
42.1
 20
112.807
 11
41.8872
 21
112.986
  0
LINE
  8
0
 10
41.8872
 20
112.986
 11
41.7482
 21
113.226
  0
LINE
  8
0
 10
41.7482
 20
113.226
 11
41.7
 21
113.5
  0
LINE
  8
0
 10
41.7
 20
113.5
 11
41.7482
 21
113.774
  0
LINE
  8
0
 10
41.7482
 20
113.774
 11
41.8872
 21
114.014
  0
LINE
  8
0
 10
41.8872
 20
114.014
 11
42.1
 21
114.193
  0
LINE
  8
0
 10
42.1
 20
114.193
 11
42.3611
 21
114.288
  0
LINE
  8
0
 10
42.3611
 20
114.288
 11
42.6389
 21
114.288
  0
LINE
  8
0
 10
42.6389
 20
114.288
 11
42.9
 21
114.193
  0
LINE
  8
0
 10
42.9
 20
114.193
 11
43.1128
 21
114.014
  0
LINE
  8
0
 10
43.1128
 20
114.014
 11
43.2518
 21
113.774
  0
LINE
  8
0
 10
43.2518
 20
113.774
 11
43.3
 21
113.5
  0
LINE
  8
0
 10
43.3
 20
113.5
 11
43.2518
 21
113.226
  0
LINE
  8
0
 10
43.2518
 20
113.226
 11
43.1128
 21
112.986
  0
LINE
  8
0
 10
43.1128
 20
112.986
 11
42.9
 21
112.807
  0
LINE
  8
0
 10
42.9
 20
112.807
 11
42.6389
 21
112.712
  0
LINE
  8
0
 10
42.6389
 20
112.712
 11
42.3611
 21
112.712
  0
LINE
  8
0
 10
14.3611
 20
106.712
 11
14.1
 21
106.807
  0
LINE
  8
0
 10
14.1
 20
106.807
 11
13.8872
 21
106.986
  0
LINE
  8
0
 10
13.8872
 20
106.986
 11
13.7482
 21
107.226
  0
LINE
  8
0
 10
13.7482
 20
107.226
 11
13.7
 21
107.5
  0
LINE
  8
0
 10
13.7
 20
107.5
 11
13.7482
 21
107.774
  0
LINE
  8
0
 10
13.7482
 20
107.774
 11
13.8872
 21
108.014
  0
LINE
  8
0
 10
13.8872
 20
108.014
 11
14.1
 21
108.193
  0
LINE
  8
0
 10
14.1
 20
108.193
 11
14.3611
 21
108.288
  0
LINE
  8
0
 10
14.3611
 20
108.288
 11
14.6389
 21
108.288
  0
LINE
  8
0
 10
14.6389
 20
108.288
 11
14.9
 21
108.193
  0
LINE
  8
0
 10
14.9
 20
108.193
 11
15.1128
 21
108.014
  0
LINE
  8
0
 10
15.1128
 20
108.014
 11
15.2517
 21
107.774
  0
LINE
  8
0
 10
15.2517
 20
107.774
 11
15.3
 21
107.5
  0
LINE
  8
0
 10
15.3
 20
107.5
 11
15.2517
 21
107.226
  0
LINE
  8
0
 10
15.2517
 20
107.226
 11
15.1128
 21
106.986
  0
LINE
  8
0
 10
15.1128
 20
106.986
 11
14.9
 21
106.807
  0
LINE
  8
0
 10
14.9
 20
106.807
 11
14.6389
 21
106.712
  0
LINE
  8
0
 10
14.6389
 20
106.712
 11
14.3611
 21
106.712
  0
LINE
  8
0
 10
38.3611
 20
106.712
 11
38.1
 21
106.807
  0
LINE
  8
0
 10
38.1
 20
106.807
 11
37.8872
 21
106.986
  0
LINE
  8
0
 10
37.8872
 20
106.986
 11
37.7482
 21
107.226
  0
LINE
  8
0
 10
37.7482
 20
107.226
 11
37.7
 21
107.5
  0
LINE
  8
0
 10
37.7
 20
107.5
 11
37.7482
 21
107.774
  0
LINE
  8
0
 10
37.7482
 20
107.774
 11
37.8872
 21
108.014
  0
LINE
  8
0
 10
37.8872
 20
108.014
 11
38.1
 21
108.193
  0
LINE
  8
0
 10
38.1
 20
108.193
 11
38.3611
 21
108.288
  0
LINE
  8
0
 10
38.3611
 20
108.288
 11
38.6389
 21
108.288
  0
LINE
  8
0
 10
38.6389
 20
108.288
 11
38.9
 21
108.193
  0
LINE
  8
0
 10
38.9
 20
108.193
 11
39.1128
 21
108.014
  0
LINE
  8
0
 10
39.1128
 20
108.014
 11
39.2518
 21
107.774
  0
LINE
  8
0
 10
39.2518
 20
107.774
 11
39.3
 21
107.5
  0
LINE
  8
0
 10
39.3
 20
107.5
 11
39.2518
 21
107.226
  0
LINE
  8
0
 10
39.2518
 20
107.226
 11
39.1128
 21
106.986
  0
LINE
  8
0
 10
39.1128
 20
106.986
 11
38.9
 21
106.807
  0
LINE
  8
0
 10
38.9
 20
106.807
 11
38.6389
 21
106.712
  0
LINE
  8
0
 10
38.6389
 20
106.712
 11
38.3611
 21
106.712
  0
LINE
  8
0
 10
38.3611
 20
94.7121
 11
38.1
 21
94.8072
  0
LINE
  8
0
 10
38.1
 20
94.8072
 11
37.8872
 21
94.9858
  0
LINE
  8
0
 10
37.8872
 20
94.9858
 11
37.7482
 21
95.2264
  0
LINE
  8
0
 10
37.7482
 20
95.2264
 11
37.7
 21
95.5
  0
LINE
  8
0
 10
37.7
 20
95.5
 11
37.7482
 21
95.7736
  0
LINE
  8
0
 10
37.7482
 20
95.7736
 11
37.8872
 21
96.0142
  0
LINE
  8
0
 10
37.8872
 20
96.0142
 11
38.1
 21
96.1928
  0
LINE
  8
0
 10
38.1
 20
96.1928
 11
38.3611
 21
96.2878
  0
LINE
  8
0
 10
38.3611
 20
96.2878
 11
38.6389
 21
96.2878
  0
LINE
  8
0
 10
38.6389
 20
96.2878
 11
38.9
 21
96.1928
  0
LINE
  8
0
 10
38.9
 20
96.1928
 11
39.1128
 21
96.0142
  0
LINE
  8
0
 10
39.1128
 20
96.0142
 11
39.2518
 21
95.7736
  0
LINE
  8
0
 10
39.2518
 20
95.7736
 11
39.3
 21
95.5
  0
LINE
  8
0
 10
39.3
 20
95.5
 11
39.2518
 21
95.2264
  0
LINE
  8
0
 10
39.2518
 20
95.2264
 11
39.1128
 21
94.9858
  0
LINE
  8
0
 10
39.1128
 20
94.9858
 11
38.9
 21
94.8072
  0
LINE
  8
0
 10
38.9
 20
94.8072
 11
38.6389
 21
94.7121
  0
LINE
  8
0
 10
38.6389
 20
94.7121
 11
38.3611
 21
94.7121
  0
LINE
  8
0
 10
14.3611
 20
94.7121
 11
14.1
 21
94.8072
  0
LINE
  8
0
 10
14.1
 20
94.8072
 11
13.8872
 21
94.9858
  0
LINE
  8
0
 10
13.8872
 20
94.9858
 11
13.7482
 21
95.2264
  0
LINE
  8
0
 10
13.7482
 20
95.2264
 11
13.7
 21
95.5
  0
LINE
  8
0
 10
13.7
 20
95.5
 11
13.7482
 21
95.7736
  0
LINE
  8
0
 10
13.7482
 20
95.7736
 11
13.8872
 21
96.0142
  0
LINE
  8
0
 10
13.8872
 20
96.0142
 11
14.1
 21
96.1928
  0
LINE
  8
0
 10
14.1
 20
96.1928
 11
14.3611
 21
96.2878
  0
LINE
  8
0
 10
14.3611
 20
96.2878
 11
14.6389
 21
96.2878
  0
LINE
  8
0
 10
14.6389
 20
96.2878
 11
14.9
 21
96.1928
  0
LINE
  8
0
 10
14.9
 20
96.1928
 11
15.1128
 21
96.0142
  0
LINE
  8
0
 10
15.1128
 20
96.0142
 11
15.2517
 21
95.7736
  0
LINE
  8
0
 10
15.2517
 20
95.7736
 11
15.3
 21
95.5
  0
LINE
  8
0
 10
15.3
 20
95.5
 11
15.2517
 21
95.2264
  0
LINE
  8
0
 10
15.2517
 20
95.2264
 11
15.1128
 21
94.9858
  0
LINE
  8
0
 10
15.1128
 20
94.9858
 11
14.9
 21
94.8072
  0
LINE
  8
0
 10
14.9
 20
94.8072
 11
14.6389
 21
94.7121
  0
LINE
  8
0
 10
14.6389
 20
94.7121
 11
14.3611
 21
94.7121
  0
LINE
  8
0
 10
14.3611
 20
82.7121
 11
14.1
 21
82.8072
  0
LINE
  8
0
 10
14.1
 20
82.8072
 11
13.8872
 21
82.9858
  0
LINE
  8
0
 10
13.8872
 20
82.9858
 11
13.7482
 21
83.2264
  0
LINE
  8
0
 10
13.7482
 20
83.2264
 11
13.7
 21
83.5
  0
LINE
  8
0
 10
13.7
 20
83.5
 11
13.7482
 21
83.7736
  0
LINE
  8
0
 10
13.7482
 20
83.7736
 11
13.8872
 21
84.0142
  0
LINE
  8
0
 10
13.8872
 20
84.0142
 11
14.1
 21
84.1928
  0
LINE
  8
0
 10
14.1
 20
84.1928
 11
14.3611
 21
84.2878
  0
LINE
  8
0
 10
14.3611
 20
84.2878
 11
14.6389
 21
84.2878
  0
LINE
  8
0
 10
14.6389
 20
84.2878
 11
14.9
 21
84.1928
  0
LINE
  8
0
 10
14.9
 20
84.1928
 11
15.1128
 21
84.0142
  0
LINE
  8
0
 10
15.1128
 20
84.0142
 11
15.2517
 21
83.7736
  0
LINE
  8
0
 10
15.2517
 20
83.7736
 11
15.3
 21
83.5
  0
LINE
  8
0
 10
15.3
 20
83.5
 11
15.2517
 21
83.2264
  0
LINE
  8
0
 10
15.2517
 20
83.2264
 11
15.1128
 21
82.9858
  0
LINE
  8
0
 10
15.1128
 20
82.9858
 11
14.9
 21
82.8072
  0
LINE
  8
0
 10
14.9
 20
82.8072
 11
14.6389
 21
82.7121
  0
LINE
  8
0
 10
14.6389
 20
82.7121
 11
14.3611
 21
82.7121
  0
LINE
  8
0
 10
38.3611
 20
82.7121
 11
38.1
 21
82.8072
  0
LINE
  8
0
 10
38.1
 20
82.8072
 11
37.8872
 21
82.9858
  0
LINE
  8
0
 10
37.8872
 20
82.9858
 11
37.7482
 21
83.2264
  0
LINE
  8
0
 10
37.7482
 20
83.2264
 11
37.7
 21
83.5
  0
LINE
  8
0
 10
37.7
 20
83.5
 11
37.7482
 21
83.7736
  0
LINE
  8
0
 10
37.7482
 20
83.7736
 11
37.8872
 21
84.0142
  0
LINE
  8
0
 10
37.8872
 20
84.0142
 11
38.1
 21
84.1928
  0
LINE
  8
0
 10
38.1
 20
84.1928
 11
38.3611
 21
84.2878
  0
LINE
  8
0
 10
38.3611
 20
84.2878
 11
38.6389
 21
84.2878
  0
LINE
  8
0
 10
38.6389
 20
84.2878
 11
38.9
 21
84.1928
  0
LINE
  8
0
 10
38.9
 20
84.1928
 11
39.1128
 21
84.0142
  0
LINE
  8
0
 10
39.1128
 20
84.0142
 11
39.2518
 21
83.7736
  0
LINE
  8
0
 10
39.2518
 20
83.7736
 11
39.3
 21
83.5
  0
LINE
  8
0
 10
39.3
 20
83.5
 11
39.2518
 21
83.2264
  0
LINE
  8
0
 10
39.2518
 20
83.2264
 11
39.1128
 21
82.9858
  0
LINE
  8
0
 10
39.1128
 20
82.9858
 11
38.9
 21
82.8072
  0
LINE
  8
0
 10
38.9
 20
82.8072
 11
38.6389
 21
82.7121
  0
LINE
  8
0
 10
38.6389
 20
82.7121
 11
38.3611
 21
82.7121
  0
LINE
  8
0
 10
24.3611
 20
70.7121
 11
24.1
 21
70.8072
  0
LINE
  8
0
 10
24.1
 20
70.8072
 11
23.8872
 21
70.9858
  0
LINE
  8
0
 10
23.8872
 20
70.9858
 11
23.7482
 21
71.2264
  0
LINE
  8
0
 10
23.7482
 20
71.2264
 11
23.7
 21
71.5
  0
LINE
  8
0
 10
23.7
 20
71.5
 11
23.7482
 21
71.7736
  0
LINE
  8
0
 10
23.7482
 20
71.7736
 11
23.8872
 21
72.0142
  0
LINE
  8
0
 10
23.8872
 20
72.0142
 11
24.1
 21
72.1928
  0
LINE
  8
0
 10
24.1
 20
72.1928
 11
24.3611
 21
72.2878
  0
LINE
  8
0
 10
24.3611
 20
72.2878
 11
24.6389
 21
72.2878
  0
LINE
  8
0
 10
24.6389
 20
72.2878
 11
24.9
 21
72.1928
  0
LINE
  8
0
 10
24.9
 20
72.1928
 11
25.1128
 21
72.0142
  0
LINE
  8
0
 10
25.1128
 20
72.0142
 11
25.2518
 21
71.7736
  0
LINE
  8
0
 10
25.2518
 20
71.7736
 11
25.3
 21
71.5
  0
LINE
  8
0
 10
25.3
 20
71.5
 11
25.2518
 21
71.2264
  0
LINE
  8
0
 10
25.2518
 20
71.2264
 11
25.1128
 21
70.9858
  0
LINE
  8
0
 10
25.1128
 20
70.9858
 11
24.9
 21
70.8072
  0
LINE
  8
0
 10
24.9
 20
70.8072
 11
24.6389
 21
70.7121
  0
LINE
  8
0
 10
24.6389
 20
70.7121
 11
24.3611
 21
70.7121
  0
LINE
  8
0
 10
48.3611
 20
70.7121
 11
48.1
 21
70.8072
  0
LINE
  8
0
 10
48.1
 20
70.8072
 11
47.8872
 21
70.9858
  0
LINE
  8
0
 10
47.8872
 20
70.9858
 11
47.7482
 21
71.2264
  0
LINE
  8
0
 10
47.7482
 20
71.2264
 11
47.7
 21
71.5
  0
LINE
  8
0
 10
47.7
 20
71.5
 11
47.7482
 21
71.7736
  0
LINE
  8
0
 10
47.7482
 20
71.7736
 11
47.8872
 21
72.0142
  0
LINE
  8
0
 10
47.8872
 20
72.0142
 11
48.1
 21
72.1928
  0
LINE
  8
0
 10
48.1
 20
72.1928
 11
48.3611
 21
72.2878
  0
LINE
  8
0
 10
48.3611
 20
72.2878
 11
48.6389
 21
72.2878
  0
LINE
  8
0
 10
48.6389
 20
72.2878
 11
48.9
 21
72.1928
  0
LINE
  8
0
 10
48.9
 20
72.1928
 11
49.1128
 21
72.0142
  0
LINE
  8
0
 10
49.1128
 20
72.0142
 11
49.2518
 21
71.7736
  0
LINE
  8
0
 10
49.2518
 20
71.7736
 11
49.3
 21
71.5
  0
LINE
  8
0
 10
49.3
 20
71.5
 11
49.2518
 21
71.2264
  0
LINE
  8
0
 10
49.2518
 20
71.2264
 11
49.1128
 21
70.9858
  0
LINE
  8
0
 10
49.1128
 20
70.9858
 11
48.9
 21
70.8072
  0
LINE
  8
0
 10
48.9
 20
70.8072
 11
48.6389
 21
70.7121
  0
LINE
  8
0
 10
48.6389
 20
70.7121
 11
48.3611
 21
70.7121
  0
LINE
  8
0
 10
18.3611
 20
64.7121
 11
18.1
 21
64.8072
  0
LINE
  8
0
 10
18.1
 20
64.8072
 11
17.8872
 21
64.9858
  0
LINE
  8
0
 10
17.8872
 20
64.9858
 11
17.7482
 21
65.2264
  0
LINE
  8
0
 10
17.7482
 20
65.2264
 11
17.7
 21
65.5
  0
LINE
  8
0
 10
17.7
 20
65.5
 11
17.7482
 21
65.7736
  0
LINE
  8
0
 10
17.7482
 20
65.7736
 11
17.8872
 21
66.0142
  0
LINE
  8
0
 10
17.8872
 20
66.0142
 11
18.1
 21
66.1928
  0
LINE
  8
0
 10
18.1
 20
66.1928
 11
18.3611
 21
66.2878
  0
LINE
  8
0
 10
18.3611
 20
66.2878
 11
18.6389
 21
66.2878
  0
LINE
  8
0
 10
18.6389
 20
66.2878
 11
18.9
 21
66.1928
  0
LINE
  8
0
 10
18.9
 20
66.1928
 11
19.1128
 21
66.0142
  0
LINE
  8
0
 10
19.1128
 20
66.0142
 11
19.2518
 21
65.7736
  0
LINE
  8
0
 10
19.2518
 20
65.7736
 11
19.3
 21
65.5
  0
LINE
  8
0
 10
19.3
 20
65.5
 11
19.2518
 21
65.2264
  0
LINE
  8
0
 10
19.2518
 20
65.2264
 11
19.1128
 21
64.9858
  0
LINE
  8
0
 10
19.1128
 20
64.9858
 11
18.9
 21
64.8072
  0
LINE
  8
0
 10
18.9
 20
64.8072
 11
18.6389
 21
64.7121
  0
LINE
  8
0
 10
18.6389
 20
64.7121
 11
18.3611
 21
64.7121
  0
LINE
  8
0
 10
42.3611
 20
64.7121
 11
42.1
 21
64.8072
  0
LINE
  8
0
 10
42.1
 20
64.8072
 11
41.8872
 21
64.9858
  0
LINE
  8
0
 10
41.8872
 20
64.9858
 11
41.7482
 21
65.2264
  0
LINE
  8
0
 10
41.7482
 20
65.2264
 11
41.7
 21
65.5
  0
LINE
  8
0
 10
41.7
 20
65.5
 11
41.7482
 21
65.7736
  0
LINE
  8
0
 10
41.7482
 20
65.7736
 11
41.8872
 21
66.0142
  0
LINE
  8
0
 10
41.8872
 20
66.0142
 11
42.1
 21
66.1928
  0
LINE
  8
0
 10
42.1
 20
66.1928
 11
42.3611
 21
66.2878
  0
LINE
  8
0
 10
42.3611
 20
66.2878
 11
42.6389
 21
66.2878
  0
LINE
  8
0
 10
42.6389
 20
66.2878
 11
42.9
 21
66.1928
  0
LINE
  8
0
 10
42.9
 20
66.1928
 11
43.1128
 21
66.0142
  0
LINE
  8
0
 10
43.1128
 20
66.0142
 11
43.2518
 21
65.7736
  0
LINE
  8
0
 10
43.2518
 20
65.7736
 11
43.3
 21
65.5
  0
LINE
  8
0
 10
43.3
 20
65.5
 11
43.2518
 21
65.2264
  0
LINE
  8
0
 10
43.2518
 20
65.2264
 11
43.1128
 21
64.9858
  0
LINE
  8
0
 10
43.1128
 20
64.9858
 11
42.9
 21
64.8072
  0
LINE
  8
0
 10
42.9
 20
64.8072
 11
42.6389
 21
64.7121
  0
LINE
  8
0
 10
42.6389
 20
64.7121
 11
42.3611
 21
64.7121
  0
LINE
  8
0
 10
37.7482
 20
59.7736
 11
37.8872
 21
60.0142
  0
LINE
  8
0
 10
37.8872
 20
60.0142
 11
38.1
 21
60.1928
  0
LINE
  8
0
 10
38.1
 20
60.1928
 11
38.3611
 21
60.2878
  0
LINE
  8
0
 10
38.3611
 20
60.2878
 11
38.6389
 21
60.2878
  0
LINE
  8
0
 10
38.6389
 20
60.2878
 11
38.9
 21
60.1928
  0
LINE
  8
0
 10
38.9
 20
60.1928
 11
39.1128
 21
60.0142
  0
LINE
  8
0
 10
39.1128
 20
60.0142
 11
39.2518
 21
59.7736
  0
LINE
  8
0
 10
39.2518
 20
59.7736
 11
39.3
 21
59.5
  0
LINE
  8
0
 10
39.3
 20
59.5
 11
39.2518
 21
59.2264
  0
LINE
  8
0
 10
39.2518
 20
59.2264
 11
39.1128
 21
58.9858
  0
LINE
  8
0
 10
39.1128
 20
58.9858
 11
38.9
 21
58.8072
  0
LINE
  8
0
 10
38.9
 20
58.8072
 11
38.6389
 21
58.7121
  0
LINE
  8
0
 10
38.6389
 20
58.7121
 11
38.3611
 21
58.7121
  0
LINE
  8
0
 10
38.3611
 20
58.7121
 11
38.1
 21
58.8072
  0
LINE
  8
0
 10
38.1
 20
58.8072
 11
37.8872
 21
58.9858
  0
LINE
  8
0
 10
37.8872
 20
58.9858
 11
37.7482
 21
59.2264
  0
LINE
  8
0
 10
37.7482
 20
59.2264
 11
37.7
 21
59.5
  0
LINE
  8
0
 10
37.7
 20
59.5
 11
37.7482
 21
59.7736
  0
LINE
  8
0
 10
38.3611
 20
46.7121
 11
38.1
 21
46.8072
  0
LINE
  8
0
 10
38.1
 20
46.8072
 11
37.8872
 21
46.9858
  0
LINE
  8
0
 10
37.8872
 20
46.9858
 11
37.7482
 21
47.2264
  0
LINE
  8
0
 10
37.7482
 20
47.2264
 11
37.7
 21
47.5
  0
LINE
  8
0
 10
37.7
 20
47.5
 11
37.7482
 21
47.7736
  0
LINE
  8
0
 10
37.7482
 20
47.7736
 11
37.8872
 21
48.0142
  0
LINE
  8
0
 10
37.8872
 20
48.0142
 11
38.1
 21
48.1928
  0
LINE
  8
0
 10
38.1
 20
48.1928
 11
38.3611
 21
48.2878
  0
LINE
  8
0
 10
38.3611
 20
48.2878
 11
38.6389
 21
48.2878
  0
LINE
  8
0
 10
38.6389
 20
48.2878
 11
38.9
 21
48.1928
  0
LINE
  8
0
 10
38.9
 20
48.1928
 11
39.1128
 21
48.0142
  0
LINE
  8
0
 10
39.1128
 20
48.0142
 11
39.2518
 21
47.7736
  0
LINE
  8
0
 10
39.2518
 20
47.7736
 11
39.3
 21
47.5
  0
LINE
  8
0
 10
39.3
 20
47.5
 11
39.2518
 21
47.2264
  0
LINE
  8
0
 10
39.2518
 20
47.2264
 11
39.1128
 21
46.9858
  0
LINE
  8
0
 10
39.1128
 20
46.9858
 11
38.9
 21
46.8072
  0
LINE
  8
0
 10
38.9
 20
46.8072
 11
38.6389
 21
46.7121
  0
LINE
  8
0
 10
38.6389
 20
46.7121
 11
38.3611
 21
46.7121
  0
LINE
  8
0
 10
14.3611
 20
46.7121
 11
14.1
 21
46.8072
  0
LINE
  8
0
 10
14.1
 20
46.8072
 11
13.8872
 21
46.9858
  0
LINE
  8
0
 10
13.8872
 20
46.9858
 11
13.7482
 21
47.2264
  0
LINE
  8
0
 10
13.7482
 20
47.2264
 11
13.7
 21
47.5
  0
LINE
  8
0
 10
13.7
 20
47.5
 11
13.7482
 21
47.7736
  0
LINE
  8
0
 10
13.7482
 20
47.7736
 11
13.8872
 21
48.0142
  0
LINE
  8
0
 10
13.8872
 20
48.0142
 11
14.1
 21
48.1928
  0
LINE
  8
0
 10
14.1
 20
48.1928
 11
14.3611
 21
48.2878
  0
LINE
  8
0
 10
14.3611
 20
48.2878
 11
14.6389
 21
48.2878
  0
LINE
  8
0
 10
14.6389
 20
48.2878
 11
14.9
 21
48.1928
  0
LINE
  8
0
 10
14.9
 20
48.1928
 11
15.1128
 21
48.0142
  0
LINE
  8
0
 10
15.1128
 20
48.0142
 11
15.2517
 21
47.7736
  0
LINE
  8
0
 10
15.2517
 20
47.7736
 11
15.3
 21
47.5
  0
LINE
  8
0
 10
15.3
 20
47.5
 11
15.2517
 21
47.2264
  0
LINE
  8
0
 10
15.2517
 20
47.2264
 11
15.1128
 21
46.9858
  0
LINE
  8
0
 10
15.1128
 20
46.9858
 11
14.9
 21
46.8072
  0
LINE
  8
0
 10
14.9
 20
46.8072
 11
14.6389
 21
46.7121
  0
LINE
  8
0
 10
14.6389
 20
46.7121
 11
14.3611
 21
46.7121
  0
LINE
  8
0
 10
14.3611
 20
34.7121
 11
14.1
 21
34.8072
  0
LINE
  8
0
 10
14.1
 20
34.8072
 11
13.8872
 21
34.9858
  0
LINE
  8
0
 10
13.8872
 20
34.9858
 11
13.7482
 21
35.2264
  0
LINE
  8
0
 10
13.7482
 20
35.2264
 11
13.7
 21
35.5
  0
LINE
  8
0
 10
13.7
 20
35.5
 11
13.7482
 21
35.7736
  0
LINE
  8
0
 10
13.7482
 20
35.7736
 11
13.8872
 21
36.0142
  0
LINE
  8
0
 10
13.8872
 20
36.0142
 11
14.1
 21
36.1928
  0
LINE
  8
0
 10
14.1
 20
36.1928
 11
14.3611
 21
36.2878
  0
LINE
  8
0
 10
14.3611
 20
36.2878
 11
14.6389
 21
36.2878
  0
LINE
  8
0
 10
14.6389
 20
36.2878
 11
14.9
 21
36.1928
  0
LINE
  8
0
 10
14.9
 20
36.1928
 11
15.1128
 21
36.0142
  0
LINE
  8
0
 10
15.1128
 20
36.0142
 11
15.2517
 21
35.7736
  0
LINE
  8
0
 10
15.2517
 20
35.7736
 11
15.3
 21
35.5
  0
LINE
  8
0
 10
15.3
 20
35.5
 11
15.2517
 21
35.2264
  0
LINE
  8
0
 10
15.2517
 20
35.2264
 11
15.1128
 21
34.9858
  0
LINE
  8
0
 10
15.1128
 20
34.9858
 11
14.9
 21
34.8072
  0
LINE
  8
0
 10
14.9
 20
34.8072
 11
14.6389
 21
34.7121
  0
LINE
  8
0
 10
14.6389
 20
34.7121
 11
14.3611
 21
34.7121
  0
LINE
  8
0
 10
38.3611
 20
34.7121
 11
38.1
 21
34.8072
  0
LINE
  8
0
 10
38.1
 20
34.8072
 11
37.8872
 21
34.9858
  0
LINE
  8
0
 10
37.8872
 20
34.9858
 11
37.7482
 21
35.2264
  0
LINE
  8
0
 10
37.7482
 20
35.2264
 11
37.7
 21
35.5
  0
LINE
  8
0
 10
37.7
 20
35.5
 11
37.7482
 21
35.7736
  0
LINE
  8
0
 10
37.7482
 20
35.7736
 11
37.8872
 21
36.0142
  0
LINE
  8
0
 10
37.8872
 20
36.0142
 11
38.1
 21
36.1928
  0
LINE
  8
0
 10
38.1
 20
36.1928
 11
38.3611
 21
36.2878
  0
LINE
  8
0
 10
38.3611
 20
36.2878
 11
38.6389
 21
36.2878
  0
LINE
  8
0
 10
38.6389
 20
36.2878
 11
38.9
 21
36.1928
  0
LINE
  8
0
 10
38.9
 20
36.1928
 11
39.1128
 21
36.0142
  0
LINE
  8
0
 10
39.1128
 20
36.0142
 11
39.2518
 21
35.7736
  0
LINE
  8
0
 10
39.2518
 20
35.7736
 11
39.3
 21
35.5
  0
LINE
  8
0
 10
39.3
 20
35.5
 11
39.2518
 21
35.2264
  0
LINE
  8
0
 10
39.2518
 20
35.2264
 11
39.1128
 21
34.9858
  0
LINE
  8
0
 10
39.1128
 20
34.9858
 11
38.9
 21
34.8072
  0
LINE
  8
0
 10
38.9
 20
34.8072
 11
38.6389
 21
34.7121
  0
LINE
  8
0
 10
38.6389
 20
34.7121
 11
38.3611
 21
34.7121
  0
LINE
  8
0
 10
33.1128
 20
184.986
 11
32.9
 21
184.807
  0
LINE
  8
0
 10
32.9
 20
184.807
 11
32.6389
 21
184.712
  0
LINE
  8
0
 10
32.6389
 20
184.712
 11
32.3611
 21
184.712
  0
LINE
  8
0
 10
32.3611
 20
184.712
 11
32.1
 21
184.807
  0
LINE
  8
0
 10
32.1
 20
184.807
 11
31.8872
 21
184.986
  0
LINE
  8
0
 10
31.8872
 20
184.986
 11
31.7482
 21
185.226
  0
LINE
  8
0
 10
31.7482
 20
185.226
 11
31.7
 21
185.5
  0
LINE
  8
0
 10
31.7
 20
185.5
 11
31.7482
 21
185.774
  0
LINE
  8
0
 10
31.7482
 20
185.774
 11
31.8872
 21
186.014
  0
LINE
  8
0
 10
31.8872
 20
186.014
 11
32.1
 21
186.193
  0
LINE
  8
0
 10
32.1
 20
186.193
 11
32.3611
 21
186.288
  0
LINE
  8
0
 10
32.3611
 20
186.288
 11
32.6389
 21
186.288
  0
LINE
  8
0
 10
32.6389
 20
186.288
 11
32.9
 21
186.193
  0
LINE
  8
0
 10
32.9
 20
186.193
 11
33.1128
 21
186.014
  0
LINE
  8
0
 10
33.1128
 20
186.014
 11
33.2518
 21
185.774
  0
LINE
  8
0
 10
33.2518
 20
185.774
 11
33.3
 21
185.5
  0
LINE
  8
0
 10
33.3
 20
185.5
 11
33.2518
 21
185.226
  0
LINE
  8
0
 10
33.2518
 20
185.226
 11
33.1128
 21
184.986
  0
LINE
  8
0
 10
14.9
 20
58.8072
 11
14.6389
 21
58.7121
  0
LINE
  8
0
 10
14.6389
 20
58.7121
 11
14.3611
 21
58.7121
  0
LINE
  8
0
 10
14.3611
 20
58.7121
 11
14.1
 21
58.8072
  0
LINE
  8
0
 10
14.1
 20
58.8072
 11
13.8872
 21
58.9858
  0
LINE
  8
0
 10
13.8872
 20
58.9858
 11
13.7482
 21
59.2264
  0
LINE
  8
0
 10
13.7482
 20
59.2264
 11
13.7
 21
59.5
  0
LINE
  8
0
 10
13.7
 20
59.5
 11
13.7482
 21
59.7736
  0
LINE
  8
0
 10
13.7482
 20
59.7736
 11
13.8872
 21
60.0142
  0
LINE
  8
0
 10
13.8872
 20
60.0142
 11
14.1
 21
60.1928
  0
LINE
  8
0
 10
14.1
 20
60.1928
 11
14.3611
 21
60.2878
  0
LINE
  8
0
 10
14.3611
 20
60.2878
 11
14.6389
 21
60.2878
  0
LINE
  8
0
 10
14.6389
 20
60.2878
 11
14.9
 21
60.1928
  0
LINE
  8
0
 10
14.9
 20
60.1928
 11
15.1128
 21
60.0142
  0
LINE
  8
0
 10
15.1128
 20
60.0142
 11
15.2517
 21
59.7736
  0
LINE
  8
0
 10
15.2517
 20
59.7736
 11
15.3
 21
59.5
  0
LINE
  8
0
 10
15.3
 20
59.5
 11
15.2517
 21
59.2264
  0
LINE
  8
0
 10
15.2517
 20
59.2264
 11
15.1128
 21
58.9858
  0
LINE
  8
0
 10
15.1128
 20
58.9858
 11
14.9
 21
58.8072
  0
ENDSEC
  0
SECTION
  2
OBJECTS
  0
DICTIONARY
  0
ENDSEC
  0
EOF
