  0
SECTION
  2
BLOCKS
  0
ENDSEC
  0
SECTION
  2
ENTITIES
  0
LINE
  8
0
 10
69
 20
650
 11
0
 21
650
  0
LINE
  8
0
 10
0
 20
650
 11
0
 21
0
  0
LINE
  8
0
 10
0
 20
0
 11
69
 21
0
  0
LINE
  8
0
 10
69
 20
0
 11
69
 21
650
  0
LINE
  8
0
 10
22.3611
 20
272.712
 11
22.1
 21
272.807
  0
LINE
  8
0
 10
22.1
 20
272.807
 11
21.8872
 21
272.986
  0
LINE
  8
0
 10
21.8872
 20
272.986
 11
21.7482
 21
273.226
  0
LINE
  8
0
 10
21.7482
 20
273.226
 11
21.7
 21
273.5
  0
LINE
  8
0
 10
21.7
 20
273.5
 11
21.7482
 21
273.774
  0
LINE
  8
0
 10
21.7482
 20
273.774
 11
21.8872
 21
274.014
  0
LINE
  8
0
 10
21.8872
 20
274.014
 11
22.1
 21
274.193
  0
LINE
  8
0
 10
22.1
 20
274.193
 11
22.3611
 21
274.288
  0
LINE
  8
0
 10
22.3611
 20
274.288
 11
22.6389
 21
274.288
  0
LINE
  8
0
 10
22.6389
 20
274.288
 11
22.9
 21
274.193
  0
LINE
  8
0
 10
22.9
 20
274.193
 11
23.1128
 21
274.014
  0
LINE
  8
0
 10
23.1128
 20
274.014
 11
23.2518
 21
273.774
  0
LINE
  8
0
 10
23.2518
 20
273.774
 11
23.3
 21
273.5
  0
LINE
  8
0
 10
23.3
 20
273.5
 11
23.2518
 21
273.226
  0
LINE
  8
0
 10
23.2518
 20
273.226
 11
23.1128
 21
272.986
  0
LINE
  8
0
 10
23.1128
 20
272.986
 11
22.9
 21
272.807
  0
LINE
  8
0
 10
22.9
 20
272.807
 11
22.6389
 21
272.712
  0
LINE
  8
0
 10
22.6389
 20
272.712
 11
22.3611
 21
272.712
  0
LINE
  8
0
 10
28.3611
 20
267.379
 11
28.1
 21
267.474
  0
LINE
  8
0
 10
28.1
 20
267.474
 11
27.8872
 21
267.652
  0
LINE
  8
0
 10
27.8872
 20
267.652
 11
27.7482
 21
267.893
  0
LINE
  8
0
 10
27.7482
 20
267.893
 11
27.7
 21
268.167
  0
LINE
  8
0
 10
27.7
 20
268.167
 11
27.7482
 21
268.44
  0
LINE
  8
0
 10
27.7482
 20
268.44
 11
27.8872
 21
268.681
  0
LINE
  8
0
 10
27.8872
 20
268.681
 11
28.1
 21
268.859
  0
LINE
  8
0
 10
28.1
 20
268.859
 11
28.3611
 21
268.954
  0
LINE
  8
0
 10
28.3611
 20
268.954
 11
28.6389
 21
268.954
  0
LINE
  8
0
 10
28.6389
 20
268.954
 11
28.9
 21
268.859
  0
LINE
  8
0
 10
28.9
 20
268.859
 11
29.1128
 21
268.681
  0
LINE
  8
0
 10
29.1128
 20
268.681
 11
29.2518
 21
268.44
  0
LINE
  8
0
 10
29.2518
 20
268.44
 11
29.3
 21
268.167
  0
LINE
  8
0
 10
29.3
 20
268.167
 11
29.2518
 21
267.893
  0
LINE
  8
0
 10
29.2518
 20
267.893
 11
29.1128
 21
267.652
  0
LINE
  8
0
 10
29.1128
 20
267.652
 11
28.9
 21
267.474
  0
LINE
  8
0
 10
28.9
 20
267.474
 11
28.6389
 21
267.379
  0
LINE
  8
0
 10
28.6389
 20
267.379
 11
28.3611
 21
267.379
  0
LINE
  8
0
 10
24.3611
 20
262.045
 11
24.1
 21
262.141
  0
LINE
  8
0
 10
24.1
 20
262.141
 11
23.8872
 21
262.319
  0
LINE
  8
0
 10
23.8872
 20
262.319
 11
23.7482
 21
262.56
  0
LINE
  8
0
 10
23.7482
 20
262.56
 11
23.7
 21
262.833
  0
LINE
  8
0
 10
23.7
 20
262.833
 11
23.7482
 21
263.107
  0
LINE
  8
0
 10
23.7482
 20
263.107
 11
23.8872
 21
263.348
  0
LINE
  8
0
 10
23.8872
 20
263.348
 11
24.1
 21
263.526
  0
LINE
  8
0
 10
24.1
 20
263.526
 11
24.3611
 21
263.621
  0
LINE
  8
0
 10
24.3611
 20
263.621
 11
24.6389
 21
263.621
  0
LINE
  8
0
 10
24.6389
 20
263.621
 11
24.9
 21
263.526
  0
LINE
  8
0
 10
24.9
 20
263.526
 11
25.1128
 21
263.348
  0
LINE
  8
0
 10
25.1128
 20
263.348
 11
25.2518
 21
263.107
  0
LINE
  8
0
 10
25.2518
 20
263.107
 11
25.3
 21
262.833
  0
LINE
  8
0
 10
25.3
 20
262.833
 11
25.2518
 21
262.56
  0
LINE
  8
0
 10
25.2518
 20
262.56
 11
25.1128
 21
262.319
  0
LINE
  8
0
 10
25.1128
 20
262.319
 11
24.9
 21
262.141
  0
LINE
  8
0
 10
24.9
 20
262.141
 11
24.6389
 21
262.045
  0
LINE
  8
0
 10
24.6389
 20
262.045
 11
24.3611
 21
262.045
  0
LINE
  8
0
 10
22.3611
 20
256.712
 11
22.1
 21
256.807
  0
LINE
  8
0
 10
22.1
 20
256.807
 11
21.8872
 21
256.986
  0
LINE
  8
0
 10
21.8872
 20
256.986
 11
21.7482
 21
257.226
  0
LINE
  8
0
 10
21.7482
 20
257.226
 11
21.7
 21
257.5
  0
LINE
  8
0
 10
21.7
 20
257.5
 11
21.7482
 21
257.774
  0
LINE
  8
0
 10
21.7482
 20
257.774
 11
21.8872
 21
258.014
  0
LINE
  8
0
 10
21.8872
 20
258.014
 11
22.1
 21
258.193
  0
LINE
  8
0
 10
22.1
 20
258.193
 11
22.3611
 21
258.288
  0
LINE
  8
0
 10
22.3611
 20
258.288
 11
22.6389
 21
258.288
  0
LINE
  8
0
 10
22.6389
 20
258.288
 11
22.9
 21
258.193
  0
LINE
  8
0
 10
22.9
 20
258.193
 11
23.1128
 21
258.014
  0
LINE
  8
0
 10
23.1128
 20
258.014
 11
23.2518
 21
257.774
  0
LINE
  8
0
 10
23.2518
 20
257.774
 11
23.3
 21
257.5
  0
LINE
  8
0
 10
23.3
 20
257.5
 11
23.2518
 21
257.226
  0
LINE
  8
0
 10
23.2518
 20
257.226
 11
23.1128
 21
256.986
  0
LINE
  8
0
 10
23.1128
 20
256.986
 11
22.9
 21
256.807
  0
LINE
  8
0
 10
22.9
 20
256.807
 11
22.6389
 21
256.712
  0
LINE
  8
0
 10
22.6389
 20
256.712
 11
22.3611
 21
256.712
  0
LINE
  8
0
 10
32.3611
 20
252.712
 11
32.1
 21
252.807
  0
LINE
  8
0
 10
32.1
 20
252.807
 11
31.8872
 21
252.986
  0
LINE
  8
0
 10
31.8872
 20
252.986
 11
31.7482
 21
253.226
  0
LINE
  8
0
 10
31.7482
 20
253.226
 11
31.7
 21
253.5
  0
LINE
  8
0
 10
31.7
 20
253.5
 11
31.7482
 21
253.774
  0
LINE
  8
0
 10
31.7482
 20
253.774
 11
31.8872
 21
254.014
  0
LINE
  8
0
 10
31.8872
 20
254.014
 11
32.1
 21
254.193
  0
LINE
  8
0
 10
32.1
 20
254.193
 11
32.3611
 21
254.288
  0
LINE
  8
0
 10
32.3611
 20
254.288
 11
32.6389
 21
254.288
  0
LINE
  8
0
 10
32.6389
 20
254.288
 11
32.9
 21
254.193
  0
LINE
  8
0
 10
32.9
 20
254.193
 11
33.1128
 21
254.014
  0
LINE
  8
0
 10
33.1128
 20
254.014
 11
33.2518
 21
253.774
  0
LINE
  8
0
 10
33.2518
 20
253.774
 11
33.3
 21
253.5
  0
LINE
  8
0
 10
33.3
 20
253.5
 11
33.2518
 21
253.226
  0
LINE
  8
0
 10
33.2518
 20
253.226
 11
33.1128
 21
252.986
  0
LINE
  8
0
 10
33.1128
 20
252.986
 11
32.9
 21
252.807
  0
LINE
  8
0
 10
32.9
 20
252.807
 11
32.6389
 21
252.712
  0
LINE
  8
0
 10
32.6389
 20
252.712
 11
32.3611
 21
252.712
  0
LINE
  8
0
 10
32.3611
 20
236.712
 11
32.1
 21
236.807
  0
LINE
  8
0
 10
32.1
 20
236.807
 11
31.8872
 21
236.986
  0
LINE
  8
0
 10
31.8872
 20
236.986
 11
31.7482
 21
237.226
  0
LINE
  8
0
 10
31.7482
 20
237.226
 11
31.7
 21
237.5
  0
LINE
  8
0
 10
31.7
 20
237.5
 11
31.7482
 21
237.774
  0
LINE
  8
0
 10
31.7482
 20
237.774
 11
31.8872
 21
238.014
  0
LINE
  8
0
 10
31.8872
 20
238.014
 11
32.1
 21
238.193
  0
LINE
  8
0
 10
32.1
 20
238.193
 11
32.3611
 21
238.288
  0
LINE
  8
0
 10
32.3611
 20
238.288
 11
32.6389
 21
238.288
  0
LINE
  8
0
 10
32.6389
 20
238.288
 11
32.9
 21
238.193
  0
LINE
  8
0
 10
32.9
 20
238.193
 11
33.1128
 21
238.014
  0
LINE
  8
0
 10
33.1128
 20
238.014
 11
33.2518
 21
237.774
  0
LINE
  8
0
 10
33.2518
 20
237.774
 11
33.3
 21
237.5
  0
LINE
  8
0
 10
33.3
 20
237.5
 11
33.2518
 21
237.226
  0
LINE
  8
0
 10
33.2518
 20
237.226
 11
33.1128
 21
236.986
  0
LINE
  8
0
 10
33.1128
 20
236.986
 11
32.9
 21
236.807
  0
LINE
  8
0
 10
32.9
 20
236.807
 11
32.6389
 21
236.712
  0
LINE
  8
0
 10
32.6389
 20
236.712
 11
32.3611
 21
236.712
  0
LINE
  8
0
 10
32.3611
 20
232.712
 11
32.1
 21
232.807
  0
LINE
  8
0
 10
32.1
 20
232.807
 11
31.8872
 21
232.986
  0
LINE
  8
0
 10
31.8872
 20
232.986
 11
31.7482
 21
233.226
  0
LINE
  8
0
 10
31.7482
 20
233.226
 11
31.7
 21
233.5
  0
LINE
  8
0
 10
31.7
 20
233.5
 11
31.7482
 21
233.774
  0
LINE
  8
0
 10
31.7482
 20
233.774
 11
31.8872
 21
234.014
  0
LINE
  8
0
 10
31.8872
 20
234.014
 11
32.1
 21
234.193
  0
LINE
  8
0
 10
32.1
 20
234.193
 11
32.3611
 21
234.288
  0
LINE
  8
0
 10
32.3611
 20
234.288
 11
32.6389
 21
234.288
  0
LINE
  8
0
 10
32.6389
 20
234.288
 11
32.9
 21
234.193
  0
LINE
  8
0
 10
32.9
 20
234.193
 11
33.1128
 21
234.014
  0
LINE
  8
0
 10
33.1128
 20
234.014
 11
33.2518
 21
233.774
  0
LINE
  8
0
 10
33.2518
 20
233.774
 11
33.3
 21
233.5
  0
LINE
  8
0
 10
33.3
 20
233.5
 11
33.2518
 21
233.226
  0
LINE
  8
0
 10
33.2518
 20
233.226
 11
33.1128
 21
232.986
  0
LINE
  8
0
 10
33.1128
 20
232.986
 11
32.9
 21
232.807
  0
LINE
  8
0
 10
32.9
 20
232.807
 11
32.6389
 21
232.712
  0
LINE
  8
0
 10
32.6389
 20
232.712
 11
32.3611
 21
232.712
  0
LINE
  8
0
 10
22.3611
 20
208.712
 11
22.1
 21
208.807
  0
LINE
  8
0
 10
22.1
 20
208.807
 11
21.8872
 21
208.986
  0
LINE
  8
0
 10
21.8872
 20
208.986
 11
21.7482
 21
209.226
  0
LINE
  8
0
 10
21.7482
 20
209.226
 11
21.7
 21
209.5
  0
LINE
  8
0
 10
21.7
 20
209.5
 11
21.7482
 21
209.774
  0
LINE
  8
0
 10
21.7482
 20
209.774
 11
21.8872
 21
210.014
  0
LINE
  8
0
 10
21.8872
 20
210.014
 11
22.1
 21
210.193
  0
LINE
  8
0
 10
22.1
 20
210.193
 11
22.3611
 21
210.288
  0
LINE
  8
0
 10
22.3611
 20
210.288
 11
22.6389
 21
210.288
  0
LINE
  8
0
 10
22.6389
 20
210.288
 11
22.9
 21
210.193
  0
LINE
  8
0
 10
22.9
 20
210.193
 11
23.1128
 21
210.014
  0
LINE
  8
0
 10
23.1128
 20
210.014
 11
23.2518
 21
209.774
  0
LINE
  8
0
 10
23.2518
 20
209.774
 11
23.3
 21
209.5
  0
LINE
  8
0
 10
23.3
 20
209.5
 11
23.2518
 21
209.226
  0
LINE
  8
0
 10
23.2518
 20
209.226
 11
23.1128
 21
208.986
  0
LINE
  8
0
 10
23.1128
 20
208.986
 11
22.9
 21
208.807
  0
LINE
  8
0
 10
22.9
 20
208.807
 11
22.6389
 21
208.712
  0
LINE
  8
0
 10
22.6389
 20
208.712
 11
22.3611
 21
208.712
  0
LINE
  8
0
 10
28.3611
 20
203.379
 11
28.1
 21
203.474
  0
LINE
  8
0
 10
28.1
 20
203.474
 11
27.8872
 21
203.652
  0
LINE
  8
0
 10
27.8872
 20
203.652
 11
27.7482
 21
203.893
  0
LINE
  8
0
 10
27.7482
 20
203.893
 11
27.7
 21
204.167
  0
LINE
  8
0
 10
27.7
 20
204.167
 11
27.7482
 21
204.44
  0
LINE
  8
0
 10
27.7482
 20
204.44
 11
27.8872
 21
204.681
  0
LINE
  8
0
 10
27.8872
 20
204.681
 11
28.1
 21
204.859
  0
LINE
  8
0
 10
28.1
 20
204.859
 11
28.3611
 21
204.954
  0
LINE
  8
0
 10
28.3611
 20
204.954
 11
28.6389
 21
204.954
  0
LINE
  8
0
 10
28.6389
 20
204.954
 11
28.9
 21
204.859
  0
LINE
  8
0
 10
28.9
 20
204.859
 11
29.1128
 21
204.681
  0
LINE
  8
0
 10
29.1128
 20
204.681
 11
29.2518
 21
204.44
  0
LINE
  8
0
 10
29.2518
 20
204.44
 11
29.3
 21
204.167
  0
LINE
  8
0
 10
29.3
 20
204.167
 11
29.2518
 21
203.893
  0
LINE
  8
0
 10
29.2518
 20
203.893
 11
29.1128
 21
203.652
  0
LINE
  8
0
 10
29.1128
 20
203.652
 11
28.9
 21
203.474
  0
LINE
  8
0
 10
28.9
 20
203.474
 11
28.6389
 21
203.379
  0
LINE
  8
0
 10
28.6389
 20
203.379
 11
28.3611
 21
203.379
  0
LINE
  8
0
 10
24.3611
 20
198.045
 11
24.1
 21
198.141
  0
LINE
  8
0
 10
24.1
 20
198.141
 11
23.8872
 21
198.319
  0
LINE
  8
0
 10
23.8872
 20
198.319
 11
23.7482
 21
198.56
  0
LINE
  8
0
 10
23.7482
 20
198.56
 11
23.7
 21
198.833
  0
LINE
  8
0
 10
23.7
 20
198.833
 11
23.7482
 21
199.107
  0
LINE
  8
0
 10
23.7482
 20
199.107
 11
23.8872
 21
199.348
  0
LINE
  8
0
 10
23.8872
 20
199.348
 11
24.1
 21
199.526
  0
LINE
  8
0
 10
24.1
 20
199.526
 11
24.3611
 21
199.621
  0
LINE
  8
0
 10
24.3611
 20
199.621
 11
24.6389
 21
199.621
  0
LINE
  8
0
 10
24.6389
 20
199.621
 11
24.9
 21
199.526
  0
LINE
  8
0
 10
24.9
 20
199.526
 11
25.1128
 21
199.348
  0
LINE
  8
0
 10
25.1128
 20
199.348
 11
25.2518
 21
199.107
  0
LINE
  8
0
 10
25.2518
 20
199.107
 11
25.3
 21
198.833
  0
LINE
  8
0
 10
25.3
 20
198.833
 11
25.2518
 21
198.56
  0
LINE
  8
0
 10
25.2518
 20
198.56
 11
25.1128
 21
198.319
  0
LINE
  8
0
 10
25.1128
 20
198.319
 11
24.9
 21
198.141
  0
LINE
  8
0
 10
24.9
 20
198.141
 11
24.6389
 21
198.045
  0
LINE
  8
0
 10
24.6389
 20
198.045
 11
24.3611
 21
198.045
  0
LINE
  8
0
 10
22.3611
 20
192.712
 11
22.1
 21
192.807
  0
LINE
  8
0
 10
22.1
 20
192.807
 11
21.8872
 21
192.986
  0
LINE
  8
0
 10
21.8872
 20
192.986
 11
21.7482
 21
193.226
  0
LINE
  8
0
 10
21.7482
 20
193.226
 11
21.7
 21
193.5
  0
LINE
  8
0
 10
21.7
 20
193.5
 11
21.7482
 21
193.774
  0
LINE
  8
0
 10
21.7482
 20
193.774
 11
21.8872
 21
194.014
  0
LINE
  8
0
 10
21.8872
 20
194.014
 11
22.1
 21
194.193
  0
LINE
  8
0
 10
22.1
 20
194.193
 11
22.3611
 21
194.288
  0
LINE
  8
0
 10
22.3611
 20
194.288
 11
22.6389
 21
194.288
  0
LINE
  8
0
 10
22.6389
 20
194.288
 11
22.9
 21
194.193
  0
LINE
  8
0
 10
22.9
 20
194.193
 11
23.1128
 21
194.014
  0
LINE
  8
0
 10
23.1128
 20
194.014
 11
23.2518
 21
193.774
  0
LINE
  8
0
 10
23.2518
 20
193.774
 11
23.3
 21
193.5
  0
LINE
  8
0
 10
23.3
 20
193.5
 11
23.2518
 21
193.226
  0
LINE
  8
0
 10
23.2518
 20
193.226
 11
23.1128
 21
192.986
  0
LINE
  8
0
 10
23.1128
 20
192.986
 11
22.9
 21
192.807
  0
LINE
  8
0
 10
22.9
 20
192.807
 11
22.6389
 21
192.712
  0
LINE
  8
0
 10
22.6389
 20
192.712
 11
22.3611
 21
192.712
  0
LINE
  8
0
 10
32.3611
 20
172.712
 11
32.1
 21
172.807
  0
LINE
  8
0
 10
32.1
 20
172.807
 11
31.8872
 21
172.986
  0
LINE
  8
0
 10
31.8872
 20
172.986
 11
31.7482
 21
173.226
  0
LINE
  8
0
 10
31.7482
 20
173.226
 11
31.7
 21
173.5
  0
LINE
  8
0
 10
31.7
 20
173.5
 11
31.7482
 21
173.774
  0
LINE
  8
0
 10
31.7482
 20
173.774
 11
31.8872
 21
174.014
  0
LINE
  8
0
 10
31.8872
 20
174.014
 11
32.1
 21
174.193
  0
LINE
  8
0
 10
32.1
 20
174.193
 11
32.3611
 21
174.288
  0
LINE
  8
0
 10
32.3611
 20
174.288
 11
32.6389
 21
174.288
  0
LINE
  8
0
 10
32.6389
 20
174.288
 11
32.9
 21
174.193
  0
LINE
  8
0
 10
32.9
 20
174.193
 11
33.1128
 21
174.014
  0
LINE
  8
0
 10
33.1128
 20
174.014
 11
33.2518
 21
173.774
  0
LINE
  8
0
 10
33.2518
 20
173.774
 11
33.3
 21
173.5
  0
LINE
  8
0
 10
33.3
 20
173.5
 11
33.2518
 21
173.226
  0
LINE
  8
0
 10
33.2518
 20
173.226
 11
33.1128
 21
172.986
  0
LINE
  8
0
 10
33.1128
 20
172.986
 11
32.9
 21
172.807
  0
LINE
  8
0
 10
32.9
 20
172.807
 11
32.6389
 21
172.712
  0
LINE
  8
0
 10
32.6389
 20
172.712
 11
32.3611
 21
172.712
  0
LINE
  8
0
 10
28.3611
 20
168.712
 11
28.1
 21
168.807
  0
LINE
  8
0
 10
28.1
 20
168.807
 11
27.8872
 21
168.986
  0
LINE
  8
0
 10
27.8872
 20
168.986
 11
27.7482
 21
169.226
  0
LINE
  8
0
 10
27.7482
 20
169.226
 11
27.7
 21
169.5
  0
LINE
  8
0
 10
27.7
 20
169.5
 11
27.7482
 21
169.774
  0
LINE
  8
0
 10
27.7482
 20
169.774
 11
27.8872
 21
170.014
  0
LINE
  8
0
 10
27.8872
 20
170.014
 11
28.1
 21
170.193
  0
LINE
  8
0
 10
28.1
 20
170.193
 11
28.3611
 21
170.288
  0
LINE
  8
0
 10
28.3611
 20
170.288
 11
28.6389
 21
170.288
  0
LINE
  8
0
 10
28.6389
 20
170.288
 11
28.9
 21
170.193
  0
LINE
  8
0
 10
28.9
 20
170.193
 11
29.1128
 21
170.014
  0
LINE
  8
0
 10
29.1128
 20
170.014
 11
29.2518
 21
169.774
  0
LINE
  8
0
 10
29.2518
 20
169.774
 11
29.3
 21
169.5
  0
LINE
  8
0
 10
29.3
 20
169.5
 11
29.2518
 21
169.226
  0
LINE
  8
0
 10
29.2518
 20
169.226
 11
29.1128
 21
168.986
  0
LINE
  8
0
 10
29.1128
 20
168.986
 11
28.9
 21
168.807
  0
LINE
  8
0
 10
28.9
 20
168.807
 11
28.6389
 21
168.712
  0
LINE
  8
0
 10
28.6389
 20
168.712
 11
28.3611
 21
168.712
  0
LINE
  8
0
 10
24.3611
 20
164.712
 11
24.1
 21
164.807
  0
LINE
  8
0
 10
24.1
 20
164.807
 11
23.8872
 21
164.986
  0
LINE
  8
0
 10
23.8872
 20
164.986
 11
23.7482
 21
165.226
  0
LINE
  8
0
 10
23.7482
 20
165.226
 11
23.7
 21
165.5
  0
LINE
  8
0
 10
23.7
 20
165.5
 11
23.7482
 21
165.774
  0
LINE
  8
0
 10
23.7482
 20
165.774
 11
23.8872
 21
166.014
  0
LINE
  8
0
 10
23.8872
 20
166.014
 11
24.1
 21
166.193
  0
LINE
  8
0
 10
24.1
 20
166.193
 11
24.3611
 21
166.288
  0
LINE
  8
0
 10
24.3611
 20
166.288
 11
24.6389
 21
166.288
  0
LINE
  8
0
 10
24.6389
 20
166.288
 11
24.9
 21
166.193
  0
LINE
  8
0
 10
24.9
 20
166.193
 11
25.1128
 21
166.014
  0
LINE
  8
0
 10
25.1128
 20
166.014
 11
25.2518
 21
165.774
  0
LINE
  8
0
 10
25.2518
 20
165.774
 11
25.3
 21
165.5
  0
LINE
  8
0
 10
25.3
 20
165.5
 11
25.2518
 21
165.226
  0
LINE
  8
0
 10
25.2518
 20
165.226
 11
25.1128
 21
164.986
  0
LINE
  8
0
 10
25.1128
 20
164.986
 11
24.9
 21
164.807
  0
LINE
  8
0
 10
24.9
 20
164.807
 11
24.6389
 21
164.712
  0
LINE
  8
0
 10
24.6389
 20
164.712
 11
24.3611
 21
164.712
  0
LINE
  8
0
 10
22.3611
 20
160.712
 11
22.1
 21
160.807
  0
LINE
  8
0
 10
22.1
 20
160.807
 11
21.8872
 21
160.986
  0
LINE
  8
0
 10
21.8872
 20
160.986
 11
21.7482
 21
161.226
  0
LINE
  8
0
 10
21.7482
 20
161.226
 11
21.7
 21
161.5
  0
LINE
  8
0
 10
21.7
 20
161.5
 11
21.7482
 21
161.774
  0
LINE
  8
0
 10
21.7482
 20
161.774
 11
21.8872
 21
162.014
  0
LINE
  8
0
 10
21.8872
 20
162.014
 11
22.1
 21
162.193
  0
LINE
  8
0
 10
22.1
 20
162.193
 11
22.3611
 21
162.288
  0
LINE
  8
0
 10
22.3611
 20
162.288
 11
22.6389
 21
162.288
  0
LINE
  8
0
 10
22.6389
 20
162.288
 11
22.9
 21
162.193
  0
LINE
  8
0
 10
22.9
 20
162.193
 11
23.1128
 21
162.014
  0
LINE
  8
0
 10
23.1128
 20
162.014
 11
23.2518
 21
161.774
  0
LINE
  8
0
 10
23.2518
 20
161.774
 11
23.3
 21
161.5
  0
LINE
  8
0
 10
23.3
 20
161.5
 11
23.2518
 21
161.226
  0
LINE
  8
0
 10
23.2518
 20
161.226
 11
23.1128
 21
160.986
  0
LINE
  8
0
 10
23.1128
 20
160.986
 11
22.9
 21
160.807
  0
LINE
  8
0
 10
22.9
 20
160.807
 11
22.6389
 21
160.712
  0
LINE
  8
0
 10
22.6389
 20
160.712
 11
22.3611
 21
160.712
  0
LINE
  8
0
 10
32.3611
 20
156.712
 11
32.1
 21
156.807
  0
LINE
  8
0
 10
32.1
 20
156.807
 11
31.8872
 21
156.986
  0
LINE
  8
0
 10
31.8872
 20
156.986
 11
31.7482
 21
157.226
  0
LINE
  8
0
 10
31.7482
 20
157.226
 11
31.7
 21
157.5
  0
LINE
  8
0
 10
31.7
 20
157.5
 11
31.7482
 21
157.774
  0
LINE
  8
0
 10
31.7482
 20
157.774
 11
31.8872
 21
158.014
  0
LINE
  8
0
 10
31.8872
 20
158.014
 11
32.1
 21
158.193
  0
LINE
  8
0
 10
32.1
 20
158.193
 11
32.3611
 21
158.288
  0
LINE
  8
0
 10
32.3611
 20
158.288
 11
32.6389
 21
158.288
  0
LINE
  8
0
 10
32.6389
 20
158.288
 11
32.9
 21
158.193
  0
LINE
  8
0
 10
32.9
 20
158.193
 11
33.1128
 21
158.014
  0
LINE
  8
0
 10
33.1128
 20
158.014
 11
33.2518
 21
157.774
  0
LINE
  8
0
 10
33.2518
 20
157.774
 11
33.3
 21
157.5
  0
LINE
  8
0
 10
33.3
 20
157.5
 11
33.2518
 21
157.226
  0
LINE
  8
0
 10
33.2518
 20
157.226
 11
33.1128
 21
156.986
  0
LINE
  8
0
 10
33.1128
 20
156.986
 11
32.9
 21
156.807
  0
LINE
  8
0
 10
32.9
 20
156.807
 11
32.6389
 21
156.712
  0
LINE
  8
0
 10
32.6389
 20
156.712
 11
32.3611
 21
156.712
  0
LINE
  8
0
 10
32.3611
 20
152.712
 11
32.1
 21
152.807
  0
LINE
  8
0
 10
32.1
 20
152.807
 11
31.8872
 21
152.986
  0
LINE
  8
0
 10
31.8872
 20
152.986
 11
31.7482
 21
153.226
  0
LINE
  8
0
 10
31.7482
 20
153.226
 11
31.7
 21
153.5
  0
LINE
  8
0
 10
31.7
 20
153.5
 11
31.7482
 21
153.774
  0
LINE
  8
0
 10
31.7482
 20
153.774
 11
31.8872
 21
154.014
  0
LINE
  8
0
 10
31.8872
 20
154.014
 11
32.1
 21
154.193
  0
LINE
  8
0
 10
32.1
 20
154.193
 11
32.3611
 21
154.288
  0
LINE
  8
0
 10
32.3611
 20
154.288
 11
32.6389
 21
154.288
  0
LINE
  8
0
 10
32.6389
 20
154.288
 11
32.9
 21
154.193
  0
LINE
  8
0
 10
32.9
 20
154.193
 11
33.1128
 21
154.014
  0
LINE
  8
0
 10
33.1128
 20
154.014
 11
33.2518
 21
153.774
  0
LINE
  8
0
 10
33.2518
 20
153.774
 11
33.3
 21
153.5
  0
LINE
  8
0
 10
33.3
 20
153.5
 11
33.2518
 21
153.226
  0
LINE
  8
0
 10
33.2518
 20
153.226
 11
33.1128
 21
152.986
  0
LINE
  8
0
 10
33.1128
 20
152.986
 11
32.9
 21
152.807
  0
LINE
  8
0
 10
32.9
 20
152.807
 11
32.6389
 21
152.712
  0
LINE
  8
0
 10
32.6389
 20
152.712
 11
32.3611
 21
152.712
  0
LINE
  8
0
 10
28.3611
 20
140.712
 11
28.1
 21
140.807
  0
LINE
  8
0
 10
28.1
 20
140.807
 11
27.8872
 21
140.986
  0
LINE
  8
0
 10
27.8872
 20
140.986
 11
27.7482
 21
141.226
  0
LINE
  8
0
 10
27.7482
 20
141.226
 11
27.7
 21
141.5
  0
LINE
  8
0
 10
27.7
 20
141.5
 11
27.7482
 21
141.774
  0
LINE
  8
0
 10
27.7482
 20
141.774
 11
27.8872
 21
142.014
  0
LINE
  8
0
 10
27.8872
 20
142.014
 11
28.1
 21
142.193
  0
LINE
  8
0
 10
28.1
 20
142.193
 11
28.3611
 21
142.288
  0
LINE
  8
0
 10
28.3611
 20
142.288
 11
28.6389
 21
142.288
  0
LINE
  8
0
 10
28.6389
 20
142.288
 11
28.9
 21
142.193
  0
LINE
  8
0
 10
28.9
 20
142.193
 11
29.1128
 21
142.014
  0
LINE
  8
0
 10
29.1128
 20
142.014
 11
29.2518
 21
141.774
  0
LINE
  8
0
 10
29.2518
 20
141.774
 11
29.3
 21
141.5
  0
LINE
  8
0
 10
29.3
 20
141.5
 11
29.2518
 21
141.226
  0
LINE
  8
0
 10
29.2518
 20
141.226
 11
29.1128
 21
140.986
  0
LINE
  8
0
 10
29.1128
 20
140.986
 11
28.9
 21
140.807
  0
LINE
  8
0
 10
28.9
 20
140.807
 11
28.6389
 21
140.712
  0
LINE
  8
0
 10
28.6389
 20
140.712
 11
28.3611
 21
140.712
  0
LINE
  8
0
 10
24.3611
 20
128.712
 11
24.1
 21
128.807
  0
LINE
  8
0
 10
24.1
 20
128.807
 11
23.8872
 21
128.986
  0
LINE
  8
0
 10
23.8872
 20
128.986
 11
23.7482
 21
129.226
  0
LINE
  8
0
 10
23.7482
 20
129.226
 11
23.7
 21
129.5
  0
LINE
  8
0
 10
23.7
 20
129.5
 11
23.7482
 21
129.774
  0
LINE
  8
0
 10
23.7482
 20
129.774
 11
23.8872
 21
130.014
  0
LINE
  8
0
 10
23.8872
 20
130.014
 11
24.1
 21
130.193
  0
LINE
  8
0
 10
24.1
 20
130.193
 11
24.3611
 21
130.288
  0
LINE
  8
0
 10
24.3611
 20
130.288
 11
24.6389
 21
130.288
  0
LINE
  8
0
 10
24.6389
 20
130.288
 11
24.9
 21
130.193
  0
LINE
  8
0
 10
24.9
 20
130.193
 11
25.1128
 21
130.014
  0
LINE
  8
0
 10
25.1128
 20
130.014
 11
25.2518
 21
129.774
  0
LINE
  8
0
 10
25.2518
 20
129.774
 11
25.3
 21
129.5
  0
LINE
  8
0
 10
25.3
 20
129.5
 11
25.2518
 21
129.226
  0
LINE
  8
0
 10
25.2518
 20
129.226
 11
25.1128
 21
128.986
  0
LINE
  8
0
 10
25.1128
 20
128.986
 11
24.9
 21
128.807
  0
LINE
  8
0
 10
24.9
 20
128.807
 11
24.6389
 21
128.712
  0
LINE
  8
0
 10
24.6389
 20
128.712
 11
24.3611
 21
128.712
  0
LINE
  8
0
 10
24.3611
 20
124.712
 11
24.1
 21
124.807
  0
LINE
  8
0
 10
24.1
 20
124.807
 11
23.8872
 21
124.986
  0
LINE
  8
0
 10
23.8872
 20
124.986
 11
23.7482
 21
125.226
  0
LINE
  8
0
 10
23.7482
 20
125.226
 11
23.7
 21
125.5
  0
LINE
  8
0
 10
23.7
 20
125.5
 11
23.7482
 21
125.774
  0
LINE
  8
0
 10
23.7482
 20
125.774
 11
23.8872
 21
126.014
  0
LINE
  8
0
 10
23.8872
 20
126.014
 11
24.1
 21
126.193
  0
LINE
  8
0
 10
24.1
 20
126.193
 11
24.3611
 21
126.288
  0
LINE
  8
0
 10
24.3611
 20
126.288
 11
24.6389
 21
126.288
  0
LINE
  8
0
 10
24.6389
 20
126.288
 11
24.9
 21
126.193
  0
LINE
  8
0
 10
24.9
 20
126.193
 11
25.1128
 21
126.014
  0
LINE
  8
0
 10
25.1128
 20
126.014
 11
25.2518
 21
125.774
  0
LINE
  8
0
 10
25.2518
 20
125.774
 11
25.3
 21
125.5
  0
LINE
  8
0
 10
25.3
 20
125.5
 11
25.2518
 21
125.226
  0
LINE
  8
0
 10
25.2518
 20
125.226
 11
25.1128
 21
124.986
  0
LINE
  8
0
 10
25.1128
 20
124.986
 11
24.9
 21
124.807
  0
LINE
  8
0
 10
24.9
 20
124.807
 11
24.6389
 21
124.712
  0
LINE
  8
0
 10
24.6389
 20
124.712
 11
24.3611
 21
124.712
  0
LINE
  8
0
 10
22.3611
 20
112.712
 11
22.1
 21
112.807
  0
LINE
  8
0
 10
22.1
 20
112.807
 11
21.8872
 21
112.986
  0
LINE
  8
0
 10
21.8872
 20
112.986
 11
21.7482
 21
113.226
  0
LINE
  8
0
 10
21.7482
 20
113.226
 11
21.7
 21
113.5
  0
LINE
  8
0
 10
21.7
 20
113.5
 11
21.7482
 21
113.774
  0
LINE
  8
0
 10
21.7482
 20
113.774
 11
21.8872
 21
114.014
  0
LINE
  8
0
 10
21.8872
 20
114.014
 11
22.1
 21
114.193
  0
LINE
  8
0
 10
22.1
 20
114.193
 11
22.3611
 21
114.288
  0
LINE
  8
0
 10
22.3611
 20
114.288
 11
22.6389
 21
114.288
  0
LINE
  8
0
 10
22.6389
 20
114.288
 11
22.9
 21
114.193
  0
LINE
  8
0
 10
22.9
 20
114.193
 11
23.1128
 21
114.014
  0
LINE
  8
0
 10
23.1128
 20
114.014
 11
23.2518
 21
113.774
  0
LINE
  8
0
 10
23.2518
 20
113.774
 11
23.3
 21
113.5
  0
LINE
  8
0
 10
23.3
 20
113.5
 11
23.2518
 21
113.226
  0
LINE
  8
0
 10
23.2518
 20
113.226
 11
23.1128
 21
112.986
  0
LINE
  8
0
 10
23.1128
 20
112.986
 11
22.9
 21
112.807
  0
LINE
  8
0
 10
22.9
 20
112.807
 11
22.6389
 21
112.712
  0
LINE
  8
0
 10
22.6389
 20
112.712
 11
22.3611
 21
112.712
  0
LINE
  8
0
 10
32.3611
 20
108.712
 11
32.1
 21
108.807
  0
LINE
  8
0
 10
32.1
 20
108.807
 11
31.8872
 21
108.986
  0
LINE
  8
0
 10
31.8872
 20
108.986
 11
31.7482
 21
109.226
  0
LINE
  8
0
 10
31.7482
 20
109.226
 11
31.7
 21
109.5
  0
LINE
  8
0
 10
31.7
 20
109.5
 11
31.7482
 21
109.774
  0
LINE
  8
0
 10
31.7482
 20
109.774
 11
31.8872
 21
110.014
  0
LINE
  8
0
 10
31.8872
 20
110.014
 11
32.1
 21
110.193
  0
LINE
  8
0
 10
32.1
 20
110.193
 11
32.3611
 21
110.288
  0
LINE
  8
0
 10
32.3611
 20
110.288
 11
32.6389
 21
110.288
  0
LINE
  8
0
 10
32.6389
 20
110.288
 11
32.9
 21
110.193
  0
LINE
  8
0
 10
32.9
 20
110.193
 11
33.1128
 21
110.014
  0
LINE
  8
0
 10
33.1128
 20
110.014
 11
33.2518
 21
109.774
  0
LINE
  8
0
 10
33.2518
 20
109.774
 11
33.3
 21
109.5
  0
LINE
  8
0
 10
33.3
 20
109.5
 11
33.2518
 21
109.226
  0
LINE
  8
0
 10
33.2518
 20
109.226
 11
33.1128
 21
108.986
  0
LINE
  8
0
 10
33.1128
 20
108.986
 11
32.9
 21
108.807
  0
LINE
  8
0
 10
32.9
 20
108.807
 11
32.6389
 21
108.712
  0
LINE
  8
0
 10
32.6389
 20
108.712
 11
32.3611
 21
108.712
  0
LINE
  8
0
 10
28.3611
 20
104.712
 11
28.1
 21
104.807
  0
LINE
  8
0
 10
28.1
 20
104.807
 11
27.8872
 21
104.986
  0
LINE
  8
0
 10
27.8872
 20
104.986
 11
27.7482
 21
105.226
  0
LINE
  8
0
 10
27.7482
 20
105.226
 11
27.7
 21
105.5
  0
LINE
  8
0
 10
27.7
 20
105.5
 11
27.7482
 21
105.774
  0
LINE
  8
0
 10
27.7482
 20
105.774
 11
27.8872
 21
106.014
  0
LINE
  8
0
 10
27.8872
 20
106.014
 11
28.1
 21
106.193
  0
LINE
  8
0
 10
28.1
 20
106.193
 11
28.3611
 21
106.288
  0
LINE
  8
0
 10
28.3611
 20
106.288
 11
28.6389
 21
106.288
  0
LINE
  8
0
 10
28.6389
 20
106.288
 11
28.9
 21
106.193
  0
LINE
  8
0
 10
28.9
 20
106.193
 11
29.1128
 21
106.014
  0
LINE
  8
0
 10
29.1128
 20
106.014
 11
29.2518
 21
105.774
  0
LINE
  8
0
 10
29.2518
 20
105.774
 11
29.3
 21
105.5
  0
LINE
  8
0
 10
29.3
 20
105.5
 11
29.2518
 21
105.226
  0
LINE
  8
0
 10
29.2518
 20
105.226
 11
29.1128
 21
104.986
  0
LINE
  8
0
 10
29.1128
 20
104.986
 11
28.9
 21
104.807
  0
LINE
  8
0
 10
28.9
 20
104.807
 11
28.6389
 21
104.712
  0
LINE
  8
0
 10
28.6389
 20
104.712
 11
28.3611
 21
104.712
  0
LINE
  8
0
 10
24.3611
 20
100.712
 11
24.1
 21
100.807
  0
LINE
  8
0
 10
24.1
 20
100.807
 11
23.8872
 21
100.986
  0
LINE
  8
0
 10
23.8872
 20
100.986
 11
23.7482
 21
101.226
  0
LINE
  8
0
 10
23.7482
 20
101.226
 11
23.7
 21
101.5
  0
LINE
  8
0
 10
23.7
 20
101.5
 11
23.7482
 21
101.774
  0
LINE
  8
0
 10
23.7482
 20
101.774
 11
23.8872
 21
102.014
  0
LINE
  8
0
 10
23.8872
 20
102.014
 11
24.1
 21
102.193
  0
LINE
  8
0
 10
24.1
 20
102.193
 11
24.3611
 21
102.288
  0
LINE
  8
0
 10
24.3611
 20
102.288
 11
24.6389
 21
102.288
  0
LINE
  8
0
 10
24.6389
 20
102.288
 11
24.9
 21
102.193
  0
LINE
  8
0
 10
24.9
 20
102.193
 11
25.1128
 21
102.014
  0
LINE
  8
0
 10
25.1128
 20
102.014
 11
25.2518
 21
101.774
  0
LINE
  8
0
 10
25.2518
 20
101.774
 11
25.3
 21
101.5
  0
LINE
  8
0
 10
25.3
 20
101.5
 11
25.2518
 21
101.226
  0
LINE
  8
0
 10
25.2518
 20
101.226
 11
25.1128
 21
100.986
  0
LINE
  8
0
 10
25.1128
 20
100.986
 11
24.9
 21
100.807
  0
LINE
  8
0
 10
24.9
 20
100.807
 11
24.6389
 21
100.712
  0
LINE
  8
0
 10
24.6389
 20
100.712
 11
24.3611
 21
100.712
  0
LINE
  8
0
 10
22.3611
 20
96.7121
 11
22.1
 21
96.8072
  0
LINE
  8
0
 10
22.1
 20
96.8072
 11
21.8872
 21
96.9858
  0
LINE
  8
0
 10
21.8872
 20
96.9858
 11
21.7482
 21
97.2264
  0
LINE
  8
0
 10
21.7482
 20
97.2264
 11
21.7
 21
97.5
  0
LINE
  8
0
 10
21.7
 20
97.5
 11
21.7482
 21
97.7736
  0
LINE
  8
0
 10
21.7482
 20
97.7736
 11
21.8872
 21
98.0142
  0
LINE
  8
0
 10
21.8872
 20
98.0142
 11
22.1
 21
98.1928
  0
LINE
  8
0
 10
22.1
 20
98.1928
 11
22.3611
 21
98.2878
  0
LINE
  8
0
 10
22.3611
 20
98.2878
 11
22.6389
 21
98.2878
  0
LINE
  8
0
 10
22.6389
 20
98.2878
 11
22.9
 21
98.1928
  0
LINE
  8
0
 10
22.9
 20
98.1928
 11
23.1128
 21
98.0142
  0
LINE
  8
0
 10
23.1128
 20
98.0142
 11
23.2518
 21
97.7736
  0
LINE
  8
0
 10
23.2518
 20
97.7736
 11
23.3
 21
97.5
  0
LINE
  8
0
 10
23.3
 20
97.5
 11
23.2518
 21
97.2264
  0
LINE
  8
0
 10
23.2518
 20
97.2264
 11
23.1128
 21
96.9858
  0
LINE
  8
0
 10
23.1128
 20
96.9858
 11
22.9
 21
96.8072
  0
LINE
  8
0
 10
22.9
 20
96.8072
 11
22.6389
 21
96.7121
  0
LINE
  8
0
 10
22.6389
 20
96.7121
 11
22.3611
 21
96.7121
  0
LINE
  8
0
 10
32.3611
 20
92.7121
 11
32.1
 21
92.8072
  0
LINE
  8
0
 10
32.1
 20
92.8072
 11
31.8872
 21
92.9858
  0
LINE
  8
0
 10
31.8872
 20
92.9858
 11
31.7482
 21
93.2264
  0
LINE
  8
0
 10
31.7482
 20
93.2264
 11
31.7
 21
93.5
  0
LINE
  8
0
 10
31.7
 20
93.5
 11
31.7482
 21
93.7736
  0
LINE
  8
0
 10
31.7482
 20
93.7736
 11
31.8872
 21
94.0142
  0
LINE
  8
0
 10
31.8872
 20
94.0142
 11
32.1
 21
94.1928
  0
LINE
  8
0
 10
32.1
 20
94.1928
 11
32.3611
 21
94.2878
  0
LINE
  8
0
 10
32.3611
 20
94.2878
 11
32.6389
 21
94.2878
  0
LINE
  8
0
 10
32.6389
 20
94.2878
 11
32.9
 21
94.1928
  0
LINE
  8
0
 10
32.9
 20
94.1928
 11
33.1128
 21
94.0142
  0
LINE
  8
0
 10
33.1128
 20
94.0142
 11
33.2518
 21
93.7736
  0
LINE
  8
0
 10
33.2518
 20
93.7736
 11
33.3
 21
93.5
  0
LINE
  8
0
 10
33.3
 20
93.5
 11
33.2518
 21
93.2264
  0
LINE
  8
0
 10
33.2518
 20
93.2264
 11
33.1128
 21
92.9858
  0
LINE
  8
0
 10
33.1128
 20
92.9858
 11
32.9
 21
92.8072
  0
LINE
  8
0
 10
32.9
 20
92.8072
 11
32.6389
 21
92.7121
  0
LINE
  8
0
 10
32.6389
 20
92.7121
 11
32.3611
 21
92.7121
  0
LINE
  8
0
 10
32.3611
 20
88.7121
 11
32.1
 21
88.8072
  0
LINE
  8
0
 10
32.1
 20
88.8072
 11
31.8872
 21
88.9858
  0
LINE
  8
0
 10
31.8872
 20
88.9858
 11
31.7482
 21
89.2264
  0
LINE
  8
0
 10
31.7482
 20
89.2264
 11
31.7
 21
89.5
  0
LINE
  8
0
 10
31.7
 20
89.5
 11
31.7482
 21
89.7736
  0
LINE
  8
0
 10
31.7482
 20
89.7736
 11
31.8872
 21
90.0142
  0
LINE
  8
0
 10
31.8872
 20
90.0142
 11
32.1
 21
90.1928
  0
LINE
  8
0
 10
32.1
 20
90.1928
 11
32.3611
 21
90.2878
  0
LINE
  8
0
 10
32.3611
 20
90.2878
 11
32.6389
 21
90.2878
  0
LINE
  8
0
 10
32.6389
 20
90.2878
 11
32.9
 21
90.1928
  0
LINE
  8
0
 10
32.9
 20
90.1928
 11
33.1128
 21
90.0142
  0
LINE
  8
0
 10
33.1128
 20
90.0142
 11
33.2518
 21
89.7736
  0
LINE
  8
0
 10
33.2518
 20
89.7736
 11
33.3
 21
89.5
  0
LINE
  8
0
 10
33.3
 20
89.5
 11
33.2518
 21
89.2264
  0
LINE
  8
0
 10
33.2518
 20
89.2264
 11
33.1128
 21
88.9858
  0
LINE
  8
0
 10
33.1128
 20
88.9858
 11
32.9
 21
88.8072
  0
LINE
  8
0
 10
32.9
 20
88.8072
 11
32.6389
 21
88.7121
  0
LINE
  8
0
 10
32.6389
 20
88.7121
 11
32.3611
 21
88.7121
  0
LINE
  8
0
 10
24.3611
 20
64.7121
 11
24.1
 21
64.8072
  0
LINE
  8
0
 10
24.1
 20
64.8072
 11
23.8872
 21
64.9858
  0
LINE
  8
0
 10
23.8872
 20
64.9858
 11
23.7482
 21
65.2264
  0
LINE
  8
0
 10
23.7482
 20
65.2264
 11
23.7
 21
65.5
  0
LINE
  8
0
 10
23.7
 20
65.5
 11
23.7482
 21
65.7736
  0
LINE
  8
0
 10
23.7482
 20
65.7736
 11
23.8872
 21
66.0142
  0
LINE
  8
0
 10
23.8872
 20
66.0142
 11
24.1
 21
66.1928
  0
LINE
  8
0
 10
24.1
 20
66.1928
 11
24.3611
 21
66.2878
  0
LINE
  8
0
 10
24.3611
 20
66.2878
 11
24.6389
 21
66.2878
  0
LINE
  8
0
 10
24.6389
 20
66.2878
 11
24.9
 21
66.1928
  0
LINE
  8
0
 10
24.9
 20
66.1928
 11
25.1128
 21
66.0142
  0
LINE
  8
0
 10
25.1128
 20
66.0142
 11
25.2518
 21
65.7736
  0
LINE
  8
0
 10
25.2518
 20
65.7736
 11
25.3
 21
65.5
  0
LINE
  8
0
 10
25.3
 20
65.5
 11
25.2518
 21
65.2264
  0
LINE
  8
0
 10
25.2518
 20
65.2264
 11
25.1128
 21
64.9858
  0
LINE
  8
0
 10
25.1128
 20
64.9858
 11
24.9
 21
64.8072
  0
LINE
  8
0
 10
24.9
 20
64.8072
 11
24.6389
 21
64.7121
  0
LINE
  8
0
 10
24.6389
 20
64.7121
 11
24.3611
 21
64.7121
  0
LINE
  8
0
 10
24.3611
 20
60.7121
 11
24.1
 21
60.8072
  0
LINE
  8
0
 10
24.1
 20
60.8072
 11
23.8872
 21
60.9858
  0
LINE
  8
0
 10
23.8872
 20
60.9858
 11
23.7482
 21
61.2264
  0
LINE
  8
0
 10
23.7482
 20
61.2264
 11
23.7
 21
61.5
  0
LINE
  8
0
 10
23.7
 20
61.5
 11
23.7482
 21
61.7736
  0
LINE
  8
0
 10
23.7482
 20
61.7736
 11
23.8872
 21
62.0142
  0
LINE
  8
0
 10
23.8872
 20
62.0142
 11
24.1
 21
62.1928
  0
LINE
  8
0
 10
24.1
 20
62.1928
 11
24.3611
 21
62.2878
  0
LINE
  8
0
 10
24.3611
 20
62.2878
 11
24.6389
 21
62.2878
  0
LINE
  8
0
 10
24.6389
 20
62.2878
 11
24.9
 21
62.1928
  0
LINE
  8
0
 10
24.9
 20
62.1928
 11
25.1128
 21
62.0142
  0
LINE
  8
0
 10
25.1128
 20
62.0142
 11
25.2518
 21
61.7736
  0
LINE
  8
0
 10
25.2518
 20
61.7736
 11
25.3
 21
61.5
  0
LINE
  8
0
 10
25.3
 20
61.5
 11
25.2518
 21
61.2264
  0
LINE
  8
0
 10
25.2518
 20
61.2264
 11
25.1128
 21
60.9858
  0
LINE
  8
0
 10
25.1128
 20
60.9858
 11
24.9
 21
60.8072
  0
LINE
  8
0
 10
24.9
 20
60.8072
 11
24.6389
 21
60.7121
  0
LINE
  8
0
 10
24.6389
 20
60.7121
 11
24.3611
 21
60.7121
  0
LINE
  8
0
 10
22.3611
 20
48.7121
 11
22.1
 21
48.8072
  0
LINE
  8
0
 10
22.1
 20
48.8072
 11
21.8872
 21
48.9858
  0
LINE
  8
0
 10
21.8872
 20
48.9858
 11
21.7482
 21
49.2264
  0
LINE
  8
0
 10
21.7482
 20
49.2264
 11
21.7
 21
49.5
  0
LINE
  8
0
 10
21.7
 20
49.5
 11
21.7482
 21
49.7736
  0
LINE
  8
0
 10
21.7482
 20
49.7736
 11
21.8872
 21
50.0142
  0
LINE
  8
0
 10
21.8872
 20
50.0142
 11
22.1
 21
50.1928
  0
LINE
  8
0
 10
22.1
 20
50.1928
 11
22.3611
 21
50.2878
  0
LINE
  8
0
 10
22.3611
 20
50.2878
 11
22.6389
 21
50.2878
  0
LINE
  8
0
 10
22.6389
 20
50.2878
 11
22.9
 21
50.1928
  0
LINE
  8
0
 10
22.9
 20
50.1928
 11
23.1128
 21
50.0142
  0
LINE
  8
0
 10
23.1128
 20
50.0142
 11
23.2518
 21
49.7736
  0
LINE
  8
0
 10
23.2518
 20
49.7736
 11
23.3
 21
49.5
  0
LINE
  8
0
 10
23.3
 20
49.5
 11
23.2518
 21
49.2264
  0
LINE
  8
0
 10
23.2518
 20
49.2264
 11
23.1128
 21
48.9858
  0
LINE
  8
0
 10
23.1128
 20
48.9858
 11
22.9
 21
48.8072
  0
LINE
  8
0
 10
22.9
 20
48.8072
 11
22.6389
 21
48.7121
  0
LINE
  8
0
 10
22.6389
 20
48.7121
 11
22.3611
 21
48.7121
  0
LINE
  8
0
 10
32.3611
 20
44.7121
 11
32.1
 21
44.8072
  0
LINE
  8
0
 10
32.1
 20
44.8072
 11
31.8872
 21
44.9858
  0
LINE
  8
0
 10
31.8872
 20
44.9858
 11
31.7482
 21
45.2264
  0
LINE
  8
0
 10
31.7482
 20
45.2264
 11
31.7
 21
45.5
  0
LINE
  8
0
 10
31.7
 20
45.5
 11
31.7482
 21
45.7736
  0
LINE
  8
0
 10
31.7482
 20
45.7736
 11
31.8872
 21
46.0142
  0
LINE
  8
0
 10
31.8872
 20
46.0142
 11
32.1
 21
46.1928
  0
LINE
  8
0
 10
32.1
 20
46.1928
 11
32.3611
 21
46.2878
  0
LINE
  8
0
 10
32.3611
 20
46.2878
 11
32.6389
 21
46.2878
  0
LINE
  8
0
 10
32.6389
 20
46.2878
 11
32.9
 21
46.1928
  0
LINE
  8
0
 10
32.9
 20
46.1928
 11
33.1128
 21
46.0142
  0
LINE
  8
0
 10
33.1128
 20
46.0142
 11
33.2518
 21
45.7736
  0
LINE
  8
0
 10
33.2518
 20
45.7736
 11
33.3
 21
45.5
  0
LINE
  8
0
 10
33.3
 20
45.5
 11
33.2518
 21
45.2264
  0
LINE
  8
0
 10
33.2518
 20
45.2264
 11
33.1128
 21
44.9858
  0
LINE
  8
0
 10
33.1128
 20
44.9858
 11
32.9
 21
44.8072
  0
LINE
  8
0
 10
32.9
 20
44.8072
 11
32.6389
 21
44.7121
  0
LINE
  8
0
 10
32.6389
 20
44.7121
 11
32.3611
 21
44.7121
  0
LINE
  8
0
 10
28.3611
 20
40.7121
 11
28.1
 21
40.8072
  0
LINE
  8
0
 10
28.1
 20
40.8072
 11
27.8872
 21
40.9858
  0
LINE
  8
0
 10
27.8872
 20
40.9858
 11
27.7482
 21
41.2264
  0
LINE
  8
0
 10
27.7482
 20
41.2264
 11
27.7
 21
41.5
  0
LINE
  8
0
 10
27.7
 20
41.5
 11
27.7482
 21
41.7736
  0
LINE
  8
0
 10
27.7482
 20
41.7736
 11
27.8872
 21
42.0142
  0
LINE
  8
0
 10
27.8872
 20
42.0142
 11
28.1
 21
42.1928
  0
LINE
  8
0
 10
28.1
 20
42.1928
 11
28.3611
 21
42.2878
  0
LINE
  8
0
 10
28.3611
 20
42.2878
 11
28.6389
 21
42.2878
  0
LINE
  8
0
 10
28.6389
 20
42.2878
 11
28.9
 21
42.1928
  0
LINE
  8
0
 10
28.9
 20
42.1928
 11
29.1128
 21
42.0142
  0
LINE
  8
0
 10
29.1128
 20
42.0142
 11
29.2518
 21
41.7736
  0
LINE
  8
0
 10
29.2518
 20
41.7736
 11
29.3
 21
41.5
  0
LINE
  8
0
 10
29.3
 20
41.5
 11
29.2518
 21
41.2264
  0
LINE
  8
0
 10
29.2518
 20
41.2264
 11
29.1128
 21
40.9858
  0
LINE
  8
0
 10
29.1128
 20
40.9858
 11
28.9
 21
40.8072
  0
LINE
  8
0
 10
28.9
 20
40.8072
 11
28.6389
 21
40.7121
  0
LINE
  8
0
 10
28.6389
 20
40.7121
 11
28.3611
 21
40.7121
  0
LINE
  8
0
 10
24.3611
 20
36.7121
 11
24.1
 21
36.8072
  0
LINE
  8
0
 10
24.1
 20
36.8072
 11
23.8872
 21
36.9858
  0
LINE
  8
0
 10
23.8872
 20
36.9858
 11
23.7482
 21
37.2264
  0
LINE
  8
0
 10
23.7482
 20
37.2264
 11
23.7
 21
37.5
  0
LINE
  8
0
 10
23.7
 20
37.5
 11
23.7482
 21
37.7736
  0
LINE
  8
0
 10
23.7482
 20
37.7736
 11
23.8872
 21
38.0142
  0
LINE
  8
0
 10
23.8872
 20
38.0142
 11
24.1
 21
38.1928
  0
LINE
  8
0
 10
24.1
 20
38.1928
 11
24.3611
 21
38.2878
  0
LINE
  8
0
 10
24.3611
 20
38.2878
 11
24.6389
 21
38.2878
  0
LINE
  8
0
 10
24.6389
 20
38.2878
 11
24.9
 21
38.1928
  0
LINE
  8
0
 10
24.9
 20
38.1928
 11
25.1128
 21
38.0142
  0
LINE
  8
0
 10
25.1128
 20
38.0142
 11
25.2518
 21
37.7736
  0
LINE
  8
0
 10
25.2518
 20
37.7736
 11
25.3
 21
37.5
  0
LINE
  8
0
 10
25.3
 20
37.5
 11
25.2518
 21
37.2264
  0
LINE
  8
0
 10
25.2518
 20
37.2264
 11
25.1128
 21
36.9858
  0
LINE
  8
0
 10
25.1128
 20
36.9858
 11
24.9
 21
36.8072
  0
LINE
  8
0
 10
24.9
 20
36.8072
 11
24.6389
 21
36.7121
  0
LINE
  8
0
 10
24.6389
 20
36.7121
 11
24.3611
 21
36.7121
  0
LINE
  8
0
 10
22.3611
 20
32.7121
 11
22.1
 21
32.8072
  0
LINE
  8
0
 10
22.1
 20
32.8072
 11
21.8872
 21
32.9858
  0
LINE
  8
0
 10
21.8872
 20
32.9858
 11
21.7482
 21
33.2264
  0
LINE
  8
0
 10
21.7482
 20
33.2264
 11
21.7
 21
33.5
  0
LINE
  8
0
 10
21.7
 20
33.5
 11
21.7482
 21
33.7736
  0
LINE
  8
0
 10
21.7482
 20
33.7736
 11
21.8872
 21
34.0142
  0
LINE
  8
0
 10
21.8872
 20
34.0142
 11
22.1
 21
34.1928
  0
LINE
  8
0
 10
22.1
 20
34.1928
 11
22.3611
 21
34.2878
  0
LINE
  8
0
 10
22.3611
 20
34.2878
 11
22.6389
 21
34.2878
  0
LINE
  8
0
 10
22.6389
 20
34.2878
 11
22.9
 21
34.1928
  0
LINE
  8
0
 10
22.9
 20
34.1928
 11
23.1128
 21
34.0142
  0
LINE
  8
0
 10
23.1128
 20
34.0142
 11
23.2518
 21
33.7736
  0
LINE
  8
0
 10
23.2518
 20
33.7736
 11
23.3
 21
33.5
  0
LINE
  8
0
 10
23.3
 20
33.5
 11
23.2518
 21
33.2264
  0
LINE
  8
0
 10
23.2518
 20
33.2264
 11
23.1128
 21
32.9858
  0
LINE
  8
0
 10
23.1128
 20
32.9858
 11
22.9
 21
32.8072
  0
LINE
  8
0
 10
22.9
 20
32.8072
 11
22.6389
 21
32.7121
  0
LINE
  8
0
 10
22.6389
 20
32.7121
 11
22.3611
 21
32.7121
  0
LINE
  8
0
 10
32.3611
 20
28.7121
 11
32.1
 21
28.8072
  0
LINE
  8
0
 10
32.1
 20
28.8072
 11
31.8872
 21
28.9858
  0
LINE
  8
0
 10
31.8872
 20
28.9858
 11
31.7482
 21
29.2264
  0
LINE
  8
0
 10
31.7482
 20
29.2264
 11
31.7
 21
29.5
  0
LINE
  8
0
 10
31.7
 20
29.5
 11
31.7482
 21
29.7736
  0
LINE
  8
0
 10
31.7482
 20
29.7736
 11
31.8872
 21
30.0142
  0
LINE
  8
0
 10
31.8872
 20
30.0142
 11
32.1
 21
30.1928
  0
LINE
  8
0
 10
32.1
 20
30.1928
 11
32.3611
 21
30.2878
  0
LINE
  8
0
 10
32.3611
 20
30.2878
 11
32.6389
 21
30.2878
  0
LINE
  8
0
 10
32.6389
 20
30.2878
 11
32.9
 21
30.1928
  0
LINE
  8
0
 10
32.9
 20
30.1928
 11
33.1128
 21
30.0142
  0
LINE
  8
0
 10
33.1128
 20
30.0142
 11
33.2518
 21
29.7736
  0
LINE
  8
0
 10
33.2518
 20
29.7736
 11
33.3
 21
29.5
  0
LINE
  8
0
 10
33.3
 20
29.5
 11
33.2518
 21
29.2264
  0
LINE
  8
0
 10
33.2518
 20
29.2264
 11
33.1128
 21
28.9858
  0
LINE
  8
0
 10
33.1128
 20
28.9858
 11
32.9
 21
28.8072
  0
LINE
  8
0
 10
32.9
 20
28.8072
 11
32.6389
 21
28.7121
  0
LINE
  8
0
 10
32.6389
 20
28.7121
 11
32.3611
 21
28.7121
  0
LINE
  8
0
 10
28.3611
 20
12.7121
 11
28.1
 21
12.8072
  0
LINE
  8
0
 10
28.1
 20
12.8072
 11
27.8872
 21
12.9858
  0
LINE
  8
0
 10
27.8872
 20
12.9858
 11
27.7482
 21
13.2264
  0
LINE
  8
0
 10
27.7482
 20
13.2264
 11
27.7
 21
13.5
  0
LINE
  8
0
 10
27.7
 20
13.5
 11
27.7482
 21
13.7736
  0
LINE
  8
0
 10
27.7482
 20
13.7736
 11
27.8872
 21
14.0142
  0
LINE
  8
0
 10
27.8872
 20
14.0142
 11
28.1
 21
14.1928
  0
LINE
  8
0
 10
28.1
 20
14.1928
 11
28.3611
 21
14.2878
  0
LINE
  8
0
 10
28.3611
 20
14.2878
 11
28.6389
 21
14.2878
  0
LINE
  8
0
 10
28.6389
 20
14.2878
 11
28.9
 21
14.1928
  0
LINE
  8
0
 10
28.9
 20
14.1928
 11
29.1128
 21
14.0142
  0
LINE
  8
0
 10
29.1128
 20
14.0142
 11
29.2518
 21
13.7736
  0
LINE
  8
0
 10
29.2518
 20
13.7736
 11
29.3
 21
13.5
  0
LINE
  8
0
 10
29.3
 20
13.5
 11
29.2518
 21
13.2264
  0
LINE
  8
0
 10
29.2518
 20
13.2264
 11
29.1128
 21
12.9858
  0
LINE
  8
0
 10
29.1128
 20
12.9858
 11
28.9
 21
12.8072
  0
LINE
  8
0
 10
28.9
 20
12.8072
 11
28.6389
 21
12.7121
  0
LINE
  8
0
 10
28.6389
 20
12.7121
 11
28.3611
 21
12.7121
  0
LINE
  8
0
 10
24.3611
 20
0.712143
 11
24.1
 21
0.807175
  0
LINE
  8
0
 10
24.1
 20
0.807175
 11
23.8872
 21
0.985764
  0
LINE
  8
0
 10
23.8872
 20
0.985764
 11
23.7482
 21
1.22638
  0
LINE
  8
0
 10
23.7482
 20
1.22638
 11
23.7
 21
1.5
  0
LINE
  8
0
 10
23.7
 20
1.5
 11
23.7482
 21
1.77361
  0
LINE
  8
0
 10
23.7482
 20
1.77361
 11
23.8872
 21
2.01422
  0
LINE
  8
0
 10
23.8872
 20
2.01422
 11
24.1
 21
2.19281
  0
LINE
  8
0
 10
24.1
 20
2.19281
 11
24.3611
 21
2.28784
  0
LINE
  8
0
 10
24.3611
 20
2.28784
 11
24.6389
 21
2.28784
  0
LINE
  8
0
 10
24.6389
 20
2.28784
 11
24.9
 21
2.19281
  0
LINE
  8
0
 10
24.9
 20
2.19281
 11
25.1128
 21
2.01422
  0
LINE
  8
0
 10
25.1128
 20
2.01422
 11
25.2518
 21
1.77361
  0
LINE
  8
0
 10
25.2518
 20
1.77361
 11
25.3
 21
1.5
  0
LINE
  8
0
 10
25.3
 20
1.5
 11
25.2518
 21
1.22638
  0
LINE
  8
0
 10
25.2518
 20
1.22638
 11
25.1128
 21
0.985764
  0
LINE
  8
0
 10
25.1128
 20
0.985764
 11
24.9
 21
0.807175
  0
LINE
  8
0
 10
24.9
 20
0.807175
 11
24.6389
 21
0.712143
  0
LINE
  8
0
 10
24.6389
 20
0.712143
 11
24.3611
 21
0.712143
  0
ENDSEC
  0
SECTION
  2
OBJECTS
  0
DICTIONARY
  0
ENDSEC
  0
EOF
