  0
SECTION
  2
BLOCKS
  0
ENDSEC
  0
SECTION
  2
ENTITIES
  0
LINE
  8
0
 10
23.7482
 20
0.226379
 11
23.7
 21
0.5
  0
LINE
  8
0
 10
23.7
 20
0.5
 11
23.7482
 21
0.773605
  0
LINE
  8
0
 10
23.7482
 20
0.773605
 11
23.8872
 21
1.01422
  0
LINE
  8
0
 10
23.8872
 20
1.01422
 11
24.1
 21
1.19281
  0
LINE
  8
0
 10
24.1
 20
1.19281
 11
24.3611
 21
1.28784
  0
LINE
  8
0
 10
24.3611
 20
1.28784
 11
24.6389
 21
1.28784
  0
LINE
  8
0
 10
24.6389
 20
1.28784
 11
24.9
 21
1.19281
  0
LINE
  8
0
 10
24.9
 20
1.19281
 11
25.1128
 21
1.01422
  0
LINE
  8
0
 10
25.1128
 20
1.01422
 11
25.2518
 21
0.773605
  0
LINE
  8
0
 10
25.2518
 20
0.773605
 11
25.3
 21
0.5
  0
LINE
  8
0
 10
25.3
 20
0.5
 11
25.2518
 21
0.226379
  0
LINE
  8
0
 10
25.2518
 20
0.226379
 11
25.121
 21
0
  0
LINE
  8
0
 10
25.121
 20
0
 11
47.8789
 21
0
  0
LINE
  8
0
 10
47.8789
 20
0
 11
47.7482
 21
0.226379
  0
LINE
  8
0
 10
47.7482
 20
0.226379
 11
47.7
 21
0.5
  0
LINE
  8
0
 10
47.7
 20
0.5
 11
47.7482
 21
0.773605
  0
LINE
  8
0
 10
47.7482
 20
0.773605
 11
47.8872
 21
1.01422
  0
LINE
  8
0
 10
47.8872
 20
1.01422
 11
48.1
 21
1.19281
  0
LINE
  8
0
 10
48.1
 20
1.19281
 11
48.3611
 21
1.28784
  0
LINE
  8
0
 10
48.3611
 20
1.28784
 11
48.6389
 21
1.28784
  0
LINE
  8
0
 10
48.6389
 20
1.28784
 11
48.9
 21
1.19281
  0
LINE
  8
0
 10
48.9
 20
1.19281
 11
49.1128
 21
1.01422
  0
LINE
  8
0
 10
49.1128
 20
1.01422
 11
49.2518
 21
0.773605
  0
LINE
  8
0
 10
49.2518
 20
0.773605
 11
49.3
 21
0.5
  0
LINE
  8
0
 10
49.3
 20
0.5
 11
49.2518
 21
0.226379
  0
LINE
  8
0
 10
49.2518
 20
0.226379
 11
49.121
 21
0
  0
LINE
  8
0
 10
49.121
 20
0
 11
69
 21
0
  0
LINE
  8
0
 10
69
 20
0
 11
69
 21
650
  0
LINE
  8
0
 10
69
 20
650
 11
0
 21
650
  0
LINE
  8
0
 10
0
 20
650
 11
0
 21
0
  0
LINE
  8
0
 10
0
 20
0
 11
23.8789
 21
0
  0
LINE
  8
0
 10
23.8789
 20
0
 11
23.7482
 21
0.226379
  0
LINE
  8
0
 10
22.3611
 20
489.712
 11
22.1
 21
489.807
  0
LINE
  8
0
 10
22.1
 20
489.807
 11
21.8872
 21
489.986
  0
LINE
  8
0
 10
21.8872
 20
489.986
 11
21.7482
 21
490.226
  0
LINE
  8
0
 10
21.7482
 20
490.226
 11
21.7
 21
490.5
  0
LINE
  8
0
 10
21.7
 20
490.5
 11
21.7482
 21
490.774
  0
LINE
  8
0
 10
21.7482
 20
490.774
 11
21.8872
 21
491.014
  0
LINE
  8
0
 10
21.8872
 20
491.014
 11
22.1
 21
491.193
  0
LINE
  8
0
 10
22.1
 20
491.193
 11
22.3611
 21
491.288
  0
LINE
  8
0
 10
22.3611
 20
491.288
 11
22.6389
 21
491.288
  0
LINE
  8
0
 10
22.6389
 20
491.288
 11
22.9
 21
491.193
  0
LINE
  8
0
 10
22.9
 20
491.193
 11
23.1128
 21
491.014
  0
LINE
  8
0
 10
23.1128
 20
491.014
 11
23.2518
 21
490.774
  0
LINE
  8
0
 10
23.2518
 20
490.774
 11
23.3
 21
490.5
  0
LINE
  8
0
 10
23.3
 20
490.5
 11
23.2518
 21
490.226
  0
LINE
  8
0
 10
23.2518
 20
490.226
 11
23.1128
 21
489.986
  0
LINE
  8
0
 10
23.1128
 20
489.986
 11
22.9
 21
489.807
  0
LINE
  8
0
 10
22.9
 20
489.807
 11
22.6389
 21
489.712
  0
LINE
  8
0
 10
22.6389
 20
489.712
 11
22.3611
 21
489.712
  0
LINE
  8
0
 10
28.3611
 20
483.045
 11
28.1
 21
483.14
  0
LINE
  8
0
 10
28.1
 20
483.14
 11
27.8872
 21
483.319
  0
LINE
  8
0
 10
27.8872
 20
483.319
 11
27.7482
 21
483.56
  0
LINE
  8
0
 10
27.7482
 20
483.56
 11
27.7
 21
483.833
  0
LINE
  8
0
 10
27.7
 20
483.833
 11
27.7482
 21
484.107
  0
LINE
  8
0
 10
27.7482
 20
484.107
 11
27.8872
 21
484.348
  0
LINE
  8
0
 10
27.8872
 20
484.348
 11
28.1
 21
484.526
  0
LINE
  8
0
 10
28.1
 20
484.526
 11
28.3611
 21
484.621
  0
LINE
  8
0
 10
28.3611
 20
484.621
 11
28.6389
 21
484.621
  0
LINE
  8
0
 10
28.6389
 20
484.621
 11
28.9
 21
484.526
  0
LINE
  8
0
 10
28.9
 20
484.526
 11
29.1128
 21
484.348
  0
LINE
  8
0
 10
29.1128
 20
484.348
 11
29.2518
 21
484.107
  0
LINE
  8
0
 10
29.2518
 20
484.107
 11
29.3
 21
483.833
  0
LINE
  8
0
 10
29.3
 20
483.833
 11
29.2518
 21
483.56
  0
LINE
  8
0
 10
29.2518
 20
483.56
 11
29.1128
 21
483.319
  0
LINE
  8
0
 10
29.1128
 20
483.319
 11
28.9
 21
483.14
  0
LINE
  8
0
 10
28.9
 20
483.14
 11
28.6389
 21
483.045
  0
LINE
  8
0
 10
28.6389
 20
483.045
 11
28.3611
 21
483.045
  0
LINE
  8
0
 10
24.3611
 20
476.379
 11
24.1
 21
476.474
  0
LINE
  8
0
 10
24.1
 20
476.474
 11
23.8872
 21
476.652
  0
LINE
  8
0
 10
23.8872
 20
476.652
 11
23.7482
 21
476.893
  0
LINE
  8
0
 10
23.7482
 20
476.893
 11
23.7
 21
477.167
  0
LINE
  8
0
 10
23.7
 20
477.167
 11
23.7482
 21
477.44
  0
LINE
  8
0
 10
23.7482
 20
477.44
 11
23.8872
 21
477.681
  0
LINE
  8
0
 10
23.8872
 20
477.681
 11
24.1
 21
477.859
  0
LINE
  8
0
 10
24.1
 20
477.859
 11
24.3611
 21
477.954
  0
LINE
  8
0
 10
24.3611
 20
477.954
 11
24.6389
 21
477.954
  0
LINE
  8
0
 10
24.6389
 20
477.954
 11
24.9
 21
477.859
  0
LINE
  8
0
 10
24.9
 20
477.859
 11
25.1128
 21
477.681
  0
LINE
  8
0
 10
25.1128
 20
477.681
 11
25.2518
 21
477.44
  0
LINE
  8
0
 10
25.2518
 20
477.44
 11
25.3
 21
477.167
  0
LINE
  8
0
 10
25.3
 20
477.167
 11
25.2518
 21
476.893
  0
LINE
  8
0
 10
25.2518
 20
476.893
 11
25.1128
 21
476.652
  0
LINE
  8
0
 10
25.1128
 20
476.652
 11
24.9
 21
476.474
  0
LINE
  8
0
 10
24.9
 20
476.474
 11
24.6389
 21
476.379
  0
LINE
  8
0
 10
24.6389
 20
476.379
 11
24.3611
 21
476.379
  0
LINE
  8
0
 10
22.3611
 20
469.712
 11
22.1
 21
469.807
  0
LINE
  8
0
 10
22.1
 20
469.807
 11
21.8872
 21
469.986
  0
LINE
  8
0
 10
21.8872
 20
469.986
 11
21.7482
 21
470.226
  0
LINE
  8
0
 10
21.7482
 20
470.226
 11
21.7
 21
470.5
  0
LINE
  8
0
 10
21.7
 20
470.5
 11
21.7482
 21
470.774
  0
LINE
  8
0
 10
21.7482
 20
470.774
 11
21.8872
 21
471.014
  0
LINE
  8
0
 10
21.8872
 20
471.014
 11
22.1
 21
471.193
  0
LINE
  8
0
 10
22.1
 20
471.193
 11
22.3611
 21
471.288
  0
LINE
  8
0
 10
22.3611
 20
471.288
 11
22.6389
 21
471.288
  0
LINE
  8
0
 10
22.6389
 20
471.288
 11
22.9
 21
471.193
  0
LINE
  8
0
 10
22.9
 20
471.193
 11
23.1128
 21
471.014
  0
LINE
  8
0
 10
23.1128
 20
471.014
 11
23.2518
 21
470.774
  0
LINE
  8
0
 10
23.2518
 20
470.774
 11
23.3
 21
470.5
  0
LINE
  8
0
 10
23.3
 20
470.5
 11
23.2518
 21
470.226
  0
LINE
  8
0
 10
23.2518
 20
470.226
 11
23.1128
 21
469.986
  0
LINE
  8
0
 10
23.1128
 20
469.986
 11
22.9
 21
469.807
  0
LINE
  8
0
 10
22.9
 20
469.807
 11
22.6389
 21
469.712
  0
LINE
  8
0
 10
22.6389
 20
469.712
 11
22.3611
 21
469.712
  0
LINE
  8
0
 10
32.3611
 20
464.712
 11
32.1
 21
464.807
  0
LINE
  8
0
 10
32.1
 20
464.807
 11
31.8872
 21
464.986
  0
LINE
  8
0
 10
31.8872
 20
464.986
 11
31.7482
 21
465.226
  0
LINE
  8
0
 10
31.7482
 20
465.226
 11
31.7
 21
465.5
  0
LINE
  8
0
 10
31.7
 20
465.5
 11
31.7482
 21
465.774
  0
LINE
  8
0
 10
31.7482
 20
465.774
 11
31.8872
 21
466.014
  0
LINE
  8
0
 10
31.8872
 20
466.014
 11
32.1
 21
466.193
  0
LINE
  8
0
 10
32.1
 20
466.193
 11
32.3611
 21
466.288
  0
LINE
  8
0
 10
32.3611
 20
466.288
 11
32.6389
 21
466.288
  0
LINE
  8
0
 10
32.6389
 20
466.288
 11
32.9
 21
466.193
  0
LINE
  8
0
 10
32.9
 20
466.193
 11
33.1128
 21
466.014
  0
LINE
  8
0
 10
33.1128
 20
466.014
 11
33.2518
 21
465.774
  0
LINE
  8
0
 10
33.2518
 20
465.774
 11
33.3
 21
465.5
  0
LINE
  8
0
 10
33.3
 20
465.5
 11
33.2518
 21
465.226
  0
LINE
  8
0
 10
33.2518
 20
465.226
 11
33.1128
 21
464.986
  0
LINE
  8
0
 10
33.1128
 20
464.986
 11
32.9
 21
464.807
  0
LINE
  8
0
 10
32.9
 20
464.807
 11
32.6389
 21
464.712
  0
LINE
  8
0
 10
32.6389
 20
464.712
 11
32.3611
 21
464.712
  0
LINE
  8
0
 10
32.3611
 20
444.712
 11
32.1
 21
444.807
  0
LINE
  8
0
 10
32.1
 20
444.807
 11
31.8872
 21
444.986
  0
LINE
  8
0
 10
31.8872
 20
444.986
 11
31.7482
 21
445.226
  0
LINE
  8
0
 10
31.7482
 20
445.226
 11
31.7
 21
445.5
  0
LINE
  8
0
 10
31.7
 20
445.5
 11
31.7482
 21
445.774
  0
LINE
  8
0
 10
31.7482
 20
445.774
 11
31.8872
 21
446.014
  0
LINE
  8
0
 10
31.8872
 20
446.014
 11
32.1
 21
446.193
  0
LINE
  8
0
 10
32.1
 20
446.193
 11
32.3611
 21
446.288
  0
LINE
  8
0
 10
32.3611
 20
446.288
 11
32.6389
 21
446.288
  0
LINE
  8
0
 10
32.6389
 20
446.288
 11
32.9
 21
446.193
  0
LINE
  8
0
 10
32.9
 20
446.193
 11
33.1128
 21
446.014
  0
LINE
  8
0
 10
33.1128
 20
446.014
 11
33.2518
 21
445.774
  0
LINE
  8
0
 10
33.2518
 20
445.774
 11
33.3
 21
445.5
  0
LINE
  8
0
 10
33.3
 20
445.5
 11
33.2518
 21
445.226
  0
LINE
  8
0
 10
33.2518
 20
445.226
 11
33.1128
 21
444.986
  0
LINE
  8
0
 10
33.1128
 20
444.986
 11
32.9
 21
444.807
  0
LINE
  8
0
 10
32.9
 20
444.807
 11
32.6389
 21
444.712
  0
LINE
  8
0
 10
32.6389
 20
444.712
 11
32.3611
 21
444.712
  0
LINE
  8
0
 10
32.3611
 20
439.712
 11
32.1
 21
439.807
  0
LINE
  8
0
 10
32.1
 20
439.807
 11
31.8872
 21
439.986
  0
LINE
  8
0
 10
31.8872
 20
439.986
 11
31.7482
 21
440.226
  0
LINE
  8
0
 10
31.7482
 20
440.226
 11
31.7
 21
440.5
  0
LINE
  8
0
 10
31.7
 20
440.5
 11
31.7482
 21
440.774
  0
LINE
  8
0
 10
31.7482
 20
440.774
 11
31.8872
 21
441.014
  0
LINE
  8
0
 10
31.8872
 20
441.014
 11
32.1
 21
441.193
  0
LINE
  8
0
 10
32.1
 20
441.193
 11
32.3611
 21
441.288
  0
LINE
  8
0
 10
32.3611
 20
441.288
 11
32.6389
 21
441.288
  0
LINE
  8
0
 10
32.6389
 20
441.288
 11
32.9
 21
441.193
  0
LINE
  8
0
 10
32.9
 20
441.193
 11
33.1128
 21
441.014
  0
LINE
  8
0
 10
33.1128
 20
441.014
 11
33.2518
 21
440.774
  0
LINE
  8
0
 10
33.2518
 20
440.774
 11
33.3
 21
440.5
  0
LINE
  8
0
 10
33.3
 20
440.5
 11
33.2518
 21
440.226
  0
LINE
  8
0
 10
33.2518
 20
440.226
 11
33.1128
 21
439.986
  0
LINE
  8
0
 10
33.1128
 20
439.986
 11
32.9
 21
439.807
  0
LINE
  8
0
 10
32.9
 20
439.807
 11
32.6389
 21
439.712
  0
LINE
  8
0
 10
32.6389
 20
439.712
 11
32.3611
 21
439.712
  0
LINE
  8
0
 10
22.3611
 20
409.712
 11
22.1
 21
409.807
  0
LINE
  8
0
 10
22.1
 20
409.807
 11
21.8872
 21
409.986
  0
LINE
  8
0
 10
21.8872
 20
409.986
 11
21.7482
 21
410.226
  0
LINE
  8
0
 10
21.7482
 20
410.226
 11
21.7
 21
410.5
  0
LINE
  8
0
 10
21.7
 20
410.5
 11
21.7482
 21
410.774
  0
LINE
  8
0
 10
21.7482
 20
410.774
 11
21.8872
 21
411.014
  0
LINE
  8
0
 10
21.8872
 20
411.014
 11
22.1
 21
411.193
  0
LINE
  8
0
 10
22.1
 20
411.193
 11
22.3611
 21
411.288
  0
LINE
  8
0
 10
22.3611
 20
411.288
 11
22.6389
 21
411.288
  0
LINE
  8
0
 10
22.6389
 20
411.288
 11
22.9
 21
411.193
  0
LINE
  8
0
 10
22.9
 20
411.193
 11
23.1128
 21
411.014
  0
LINE
  8
0
 10
23.1128
 20
411.014
 11
23.2518
 21
410.774
  0
LINE
  8
0
 10
23.2518
 20
410.774
 11
23.3
 21
410.5
  0
LINE
  8
0
 10
23.3
 20
410.5
 11
23.2518
 21
410.226
  0
LINE
  8
0
 10
23.2518
 20
410.226
 11
23.1128
 21
409.986
  0
LINE
  8
0
 10
23.1128
 20
409.986
 11
22.9
 21
409.807
  0
LINE
  8
0
 10
22.9
 20
409.807
 11
22.6389
 21
409.712
  0
LINE
  8
0
 10
22.6389
 20
409.712
 11
22.3611
 21
409.712
  0
LINE
  8
0
 10
28.3611
 20
403.045
 11
28.1
 21
403.14
  0
LINE
  8
0
 10
28.1
 20
403.14
 11
27.8872
 21
403.319
  0
LINE
  8
0
 10
27.8872
 20
403.319
 11
27.7482
 21
403.56
  0
LINE
  8
0
 10
27.7482
 20
403.56
 11
27.7
 21
403.833
  0
LINE
  8
0
 10
27.7
 20
403.833
 11
27.7482
 21
404.107
  0
LINE
  8
0
 10
27.7482
 20
404.107
 11
27.8872
 21
404.348
  0
LINE
  8
0
 10
27.8872
 20
404.348
 11
28.1
 21
404.526
  0
LINE
  8
0
 10
28.1
 20
404.526
 11
28.3611
 21
404.621
  0
LINE
  8
0
 10
28.3611
 20
404.621
 11
28.6389
 21
404.621
  0
LINE
  8
0
 10
28.6389
 20
404.621
 11
28.9
 21
404.526
  0
LINE
  8
0
 10
28.9
 20
404.526
 11
29.1128
 21
404.348
  0
LINE
  8
0
 10
29.1128
 20
404.348
 11
29.2518
 21
404.107
  0
LINE
  8
0
 10
29.2518
 20
404.107
 11
29.3
 21
403.833
  0
LINE
  8
0
 10
29.3
 20
403.833
 11
29.2518
 21
403.56
  0
LINE
  8
0
 10
29.2518
 20
403.56
 11
29.1128
 21
403.319
  0
LINE
  8
0
 10
29.1128
 20
403.319
 11
28.9
 21
403.14
  0
LINE
  8
0
 10
28.9
 20
403.14
 11
28.6389
 21
403.045
  0
LINE
  8
0
 10
28.6389
 20
403.045
 11
28.3611
 21
403.045
  0
LINE
  8
0
 10
24.3611
 20
396.379
 11
24.1
 21
396.474
  0
LINE
  8
0
 10
24.1
 20
396.474
 11
23.8872
 21
396.652
  0
LINE
  8
0
 10
23.8872
 20
396.652
 11
23.7482
 21
396.893
  0
LINE
  8
0
 10
23.7482
 20
396.893
 11
23.7
 21
397.167
  0
LINE
  8
0
 10
23.7
 20
397.167
 11
23.7482
 21
397.44
  0
LINE
  8
0
 10
23.7482
 20
397.44
 11
23.8872
 21
397.681
  0
LINE
  8
0
 10
23.8872
 20
397.681
 11
24.1
 21
397.859
  0
LINE
  8
0
 10
24.1
 20
397.859
 11
24.3611
 21
397.954
  0
LINE
  8
0
 10
24.3611
 20
397.954
 11
24.6389
 21
397.954
  0
LINE
  8
0
 10
24.6389
 20
397.954
 11
24.9
 21
397.859
  0
LINE
  8
0
 10
24.9
 20
397.859
 11
25.1128
 21
397.681
  0
LINE
  8
0
 10
25.1128
 20
397.681
 11
25.2518
 21
397.44
  0
LINE
  8
0
 10
25.2518
 20
397.44
 11
25.3
 21
397.167
  0
LINE
  8
0
 10
25.3
 20
397.167
 11
25.2518
 21
396.893
  0
LINE
  8
0
 10
25.2518
 20
396.893
 11
25.1128
 21
396.652
  0
LINE
  8
0
 10
25.1128
 20
396.652
 11
24.9
 21
396.474
  0
LINE
  8
0
 10
24.9
 20
396.474
 11
24.6389
 21
396.379
  0
LINE
  8
0
 10
24.6389
 20
396.379
 11
24.3611
 21
396.379
  0
LINE
  8
0
 10
22.3611
 20
389.712
 11
22.1
 21
389.807
  0
LINE
  8
0
 10
22.1
 20
389.807
 11
21.8872
 21
389.986
  0
LINE
  8
0
 10
21.8872
 20
389.986
 11
21.7482
 21
390.226
  0
LINE
  8
0
 10
21.7482
 20
390.226
 11
21.7
 21
390.5
  0
LINE
  8
0
 10
21.7
 20
390.5
 11
21.7482
 21
390.774
  0
LINE
  8
0
 10
21.7482
 20
390.774
 11
21.8872
 21
391.014
  0
LINE
  8
0
 10
21.8872
 20
391.014
 11
22.1
 21
391.193
  0
LINE
  8
0
 10
22.1
 20
391.193
 11
22.3611
 21
391.288
  0
LINE
  8
0
 10
22.3611
 20
391.288
 11
22.6389
 21
391.288
  0
LINE
  8
0
 10
22.6389
 20
391.288
 11
22.9
 21
391.193
  0
LINE
  8
0
 10
22.9
 20
391.193
 11
23.1128
 21
391.014
  0
LINE
  8
0
 10
23.1128
 20
391.014
 11
23.2518
 21
390.774
  0
LINE
  8
0
 10
23.2518
 20
390.774
 11
23.3
 21
390.5
  0
LINE
  8
0
 10
23.3
 20
390.5
 11
23.2518
 21
390.226
  0
LINE
  8
0
 10
23.2518
 20
390.226
 11
23.1128
 21
389.986
  0
LINE
  8
0
 10
23.1128
 20
389.986
 11
22.9
 21
389.807
  0
LINE
  8
0
 10
22.9
 20
389.807
 11
22.6389
 21
389.712
  0
LINE
  8
0
 10
22.6389
 20
389.712
 11
22.3611
 21
389.712
  0
LINE
  8
0
 10
32.3611
 20
364.712
 11
32.1
 21
364.807
  0
LINE
  8
0
 10
32.1
 20
364.807
 11
31.8872
 21
364.986
  0
LINE
  8
0
 10
31.8872
 20
364.986
 11
31.7482
 21
365.226
  0
LINE
  8
0
 10
31.7482
 20
365.226
 11
31.7
 21
365.5
  0
LINE
  8
0
 10
31.7
 20
365.5
 11
31.7482
 21
365.774
  0
LINE
  8
0
 10
31.7482
 20
365.774
 11
31.8872
 21
366.014
  0
LINE
  8
0
 10
31.8872
 20
366.014
 11
32.1
 21
366.193
  0
LINE
  8
0
 10
32.1
 20
366.193
 11
32.3611
 21
366.288
  0
LINE
  8
0
 10
32.3611
 20
366.288
 11
32.6389
 21
366.288
  0
LINE
  8
0
 10
32.6389
 20
366.288
 11
32.9
 21
366.193
  0
LINE
  8
0
 10
32.9
 20
366.193
 11
33.1128
 21
366.014
  0
LINE
  8
0
 10
33.1128
 20
366.014
 11
33.2518
 21
365.774
  0
LINE
  8
0
 10
33.2518
 20
365.774
 11
33.3
 21
365.5
  0
LINE
  8
0
 10
33.3
 20
365.5
 11
33.2518
 21
365.226
  0
LINE
  8
0
 10
33.2518
 20
365.226
 11
33.1128
 21
364.986
  0
LINE
  8
0
 10
33.1128
 20
364.986
 11
32.9
 21
364.807
  0
LINE
  8
0
 10
32.9
 20
364.807
 11
32.6389
 21
364.712
  0
LINE
  8
0
 10
32.6389
 20
364.712
 11
32.3611
 21
364.712
  0
LINE
  8
0
 10
28.3611
 20
359.712
 11
28.1
 21
359.807
  0
LINE
  8
0
 10
28.1
 20
359.807
 11
27.8872
 21
359.986
  0
LINE
  8
0
 10
27.8872
 20
359.986
 11
27.7482
 21
360.226
  0
LINE
  8
0
 10
27.7482
 20
360.226
 11
27.7
 21
360.5
  0
LINE
  8
0
 10
27.7
 20
360.5
 11
27.7482
 21
360.774
  0
LINE
  8
0
 10
27.7482
 20
360.774
 11
27.8872
 21
361.014
  0
LINE
  8
0
 10
27.8872
 20
361.014
 11
28.1
 21
361.193
  0
LINE
  8
0
 10
28.1
 20
361.193
 11
28.3611
 21
361.288
  0
LINE
  8
0
 10
28.3611
 20
361.288
 11
28.6389
 21
361.288
  0
LINE
  8
0
 10
28.6389
 20
361.288
 11
28.9
 21
361.193
  0
LINE
  8
0
 10
28.9
 20
361.193
 11
29.1128
 21
361.014
  0
LINE
  8
0
 10
29.1128
 20
361.014
 11
29.2518
 21
360.774
  0
LINE
  8
0
 10
29.2518
 20
360.774
 11
29.3
 21
360.5
  0
LINE
  8
0
 10
29.3
 20
360.5
 11
29.2518
 21
360.226
  0
LINE
  8
0
 10
29.2518
 20
360.226
 11
29.1128
 21
359.986
  0
LINE
  8
0
 10
29.1128
 20
359.986
 11
28.9
 21
359.807
  0
LINE
  8
0
 10
28.9
 20
359.807
 11
28.6389
 21
359.712
  0
LINE
  8
0
 10
28.6389
 20
359.712
 11
28.3611
 21
359.712
  0
LINE
  8
0
 10
24.3611
 20
354.712
 11
24.1
 21
354.807
  0
LINE
  8
0
 10
24.1
 20
354.807
 11
23.8872
 21
354.986
  0
LINE
  8
0
 10
23.8872
 20
354.986
 11
23.7482
 21
355.226
  0
LINE
  8
0
 10
23.7482
 20
355.226
 11
23.7
 21
355.5
  0
LINE
  8
0
 10
23.7
 20
355.5
 11
23.7482
 21
355.774
  0
LINE
  8
0
 10
23.7482
 20
355.774
 11
23.8872
 21
356.014
  0
LINE
  8
0
 10
23.8872
 20
356.014
 11
24.1
 21
356.193
  0
LINE
  8
0
 10
24.1
 20
356.193
 11
24.3611
 21
356.288
  0
LINE
  8
0
 10
24.3611
 20
356.288
 11
24.6389
 21
356.288
  0
LINE
  8
0
 10
24.6389
 20
356.288
 11
24.9
 21
356.193
  0
LINE
  8
0
 10
24.9
 20
356.193
 11
25.1128
 21
356.014
  0
LINE
  8
0
 10
25.1128
 20
356.014
 11
25.2518
 21
355.774
  0
LINE
  8
0
 10
25.2518
 20
355.774
 11
25.3
 21
355.5
  0
LINE
  8
0
 10
25.3
 20
355.5
 11
25.2518
 21
355.226
  0
LINE
  8
0
 10
25.2518
 20
355.226
 11
25.1128
 21
354.986
  0
LINE
  8
0
 10
25.1128
 20
354.986
 11
24.9
 21
354.807
  0
LINE
  8
0
 10
24.9
 20
354.807
 11
24.6389
 21
354.712
  0
LINE
  8
0
 10
24.6389
 20
354.712
 11
24.3611
 21
354.712
  0
LINE
  8
0
 10
22.3611
 20
349.712
 11
22.1
 21
349.807
  0
LINE
  8
0
 10
22.1
 20
349.807
 11
21.8872
 21
349.986
  0
LINE
  8
0
 10
21.8872
 20
349.986
 11
21.7482
 21
350.226
  0
LINE
  8
0
 10
21.7482
 20
350.226
 11
21.7
 21
350.5
  0
LINE
  8
0
 10
21.7
 20
350.5
 11
21.7482
 21
350.774
  0
LINE
  8
0
 10
21.7482
 20
350.774
 11
21.8872
 21
351.014
  0
LINE
  8
0
 10
21.8872
 20
351.014
 11
22.1
 21
351.193
  0
LINE
  8
0
 10
22.1
 20
351.193
 11
22.3611
 21
351.288
  0
LINE
  8
0
 10
22.3611
 20
351.288
 11
22.6389
 21
351.288
  0
LINE
  8
0
 10
22.6389
 20
351.288
 11
22.9
 21
351.193
  0
LINE
  8
0
 10
22.9
 20
351.193
 11
23.1128
 21
351.014
  0
LINE
  8
0
 10
23.1128
 20
351.014
 11
23.2518
 21
350.774
  0
LINE
  8
0
 10
23.2518
 20
350.774
 11
23.3
 21
350.5
  0
LINE
  8
0
 10
23.3
 20
350.5
 11
23.2518
 21
350.226
  0
LINE
  8
0
 10
23.2518
 20
350.226
 11
23.1128
 21
349.986
  0
LINE
  8
0
 10
23.1128
 20
349.986
 11
22.9
 21
349.807
  0
LINE
  8
0
 10
22.9
 20
349.807
 11
22.6389
 21
349.712
  0
LINE
  8
0
 10
22.6389
 20
349.712
 11
22.3611
 21
349.712
  0
LINE
  8
0
 10
32.3611
 20
344.712
 11
32.1
 21
344.807
  0
LINE
  8
0
 10
32.1
 20
344.807
 11
31.8872
 21
344.986
  0
LINE
  8
0
 10
31.8872
 20
344.986
 11
31.7482
 21
345.226
  0
LINE
  8
0
 10
31.7482
 20
345.226
 11
31.7
 21
345.5
  0
LINE
  8
0
 10
31.7
 20
345.5
 11
31.7482
 21
345.774
  0
LINE
  8
0
 10
31.7482
 20
345.774
 11
31.8872
 21
346.014
  0
LINE
  8
0
 10
31.8872
 20
346.014
 11
32.1
 21
346.193
  0
LINE
  8
0
 10
32.1
 20
346.193
 11
32.3611
 21
346.288
  0
LINE
  8
0
 10
32.3611
 20
346.288
 11
32.6389
 21
346.288
  0
LINE
  8
0
 10
32.6389
 20
346.288
 11
32.9
 21
346.193
  0
LINE
  8
0
 10
32.9
 20
346.193
 11
33.1128
 21
346.014
  0
LINE
  8
0
 10
33.1128
 20
346.014
 11
33.2518
 21
345.774
  0
LINE
  8
0
 10
33.2518
 20
345.774
 11
33.3
 21
345.5
  0
LINE
  8
0
 10
33.3
 20
345.5
 11
33.2518
 21
345.226
  0
LINE
  8
0
 10
33.2518
 20
345.226
 11
33.1128
 21
344.986
  0
LINE
  8
0
 10
33.1128
 20
344.986
 11
32.9
 21
344.807
  0
LINE
  8
0
 10
32.9
 20
344.807
 11
32.6389
 21
344.712
  0
LINE
  8
0
 10
32.6389
 20
344.712
 11
32.3611
 21
344.712
  0
LINE
  8
0
 10
32.3611
 20
339.712
 11
32.1
 21
339.807
  0
LINE
  8
0
 10
32.1
 20
339.807
 11
31.8872
 21
339.986
  0
LINE
  8
0
 10
31.8872
 20
339.986
 11
31.7482
 21
340.226
  0
LINE
  8
0
 10
31.7482
 20
340.226
 11
31.7
 21
340.5
  0
LINE
  8
0
 10
31.7
 20
340.5
 11
31.7482
 21
340.774
  0
LINE
  8
0
 10
31.7482
 20
340.774
 11
31.8872
 21
341.014
  0
LINE
  8
0
 10
31.8872
 20
341.014
 11
32.1
 21
341.193
  0
LINE
  8
0
 10
32.1
 20
341.193
 11
32.3611
 21
341.288
  0
LINE
  8
0
 10
32.3611
 20
341.288
 11
32.6389
 21
341.288
  0
LINE
  8
0
 10
32.6389
 20
341.288
 11
32.9
 21
341.193
  0
LINE
  8
0
 10
32.9
 20
341.193
 11
33.1128
 21
341.014
  0
LINE
  8
0
 10
33.1128
 20
341.014
 11
33.2518
 21
340.774
  0
LINE
  8
0
 10
33.2518
 20
340.774
 11
33.3
 21
340.5
  0
LINE
  8
0
 10
33.3
 20
340.5
 11
33.2518
 21
340.226
  0
LINE
  8
0
 10
33.2518
 20
340.226
 11
33.1128
 21
339.986
  0
LINE
  8
0
 10
33.1128
 20
339.986
 11
32.9
 21
339.807
  0
LINE
  8
0
 10
32.9
 20
339.807
 11
32.6389
 21
339.712
  0
LINE
  8
0
 10
32.6389
 20
339.712
 11
32.3611
 21
339.712
  0
LINE
  8
0
 10
28.3611
 20
324.712
 11
28.1
 21
324.807
  0
LINE
  8
0
 10
28.1
 20
324.807
 11
27.8872
 21
324.986
  0
LINE
  8
0
 10
27.8872
 20
324.986
 11
27.7482
 21
325.226
  0
LINE
  8
0
 10
27.7482
 20
325.226
 11
27.7
 21
325.5
  0
LINE
  8
0
 10
27.7
 20
325.5
 11
27.7482
 21
325.774
  0
LINE
  8
0
 10
27.7482
 20
325.774
 11
27.8872
 21
326.014
  0
LINE
  8
0
 10
27.8872
 20
326.014
 11
28.1
 21
326.193
  0
LINE
  8
0
 10
28.1
 20
326.193
 11
28.3611
 21
326.288
  0
LINE
  8
0
 10
28.3611
 20
326.288
 11
28.6389
 21
326.288
  0
LINE
  8
0
 10
28.6389
 20
326.288
 11
28.9
 21
326.193
  0
LINE
  8
0
 10
28.9
 20
326.193
 11
29.1128
 21
326.014
  0
LINE
  8
0
 10
29.1128
 20
326.014
 11
29.2518
 21
325.774
  0
LINE
  8
0
 10
29.2518
 20
325.774
 11
29.3
 21
325.5
  0
LINE
  8
0
 10
29.3
 20
325.5
 11
29.2518
 21
325.226
  0
LINE
  8
0
 10
29.2518
 20
325.226
 11
29.1128
 21
324.986
  0
LINE
  8
0
 10
29.1128
 20
324.986
 11
28.9
 21
324.807
  0
LINE
  8
0
 10
28.9
 20
324.807
 11
28.6389
 21
324.712
  0
LINE
  8
0
 10
28.6389
 20
324.712
 11
28.3611
 21
324.712
  0
LINE
  8
0
 10
24.3611
 20
309.712
 11
24.1
 21
309.807
  0
LINE
  8
0
 10
24.1
 20
309.807
 11
23.8872
 21
309.986
  0
LINE
  8
0
 10
23.8872
 20
309.986
 11
23.7482
 21
310.226
  0
LINE
  8
0
 10
23.7482
 20
310.226
 11
23.7
 21
310.5
  0
LINE
  8
0
 10
23.7
 20
310.5
 11
23.7482
 21
310.774
  0
LINE
  8
0
 10
23.7482
 20
310.774
 11
23.8872
 21
311.014
  0
LINE
  8
0
 10
23.8872
 20
311.014
 11
24.1
 21
311.193
  0
LINE
  8
0
 10
24.1
 20
311.193
 11
24.3611
 21
311.288
  0
LINE
  8
0
 10
24.3611
 20
311.288
 11
24.6389
 21
311.288
  0
LINE
  8
0
 10
24.6389
 20
311.288
 11
24.9
 21
311.193
  0
LINE
  8
0
 10
24.9
 20
311.193
 11
25.1128
 21
311.014
  0
LINE
  8
0
 10
25.1128
 20
311.014
 11
25.2518
 21
310.774
  0
LINE
  8
0
 10
25.2518
 20
310.774
 11
25.3
 21
310.5
  0
LINE
  8
0
 10
25.3
 20
310.5
 11
25.2518
 21
310.226
  0
LINE
  8
0
 10
25.2518
 20
310.226
 11
25.1128
 21
309.986
  0
LINE
  8
0
 10
25.1128
 20
309.986
 11
24.9
 21
309.807
  0
LINE
  8
0
 10
24.9
 20
309.807
 11
24.6389
 21
309.712
  0
LINE
  8
0
 10
24.6389
 20
309.712
 11
24.3611
 21
309.712
  0
LINE
  8
0
 10
24.3611
 20
304.712
 11
24.1
 21
304.807
  0
LINE
  8
0
 10
24.1
 20
304.807
 11
23.8872
 21
304.986
  0
LINE
  8
0
 10
23.8872
 20
304.986
 11
23.7482
 21
305.226
  0
LINE
  8
0
 10
23.7482
 20
305.226
 11
23.7
 21
305.5
  0
LINE
  8
0
 10
23.7
 20
305.5
 11
23.7482
 21
305.774
  0
LINE
  8
0
 10
23.7482
 20
305.774
 11
23.8872
 21
306.014
  0
LINE
  8
0
 10
23.8872
 20
306.014
 11
24.1
 21
306.193
  0
LINE
  8
0
 10
24.1
 20
306.193
 11
24.3611
 21
306.288
  0
LINE
  8
0
 10
24.3611
 20
306.288
 11
24.6389
 21
306.288
  0
LINE
  8
0
 10
24.6389
 20
306.288
 11
24.9
 21
306.193
  0
LINE
  8
0
 10
24.9
 20
306.193
 11
25.1128
 21
306.014
  0
LINE
  8
0
 10
25.1128
 20
306.014
 11
25.2518
 21
305.774
  0
LINE
  8
0
 10
25.2518
 20
305.774
 11
25.3
 21
305.5
  0
LINE
  8
0
 10
25.3
 20
305.5
 11
25.2518
 21
305.226
  0
LINE
  8
0
 10
25.2518
 20
305.226
 11
25.1128
 21
304.986
  0
LINE
  8
0
 10
25.1128
 20
304.986
 11
24.9
 21
304.807
  0
LINE
  8
0
 10
24.9
 20
304.807
 11
24.6389
 21
304.712
  0
LINE
  8
0
 10
24.6389
 20
304.712
 11
24.3611
 21
304.712
  0
LINE
  8
0
 10
22.3611
 20
289.712
 11
22.1
 21
289.807
  0
LINE
  8
0
 10
22.1
 20
289.807
 11
21.8872
 21
289.986
  0
LINE
  8
0
 10
21.8872
 20
289.986
 11
21.7482
 21
290.226
  0
LINE
  8
0
 10
21.7482
 20
290.226
 11
21.7
 21
290.5
  0
LINE
  8
0
 10
21.7
 20
290.5
 11
21.7482
 21
290.774
  0
LINE
  8
0
 10
21.7482
 20
290.774
 11
21.8872
 21
291.014
  0
LINE
  8
0
 10
21.8872
 20
291.014
 11
22.1
 21
291.193
  0
LINE
  8
0
 10
22.1
 20
291.193
 11
22.3611
 21
291.288
  0
LINE
  8
0
 10
22.3611
 20
291.288
 11
22.6389
 21
291.288
  0
LINE
  8
0
 10
22.6389
 20
291.288
 11
22.9
 21
291.193
  0
LINE
  8
0
 10
22.9
 20
291.193
 11
23.1128
 21
291.014
  0
LINE
  8
0
 10
23.1128
 20
291.014
 11
23.2518
 21
290.774
  0
LINE
  8
0
 10
23.2518
 20
290.774
 11
23.3
 21
290.5
  0
LINE
  8
0
 10
23.3
 20
290.5
 11
23.2518
 21
290.226
  0
LINE
  8
0
 10
23.2518
 20
290.226
 11
23.1128
 21
289.986
  0
LINE
  8
0
 10
23.1128
 20
289.986
 11
22.9
 21
289.807
  0
LINE
  8
0
 10
22.9
 20
289.807
 11
22.6389
 21
289.712
  0
LINE
  8
0
 10
22.6389
 20
289.712
 11
22.3611
 21
289.712
  0
LINE
  8
0
 10
32.3611
 20
284.712
 11
32.1
 21
284.807
  0
LINE
  8
0
 10
32.1
 20
284.807
 11
31.8872
 21
284.986
  0
LINE
  8
0
 10
31.8872
 20
284.986
 11
31.7482
 21
285.226
  0
LINE
  8
0
 10
31.7482
 20
285.226
 11
31.7
 21
285.5
  0
LINE
  8
0
 10
31.7
 20
285.5
 11
31.7482
 21
285.774
  0
LINE
  8
0
 10
31.7482
 20
285.774
 11
31.8872
 21
286.014
  0
LINE
  8
0
 10
31.8872
 20
286.014
 11
32.1
 21
286.193
  0
LINE
  8
0
 10
32.1
 20
286.193
 11
32.3611
 21
286.288
  0
LINE
  8
0
 10
32.3611
 20
286.288
 11
32.6389
 21
286.288
  0
LINE
  8
0
 10
32.6389
 20
286.288
 11
32.9
 21
286.193
  0
LINE
  8
0
 10
32.9
 20
286.193
 11
33.1128
 21
286.014
  0
LINE
  8
0
 10
33.1128
 20
286.014
 11
33.2518
 21
285.774
  0
LINE
  8
0
 10
33.2518
 20
285.774
 11
33.3
 21
285.5
  0
LINE
  8
0
 10
33.3
 20
285.5
 11
33.2518
 21
285.226
  0
LINE
  8
0
 10
33.2518
 20
285.226
 11
33.1128
 21
284.986
  0
LINE
  8
0
 10
33.1128
 20
284.986
 11
32.9
 21
284.807
  0
LINE
  8
0
 10
32.9
 20
284.807
 11
32.6389
 21
284.712
  0
LINE
  8
0
 10
32.6389
 20
284.712
 11
32.3611
 21
284.712
  0
LINE
  8
0
 10
28.3611
 20
279.712
 11
28.1
 21
279.807
  0
LINE
  8
0
 10
28.1
 20
279.807
 11
27.8872
 21
279.986
  0
LINE
  8
0
 10
27.8872
 20
279.986
 11
27.7482
 21
280.226
  0
LINE
  8
0
 10
27.7482
 20
280.226
 11
27.7
 21
280.5
  0
LINE
  8
0
 10
27.7
 20
280.5
 11
27.7482
 21
280.774
  0
LINE
  8
0
 10
27.7482
 20
280.774
 11
27.8872
 21
281.014
  0
LINE
  8
0
 10
27.8872
 20
281.014
 11
28.1
 21
281.193
  0
LINE
  8
0
 10
28.1
 20
281.193
 11
28.3611
 21
281.288
  0
LINE
  8
0
 10
28.3611
 20
281.288
 11
28.6389
 21
281.288
  0
LINE
  8
0
 10
28.6389
 20
281.288
 11
28.9
 21
281.193
  0
LINE
  8
0
 10
28.9
 20
281.193
 11
29.1128
 21
281.014
  0
LINE
  8
0
 10
29.1128
 20
281.014
 11
29.2518
 21
280.774
  0
LINE
  8
0
 10
29.2518
 20
280.774
 11
29.3
 21
280.5
  0
LINE
  8
0
 10
29.3
 20
280.5
 11
29.2518
 21
280.226
  0
LINE
  8
0
 10
29.2518
 20
280.226
 11
29.1128
 21
279.986
  0
LINE
  8
0
 10
29.1128
 20
279.986
 11
28.9
 21
279.807
  0
LINE
  8
0
 10
28.9
 20
279.807
 11
28.6389
 21
279.712
  0
LINE
  8
0
 10
28.6389
 20
279.712
 11
28.3611
 21
279.712
  0
LINE
  8
0
 10
24.3611
 20
274.712
 11
24.1
 21
274.807
  0
LINE
  8
0
 10
24.1
 20
274.807
 11
23.8872
 21
274.986
  0
LINE
  8
0
 10
23.8872
 20
274.986
 11
23.7482
 21
275.226
  0
LINE
  8
0
 10
23.7482
 20
275.226
 11
23.7
 21
275.5
  0
LINE
  8
0
 10
23.7
 20
275.5
 11
23.7482
 21
275.774
  0
LINE
  8
0
 10
23.7482
 20
275.774
 11
23.8872
 21
276.014
  0
LINE
  8
0
 10
23.8872
 20
276.014
 11
24.1
 21
276.193
  0
LINE
  8
0
 10
24.1
 20
276.193
 11
24.3611
 21
276.288
  0
LINE
  8
0
 10
24.3611
 20
276.288
 11
24.6389
 21
276.288
  0
LINE
  8
0
 10
24.6389
 20
276.288
 11
24.9
 21
276.193
  0
LINE
  8
0
 10
24.9
 20
276.193
 11
25.1128
 21
276.014
  0
LINE
  8
0
 10
25.1128
 20
276.014
 11
25.2518
 21
275.774
  0
LINE
  8
0
 10
25.2518
 20
275.774
 11
25.3
 21
275.5
  0
LINE
  8
0
 10
25.3
 20
275.5
 11
25.2518
 21
275.226
  0
LINE
  8
0
 10
25.2518
 20
275.226
 11
25.1128
 21
274.986
  0
LINE
  8
0
 10
25.1128
 20
274.986
 11
24.9
 21
274.807
  0
LINE
  8
0
 10
24.9
 20
274.807
 11
24.6389
 21
274.712
  0
LINE
  8
0
 10
24.6389
 20
274.712
 11
24.3611
 21
274.712
  0
LINE
  8
0
 10
22.3611
 20
269.712
 11
22.1
 21
269.807
  0
LINE
  8
0
 10
22.1
 20
269.807
 11
21.8872
 21
269.986
  0
LINE
  8
0
 10
21.8872
 20
269.986
 11
21.7482
 21
270.226
  0
LINE
  8
0
 10
21.7482
 20
270.226
 11
21.7
 21
270.5
  0
LINE
  8
0
 10
21.7
 20
270.5
 11
21.7482
 21
270.774
  0
LINE
  8
0
 10
21.7482
 20
270.774
 11
21.8872
 21
271.014
  0
LINE
  8
0
 10
21.8872
 20
271.014
 11
22.1
 21
271.193
  0
LINE
  8
0
 10
22.1
 20
271.193
 11
22.3611
 21
271.288
  0
LINE
  8
0
 10
22.3611
 20
271.288
 11
22.6389
 21
271.288
  0
LINE
  8
0
 10
22.6389
 20
271.288
 11
22.9
 21
271.193
  0
LINE
  8
0
 10
22.9
 20
271.193
 11
23.1128
 21
271.014
  0
LINE
  8
0
 10
23.1128
 20
271.014
 11
23.2518
 21
270.774
  0
LINE
  8
0
 10
23.2518
 20
270.774
 11
23.3
 21
270.5
  0
LINE
  8
0
 10
23.3
 20
270.5
 11
23.2518
 21
270.226
  0
LINE
  8
0
 10
23.2518
 20
270.226
 11
23.1128
 21
269.986
  0
LINE
  8
0
 10
23.1128
 20
269.986
 11
22.9
 21
269.807
  0
LINE
  8
0
 10
22.9
 20
269.807
 11
22.6389
 21
269.712
  0
LINE
  8
0
 10
22.6389
 20
269.712
 11
22.3611
 21
269.712
  0
LINE
  8
0
 10
32.3611
 20
264.712
 11
32.1
 21
264.807
  0
LINE
  8
0
 10
32.1
 20
264.807
 11
31.8872
 21
264.986
  0
LINE
  8
0
 10
31.8872
 20
264.986
 11
31.7482
 21
265.226
  0
LINE
  8
0
 10
31.7482
 20
265.226
 11
31.7
 21
265.5
  0
LINE
  8
0
 10
31.7
 20
265.5
 11
31.7482
 21
265.774
  0
LINE
  8
0
 10
31.7482
 20
265.774
 11
31.8872
 21
266.014
  0
LINE
  8
0
 10
31.8872
 20
266.014
 11
32.1
 21
266.193
  0
LINE
  8
0
 10
32.1
 20
266.193
 11
32.3611
 21
266.288
  0
LINE
  8
0
 10
32.3611
 20
266.288
 11
32.6389
 21
266.288
  0
LINE
  8
0
 10
32.6389
 20
266.288
 11
32.9
 21
266.193
  0
LINE
  8
0
 10
32.9
 20
266.193
 11
33.1128
 21
266.014
  0
LINE
  8
0
 10
33.1128
 20
266.014
 11
33.2518
 21
265.774
  0
LINE
  8
0
 10
33.2518
 20
265.774
 11
33.3
 21
265.5
  0
LINE
  8
0
 10
33.3
 20
265.5
 11
33.2518
 21
265.226
  0
LINE
  8
0
 10
33.2518
 20
265.226
 11
33.1128
 21
264.986
  0
LINE
  8
0
 10
33.1128
 20
264.986
 11
32.9
 21
264.807
  0
LINE
  8
0
 10
32.9
 20
264.807
 11
32.6389
 21
264.712
  0
LINE
  8
0
 10
32.6389
 20
264.712
 11
32.3611
 21
264.712
  0
LINE
  8
0
 10
32.3611
 20
259.712
 11
32.1
 21
259.807
  0
LINE
  8
0
 10
32.1
 20
259.807
 11
31.8872
 21
259.986
  0
LINE
  8
0
 10
31.8872
 20
259.986
 11
31.7482
 21
260.226
  0
LINE
  8
0
 10
31.7482
 20
260.226
 11
31.7
 21
260.5
  0
LINE
  8
0
 10
31.7
 20
260.5
 11
31.7482
 21
260.774
  0
LINE
  8
0
 10
31.7482
 20
260.774
 11
31.8872
 21
261.014
  0
LINE
  8
0
 10
31.8872
 20
261.014
 11
32.1
 21
261.193
  0
LINE
  8
0
 10
32.1
 20
261.193
 11
32.3611
 21
261.288
  0
LINE
  8
0
 10
32.3611
 20
261.288
 11
32.6389
 21
261.288
  0
LINE
  8
0
 10
32.6389
 20
261.288
 11
32.9
 21
261.193
  0
LINE
  8
0
 10
32.9
 20
261.193
 11
33.1128
 21
261.014
  0
LINE
  8
0
 10
33.1128
 20
261.014
 11
33.2518
 21
260.774
  0
LINE
  8
0
 10
33.2518
 20
260.774
 11
33.3
 21
260.5
  0
LINE
  8
0
 10
33.3
 20
260.5
 11
33.2518
 21
260.226
  0
LINE
  8
0
 10
33.2518
 20
260.226
 11
33.1128
 21
259.986
  0
LINE
  8
0
 10
33.1128
 20
259.986
 11
32.9
 21
259.807
  0
LINE
  8
0
 10
32.9
 20
259.807
 11
32.6389
 21
259.712
  0
LINE
  8
0
 10
32.6389
 20
259.712
 11
32.3611
 21
259.712
  0
LINE
  8
0
 10
24.3611
 20
229.712
 11
24.1
 21
229.807
  0
LINE
  8
0
 10
24.1
 20
229.807
 11
23.8872
 21
229.986
  0
LINE
  8
0
 10
23.8872
 20
229.986
 11
23.7482
 21
230.226
  0
LINE
  8
0
 10
23.7482
 20
230.226
 11
23.7
 21
230.5
  0
LINE
  8
0
 10
23.7
 20
230.5
 11
23.7482
 21
230.774
  0
LINE
  8
0
 10
23.7482
 20
230.774
 11
23.8872
 21
231.014
  0
LINE
  8
0
 10
23.8872
 20
231.014
 11
24.1
 21
231.193
  0
LINE
  8
0
 10
24.1
 20
231.193
 11
24.3611
 21
231.288
  0
LINE
  8
0
 10
24.3611
 20
231.288
 11
24.6389
 21
231.288
  0
LINE
  8
0
 10
24.6389
 20
231.288
 11
24.9
 21
231.193
  0
LINE
  8
0
 10
24.9
 20
231.193
 11
25.1128
 21
231.014
  0
LINE
  8
0
 10
25.1128
 20
231.014
 11
25.2518
 21
230.774
  0
LINE
  8
0
 10
25.2518
 20
230.774
 11
25.3
 21
230.5
  0
LINE
  8
0
 10
25.3
 20
230.5
 11
25.2518
 21
230.226
  0
LINE
  8
0
 10
25.2518
 20
230.226
 11
25.1128
 21
229.986
  0
LINE
  8
0
 10
25.1128
 20
229.986
 11
24.9
 21
229.807
  0
LINE
  8
0
 10
24.9
 20
229.807
 11
24.6389
 21
229.712
  0
LINE
  8
0
 10
24.6389
 20
229.712
 11
24.3611
 21
229.712
  0
LINE
  8
0
 10
24.3611
 20
224.712
 11
24.1
 21
224.807
  0
LINE
  8
0
 10
24.1
 20
224.807
 11
23.8872
 21
224.986
  0
LINE
  8
0
 10
23.8872
 20
224.986
 11
23.7482
 21
225.226
  0
LINE
  8
0
 10
23.7482
 20
225.226
 11
23.7
 21
225.5
  0
LINE
  8
0
 10
23.7
 20
225.5
 11
23.7482
 21
225.774
  0
LINE
  8
0
 10
23.7482
 20
225.774
 11
23.8872
 21
226.014
  0
LINE
  8
0
 10
23.8872
 20
226.014
 11
24.1
 21
226.193
  0
LINE
  8
0
 10
24.1
 20
226.193
 11
24.3611
 21
226.288
  0
LINE
  8
0
 10
24.3611
 20
226.288
 11
24.6389
 21
226.288
  0
LINE
  8
0
 10
24.6389
 20
226.288
 11
24.9
 21
226.193
  0
LINE
  8
0
 10
24.9
 20
226.193
 11
25.1128
 21
226.014
  0
LINE
  8
0
 10
25.1128
 20
226.014
 11
25.2518
 21
225.774
  0
LINE
  8
0
 10
25.2518
 20
225.774
 11
25.3
 21
225.5
  0
LINE
  8
0
 10
25.3
 20
225.5
 11
25.2518
 21
225.226
  0
LINE
  8
0
 10
25.2518
 20
225.226
 11
25.1128
 21
224.986
  0
LINE
  8
0
 10
25.1128
 20
224.986
 11
24.9
 21
224.807
  0
LINE
  8
0
 10
24.9
 20
224.807
 11
24.6389
 21
224.712
  0
LINE
  8
0
 10
24.6389
 20
224.712
 11
24.3611
 21
224.712
  0
LINE
  8
0
 10
22.3611
 20
209.712
 11
22.1
 21
209.807
  0
LINE
  8
0
 10
22.1
 20
209.807
 11
21.8872
 21
209.986
  0
LINE
  8
0
 10
21.8872
 20
209.986
 11
21.7482
 21
210.226
  0
LINE
  8
0
 10
21.7482
 20
210.226
 11
21.7
 21
210.5
  0
LINE
  8
0
 10
21.7
 20
210.5
 11
21.7482
 21
210.774
  0
LINE
  8
0
 10
21.7482
 20
210.774
 11
21.8872
 21
211.014
  0
LINE
  8
0
 10
21.8872
 20
211.014
 11
22.1
 21
211.193
  0
LINE
  8
0
 10
22.1
 20
211.193
 11
22.3611
 21
211.288
  0
LINE
  8
0
 10
22.3611
 20
211.288
 11
22.6389
 21
211.288
  0
LINE
  8
0
 10
22.6389
 20
211.288
 11
22.9
 21
211.193
  0
LINE
  8
0
 10
22.9
 20
211.193
 11
23.1128
 21
211.014
  0
LINE
  8
0
 10
23.1128
 20
211.014
 11
23.2518
 21
210.774
  0
LINE
  8
0
 10
23.2518
 20
210.774
 11
23.3
 21
210.5
  0
LINE
  8
0
 10
23.3
 20
210.5
 11
23.2518
 21
210.226
  0
LINE
  8
0
 10
23.2518
 20
210.226
 11
23.1128
 21
209.986
  0
LINE
  8
0
 10
23.1128
 20
209.986
 11
22.9
 21
209.807
  0
LINE
  8
0
 10
22.9
 20
209.807
 11
22.6389
 21
209.712
  0
LINE
  8
0
 10
22.6389
 20
209.712
 11
22.3611
 21
209.712
  0
LINE
  8
0
 10
32.3611
 20
204.712
 11
32.1
 21
204.807
  0
LINE
  8
0
 10
32.1
 20
204.807
 11
31.8872
 21
204.986
  0
LINE
  8
0
 10
31.8872
 20
204.986
 11
31.7482
 21
205.226
  0
LINE
  8
0
 10
31.7482
 20
205.226
 11
31.7
 21
205.5
  0
LINE
  8
0
 10
31.7
 20
205.5
 11
31.7482
 21
205.774
  0
LINE
  8
0
 10
31.7482
 20
205.774
 11
31.8872
 21
206.014
  0
LINE
  8
0
 10
31.8872
 20
206.014
 11
32.1
 21
206.193
  0
LINE
  8
0
 10
32.1
 20
206.193
 11
32.3611
 21
206.288
  0
LINE
  8
0
 10
32.3611
 20
206.288
 11
32.6389
 21
206.288
  0
LINE
  8
0
 10
32.6389
 20
206.288
 11
32.9
 21
206.193
  0
LINE
  8
0
 10
32.9
 20
206.193
 11
33.1128
 21
206.014
  0
LINE
  8
0
 10
33.1128
 20
206.014
 11
33.2518
 21
205.774
  0
LINE
  8
0
 10
33.2518
 20
205.774
 11
33.3
 21
205.5
  0
LINE
  8
0
 10
33.3
 20
205.5
 11
33.2518
 21
205.226
  0
LINE
  8
0
 10
33.2518
 20
205.226
 11
33.1128
 21
204.986
  0
LINE
  8
0
 10
33.1128
 20
204.986
 11
32.9
 21
204.807
  0
LINE
  8
0
 10
32.9
 20
204.807
 11
32.6389
 21
204.712
  0
LINE
  8
0
 10
32.6389
 20
204.712
 11
32.3611
 21
204.712
  0
LINE
  8
0
 10
28.3611
 20
199.712
 11
28.1
 21
199.807
  0
LINE
  8
0
 10
28.1
 20
199.807
 11
27.8872
 21
199.986
  0
LINE
  8
0
 10
27.8872
 20
199.986
 11
27.7482
 21
200.226
  0
LINE
  8
0
 10
27.7482
 20
200.226
 11
27.7
 21
200.5
  0
LINE
  8
0
 10
27.7
 20
200.5
 11
27.7482
 21
200.774
  0
LINE
  8
0
 10
27.7482
 20
200.774
 11
27.8872
 21
201.014
  0
LINE
  8
0
 10
27.8872
 20
201.014
 11
28.1
 21
201.193
  0
LINE
  8
0
 10
28.1
 20
201.193
 11
28.3611
 21
201.288
  0
LINE
  8
0
 10
28.3611
 20
201.288
 11
28.6389
 21
201.288
  0
LINE
  8
0
 10
28.6389
 20
201.288
 11
28.9
 21
201.193
  0
LINE
  8
0
 10
28.9
 20
201.193
 11
29.1128
 21
201.014
  0
LINE
  8
0
 10
29.1128
 20
201.014
 11
29.2518
 21
200.774
  0
LINE
  8
0
 10
29.2518
 20
200.774
 11
29.3
 21
200.5
  0
LINE
  8
0
 10
29.3
 20
200.5
 11
29.2518
 21
200.226
  0
LINE
  8
0
 10
29.2518
 20
200.226
 11
29.1128
 21
199.986
  0
LINE
  8
0
 10
29.1128
 20
199.986
 11
28.9
 21
199.807
  0
LINE
  8
0
 10
28.9
 20
199.807
 11
28.6389
 21
199.712
  0
LINE
  8
0
 10
28.6389
 20
199.712
 11
28.3611
 21
199.712
  0
LINE
  8
0
 10
24.3611
 20
194.712
 11
24.1
 21
194.807
  0
LINE
  8
0
 10
24.1
 20
194.807
 11
23.8872
 21
194.986
  0
LINE
  8
0
 10
23.8872
 20
194.986
 11
23.7482
 21
195.226
  0
LINE
  8
0
 10
23.7482
 20
195.226
 11
23.7
 21
195.5
  0
LINE
  8
0
 10
23.7
 20
195.5
 11
23.7482
 21
195.774
  0
LINE
  8
0
 10
23.7482
 20
195.774
 11
23.8872
 21
196.014
  0
LINE
  8
0
 10
23.8872
 20
196.014
 11
24.1
 21
196.193
  0
LINE
  8
0
 10
24.1
 20
196.193
 11
24.3611
 21
196.288
  0
LINE
  8
0
 10
24.3611
 20
196.288
 11
24.6389
 21
196.288
  0
LINE
  8
0
 10
24.6389
 20
196.288
 11
24.9
 21
196.193
  0
LINE
  8
0
 10
24.9
 20
196.193
 11
25.1128
 21
196.014
  0
LINE
  8
0
 10
25.1128
 20
196.014
 11
25.2518
 21
195.774
  0
LINE
  8
0
 10
25.2518
 20
195.774
 11
25.3
 21
195.5
  0
LINE
  8
0
 10
25.3
 20
195.5
 11
25.2518
 21
195.226
  0
LINE
  8
0
 10
25.2518
 20
195.226
 11
25.1128
 21
194.986
  0
LINE
  8
0
 10
25.1128
 20
194.986
 11
24.9
 21
194.807
  0
LINE
  8
0
 10
24.9
 20
194.807
 11
24.6389
 21
194.712
  0
LINE
  8
0
 10
24.6389
 20
194.712
 11
24.3611
 21
194.712
  0
LINE
  8
0
 10
22.3611
 20
189.712
 11
22.1
 21
189.807
  0
LINE
  8
0
 10
22.1
 20
189.807
 11
21.8872
 21
189.986
  0
LINE
  8
0
 10
21.8872
 20
189.986
 11
21.7482
 21
190.226
  0
LINE
  8
0
 10
21.7482
 20
190.226
 11
21.7
 21
190.5
  0
LINE
  8
0
 10
21.7
 20
190.5
 11
21.7482
 21
190.774
  0
LINE
  8
0
 10
21.7482
 20
190.774
 11
21.8872
 21
191.014
  0
LINE
  8
0
 10
21.8872
 20
191.014
 11
22.1
 21
191.193
  0
LINE
  8
0
 10
22.1
 20
191.193
 11
22.3611
 21
191.288
  0
LINE
  8
0
 10
22.3611
 20
191.288
 11
22.6389
 21
191.288
  0
LINE
  8
0
 10
22.6389
 20
191.288
 11
22.9
 21
191.193
  0
LINE
  8
0
 10
22.9
 20
191.193
 11
23.1128
 21
191.014
  0
LINE
  8
0
 10
23.1128
 20
191.014
 11
23.2518
 21
190.774
  0
LINE
  8
0
 10
23.2518
 20
190.774
 11
23.3
 21
190.5
  0
LINE
  8
0
 10
23.3
 20
190.5
 11
23.2518
 21
190.226
  0
LINE
  8
0
 10
23.2518
 20
190.226
 11
23.1128
 21
189.986
  0
LINE
  8
0
 10
23.1128
 20
189.986
 11
22.9
 21
189.807
  0
LINE
  8
0
 10
22.9
 20
189.807
 11
22.6389
 21
189.712
  0
LINE
  8
0
 10
22.6389
 20
189.712
 11
22.3611
 21
189.712
  0
LINE
  8
0
 10
32.3611
 20
184.712
 11
32.1
 21
184.807
  0
LINE
  8
0
 10
32.1
 20
184.807
 11
31.8872
 21
184.986
  0
LINE
  8
0
 10
31.8872
 20
184.986
 11
31.7482
 21
185.226
  0
LINE
  8
0
 10
31.7482
 20
185.226
 11
31.7
 21
185.5
  0
LINE
  8
0
 10
31.7
 20
185.5
 11
31.7482
 21
185.774
  0
LINE
  8
0
 10
31.7482
 20
185.774
 11
31.8872
 21
186.014
  0
LINE
  8
0
 10
31.8872
 20
186.014
 11
32.1
 21
186.193
  0
LINE
  8
0
 10
32.1
 20
186.193
 11
32.3611
 21
186.288
  0
LINE
  8
0
 10
32.3611
 20
186.288
 11
32.6389
 21
186.288
  0
LINE
  8
0
 10
32.6389
 20
186.288
 11
32.9
 21
186.193
  0
LINE
  8
0
 10
32.9
 20
186.193
 11
33.1128
 21
186.014
  0
LINE
  8
0
 10
33.1128
 20
186.014
 11
33.2518
 21
185.774
  0
LINE
  8
0
 10
33.2518
 20
185.774
 11
33.3
 21
185.5
  0
LINE
  8
0
 10
33.3
 20
185.5
 11
33.2518
 21
185.226
  0
LINE
  8
0
 10
33.2518
 20
185.226
 11
33.1128
 21
184.986
  0
LINE
  8
0
 10
33.1128
 20
184.986
 11
32.9
 21
184.807
  0
LINE
  8
0
 10
32.9
 20
184.807
 11
32.6389
 21
184.712
  0
LINE
  8
0
 10
32.6389
 20
184.712
 11
32.3611
 21
184.712
  0
LINE
  8
0
 10
28.3611
 20
164.712
 11
28.1
 21
164.807
  0
LINE
  8
0
 10
28.1
 20
164.807
 11
27.8872
 21
164.986
  0
LINE
  8
0
 10
27.8872
 20
164.986
 11
27.7482
 21
165.226
  0
LINE
  8
0
 10
27.7482
 20
165.226
 11
27.7
 21
165.5
  0
LINE
  8
0
 10
27.7
 20
165.5
 11
27.7482
 21
165.774
  0
LINE
  8
0
 10
27.7482
 20
165.774
 11
27.8872
 21
166.014
  0
LINE
  8
0
 10
27.8872
 20
166.014
 11
28.1
 21
166.193
  0
LINE
  8
0
 10
28.1
 20
166.193
 11
28.3611
 21
166.288
  0
LINE
  8
0
 10
28.3611
 20
166.288
 11
28.6389
 21
166.288
  0
LINE
  8
0
 10
28.6389
 20
166.288
 11
28.9
 21
166.193
  0
LINE
  8
0
 10
28.9
 20
166.193
 11
29.1128
 21
166.014
  0
LINE
  8
0
 10
29.1128
 20
166.014
 11
29.2518
 21
165.774
  0
LINE
  8
0
 10
29.2518
 20
165.774
 11
29.3
 21
165.5
  0
LINE
  8
0
 10
29.3
 20
165.5
 11
29.2518
 21
165.226
  0
LINE
  8
0
 10
29.2518
 20
165.226
 11
29.1128
 21
164.986
  0
LINE
  8
0
 10
29.1128
 20
164.986
 11
28.9
 21
164.807
  0
LINE
  8
0
 10
28.9
 20
164.807
 11
28.6389
 21
164.712
  0
LINE
  8
0
 10
28.6389
 20
164.712
 11
28.3611
 21
164.712
  0
LINE
  8
0
 10
24.3611
 20
149.712
 11
24.1
 21
149.807
  0
LINE
  8
0
 10
24.1
 20
149.807
 11
23.8872
 21
149.986
  0
LINE
  8
0
 10
23.8872
 20
149.986
 11
23.7482
 21
150.226
  0
LINE
  8
0
 10
23.7482
 20
150.226
 11
23.7
 21
150.5
  0
LINE
  8
0
 10
23.7
 20
150.5
 11
23.7482
 21
150.774
  0
LINE
  8
0
 10
23.7482
 20
150.774
 11
23.8872
 21
151.014
  0
LINE
  8
0
 10
23.8872
 20
151.014
 11
24.1
 21
151.193
  0
LINE
  8
0
 10
24.1
 20
151.193
 11
24.3611
 21
151.288
  0
LINE
  8
0
 10
24.3611
 20
151.288
 11
24.6389
 21
151.288
  0
LINE
  8
0
 10
24.6389
 20
151.288
 11
24.9
 21
151.193
  0
LINE
  8
0
 10
24.9
 20
151.193
 11
25.1128
 21
151.014
  0
LINE
  8
0
 10
25.1128
 20
151.014
 11
25.2518
 21
150.774
  0
LINE
  8
0
 10
25.2518
 20
150.774
 11
25.3
 21
150.5
  0
LINE
  8
0
 10
25.3
 20
150.5
 11
25.2518
 21
150.226
  0
LINE
  8
0
 10
25.2518
 20
150.226
 11
25.1128
 21
149.986
  0
LINE
  8
0
 10
25.1128
 20
149.986
 11
24.9
 21
149.807
  0
LINE
  8
0
 10
24.9
 20
149.807
 11
24.6389
 21
149.712
  0
LINE
  8
0
 10
24.6389
 20
149.712
 11
24.3611
 21
149.712
  0
LINE
  8
0
 10
24.3611
 20
144.712
 11
24.1
 21
144.807
  0
LINE
  8
0
 10
24.1
 20
144.807
 11
23.8872
 21
144.986
  0
LINE
  8
0
 10
23.8872
 20
144.986
 11
23.7482
 21
145.226
  0
LINE
  8
0
 10
23.7482
 20
145.226
 11
23.7
 21
145.5
  0
LINE
  8
0
 10
23.7
 20
145.5
 11
23.7482
 21
145.774
  0
LINE
  8
0
 10
23.7482
 20
145.774
 11
23.8872
 21
146.014
  0
LINE
  8
0
 10
23.8872
 20
146.014
 11
24.1
 21
146.193
  0
LINE
  8
0
 10
24.1
 20
146.193
 11
24.3611
 21
146.288
  0
LINE
  8
0
 10
24.3611
 20
146.288
 11
24.6389
 21
146.288
  0
LINE
  8
0
 10
24.6389
 20
146.288
 11
24.9
 21
146.193
  0
LINE
  8
0
 10
24.9
 20
146.193
 11
25.1128
 21
146.014
  0
LINE
  8
0
 10
25.1128
 20
146.014
 11
25.2518
 21
145.774
  0
LINE
  8
0
 10
25.2518
 20
145.774
 11
25.3
 21
145.5
  0
LINE
  8
0
 10
25.3
 20
145.5
 11
25.2518
 21
145.226
  0
LINE
  8
0
 10
25.2518
 20
145.226
 11
25.1128
 21
144.986
  0
LINE
  8
0
 10
25.1128
 20
144.986
 11
24.9
 21
144.807
  0
LINE
  8
0
 10
24.9
 20
144.807
 11
24.6389
 21
144.712
  0
LINE
  8
0
 10
24.6389
 20
144.712
 11
24.3611
 21
144.712
  0
LINE
  8
0
 10
22.3611
 20
129.712
 11
22.1
 21
129.807
  0
LINE
  8
0
 10
22.1
 20
129.807
 11
21.8872
 21
129.986
  0
LINE
  8
0
 10
21.8872
 20
129.986
 11
21.7482
 21
130.226
  0
LINE
  8
0
 10
21.7482
 20
130.226
 11
21.7
 21
130.5
  0
LINE
  8
0
 10
21.7
 20
130.5
 11
21.7482
 21
130.774
  0
LINE
  8
0
 10
21.7482
 20
130.774
 11
21.8872
 21
131.014
  0
LINE
  8
0
 10
21.8872
 20
131.014
 11
22.1
 21
131.193
  0
LINE
  8
0
 10
22.1
 20
131.193
 11
22.3611
 21
131.288
  0
LINE
  8
0
 10
22.3611
 20
131.288
 11
22.6389
 21
131.288
  0
LINE
  8
0
 10
22.6389
 20
131.288
 11
22.9
 21
131.193
  0
LINE
  8
0
 10
22.9
 20
131.193
 11
23.1128
 21
131.014
  0
LINE
  8
0
 10
23.1128
 20
131.014
 11
23.2518
 21
130.774
  0
LINE
  8
0
 10
23.2518
 20
130.774
 11
23.3
 21
130.5
  0
LINE
  8
0
 10
23.3
 20
130.5
 11
23.2518
 21
130.226
  0
LINE
  8
0
 10
23.2518
 20
130.226
 11
23.1128
 21
129.986
  0
LINE
  8
0
 10
23.1128
 20
129.986
 11
22.9
 21
129.807
  0
LINE
  8
0
 10
22.9
 20
129.807
 11
22.6389
 21
129.712
  0
LINE
  8
0
 10
22.6389
 20
129.712
 11
22.3611
 21
129.712
  0
LINE
  8
0
 10
22.3611
 20
124.712
 11
22.1
 21
124.807
  0
LINE
  8
0
 10
22.1
 20
124.807
 11
21.8872
 21
124.986
  0
LINE
  8
0
 10
21.8872
 20
124.986
 11
21.7482
 21
125.226
  0
LINE
  8
0
 10
21.7482
 20
125.226
 11
21.7
 21
125.5
  0
LINE
  8
0
 10
21.7
 20
125.5
 11
21.7482
 21
125.774
  0
LINE
  8
0
 10
21.7482
 20
125.774
 11
21.8872
 21
126.014
  0
LINE
  8
0
 10
21.8872
 20
126.014
 11
22.1
 21
126.193
  0
LINE
  8
0
 10
22.1
 20
126.193
 11
22.3611
 21
126.288
  0
LINE
  8
0
 10
22.3611
 20
126.288
 11
22.6389
 21
126.288
  0
LINE
  8
0
 10
22.6389
 20
126.288
 11
22.9
 21
126.193
  0
LINE
  8
0
 10
22.9
 20
126.193
 11
23.1128
 21
126.014
  0
LINE
  8
0
 10
23.1128
 20
126.014
 11
23.2518
 21
125.774
  0
LINE
  8
0
 10
23.2518
 20
125.774
 11
23.3
 21
125.5
  0
LINE
  8
0
 10
23.3
 20
125.5
 11
23.2518
 21
125.226
  0
LINE
  8
0
 10
23.2518
 20
125.226
 11
23.1128
 21
124.986
  0
LINE
  8
0
 10
23.1128
 20
124.986
 11
22.9
 21
124.807
  0
LINE
  8
0
 10
22.9
 20
124.807
 11
22.6389
 21
124.712
  0
LINE
  8
0
 10
22.6389
 20
124.712
 11
22.3611
 21
124.712
  0
LINE
  8
0
 10
22.3611
 20
119.712
 11
22.1
 21
119.807
  0
LINE
  8
0
 10
22.1
 20
119.807
 11
21.8872
 21
119.986
  0
LINE
  8
0
 10
21.8872
 20
119.986
 11
21.7482
 21
120.226
  0
LINE
  8
0
 10
21.7482
 20
120.226
 11
21.7
 21
120.5
  0
LINE
  8
0
 10
21.7
 20
120.5
 11
21.7482
 21
120.774
  0
LINE
  8
0
 10
21.7482
 20
120.774
 11
21.8872
 21
121.014
  0
LINE
  8
0
 10
21.8872
 20
121.014
 11
22.1
 21
121.193
  0
LINE
  8
0
 10
22.1
 20
121.193
 11
22.3611
 21
121.288
  0
LINE
  8
0
 10
22.3611
 20
121.288
 11
22.6389
 21
121.288
  0
LINE
  8
0
 10
22.6389
 20
121.288
 11
22.9
 21
121.193
  0
LINE
  8
0
 10
22.9
 20
121.193
 11
23.1128
 21
121.014
  0
LINE
  8
0
 10
23.1128
 20
121.014
 11
23.2518
 21
120.774
  0
LINE
  8
0
 10
23.2518
 20
120.774
 11
23.3
 21
120.5
  0
LINE
  8
0
 10
23.3
 20
120.5
 11
23.2518
 21
120.226
  0
LINE
  8
0
 10
23.2518
 20
120.226
 11
23.1128
 21
119.986
  0
LINE
  8
0
 10
23.1128
 20
119.986
 11
22.9
 21
119.807
  0
LINE
  8
0
 10
22.9
 20
119.807
 11
22.6389
 21
119.712
  0
LINE
  8
0
 10
22.6389
 20
119.712
 11
22.3611
 21
119.712
  0
LINE
  8
0
 10
22.3611
 20
114.712
 11
22.1
 21
114.807
  0
LINE
  8
0
 10
22.1
 20
114.807
 11
21.8872
 21
114.986
  0
LINE
  8
0
 10
21.8872
 20
114.986
 11
21.7482
 21
115.226
  0
LINE
  8
0
 10
21.7482
 20
115.226
 11
21.7
 21
115.5
  0
LINE
  8
0
 10
21.7
 20
115.5
 11
21.7482
 21
115.774
  0
LINE
  8
0
 10
21.7482
 20
115.774
 11
21.8872
 21
116.014
  0
LINE
  8
0
 10
21.8872
 20
116.014
 11
22.1
 21
116.193
  0
LINE
  8
0
 10
22.1
 20
116.193
 11
22.3611
 21
116.288
  0
LINE
  8
0
 10
22.3611
 20
116.288
 11
22.6389
 21
116.288
  0
LINE
  8
0
 10
22.6389
 20
116.288
 11
22.9
 21
116.193
  0
LINE
  8
0
 10
22.9
 20
116.193
 11
23.1128
 21
116.014
  0
LINE
  8
0
 10
23.1128
 20
116.014
 11
23.2518
 21
115.774
  0
LINE
  8
0
 10
23.2518
 20
115.774
 11
23.3
 21
115.5
  0
LINE
  8
0
 10
23.3
 20
115.5
 11
23.2518
 21
115.226
  0
LINE
  8
0
 10
23.2518
 20
115.226
 11
23.1128
 21
114.986
  0
LINE
  8
0
 10
23.1128
 20
114.986
 11
22.9
 21
114.807
  0
LINE
  8
0
 10
22.9
 20
114.807
 11
22.6389
 21
114.712
  0
LINE
  8
0
 10
22.6389
 20
114.712
 11
22.3611
 21
114.712
  0
LINE
  8
0
 10
22.3611
 20
109.712
 11
22.1
 21
109.807
  0
LINE
  8
0
 10
22.1
 20
109.807
 11
21.8872
 21
109.986
  0
LINE
  8
0
 10
21.8872
 20
109.986
 11
21.7482
 21
110.226
  0
LINE
  8
0
 10
21.7482
 20
110.226
 11
21.7
 21
110.5
  0
LINE
  8
0
 10
21.7
 20
110.5
 11
21.7482
 21
110.774
  0
LINE
  8
0
 10
21.7482
 20
110.774
 11
21.8872
 21
111.014
  0
LINE
  8
0
 10
21.8872
 20
111.014
 11
22.1
 21
111.193
  0
LINE
  8
0
 10
22.1
 20
111.193
 11
22.3611
 21
111.288
  0
LINE
  8
0
 10
22.3611
 20
111.288
 11
22.6389
 21
111.288
  0
LINE
  8
0
 10
22.6389
 20
111.288
 11
22.9
 21
111.193
  0
LINE
  8
0
 10
22.9
 20
111.193
 11
23.1128
 21
111.014
  0
LINE
  8
0
 10
23.1128
 20
111.014
 11
23.2518
 21
110.774
  0
LINE
  8
0
 10
23.2518
 20
110.774
 11
23.3
 21
110.5
  0
LINE
  8
0
 10
23.3
 20
110.5
 11
23.2518
 21
110.226
  0
LINE
  8
0
 10
23.2518
 20
110.226
 11
23.1128
 21
109.986
  0
LINE
  8
0
 10
23.1128
 20
109.986
 11
22.9
 21
109.807
  0
LINE
  8
0
 10
22.9
 20
109.807
 11
22.6389
 21
109.712
  0
LINE
  8
0
 10
22.6389
 20
109.712
 11
22.3611
 21
109.712
  0
LINE
  8
0
 10
22.3611
 20
104.712
 11
22.1
 21
104.807
  0
LINE
  8
0
 10
22.1
 20
104.807
 11
21.8872
 21
104.986
  0
LINE
  8
0
 10
21.8872
 20
104.986
 11
21.7482
 21
105.226
  0
LINE
  8
0
 10
21.7482
 20
105.226
 11
21.7
 21
105.5
  0
LINE
  8
0
 10
21.7
 20
105.5
 11
21.7482
 21
105.774
  0
LINE
  8
0
 10
21.7482
 20
105.774
 11
21.8872
 21
106.014
  0
LINE
  8
0
 10
21.8872
 20
106.014
 11
22.1
 21
106.193
  0
LINE
  8
0
 10
22.1
 20
106.193
 11
22.3611
 21
106.288
  0
LINE
  8
0
 10
22.3611
 20
106.288
 11
22.6389
 21
106.288
  0
LINE
  8
0
 10
22.6389
 20
106.288
 11
22.9
 21
106.193
  0
LINE
  8
0
 10
22.9
 20
106.193
 11
23.1128
 21
106.014
  0
LINE
  8
0
 10
23.1128
 20
106.014
 11
23.2518
 21
105.774
  0
LINE
  8
0
 10
23.2518
 20
105.774
 11
23.3
 21
105.5
  0
LINE
  8
0
 10
23.3
 20
105.5
 11
23.2518
 21
105.226
  0
LINE
  8
0
 10
23.2518
 20
105.226
 11
23.1128
 21
104.986
  0
LINE
  8
0
 10
23.1128
 20
104.986
 11
22.9
 21
104.807
  0
LINE
  8
0
 10
22.9
 20
104.807
 11
22.6389
 21
104.712
  0
LINE
  8
0
 10
22.6389
 20
104.712
 11
22.3611
 21
104.712
  0
LINE
  8
0
 10
52.3611
 20
54.7121
 11
52.1
 21
54.8072
  0
LINE
  8
0
 10
52.1
 20
54.8072
 11
51.8872
 21
54.9858
  0
LINE
  8
0
 10
51.8872
 20
54.9858
 11
51.7482
 21
55.2264
  0
LINE
  8
0
 10
51.7482
 20
55.2264
 11
51.7
 21
55.5
  0
LINE
  8
0
 10
51.7
 20
55.5
 11
51.7482
 21
55.7736
  0
LINE
  8
0
 10
51.7482
 20
55.7736
 11
51.8872
 21
56.0142
  0
LINE
  8
0
 10
51.8872
 20
56.0142
 11
52.1
 21
56.1928
  0
LINE
  8
0
 10
52.1
 20
56.1928
 11
52.3611
 21
56.2878
  0
LINE
  8
0
 10
52.3611
 20
56.2878
 11
52.6389
 21
56.2878
  0
LINE
  8
0
 10
52.6389
 20
56.2878
 11
52.9
 21
56.1928
  0
LINE
  8
0
 10
52.9
 20
56.1928
 11
53.1128
 21
56.0142
  0
LINE
  8
0
 10
53.1128
 20
56.0142
 11
53.2518
 21
55.7736
  0
LINE
  8
0
 10
53.2518
 20
55.7736
 11
53.3
 21
55.5
  0
LINE
  8
0
 10
53.3
 20
55.5
 11
53.2518
 21
55.2264
  0
LINE
  8
0
 10
53.2518
 20
55.2264
 11
53.1128
 21
54.9858
  0
LINE
  8
0
 10
53.1128
 20
54.9858
 11
52.9
 21
54.8072
  0
LINE
  8
0
 10
52.9
 20
54.8072
 11
52.6389
 21
54.7121
  0
LINE
  8
0
 10
52.6389
 20
54.7121
 11
52.3611
 21
54.7121
  0
LINE
  8
0
 10
32.3611
 20
54.7121
 11
32.1
 21
54.8072
  0
LINE
  8
0
 10
32.1
 20
54.8072
 11
31.8872
 21
54.9858
  0
LINE
  8
0
 10
31.8872
 20
54.9858
 11
31.7482
 21
55.2264
  0
LINE
  8
0
 10
31.7482
 20
55.2264
 11
31.7
 21
55.5
  0
LINE
  8
0
 10
31.7
 20
55.5
 11
31.7482
 21
55.7736
  0
LINE
  8
0
 10
31.7482
 20
55.7736
 11
31.8872
 21
56.0142
  0
LINE
  8
0
 10
31.8872
 20
56.0142
 11
32.1
 21
56.1928
  0
LINE
  8
0
 10
32.1
 20
56.1928
 11
32.3611
 21
56.2878
  0
LINE
  8
0
 10
32.3611
 20
56.2878
 11
32.6389
 21
56.2878
  0
LINE
  8
0
 10
32.6389
 20
56.2878
 11
32.9
 21
56.1928
  0
LINE
  8
0
 10
32.9
 20
56.1928
 11
33.1128
 21
56.0142
  0
LINE
  8
0
 10
33.1128
 20
56.0142
 11
33.2518
 21
55.7736
  0
LINE
  8
0
 10
33.2518
 20
55.7736
 11
33.3
 21
55.5
  0
LINE
  8
0
 10
33.3
 20
55.5
 11
33.2518
 21
55.2264
  0
LINE
  8
0
 10
33.2518
 20
55.2264
 11
33.1128
 21
54.9858
  0
LINE
  8
0
 10
33.1128
 20
54.9858
 11
32.9
 21
54.8072
  0
LINE
  8
0
 10
32.9
 20
54.8072
 11
32.6389
 21
54.7121
  0
LINE
  8
0
 10
32.6389
 20
54.7121
 11
32.3611
 21
54.7121
  0
LINE
  8
0
 10
48.3611
 20
44.7121
 11
48.1
 21
44.8072
  0
LINE
  8
0
 10
48.1
 20
44.8072
 11
47.8872
 21
44.9858
  0
LINE
  8
0
 10
47.8872
 20
44.9858
 11
47.7482
 21
45.2264
  0
LINE
  8
0
 10
47.7482
 20
45.2264
 11
47.7
 21
45.5
  0
LINE
  8
0
 10
47.7
 20
45.5
 11
47.7482
 21
45.7736
  0
LINE
  8
0
 10
47.7482
 20
45.7736
 11
47.8872
 21
46.0142
  0
LINE
  8
0
 10
47.8872
 20
46.0142
 11
48.1
 21
46.1928
  0
LINE
  8
0
 10
48.1
 20
46.1928
 11
48.3611
 21
46.2878
  0
LINE
  8
0
 10
48.3611
 20
46.2878
 11
48.6389
 21
46.2878
  0
LINE
  8
0
 10
48.6389
 20
46.2878
 11
48.9
 21
46.1928
  0
LINE
  8
0
 10
48.9
 20
46.1928
 11
49.1128
 21
46.0142
  0
LINE
  8
0
 10
49.1128
 20
46.0142
 11
49.2518
 21
45.7736
  0
LINE
  8
0
 10
49.2518
 20
45.7736
 11
49.3
 21
45.5
  0
LINE
  8
0
 10
49.3
 20
45.5
 11
49.2518
 21
45.2264
  0
LINE
  8
0
 10
49.2518
 20
45.2264
 11
49.1128
 21
44.9858
  0
LINE
  8
0
 10
49.1128
 20
44.9858
 11
48.9
 21
44.8072
  0
LINE
  8
0
 10
48.9
 20
44.8072
 11
48.6389
 21
44.7121
  0
LINE
  8
0
 10
48.6389
 20
44.7121
 11
48.3611
 21
44.7121
  0
LINE
  8
0
 10
24.3611
 20
44.7121
 11
24.1
 21
44.8072
  0
LINE
  8
0
 10
24.1
 20
44.8072
 11
23.8872
 21
44.9858
  0
LINE
  8
0
 10
23.8872
 20
44.9858
 11
23.7482
 21
45.2264
  0
LINE
  8
0
 10
23.7482
 20
45.2264
 11
23.7
 21
45.5
  0
LINE
  8
0
 10
23.7
 20
45.5
 11
23.7482
 21
45.7736
  0
LINE
  8
0
 10
23.7482
 20
45.7736
 11
23.8872
 21
46.0142
  0
LINE
  8
0
 10
23.8872
 20
46.0142
 11
24.1
 21
46.1928
  0
LINE
  8
0
 10
24.1
 20
46.1928
 11
24.3611
 21
46.2878
  0
LINE
  8
0
 10
24.3611
 20
46.2878
 11
24.6389
 21
46.2878
  0
LINE
  8
0
 10
24.6389
 20
46.2878
 11
24.9
 21
46.1928
  0
LINE
  8
0
 10
24.9
 20
46.1928
 11
25.1128
 21
46.0142
  0
LINE
  8
0
 10
25.1128
 20
46.0142
 11
25.2518
 21
45.7736
  0
LINE
  8
0
 10
25.2518
 20
45.7736
 11
25.3
 21
45.5
  0
LINE
  8
0
 10
25.3
 20
45.5
 11
25.2518
 21
45.2264
  0
LINE
  8
0
 10
25.2518
 20
45.2264
 11
25.1128
 21
44.9858
  0
LINE
  8
0
 10
25.1128
 20
44.9858
 11
24.9
 21
44.8072
  0
LINE
  8
0
 10
24.9
 20
44.8072
 11
24.6389
 21
44.7121
  0
LINE
  8
0
 10
24.6389
 20
44.7121
 11
24.3611
 21
44.7121
  0
LINE
  8
0
 10
46.3611
 20
34.7121
 11
46.1
 21
34.8072
  0
LINE
  8
0
 10
46.1
 20
34.8072
 11
45.8872
 21
34.9858
  0
LINE
  8
0
 10
45.8872
 20
34.9858
 11
45.7482
 21
35.2264
  0
LINE
  8
0
 10
45.7482
 20
35.2264
 11
45.7
 21
35.5
  0
LINE
  8
0
 10
45.7
 20
35.5
 11
45.7482
 21
35.7736
  0
LINE
  8
0
 10
45.7482
 20
35.7736
 11
45.8872
 21
36.0142
  0
LINE
  8
0
 10
45.8872
 20
36.0142
 11
46.1
 21
36.1928
  0
LINE
  8
0
 10
46.1
 20
36.1928
 11
46.3611
 21
36.2878
  0
LINE
  8
0
 10
46.3611
 20
36.2878
 11
46.6389
 21
36.2878
  0
LINE
  8
0
 10
46.6389
 20
36.2878
 11
46.9
 21
36.1928
  0
LINE
  8
0
 10
46.9
 20
36.1928
 11
47.1128
 21
36.0142
  0
LINE
  8
0
 10
47.1128
 20
36.0142
 11
47.2518
 21
35.7736
  0
LINE
  8
0
 10
47.2518
 20
35.7736
 11
47.3
 21
35.5
  0
LINE
  8
0
 10
47.3
 20
35.5
 11
47.2518
 21
35.2264
  0
LINE
  8
0
 10
47.2518
 20
35.2264
 11
47.1128
 21
34.9858
  0
LINE
  8
0
 10
47.1128
 20
34.9858
 11
46.9
 21
34.8072
  0
LINE
  8
0
 10
46.9
 20
34.8072
 11
46.6389
 21
34.7121
  0
LINE
  8
0
 10
46.6389
 20
34.7121
 11
46.3611
 21
34.7121
  0
LINE
  8
0
 10
22.3611
 20
34.7121
 11
22.1
 21
34.8072
  0
LINE
  8
0
 10
22.1
 20
34.8072
 11
21.8872
 21
34.9858
  0
LINE
  8
0
 10
21.8872
 20
34.9858
 11
21.7482
 21
35.2264
  0
LINE
  8
0
 10
21.7482
 20
35.2264
 11
21.7
 21
35.5
  0
LINE
  8
0
 10
21.7
 20
35.5
 11
21.7482
 21
35.7736
  0
LINE
  8
0
 10
21.7482
 20
35.7736
 11
21.8872
 21
36.0142
  0
LINE
  8
0
 10
21.8872
 20
36.0142
 11
22.1
 21
36.1928
  0
LINE
  8
0
 10
22.1
 20
36.1928
 11
22.3611
 21
36.2878
  0
LINE
  8
0
 10
22.3611
 20
36.2878
 11
22.6389
 21
36.2878
  0
LINE
  8
0
 10
22.6389
 20
36.2878
 11
22.9
 21
36.1928
  0
LINE
  8
0
 10
22.9
 20
36.1928
 11
23.1128
 21
36.0142
  0
LINE
  8
0
 10
23.1128
 20
36.0142
 11
23.2518
 21
35.7736
  0
LINE
  8
0
 10
23.2518
 20
35.7736
 11
23.3
 21
35.5
  0
LINE
  8
0
 10
23.3
 20
35.5
 11
23.2518
 21
35.2264
  0
LINE
  8
0
 10
23.2518
 20
35.2264
 11
23.1128
 21
34.9858
  0
LINE
  8
0
 10
23.1128
 20
34.9858
 11
22.9
 21
34.8072
  0
LINE
  8
0
 10
22.9
 20
34.8072
 11
22.6389
 21
34.7121
  0
LINE
  8
0
 10
22.6389
 20
34.7121
 11
22.3611
 21
34.7121
  0
LINE
  8
0
 10
42.3611
 20
29.7121
 11
42.1
 21
29.8072
  0
LINE
  8
0
 10
42.1
 20
29.8072
 11
41.8872
 21
29.9858
  0
LINE
  8
0
 10
41.8872
 20
29.9858
 11
41.7482
 21
30.2264
  0
LINE
  8
0
 10
41.7482
 20
30.2264
 11
41.7
 21
30.5
  0
LINE
  8
0
 10
41.7
 20
30.5
 11
41.7482
 21
30.7736
  0
LINE
  8
0
 10
41.7482
 20
30.7736
 11
41.8872
 21
31.0142
  0
LINE
  8
0
 10
41.8872
 20
31.0142
 11
42.1
 21
31.1928
  0
LINE
  8
0
 10
42.1
 20
31.1928
 11
42.3611
 21
31.2878
  0
LINE
  8
0
 10
42.3611
 20
31.2878
 11
42.6389
 21
31.2878
  0
LINE
  8
0
 10
42.6389
 20
31.2878
 11
42.9
 21
31.1928
  0
LINE
  8
0
 10
42.9
 20
31.1928
 11
43.1128
 21
31.0142
  0
LINE
  8
0
 10
43.1128
 20
31.0142
 11
43.2518
 21
30.7736
  0
LINE
  8
0
 10
43.2518
 20
30.7736
 11
43.3
 21
30.5
  0
LINE
  8
0
 10
43.3
 20
30.5
 11
43.2518
 21
30.2264
  0
LINE
  8
0
 10
43.2518
 20
30.2264
 11
43.1128
 21
29.9858
  0
LINE
  8
0
 10
43.1128
 20
29.9858
 11
42.9
 21
29.8072
  0
LINE
  8
0
 10
42.9
 20
29.8072
 11
42.6389
 21
29.7121
  0
LINE
  8
0
 10
42.6389
 20
29.7121
 11
42.3611
 21
29.7121
  0
LINE
  8
0
 10
18.3611
 20
29.7121
 11
18.1
 21
29.8072
  0
LINE
  8
0
 10
18.1
 20
29.8072
 11
17.8872
 21
29.9858
  0
LINE
  8
0
 10
17.8872
 20
29.9858
 11
17.7482
 21
30.2264
  0
LINE
  8
0
 10
17.7482
 20
30.2264
 11
17.7
 21
30.5
  0
LINE
  8
0
 10
17.7
 20
30.5
 11
17.7482
 21
30.7736
  0
LINE
  8
0
 10
17.7482
 20
30.7736
 11
17.8872
 21
31.0142
  0
LINE
  8
0
 10
17.8872
 20
31.0142
 11
18.1
 21
31.1928
  0
LINE
  8
0
 10
18.1
 20
31.1928
 11
18.3611
 21
31.2878
  0
LINE
  8
0
 10
18.3611
 20
31.2878
 11
18.6389
 21
31.2878
  0
LINE
  8
0
 10
18.6389
 20
31.2878
 11
18.9
 21
31.1928
  0
LINE
  8
0
 10
18.9
 20
31.1928
 11
19.1128
 21
31.0142
  0
LINE
  8
0
 10
19.1128
 20
31.0142
 11
19.2518
 21
30.7736
  0
LINE
  8
0
 10
19.2518
 20
30.7736
 11
19.3
 21
30.5
  0
LINE
  8
0
 10
19.3
 20
30.5
 11
19.2518
 21
30.2264
  0
LINE
  8
0
 10
19.2518
 20
30.2264
 11
19.1128
 21
29.9858
  0
LINE
  8
0
 10
19.1128
 20
29.9858
 11
18.9
 21
29.8072
  0
LINE
  8
0
 10
18.9
 20
29.8072
 11
18.6389
 21
29.7121
  0
LINE
  8
0
 10
18.6389
 20
29.7121
 11
18.3611
 21
29.7121
  0
LINE
  8
0
 10
18.3611
 20
19.7121
 11
18.1
 21
19.8072
  0
LINE
  8
0
 10
18.1
 20
19.8072
 11
17.8872
 21
19.9858
  0
LINE
  8
0
 10
17.8872
 20
19.9858
 11
17.7482
 21
20.2264
  0
LINE
  8
0
 10
17.7482
 20
20.2264
 11
17.7
 21
20.5
  0
LINE
  8
0
 10
17.7
 20
20.5
 11
17.7482
 21
20.7736
  0
LINE
  8
0
 10
17.7482
 20
20.7736
 11
17.8872
 21
21.0142
  0
LINE
  8
0
 10
17.8872
 20
21.0142
 11
18.1
 21
21.1928
  0
LINE
  8
0
 10
18.1
 20
21.1928
 11
18.3611
 21
21.2878
  0
LINE
  8
0
 10
18.3611
 20
21.2878
 11
18.6389
 21
21.2878
  0
LINE
  8
0
 10
18.6389
 20
21.2878
 11
18.9
 21
21.1928
  0
LINE
  8
0
 10
18.9
 20
21.1928
 11
19.1128
 21
21.0142
  0
LINE
  8
0
 10
19.1128
 20
21.0142
 11
19.2518
 21
20.7736
  0
LINE
  8
0
 10
19.2518
 20
20.7736
 11
19.3
 21
20.5
  0
LINE
  8
0
 10
19.3
 20
20.5
 11
19.2518
 21
20.2264
  0
LINE
  8
0
 10
19.2518
 20
20.2264
 11
19.1128
 21
19.9858
  0
LINE
  8
0
 10
19.1128
 20
19.9858
 11
18.9
 21
19.8072
  0
LINE
  8
0
 10
18.9
 20
19.8072
 11
18.6389
 21
19.7121
  0
LINE
  8
0
 10
18.6389
 20
19.7121
 11
18.3611
 21
19.7121
  0
LINE
  8
0
 10
42.3611
 20
19.7121
 11
42.1
 21
19.8072
  0
LINE
  8
0
 10
42.1
 20
19.8072
 11
41.8872
 21
19.9858
  0
LINE
  8
0
 10
41.8872
 20
19.9858
 11
41.7482
 21
20.2264
  0
LINE
  8
0
 10
41.7482
 20
20.2264
 11
41.7
 21
20.5
  0
LINE
  8
0
 10
41.7
 20
20.5
 11
41.7482
 21
20.7736
  0
LINE
  8
0
 10
41.7482
 20
20.7736
 11
41.8872
 21
21.0142
  0
LINE
  8
0
 10
41.8872
 20
21.0142
 11
42.1
 21
21.1928
  0
LINE
  8
0
 10
42.1
 20
21.1928
 11
42.3611
 21
21.2878
  0
LINE
  8
0
 10
42.3611
 20
21.2878
 11
42.6389
 21
21.2878
  0
LINE
  8
0
 10
42.6389
 20
21.2878
 11
42.9
 21
21.1928
  0
LINE
  8
0
 10
42.9
 20
21.1928
 11
43.1128
 21
21.0142
  0
LINE
  8
0
 10
43.1128
 20
21.0142
 11
43.2518
 21
20.7736
  0
LINE
  8
0
 10
43.2518
 20
20.7736
 11
43.3
 21
20.5
  0
LINE
  8
0
 10
43.3
 20
20.5
 11
43.2518
 21
20.2264
  0
LINE
  8
0
 10
43.2518
 20
20.2264
 11
43.1128
 21
19.9858
  0
LINE
  8
0
 10
43.1128
 20
19.9858
 11
42.9
 21
19.8072
  0
LINE
  8
0
 10
42.9
 20
19.8072
 11
42.6389
 21
19.7121
  0
LINE
  8
0
 10
42.6389
 20
19.7121
 11
42.3611
 21
19.7121
  0
LINE
  8
0
 10
18.3611
 20
9.71214
 11
18.1
 21
9.80717
  0
LINE
  8
0
 10
18.1
 20
9.80717
 11
17.8872
 21
9.98576
  0
LINE
  8
0
 10
17.8872
 20
9.98576
 11
17.7482
 21
10.2264
  0
LINE
  8
0
 10
17.7482
 20
10.2264
 11
17.7
 21
10.5
  0
LINE
  8
0
 10
17.7
 20
10.5
 11
17.7482
 21
10.7736
  0
LINE
  8
0
 10
17.7482
 20
10.7736
 11
17.8872
 21
11.0142
  0
LINE
  8
0
 10
17.8872
 20
11.0142
 11
18.1
 21
11.1928
  0
LINE
  8
0
 10
18.1
 20
11.1928
 11
18.3611
 21
11.2878
  0
LINE
  8
0
 10
18.3611
 20
11.2878
 11
18.6389
 21
11.2878
  0
LINE
  8
0
 10
18.6389
 20
11.2878
 11
18.9
 21
11.1928
  0
LINE
  8
0
 10
18.9
 20
11.1928
 11
19.1128
 21
11.0142
  0
LINE
  8
0
 10
19.1128
 20
11.0142
 11
19.2518
 21
10.7736
  0
LINE
  8
0
 10
19.2518
 20
10.7736
 11
19.3
 21
10.5
  0
LINE
  8
0
 10
19.3
 20
10.5
 11
19.2518
 21
10.2264
  0
LINE
  8
0
 10
19.2518
 20
10.2264
 11
19.1128
 21
9.98576
  0
LINE
  8
0
 10
19.1128
 20
9.98576
 11
18.9
 21
9.80717
  0
LINE
  8
0
 10
18.9
 20
9.80717
 11
18.6389
 21
9.71214
  0
LINE
  8
0
 10
18.6389
 20
9.71214
 11
18.3611
 21
9.71214
  0
LINE
  8
0
 10
42.3611
 20
9.71214
 11
42.1
 21
9.80717
  0
LINE
  8
0
 10
42.1
 20
9.80717
 11
41.8872
 21
9.98576
  0
LINE
  8
0
 10
41.8872
 20
9.98576
 11
41.7482
 21
10.2264
  0
LINE
  8
0
 10
41.7482
 20
10.2264
 11
41.7
 21
10.5
  0
LINE
  8
0
 10
41.7
 20
10.5
 11
41.7482
 21
10.7736
  0
LINE
  8
0
 10
41.7482
 20
10.7736
 11
41.8872
 21
11.0142
  0
LINE
  8
0
 10
41.8872
 20
11.0142
 11
42.1
 21
11.1928
  0
LINE
  8
0
 10
42.1
 20
11.1928
 11
42.3611
 21
11.2878
  0
LINE
  8
0
 10
42.3611
 20
11.2878
 11
42.6389
 21
11.2878
  0
LINE
  8
0
 10
42.6389
 20
11.2878
 11
42.9
 21
11.1928
  0
LINE
  8
0
 10
42.9
 20
11.1928
 11
43.1128
 21
11.0142
  0
LINE
  8
0
 10
43.1128
 20
11.0142
 11
43.2518
 21
10.7736
  0
LINE
  8
0
 10
43.2518
 20
10.7736
 11
43.3
 21
10.5
  0
LINE
  8
0
 10
43.3
 20
10.5
 11
43.2518
 21
10.2264
  0
LINE
  8
0
 10
43.2518
 20
10.2264
 11
43.1128
 21
9.98576
  0
LINE
  8
0
 10
43.1128
 20
9.98576
 11
42.9
 21
9.80717
  0
LINE
  8
0
 10
42.9
 20
9.80717
 11
42.6389
 21
9.71214
  0
LINE
  8
0
 10
42.6389
 20
9.71214
 11
42.3611
 21
9.71214
  0
ENDSEC
  0
SECTION
  2
OBJECTS
  0
DICTIONARY
  0
ENDSEC
  0
EOF
