  0
SECTION
  2
BLOCKS
  0
ENDSEC
  0
SECTION
  2
ENTITIES
  0
LINE
  8
0
 10
69
 20
650
 11
0
 21
650
  0
LINE
  8
0
 10
0
 20
650
 11
0
 21
0
  0
LINE
  8
0
 10
0
 20
0
 11
69
 21
0
  0
LINE
  8
0
 10
69
 20
0
 11
69
 21
650
  0
LINE
  8
0
 10
28.3611
 20
620.712
 11
28.1
 21
620.807
  0
LINE
  8
0
 10
28.1
 20
620.807
 11
27.8872
 21
620.986
  0
LINE
  8
0
 10
27.8872
 20
620.986
 11
27.7482
 21
621.226
  0
LINE
  8
0
 10
27.7482
 20
621.226
 11
27.7
 21
621.5
  0
LINE
  8
0
 10
27.7
 20
621.5
 11
27.7482
 21
621.774
  0
LINE
  8
0
 10
27.7482
 20
621.774
 11
27.8872
 21
622.014
  0
LINE
  8
0
 10
27.8872
 20
622.014
 11
28.1
 21
622.193
  0
LINE
  8
0
 10
28.1
 20
622.193
 11
28.3611
 21
622.288
  0
LINE
  8
0
 10
28.3611
 20
622.288
 11
28.6389
 21
622.288
  0
LINE
  8
0
 10
28.6389
 20
622.288
 11
28.9
 21
622.193
  0
LINE
  8
0
 10
28.9
 20
622.193
 11
29.1128
 21
622.014
  0
LINE
  8
0
 10
29.1128
 20
622.014
 11
29.2518
 21
621.774
  0
LINE
  8
0
 10
29.2518
 20
621.774
 11
29.3
 21
621.5
  0
LINE
  8
0
 10
29.3
 20
621.5
 11
29.2518
 21
621.226
  0
LINE
  8
0
 10
29.2518
 20
621.226
 11
29.1128
 21
620.986
  0
LINE
  8
0
 10
29.1128
 20
620.986
 11
28.9
 21
620.807
  0
LINE
  8
0
 10
28.9
 20
620.807
 11
28.6389
 21
620.712
  0
LINE
  8
0
 10
28.6389
 20
620.712
 11
28.3611
 21
620.712
  0
LINE
  8
0
 10
24.3611
 20
596.712
 11
24.1
 21
596.807
  0
LINE
  8
0
 10
24.1
 20
596.807
 11
23.8872
 21
596.986
  0
LINE
  8
0
 10
23.8872
 20
596.986
 11
23.7482
 21
597.226
  0
LINE
  8
0
 10
23.7482
 20
597.226
 11
23.7
 21
597.5
  0
LINE
  8
0
 10
23.7
 20
597.5
 11
23.7482
 21
597.774
  0
LINE
  8
0
 10
23.7482
 20
597.774
 11
23.8872
 21
598.014
  0
LINE
  8
0
 10
23.8872
 20
598.014
 11
24.1
 21
598.193
  0
LINE
  8
0
 10
24.1
 20
598.193
 11
24.3611
 21
598.288
  0
LINE
  8
0
 10
24.3611
 20
598.288
 11
24.6389
 21
598.288
  0
LINE
  8
0
 10
24.6389
 20
598.288
 11
24.9
 21
598.193
  0
LINE
  8
0
 10
24.9
 20
598.193
 11
25.1128
 21
598.014
  0
LINE
  8
0
 10
25.1128
 20
598.014
 11
25.2518
 21
597.774
  0
LINE
  8
0
 10
25.2518
 20
597.774
 11
25.3
 21
597.5
  0
LINE
  8
0
 10
25.3
 20
597.5
 11
25.2518
 21
597.226
  0
LINE
  8
0
 10
25.2518
 20
597.226
 11
25.1128
 21
596.986
  0
LINE
  8
0
 10
25.1128
 20
596.986
 11
24.9
 21
596.807
  0
LINE
  8
0
 10
24.9
 20
596.807
 11
24.6389
 21
596.712
  0
LINE
  8
0
 10
24.6389
 20
596.712
 11
24.3611
 21
596.712
  0
LINE
  8
0
 10
24.3611
 20
588.712
 11
24.1
 21
588.807
  0
LINE
  8
0
 10
24.1
 20
588.807
 11
23.8872
 21
588.986
  0
LINE
  8
0
 10
23.8872
 20
588.986
 11
23.7482
 21
589.226
  0
LINE
  8
0
 10
23.7482
 20
589.226
 11
23.7
 21
589.5
  0
LINE
  8
0
 10
23.7
 20
589.5
 11
23.7482
 21
589.774
  0
LINE
  8
0
 10
23.7482
 20
589.774
 11
23.8872
 21
590.014
  0
LINE
  8
0
 10
23.8872
 20
590.014
 11
24.1
 21
590.193
  0
LINE
  8
0
 10
24.1
 20
590.193
 11
24.3611
 21
590.288
  0
LINE
  8
0
 10
24.3611
 20
590.288
 11
24.6389
 21
590.288
  0
LINE
  8
0
 10
24.6389
 20
590.288
 11
24.9
 21
590.193
  0
LINE
  8
0
 10
24.9
 20
590.193
 11
25.1128
 21
590.014
  0
LINE
  8
0
 10
25.1128
 20
590.014
 11
25.2518
 21
589.774
  0
LINE
  8
0
 10
25.2518
 20
589.774
 11
25.3
 21
589.5
  0
LINE
  8
0
 10
25.3
 20
589.5
 11
25.2518
 21
589.226
  0
LINE
  8
0
 10
25.2518
 20
589.226
 11
25.1128
 21
588.986
  0
LINE
  8
0
 10
25.1128
 20
588.986
 11
24.9
 21
588.807
  0
LINE
  8
0
 10
24.9
 20
588.807
 11
24.6389
 21
588.712
  0
LINE
  8
0
 10
24.6389
 20
588.712
 11
24.3611
 21
588.712
  0
LINE
  8
0
 10
22.3611
 20
564.712
 11
22.1
 21
564.807
  0
LINE
  8
0
 10
22.1
 20
564.807
 11
21.8872
 21
564.986
  0
LINE
  8
0
 10
21.8872
 20
564.986
 11
21.7482
 21
565.226
  0
LINE
  8
0
 10
21.7482
 20
565.226
 11
21.7
 21
565.5
  0
LINE
  8
0
 10
21.7
 20
565.5
 11
21.7482
 21
565.774
  0
LINE
  8
0
 10
21.7482
 20
565.774
 11
21.8872
 21
566.014
  0
LINE
  8
0
 10
21.8872
 20
566.014
 11
22.1
 21
566.193
  0
LINE
  8
0
 10
22.1
 20
566.193
 11
22.3611
 21
566.288
  0
LINE
  8
0
 10
22.3611
 20
566.288
 11
22.6389
 21
566.288
  0
LINE
  8
0
 10
22.6389
 20
566.288
 11
22.9
 21
566.193
  0
LINE
  8
0
 10
22.9
 20
566.193
 11
23.1128
 21
566.014
  0
LINE
  8
0
 10
23.1128
 20
566.014
 11
23.2518
 21
565.774
  0
LINE
  8
0
 10
23.2518
 20
565.774
 11
23.3
 21
565.5
  0
LINE
  8
0
 10
23.3
 20
565.5
 11
23.2518
 21
565.226
  0
LINE
  8
0
 10
23.2518
 20
565.226
 11
23.1128
 21
564.986
  0
LINE
  8
0
 10
23.1128
 20
564.986
 11
22.9
 21
564.807
  0
LINE
  8
0
 10
22.9
 20
564.807
 11
22.6389
 21
564.712
  0
LINE
  8
0
 10
22.6389
 20
564.712
 11
22.3611
 21
564.712
  0
LINE
  8
0
 10
22.3611
 20
556.712
 11
22.1
 21
556.807
  0
LINE
  8
0
 10
22.1
 20
556.807
 11
21.8872
 21
556.986
  0
LINE
  8
0
 10
21.8872
 20
556.986
 11
21.7482
 21
557.226
  0
LINE
  8
0
 10
21.7482
 20
557.226
 11
21.7
 21
557.5
  0
LINE
  8
0
 10
21.7
 20
557.5
 11
21.7482
 21
557.774
  0
LINE
  8
0
 10
21.7482
 20
557.774
 11
21.8872
 21
558.014
  0
LINE
  8
0
 10
21.8872
 20
558.014
 11
22.1
 21
558.193
  0
LINE
  8
0
 10
22.1
 20
558.193
 11
22.3611
 21
558.288
  0
LINE
  8
0
 10
22.3611
 20
558.288
 11
22.6389
 21
558.288
  0
LINE
  8
0
 10
22.6389
 20
558.288
 11
22.9
 21
558.193
  0
LINE
  8
0
 10
22.9
 20
558.193
 11
23.1128
 21
558.014
  0
LINE
  8
0
 10
23.1128
 20
558.014
 11
23.2518
 21
557.774
  0
LINE
  8
0
 10
23.2518
 20
557.774
 11
23.3
 21
557.5
  0
LINE
  8
0
 10
23.3
 20
557.5
 11
23.2518
 21
557.226
  0
LINE
  8
0
 10
23.2518
 20
557.226
 11
23.1128
 21
556.986
  0
LINE
  8
0
 10
23.1128
 20
556.986
 11
22.9
 21
556.807
  0
LINE
  8
0
 10
22.9
 20
556.807
 11
22.6389
 21
556.712
  0
LINE
  8
0
 10
22.6389
 20
556.712
 11
22.3611
 21
556.712
  0
LINE
  8
0
 10
22.3611
 20
548.712
 11
22.1
 21
548.807
  0
LINE
  8
0
 10
22.1
 20
548.807
 11
21.8872
 21
548.986
  0
LINE
  8
0
 10
21.8872
 20
548.986
 11
21.7482
 21
549.226
  0
LINE
  8
0
 10
21.7482
 20
549.226
 11
21.7
 21
549.5
  0
LINE
  8
0
 10
21.7
 20
549.5
 11
21.7482
 21
549.774
  0
LINE
  8
0
 10
21.7482
 20
549.774
 11
21.8872
 21
550.014
  0
LINE
  8
0
 10
21.8872
 20
550.014
 11
22.1
 21
550.193
  0
LINE
  8
0
 10
22.1
 20
550.193
 11
22.3611
 21
550.288
  0
LINE
  8
0
 10
22.3611
 20
550.288
 11
22.6389
 21
550.288
  0
LINE
  8
0
 10
22.6389
 20
550.288
 11
22.9
 21
550.193
  0
LINE
  8
0
 10
22.9
 20
550.193
 11
23.1128
 21
550.014
  0
LINE
  8
0
 10
23.1128
 20
550.014
 11
23.2518
 21
549.774
  0
LINE
  8
0
 10
23.2518
 20
549.774
 11
23.3
 21
549.5
  0
LINE
  8
0
 10
23.3
 20
549.5
 11
23.2518
 21
549.226
  0
LINE
  8
0
 10
23.2518
 20
549.226
 11
23.1128
 21
548.986
  0
LINE
  8
0
 10
23.1128
 20
548.986
 11
22.9
 21
548.807
  0
LINE
  8
0
 10
22.9
 20
548.807
 11
22.6389
 21
548.712
  0
LINE
  8
0
 10
22.6389
 20
548.712
 11
22.3611
 21
548.712
  0
LINE
  8
0
 10
22.3611
 20
540.712
 11
22.1
 21
540.807
  0
LINE
  8
0
 10
22.1
 20
540.807
 11
21.8872
 21
540.986
  0
LINE
  8
0
 10
21.8872
 20
540.986
 11
21.7482
 21
541.226
  0
LINE
  8
0
 10
21.7482
 20
541.226
 11
21.7
 21
541.5
  0
LINE
  8
0
 10
21.7
 20
541.5
 11
21.7482
 21
541.774
  0
LINE
  8
0
 10
21.7482
 20
541.774
 11
21.8872
 21
542.014
  0
LINE
  8
0
 10
21.8872
 20
542.014
 11
22.1
 21
542.193
  0
LINE
  8
0
 10
22.1
 20
542.193
 11
22.3611
 21
542.288
  0
LINE
  8
0
 10
22.3611
 20
542.288
 11
22.6389
 21
542.288
  0
LINE
  8
0
 10
22.6389
 20
542.288
 11
22.9
 21
542.193
  0
LINE
  8
0
 10
22.9
 20
542.193
 11
23.1128
 21
542.014
  0
LINE
  8
0
 10
23.1128
 20
542.014
 11
23.2518
 21
541.774
  0
LINE
  8
0
 10
23.2518
 20
541.774
 11
23.3
 21
541.5
  0
LINE
  8
0
 10
23.3
 20
541.5
 11
23.2518
 21
541.226
  0
LINE
  8
0
 10
23.2518
 20
541.226
 11
23.1128
 21
540.986
  0
LINE
  8
0
 10
23.1128
 20
540.986
 11
22.9
 21
540.807
  0
LINE
  8
0
 10
22.9
 20
540.807
 11
22.6389
 21
540.712
  0
LINE
  8
0
 10
22.6389
 20
540.712
 11
22.3611
 21
540.712
  0
LINE
  8
0
 10
22.3611
 20
532.712
 11
22.1
 21
532.807
  0
LINE
  8
0
 10
22.1
 20
532.807
 11
21.8872
 21
532.986
  0
LINE
  8
0
 10
21.8872
 20
532.986
 11
21.7482
 21
533.226
  0
LINE
  8
0
 10
21.7482
 20
533.226
 11
21.7
 21
533.5
  0
LINE
  8
0
 10
21.7
 20
533.5
 11
21.7482
 21
533.774
  0
LINE
  8
0
 10
21.7482
 20
533.774
 11
21.8872
 21
534.014
  0
LINE
  8
0
 10
21.8872
 20
534.014
 11
22.1
 21
534.193
  0
LINE
  8
0
 10
22.1
 20
534.193
 11
22.3611
 21
534.288
  0
LINE
  8
0
 10
22.3611
 20
534.288
 11
22.6389
 21
534.288
  0
LINE
  8
0
 10
22.6389
 20
534.288
 11
22.9
 21
534.193
  0
LINE
  8
0
 10
22.9
 20
534.193
 11
23.1128
 21
534.014
  0
LINE
  8
0
 10
23.1128
 20
534.014
 11
23.2518
 21
533.774
  0
LINE
  8
0
 10
23.2518
 20
533.774
 11
23.3
 21
533.5
  0
LINE
  8
0
 10
23.3
 20
533.5
 11
23.2518
 21
533.226
  0
LINE
  8
0
 10
23.2518
 20
533.226
 11
23.1128
 21
532.986
  0
LINE
  8
0
 10
23.1128
 20
532.986
 11
22.9
 21
532.807
  0
LINE
  8
0
 10
22.9
 20
532.807
 11
22.6389
 21
532.712
  0
LINE
  8
0
 10
22.6389
 20
532.712
 11
22.3611
 21
532.712
  0
LINE
  8
0
 10
22.3611
 20
524.712
 11
22.1
 21
524.807
  0
LINE
  8
0
 10
22.1
 20
524.807
 11
21.8872
 21
524.986
  0
LINE
  8
0
 10
21.8872
 20
524.986
 11
21.7482
 21
525.226
  0
LINE
  8
0
 10
21.7482
 20
525.226
 11
21.7
 21
525.5
  0
LINE
  8
0
 10
21.7
 20
525.5
 11
21.7482
 21
525.774
  0
LINE
  8
0
 10
21.7482
 20
525.774
 11
21.8872
 21
526.014
  0
LINE
  8
0
 10
21.8872
 20
526.014
 11
22.1
 21
526.193
  0
LINE
  8
0
 10
22.1
 20
526.193
 11
22.3611
 21
526.288
  0
LINE
  8
0
 10
22.3611
 20
526.288
 11
22.6389
 21
526.288
  0
LINE
  8
0
 10
22.6389
 20
526.288
 11
22.9
 21
526.193
  0
LINE
  8
0
 10
22.9
 20
526.193
 11
23.1128
 21
526.014
  0
LINE
  8
0
 10
23.1128
 20
526.014
 11
23.2518
 21
525.774
  0
LINE
  8
0
 10
23.2518
 20
525.774
 11
23.3
 21
525.5
  0
LINE
  8
0
 10
23.3
 20
525.5
 11
23.2518
 21
525.226
  0
LINE
  8
0
 10
23.2518
 20
525.226
 11
23.1128
 21
524.986
  0
LINE
  8
0
 10
23.1128
 20
524.986
 11
22.9
 21
524.807
  0
LINE
  8
0
 10
22.9
 20
524.807
 11
22.6389
 21
524.712
  0
LINE
  8
0
 10
22.6389
 20
524.712
 11
22.3611
 21
524.712
  0
LINE
  8
0
 10
52.3611
 20
444.712
 11
52.1
 21
444.807
  0
LINE
  8
0
 10
52.1
 20
444.807
 11
51.8872
 21
444.986
  0
LINE
  8
0
 10
51.8872
 20
444.986
 11
51.7482
 21
445.226
  0
LINE
  8
0
 10
51.7482
 20
445.226
 11
51.7
 21
445.5
  0
LINE
  8
0
 10
51.7
 20
445.5
 11
51.7482
 21
445.774
  0
LINE
  8
0
 10
51.7482
 20
445.774
 11
51.8872
 21
446.014
  0
LINE
  8
0
 10
51.8872
 20
446.014
 11
52.1
 21
446.193
  0
LINE
  8
0
 10
52.1
 20
446.193
 11
52.3611
 21
446.288
  0
LINE
  8
0
 10
52.3611
 20
446.288
 11
52.6389
 21
446.288
  0
LINE
  8
0
 10
52.6389
 20
446.288
 11
52.9
 21
446.193
  0
LINE
  8
0
 10
52.9
 20
446.193
 11
53.1128
 21
446.014
  0
LINE
  8
0
 10
53.1128
 20
446.014
 11
53.2518
 21
445.774
  0
LINE
  8
0
 10
53.2518
 20
445.774
 11
53.3
 21
445.5
  0
LINE
  8
0
 10
53.3
 20
445.5
 11
53.2518
 21
445.226
  0
LINE
  8
0
 10
53.2518
 20
445.226
 11
53.1128
 21
444.986
  0
LINE
  8
0
 10
53.1128
 20
444.986
 11
52.9
 21
444.807
  0
LINE
  8
0
 10
52.9
 20
444.807
 11
52.6389
 21
444.712
  0
LINE
  8
0
 10
52.6389
 20
444.712
 11
52.3611
 21
444.712
  0
LINE
  8
0
 10
32.3611
 20
444.712
 11
32.1
 21
444.807
  0
LINE
  8
0
 10
32.1
 20
444.807
 11
31.8872
 21
444.986
  0
LINE
  8
0
 10
31.8872
 20
444.986
 11
31.7482
 21
445.226
  0
LINE
  8
0
 10
31.7482
 20
445.226
 11
31.7
 21
445.5
  0
LINE
  8
0
 10
31.7
 20
445.5
 11
31.7482
 21
445.774
  0
LINE
  8
0
 10
31.7482
 20
445.774
 11
31.8872
 21
446.014
  0
LINE
  8
0
 10
31.8872
 20
446.014
 11
32.1
 21
446.193
  0
LINE
  8
0
 10
32.1
 20
446.193
 11
32.3611
 21
446.288
  0
LINE
  8
0
 10
32.3611
 20
446.288
 11
32.6389
 21
446.288
  0
LINE
  8
0
 10
32.6389
 20
446.288
 11
32.9
 21
446.193
  0
LINE
  8
0
 10
32.9
 20
446.193
 11
33.1128
 21
446.014
  0
LINE
  8
0
 10
33.1128
 20
446.014
 11
33.2518
 21
445.774
  0
LINE
  8
0
 10
33.2518
 20
445.774
 11
33.3
 21
445.5
  0
LINE
  8
0
 10
33.3
 20
445.5
 11
33.2518
 21
445.226
  0
LINE
  8
0
 10
33.2518
 20
445.226
 11
33.1128
 21
444.986
  0
LINE
  8
0
 10
33.1128
 20
444.986
 11
32.9
 21
444.807
  0
LINE
  8
0
 10
32.9
 20
444.807
 11
32.6389
 21
444.712
  0
LINE
  8
0
 10
32.6389
 20
444.712
 11
32.3611
 21
444.712
  0
LINE
  8
0
 10
48.3611
 20
428.712
 11
48.1
 21
428.807
  0
LINE
  8
0
 10
48.1
 20
428.807
 11
47.8872
 21
428.986
  0
LINE
  8
0
 10
47.8872
 20
428.986
 11
47.7482
 21
429.226
  0
LINE
  8
0
 10
47.7482
 20
429.226
 11
47.7
 21
429.5
  0
LINE
  8
0
 10
47.7
 20
429.5
 11
47.7482
 21
429.774
  0
LINE
  8
0
 10
47.7482
 20
429.774
 11
47.8872
 21
430.014
  0
LINE
  8
0
 10
47.8872
 20
430.014
 11
48.1
 21
430.193
  0
LINE
  8
0
 10
48.1
 20
430.193
 11
48.3611
 21
430.288
  0
LINE
  8
0
 10
48.3611
 20
430.288
 11
48.6389
 21
430.288
  0
LINE
  8
0
 10
48.6389
 20
430.288
 11
48.9
 21
430.193
  0
LINE
  8
0
 10
48.9
 20
430.193
 11
49.1128
 21
430.014
  0
LINE
  8
0
 10
49.1128
 20
430.014
 11
49.2518
 21
429.774
  0
LINE
  8
0
 10
49.2518
 20
429.774
 11
49.3
 21
429.5
  0
LINE
  8
0
 10
49.3
 20
429.5
 11
49.2518
 21
429.226
  0
LINE
  8
0
 10
49.2518
 20
429.226
 11
49.1128
 21
428.986
  0
LINE
  8
0
 10
49.1128
 20
428.986
 11
48.9
 21
428.807
  0
LINE
  8
0
 10
48.9
 20
428.807
 11
48.6389
 21
428.712
  0
LINE
  8
0
 10
48.6389
 20
428.712
 11
48.3611
 21
428.712
  0
LINE
  8
0
 10
24.3611
 20
428.712
 11
24.1
 21
428.807
  0
LINE
  8
0
 10
24.1
 20
428.807
 11
23.8872
 21
428.986
  0
LINE
  8
0
 10
23.8872
 20
428.986
 11
23.7482
 21
429.226
  0
LINE
  8
0
 10
23.7482
 20
429.226
 11
23.7
 21
429.5
  0
LINE
  8
0
 10
23.7
 20
429.5
 11
23.7482
 21
429.774
  0
LINE
  8
0
 10
23.7482
 20
429.774
 11
23.8872
 21
430.014
  0
LINE
  8
0
 10
23.8872
 20
430.014
 11
24.1
 21
430.193
  0
LINE
  8
0
 10
24.1
 20
430.193
 11
24.3611
 21
430.288
  0
LINE
  8
0
 10
24.3611
 20
430.288
 11
24.6389
 21
430.288
  0
LINE
  8
0
 10
24.6389
 20
430.288
 11
24.9
 21
430.193
  0
LINE
  8
0
 10
24.9
 20
430.193
 11
25.1128
 21
430.014
  0
LINE
  8
0
 10
25.1128
 20
430.014
 11
25.2518
 21
429.774
  0
LINE
  8
0
 10
25.2518
 20
429.774
 11
25.3
 21
429.5
  0
LINE
  8
0
 10
25.3
 20
429.5
 11
25.2518
 21
429.226
  0
LINE
  8
0
 10
25.2518
 20
429.226
 11
25.1128
 21
428.986
  0
LINE
  8
0
 10
25.1128
 20
428.986
 11
24.9
 21
428.807
  0
LINE
  8
0
 10
24.9
 20
428.807
 11
24.6389
 21
428.712
  0
LINE
  8
0
 10
24.6389
 20
428.712
 11
24.3611
 21
428.712
  0
LINE
  8
0
 10
46.3611
 20
412.712
 11
46.1
 21
412.807
  0
LINE
  8
0
 10
46.1
 20
412.807
 11
45.8872
 21
412.986
  0
LINE
  8
0
 10
45.8872
 20
412.986
 11
45.7482
 21
413.226
  0
LINE
  8
0
 10
45.7482
 20
413.226
 11
45.7
 21
413.5
  0
LINE
  8
0
 10
45.7
 20
413.5
 11
45.7482
 21
413.774
  0
LINE
  8
0
 10
45.7482
 20
413.774
 11
45.8872
 21
414.014
  0
LINE
  8
0
 10
45.8872
 20
414.014
 11
46.1
 21
414.193
  0
LINE
  8
0
 10
46.1
 20
414.193
 11
46.3611
 21
414.288
  0
LINE
  8
0
 10
46.3611
 20
414.288
 11
46.6389
 21
414.288
  0
LINE
  8
0
 10
46.6389
 20
414.288
 11
46.9
 21
414.193
  0
LINE
  8
0
 10
46.9
 20
414.193
 11
47.1128
 21
414.014
  0
LINE
  8
0
 10
47.1128
 20
414.014
 11
47.2518
 21
413.774
  0
LINE
  8
0
 10
47.2518
 20
413.774
 11
47.3
 21
413.5
  0
LINE
  8
0
 10
47.3
 20
413.5
 11
47.2518
 21
413.226
  0
LINE
  8
0
 10
47.2518
 20
413.226
 11
47.1128
 21
412.986
  0
LINE
  8
0
 10
47.1128
 20
412.986
 11
46.9
 21
412.807
  0
LINE
  8
0
 10
46.9
 20
412.807
 11
46.6389
 21
412.712
  0
LINE
  8
0
 10
46.6389
 20
412.712
 11
46.3611
 21
412.712
  0
LINE
  8
0
 10
22.3611
 20
412.712
 11
22.1
 21
412.807
  0
LINE
  8
0
 10
22.1
 20
412.807
 11
21.8872
 21
412.986
  0
LINE
  8
0
 10
21.8872
 20
412.986
 11
21.7482
 21
413.226
  0
LINE
  8
0
 10
21.7482
 20
413.226
 11
21.7
 21
413.5
  0
LINE
  8
0
 10
21.7
 20
413.5
 11
21.7482
 21
413.774
  0
LINE
  8
0
 10
21.7482
 20
413.774
 11
21.8872
 21
414.014
  0
LINE
  8
0
 10
21.8872
 20
414.014
 11
22.1
 21
414.193
  0
LINE
  8
0
 10
22.1
 20
414.193
 11
22.3611
 21
414.288
  0
LINE
  8
0
 10
22.3611
 20
414.288
 11
22.6389
 21
414.288
  0
LINE
  8
0
 10
22.6389
 20
414.288
 11
22.9
 21
414.193
  0
LINE
  8
0
 10
22.9
 20
414.193
 11
23.1128
 21
414.014
  0
LINE
  8
0
 10
23.1128
 20
414.014
 11
23.2518
 21
413.774
  0
LINE
  8
0
 10
23.2518
 20
413.774
 11
23.3
 21
413.5
  0
LINE
  8
0
 10
23.3
 20
413.5
 11
23.2518
 21
413.226
  0
LINE
  8
0
 10
23.2518
 20
413.226
 11
23.1128
 21
412.986
  0
LINE
  8
0
 10
23.1128
 20
412.986
 11
22.9
 21
412.807
  0
LINE
  8
0
 10
22.9
 20
412.807
 11
22.6389
 21
412.712
  0
LINE
  8
0
 10
22.6389
 20
412.712
 11
22.3611
 21
412.712
  0
LINE
  8
0
 10
42.3611
 20
404.712
 11
42.1
 21
404.807
  0
LINE
  8
0
 10
42.1
 20
404.807
 11
41.8872
 21
404.986
  0
LINE
  8
0
 10
41.8872
 20
404.986
 11
41.7482
 21
405.226
  0
LINE
  8
0
 10
41.7482
 20
405.226
 11
41.7
 21
405.5
  0
LINE
  8
0
 10
41.7
 20
405.5
 11
41.7482
 21
405.774
  0
LINE
  8
0
 10
41.7482
 20
405.774
 11
41.8872
 21
406.014
  0
LINE
  8
0
 10
41.8872
 20
406.014
 11
42.1
 21
406.193
  0
LINE
  8
0
 10
42.1
 20
406.193
 11
42.3611
 21
406.288
  0
LINE
  8
0
 10
42.3611
 20
406.288
 11
42.6389
 21
406.288
  0
LINE
  8
0
 10
42.6389
 20
406.288
 11
42.9
 21
406.193
  0
LINE
  8
0
 10
42.9
 20
406.193
 11
43.1128
 21
406.014
  0
LINE
  8
0
 10
43.1128
 20
406.014
 11
43.2518
 21
405.774
  0
LINE
  8
0
 10
43.2518
 20
405.774
 11
43.3
 21
405.5
  0
LINE
  8
0
 10
43.3
 20
405.5
 11
43.2518
 21
405.226
  0
LINE
  8
0
 10
43.2518
 20
405.226
 11
43.1128
 21
404.986
  0
LINE
  8
0
 10
43.1128
 20
404.986
 11
42.9
 21
404.807
  0
LINE
  8
0
 10
42.9
 20
404.807
 11
42.6389
 21
404.712
  0
LINE
  8
0
 10
42.6389
 20
404.712
 11
42.3611
 21
404.712
  0
LINE
  8
0
 10
18.3611
 20
404.712
 11
18.1
 21
404.807
  0
LINE
  8
0
 10
18.1
 20
404.807
 11
17.8872
 21
404.986
  0
LINE
  8
0
 10
17.8872
 20
404.986
 11
17.7482
 21
405.226
  0
LINE
  8
0
 10
17.7482
 20
405.226
 11
17.7
 21
405.5
  0
LINE
  8
0
 10
17.7
 20
405.5
 11
17.7482
 21
405.774
  0
LINE
  8
0
 10
17.7482
 20
405.774
 11
17.8872
 21
406.014
  0
LINE
  8
0
 10
17.8872
 20
406.014
 11
18.1
 21
406.193
  0
LINE
  8
0
 10
18.1
 20
406.193
 11
18.3611
 21
406.288
  0
LINE
  8
0
 10
18.3611
 20
406.288
 11
18.6389
 21
406.288
  0
LINE
  8
0
 10
18.6389
 20
406.288
 11
18.9
 21
406.193
  0
LINE
  8
0
 10
18.9
 20
406.193
 11
19.1128
 21
406.014
  0
LINE
  8
0
 10
19.1128
 20
406.014
 11
19.2518
 21
405.774
  0
LINE
  8
0
 10
19.2518
 20
405.774
 11
19.3
 21
405.5
  0
LINE
  8
0
 10
19.3
 20
405.5
 11
19.2518
 21
405.226
  0
LINE
  8
0
 10
19.2518
 20
405.226
 11
19.1128
 21
404.986
  0
LINE
  8
0
 10
19.1128
 20
404.986
 11
18.9
 21
404.807
  0
LINE
  8
0
 10
18.9
 20
404.807
 11
18.6389
 21
404.712
  0
LINE
  8
0
 10
18.6389
 20
404.712
 11
18.3611
 21
404.712
  0
LINE
  8
0
 10
18.3611
 20
388.712
 11
18.1
 21
388.807
  0
LINE
  8
0
 10
18.1
 20
388.807
 11
17.8872
 21
388.986
  0
LINE
  8
0
 10
17.8872
 20
388.986
 11
17.7482
 21
389.226
  0
LINE
  8
0
 10
17.7482
 20
389.226
 11
17.7
 21
389.5
  0
LINE
  8
0
 10
17.7
 20
389.5
 11
17.7482
 21
389.774
  0
LINE
  8
0
 10
17.7482
 20
389.774
 11
17.8872
 21
390.014
  0
LINE
  8
0
 10
17.8872
 20
390.014
 11
18.1
 21
390.193
  0
LINE
  8
0
 10
18.1
 20
390.193
 11
18.3611
 21
390.288
  0
LINE
  8
0
 10
18.3611
 20
390.288
 11
18.6389
 21
390.288
  0
LINE
  8
0
 10
18.6389
 20
390.288
 11
18.9
 21
390.193
  0
LINE
  8
0
 10
18.9
 20
390.193
 11
19.1128
 21
390.014
  0
LINE
  8
0
 10
19.1128
 20
390.014
 11
19.2518
 21
389.774
  0
LINE
  8
0
 10
19.2518
 20
389.774
 11
19.3
 21
389.5
  0
LINE
  8
0
 10
19.3
 20
389.5
 11
19.2518
 21
389.226
  0
LINE
  8
0
 10
19.2518
 20
389.226
 11
19.1128
 21
388.986
  0
LINE
  8
0
 10
19.1128
 20
388.986
 11
18.9
 21
388.807
  0
LINE
  8
0
 10
18.9
 20
388.807
 11
18.6389
 21
388.712
  0
LINE
  8
0
 10
18.6389
 20
388.712
 11
18.3611
 21
388.712
  0
LINE
  8
0
 10
42.3611
 20
388.712
 11
42.1
 21
388.807
  0
LINE
  8
0
 10
42.1
 20
388.807
 11
41.8872
 21
388.986
  0
LINE
  8
0
 10
41.8872
 20
388.986
 11
41.7482
 21
389.226
  0
LINE
  8
0
 10
41.7482
 20
389.226
 11
41.7
 21
389.5
  0
LINE
  8
0
 10
41.7
 20
389.5
 11
41.7482
 21
389.774
  0
LINE
  8
0
 10
41.7482
 20
389.774
 11
41.8872
 21
390.014
  0
LINE
  8
0
 10
41.8872
 20
390.014
 11
42.1
 21
390.193
  0
LINE
  8
0
 10
42.1
 20
390.193
 11
42.3611
 21
390.288
  0
LINE
  8
0
 10
42.3611
 20
390.288
 11
42.6389
 21
390.288
  0
LINE
  8
0
 10
42.6389
 20
390.288
 11
42.9
 21
390.193
  0
LINE
  8
0
 10
42.9
 20
390.193
 11
43.1128
 21
390.014
  0
LINE
  8
0
 10
43.1128
 20
390.014
 11
43.2518
 21
389.774
  0
LINE
  8
0
 10
43.2518
 20
389.774
 11
43.3
 21
389.5
  0
LINE
  8
0
 10
43.3
 20
389.5
 11
43.2518
 21
389.226
  0
LINE
  8
0
 10
43.2518
 20
389.226
 11
43.1128
 21
388.986
  0
LINE
  8
0
 10
43.1128
 20
388.986
 11
42.9
 21
388.807
  0
LINE
  8
0
 10
42.9
 20
388.807
 11
42.6389
 21
388.712
  0
LINE
  8
0
 10
42.6389
 20
388.712
 11
42.3611
 21
388.712
  0
LINE
  8
0
 10
42.3611
 20
372.712
 11
42.1
 21
372.807
  0
LINE
  8
0
 10
42.1
 20
372.807
 11
41.8872
 21
372.986
  0
LINE
  8
0
 10
41.8872
 20
372.986
 11
41.7482
 21
373.226
  0
LINE
  8
0
 10
41.7482
 20
373.226
 11
41.7
 21
373.5
  0
LINE
  8
0
 10
41.7
 20
373.5
 11
41.7482
 21
373.774
  0
LINE
  8
0
 10
41.7482
 20
373.774
 11
41.8872
 21
374.014
  0
LINE
  8
0
 10
41.8872
 20
374.014
 11
42.1
 21
374.193
  0
LINE
  8
0
 10
42.1
 20
374.193
 11
42.3611
 21
374.288
  0
LINE
  8
0
 10
42.3611
 20
374.288
 11
42.6389
 21
374.288
  0
LINE
  8
0
 10
42.6389
 20
374.288
 11
42.9
 21
374.193
  0
LINE
  8
0
 10
42.9
 20
374.193
 11
43.1128
 21
374.014
  0
LINE
  8
0
 10
43.1128
 20
374.014
 11
43.2518
 21
373.774
  0
LINE
  8
0
 10
43.2518
 20
373.774
 11
43.3
 21
373.5
  0
LINE
  8
0
 10
43.3
 20
373.5
 11
43.2518
 21
373.226
  0
LINE
  8
0
 10
43.2518
 20
373.226
 11
43.1128
 21
372.986
  0
LINE
  8
0
 10
43.1128
 20
372.986
 11
42.9
 21
372.807
  0
LINE
  8
0
 10
42.9
 20
372.807
 11
42.6389
 21
372.712
  0
LINE
  8
0
 10
42.6389
 20
372.712
 11
42.3611
 21
372.712
  0
LINE
  8
0
 10
18.3611
 20
372.712
 11
18.1
 21
372.807
  0
LINE
  8
0
 10
18.1
 20
372.807
 11
17.8872
 21
372.986
  0
LINE
  8
0
 10
17.8872
 20
372.986
 11
17.7482
 21
373.226
  0
LINE
  8
0
 10
17.7482
 20
373.226
 11
17.7
 21
373.5
  0
LINE
  8
0
 10
17.7
 20
373.5
 11
17.7482
 21
373.774
  0
LINE
  8
0
 10
17.7482
 20
373.774
 11
17.8872
 21
374.014
  0
LINE
  8
0
 10
17.8872
 20
374.014
 11
18.1
 21
374.193
  0
LINE
  8
0
 10
18.1
 20
374.193
 11
18.3611
 21
374.288
  0
LINE
  8
0
 10
18.3611
 20
374.288
 11
18.6389
 21
374.288
  0
LINE
  8
0
 10
18.6389
 20
374.288
 11
18.9
 21
374.193
  0
LINE
  8
0
 10
18.9
 20
374.193
 11
19.1128
 21
374.014
  0
LINE
  8
0
 10
19.1128
 20
374.014
 11
19.2518
 21
373.774
  0
LINE
  8
0
 10
19.2518
 20
373.774
 11
19.3
 21
373.5
  0
LINE
  8
0
 10
19.3
 20
373.5
 11
19.2518
 21
373.226
  0
LINE
  8
0
 10
19.2518
 20
373.226
 11
19.1128
 21
372.986
  0
LINE
  8
0
 10
19.1128
 20
372.986
 11
18.9
 21
372.807
  0
LINE
  8
0
 10
18.9
 20
372.807
 11
18.6389
 21
372.712
  0
LINE
  8
0
 10
18.6389
 20
372.712
 11
18.3611
 21
372.712
  0
LINE
  8
0
 10
48.3611
 20
356.712
 11
48.1
 21
356.807
  0
LINE
  8
0
 10
48.1
 20
356.807
 11
47.8872
 21
356.986
  0
LINE
  8
0
 10
47.8872
 20
356.986
 11
47.7482
 21
357.226
  0
LINE
  8
0
 10
47.7482
 20
357.226
 11
47.7
 21
357.5
  0
LINE
  8
0
 10
47.7
 20
357.5
 11
47.7482
 21
357.774
  0
LINE
  8
0
 10
47.7482
 20
357.774
 11
47.8872
 21
358.014
  0
LINE
  8
0
 10
47.8872
 20
358.014
 11
48.1
 21
358.193
  0
LINE
  8
0
 10
48.1
 20
358.193
 11
48.3611
 21
358.288
  0
LINE
  8
0
 10
48.3611
 20
358.288
 11
48.6389
 21
358.288
  0
LINE
  8
0
 10
48.6389
 20
358.288
 11
48.9
 21
358.193
  0
LINE
  8
0
 10
48.9
 20
358.193
 11
49.1128
 21
358.014
  0
LINE
  8
0
 10
49.1128
 20
358.014
 11
49.2518
 21
357.774
  0
LINE
  8
0
 10
49.2518
 20
357.774
 11
49.3
 21
357.5
  0
LINE
  8
0
 10
49.3
 20
357.5
 11
49.2518
 21
357.226
  0
LINE
  8
0
 10
49.2518
 20
357.226
 11
49.1128
 21
356.986
  0
LINE
  8
0
 10
49.1128
 20
356.986
 11
48.9
 21
356.807
  0
LINE
  8
0
 10
48.9
 20
356.807
 11
48.6389
 21
356.712
  0
LINE
  8
0
 10
48.6389
 20
356.712
 11
48.3611
 21
356.712
  0
LINE
  8
0
 10
24.3611
 20
356.712
 11
24.1
 21
356.807
  0
LINE
  8
0
 10
24.1
 20
356.807
 11
23.8872
 21
356.986
  0
LINE
  8
0
 10
23.8872
 20
356.986
 11
23.7482
 21
357.226
  0
LINE
  8
0
 10
23.7482
 20
357.226
 11
23.7
 21
357.5
  0
LINE
  8
0
 10
23.7
 20
357.5
 11
23.7482
 21
357.774
  0
LINE
  8
0
 10
23.7482
 20
357.774
 11
23.8872
 21
358.014
  0
LINE
  8
0
 10
23.8872
 20
358.014
 11
24.1
 21
358.193
  0
LINE
  8
0
 10
24.1
 20
358.193
 11
24.3611
 21
358.288
  0
LINE
  8
0
 10
24.3611
 20
358.288
 11
24.6389
 21
358.288
  0
LINE
  8
0
 10
24.6389
 20
358.288
 11
24.9
 21
358.193
  0
LINE
  8
0
 10
24.9
 20
358.193
 11
25.1128
 21
358.014
  0
LINE
  8
0
 10
25.1128
 20
358.014
 11
25.2518
 21
357.774
  0
LINE
  8
0
 10
25.2518
 20
357.774
 11
25.3
 21
357.5
  0
LINE
  8
0
 10
25.3
 20
357.5
 11
25.2518
 21
357.226
  0
LINE
  8
0
 10
25.2518
 20
357.226
 11
25.1128
 21
356.986
  0
LINE
  8
0
 10
25.1128
 20
356.986
 11
24.9
 21
356.807
  0
LINE
  8
0
 10
24.9
 20
356.807
 11
24.6389
 21
356.712
  0
LINE
  8
0
 10
24.6389
 20
356.712
 11
24.3611
 21
356.712
  0
LINE
  8
0
 10
42.3611
 20
348.712
 11
42.1
 21
348.807
  0
LINE
  8
0
 10
42.1
 20
348.807
 11
41.8872
 21
348.986
  0
LINE
  8
0
 10
41.8872
 20
348.986
 11
41.7482
 21
349.226
  0
LINE
  8
0
 10
41.7482
 20
349.226
 11
41.7
 21
349.5
  0
LINE
  8
0
 10
41.7
 20
349.5
 11
41.7482
 21
349.774
  0
LINE
  8
0
 10
41.7482
 20
349.774
 11
41.8872
 21
350.014
  0
LINE
  8
0
 10
41.8872
 20
350.014
 11
42.1
 21
350.193
  0
LINE
  8
0
 10
42.1
 20
350.193
 11
42.3611
 21
350.288
  0
LINE
  8
0
 10
42.3611
 20
350.288
 11
42.6389
 21
350.288
  0
LINE
  8
0
 10
42.6389
 20
350.288
 11
42.9
 21
350.193
  0
LINE
  8
0
 10
42.9
 20
350.193
 11
43.1128
 21
350.014
  0
LINE
  8
0
 10
43.1128
 20
350.014
 11
43.2518
 21
349.774
  0
LINE
  8
0
 10
43.2518
 20
349.774
 11
43.3
 21
349.5
  0
LINE
  8
0
 10
43.3
 20
349.5
 11
43.2518
 21
349.226
  0
LINE
  8
0
 10
43.2518
 20
349.226
 11
43.1128
 21
348.986
  0
LINE
  8
0
 10
43.1128
 20
348.986
 11
42.9
 21
348.807
  0
LINE
  8
0
 10
42.9
 20
348.807
 11
42.6389
 21
348.712
  0
LINE
  8
0
 10
42.6389
 20
348.712
 11
42.3611
 21
348.712
  0
LINE
  8
0
 10
18.3611
 20
348.712
 11
18.1
 21
348.807
  0
LINE
  8
0
 10
18.1
 20
348.807
 11
17.8872
 21
348.986
  0
LINE
  8
0
 10
17.8872
 20
348.986
 11
17.7482
 21
349.226
  0
LINE
  8
0
 10
17.7482
 20
349.226
 11
17.7
 21
349.5
  0
LINE
  8
0
 10
17.7
 20
349.5
 11
17.7482
 21
349.774
  0
LINE
  8
0
 10
17.7482
 20
349.774
 11
17.8872
 21
350.014
  0
LINE
  8
0
 10
17.8872
 20
350.014
 11
18.1
 21
350.193
  0
LINE
  8
0
 10
18.1
 20
350.193
 11
18.3611
 21
350.288
  0
LINE
  8
0
 10
18.3611
 20
350.288
 11
18.6389
 21
350.288
  0
LINE
  8
0
 10
18.6389
 20
350.288
 11
18.9
 21
350.193
  0
LINE
  8
0
 10
18.9
 20
350.193
 11
19.1128
 21
350.014
  0
LINE
  8
0
 10
19.1128
 20
350.014
 11
19.2518
 21
349.774
  0
LINE
  8
0
 10
19.2518
 20
349.774
 11
19.3
 21
349.5
  0
LINE
  8
0
 10
19.3
 20
349.5
 11
19.2518
 21
349.226
  0
LINE
  8
0
 10
19.2518
 20
349.226
 11
19.1128
 21
348.986
  0
LINE
  8
0
 10
19.1128
 20
348.986
 11
18.9
 21
348.807
  0
LINE
  8
0
 10
18.9
 20
348.807
 11
18.6389
 21
348.712
  0
LINE
  8
0
 10
18.6389
 20
348.712
 11
18.3611
 21
348.712
  0
LINE
  8
0
 10
14.3611
 20
340.712
 11
14.1
 21
340.807
  0
LINE
  8
0
 10
14.1
 20
340.807
 11
13.8872
 21
340.986
  0
LINE
  8
0
 10
13.8872
 20
340.986
 11
13.7482
 21
341.226
  0
LINE
  8
0
 10
13.7482
 20
341.226
 11
13.7
 21
341.5
  0
LINE
  8
0
 10
13.7
 20
341.5
 11
13.7482
 21
341.774
  0
LINE
  8
0
 10
13.7482
 20
341.774
 11
13.8872
 21
342.014
  0
LINE
  8
0
 10
13.8872
 20
342.014
 11
14.1
 21
342.193
  0
LINE
  8
0
 10
14.1
 20
342.193
 11
14.3611
 21
342.288
  0
LINE
  8
0
 10
14.3611
 20
342.288
 11
14.6389
 21
342.288
  0
LINE
  8
0
 10
14.6389
 20
342.288
 11
14.9
 21
342.193
  0
LINE
  8
0
 10
14.9
 20
342.193
 11
15.1128
 21
342.014
  0
LINE
  8
0
 10
15.1128
 20
342.014
 11
15.2517
 21
341.774
  0
LINE
  8
0
 10
15.2517
 20
341.774
 11
15.3
 21
341.5
  0
LINE
  8
0
 10
15.3
 20
341.5
 11
15.2517
 21
341.226
  0
LINE
  8
0
 10
15.2517
 20
341.226
 11
15.1128
 21
340.986
  0
LINE
  8
0
 10
15.1128
 20
340.986
 11
14.9
 21
340.807
  0
LINE
  8
0
 10
14.9
 20
340.807
 11
14.6389
 21
340.712
  0
LINE
  8
0
 10
14.6389
 20
340.712
 11
14.3611
 21
340.712
  0
LINE
  8
0
 10
38.3611
 20
340.712
 11
38.1
 21
340.807
  0
LINE
  8
0
 10
38.1
 20
340.807
 11
37.8872
 21
340.986
  0
LINE
  8
0
 10
37.8872
 20
340.986
 11
37.7482
 21
341.226
  0
LINE
  8
0
 10
37.7482
 20
341.226
 11
37.7
 21
341.5
  0
LINE
  8
0
 10
37.7
 20
341.5
 11
37.7482
 21
341.774
  0
LINE
  8
0
 10
37.7482
 20
341.774
 11
37.8872
 21
342.014
  0
LINE
  8
0
 10
37.8872
 20
342.014
 11
38.1
 21
342.193
  0
LINE
  8
0
 10
38.1
 20
342.193
 11
38.3611
 21
342.288
  0
LINE
  8
0
 10
38.3611
 20
342.288
 11
38.6389
 21
342.288
  0
LINE
  8
0
 10
38.6389
 20
342.288
 11
38.9
 21
342.193
  0
LINE
  8
0
 10
38.9
 20
342.193
 11
39.1128
 21
342.014
  0
LINE
  8
0
 10
39.1128
 20
342.014
 11
39.2518
 21
341.774
  0
LINE
  8
0
 10
39.2518
 20
341.774
 11
39.3
 21
341.5
  0
LINE
  8
0
 10
39.3
 20
341.5
 11
39.2518
 21
341.226
  0
LINE
  8
0
 10
39.2518
 20
341.226
 11
39.1128
 21
340.986
  0
LINE
  8
0
 10
39.1128
 20
340.986
 11
38.9
 21
340.807
  0
LINE
  8
0
 10
38.9
 20
340.807
 11
38.6389
 21
340.712
  0
LINE
  8
0
 10
38.6389
 20
340.712
 11
38.3611
 21
340.712
  0
LINE
  8
0
 10
38.3611
 20
324.712
 11
38.1
 21
324.807
  0
LINE
  8
0
 10
38.1
 20
324.807
 11
37.8872
 21
324.986
  0
LINE
  8
0
 10
37.8872
 20
324.986
 11
37.7482
 21
325.226
  0
LINE
  8
0
 10
37.7482
 20
325.226
 11
37.7
 21
325.5
  0
LINE
  8
0
 10
37.7
 20
325.5
 11
37.7482
 21
325.774
  0
LINE
  8
0
 10
37.7482
 20
325.774
 11
37.8872
 21
326.014
  0
LINE
  8
0
 10
37.8872
 20
326.014
 11
38.1
 21
326.193
  0
LINE
  8
0
 10
38.1
 20
326.193
 11
38.3611
 21
326.288
  0
LINE
  8
0
 10
38.3611
 20
326.288
 11
38.6389
 21
326.288
  0
LINE
  8
0
 10
38.6389
 20
326.288
 11
38.9
 21
326.193
  0
LINE
  8
0
 10
38.9
 20
326.193
 11
39.1128
 21
326.014
  0
LINE
  8
0
 10
39.1128
 20
326.014
 11
39.2518
 21
325.774
  0
LINE
  8
0
 10
39.2518
 20
325.774
 11
39.3
 21
325.5
  0
LINE
  8
0
 10
39.3
 20
325.5
 11
39.2518
 21
325.226
  0
LINE
  8
0
 10
39.2518
 20
325.226
 11
39.1128
 21
324.986
  0
LINE
  8
0
 10
39.1128
 20
324.986
 11
38.9
 21
324.807
  0
LINE
  8
0
 10
38.9
 20
324.807
 11
38.6389
 21
324.712
  0
LINE
  8
0
 10
38.6389
 20
324.712
 11
38.3611
 21
324.712
  0
LINE
  8
0
 10
14.3611
 20
324.712
 11
14.1
 21
324.807
  0
LINE
  8
0
 10
14.1
 20
324.807
 11
13.8872
 21
324.986
  0
LINE
  8
0
 10
13.8872
 20
324.986
 11
13.7482
 21
325.226
  0
LINE
  8
0
 10
13.7482
 20
325.226
 11
13.7
 21
325.5
  0
LINE
  8
0
 10
13.7
 20
325.5
 11
13.7482
 21
325.774
  0
LINE
  8
0
 10
13.7482
 20
325.774
 11
13.8872
 21
326.014
  0
LINE
  8
0
 10
13.8872
 20
326.014
 11
14.1
 21
326.193
  0
LINE
  8
0
 10
14.1
 20
326.193
 11
14.3611
 21
326.288
  0
LINE
  8
0
 10
14.3611
 20
326.288
 11
14.6389
 21
326.288
  0
LINE
  8
0
 10
14.6389
 20
326.288
 11
14.9
 21
326.193
  0
LINE
  8
0
 10
14.9
 20
326.193
 11
15.1128
 21
326.014
  0
LINE
  8
0
 10
15.1128
 20
326.014
 11
15.2517
 21
325.774
  0
LINE
  8
0
 10
15.2517
 20
325.774
 11
15.3
 21
325.5
  0
LINE
  8
0
 10
15.3
 20
325.5
 11
15.2517
 21
325.226
  0
LINE
  8
0
 10
15.2517
 20
325.226
 11
15.1128
 21
324.986
  0
LINE
  8
0
 10
15.1128
 20
324.986
 11
14.9
 21
324.807
  0
LINE
  8
0
 10
14.9
 20
324.807
 11
14.6389
 21
324.712
  0
LINE
  8
0
 10
14.6389
 20
324.712
 11
14.3611
 21
324.712
  0
LINE
  8
0
 10
14.3611
 20
308.712
 11
14.1
 21
308.807
  0
LINE
  8
0
 10
14.1
 20
308.807
 11
13.8872
 21
308.986
  0
LINE
  8
0
 10
13.8872
 20
308.986
 11
13.7482
 21
309.226
  0
LINE
  8
0
 10
13.7482
 20
309.226
 11
13.7
 21
309.5
  0
LINE
  8
0
 10
13.7
 20
309.5
 11
13.7482
 21
309.774
  0
LINE
  8
0
 10
13.7482
 20
309.774
 11
13.8872
 21
310.014
  0
LINE
  8
0
 10
13.8872
 20
310.014
 11
14.1
 21
310.193
  0
LINE
  8
0
 10
14.1
 20
310.193
 11
14.3611
 21
310.288
  0
LINE
  8
0
 10
14.3611
 20
310.288
 11
14.6389
 21
310.288
  0
LINE
  8
0
 10
14.6389
 20
310.288
 11
14.9
 21
310.193
  0
LINE
  8
0
 10
14.9
 20
310.193
 11
15.1128
 21
310.014
  0
LINE
  8
0
 10
15.1128
 20
310.014
 11
15.2517
 21
309.774
  0
LINE
  8
0
 10
15.2517
 20
309.774
 11
15.3
 21
309.5
  0
LINE
  8
0
 10
15.3
 20
309.5
 11
15.2517
 21
309.226
  0
LINE
  8
0
 10
15.2517
 20
309.226
 11
15.1128
 21
308.986
  0
LINE
  8
0
 10
15.1128
 20
308.986
 11
14.9
 21
308.807
  0
LINE
  8
0
 10
14.9
 20
308.807
 11
14.6389
 21
308.712
  0
LINE
  8
0
 10
14.6389
 20
308.712
 11
14.3611
 21
308.712
  0
LINE
  8
0
 10
38.3611
 20
308.712
 11
38.1
 21
308.807
  0
LINE
  8
0
 10
38.1
 20
308.807
 11
37.8872
 21
308.986
  0
LINE
  8
0
 10
37.8872
 20
308.986
 11
37.7482
 21
309.226
  0
LINE
  8
0
 10
37.7482
 20
309.226
 11
37.7
 21
309.5
  0
LINE
  8
0
 10
37.7
 20
309.5
 11
37.7482
 21
309.774
  0
LINE
  8
0
 10
37.7482
 20
309.774
 11
37.8872
 21
310.014
  0
LINE
  8
0
 10
37.8872
 20
310.014
 11
38.1
 21
310.193
  0
LINE
  8
0
 10
38.1
 20
310.193
 11
38.3611
 21
310.288
  0
LINE
  8
0
 10
38.3611
 20
310.288
 11
38.6389
 21
310.288
  0
LINE
  8
0
 10
38.6389
 20
310.288
 11
38.9
 21
310.193
  0
LINE
  8
0
 10
38.9
 20
310.193
 11
39.1128
 21
310.014
  0
LINE
  8
0
 10
39.1128
 20
310.014
 11
39.2518
 21
309.774
  0
LINE
  8
0
 10
39.2518
 20
309.774
 11
39.3
 21
309.5
  0
LINE
  8
0
 10
39.3
 20
309.5
 11
39.2518
 21
309.226
  0
LINE
  8
0
 10
39.2518
 20
309.226
 11
39.1128
 21
308.986
  0
LINE
  8
0
 10
39.1128
 20
308.986
 11
38.9
 21
308.807
  0
LINE
  8
0
 10
38.9
 20
308.807
 11
38.6389
 21
308.712
  0
LINE
  8
0
 10
38.6389
 20
308.712
 11
38.3611
 21
308.712
  0
LINE
  8
0
 10
24.3611
 20
292.712
 11
24.1
 21
292.807
  0
LINE
  8
0
 10
24.1
 20
292.807
 11
23.8872
 21
292.986
  0
LINE
  8
0
 10
23.8872
 20
292.986
 11
23.7482
 21
293.226
  0
LINE
  8
0
 10
23.7482
 20
293.226
 11
23.7
 21
293.5
  0
LINE
  8
0
 10
23.7
 20
293.5
 11
23.7482
 21
293.774
  0
LINE
  8
0
 10
23.7482
 20
293.774
 11
23.8872
 21
294.014
  0
LINE
  8
0
 10
23.8872
 20
294.014
 11
24.1
 21
294.193
  0
LINE
  8
0
 10
24.1
 20
294.193
 11
24.3611
 21
294.288
  0
LINE
  8
0
 10
24.3611
 20
294.288
 11
24.6389
 21
294.288
  0
LINE
  8
0
 10
24.6389
 20
294.288
 11
24.9
 21
294.193
  0
LINE
  8
0
 10
24.9
 20
294.193
 11
25.1128
 21
294.014
  0
LINE
  8
0
 10
25.1128
 20
294.014
 11
25.2518
 21
293.774
  0
LINE
  8
0
 10
25.2518
 20
293.774
 11
25.3
 21
293.5
  0
LINE
  8
0
 10
25.3
 20
293.5
 11
25.2518
 21
293.226
  0
LINE
  8
0
 10
25.2518
 20
293.226
 11
25.1128
 21
292.986
  0
LINE
  8
0
 10
25.1128
 20
292.986
 11
24.9
 21
292.807
  0
LINE
  8
0
 10
24.9
 20
292.807
 11
24.6389
 21
292.712
  0
LINE
  8
0
 10
24.6389
 20
292.712
 11
24.3611
 21
292.712
  0
LINE
  8
0
 10
48.3611
 20
292.712
 11
48.1
 21
292.807
  0
LINE
  8
0
 10
48.1
 20
292.807
 11
47.8872
 21
292.986
  0
LINE
  8
0
 10
47.8872
 20
292.986
 11
47.7482
 21
293.226
  0
LINE
  8
0
 10
47.7482
 20
293.226
 11
47.7
 21
293.5
  0
LINE
  8
0
 10
47.7
 20
293.5
 11
47.7482
 21
293.774
  0
LINE
  8
0
 10
47.7482
 20
293.774
 11
47.8872
 21
294.014
  0
LINE
  8
0
 10
47.8872
 20
294.014
 11
48.1
 21
294.193
  0
LINE
  8
0
 10
48.1
 20
294.193
 11
48.3611
 21
294.288
  0
LINE
  8
0
 10
48.3611
 20
294.288
 11
48.6389
 21
294.288
  0
LINE
  8
0
 10
48.6389
 20
294.288
 11
48.9
 21
294.193
  0
LINE
  8
0
 10
48.9
 20
294.193
 11
49.1128
 21
294.014
  0
LINE
  8
0
 10
49.1128
 20
294.014
 11
49.2518
 21
293.774
  0
LINE
  8
0
 10
49.2518
 20
293.774
 11
49.3
 21
293.5
  0
LINE
  8
0
 10
49.3
 20
293.5
 11
49.2518
 21
293.226
  0
LINE
  8
0
 10
49.2518
 20
293.226
 11
49.1128
 21
292.986
  0
LINE
  8
0
 10
49.1128
 20
292.986
 11
48.9
 21
292.807
  0
LINE
  8
0
 10
48.9
 20
292.807
 11
48.6389
 21
292.712
  0
LINE
  8
0
 10
48.6389
 20
292.712
 11
48.3611
 21
292.712
  0
LINE
  8
0
 10
42.3611
 20
284.712
 11
42.1
 21
284.807
  0
LINE
  8
0
 10
42.1
 20
284.807
 11
41.8872
 21
284.986
  0
LINE
  8
0
 10
41.8872
 20
284.986
 11
41.7482
 21
285.226
  0
LINE
  8
0
 10
41.7482
 20
285.226
 11
41.7
 21
285.5
  0
LINE
  8
0
 10
41.7
 20
285.5
 11
41.7482
 21
285.774
  0
LINE
  8
0
 10
41.7482
 20
285.774
 11
41.8872
 21
286.014
  0
LINE
  8
0
 10
41.8872
 20
286.014
 11
42.1
 21
286.193
  0
LINE
  8
0
 10
42.1
 20
286.193
 11
42.3611
 21
286.288
  0
LINE
  8
0
 10
42.3611
 20
286.288
 11
42.6389
 21
286.288
  0
LINE
  8
0
 10
42.6389
 20
286.288
 11
42.9
 21
286.193
  0
LINE
  8
0
 10
42.9
 20
286.193
 11
43.1128
 21
286.014
  0
LINE
  8
0
 10
43.1128
 20
286.014
 11
43.2518
 21
285.774
  0
LINE
  8
0
 10
43.2518
 20
285.774
 11
43.3
 21
285.5
  0
LINE
  8
0
 10
43.3
 20
285.5
 11
43.2518
 21
285.226
  0
LINE
  8
0
 10
43.2518
 20
285.226
 11
43.1128
 21
284.986
  0
LINE
  8
0
 10
43.1128
 20
284.986
 11
42.9
 21
284.807
  0
LINE
  8
0
 10
42.9
 20
284.807
 11
42.6389
 21
284.712
  0
LINE
  8
0
 10
42.6389
 20
284.712
 11
42.3611
 21
284.712
  0
LINE
  8
0
 10
18.3611
 20
284.712
 11
18.1
 21
284.807
  0
LINE
  8
0
 10
18.1
 20
284.807
 11
17.8872
 21
284.986
  0
LINE
  8
0
 10
17.8872
 20
284.986
 11
17.7482
 21
285.226
  0
LINE
  8
0
 10
17.7482
 20
285.226
 11
17.7
 21
285.5
  0
LINE
  8
0
 10
17.7
 20
285.5
 11
17.7482
 21
285.774
  0
LINE
  8
0
 10
17.7482
 20
285.774
 11
17.8872
 21
286.014
  0
LINE
  8
0
 10
17.8872
 20
286.014
 11
18.1
 21
286.193
  0
LINE
  8
0
 10
18.1
 20
286.193
 11
18.3611
 21
286.288
  0
LINE
  8
0
 10
18.3611
 20
286.288
 11
18.6389
 21
286.288
  0
LINE
  8
0
 10
18.6389
 20
286.288
 11
18.9
 21
286.193
  0
LINE
  8
0
 10
18.9
 20
286.193
 11
19.1128
 21
286.014
  0
LINE
  8
0
 10
19.1128
 20
286.014
 11
19.2518
 21
285.774
  0
LINE
  8
0
 10
19.2518
 20
285.774
 11
19.3
 21
285.5
  0
LINE
  8
0
 10
19.3
 20
285.5
 11
19.2518
 21
285.226
  0
LINE
  8
0
 10
19.2518
 20
285.226
 11
19.1128
 21
284.986
  0
LINE
  8
0
 10
19.1128
 20
284.986
 11
18.9
 21
284.807
  0
LINE
  8
0
 10
18.9
 20
284.807
 11
18.6389
 21
284.712
  0
LINE
  8
0
 10
18.6389
 20
284.712
 11
18.3611
 21
284.712
  0
LINE
  8
0
 10
14.3611
 20
276.712
 11
14.1
 21
276.807
  0
LINE
  8
0
 10
14.1
 20
276.807
 11
13.8872
 21
276.986
  0
LINE
  8
0
 10
13.8872
 20
276.986
 11
13.7482
 21
277.226
  0
LINE
  8
0
 10
13.7482
 20
277.226
 11
13.7
 21
277.5
  0
LINE
  8
0
 10
13.7
 20
277.5
 11
13.7482
 21
277.774
  0
LINE
  8
0
 10
13.7482
 20
277.774
 11
13.8872
 21
278.014
  0
LINE
  8
0
 10
13.8872
 20
278.014
 11
14.1
 21
278.193
  0
LINE
  8
0
 10
14.1
 20
278.193
 11
14.3611
 21
278.288
  0
LINE
  8
0
 10
14.3611
 20
278.288
 11
14.6389
 21
278.288
  0
LINE
  8
0
 10
14.6389
 20
278.288
 11
14.9
 21
278.193
  0
LINE
  8
0
 10
14.9
 20
278.193
 11
15.1128
 21
278.014
  0
LINE
  8
0
 10
15.1128
 20
278.014
 11
15.2517
 21
277.774
  0
LINE
  8
0
 10
15.2517
 20
277.774
 11
15.3
 21
277.5
  0
LINE
  8
0
 10
15.3
 20
277.5
 11
15.2517
 21
277.226
  0
LINE
  8
0
 10
15.2517
 20
277.226
 11
15.1128
 21
276.986
  0
LINE
  8
0
 10
15.1128
 20
276.986
 11
14.9
 21
276.807
  0
LINE
  8
0
 10
14.9
 20
276.807
 11
14.6389
 21
276.712
  0
LINE
  8
0
 10
14.6389
 20
276.712
 11
14.3611
 21
276.712
  0
LINE
  8
0
 10
38.3611
 20
276.712
 11
38.1
 21
276.807
  0
LINE
  8
0
 10
38.1
 20
276.807
 11
37.8872
 21
276.986
  0
LINE
  8
0
 10
37.8872
 20
276.986
 11
37.7482
 21
277.226
  0
LINE
  8
0
 10
37.7482
 20
277.226
 11
37.7
 21
277.5
  0
LINE
  8
0
 10
37.7
 20
277.5
 11
37.7482
 21
277.774
  0
LINE
  8
0
 10
37.7482
 20
277.774
 11
37.8872
 21
278.014
  0
LINE
  8
0
 10
37.8872
 20
278.014
 11
38.1
 21
278.193
  0
LINE
  8
0
 10
38.1
 20
278.193
 11
38.3611
 21
278.288
  0
LINE
  8
0
 10
38.3611
 20
278.288
 11
38.6389
 21
278.288
  0
LINE
  8
0
 10
38.6389
 20
278.288
 11
38.9
 21
278.193
  0
LINE
  8
0
 10
38.9
 20
278.193
 11
39.1128
 21
278.014
  0
LINE
  8
0
 10
39.1128
 20
278.014
 11
39.2518
 21
277.774
  0
LINE
  8
0
 10
39.2518
 20
277.774
 11
39.3
 21
277.5
  0
LINE
  8
0
 10
39.3
 20
277.5
 11
39.2518
 21
277.226
  0
LINE
  8
0
 10
39.2518
 20
277.226
 11
39.1128
 21
276.986
  0
LINE
  8
0
 10
39.1128
 20
276.986
 11
38.9
 21
276.807
  0
LINE
  8
0
 10
38.9
 20
276.807
 11
38.6389
 21
276.712
  0
LINE
  8
0
 10
38.6389
 20
276.712
 11
38.3611
 21
276.712
  0
LINE
  8
0
 10
38.3611
 20
260.712
 11
38.1
 21
260.807
  0
LINE
  8
0
 10
38.1
 20
260.807
 11
37.8872
 21
260.986
  0
LINE
  8
0
 10
37.8872
 20
260.986
 11
37.7482
 21
261.226
  0
LINE
  8
0
 10
37.7482
 20
261.226
 11
37.7
 21
261.5
  0
LINE
  8
0
 10
37.7
 20
261.5
 11
37.7482
 21
261.774
  0
LINE
  8
0
 10
37.7482
 20
261.774
 11
37.8872
 21
262.014
  0
LINE
  8
0
 10
37.8872
 20
262.014
 11
38.1
 21
262.193
  0
LINE
  8
0
 10
38.1
 20
262.193
 11
38.3611
 21
262.288
  0
LINE
  8
0
 10
38.3611
 20
262.288
 11
38.6389
 21
262.288
  0
LINE
  8
0
 10
38.6389
 20
262.288
 11
38.9
 21
262.193
  0
LINE
  8
0
 10
38.9
 20
262.193
 11
39.1128
 21
262.014
  0
LINE
  8
0
 10
39.1128
 20
262.014
 11
39.2518
 21
261.774
  0
LINE
  8
0
 10
39.2518
 20
261.774
 11
39.3
 21
261.5
  0
LINE
  8
0
 10
39.3
 20
261.5
 11
39.2518
 21
261.226
  0
LINE
  8
0
 10
39.2518
 20
261.226
 11
39.1128
 21
260.986
  0
LINE
  8
0
 10
39.1128
 20
260.986
 11
38.9
 21
260.807
  0
LINE
  8
0
 10
38.9
 20
260.807
 11
38.6389
 21
260.712
  0
LINE
  8
0
 10
38.6389
 20
260.712
 11
38.3611
 21
260.712
  0
LINE
  8
0
 10
14.3611
 20
260.712
 11
14.1
 21
260.807
  0
LINE
  8
0
 10
14.1
 20
260.807
 11
13.8872
 21
260.986
  0
LINE
  8
0
 10
13.8872
 20
260.986
 11
13.7482
 21
261.226
  0
LINE
  8
0
 10
13.7482
 20
261.226
 11
13.7
 21
261.5
  0
LINE
  8
0
 10
13.7
 20
261.5
 11
13.7482
 21
261.774
  0
LINE
  8
0
 10
13.7482
 20
261.774
 11
13.8872
 21
262.014
  0
LINE
  8
0
 10
13.8872
 20
262.014
 11
14.1
 21
262.193
  0
LINE
  8
0
 10
14.1
 20
262.193
 11
14.3611
 21
262.288
  0
LINE
  8
0
 10
14.3611
 20
262.288
 11
14.6389
 21
262.288
  0
LINE
  8
0
 10
14.6389
 20
262.288
 11
14.9
 21
262.193
  0
LINE
  8
0
 10
14.9
 20
262.193
 11
15.1128
 21
262.014
  0
LINE
  8
0
 10
15.1128
 20
262.014
 11
15.2517
 21
261.774
  0
LINE
  8
0
 10
15.2517
 20
261.774
 11
15.3
 21
261.5
  0
LINE
  8
0
 10
15.3
 20
261.5
 11
15.2517
 21
261.226
  0
LINE
  8
0
 10
15.2517
 20
261.226
 11
15.1128
 21
260.986
  0
LINE
  8
0
 10
15.1128
 20
260.986
 11
14.9
 21
260.807
  0
LINE
  8
0
 10
14.9
 20
260.807
 11
14.6389
 21
260.712
  0
LINE
  8
0
 10
14.6389
 20
260.712
 11
14.3611
 21
260.712
  0
LINE
  8
0
 10
38.3611
 20
244.712
 11
38.1
 21
244.807
  0
LINE
  8
0
 10
38.1
 20
244.807
 11
37.8872
 21
244.986
  0
LINE
  8
0
 10
37.8872
 20
244.986
 11
37.7482
 21
245.226
  0
LINE
  8
0
 10
37.7482
 20
245.226
 11
37.7
 21
245.5
  0
LINE
  8
0
 10
37.7
 20
245.5
 11
37.7482
 21
245.774
  0
LINE
  8
0
 10
37.7482
 20
245.774
 11
37.8872
 21
246.014
  0
LINE
  8
0
 10
37.8872
 20
246.014
 11
38.1
 21
246.193
  0
LINE
  8
0
 10
38.1
 20
246.193
 11
38.3611
 21
246.288
  0
LINE
  8
0
 10
38.3611
 20
246.288
 11
38.6389
 21
246.288
  0
LINE
  8
0
 10
38.6389
 20
246.288
 11
38.9
 21
246.193
  0
LINE
  8
0
 10
38.9
 20
246.193
 11
39.1128
 21
246.014
  0
LINE
  8
0
 10
39.1128
 20
246.014
 11
39.2518
 21
245.774
  0
LINE
  8
0
 10
39.2518
 20
245.774
 11
39.3
 21
245.5
  0
LINE
  8
0
 10
39.3
 20
245.5
 11
39.2518
 21
245.226
  0
LINE
  8
0
 10
39.2518
 20
245.226
 11
39.1128
 21
244.986
  0
LINE
  8
0
 10
39.1128
 20
244.986
 11
38.9
 21
244.807
  0
LINE
  8
0
 10
38.9
 20
244.807
 11
38.6389
 21
244.712
  0
LINE
  8
0
 10
38.6389
 20
244.712
 11
38.3611
 21
244.712
  0
LINE
  8
0
 10
14.3611
 20
244.712
 11
14.1
 21
244.807
  0
LINE
  8
0
 10
14.1
 20
244.807
 11
13.8872
 21
244.986
  0
LINE
  8
0
 10
13.8872
 20
244.986
 11
13.7482
 21
245.226
  0
LINE
  8
0
 10
13.7482
 20
245.226
 11
13.7
 21
245.5
  0
LINE
  8
0
 10
13.7
 20
245.5
 11
13.7482
 21
245.774
  0
LINE
  8
0
 10
13.7482
 20
245.774
 11
13.8872
 21
246.014
  0
LINE
  8
0
 10
13.8872
 20
246.014
 11
14.1
 21
246.193
  0
LINE
  8
0
 10
14.1
 20
246.193
 11
14.3611
 21
246.288
  0
LINE
  8
0
 10
14.3611
 20
246.288
 11
14.6389
 21
246.288
  0
LINE
  8
0
 10
14.6389
 20
246.288
 11
14.9
 21
246.193
  0
LINE
  8
0
 10
14.9
 20
246.193
 11
15.1128
 21
246.014
  0
LINE
  8
0
 10
15.1128
 20
246.014
 11
15.2517
 21
245.774
  0
LINE
  8
0
 10
15.2517
 20
245.774
 11
15.3
 21
245.5
  0
LINE
  8
0
 10
15.3
 20
245.5
 11
15.2517
 21
245.226
  0
LINE
  8
0
 10
15.2517
 20
245.226
 11
15.1128
 21
244.986
  0
LINE
  8
0
 10
15.1128
 20
244.986
 11
14.9
 21
244.807
  0
LINE
  8
0
 10
14.9
 20
244.807
 11
14.6389
 21
244.712
  0
LINE
  8
0
 10
14.6389
 20
244.712
 11
14.3611
 21
244.712
  0
LINE
  8
0
 10
52.3611
 20
188.712
 11
52.1
 21
188.807
  0
LINE
  8
0
 10
52.1
 20
188.807
 11
51.8872
 21
188.986
  0
LINE
  8
0
 10
51.8872
 20
188.986
 11
51.7482
 21
189.226
  0
LINE
  8
0
 10
51.7482
 20
189.226
 11
51.7
 21
189.5
  0
LINE
  8
0
 10
51.7
 20
189.5
 11
51.7482
 21
189.774
  0
LINE
  8
0
 10
51.7482
 20
189.774
 11
51.8872
 21
190.014
  0
LINE
  8
0
 10
51.8872
 20
190.014
 11
52.1
 21
190.193
  0
LINE
  8
0
 10
52.1
 20
190.193
 11
52.3611
 21
190.288
  0
LINE
  8
0
 10
52.3611
 20
190.288
 11
52.6389
 21
190.288
  0
LINE
  8
0
 10
52.6389
 20
190.288
 11
52.9
 21
190.193
  0
LINE
  8
0
 10
52.9
 20
190.193
 11
53.1128
 21
190.014
  0
LINE
  8
0
 10
53.1128
 20
190.014
 11
53.2518
 21
189.774
  0
LINE
  8
0
 10
53.2518
 20
189.774
 11
53.3
 21
189.5
  0
LINE
  8
0
 10
53.3
 20
189.5
 11
53.2518
 21
189.226
  0
LINE
  8
0
 10
53.2518
 20
189.226
 11
53.1128
 21
188.986
  0
LINE
  8
0
 10
53.1128
 20
188.986
 11
52.9
 21
188.807
  0
LINE
  8
0
 10
52.9
 20
188.807
 11
52.6389
 21
188.712
  0
LINE
  8
0
 10
52.6389
 20
188.712
 11
52.3611
 21
188.712
  0
LINE
  8
0
 10
32.3611
 20
188.712
 11
32.1
 21
188.807
  0
LINE
  8
0
 10
32.1
 20
188.807
 11
31.8872
 21
188.986
  0
LINE
  8
0
 10
31.8872
 20
188.986
 11
31.7482
 21
189.226
  0
LINE
  8
0
 10
31.7482
 20
189.226
 11
31.7
 21
189.5
  0
LINE
  8
0
 10
31.7
 20
189.5
 11
31.7482
 21
189.774
  0
LINE
  8
0
 10
31.7482
 20
189.774
 11
31.8872
 21
190.014
  0
LINE
  8
0
 10
31.8872
 20
190.014
 11
32.1
 21
190.193
  0
LINE
  8
0
 10
32.1
 20
190.193
 11
32.3611
 21
190.288
  0
LINE
  8
0
 10
32.3611
 20
190.288
 11
32.6389
 21
190.288
  0
LINE
  8
0
 10
32.6389
 20
190.288
 11
32.9
 21
190.193
  0
LINE
  8
0
 10
32.9
 20
190.193
 11
33.1128
 21
190.014
  0
LINE
  8
0
 10
33.1128
 20
190.014
 11
33.2518
 21
189.774
  0
LINE
  8
0
 10
33.2518
 20
189.774
 11
33.3
 21
189.5
  0
LINE
  8
0
 10
33.3
 20
189.5
 11
33.2518
 21
189.226
  0
LINE
  8
0
 10
33.2518
 20
189.226
 11
33.1128
 21
188.986
  0
LINE
  8
0
 10
33.1128
 20
188.986
 11
32.9
 21
188.807
  0
LINE
  8
0
 10
32.9
 20
188.807
 11
32.6389
 21
188.712
  0
LINE
  8
0
 10
32.6389
 20
188.712
 11
32.3611
 21
188.712
  0
LINE
  8
0
 10
48.3611
 20
172.712
 11
48.1
 21
172.807
  0
LINE
  8
0
 10
48.1
 20
172.807
 11
47.8872
 21
172.986
  0
LINE
  8
0
 10
47.8872
 20
172.986
 11
47.7482
 21
173.226
  0
LINE
  8
0
 10
47.7482
 20
173.226
 11
47.7
 21
173.5
  0
LINE
  8
0
 10
47.7
 20
173.5
 11
47.7482
 21
173.774
  0
LINE
  8
0
 10
47.7482
 20
173.774
 11
47.8872
 21
174.014
  0
LINE
  8
0
 10
47.8872
 20
174.014
 11
48.1
 21
174.193
  0
LINE
  8
0
 10
48.1
 20
174.193
 11
48.3611
 21
174.288
  0
LINE
  8
0
 10
48.3611
 20
174.288
 11
48.6389
 21
174.288
  0
LINE
  8
0
 10
48.6389
 20
174.288
 11
48.9
 21
174.193
  0
LINE
  8
0
 10
48.9
 20
174.193
 11
49.1128
 21
174.014
  0
LINE
  8
0
 10
49.1128
 20
174.014
 11
49.2518
 21
173.774
  0
LINE
  8
0
 10
49.2518
 20
173.774
 11
49.3
 21
173.5
  0
LINE
  8
0
 10
49.3
 20
173.5
 11
49.2518
 21
173.226
  0
LINE
  8
0
 10
49.2518
 20
173.226
 11
49.1128
 21
172.986
  0
LINE
  8
0
 10
49.1128
 20
172.986
 11
48.9
 21
172.807
  0
LINE
  8
0
 10
48.9
 20
172.807
 11
48.6389
 21
172.712
  0
LINE
  8
0
 10
48.6389
 20
172.712
 11
48.3611
 21
172.712
  0
LINE
  8
0
 10
24.3611
 20
172.712
 11
24.1
 21
172.807
  0
LINE
  8
0
 10
24.1
 20
172.807
 11
23.8872
 21
172.986
  0
LINE
  8
0
 10
23.8872
 20
172.986
 11
23.7482
 21
173.226
  0
LINE
  8
0
 10
23.7482
 20
173.226
 11
23.7
 21
173.5
  0
LINE
  8
0
 10
23.7
 20
173.5
 11
23.7482
 21
173.774
  0
LINE
  8
0
 10
23.7482
 20
173.774
 11
23.8872
 21
174.014
  0
LINE
  8
0
 10
23.8872
 20
174.014
 11
24.1
 21
174.193
  0
LINE
  8
0
 10
24.1
 20
174.193
 11
24.3611
 21
174.288
  0
LINE
  8
0
 10
24.3611
 20
174.288
 11
24.6389
 21
174.288
  0
LINE
  8
0
 10
24.6389
 20
174.288
 11
24.9
 21
174.193
  0
LINE
  8
0
 10
24.9
 20
174.193
 11
25.1128
 21
174.014
  0
LINE
  8
0
 10
25.1128
 20
174.014
 11
25.2518
 21
173.774
  0
LINE
  8
0
 10
25.2518
 20
173.774
 11
25.3
 21
173.5
  0
LINE
  8
0
 10
25.3
 20
173.5
 11
25.2518
 21
173.226
  0
LINE
  8
0
 10
25.2518
 20
173.226
 11
25.1128
 21
172.986
  0
LINE
  8
0
 10
25.1128
 20
172.986
 11
24.9
 21
172.807
  0
LINE
  8
0
 10
24.9
 20
172.807
 11
24.6389
 21
172.712
  0
LINE
  8
0
 10
24.6389
 20
172.712
 11
24.3611
 21
172.712
  0
LINE
  8
0
 10
22.3611
 20
156.712
 11
22.1
 21
156.807
  0
LINE
  8
0
 10
22.1
 20
156.807
 11
21.8872
 21
156.986
  0
LINE
  8
0
 10
21.8872
 20
156.986
 11
21.7482
 21
157.226
  0
LINE
  8
0
 10
21.7482
 20
157.226
 11
21.7
 21
157.5
  0
LINE
  8
0
 10
21.7
 20
157.5
 11
21.7482
 21
157.774
  0
LINE
  8
0
 10
21.7482
 20
157.774
 11
21.8872
 21
158.014
  0
LINE
  8
0
 10
21.8872
 20
158.014
 11
22.1
 21
158.193
  0
LINE
  8
0
 10
22.1
 20
158.193
 11
22.3611
 21
158.288
  0
LINE
  8
0
 10
22.3611
 20
158.288
 11
22.6389
 21
158.288
  0
LINE
  8
0
 10
22.6389
 20
158.288
 11
22.9
 21
158.193
  0
LINE
  8
0
 10
22.9
 20
158.193
 11
23.1128
 21
158.014
  0
LINE
  8
0
 10
23.1128
 20
158.014
 11
23.2518
 21
157.774
  0
LINE
  8
0
 10
23.2518
 20
157.774
 11
23.3
 21
157.5
  0
LINE
  8
0
 10
23.3
 20
157.5
 11
23.2518
 21
157.226
  0
LINE
  8
0
 10
23.2518
 20
157.226
 11
23.1128
 21
156.986
  0
LINE
  8
0
 10
23.1128
 20
156.986
 11
22.9
 21
156.807
  0
LINE
  8
0
 10
22.9
 20
156.807
 11
22.6389
 21
156.712
  0
LINE
  8
0
 10
22.6389
 20
156.712
 11
22.3611
 21
156.712
  0
LINE
  8
0
 10
46.3611
 20
156.712
 11
46.1
 21
156.807
  0
LINE
  8
0
 10
46.1
 20
156.807
 11
45.8872
 21
156.986
  0
LINE
  8
0
 10
45.8872
 20
156.986
 11
45.7482
 21
157.226
  0
LINE
  8
0
 10
45.7482
 20
157.226
 11
45.7
 21
157.5
  0
LINE
  8
0
 10
45.7
 20
157.5
 11
45.7482
 21
157.774
  0
LINE
  8
0
 10
45.7482
 20
157.774
 11
45.8872
 21
158.014
  0
LINE
  8
0
 10
45.8872
 20
158.014
 11
46.1
 21
158.193
  0
LINE
  8
0
 10
46.1
 20
158.193
 11
46.3611
 21
158.288
  0
LINE
  8
0
 10
46.3611
 20
158.288
 11
46.6389
 21
158.288
  0
LINE
  8
0
 10
46.6389
 20
158.288
 11
46.9
 21
158.193
  0
LINE
  8
0
 10
46.9
 20
158.193
 11
47.1128
 21
158.014
  0
LINE
  8
0
 10
47.1128
 20
158.014
 11
47.2518
 21
157.774
  0
LINE
  8
0
 10
47.2518
 20
157.774
 11
47.3
 21
157.5
  0
LINE
  8
0
 10
47.3
 20
157.5
 11
47.2518
 21
157.226
  0
LINE
  8
0
 10
47.2518
 20
157.226
 11
47.1128
 21
156.986
  0
LINE
  8
0
 10
47.1128
 20
156.986
 11
46.9
 21
156.807
  0
LINE
  8
0
 10
46.9
 20
156.807
 11
46.6389
 21
156.712
  0
LINE
  8
0
 10
46.6389
 20
156.712
 11
46.3611
 21
156.712
  0
LINE
  8
0
 10
18.3611
 20
148.712
 11
18.1
 21
148.807
  0
LINE
  8
0
 10
18.1
 20
148.807
 11
17.8872
 21
148.986
  0
LINE
  8
0
 10
17.8872
 20
148.986
 11
17.7482
 21
149.226
  0
LINE
  8
0
 10
17.7482
 20
149.226
 11
17.7
 21
149.5
  0
LINE
  8
0
 10
17.7
 20
149.5
 11
17.7482
 21
149.774
  0
LINE
  8
0
 10
17.7482
 20
149.774
 11
17.8872
 21
150.014
  0
LINE
  8
0
 10
17.8872
 20
150.014
 11
18.1
 21
150.193
  0
LINE
  8
0
 10
18.1
 20
150.193
 11
18.3611
 21
150.288
  0
LINE
  8
0
 10
18.3611
 20
150.288
 11
18.6389
 21
150.288
  0
LINE
  8
0
 10
18.6389
 20
150.288
 11
18.9
 21
150.193
  0
LINE
  8
0
 10
18.9
 20
150.193
 11
19.1128
 21
150.014
  0
LINE
  8
0
 10
19.1128
 20
150.014
 11
19.2518
 21
149.774
  0
LINE
  8
0
 10
19.2518
 20
149.774
 11
19.3
 21
149.5
  0
LINE
  8
0
 10
19.3
 20
149.5
 11
19.2518
 21
149.226
  0
LINE
  8
0
 10
19.2518
 20
149.226
 11
19.1128
 21
148.986
  0
LINE
  8
0
 10
19.1128
 20
148.986
 11
18.9
 21
148.807
  0
LINE
  8
0
 10
18.9
 20
148.807
 11
18.6389
 21
148.712
  0
LINE
  8
0
 10
18.6389
 20
148.712
 11
18.3611
 21
148.712
  0
LINE
  8
0
 10
42.3611
 20
148.712
 11
42.1
 21
148.807
  0
LINE
  8
0
 10
42.1
 20
148.807
 11
41.8872
 21
148.986
  0
LINE
  8
0
 10
41.8872
 20
148.986
 11
41.7482
 21
149.226
  0
LINE
  8
0
 10
41.7482
 20
149.226
 11
41.7
 21
149.5
  0
LINE
  8
0
 10
41.7
 20
149.5
 11
41.7482
 21
149.774
  0
LINE
  8
0
 10
41.7482
 20
149.774
 11
41.8872
 21
150.014
  0
LINE
  8
0
 10
41.8872
 20
150.014
 11
42.1
 21
150.193
  0
LINE
  8
0
 10
42.1
 20
150.193
 11
42.3611
 21
150.288
  0
LINE
  8
0
 10
42.3611
 20
150.288
 11
42.6389
 21
150.288
  0
LINE
  8
0
 10
42.6389
 20
150.288
 11
42.9
 21
150.193
  0
LINE
  8
0
 10
42.9
 20
150.193
 11
43.1128
 21
150.014
  0
LINE
  8
0
 10
43.1128
 20
150.014
 11
43.2518
 21
149.774
  0
LINE
  8
0
 10
43.2518
 20
149.774
 11
43.3
 21
149.5
  0
LINE
  8
0
 10
43.3
 20
149.5
 11
43.2518
 21
149.226
  0
LINE
  8
0
 10
43.2518
 20
149.226
 11
43.1128
 21
148.986
  0
LINE
  8
0
 10
43.1128
 20
148.986
 11
42.9
 21
148.807
  0
LINE
  8
0
 10
42.9
 20
148.807
 11
42.6389
 21
148.712
  0
LINE
  8
0
 10
42.6389
 20
148.712
 11
42.3611
 21
148.712
  0
LINE
  8
0
 10
18.3611
 20
132.712
 11
18.1
 21
132.807
  0
LINE
  8
0
 10
18.1
 20
132.807
 11
17.8872
 21
132.986
  0
LINE
  8
0
 10
17.8872
 20
132.986
 11
17.7482
 21
133.226
  0
LINE
  8
0
 10
17.7482
 20
133.226
 11
17.7
 21
133.5
  0
LINE
  8
0
 10
17.7
 20
133.5
 11
17.7482
 21
133.774
  0
LINE
  8
0
 10
17.7482
 20
133.774
 11
17.8872
 21
134.014
  0
LINE
  8
0
 10
17.8872
 20
134.014
 11
18.1
 21
134.193
  0
LINE
  8
0
 10
18.1
 20
134.193
 11
18.3611
 21
134.288
  0
LINE
  8
0
 10
18.3611
 20
134.288
 11
18.6389
 21
134.288
  0
LINE
  8
0
 10
18.6389
 20
134.288
 11
18.9
 21
134.193
  0
LINE
  8
0
 10
18.9
 20
134.193
 11
19.1128
 21
134.014
  0
LINE
  8
0
 10
19.1128
 20
134.014
 11
19.2518
 21
133.774
  0
LINE
  8
0
 10
19.2518
 20
133.774
 11
19.3
 21
133.5
  0
LINE
  8
0
 10
19.3
 20
133.5
 11
19.2518
 21
133.226
  0
LINE
  8
0
 10
19.2518
 20
133.226
 11
19.1128
 21
132.986
  0
LINE
  8
0
 10
19.1128
 20
132.986
 11
18.9
 21
132.807
  0
LINE
  8
0
 10
18.9
 20
132.807
 11
18.6389
 21
132.712
  0
LINE
  8
0
 10
18.6389
 20
132.712
 11
18.3611
 21
132.712
  0
LINE
  8
0
 10
42.3611
 20
132.712
 11
42.1
 21
132.807
  0
LINE
  8
0
 10
42.1
 20
132.807
 11
41.8872
 21
132.986
  0
LINE
  8
0
 10
41.8872
 20
132.986
 11
41.7482
 21
133.226
  0
LINE
  8
0
 10
41.7482
 20
133.226
 11
41.7
 21
133.5
  0
LINE
  8
0
 10
41.7
 20
133.5
 11
41.7482
 21
133.774
  0
LINE
  8
0
 10
41.7482
 20
133.774
 11
41.8872
 21
134.014
  0
LINE
  8
0
 10
41.8872
 20
134.014
 11
42.1
 21
134.193
  0
LINE
  8
0
 10
42.1
 20
134.193
 11
42.3611
 21
134.288
  0
LINE
  8
0
 10
42.3611
 20
134.288
 11
42.6389
 21
134.288
  0
LINE
  8
0
 10
42.6389
 20
134.288
 11
42.9
 21
134.193
  0
LINE
  8
0
 10
42.9
 20
134.193
 11
43.1128
 21
134.014
  0
LINE
  8
0
 10
43.1128
 20
134.014
 11
43.2518
 21
133.774
  0
LINE
  8
0
 10
43.2518
 20
133.774
 11
43.3
 21
133.5
  0
LINE
  8
0
 10
43.3
 20
133.5
 11
43.2518
 21
133.226
  0
LINE
  8
0
 10
43.2518
 20
133.226
 11
43.1128
 21
132.986
  0
LINE
  8
0
 10
43.1128
 20
132.986
 11
42.9
 21
132.807
  0
LINE
  8
0
 10
42.9
 20
132.807
 11
42.6389
 21
132.712
  0
LINE
  8
0
 10
42.6389
 20
132.712
 11
42.3611
 21
132.712
  0
LINE
  8
0
 10
42.3611
 20
116.712
 11
42.1
 21
116.807
  0
LINE
  8
0
 10
42.1
 20
116.807
 11
41.8872
 21
116.986
  0
LINE
  8
0
 10
41.8872
 20
116.986
 11
41.7482
 21
117.226
  0
LINE
  8
0
 10
41.7482
 20
117.226
 11
41.7
 21
117.5
  0
LINE
  8
0
 10
41.7
 20
117.5
 11
41.7482
 21
117.774
  0
LINE
  8
0
 10
41.7482
 20
117.774
 11
41.8872
 21
118.014
  0
LINE
  8
0
 10
41.8872
 20
118.014
 11
42.1
 21
118.193
  0
LINE
  8
0
 10
42.1
 20
118.193
 11
42.3611
 21
118.288
  0
LINE
  8
0
 10
42.3611
 20
118.288
 11
42.6389
 21
118.288
  0
LINE
  8
0
 10
42.6389
 20
118.288
 11
42.9
 21
118.193
  0
LINE
  8
0
 10
42.9
 20
118.193
 11
43.1128
 21
118.014
  0
LINE
  8
0
 10
43.1128
 20
118.014
 11
43.2518
 21
117.774
  0
LINE
  8
0
 10
43.2518
 20
117.774
 11
43.3
 21
117.5
  0
LINE
  8
0
 10
43.3
 20
117.5
 11
43.2518
 21
117.226
  0
LINE
  8
0
 10
43.2518
 20
117.226
 11
43.1128
 21
116.986
  0
LINE
  8
0
 10
43.1128
 20
116.986
 11
42.9
 21
116.807
  0
LINE
  8
0
 10
42.9
 20
116.807
 11
42.6389
 21
116.712
  0
LINE
  8
0
 10
42.6389
 20
116.712
 11
42.3611
 21
116.712
  0
LINE
  8
0
 10
18.3611
 20
116.712
 11
18.1
 21
116.807
  0
LINE
  8
0
 10
18.1
 20
116.807
 11
17.8872
 21
116.986
  0
LINE
  8
0
 10
17.8872
 20
116.986
 11
17.7482
 21
117.226
  0
LINE
  8
0
 10
17.7482
 20
117.226
 11
17.7
 21
117.5
  0
LINE
  8
0
 10
17.7
 20
117.5
 11
17.7482
 21
117.774
  0
LINE
  8
0
 10
17.7482
 20
117.774
 11
17.8872
 21
118.014
  0
LINE
  8
0
 10
17.8872
 20
118.014
 11
18.1
 21
118.193
  0
LINE
  8
0
 10
18.1
 20
118.193
 11
18.3611
 21
118.288
  0
LINE
  8
0
 10
18.3611
 20
118.288
 11
18.6389
 21
118.288
  0
LINE
  8
0
 10
18.6389
 20
118.288
 11
18.9
 21
118.193
  0
LINE
  8
0
 10
18.9
 20
118.193
 11
19.1128
 21
118.014
  0
LINE
  8
0
 10
19.1128
 20
118.014
 11
19.2518
 21
117.774
  0
LINE
  8
0
 10
19.2518
 20
117.774
 11
19.3
 21
117.5
  0
LINE
  8
0
 10
19.3
 20
117.5
 11
19.2518
 21
117.226
  0
LINE
  8
0
 10
19.2518
 20
117.226
 11
19.1128
 21
116.986
  0
LINE
  8
0
 10
19.1128
 20
116.986
 11
18.9
 21
116.807
  0
LINE
  8
0
 10
18.9
 20
116.807
 11
18.6389
 21
116.712
  0
LINE
  8
0
 10
18.6389
 20
116.712
 11
18.3611
 21
116.712
  0
LINE
  8
0
 10
48.3611
 20
100.712
 11
48.1
 21
100.807
  0
LINE
  8
0
 10
48.1
 20
100.807
 11
47.8872
 21
100.986
  0
LINE
  8
0
 10
47.8872
 20
100.986
 11
47.7482
 21
101.226
  0
LINE
  8
0
 10
47.7482
 20
101.226
 11
47.7
 21
101.5
  0
LINE
  8
0
 10
47.7
 20
101.5
 11
47.7482
 21
101.774
  0
LINE
  8
0
 10
47.7482
 20
101.774
 11
47.8872
 21
102.014
  0
LINE
  8
0
 10
47.8872
 20
102.014
 11
48.1
 21
102.193
  0
LINE
  8
0
 10
48.1
 20
102.193
 11
48.3611
 21
102.288
  0
LINE
  8
0
 10
48.3611
 20
102.288
 11
48.6389
 21
102.288
  0
LINE
  8
0
 10
48.6389
 20
102.288
 11
48.9
 21
102.193
  0
LINE
  8
0
 10
48.9
 20
102.193
 11
49.1128
 21
102.014
  0
LINE
  8
0
 10
49.1128
 20
102.014
 11
49.2518
 21
101.774
  0
LINE
  8
0
 10
49.2518
 20
101.774
 11
49.3
 21
101.5
  0
LINE
  8
0
 10
49.3
 20
101.5
 11
49.2518
 21
101.226
  0
LINE
  8
0
 10
49.2518
 20
101.226
 11
49.1128
 21
100.986
  0
LINE
  8
0
 10
49.1128
 20
100.986
 11
48.9
 21
100.807
  0
LINE
  8
0
 10
48.9
 20
100.807
 11
48.6389
 21
100.712
  0
LINE
  8
0
 10
48.6389
 20
100.712
 11
48.3611
 21
100.712
  0
LINE
  8
0
 10
24.3611
 20
100.712
 11
24.1
 21
100.807
  0
LINE
  8
0
 10
24.1
 20
100.807
 11
23.8872
 21
100.986
  0
LINE
  8
0
 10
23.8872
 20
100.986
 11
23.7482
 21
101.226
  0
LINE
  8
0
 10
23.7482
 20
101.226
 11
23.7
 21
101.5
  0
LINE
  8
0
 10
23.7
 20
101.5
 11
23.7482
 21
101.774
  0
LINE
  8
0
 10
23.7482
 20
101.774
 11
23.8872
 21
102.014
  0
LINE
  8
0
 10
23.8872
 20
102.014
 11
24.1
 21
102.193
  0
LINE
  8
0
 10
24.1
 20
102.193
 11
24.3611
 21
102.288
  0
LINE
  8
0
 10
24.3611
 20
102.288
 11
24.6389
 21
102.288
  0
LINE
  8
0
 10
24.6389
 20
102.288
 11
24.9
 21
102.193
  0
LINE
  8
0
 10
24.9
 20
102.193
 11
25.1128
 21
102.014
  0
LINE
  8
0
 10
25.1128
 20
102.014
 11
25.2518
 21
101.774
  0
LINE
  8
0
 10
25.2518
 20
101.774
 11
25.3
 21
101.5
  0
LINE
  8
0
 10
25.3
 20
101.5
 11
25.2518
 21
101.226
  0
LINE
  8
0
 10
25.2518
 20
101.226
 11
25.1128
 21
100.986
  0
LINE
  8
0
 10
25.1128
 20
100.986
 11
24.9
 21
100.807
  0
LINE
  8
0
 10
24.9
 20
100.807
 11
24.6389
 21
100.712
  0
LINE
  8
0
 10
24.6389
 20
100.712
 11
24.3611
 21
100.712
  0
LINE
  8
0
 10
42.3611
 20
92.7121
 11
42.1
 21
92.8072
  0
LINE
  8
0
 10
42.1
 20
92.8072
 11
41.8872
 21
92.9858
  0
LINE
  8
0
 10
41.8872
 20
92.9858
 11
41.7482
 21
93.2264
  0
LINE
  8
0
 10
41.7482
 20
93.2264
 11
41.7
 21
93.5
  0
LINE
  8
0
 10
41.7
 20
93.5
 11
41.7482
 21
93.7736
  0
LINE
  8
0
 10
41.7482
 20
93.7736
 11
41.8872
 21
94.0142
  0
LINE
  8
0
 10
41.8872
 20
94.0142
 11
42.1
 21
94.1928
  0
LINE
  8
0
 10
42.1
 20
94.1928
 11
42.3611
 21
94.2878
  0
LINE
  8
0
 10
42.3611
 20
94.2878
 11
42.6389
 21
94.2878
  0
LINE
  8
0
 10
42.6389
 20
94.2878
 11
42.9
 21
94.1928
  0
LINE
  8
0
 10
42.9
 20
94.1928
 11
43.1128
 21
94.0142
  0
LINE
  8
0
 10
43.1128
 20
94.0142
 11
43.2518
 21
93.7736
  0
LINE
  8
0
 10
43.2518
 20
93.7736
 11
43.3
 21
93.5
  0
LINE
  8
0
 10
43.3
 20
93.5
 11
43.2518
 21
93.2264
  0
LINE
  8
0
 10
43.2518
 20
93.2264
 11
43.1128
 21
92.9858
  0
LINE
  8
0
 10
43.1128
 20
92.9858
 11
42.9
 21
92.8072
  0
LINE
  8
0
 10
42.9
 20
92.8072
 11
42.6389
 21
92.7121
  0
LINE
  8
0
 10
42.6389
 20
92.7121
 11
42.3611
 21
92.7121
  0
LINE
  8
0
 10
18.3611
 20
92.7121
 11
18.1
 21
92.8072
  0
LINE
  8
0
 10
18.1
 20
92.8072
 11
17.8872
 21
92.9858
  0
LINE
  8
0
 10
17.8872
 20
92.9858
 11
17.7482
 21
93.2264
  0
LINE
  8
0
 10
17.7482
 20
93.2264
 11
17.7
 21
93.5
  0
LINE
  8
0
 10
17.7
 20
93.5
 11
17.7482
 21
93.7736
  0
LINE
  8
0
 10
17.7482
 20
93.7736
 11
17.8872
 21
94.0142
  0
LINE
  8
0
 10
17.8872
 20
94.0142
 11
18.1
 21
94.1928
  0
LINE
  8
0
 10
18.1
 20
94.1928
 11
18.3611
 21
94.2878
  0
LINE
  8
0
 10
18.3611
 20
94.2878
 11
18.6389
 21
94.2878
  0
LINE
  8
0
 10
18.6389
 20
94.2878
 11
18.9
 21
94.1928
  0
LINE
  8
0
 10
18.9
 20
94.1928
 11
19.1128
 21
94.0142
  0
LINE
  8
0
 10
19.1128
 20
94.0142
 11
19.2518
 21
93.7736
  0
LINE
  8
0
 10
19.2518
 20
93.7736
 11
19.3
 21
93.5
  0
LINE
  8
0
 10
19.3
 20
93.5
 11
19.2518
 21
93.2264
  0
LINE
  8
0
 10
19.2518
 20
93.2264
 11
19.1128
 21
92.9858
  0
LINE
  8
0
 10
19.1128
 20
92.9858
 11
18.9
 21
92.8072
  0
LINE
  8
0
 10
18.9
 20
92.8072
 11
18.6389
 21
92.7121
  0
LINE
  8
0
 10
18.6389
 20
92.7121
 11
18.3611
 21
92.7121
  0
LINE
  8
0
 10
38.3611
 20
84.7121
 11
38.1
 21
84.8072
  0
LINE
  8
0
 10
38.1
 20
84.8072
 11
37.8872
 21
84.9858
  0
LINE
  8
0
 10
37.8872
 20
84.9858
 11
37.7482
 21
85.2264
  0
LINE
  8
0
 10
37.7482
 20
85.2264
 11
37.7
 21
85.5
  0
LINE
  8
0
 10
37.7
 20
85.5
 11
37.7482
 21
85.7736
  0
LINE
  8
0
 10
37.7482
 20
85.7736
 11
37.8872
 21
86.0142
  0
LINE
  8
0
 10
37.8872
 20
86.0142
 11
38.1
 21
86.1928
  0
LINE
  8
0
 10
38.1
 20
86.1928
 11
38.3611
 21
86.2878
  0
LINE
  8
0
 10
38.3611
 20
86.2878
 11
38.6389
 21
86.2878
  0
LINE
  8
0
 10
38.6389
 20
86.2878
 11
38.9
 21
86.1928
  0
LINE
  8
0
 10
38.9
 20
86.1928
 11
39.1128
 21
86.0142
  0
LINE
  8
0
 10
39.1128
 20
86.0142
 11
39.2518
 21
85.7736
  0
LINE
  8
0
 10
39.2518
 20
85.7736
 11
39.3
 21
85.5
  0
LINE
  8
0
 10
39.3
 20
85.5
 11
39.2518
 21
85.2264
  0
LINE
  8
0
 10
39.2518
 20
85.2264
 11
39.1128
 21
84.9858
  0
LINE
  8
0
 10
39.1128
 20
84.9858
 11
38.9
 21
84.8072
  0
LINE
  8
0
 10
38.9
 20
84.8072
 11
38.6389
 21
84.7121
  0
LINE
  8
0
 10
38.6389
 20
84.7121
 11
38.3611
 21
84.7121
  0
LINE
  8
0
 10
14.3611
 20
84.7121
 11
14.1
 21
84.8072
  0
LINE
  8
0
 10
14.1
 20
84.8072
 11
13.8872
 21
84.9858
  0
LINE
  8
0
 10
13.8872
 20
84.9858
 11
13.7482
 21
85.2264
  0
LINE
  8
0
 10
13.7482
 20
85.2264
 11
13.7
 21
85.5
  0
LINE
  8
0
 10
13.7
 20
85.5
 11
13.7482
 21
85.7736
  0
LINE
  8
0
 10
13.7482
 20
85.7736
 11
13.8872
 21
86.0142
  0
LINE
  8
0
 10
13.8872
 20
86.0142
 11
14.1
 21
86.1928
  0
LINE
  8
0
 10
14.1
 20
86.1928
 11
14.3611
 21
86.2878
  0
LINE
  8
0
 10
14.3611
 20
86.2878
 11
14.6389
 21
86.2878
  0
LINE
  8
0
 10
14.6389
 20
86.2878
 11
14.9
 21
86.1928
  0
LINE
  8
0
 10
14.9
 20
86.1928
 11
15.1128
 21
86.0142
  0
LINE
  8
0
 10
15.1128
 20
86.0142
 11
15.2517
 21
85.7736
  0
LINE
  8
0
 10
15.2517
 20
85.7736
 11
15.3
 21
85.5
  0
LINE
  8
0
 10
15.3
 20
85.5
 11
15.2517
 21
85.2264
  0
LINE
  8
0
 10
15.2517
 20
85.2264
 11
15.1128
 21
84.9858
  0
LINE
  8
0
 10
15.1128
 20
84.9858
 11
14.9
 21
84.8072
  0
LINE
  8
0
 10
14.9
 20
84.8072
 11
14.6389
 21
84.7121
  0
LINE
  8
0
 10
14.6389
 20
84.7121
 11
14.3611
 21
84.7121
  0
LINE
  8
0
 10
38.3611
 20
68.7121
 11
38.1
 21
68.8072
  0
LINE
  8
0
 10
38.1
 20
68.8072
 11
37.8872
 21
68.9858
  0
LINE
  8
0
 10
37.8872
 20
68.9858
 11
37.7482
 21
69.2264
  0
LINE
  8
0
 10
37.7482
 20
69.2264
 11
37.7
 21
69.5
  0
LINE
  8
0
 10
37.7
 20
69.5
 11
37.7482
 21
69.7736
  0
LINE
  8
0
 10
37.7482
 20
69.7736
 11
37.8872
 21
70.0142
  0
LINE
  8
0
 10
37.8872
 20
70.0142
 11
38.1
 21
70.1928
  0
LINE
  8
0
 10
38.1
 20
70.1928
 11
38.3611
 21
70.2878
  0
LINE
  8
0
 10
38.3611
 20
70.2878
 11
38.6389
 21
70.2878
  0
LINE
  8
0
 10
38.6389
 20
70.2878
 11
38.9
 21
70.1928
  0
LINE
  8
0
 10
38.9
 20
70.1928
 11
39.1128
 21
70.0142
  0
LINE
  8
0
 10
39.1128
 20
70.0142
 11
39.2518
 21
69.7736
  0
LINE
  8
0
 10
39.2518
 20
69.7736
 11
39.3
 21
69.5
  0
LINE
  8
0
 10
39.3
 20
69.5
 11
39.2518
 21
69.2264
  0
LINE
  8
0
 10
39.2518
 20
69.2264
 11
39.1128
 21
68.9858
  0
LINE
  8
0
 10
39.1128
 20
68.9858
 11
38.9
 21
68.8072
  0
LINE
  8
0
 10
38.9
 20
68.8072
 11
38.6389
 21
68.7121
  0
LINE
  8
0
 10
38.6389
 20
68.7121
 11
38.3611
 21
68.7121
  0
LINE
  8
0
 10
14.3611
 20
68.7121
 11
14.1
 21
68.8072
  0
LINE
  8
0
 10
14.1
 20
68.8072
 11
13.8872
 21
68.9858
  0
LINE
  8
0
 10
13.8872
 20
68.9858
 11
13.7482
 21
69.2264
  0
LINE
  8
0
 10
13.7482
 20
69.2264
 11
13.7
 21
69.5
  0
LINE
  8
0
 10
13.7
 20
69.5
 11
13.7482
 21
69.7736
  0
LINE
  8
0
 10
13.7482
 20
69.7736
 11
13.8872
 21
70.0142
  0
LINE
  8
0
 10
13.8872
 20
70.0142
 11
14.1
 21
70.1928
  0
LINE
  8
0
 10
14.1
 20
70.1928
 11
14.3611
 21
70.2878
  0
LINE
  8
0
 10
14.3611
 20
70.2878
 11
14.6389
 21
70.2878
  0
LINE
  8
0
 10
14.6389
 20
70.2878
 11
14.9
 21
70.1928
  0
LINE
  8
0
 10
14.9
 20
70.1928
 11
15.1128
 21
70.0142
  0
LINE
  8
0
 10
15.1128
 20
70.0142
 11
15.2517
 21
69.7736
  0
LINE
  8
0
 10
15.2517
 20
69.7736
 11
15.3
 21
69.5
  0
LINE
  8
0
 10
15.3
 20
69.5
 11
15.2517
 21
69.2264
  0
LINE
  8
0
 10
15.2517
 20
69.2264
 11
15.1128
 21
68.9858
  0
LINE
  8
0
 10
15.1128
 20
68.9858
 11
14.9
 21
68.8072
  0
LINE
  8
0
 10
14.9
 20
68.8072
 11
14.6389
 21
68.7121
  0
LINE
  8
0
 10
14.6389
 20
68.7121
 11
14.3611
 21
68.7121
  0
LINE
  8
0
 10
38.3611
 20
52.7121
 11
38.1
 21
52.8072
  0
LINE
  8
0
 10
38.1
 20
52.8072
 11
37.8872
 21
52.9858
  0
LINE
  8
0
 10
37.8872
 20
52.9858
 11
37.7482
 21
53.2264
  0
LINE
  8
0
 10
37.7482
 20
53.2264
 11
37.7
 21
53.5
  0
LINE
  8
0
 10
37.7
 20
53.5
 11
37.7482
 21
53.7736
  0
LINE
  8
0
 10
37.7482
 20
53.7736
 11
37.8872
 21
54.0142
  0
LINE
  8
0
 10
37.8872
 20
54.0142
 11
38.1
 21
54.1928
  0
LINE
  8
0
 10
38.1
 20
54.1928
 11
38.3611
 21
54.2878
  0
LINE
  8
0
 10
38.3611
 20
54.2878
 11
38.6389
 21
54.2878
  0
LINE
  8
0
 10
38.6389
 20
54.2878
 11
38.9
 21
54.1928
  0
LINE
  8
0
 10
38.9
 20
54.1928
 11
39.1128
 21
54.0142
  0
LINE
  8
0
 10
39.1128
 20
54.0142
 11
39.2518
 21
53.7736
  0
LINE
  8
0
 10
39.2518
 20
53.7736
 11
39.3
 21
53.5
  0
LINE
  8
0
 10
39.3
 20
53.5
 11
39.2518
 21
53.2264
  0
LINE
  8
0
 10
39.2518
 20
53.2264
 11
39.1128
 21
52.9858
  0
LINE
  8
0
 10
39.1128
 20
52.9858
 11
38.9
 21
52.8072
  0
LINE
  8
0
 10
38.9
 20
52.8072
 11
38.6389
 21
52.7121
  0
LINE
  8
0
 10
38.6389
 20
52.7121
 11
38.3611
 21
52.7121
  0
LINE
  8
0
 10
14.3611
 20
52.7121
 11
14.1
 21
52.8072
  0
LINE
  8
0
 10
14.1
 20
52.8072
 11
13.8872
 21
52.9858
  0
LINE
  8
0
 10
13.8872
 20
52.9858
 11
13.7482
 21
53.2264
  0
LINE
  8
0
 10
13.7482
 20
53.2264
 11
13.7
 21
53.5
  0
LINE
  8
0
 10
13.7
 20
53.5
 11
13.7482
 21
53.7736
  0
LINE
  8
0
 10
13.7482
 20
53.7736
 11
13.8872
 21
54.0142
  0
LINE
  8
0
 10
13.8872
 20
54.0142
 11
14.1
 21
54.1928
  0
LINE
  8
0
 10
14.1
 20
54.1928
 11
14.3611
 21
54.2878
  0
LINE
  8
0
 10
14.3611
 20
54.2878
 11
14.6389
 21
54.2878
  0
LINE
  8
0
 10
14.6389
 20
54.2878
 11
14.9
 21
54.1928
  0
LINE
  8
0
 10
14.9
 20
54.1928
 11
15.1128
 21
54.0142
  0
LINE
  8
0
 10
15.1128
 20
54.0142
 11
15.2517
 21
53.7736
  0
LINE
  8
0
 10
15.2517
 20
53.7736
 11
15.3
 21
53.5
  0
LINE
  8
0
 10
15.3
 20
53.5
 11
15.2517
 21
53.2264
  0
LINE
  8
0
 10
15.2517
 20
53.2264
 11
15.1128
 21
52.9858
  0
LINE
  8
0
 10
15.1128
 20
52.9858
 11
14.9
 21
52.8072
  0
LINE
  8
0
 10
14.9
 20
52.8072
 11
14.6389
 21
52.7121
  0
LINE
  8
0
 10
14.6389
 20
52.7121
 11
14.3611
 21
52.7121
  0
LINE
  8
0
 10
24.3611
 20
36.7121
 11
24.1
 21
36.8072
  0
LINE
  8
0
 10
24.1
 20
36.8072
 11
23.8872
 21
36.9858
  0
LINE
  8
0
 10
23.8872
 20
36.9858
 11
23.7482
 21
37.2264
  0
LINE
  8
0
 10
23.7482
 20
37.2264
 11
23.7
 21
37.5
  0
LINE
  8
0
 10
23.7
 20
37.5
 11
23.7482
 21
37.7736
  0
LINE
  8
0
 10
23.7482
 20
37.7736
 11
23.8872
 21
38.0142
  0
LINE
  8
0
 10
23.8872
 20
38.0142
 11
24.1
 21
38.1928
  0
LINE
  8
0
 10
24.1
 20
38.1928
 11
24.3611
 21
38.2878
  0
LINE
  8
0
 10
24.3611
 20
38.2878
 11
24.6389
 21
38.2878
  0
LINE
  8
0
 10
24.6389
 20
38.2878
 11
24.9
 21
38.1928
  0
LINE
  8
0
 10
24.9
 20
38.1928
 11
25.1128
 21
38.0142
  0
LINE
  8
0
 10
25.1128
 20
38.0142
 11
25.2518
 21
37.7736
  0
LINE
  8
0
 10
25.2518
 20
37.7736
 11
25.3
 21
37.5
  0
LINE
  8
0
 10
25.3
 20
37.5
 11
25.2518
 21
37.2264
  0
LINE
  8
0
 10
25.2518
 20
37.2264
 11
25.1128
 21
36.9858
  0
LINE
  8
0
 10
25.1128
 20
36.9858
 11
24.9
 21
36.8072
  0
LINE
  8
0
 10
24.9
 20
36.8072
 11
24.6389
 21
36.7121
  0
LINE
  8
0
 10
24.6389
 20
36.7121
 11
24.3611
 21
36.7121
  0
LINE
  8
0
 10
48.3611
 20
36.7121
 11
48.1
 21
36.8072
  0
LINE
  8
0
 10
48.1
 20
36.8072
 11
47.8872
 21
36.9858
  0
LINE
  8
0
 10
47.8872
 20
36.9858
 11
47.7482
 21
37.2264
  0
LINE
  8
0
 10
47.7482
 20
37.2264
 11
47.7
 21
37.5
  0
LINE
  8
0
 10
47.7
 20
37.5
 11
47.7482
 21
37.7736
  0
LINE
  8
0
 10
47.7482
 20
37.7736
 11
47.8872
 21
38.0142
  0
LINE
  8
0
 10
47.8872
 20
38.0142
 11
48.1
 21
38.1928
  0
LINE
  8
0
 10
48.1
 20
38.1928
 11
48.3611
 21
38.2878
  0
LINE
  8
0
 10
48.3611
 20
38.2878
 11
48.6389
 21
38.2878
  0
LINE
  8
0
 10
48.6389
 20
38.2878
 11
48.9
 21
38.1928
  0
LINE
  8
0
 10
48.9
 20
38.1928
 11
49.1128
 21
38.0142
  0
LINE
  8
0
 10
49.1128
 20
38.0142
 11
49.2518
 21
37.7736
  0
LINE
  8
0
 10
49.2518
 20
37.7736
 11
49.3
 21
37.5
  0
LINE
  8
0
 10
49.3
 20
37.5
 11
49.2518
 21
37.2264
  0
LINE
  8
0
 10
49.2518
 20
37.2264
 11
49.1128
 21
36.9858
  0
LINE
  8
0
 10
49.1128
 20
36.9858
 11
48.9
 21
36.8072
  0
LINE
  8
0
 10
48.9
 20
36.8072
 11
48.6389
 21
36.7121
  0
LINE
  8
0
 10
48.6389
 20
36.7121
 11
48.3611
 21
36.7121
  0
LINE
  8
0
 10
18.3611
 20
28.7121
 11
18.1
 21
28.8072
  0
LINE
  8
0
 10
18.1
 20
28.8072
 11
17.8872
 21
28.9858
  0
LINE
  8
0
 10
17.8872
 20
28.9858
 11
17.7482
 21
29.2264
  0
LINE
  8
0
 10
17.7482
 20
29.2264
 11
17.7
 21
29.5
  0
LINE
  8
0
 10
17.7
 20
29.5
 11
17.7482
 21
29.7736
  0
LINE
  8
0
 10
17.7482
 20
29.7736
 11
17.8872
 21
30.0142
  0
LINE
  8
0
 10
17.8872
 20
30.0142
 11
18.1
 21
30.1928
  0
LINE
  8
0
 10
18.1
 20
30.1928
 11
18.3611
 21
30.2878
  0
LINE
  8
0
 10
18.3611
 20
30.2878
 11
18.6389
 21
30.2878
  0
LINE
  8
0
 10
18.6389
 20
30.2878
 11
18.9
 21
30.1928
  0
LINE
  8
0
 10
18.9
 20
30.1928
 11
19.1128
 21
30.0142
  0
LINE
  8
0
 10
19.1128
 20
30.0142
 11
19.2518
 21
29.7736
  0
LINE
  8
0
 10
19.2518
 20
29.7736
 11
19.3
 21
29.5
  0
LINE
  8
0
 10
19.3
 20
29.5
 11
19.2518
 21
29.2264
  0
LINE
  8
0
 10
19.2518
 20
29.2264
 11
19.1128
 21
28.9858
  0
LINE
  8
0
 10
19.1128
 20
28.9858
 11
18.9
 21
28.8072
  0
LINE
  8
0
 10
18.9
 20
28.8072
 11
18.6389
 21
28.7121
  0
LINE
  8
0
 10
18.6389
 20
28.7121
 11
18.3611
 21
28.7121
  0
LINE
  8
0
 10
42.3611
 20
28.7121
 11
42.1
 21
28.8072
  0
LINE
  8
0
 10
42.1
 20
28.8072
 11
41.8872
 21
28.9858
  0
LINE
  8
0
 10
41.8872
 20
28.9858
 11
41.7482
 21
29.2264
  0
LINE
  8
0
 10
41.7482
 20
29.2264
 11
41.7
 21
29.5
  0
LINE
  8
0
 10
41.7
 20
29.5
 11
41.7482
 21
29.7736
  0
LINE
  8
0
 10
41.7482
 20
29.7736
 11
41.8872
 21
30.0142
  0
LINE
  8
0
 10
41.8872
 20
30.0142
 11
42.1
 21
30.1928
  0
LINE
  8
0
 10
42.1
 20
30.1928
 11
42.3611
 21
30.2878
  0
LINE
  8
0
 10
42.3611
 20
30.2878
 11
42.6389
 21
30.2878
  0
LINE
  8
0
 10
42.6389
 20
30.2878
 11
42.9
 21
30.1928
  0
LINE
  8
0
 10
42.9
 20
30.1928
 11
43.1128
 21
30.0142
  0
LINE
  8
0
 10
43.1128
 20
30.0142
 11
43.2518
 21
29.7736
  0
LINE
  8
0
 10
43.2518
 20
29.7736
 11
43.3
 21
29.5
  0
LINE
  8
0
 10
43.3
 20
29.5
 11
43.2518
 21
29.2264
  0
LINE
  8
0
 10
43.2518
 20
29.2264
 11
43.1128
 21
28.9858
  0
LINE
  8
0
 10
43.1128
 20
28.9858
 11
42.9
 21
28.8072
  0
LINE
  8
0
 10
42.9
 20
28.8072
 11
42.6389
 21
28.7121
  0
LINE
  8
0
 10
42.6389
 20
28.7121
 11
42.3611
 21
28.7121
  0
LINE
  8
0
 10
38.3611
 20
20.7121
 11
38.1
 21
20.8072
  0
LINE
  8
0
 10
38.1
 20
20.8072
 11
37.8872
 21
20.9858
  0
LINE
  8
0
 10
37.8872
 20
20.9858
 11
37.7482
 21
21.2264
  0
LINE
  8
0
 10
37.7482
 20
21.2264
 11
37.7
 21
21.5
  0
LINE
  8
0
 10
37.7
 20
21.5
 11
37.7482
 21
21.7736
  0
LINE
  8
0
 10
37.7482
 20
21.7736
 11
37.8872
 21
22.0142
  0
LINE
  8
0
 10
37.8872
 20
22.0142
 11
38.1
 21
22.1928
  0
LINE
  8
0
 10
38.1
 20
22.1928
 11
38.3611
 21
22.2878
  0
LINE
  8
0
 10
38.3611
 20
22.2878
 11
38.6389
 21
22.2878
  0
LINE
  8
0
 10
38.6389
 20
22.2878
 11
38.9
 21
22.1928
  0
LINE
  8
0
 10
38.9
 20
22.1928
 11
39.1128
 21
22.0142
  0
LINE
  8
0
 10
39.1128
 20
22.0142
 11
39.2518
 21
21.7736
  0
LINE
  8
0
 10
39.2518
 20
21.7736
 11
39.3
 21
21.5
  0
LINE
  8
0
 10
39.3
 20
21.5
 11
39.2518
 21
21.2264
  0
LINE
  8
0
 10
39.2518
 20
21.2264
 11
39.1128
 21
20.9858
  0
LINE
  8
0
 10
39.1128
 20
20.9858
 11
38.9
 21
20.8072
  0
LINE
  8
0
 10
38.9
 20
20.8072
 11
38.6389
 21
20.7121
  0
LINE
  8
0
 10
38.6389
 20
20.7121
 11
38.3611
 21
20.7121
  0
LINE
  8
0
 10
14.3611
 20
20.7121
 11
14.1
 21
20.8072
  0
LINE
  8
0
 10
14.1
 20
20.8072
 11
13.8872
 21
20.9858
  0
LINE
  8
0
 10
13.8872
 20
20.9858
 11
13.7482
 21
21.2264
  0
LINE
  8
0
 10
13.7482
 20
21.2264
 11
13.7
 21
21.5
  0
LINE
  8
0
 10
13.7
 20
21.5
 11
13.7482
 21
21.7736
  0
LINE
  8
0
 10
13.7482
 20
21.7736
 11
13.8872
 21
22.0142
  0
LINE
  8
0
 10
13.8872
 20
22.0142
 11
14.1
 21
22.1928
  0
LINE
  8
0
 10
14.1
 20
22.1928
 11
14.3611
 21
22.2878
  0
LINE
  8
0
 10
14.3611
 20
22.2878
 11
14.6389
 21
22.2878
  0
LINE
  8
0
 10
14.6389
 20
22.2878
 11
14.9
 21
22.1928
  0
LINE
  8
0
 10
14.9
 20
22.1928
 11
15.1128
 21
22.0142
  0
LINE
  8
0
 10
15.1128
 20
22.0142
 11
15.2517
 21
21.7736
  0
LINE
  8
0
 10
15.2517
 20
21.7736
 11
15.3
 21
21.5
  0
LINE
  8
0
 10
15.3
 20
21.5
 11
15.2517
 21
21.2264
  0
LINE
  8
0
 10
15.2517
 20
21.2264
 11
15.1128
 21
20.9858
  0
LINE
  8
0
 10
15.1128
 20
20.9858
 11
14.9
 21
20.8072
  0
LINE
  8
0
 10
14.9
 20
20.8072
 11
14.6389
 21
20.7121
  0
LINE
  8
0
 10
14.6389
 20
20.7121
 11
14.3611
 21
20.7121
  0
LINE
  8
0
 10
38.3611
 20
4.71214
 11
38.1
 21
4.80717
  0
LINE
  8
0
 10
38.1
 20
4.80717
 11
37.8872
 21
4.98576
  0
LINE
  8
0
 10
37.8872
 20
4.98576
 11
37.7482
 21
5.22638
  0
LINE
  8
0
 10
37.7482
 20
5.22638
 11
37.7
 21
5.5
  0
LINE
  8
0
 10
37.7
 20
5.5
 11
37.7482
 21
5.77361
  0
LINE
  8
0
 10
37.7482
 20
5.77361
 11
37.8872
 21
6.01422
  0
LINE
  8
0
 10
37.8872
 20
6.01422
 11
38.1
 21
6.19281
  0
LINE
  8
0
 10
38.1
 20
6.19281
 11
38.3611
 21
6.28784
  0
LINE
  8
0
 10
38.3611
 20
6.28784
 11
38.6389
 21
6.28784
  0
LINE
  8
0
 10
38.6389
 20
6.28784
 11
38.9
 21
6.19281
  0
LINE
  8
0
 10
38.9
 20
6.19281
 11
39.1128
 21
6.01422
  0
LINE
  8
0
 10
39.1128
 20
6.01422
 11
39.2518
 21
5.77361
  0
LINE
  8
0
 10
39.2518
 20
5.77361
 11
39.3
 21
5.5
  0
LINE
  8
0
 10
39.3
 20
5.5
 11
39.2518
 21
5.22638
  0
LINE
  8
0
 10
39.2518
 20
5.22638
 11
39.1128
 21
4.98576
  0
LINE
  8
0
 10
39.1128
 20
4.98576
 11
38.9
 21
4.80717
  0
LINE
  8
0
 10
38.9
 20
4.80717
 11
38.6389
 21
4.71214
  0
LINE
  8
0
 10
38.6389
 20
4.71214
 11
38.3611
 21
4.71214
  0
LINE
  8
0
 10
14.3611
 20
4.71214
 11
14.1
 21
4.80717
  0
LINE
  8
0
 10
14.1
 20
4.80717
 11
13.8872
 21
4.98576
  0
LINE
  8
0
 10
13.8872
 20
4.98576
 11
13.7482
 21
5.22638
  0
LINE
  8
0
 10
13.7482
 20
5.22638
 11
13.7
 21
5.5
  0
LINE
  8
0
 10
13.7
 20
5.5
 11
13.7482
 21
5.77361
  0
LINE
  8
0
 10
13.7482
 20
5.77361
 11
13.8872
 21
6.01422
  0
LINE
  8
0
 10
13.8872
 20
6.01422
 11
14.1
 21
6.19281
  0
LINE
  8
0
 10
14.1
 20
6.19281
 11
14.3611
 21
6.28784
  0
LINE
  8
0
 10
14.3611
 20
6.28784
 11
14.6389
 21
6.28784
  0
LINE
  8
0
 10
14.6389
 20
6.28784
 11
14.9
 21
6.19281
  0
LINE
  8
0
 10
14.9
 20
6.19281
 11
15.1128
 21
6.01422
  0
LINE
  8
0
 10
15.1128
 20
6.01422
 11
15.2517
 21
5.77361
  0
LINE
  8
0
 10
15.2517
 20
5.77361
 11
15.3
 21
5.5
  0
LINE
  8
0
 10
15.3
 20
5.5
 11
15.2517
 21
5.22638
  0
LINE
  8
0
 10
15.2517
 20
5.22638
 11
15.1128
 21
4.98576
  0
LINE
  8
0
 10
15.1128
 20
4.98576
 11
14.9
 21
4.80717
  0
LINE
  8
0
 10
14.9
 20
4.80717
 11
14.6389
 21
4.71214
  0
LINE
  8
0
 10
14.6389
 20
4.71214
 11
14.3611
 21
4.71214
  0
ENDSEC
  0
SECTION
  2
OBJECTS
  0
DICTIONARY
  0
ENDSEC
  0
EOF
