  0
SECTION
  2
BLOCKS
  0
ENDSEC
  0
SECTION
  2
ENTITIES
  0
LINE
  8
0
 10
13.7482
 20
0.226379
 11
13.7
 21
0.5
  0
LINE
  8
0
 10
13.7
 20
0.5
 11
13.7482
 21
0.773605
  0
LINE
  8
0
 10
13.7482
 20
0.773605
 11
13.8872
 21
1.01422
  0
LINE
  8
0
 10
13.8872
 20
1.01422
 11
14.1
 21
1.19281
  0
LINE
  8
0
 10
14.1
 20
1.19281
 11
14.3611
 21
1.28784
  0
LINE
  8
0
 10
14.3611
 20
1.28784
 11
14.6389
 21
1.28784
  0
LINE
  8
0
 10
14.6389
 20
1.28784
 11
14.9
 21
1.19281
  0
LINE
  8
0
 10
14.9
 20
1.19281
 11
15.1128
 21
1.01422
  0
LINE
  8
0
 10
15.1128
 20
1.01422
 11
15.2517
 21
0.773605
  0
LINE
  8
0
 10
15.2517
 20
0.773605
 11
15.3
 21
0.5
  0
LINE
  8
0
 10
15.3
 20
0.5
 11
15.2517
 21
0.226379
  0
LINE
  8
0
 10
15.2517
 20
0.226379
 11
15.121
 21
0
  0
LINE
  8
0
 10
15.121
 20
0
 11
37.8789
 21
0
  0
LINE
  8
0
 10
37.8789
 20
0
 11
37.7482
 21
0.226379
  0
LINE
  8
0
 10
37.7482
 20
0.226379
 11
37.7
 21
0.5
  0
LINE
  8
0
 10
37.7
 20
0.5
 11
37.7482
 21
0.773605
  0
LINE
  8
0
 10
37.7482
 20
0.773605
 11
37.8872
 21
1.01422
  0
LINE
  8
0
 10
37.8872
 20
1.01422
 11
38.1
 21
1.19281
  0
LINE
  8
0
 10
38.1
 20
1.19281
 11
38.3611
 21
1.28784
  0
LINE
  8
0
 10
38.3611
 20
1.28784
 11
38.6389
 21
1.28784
  0
LINE
  8
0
 10
38.6389
 20
1.28784
 11
38.9
 21
1.19281
  0
LINE
  8
0
 10
38.9
 20
1.19281
 11
39.1128
 21
1.01422
  0
LINE
  8
0
 10
39.1128
 20
1.01422
 11
39.2518
 21
0.773605
  0
LINE
  8
0
 10
39.2518
 20
0.773605
 11
39.3
 21
0.5
  0
LINE
  8
0
 10
39.3
 20
0.5
 11
39.2518
 21
0.226379
  0
LINE
  8
0
 10
39.2518
 20
0.226379
 11
39.121
 21
0
  0
LINE
  8
0
 10
39.121
 20
0
 11
69
 21
0
  0
LINE
  8
0
 10
69
 20
0
 11
69
 21
650
  0
LINE
  8
0
 10
69
 20
650
 11
0
 21
650
  0
LINE
  8
0
 10
0
 20
650
 11
0
 21
0
  0
LINE
  8
0
 10
0
 20
0
 11
13.8789
 21
0
  0
LINE
  8
0
 10
13.8789
 20
0
 11
13.7482
 21
0.226379
  0
LINE
  8
0
 10
22.3611
 20
643.712
 11
22.1
 21
643.807
  0
LINE
  8
0
 10
22.1
 20
643.807
 11
21.8872
 21
643.986
  0
LINE
  8
0
 10
21.8872
 20
643.986
 11
21.7482
 21
644.226
  0
LINE
  8
0
 10
21.7482
 20
644.226
 11
21.7
 21
644.5
  0
LINE
  8
0
 10
21.7
 20
644.5
 11
21.7482
 21
644.774
  0
LINE
  8
0
 10
21.7482
 20
644.774
 11
21.8872
 21
645.014
  0
LINE
  8
0
 10
21.8872
 20
645.014
 11
22.1
 21
645.193
  0
LINE
  8
0
 10
22.1
 20
645.193
 11
22.3611
 21
645.288
  0
LINE
  8
0
 10
22.3611
 20
645.288
 11
22.6389
 21
645.288
  0
LINE
  8
0
 10
22.6389
 20
645.288
 11
22.9
 21
645.193
  0
LINE
  8
0
 10
22.9
 20
645.193
 11
23.1128
 21
645.014
  0
LINE
  8
0
 10
23.1128
 20
645.014
 11
23.2518
 21
644.774
  0
LINE
  8
0
 10
23.2518
 20
644.774
 11
23.3
 21
644.5
  0
LINE
  8
0
 10
23.3
 20
644.5
 11
23.2518
 21
644.226
  0
LINE
  8
0
 10
23.2518
 20
644.226
 11
23.1128
 21
643.986
  0
LINE
  8
0
 10
23.1128
 20
643.986
 11
22.9
 21
643.807
  0
LINE
  8
0
 10
22.9
 20
643.807
 11
22.6389
 21
643.712
  0
LINE
  8
0
 10
22.6389
 20
643.712
 11
22.3611
 21
643.712
  0
LINE
  8
0
 10
32.3611
 20
636.712
 11
32.1
 21
636.807
  0
LINE
  8
0
 10
32.1
 20
636.807
 11
31.8872
 21
636.986
  0
LINE
  8
0
 10
31.8872
 20
636.986
 11
31.7482
 21
637.226
  0
LINE
  8
0
 10
31.7482
 20
637.226
 11
31.7
 21
637.5
  0
LINE
  8
0
 10
31.7
 20
637.5
 11
31.7482
 21
637.774
  0
LINE
  8
0
 10
31.7482
 20
637.774
 11
31.8872
 21
638.014
  0
LINE
  8
0
 10
31.8872
 20
638.014
 11
32.1
 21
638.193
  0
LINE
  8
0
 10
32.1
 20
638.193
 11
32.3611
 21
638.288
  0
LINE
  8
0
 10
32.3611
 20
638.288
 11
32.6389
 21
638.288
  0
LINE
  8
0
 10
32.6389
 20
638.288
 11
32.9
 21
638.193
  0
LINE
  8
0
 10
32.9
 20
638.193
 11
33.1128
 21
638.014
  0
LINE
  8
0
 10
33.1128
 20
638.014
 11
33.2518
 21
637.774
  0
LINE
  8
0
 10
33.2518
 20
637.774
 11
33.3
 21
637.5
  0
LINE
  8
0
 10
33.3
 20
637.5
 11
33.2518
 21
637.226
  0
LINE
  8
0
 10
33.2518
 20
637.226
 11
33.1128
 21
636.986
  0
LINE
  8
0
 10
33.1128
 20
636.986
 11
32.9
 21
636.807
  0
LINE
  8
0
 10
32.9
 20
636.807
 11
32.6389
 21
636.712
  0
LINE
  8
0
 10
32.6389
 20
636.712
 11
32.3611
 21
636.712
  0
LINE
  8
0
 10
28.3611
 20
629.712
 11
28.1
 21
629.807
  0
LINE
  8
0
 10
28.1
 20
629.807
 11
27.8872
 21
629.986
  0
LINE
  8
0
 10
27.8872
 20
629.986
 11
27.7482
 21
630.226
  0
LINE
  8
0
 10
27.7482
 20
630.226
 11
27.7
 21
630.5
  0
LINE
  8
0
 10
27.7
 20
630.5
 11
27.7482
 21
630.774
  0
LINE
  8
0
 10
27.7482
 20
630.774
 11
27.8872
 21
631.014
  0
LINE
  8
0
 10
27.8872
 20
631.014
 11
28.1
 21
631.193
  0
LINE
  8
0
 10
28.1
 20
631.193
 11
28.3611
 21
631.288
  0
LINE
  8
0
 10
28.3611
 20
631.288
 11
28.6389
 21
631.288
  0
LINE
  8
0
 10
28.6389
 20
631.288
 11
28.9
 21
631.193
  0
LINE
  8
0
 10
28.9
 20
631.193
 11
29.1128
 21
631.014
  0
LINE
  8
0
 10
29.1128
 20
631.014
 11
29.2518
 21
630.774
  0
LINE
  8
0
 10
29.2518
 20
630.774
 11
29.3
 21
630.5
  0
LINE
  8
0
 10
29.3
 20
630.5
 11
29.2518
 21
630.226
  0
LINE
  8
0
 10
29.2518
 20
630.226
 11
29.1128
 21
629.986
  0
LINE
  8
0
 10
29.1128
 20
629.986
 11
28.9
 21
629.807
  0
LINE
  8
0
 10
28.9
 20
629.807
 11
28.6389
 21
629.712
  0
LINE
  8
0
 10
28.6389
 20
629.712
 11
28.3611
 21
629.712
  0
LINE
  8
0
 10
24.3611
 20
622.712
 11
24.1
 21
622.807
  0
LINE
  8
0
 10
24.1
 20
622.807
 11
23.8872
 21
622.986
  0
LINE
  8
0
 10
23.8872
 20
622.986
 11
23.7482
 21
623.226
  0
LINE
  8
0
 10
23.7482
 20
623.226
 11
23.7
 21
623.5
  0
LINE
  8
0
 10
23.7
 20
623.5
 11
23.7482
 21
623.774
  0
LINE
  8
0
 10
23.7482
 20
623.774
 11
23.8872
 21
624.014
  0
LINE
  8
0
 10
23.8872
 20
624.014
 11
24.1
 21
624.193
  0
LINE
  8
0
 10
24.1
 20
624.193
 11
24.3611
 21
624.288
  0
LINE
  8
0
 10
24.3611
 20
624.288
 11
24.6389
 21
624.288
  0
LINE
  8
0
 10
24.6389
 20
624.288
 11
24.9
 21
624.193
  0
LINE
  8
0
 10
24.9
 20
624.193
 11
25.1128
 21
624.014
  0
LINE
  8
0
 10
25.1128
 20
624.014
 11
25.2518
 21
623.774
  0
LINE
  8
0
 10
25.2518
 20
623.774
 11
25.3
 21
623.5
  0
LINE
  8
0
 10
25.3
 20
623.5
 11
25.2518
 21
623.226
  0
LINE
  8
0
 10
25.2518
 20
623.226
 11
25.1128
 21
622.986
  0
LINE
  8
0
 10
25.1128
 20
622.986
 11
24.9
 21
622.807
  0
LINE
  8
0
 10
24.9
 20
622.807
 11
24.6389
 21
622.712
  0
LINE
  8
0
 10
24.6389
 20
622.712
 11
24.3611
 21
622.712
  0
LINE
  8
0
 10
22.3611
 20
615.712
 11
22.1
 21
615.807
  0
LINE
  8
0
 10
22.1
 20
615.807
 11
21.8872
 21
615.986
  0
LINE
  8
0
 10
21.8872
 20
615.986
 11
21.7482
 21
616.226
  0
LINE
  8
0
 10
21.7482
 20
616.226
 11
21.7
 21
616.5
  0
LINE
  8
0
 10
21.7
 20
616.5
 11
21.7482
 21
616.774
  0
LINE
  8
0
 10
21.7482
 20
616.774
 11
21.8872
 21
617.014
  0
LINE
  8
0
 10
21.8872
 20
617.014
 11
22.1
 21
617.193
  0
LINE
  8
0
 10
22.1
 20
617.193
 11
22.3611
 21
617.288
  0
LINE
  8
0
 10
22.3611
 20
617.288
 11
22.6389
 21
617.288
  0
LINE
  8
0
 10
22.6389
 20
617.288
 11
22.9
 21
617.193
  0
LINE
  8
0
 10
22.9
 20
617.193
 11
23.1128
 21
617.014
  0
LINE
  8
0
 10
23.1128
 20
617.014
 11
23.2518
 21
616.774
  0
LINE
  8
0
 10
23.2518
 20
616.774
 11
23.3
 21
616.5
  0
LINE
  8
0
 10
23.3
 20
616.5
 11
23.2518
 21
616.226
  0
LINE
  8
0
 10
23.2518
 20
616.226
 11
23.1128
 21
615.986
  0
LINE
  8
0
 10
23.1128
 20
615.986
 11
22.9
 21
615.807
  0
LINE
  8
0
 10
22.9
 20
615.807
 11
22.6389
 21
615.712
  0
LINE
  8
0
 10
22.6389
 20
615.712
 11
22.3611
 21
615.712
  0
LINE
  8
0
 10
32.3611
 20
608.712
 11
32.1
 21
608.807
  0
LINE
  8
0
 10
32.1
 20
608.807
 11
31.8872
 21
608.986
  0
LINE
  8
0
 10
31.8872
 20
608.986
 11
31.7482
 21
609.226
  0
LINE
  8
0
 10
31.7482
 20
609.226
 11
31.7
 21
609.5
  0
LINE
  8
0
 10
31.7
 20
609.5
 11
31.7482
 21
609.774
  0
LINE
  8
0
 10
31.7482
 20
609.774
 11
31.8872
 21
610.014
  0
LINE
  8
0
 10
31.8872
 20
610.014
 11
32.1
 21
610.193
  0
LINE
  8
0
 10
32.1
 20
610.193
 11
32.3611
 21
610.288
  0
LINE
  8
0
 10
32.3611
 20
610.288
 11
32.6389
 21
610.288
  0
LINE
  8
0
 10
32.6389
 20
610.288
 11
32.9
 21
610.193
  0
LINE
  8
0
 10
32.9
 20
610.193
 11
33.1128
 21
610.014
  0
LINE
  8
0
 10
33.1128
 20
610.014
 11
33.2518
 21
609.774
  0
LINE
  8
0
 10
33.2518
 20
609.774
 11
33.3
 21
609.5
  0
LINE
  8
0
 10
33.3
 20
609.5
 11
33.2518
 21
609.226
  0
LINE
  8
0
 10
33.2518
 20
609.226
 11
33.1128
 21
608.986
  0
LINE
  8
0
 10
33.1128
 20
608.986
 11
32.9
 21
608.807
  0
LINE
  8
0
 10
32.9
 20
608.807
 11
32.6389
 21
608.712
  0
LINE
  8
0
 10
32.6389
 20
608.712
 11
32.3611
 21
608.712
  0
LINE
  8
0
 10
32.3611
 20
601.712
 11
32.1
 21
601.807
  0
LINE
  8
0
 10
32.1
 20
601.807
 11
31.8872
 21
601.986
  0
LINE
  8
0
 10
31.8872
 20
601.986
 11
31.7482
 21
602.226
  0
LINE
  8
0
 10
31.7482
 20
602.226
 11
31.7
 21
602.5
  0
LINE
  8
0
 10
31.7
 20
602.5
 11
31.7482
 21
602.774
  0
LINE
  8
0
 10
31.7482
 20
602.774
 11
31.8872
 21
603.014
  0
LINE
  8
0
 10
31.8872
 20
603.014
 11
32.1
 21
603.193
  0
LINE
  8
0
 10
32.1
 20
603.193
 11
32.3611
 21
603.288
  0
LINE
  8
0
 10
32.3611
 20
603.288
 11
32.6389
 21
603.288
  0
LINE
  8
0
 10
32.6389
 20
603.288
 11
32.9
 21
603.193
  0
LINE
  8
0
 10
32.9
 20
603.193
 11
33.1128
 21
603.014
  0
LINE
  8
0
 10
33.1128
 20
603.014
 11
33.2518
 21
602.774
  0
LINE
  8
0
 10
33.2518
 20
602.774
 11
33.3
 21
602.5
  0
LINE
  8
0
 10
33.3
 20
602.5
 11
33.2518
 21
602.226
  0
LINE
  8
0
 10
33.2518
 20
602.226
 11
33.1128
 21
601.986
  0
LINE
  8
0
 10
33.1128
 20
601.986
 11
32.9
 21
601.807
  0
LINE
  8
0
 10
32.9
 20
601.807
 11
32.6389
 21
601.712
  0
LINE
  8
0
 10
32.6389
 20
601.712
 11
32.3611
 21
601.712
  0
LINE
  8
0
 10
24.3611
 20
559.712
 11
24.1
 21
559.807
  0
LINE
  8
0
 10
24.1
 20
559.807
 11
23.8872
 21
559.986
  0
LINE
  8
0
 10
23.8872
 20
559.986
 11
23.7482
 21
560.226
  0
LINE
  8
0
 10
23.7482
 20
560.226
 11
23.7
 21
560.5
  0
LINE
  8
0
 10
23.7
 20
560.5
 11
23.7482
 21
560.774
  0
LINE
  8
0
 10
23.7482
 20
560.774
 11
23.8872
 21
561.014
  0
LINE
  8
0
 10
23.8872
 20
561.014
 11
24.1
 21
561.193
  0
LINE
  8
0
 10
24.1
 20
561.193
 11
24.3611
 21
561.288
  0
LINE
  8
0
 10
24.3611
 20
561.288
 11
24.6389
 21
561.288
  0
LINE
  8
0
 10
24.6389
 20
561.288
 11
24.9
 21
561.193
  0
LINE
  8
0
 10
24.9
 20
561.193
 11
25.1128
 21
561.014
  0
LINE
  8
0
 10
25.1128
 20
561.014
 11
25.2518
 21
560.774
  0
LINE
  8
0
 10
25.2518
 20
560.774
 11
25.3
 21
560.5
  0
LINE
  8
0
 10
25.3
 20
560.5
 11
25.2518
 21
560.226
  0
LINE
  8
0
 10
25.2518
 20
560.226
 11
25.1128
 21
559.986
  0
LINE
  8
0
 10
25.1128
 20
559.986
 11
24.9
 21
559.807
  0
LINE
  8
0
 10
24.9
 20
559.807
 11
24.6389
 21
559.712
  0
LINE
  8
0
 10
24.6389
 20
559.712
 11
24.3611
 21
559.712
  0
LINE
  8
0
 10
24.3611
 20
552.712
 11
24.1
 21
552.807
  0
LINE
  8
0
 10
24.1
 20
552.807
 11
23.8872
 21
552.986
  0
LINE
  8
0
 10
23.8872
 20
552.986
 11
23.7482
 21
553.226
  0
LINE
  8
0
 10
23.7482
 20
553.226
 11
23.7
 21
553.5
  0
LINE
  8
0
 10
23.7
 20
553.5
 11
23.7482
 21
553.774
  0
LINE
  8
0
 10
23.7482
 20
553.774
 11
23.8872
 21
554.014
  0
LINE
  8
0
 10
23.8872
 20
554.014
 11
24.1
 21
554.193
  0
LINE
  8
0
 10
24.1
 20
554.193
 11
24.3611
 21
554.288
  0
LINE
  8
0
 10
24.3611
 20
554.288
 11
24.6389
 21
554.288
  0
LINE
  8
0
 10
24.6389
 20
554.288
 11
24.9
 21
554.193
  0
LINE
  8
0
 10
24.9
 20
554.193
 11
25.1128
 21
554.014
  0
LINE
  8
0
 10
25.1128
 20
554.014
 11
25.2518
 21
553.774
  0
LINE
  8
0
 10
25.2518
 20
553.774
 11
25.3
 21
553.5
  0
LINE
  8
0
 10
25.3
 20
553.5
 11
25.2518
 21
553.226
  0
LINE
  8
0
 10
25.2518
 20
553.226
 11
25.1128
 21
552.986
  0
LINE
  8
0
 10
25.1128
 20
552.986
 11
24.9
 21
552.807
  0
LINE
  8
0
 10
24.9
 20
552.807
 11
24.6389
 21
552.712
  0
LINE
  8
0
 10
24.6389
 20
552.712
 11
24.3611
 21
552.712
  0
LINE
  8
0
 10
22.3611
 20
531.712
 11
22.1
 21
531.807
  0
LINE
  8
0
 10
22.1
 20
531.807
 11
21.8872
 21
531.986
  0
LINE
  8
0
 10
21.8872
 20
531.986
 11
21.7482
 21
532.226
  0
LINE
  8
0
 10
21.7482
 20
532.226
 11
21.7
 21
532.5
  0
LINE
  8
0
 10
21.7
 20
532.5
 11
21.7482
 21
532.774
  0
LINE
  8
0
 10
21.7482
 20
532.774
 11
21.8872
 21
533.014
  0
LINE
  8
0
 10
21.8872
 20
533.014
 11
22.1
 21
533.193
  0
LINE
  8
0
 10
22.1
 20
533.193
 11
22.3611
 21
533.288
  0
LINE
  8
0
 10
22.3611
 20
533.288
 11
22.6389
 21
533.288
  0
LINE
  8
0
 10
22.6389
 20
533.288
 11
22.9
 21
533.193
  0
LINE
  8
0
 10
22.9
 20
533.193
 11
23.1128
 21
533.014
  0
LINE
  8
0
 10
23.1128
 20
533.014
 11
23.2518
 21
532.774
  0
LINE
  8
0
 10
23.2518
 20
532.774
 11
23.3
 21
532.5
  0
LINE
  8
0
 10
23.3
 20
532.5
 11
23.2518
 21
532.226
  0
LINE
  8
0
 10
23.2518
 20
532.226
 11
23.1128
 21
531.986
  0
LINE
  8
0
 10
23.1128
 20
531.986
 11
22.9
 21
531.807
  0
LINE
  8
0
 10
22.9
 20
531.807
 11
22.6389
 21
531.712
  0
LINE
  8
0
 10
22.6389
 20
531.712
 11
22.3611
 21
531.712
  0
LINE
  8
0
 10
32.3611
 20
524.712
 11
32.1
 21
524.807
  0
LINE
  8
0
 10
32.1
 20
524.807
 11
31.8872
 21
524.986
  0
LINE
  8
0
 10
31.8872
 20
524.986
 11
31.7482
 21
525.226
  0
LINE
  8
0
 10
31.7482
 20
525.226
 11
31.7
 21
525.5
  0
LINE
  8
0
 10
31.7
 20
525.5
 11
31.7482
 21
525.774
  0
LINE
  8
0
 10
31.7482
 20
525.774
 11
31.8872
 21
526.014
  0
LINE
  8
0
 10
31.8872
 20
526.014
 11
32.1
 21
526.193
  0
LINE
  8
0
 10
32.1
 20
526.193
 11
32.3611
 21
526.288
  0
LINE
  8
0
 10
32.3611
 20
526.288
 11
32.6389
 21
526.288
  0
LINE
  8
0
 10
32.6389
 20
526.288
 11
32.9
 21
526.193
  0
LINE
  8
0
 10
32.9
 20
526.193
 11
33.1128
 21
526.014
  0
LINE
  8
0
 10
33.1128
 20
526.014
 11
33.2518
 21
525.774
  0
LINE
  8
0
 10
33.2518
 20
525.774
 11
33.3
 21
525.5
  0
LINE
  8
0
 10
33.3
 20
525.5
 11
33.2518
 21
525.226
  0
LINE
  8
0
 10
33.2518
 20
525.226
 11
33.1128
 21
524.986
  0
LINE
  8
0
 10
33.1128
 20
524.986
 11
32.9
 21
524.807
  0
LINE
  8
0
 10
32.9
 20
524.807
 11
32.6389
 21
524.712
  0
LINE
  8
0
 10
32.6389
 20
524.712
 11
32.3611
 21
524.712
  0
LINE
  8
0
 10
28.3611
 20
517.712
 11
28.1
 21
517.807
  0
LINE
  8
0
 10
28.1
 20
517.807
 11
27.8872
 21
517.986
  0
LINE
  8
0
 10
27.8872
 20
517.986
 11
27.7482
 21
518.226
  0
LINE
  8
0
 10
27.7482
 20
518.226
 11
27.7
 21
518.5
  0
LINE
  8
0
 10
27.7
 20
518.5
 11
27.7482
 21
518.774
  0
LINE
  8
0
 10
27.7482
 20
518.774
 11
27.8872
 21
519.014
  0
LINE
  8
0
 10
27.8872
 20
519.014
 11
28.1
 21
519.193
  0
LINE
  8
0
 10
28.1
 20
519.193
 11
28.3611
 21
519.288
  0
LINE
  8
0
 10
28.3611
 20
519.288
 11
28.6389
 21
519.288
  0
LINE
  8
0
 10
28.6389
 20
519.288
 11
28.9
 21
519.193
  0
LINE
  8
0
 10
28.9
 20
519.193
 11
29.1128
 21
519.014
  0
LINE
  8
0
 10
29.1128
 20
519.014
 11
29.2518
 21
518.774
  0
LINE
  8
0
 10
29.2518
 20
518.774
 11
29.3
 21
518.5
  0
LINE
  8
0
 10
29.3
 20
518.5
 11
29.2518
 21
518.226
  0
LINE
  8
0
 10
29.2518
 20
518.226
 11
29.1128
 21
517.986
  0
LINE
  8
0
 10
29.1128
 20
517.986
 11
28.9
 21
517.807
  0
LINE
  8
0
 10
28.9
 20
517.807
 11
28.6389
 21
517.712
  0
LINE
  8
0
 10
28.6389
 20
517.712
 11
28.3611
 21
517.712
  0
LINE
  8
0
 10
24.3611
 20
510.712
 11
24.1
 21
510.807
  0
LINE
  8
0
 10
24.1
 20
510.807
 11
23.8872
 21
510.986
  0
LINE
  8
0
 10
23.8872
 20
510.986
 11
23.7482
 21
511.226
  0
LINE
  8
0
 10
23.7482
 20
511.226
 11
23.7
 21
511.5
  0
LINE
  8
0
 10
23.7
 20
511.5
 11
23.7482
 21
511.774
  0
LINE
  8
0
 10
23.7482
 20
511.774
 11
23.8872
 21
512.014
  0
LINE
  8
0
 10
23.8872
 20
512.014
 11
24.1
 21
512.193
  0
LINE
  8
0
 10
24.1
 20
512.193
 11
24.3611
 21
512.288
  0
LINE
  8
0
 10
24.3611
 20
512.288
 11
24.6389
 21
512.288
  0
LINE
  8
0
 10
24.6389
 20
512.288
 11
24.9
 21
512.193
  0
LINE
  8
0
 10
24.9
 20
512.193
 11
25.1128
 21
512.014
  0
LINE
  8
0
 10
25.1128
 20
512.014
 11
25.2518
 21
511.774
  0
LINE
  8
0
 10
25.2518
 20
511.774
 11
25.3
 21
511.5
  0
LINE
  8
0
 10
25.3
 20
511.5
 11
25.2518
 21
511.226
  0
LINE
  8
0
 10
25.2518
 20
511.226
 11
25.1128
 21
510.986
  0
LINE
  8
0
 10
25.1128
 20
510.986
 11
24.9
 21
510.807
  0
LINE
  8
0
 10
24.9
 20
510.807
 11
24.6389
 21
510.712
  0
LINE
  8
0
 10
24.6389
 20
510.712
 11
24.3611
 21
510.712
  0
LINE
  8
0
 10
22.3611
 20
503.712
 11
22.1
 21
503.807
  0
LINE
  8
0
 10
22.1
 20
503.807
 11
21.8872
 21
503.986
  0
LINE
  8
0
 10
21.8872
 20
503.986
 11
21.7482
 21
504.226
  0
LINE
  8
0
 10
21.7482
 20
504.226
 11
21.7
 21
504.5
  0
LINE
  8
0
 10
21.7
 20
504.5
 11
21.7482
 21
504.774
  0
LINE
  8
0
 10
21.7482
 20
504.774
 11
21.8872
 21
505.014
  0
LINE
  8
0
 10
21.8872
 20
505.014
 11
22.1
 21
505.193
  0
LINE
  8
0
 10
22.1
 20
505.193
 11
22.3611
 21
505.288
  0
LINE
  8
0
 10
22.3611
 20
505.288
 11
22.6389
 21
505.288
  0
LINE
  8
0
 10
22.6389
 20
505.288
 11
22.9
 21
505.193
  0
LINE
  8
0
 10
22.9
 20
505.193
 11
23.1128
 21
505.014
  0
LINE
  8
0
 10
23.1128
 20
505.014
 11
23.2518
 21
504.774
  0
LINE
  8
0
 10
23.2518
 20
504.774
 11
23.3
 21
504.5
  0
LINE
  8
0
 10
23.3
 20
504.5
 11
23.2518
 21
504.226
  0
LINE
  8
0
 10
23.2518
 20
504.226
 11
23.1128
 21
503.986
  0
LINE
  8
0
 10
23.1128
 20
503.986
 11
22.9
 21
503.807
  0
LINE
  8
0
 10
22.9
 20
503.807
 11
22.6389
 21
503.712
  0
LINE
  8
0
 10
22.6389
 20
503.712
 11
22.3611
 21
503.712
  0
LINE
  8
0
 10
32.3611
 20
496.712
 11
32.1
 21
496.807
  0
LINE
  8
0
 10
32.1
 20
496.807
 11
31.8872
 21
496.986
  0
LINE
  8
0
 10
31.8872
 20
496.986
 11
31.7482
 21
497.226
  0
LINE
  8
0
 10
31.7482
 20
497.226
 11
31.7
 21
497.5
  0
LINE
  8
0
 10
31.7
 20
497.5
 11
31.7482
 21
497.774
  0
LINE
  8
0
 10
31.7482
 20
497.774
 11
31.8872
 21
498.014
  0
LINE
  8
0
 10
31.8872
 20
498.014
 11
32.1
 21
498.193
  0
LINE
  8
0
 10
32.1
 20
498.193
 11
32.3611
 21
498.288
  0
LINE
  8
0
 10
32.3611
 20
498.288
 11
32.6389
 21
498.288
  0
LINE
  8
0
 10
32.6389
 20
498.288
 11
32.9
 21
498.193
  0
LINE
  8
0
 10
32.9
 20
498.193
 11
33.1128
 21
498.014
  0
LINE
  8
0
 10
33.1128
 20
498.014
 11
33.2518
 21
497.774
  0
LINE
  8
0
 10
33.2518
 20
497.774
 11
33.3
 21
497.5
  0
LINE
  8
0
 10
33.3
 20
497.5
 11
33.2518
 21
497.226
  0
LINE
  8
0
 10
33.2518
 20
497.226
 11
33.1128
 21
496.986
  0
LINE
  8
0
 10
33.1128
 20
496.986
 11
32.9
 21
496.807
  0
LINE
  8
0
 10
32.9
 20
496.807
 11
32.6389
 21
496.712
  0
LINE
  8
0
 10
32.6389
 20
496.712
 11
32.3611
 21
496.712
  0
LINE
  8
0
 10
28.3611
 20
468.712
 11
28.1
 21
468.807
  0
LINE
  8
0
 10
28.1
 20
468.807
 11
27.8872
 21
468.986
  0
LINE
  8
0
 10
27.8872
 20
468.986
 11
27.7482
 21
469.226
  0
LINE
  8
0
 10
27.7482
 20
469.226
 11
27.7
 21
469.5
  0
LINE
  8
0
 10
27.7
 20
469.5
 11
27.7482
 21
469.774
  0
LINE
  8
0
 10
27.7482
 20
469.774
 11
27.8872
 21
470.014
  0
LINE
  8
0
 10
27.8872
 20
470.014
 11
28.1
 21
470.193
  0
LINE
  8
0
 10
28.1
 20
470.193
 11
28.3611
 21
470.288
  0
LINE
  8
0
 10
28.3611
 20
470.288
 11
28.6389
 21
470.288
  0
LINE
  8
0
 10
28.6389
 20
470.288
 11
28.9
 21
470.193
  0
LINE
  8
0
 10
28.9
 20
470.193
 11
29.1128
 21
470.014
  0
LINE
  8
0
 10
29.1128
 20
470.014
 11
29.2518
 21
469.774
  0
LINE
  8
0
 10
29.2518
 20
469.774
 11
29.3
 21
469.5
  0
LINE
  8
0
 10
29.3
 20
469.5
 11
29.2518
 21
469.226
  0
LINE
  8
0
 10
29.2518
 20
469.226
 11
29.1128
 21
468.986
  0
LINE
  8
0
 10
29.1128
 20
468.986
 11
28.9
 21
468.807
  0
LINE
  8
0
 10
28.9
 20
468.807
 11
28.6389
 21
468.712
  0
LINE
  8
0
 10
28.6389
 20
468.712
 11
28.3611
 21
468.712
  0
LINE
  8
0
 10
24.3611
 20
447.712
 11
24.1
 21
447.807
  0
LINE
  8
0
 10
24.1
 20
447.807
 11
23.8872
 21
447.986
  0
LINE
  8
0
 10
23.8872
 20
447.986
 11
23.7482
 21
448.226
  0
LINE
  8
0
 10
23.7482
 20
448.226
 11
23.7
 21
448.5
  0
LINE
  8
0
 10
23.7
 20
448.5
 11
23.7482
 21
448.774
  0
LINE
  8
0
 10
23.7482
 20
448.774
 11
23.8872
 21
449.014
  0
LINE
  8
0
 10
23.8872
 20
449.014
 11
24.1
 21
449.193
  0
LINE
  8
0
 10
24.1
 20
449.193
 11
24.3611
 21
449.288
  0
LINE
  8
0
 10
24.3611
 20
449.288
 11
24.6389
 21
449.288
  0
LINE
  8
0
 10
24.6389
 20
449.288
 11
24.9
 21
449.193
  0
LINE
  8
0
 10
24.9
 20
449.193
 11
25.1128
 21
449.014
  0
LINE
  8
0
 10
25.1128
 20
449.014
 11
25.2518
 21
448.774
  0
LINE
  8
0
 10
25.2518
 20
448.774
 11
25.3
 21
448.5
  0
LINE
  8
0
 10
25.3
 20
448.5
 11
25.2518
 21
448.226
  0
LINE
  8
0
 10
25.2518
 20
448.226
 11
25.1128
 21
447.986
  0
LINE
  8
0
 10
25.1128
 20
447.986
 11
24.9
 21
447.807
  0
LINE
  8
0
 10
24.9
 20
447.807
 11
24.6389
 21
447.712
  0
LINE
  8
0
 10
24.6389
 20
447.712
 11
24.3611
 21
447.712
  0
LINE
  8
0
 10
24.3611
 20
440.712
 11
24.1
 21
440.807
  0
LINE
  8
0
 10
24.1
 20
440.807
 11
23.8872
 21
440.986
  0
LINE
  8
0
 10
23.8872
 20
440.986
 11
23.7482
 21
441.226
  0
LINE
  8
0
 10
23.7482
 20
441.226
 11
23.7
 21
441.5
  0
LINE
  8
0
 10
23.7
 20
441.5
 11
23.7482
 21
441.774
  0
LINE
  8
0
 10
23.7482
 20
441.774
 11
23.8872
 21
442.014
  0
LINE
  8
0
 10
23.8872
 20
442.014
 11
24.1
 21
442.193
  0
LINE
  8
0
 10
24.1
 20
442.193
 11
24.3611
 21
442.288
  0
LINE
  8
0
 10
24.3611
 20
442.288
 11
24.6389
 21
442.288
  0
LINE
  8
0
 10
24.6389
 20
442.288
 11
24.9
 21
442.193
  0
LINE
  8
0
 10
24.9
 20
442.193
 11
25.1128
 21
442.014
  0
LINE
  8
0
 10
25.1128
 20
442.014
 11
25.2518
 21
441.774
  0
LINE
  8
0
 10
25.2518
 20
441.774
 11
25.3
 21
441.5
  0
LINE
  8
0
 10
25.3
 20
441.5
 11
25.2518
 21
441.226
  0
LINE
  8
0
 10
25.2518
 20
441.226
 11
25.1128
 21
440.986
  0
LINE
  8
0
 10
25.1128
 20
440.986
 11
24.9
 21
440.807
  0
LINE
  8
0
 10
24.9
 20
440.807
 11
24.6389
 21
440.712
  0
LINE
  8
0
 10
24.6389
 20
440.712
 11
24.3611
 21
440.712
  0
LINE
  8
0
 10
22.3611
 20
419.712
 11
22.1
 21
419.807
  0
LINE
  8
0
 10
22.1
 20
419.807
 11
21.8872
 21
419.986
  0
LINE
  8
0
 10
21.8872
 20
419.986
 11
21.7482
 21
420.226
  0
LINE
  8
0
 10
21.7482
 20
420.226
 11
21.7
 21
420.5
  0
LINE
  8
0
 10
21.7
 20
420.5
 11
21.7482
 21
420.774
  0
LINE
  8
0
 10
21.7482
 20
420.774
 11
21.8872
 21
421.014
  0
LINE
  8
0
 10
21.8872
 20
421.014
 11
22.1
 21
421.193
  0
LINE
  8
0
 10
22.1
 20
421.193
 11
22.3611
 21
421.288
  0
LINE
  8
0
 10
22.3611
 20
421.288
 11
22.6389
 21
421.288
  0
LINE
  8
0
 10
22.6389
 20
421.288
 11
22.9
 21
421.193
  0
LINE
  8
0
 10
22.9
 20
421.193
 11
23.1128
 21
421.014
  0
LINE
  8
0
 10
23.1128
 20
421.014
 11
23.2518
 21
420.774
  0
LINE
  8
0
 10
23.2518
 20
420.774
 11
23.3
 21
420.5
  0
LINE
  8
0
 10
23.3
 20
420.5
 11
23.2518
 21
420.226
  0
LINE
  8
0
 10
23.2518
 20
420.226
 11
23.1128
 21
419.986
  0
LINE
  8
0
 10
23.1128
 20
419.986
 11
22.9
 21
419.807
  0
LINE
  8
0
 10
22.9
 20
419.807
 11
22.6389
 21
419.712
  0
LINE
  8
0
 10
22.6389
 20
419.712
 11
22.3611
 21
419.712
  0
LINE
  8
0
 10
22.3611
 20
412.712
 11
22.1
 21
412.807
  0
LINE
  8
0
 10
22.1
 20
412.807
 11
21.8872
 21
412.986
  0
LINE
  8
0
 10
21.8872
 20
412.986
 11
21.7482
 21
413.226
  0
LINE
  8
0
 10
21.7482
 20
413.226
 11
21.7
 21
413.5
  0
LINE
  8
0
 10
21.7
 20
413.5
 11
21.7482
 21
413.774
  0
LINE
  8
0
 10
21.7482
 20
413.774
 11
21.8872
 21
414.014
  0
LINE
  8
0
 10
21.8872
 20
414.014
 11
22.1
 21
414.193
  0
LINE
  8
0
 10
22.1
 20
414.193
 11
22.3611
 21
414.288
  0
LINE
  8
0
 10
22.3611
 20
414.288
 11
22.6389
 21
414.288
  0
LINE
  8
0
 10
22.6389
 20
414.288
 11
22.9
 21
414.193
  0
LINE
  8
0
 10
22.9
 20
414.193
 11
23.1128
 21
414.014
  0
LINE
  8
0
 10
23.1128
 20
414.014
 11
23.2518
 21
413.774
  0
LINE
  8
0
 10
23.2518
 20
413.774
 11
23.3
 21
413.5
  0
LINE
  8
0
 10
23.3
 20
413.5
 11
23.2518
 21
413.226
  0
LINE
  8
0
 10
23.2518
 20
413.226
 11
23.1128
 21
412.986
  0
LINE
  8
0
 10
23.1128
 20
412.986
 11
22.9
 21
412.807
  0
LINE
  8
0
 10
22.9
 20
412.807
 11
22.6389
 21
412.712
  0
LINE
  8
0
 10
22.6389
 20
412.712
 11
22.3611
 21
412.712
  0
LINE
  8
0
 10
22.3611
 20
405.712
 11
22.1
 21
405.807
  0
LINE
  8
0
 10
22.1
 20
405.807
 11
21.8872
 21
405.986
  0
LINE
  8
0
 10
21.8872
 20
405.986
 11
21.7482
 21
406.226
  0
LINE
  8
0
 10
21.7482
 20
406.226
 11
21.7
 21
406.5
  0
LINE
  8
0
 10
21.7
 20
406.5
 11
21.7482
 21
406.774
  0
LINE
  8
0
 10
21.7482
 20
406.774
 11
21.8872
 21
407.014
  0
LINE
  8
0
 10
21.8872
 20
407.014
 11
22.1
 21
407.193
  0
LINE
  8
0
 10
22.1
 20
407.193
 11
22.3611
 21
407.288
  0
LINE
  8
0
 10
22.3611
 20
407.288
 11
22.6389
 21
407.288
  0
LINE
  8
0
 10
22.6389
 20
407.288
 11
22.9
 21
407.193
  0
LINE
  8
0
 10
22.9
 20
407.193
 11
23.1128
 21
407.014
  0
LINE
  8
0
 10
23.1128
 20
407.014
 11
23.2518
 21
406.774
  0
LINE
  8
0
 10
23.2518
 20
406.774
 11
23.3
 21
406.5
  0
LINE
  8
0
 10
23.3
 20
406.5
 11
23.2518
 21
406.226
  0
LINE
  8
0
 10
23.2518
 20
406.226
 11
23.1128
 21
405.986
  0
LINE
  8
0
 10
23.1128
 20
405.986
 11
22.9
 21
405.807
  0
LINE
  8
0
 10
22.9
 20
405.807
 11
22.6389
 21
405.712
  0
LINE
  8
0
 10
22.6389
 20
405.712
 11
22.3611
 21
405.712
  0
LINE
  8
0
 10
22.3611
 20
398.712
 11
22.1
 21
398.807
  0
LINE
  8
0
 10
22.1
 20
398.807
 11
21.8872
 21
398.986
  0
LINE
  8
0
 10
21.8872
 20
398.986
 11
21.7482
 21
399.226
  0
LINE
  8
0
 10
21.7482
 20
399.226
 11
21.7
 21
399.5
  0
LINE
  8
0
 10
21.7
 20
399.5
 11
21.7482
 21
399.774
  0
LINE
  8
0
 10
21.7482
 20
399.774
 11
21.8872
 21
400.014
  0
LINE
  8
0
 10
21.8872
 20
400.014
 11
22.1
 21
400.193
  0
LINE
  8
0
 10
22.1
 20
400.193
 11
22.3611
 21
400.288
  0
LINE
  8
0
 10
22.3611
 20
400.288
 11
22.6389
 21
400.288
  0
LINE
  8
0
 10
22.6389
 20
400.288
 11
22.9
 21
400.193
  0
LINE
  8
0
 10
22.9
 20
400.193
 11
23.1128
 21
400.014
  0
LINE
  8
0
 10
23.1128
 20
400.014
 11
23.2518
 21
399.774
  0
LINE
  8
0
 10
23.2518
 20
399.774
 11
23.3
 21
399.5
  0
LINE
  8
0
 10
23.3
 20
399.5
 11
23.2518
 21
399.226
  0
LINE
  8
0
 10
23.2518
 20
399.226
 11
23.1128
 21
398.986
  0
LINE
  8
0
 10
23.1128
 20
398.986
 11
22.9
 21
398.807
  0
LINE
  8
0
 10
22.9
 20
398.807
 11
22.6389
 21
398.712
  0
LINE
  8
0
 10
22.6389
 20
398.712
 11
22.3611
 21
398.712
  0
LINE
  8
0
 10
22.3611
 20
391.712
 11
22.1
 21
391.807
  0
LINE
  8
0
 10
22.1
 20
391.807
 11
21.8872
 21
391.986
  0
LINE
  8
0
 10
21.8872
 20
391.986
 11
21.7482
 21
392.226
  0
LINE
  8
0
 10
21.7482
 20
392.226
 11
21.7
 21
392.5
  0
LINE
  8
0
 10
21.7
 20
392.5
 11
21.7482
 21
392.774
  0
LINE
  8
0
 10
21.7482
 20
392.774
 11
21.8872
 21
393.014
  0
LINE
  8
0
 10
21.8872
 20
393.014
 11
22.1
 21
393.193
  0
LINE
  8
0
 10
22.1
 20
393.193
 11
22.3611
 21
393.288
  0
LINE
  8
0
 10
22.3611
 20
393.288
 11
22.6389
 21
393.288
  0
LINE
  8
0
 10
22.6389
 20
393.288
 11
22.9
 21
393.193
  0
LINE
  8
0
 10
22.9
 20
393.193
 11
23.1128
 21
393.014
  0
LINE
  8
0
 10
23.1128
 20
393.014
 11
23.2518
 21
392.774
  0
LINE
  8
0
 10
23.2518
 20
392.774
 11
23.3
 21
392.5
  0
LINE
  8
0
 10
23.3
 20
392.5
 11
23.2518
 21
392.226
  0
LINE
  8
0
 10
23.2518
 20
392.226
 11
23.1128
 21
391.986
  0
LINE
  8
0
 10
23.1128
 20
391.986
 11
22.9
 21
391.807
  0
LINE
  8
0
 10
22.9
 20
391.807
 11
22.6389
 21
391.712
  0
LINE
  8
0
 10
22.6389
 20
391.712
 11
22.3611
 21
391.712
  0
LINE
  8
0
 10
22.3611
 20
384.712
 11
22.1
 21
384.807
  0
LINE
  8
0
 10
22.1
 20
384.807
 11
21.8872
 21
384.986
  0
LINE
  8
0
 10
21.8872
 20
384.986
 11
21.7482
 21
385.226
  0
LINE
  8
0
 10
21.7482
 20
385.226
 11
21.7
 21
385.5
  0
LINE
  8
0
 10
21.7
 20
385.5
 11
21.7482
 21
385.774
  0
LINE
  8
0
 10
21.7482
 20
385.774
 11
21.8872
 21
386.014
  0
LINE
  8
0
 10
21.8872
 20
386.014
 11
22.1
 21
386.193
  0
LINE
  8
0
 10
22.1
 20
386.193
 11
22.3611
 21
386.288
  0
LINE
  8
0
 10
22.3611
 20
386.288
 11
22.6389
 21
386.288
  0
LINE
  8
0
 10
22.6389
 20
386.288
 11
22.9
 21
386.193
  0
LINE
  8
0
 10
22.9
 20
386.193
 11
23.1128
 21
386.014
  0
LINE
  8
0
 10
23.1128
 20
386.014
 11
23.2518
 21
385.774
  0
LINE
  8
0
 10
23.2518
 20
385.774
 11
23.3
 21
385.5
  0
LINE
  8
0
 10
23.3
 20
385.5
 11
23.2518
 21
385.226
  0
LINE
  8
0
 10
23.2518
 20
385.226
 11
23.1128
 21
384.986
  0
LINE
  8
0
 10
23.1128
 20
384.986
 11
22.9
 21
384.807
  0
LINE
  8
0
 10
22.9
 20
384.807
 11
22.6389
 21
384.712
  0
LINE
  8
0
 10
22.6389
 20
384.712
 11
22.3611
 21
384.712
  0
LINE
  8
0
 10
52.3611
 20
314.712
 11
52.1
 21
314.807
  0
LINE
  8
0
 10
52.1
 20
314.807
 11
51.8872
 21
314.986
  0
LINE
  8
0
 10
51.8872
 20
314.986
 11
51.7482
 21
315.226
  0
LINE
  8
0
 10
51.7482
 20
315.226
 11
51.7
 21
315.5
  0
LINE
  8
0
 10
51.7
 20
315.5
 11
51.7482
 21
315.774
  0
LINE
  8
0
 10
51.7482
 20
315.774
 11
51.8872
 21
316.014
  0
LINE
  8
0
 10
51.8872
 20
316.014
 11
52.1
 21
316.193
  0
LINE
  8
0
 10
52.1
 20
316.193
 11
52.3611
 21
316.288
  0
LINE
  8
0
 10
52.3611
 20
316.288
 11
52.6389
 21
316.288
  0
LINE
  8
0
 10
52.6389
 20
316.288
 11
52.9
 21
316.193
  0
LINE
  8
0
 10
52.9
 20
316.193
 11
53.1128
 21
316.014
  0
LINE
  8
0
 10
53.1128
 20
316.014
 11
53.2518
 21
315.774
  0
LINE
  8
0
 10
53.2518
 20
315.774
 11
53.3
 21
315.5
  0
LINE
  8
0
 10
53.3
 20
315.5
 11
53.2518
 21
315.226
  0
LINE
  8
0
 10
53.2518
 20
315.226
 11
53.1128
 21
314.986
  0
LINE
  8
0
 10
53.1128
 20
314.986
 11
52.9
 21
314.807
  0
LINE
  8
0
 10
52.9
 20
314.807
 11
52.6389
 21
314.712
  0
LINE
  8
0
 10
52.6389
 20
314.712
 11
52.3611
 21
314.712
  0
LINE
  8
0
 10
32.3611
 20
314.712
 11
32.1
 21
314.807
  0
LINE
  8
0
 10
32.1
 20
314.807
 11
31.8872
 21
314.986
  0
LINE
  8
0
 10
31.8872
 20
314.986
 11
31.7482
 21
315.226
  0
LINE
  8
0
 10
31.7482
 20
315.226
 11
31.7
 21
315.5
  0
LINE
  8
0
 10
31.7
 20
315.5
 11
31.7482
 21
315.774
  0
LINE
  8
0
 10
31.7482
 20
315.774
 11
31.8872
 21
316.014
  0
LINE
  8
0
 10
31.8872
 20
316.014
 11
32.1
 21
316.193
  0
LINE
  8
0
 10
32.1
 20
316.193
 11
32.3611
 21
316.288
  0
LINE
  8
0
 10
32.3611
 20
316.288
 11
32.6389
 21
316.288
  0
LINE
  8
0
 10
32.6389
 20
316.288
 11
32.9
 21
316.193
  0
LINE
  8
0
 10
32.9
 20
316.193
 11
33.1128
 21
316.014
  0
LINE
  8
0
 10
33.1128
 20
316.014
 11
33.2518
 21
315.774
  0
LINE
  8
0
 10
33.2518
 20
315.774
 11
33.3
 21
315.5
  0
LINE
  8
0
 10
33.3
 20
315.5
 11
33.2518
 21
315.226
  0
LINE
  8
0
 10
33.2518
 20
315.226
 11
33.1128
 21
314.986
  0
LINE
  8
0
 10
33.1128
 20
314.986
 11
32.9
 21
314.807
  0
LINE
  8
0
 10
32.9
 20
314.807
 11
32.6389
 21
314.712
  0
LINE
  8
0
 10
32.6389
 20
314.712
 11
32.3611
 21
314.712
  0
LINE
  8
0
 10
48.3611
 20
300.712
 11
48.1
 21
300.807
  0
LINE
  8
0
 10
48.1
 20
300.807
 11
47.8872
 21
300.986
  0
LINE
  8
0
 10
47.8872
 20
300.986
 11
47.7482
 21
301.226
  0
LINE
  8
0
 10
47.7482
 20
301.226
 11
47.7
 21
301.5
  0
LINE
  8
0
 10
47.7
 20
301.5
 11
47.7482
 21
301.774
  0
LINE
  8
0
 10
47.7482
 20
301.774
 11
47.8872
 21
302.014
  0
LINE
  8
0
 10
47.8872
 20
302.014
 11
48.1
 21
302.193
  0
LINE
  8
0
 10
48.1
 20
302.193
 11
48.3611
 21
302.288
  0
LINE
  8
0
 10
48.3611
 20
302.288
 11
48.6389
 21
302.288
  0
LINE
  8
0
 10
48.6389
 20
302.288
 11
48.9
 21
302.193
  0
LINE
  8
0
 10
48.9
 20
302.193
 11
49.1128
 21
302.014
  0
LINE
  8
0
 10
49.1128
 20
302.014
 11
49.2518
 21
301.774
  0
LINE
  8
0
 10
49.2518
 20
301.774
 11
49.3
 21
301.5
  0
LINE
  8
0
 10
49.3
 20
301.5
 11
49.2518
 21
301.226
  0
LINE
  8
0
 10
49.2518
 20
301.226
 11
49.1128
 21
300.986
  0
LINE
  8
0
 10
49.1128
 20
300.986
 11
48.9
 21
300.807
  0
LINE
  8
0
 10
48.9
 20
300.807
 11
48.6389
 21
300.712
  0
LINE
  8
0
 10
48.6389
 20
300.712
 11
48.3611
 21
300.712
  0
LINE
  8
0
 10
24.3611
 20
300.712
 11
24.1
 21
300.807
  0
LINE
  8
0
 10
24.1
 20
300.807
 11
23.8872
 21
300.986
  0
LINE
  8
0
 10
23.8872
 20
300.986
 11
23.7482
 21
301.226
  0
LINE
  8
0
 10
23.7482
 20
301.226
 11
23.7
 21
301.5
  0
LINE
  8
0
 10
23.7
 20
301.5
 11
23.7482
 21
301.774
  0
LINE
  8
0
 10
23.7482
 20
301.774
 11
23.8872
 21
302.014
  0
LINE
  8
0
 10
23.8872
 20
302.014
 11
24.1
 21
302.193
  0
LINE
  8
0
 10
24.1
 20
302.193
 11
24.3611
 21
302.288
  0
LINE
  8
0
 10
24.3611
 20
302.288
 11
24.6389
 21
302.288
  0
LINE
  8
0
 10
24.6389
 20
302.288
 11
24.9
 21
302.193
  0
LINE
  8
0
 10
24.9
 20
302.193
 11
25.1128
 21
302.014
  0
LINE
  8
0
 10
25.1128
 20
302.014
 11
25.2518
 21
301.774
  0
LINE
  8
0
 10
25.2518
 20
301.774
 11
25.3
 21
301.5
  0
LINE
  8
0
 10
25.3
 20
301.5
 11
25.2518
 21
301.226
  0
LINE
  8
0
 10
25.2518
 20
301.226
 11
25.1128
 21
300.986
  0
LINE
  8
0
 10
25.1128
 20
300.986
 11
24.9
 21
300.807
  0
LINE
  8
0
 10
24.9
 20
300.807
 11
24.6389
 21
300.712
  0
LINE
  8
0
 10
24.6389
 20
300.712
 11
24.3611
 21
300.712
  0
LINE
  8
0
 10
46.3611
 20
286.712
 11
46.1
 21
286.807
  0
LINE
  8
0
 10
46.1
 20
286.807
 11
45.8872
 21
286.986
  0
LINE
  8
0
 10
45.8872
 20
286.986
 11
45.7482
 21
287.226
  0
LINE
  8
0
 10
45.7482
 20
287.226
 11
45.7
 21
287.5
  0
LINE
  8
0
 10
45.7
 20
287.5
 11
45.7482
 21
287.774
  0
LINE
  8
0
 10
45.7482
 20
287.774
 11
45.8872
 21
288.014
  0
LINE
  8
0
 10
45.8872
 20
288.014
 11
46.1
 21
288.193
  0
LINE
  8
0
 10
46.1
 20
288.193
 11
46.3611
 21
288.288
  0
LINE
  8
0
 10
46.3611
 20
288.288
 11
46.6389
 21
288.288
  0
LINE
  8
0
 10
46.6389
 20
288.288
 11
46.9
 21
288.193
  0
LINE
  8
0
 10
46.9
 20
288.193
 11
47.1128
 21
288.014
  0
LINE
  8
0
 10
47.1128
 20
288.014
 11
47.2518
 21
287.774
  0
LINE
  8
0
 10
47.2518
 20
287.774
 11
47.3
 21
287.5
  0
LINE
  8
0
 10
47.3
 20
287.5
 11
47.2518
 21
287.226
  0
LINE
  8
0
 10
47.2518
 20
287.226
 11
47.1128
 21
286.986
  0
LINE
  8
0
 10
47.1128
 20
286.986
 11
46.9
 21
286.807
  0
LINE
  8
0
 10
46.9
 20
286.807
 11
46.6389
 21
286.712
  0
LINE
  8
0
 10
46.6389
 20
286.712
 11
46.3611
 21
286.712
  0
LINE
  8
0
 10
22.3611
 20
286.712
 11
22.1
 21
286.807
  0
LINE
  8
0
 10
22.1
 20
286.807
 11
21.8872
 21
286.986
  0
LINE
  8
0
 10
21.8872
 20
286.986
 11
21.7482
 21
287.226
  0
LINE
  8
0
 10
21.7482
 20
287.226
 11
21.7
 21
287.5
  0
LINE
  8
0
 10
21.7
 20
287.5
 11
21.7482
 21
287.774
  0
LINE
  8
0
 10
21.7482
 20
287.774
 11
21.8872
 21
288.014
  0
LINE
  8
0
 10
21.8872
 20
288.014
 11
22.1
 21
288.193
  0
LINE
  8
0
 10
22.1
 20
288.193
 11
22.3611
 21
288.288
  0
LINE
  8
0
 10
22.3611
 20
288.288
 11
22.6389
 21
288.288
  0
LINE
  8
0
 10
22.6389
 20
288.288
 11
22.9
 21
288.193
  0
LINE
  8
0
 10
22.9
 20
288.193
 11
23.1128
 21
288.014
  0
LINE
  8
0
 10
23.1128
 20
288.014
 11
23.2518
 21
287.774
  0
LINE
  8
0
 10
23.2518
 20
287.774
 11
23.3
 21
287.5
  0
LINE
  8
0
 10
23.3
 20
287.5
 11
23.2518
 21
287.226
  0
LINE
  8
0
 10
23.2518
 20
287.226
 11
23.1128
 21
286.986
  0
LINE
  8
0
 10
23.1128
 20
286.986
 11
22.9
 21
286.807
  0
LINE
  8
0
 10
22.9
 20
286.807
 11
22.6389
 21
286.712
  0
LINE
  8
0
 10
22.6389
 20
286.712
 11
22.3611
 21
286.712
  0
LINE
  8
0
 10
42.3611
 20
279.712
 11
42.1
 21
279.807
  0
LINE
  8
0
 10
42.1
 20
279.807
 11
41.8872
 21
279.986
  0
LINE
  8
0
 10
41.8872
 20
279.986
 11
41.7482
 21
280.226
  0
LINE
  8
0
 10
41.7482
 20
280.226
 11
41.7
 21
280.5
  0
LINE
  8
0
 10
41.7
 20
280.5
 11
41.7482
 21
280.774
  0
LINE
  8
0
 10
41.7482
 20
280.774
 11
41.8872
 21
281.014
  0
LINE
  8
0
 10
41.8872
 20
281.014
 11
42.1
 21
281.193
  0
LINE
  8
0
 10
42.1
 20
281.193
 11
42.3611
 21
281.288
  0
LINE
  8
0
 10
42.3611
 20
281.288
 11
42.6389
 21
281.288
  0
LINE
  8
0
 10
42.6389
 20
281.288
 11
42.9
 21
281.193
  0
LINE
  8
0
 10
42.9
 20
281.193
 11
43.1128
 21
281.014
  0
LINE
  8
0
 10
43.1128
 20
281.014
 11
43.2518
 21
280.774
  0
LINE
  8
0
 10
43.2518
 20
280.774
 11
43.3
 21
280.5
  0
LINE
  8
0
 10
43.3
 20
280.5
 11
43.2518
 21
280.226
  0
LINE
  8
0
 10
43.2518
 20
280.226
 11
43.1128
 21
279.986
  0
LINE
  8
0
 10
43.1128
 20
279.986
 11
42.9
 21
279.807
  0
LINE
  8
0
 10
42.9
 20
279.807
 11
42.6389
 21
279.712
  0
LINE
  8
0
 10
42.6389
 20
279.712
 11
42.3611
 21
279.712
  0
LINE
  8
0
 10
18.3611
 20
279.712
 11
18.1
 21
279.807
  0
LINE
  8
0
 10
18.1
 20
279.807
 11
17.8872
 21
279.986
  0
LINE
  8
0
 10
17.8872
 20
279.986
 11
17.7482
 21
280.226
  0
LINE
  8
0
 10
17.7482
 20
280.226
 11
17.7
 21
280.5
  0
LINE
  8
0
 10
17.7
 20
280.5
 11
17.7482
 21
280.774
  0
LINE
  8
0
 10
17.7482
 20
280.774
 11
17.8872
 21
281.014
  0
LINE
  8
0
 10
17.8872
 20
281.014
 11
18.1
 21
281.193
  0
LINE
  8
0
 10
18.1
 20
281.193
 11
18.3611
 21
281.288
  0
LINE
  8
0
 10
18.3611
 20
281.288
 11
18.6389
 21
281.288
  0
LINE
  8
0
 10
18.6389
 20
281.288
 11
18.9
 21
281.193
  0
LINE
  8
0
 10
18.9
 20
281.193
 11
19.1128
 21
281.014
  0
LINE
  8
0
 10
19.1128
 20
281.014
 11
19.2518
 21
280.774
  0
LINE
  8
0
 10
19.2518
 20
280.774
 11
19.3
 21
280.5
  0
LINE
  8
0
 10
19.3
 20
280.5
 11
19.2518
 21
280.226
  0
LINE
  8
0
 10
19.2518
 20
280.226
 11
19.1128
 21
279.986
  0
LINE
  8
0
 10
19.1128
 20
279.986
 11
18.9
 21
279.807
  0
LINE
  8
0
 10
18.9
 20
279.807
 11
18.6389
 21
279.712
  0
LINE
  8
0
 10
18.6389
 20
279.712
 11
18.3611
 21
279.712
  0
LINE
  8
0
 10
42.3611
 20
265.712
 11
42.1
 21
265.807
  0
LINE
  8
0
 10
42.1
 20
265.807
 11
41.8872
 21
265.986
  0
LINE
  8
0
 10
41.8872
 20
265.986
 11
41.7482
 21
266.226
  0
LINE
  8
0
 10
41.7482
 20
266.226
 11
41.7
 21
266.5
  0
LINE
  8
0
 10
41.7
 20
266.5
 11
41.7482
 21
266.774
  0
LINE
  8
0
 10
41.7482
 20
266.774
 11
41.8872
 21
267.014
  0
LINE
  8
0
 10
41.8872
 20
267.014
 11
42.1
 21
267.193
  0
LINE
  8
0
 10
42.1
 20
267.193
 11
42.3611
 21
267.288
  0
LINE
  8
0
 10
42.3611
 20
267.288
 11
42.6389
 21
267.288
  0
LINE
  8
0
 10
42.6389
 20
267.288
 11
42.9
 21
267.193
  0
LINE
  8
0
 10
42.9
 20
267.193
 11
43.1128
 21
267.014
  0
LINE
  8
0
 10
43.1128
 20
267.014
 11
43.2518
 21
266.774
  0
LINE
  8
0
 10
43.2518
 20
266.774
 11
43.3
 21
266.5
  0
LINE
  8
0
 10
43.3
 20
266.5
 11
43.2518
 21
266.226
  0
LINE
  8
0
 10
43.2518
 20
266.226
 11
43.1128
 21
265.986
  0
LINE
  8
0
 10
43.1128
 20
265.986
 11
42.9
 21
265.807
  0
LINE
  8
0
 10
42.9
 20
265.807
 11
42.6389
 21
265.712
  0
LINE
  8
0
 10
42.6389
 20
265.712
 11
42.3611
 21
265.712
  0
LINE
  8
0
 10
18.3611
 20
265.712
 11
18.1
 21
265.807
  0
LINE
  8
0
 10
18.1
 20
265.807
 11
17.8872
 21
265.986
  0
LINE
  8
0
 10
17.8872
 20
265.986
 11
17.7482
 21
266.226
  0
LINE
  8
0
 10
17.7482
 20
266.226
 11
17.7
 21
266.5
  0
LINE
  8
0
 10
17.7
 20
266.5
 11
17.7482
 21
266.774
  0
LINE
  8
0
 10
17.7482
 20
266.774
 11
17.8872
 21
267.014
  0
LINE
  8
0
 10
17.8872
 20
267.014
 11
18.1
 21
267.193
  0
LINE
  8
0
 10
18.1
 20
267.193
 11
18.3611
 21
267.288
  0
LINE
  8
0
 10
18.3611
 20
267.288
 11
18.6389
 21
267.288
  0
LINE
  8
0
 10
18.6389
 20
267.288
 11
18.9
 21
267.193
  0
LINE
  8
0
 10
18.9
 20
267.193
 11
19.1128
 21
267.014
  0
LINE
  8
0
 10
19.1128
 20
267.014
 11
19.2518
 21
266.774
  0
LINE
  8
0
 10
19.2518
 20
266.774
 11
19.3
 21
266.5
  0
LINE
  8
0
 10
19.3
 20
266.5
 11
19.2518
 21
266.226
  0
LINE
  8
0
 10
19.2518
 20
266.226
 11
19.1128
 21
265.986
  0
LINE
  8
0
 10
19.1128
 20
265.986
 11
18.9
 21
265.807
  0
LINE
  8
0
 10
18.9
 20
265.807
 11
18.6389
 21
265.712
  0
LINE
  8
0
 10
18.6389
 20
265.712
 11
18.3611
 21
265.712
  0
LINE
  8
0
 10
42.3611
 20
251.712
 11
42.1
 21
251.807
  0
LINE
  8
0
 10
42.1
 20
251.807
 11
41.8872
 21
251.986
  0
LINE
  8
0
 10
41.8872
 20
251.986
 11
41.7482
 21
252.226
  0
LINE
  8
0
 10
41.7482
 20
252.226
 11
41.7
 21
252.5
  0
LINE
  8
0
 10
41.7
 20
252.5
 11
41.7482
 21
252.774
  0
LINE
  8
0
 10
41.7482
 20
252.774
 11
41.8872
 21
253.014
  0
LINE
  8
0
 10
41.8872
 20
253.014
 11
42.1
 21
253.193
  0
LINE
  8
0
 10
42.1
 20
253.193
 11
42.3611
 21
253.288
  0
LINE
  8
0
 10
42.3611
 20
253.288
 11
42.6389
 21
253.288
  0
LINE
  8
0
 10
42.6389
 20
253.288
 11
42.9
 21
253.193
  0
LINE
  8
0
 10
42.9
 20
253.193
 11
43.1128
 21
253.014
  0
LINE
  8
0
 10
43.1128
 20
253.014
 11
43.2518
 21
252.774
  0
LINE
  8
0
 10
43.2518
 20
252.774
 11
43.3
 21
252.5
  0
LINE
  8
0
 10
43.3
 20
252.5
 11
43.2518
 21
252.226
  0
LINE
  8
0
 10
43.2518
 20
252.226
 11
43.1128
 21
251.986
  0
LINE
  8
0
 10
43.1128
 20
251.986
 11
42.9
 21
251.807
  0
LINE
  8
0
 10
42.9
 20
251.807
 11
42.6389
 21
251.712
  0
LINE
  8
0
 10
42.6389
 20
251.712
 11
42.3611
 21
251.712
  0
LINE
  8
0
 10
18.3611
 20
251.712
 11
18.1
 21
251.807
  0
LINE
  8
0
 10
18.1
 20
251.807
 11
17.8872
 21
251.986
  0
LINE
  8
0
 10
17.8872
 20
251.986
 11
17.7482
 21
252.226
  0
LINE
  8
0
 10
17.7482
 20
252.226
 11
17.7
 21
252.5
  0
LINE
  8
0
 10
17.7
 20
252.5
 11
17.7482
 21
252.774
  0
LINE
  8
0
 10
17.7482
 20
252.774
 11
17.8872
 21
253.014
  0
LINE
  8
0
 10
17.8872
 20
253.014
 11
18.1
 21
253.193
  0
LINE
  8
0
 10
18.1
 20
253.193
 11
18.3611
 21
253.288
  0
LINE
  8
0
 10
18.3611
 20
253.288
 11
18.6389
 21
253.288
  0
LINE
  8
0
 10
18.6389
 20
253.288
 11
18.9
 21
253.193
  0
LINE
  8
0
 10
18.9
 20
253.193
 11
19.1128
 21
253.014
  0
LINE
  8
0
 10
19.1128
 20
253.014
 11
19.2518
 21
252.774
  0
LINE
  8
0
 10
19.2518
 20
252.774
 11
19.3
 21
252.5
  0
LINE
  8
0
 10
19.3
 20
252.5
 11
19.2518
 21
252.226
  0
LINE
  8
0
 10
19.2518
 20
252.226
 11
19.1128
 21
251.986
  0
LINE
  8
0
 10
19.1128
 20
251.986
 11
18.9
 21
251.807
  0
LINE
  8
0
 10
18.9
 20
251.807
 11
18.6389
 21
251.712
  0
LINE
  8
0
 10
18.6389
 20
251.712
 11
18.3611
 21
251.712
  0
LINE
  8
0
 10
48.3611
 20
237.712
 11
48.1
 21
237.807
  0
LINE
  8
0
 10
48.1
 20
237.807
 11
47.8872
 21
237.986
  0
LINE
  8
0
 10
47.8872
 20
237.986
 11
47.7482
 21
238.226
  0
LINE
  8
0
 10
47.7482
 20
238.226
 11
47.7
 21
238.5
  0
LINE
  8
0
 10
47.7
 20
238.5
 11
47.7482
 21
238.774
  0
LINE
  8
0
 10
47.7482
 20
238.774
 11
47.8872
 21
239.014
  0
LINE
  8
0
 10
47.8872
 20
239.014
 11
48.1
 21
239.193
  0
LINE
  8
0
 10
48.1
 20
239.193
 11
48.3611
 21
239.288
  0
LINE
  8
0
 10
48.3611
 20
239.288
 11
48.6389
 21
239.288
  0
LINE
  8
0
 10
48.6389
 20
239.288
 11
48.9
 21
239.193
  0
LINE
  8
0
 10
48.9
 20
239.193
 11
49.1128
 21
239.014
  0
LINE
  8
0
 10
49.1128
 20
239.014
 11
49.2518
 21
238.774
  0
LINE
  8
0
 10
49.2518
 20
238.774
 11
49.3
 21
238.5
  0
LINE
  8
0
 10
49.3
 20
238.5
 11
49.2518
 21
238.226
  0
LINE
  8
0
 10
49.2518
 20
238.226
 11
49.1128
 21
237.986
  0
LINE
  8
0
 10
49.1128
 20
237.986
 11
48.9
 21
237.807
  0
LINE
  8
0
 10
48.9
 20
237.807
 11
48.6389
 21
237.712
  0
LINE
  8
0
 10
48.6389
 20
237.712
 11
48.3611
 21
237.712
  0
LINE
  8
0
 10
24.3611
 20
237.712
 11
24.1
 21
237.807
  0
LINE
  8
0
 10
24.1
 20
237.807
 11
23.8872
 21
237.986
  0
LINE
  8
0
 10
23.8872
 20
237.986
 11
23.7482
 21
238.226
  0
LINE
  8
0
 10
23.7482
 20
238.226
 11
23.7
 21
238.5
  0
LINE
  8
0
 10
23.7
 20
238.5
 11
23.7482
 21
238.774
  0
LINE
  8
0
 10
23.7482
 20
238.774
 11
23.8872
 21
239.014
  0
LINE
  8
0
 10
23.8872
 20
239.014
 11
24.1
 21
239.193
  0
LINE
  8
0
 10
24.1
 20
239.193
 11
24.3611
 21
239.288
  0
LINE
  8
0
 10
24.3611
 20
239.288
 11
24.6389
 21
239.288
  0
LINE
  8
0
 10
24.6389
 20
239.288
 11
24.9
 21
239.193
  0
LINE
  8
0
 10
24.9
 20
239.193
 11
25.1128
 21
239.014
  0
LINE
  8
0
 10
25.1128
 20
239.014
 11
25.2518
 21
238.774
  0
LINE
  8
0
 10
25.2518
 20
238.774
 11
25.3
 21
238.5
  0
LINE
  8
0
 10
25.3
 20
238.5
 11
25.2518
 21
238.226
  0
LINE
  8
0
 10
25.2518
 20
238.226
 11
25.1128
 21
237.986
  0
LINE
  8
0
 10
25.1128
 20
237.986
 11
24.9
 21
237.807
  0
LINE
  8
0
 10
24.9
 20
237.807
 11
24.6389
 21
237.712
  0
LINE
  8
0
 10
24.6389
 20
237.712
 11
24.3611
 21
237.712
  0
LINE
  8
0
 10
18.3611
 20
230.712
 11
18.1
 21
230.807
  0
LINE
  8
0
 10
18.1
 20
230.807
 11
17.8872
 21
230.986
  0
LINE
  8
0
 10
17.8872
 20
230.986
 11
17.7482
 21
231.226
  0
LINE
  8
0
 10
17.7482
 20
231.226
 11
17.7
 21
231.5
  0
LINE
  8
0
 10
17.7
 20
231.5
 11
17.7482
 21
231.774
  0
LINE
  8
0
 10
17.7482
 20
231.774
 11
17.8872
 21
232.014
  0
LINE
  8
0
 10
17.8872
 20
232.014
 11
18.1
 21
232.193
  0
LINE
  8
0
 10
18.1
 20
232.193
 11
18.3611
 21
232.288
  0
LINE
  8
0
 10
18.3611
 20
232.288
 11
18.6389
 21
232.288
  0
LINE
  8
0
 10
18.6389
 20
232.288
 11
18.9
 21
232.193
  0
LINE
  8
0
 10
18.9
 20
232.193
 11
19.1128
 21
232.014
  0
LINE
  8
0
 10
19.1128
 20
232.014
 11
19.2518
 21
231.774
  0
LINE
  8
0
 10
19.2518
 20
231.774
 11
19.3
 21
231.5
  0
LINE
  8
0
 10
19.3
 20
231.5
 11
19.2518
 21
231.226
  0
LINE
  8
0
 10
19.2518
 20
231.226
 11
19.1128
 21
230.986
  0
LINE
  8
0
 10
19.1128
 20
230.986
 11
18.9
 21
230.807
  0
LINE
  8
0
 10
18.9
 20
230.807
 11
18.6389
 21
230.712
  0
LINE
  8
0
 10
18.6389
 20
230.712
 11
18.3611
 21
230.712
  0
LINE
  8
0
 10
42.3611
 20
230.712
 11
42.1
 21
230.807
  0
LINE
  8
0
 10
42.1
 20
230.807
 11
41.8872
 21
230.986
  0
LINE
  8
0
 10
41.8872
 20
230.986
 11
41.7482
 21
231.226
  0
LINE
  8
0
 10
41.7482
 20
231.226
 11
41.7
 21
231.5
  0
LINE
  8
0
 10
41.7
 20
231.5
 11
41.7482
 21
231.774
  0
LINE
  8
0
 10
41.7482
 20
231.774
 11
41.8872
 21
232.014
  0
LINE
  8
0
 10
41.8872
 20
232.014
 11
42.1
 21
232.193
  0
LINE
  8
0
 10
42.1
 20
232.193
 11
42.3611
 21
232.288
  0
LINE
  8
0
 10
42.3611
 20
232.288
 11
42.6389
 21
232.288
  0
LINE
  8
0
 10
42.6389
 20
232.288
 11
42.9
 21
232.193
  0
LINE
  8
0
 10
42.9
 20
232.193
 11
43.1128
 21
232.014
  0
LINE
  8
0
 10
43.1128
 20
232.014
 11
43.2518
 21
231.774
  0
LINE
  8
0
 10
43.2518
 20
231.774
 11
43.3
 21
231.5
  0
LINE
  8
0
 10
43.3
 20
231.5
 11
43.2518
 21
231.226
  0
LINE
  8
0
 10
43.2518
 20
231.226
 11
43.1128
 21
230.986
  0
LINE
  8
0
 10
43.1128
 20
230.986
 11
42.9
 21
230.807
  0
LINE
  8
0
 10
42.9
 20
230.807
 11
42.6389
 21
230.712
  0
LINE
  8
0
 10
42.6389
 20
230.712
 11
42.3611
 21
230.712
  0
LINE
  8
0
 10
38.3611
 20
223.712
 11
38.1
 21
223.807
  0
LINE
  8
0
 10
38.1
 20
223.807
 11
37.8872
 21
223.986
  0
LINE
  8
0
 10
37.8872
 20
223.986
 11
37.7482
 21
224.226
  0
LINE
  8
0
 10
37.7482
 20
224.226
 11
37.7
 21
224.5
  0
LINE
  8
0
 10
37.7
 20
224.5
 11
37.7482
 21
224.774
  0
LINE
  8
0
 10
37.7482
 20
224.774
 11
37.8872
 21
225.014
  0
LINE
  8
0
 10
37.8872
 20
225.014
 11
38.1
 21
225.193
  0
LINE
  8
0
 10
38.1
 20
225.193
 11
38.3611
 21
225.288
  0
LINE
  8
0
 10
38.3611
 20
225.288
 11
38.6389
 21
225.288
  0
LINE
  8
0
 10
38.6389
 20
225.288
 11
38.9
 21
225.193
  0
LINE
  8
0
 10
38.9
 20
225.193
 11
39.1128
 21
225.014
  0
LINE
  8
0
 10
39.1128
 20
225.014
 11
39.2518
 21
224.774
  0
LINE
  8
0
 10
39.2518
 20
224.774
 11
39.3
 21
224.5
  0
LINE
  8
0
 10
39.3
 20
224.5
 11
39.2518
 21
224.226
  0
LINE
  8
0
 10
39.2518
 20
224.226
 11
39.1128
 21
223.986
  0
LINE
  8
0
 10
39.1128
 20
223.986
 11
38.9
 21
223.807
  0
LINE
  8
0
 10
38.9
 20
223.807
 11
38.6389
 21
223.712
  0
LINE
  8
0
 10
38.6389
 20
223.712
 11
38.3611
 21
223.712
  0
LINE
  8
0
 10
14.3611
 20
223.712
 11
14.1
 21
223.807
  0
LINE
  8
0
 10
14.1
 20
223.807
 11
13.8872
 21
223.986
  0
LINE
  8
0
 10
13.8872
 20
223.986
 11
13.7482
 21
224.226
  0
LINE
  8
0
 10
13.7482
 20
224.226
 11
13.7
 21
224.5
  0
LINE
  8
0
 10
13.7
 20
224.5
 11
13.7482
 21
224.774
  0
LINE
  8
0
 10
13.7482
 20
224.774
 11
13.8872
 21
225.014
  0
LINE
  8
0
 10
13.8872
 20
225.014
 11
14.1
 21
225.193
  0
LINE
  8
0
 10
14.1
 20
225.193
 11
14.3611
 21
225.288
  0
LINE
  8
0
 10
14.3611
 20
225.288
 11
14.6389
 21
225.288
  0
LINE
  8
0
 10
14.6389
 20
225.288
 11
14.9
 21
225.193
  0
LINE
  8
0
 10
14.9
 20
225.193
 11
15.1128
 21
225.014
  0
LINE
  8
0
 10
15.1128
 20
225.014
 11
15.2517
 21
224.774
  0
LINE
  8
0
 10
15.2517
 20
224.774
 11
15.3
 21
224.5
  0
LINE
  8
0
 10
15.3
 20
224.5
 11
15.2517
 21
224.226
  0
LINE
  8
0
 10
15.2517
 20
224.226
 11
15.1128
 21
223.986
  0
LINE
  8
0
 10
15.1128
 20
223.986
 11
14.9
 21
223.807
  0
LINE
  8
0
 10
14.9
 20
223.807
 11
14.6389
 21
223.712
  0
LINE
  8
0
 10
14.6389
 20
223.712
 11
14.3611
 21
223.712
  0
LINE
  8
0
 10
38.3611
 20
209.712
 11
38.1
 21
209.807
  0
LINE
  8
0
 10
38.1
 20
209.807
 11
37.8872
 21
209.986
  0
LINE
  8
0
 10
37.8872
 20
209.986
 11
37.7482
 21
210.226
  0
LINE
  8
0
 10
37.7482
 20
210.226
 11
37.7
 21
210.5
  0
LINE
  8
0
 10
37.7
 20
210.5
 11
37.7482
 21
210.774
  0
LINE
  8
0
 10
37.7482
 20
210.774
 11
37.8872
 21
211.014
  0
LINE
  8
0
 10
37.8872
 20
211.014
 11
38.1
 21
211.193
  0
LINE
  8
0
 10
38.1
 20
211.193
 11
38.3611
 21
211.288
  0
LINE
  8
0
 10
38.3611
 20
211.288
 11
38.6389
 21
211.288
  0
LINE
  8
0
 10
38.6389
 20
211.288
 11
38.9
 21
211.193
  0
LINE
  8
0
 10
38.9
 20
211.193
 11
39.1128
 21
211.014
  0
LINE
  8
0
 10
39.1128
 20
211.014
 11
39.2518
 21
210.774
  0
LINE
  8
0
 10
39.2518
 20
210.774
 11
39.3
 21
210.5
  0
LINE
  8
0
 10
39.3
 20
210.5
 11
39.2518
 21
210.226
  0
LINE
  8
0
 10
39.2518
 20
210.226
 11
39.1128
 21
209.986
  0
LINE
  8
0
 10
39.1128
 20
209.986
 11
38.9
 21
209.807
  0
LINE
  8
0
 10
38.9
 20
209.807
 11
38.6389
 21
209.712
  0
LINE
  8
0
 10
38.6389
 20
209.712
 11
38.3611
 21
209.712
  0
LINE
  8
0
 10
14.3611
 20
209.712
 11
14.1
 21
209.807
  0
LINE
  8
0
 10
14.1
 20
209.807
 11
13.8872
 21
209.986
  0
LINE
  8
0
 10
13.8872
 20
209.986
 11
13.7482
 21
210.226
  0
LINE
  8
0
 10
13.7482
 20
210.226
 11
13.7
 21
210.5
  0
LINE
  8
0
 10
13.7
 20
210.5
 11
13.7482
 21
210.774
  0
LINE
  8
0
 10
13.7482
 20
210.774
 11
13.8872
 21
211.014
  0
LINE
  8
0
 10
13.8872
 20
211.014
 11
14.1
 21
211.193
  0
LINE
  8
0
 10
14.1
 20
211.193
 11
14.3611
 21
211.288
  0
LINE
  8
0
 10
14.3611
 20
211.288
 11
14.6389
 21
211.288
  0
LINE
  8
0
 10
14.6389
 20
211.288
 11
14.9
 21
211.193
  0
LINE
  8
0
 10
14.9
 20
211.193
 11
15.1128
 21
211.014
  0
LINE
  8
0
 10
15.1128
 20
211.014
 11
15.2517
 21
210.774
  0
LINE
  8
0
 10
15.2517
 20
210.774
 11
15.3
 21
210.5
  0
LINE
  8
0
 10
15.3
 20
210.5
 11
15.2517
 21
210.226
  0
LINE
  8
0
 10
15.2517
 20
210.226
 11
15.1128
 21
209.986
  0
LINE
  8
0
 10
15.1128
 20
209.986
 11
14.9
 21
209.807
  0
LINE
  8
0
 10
14.9
 20
209.807
 11
14.6389
 21
209.712
  0
LINE
  8
0
 10
14.6389
 20
209.712
 11
14.3611
 21
209.712
  0
LINE
  8
0
 10
38.3611
 20
195.712
 11
38.1
 21
195.807
  0
LINE
  8
0
 10
38.1
 20
195.807
 11
37.8872
 21
195.986
  0
LINE
  8
0
 10
37.8872
 20
195.986
 11
37.7482
 21
196.226
  0
LINE
  8
0
 10
37.7482
 20
196.226
 11
37.7
 21
196.5
  0
LINE
  8
0
 10
37.7
 20
196.5
 11
37.7482
 21
196.774
  0
LINE
  8
0
 10
37.7482
 20
196.774
 11
37.8872
 21
197.014
  0
LINE
  8
0
 10
37.8872
 20
197.014
 11
38.1
 21
197.193
  0
LINE
  8
0
 10
38.1
 20
197.193
 11
38.3611
 21
197.288
  0
LINE
  8
0
 10
38.3611
 20
197.288
 11
38.6389
 21
197.288
  0
LINE
  8
0
 10
38.6389
 20
197.288
 11
38.9
 21
197.193
  0
LINE
  8
0
 10
38.9
 20
197.193
 11
39.1128
 21
197.014
  0
LINE
  8
0
 10
39.1128
 20
197.014
 11
39.2518
 21
196.774
  0
LINE
  8
0
 10
39.2518
 20
196.774
 11
39.3
 21
196.5
  0
LINE
  8
0
 10
39.3
 20
196.5
 11
39.2518
 21
196.226
  0
LINE
  8
0
 10
39.2518
 20
196.226
 11
39.1128
 21
195.986
  0
LINE
  8
0
 10
39.1128
 20
195.986
 11
38.9
 21
195.807
  0
LINE
  8
0
 10
38.9
 20
195.807
 11
38.6389
 21
195.712
  0
LINE
  8
0
 10
38.6389
 20
195.712
 11
38.3611
 21
195.712
  0
LINE
  8
0
 10
14.3611
 20
195.712
 11
14.1
 21
195.807
  0
LINE
  8
0
 10
14.1
 20
195.807
 11
13.8872
 21
195.986
  0
LINE
  8
0
 10
13.8872
 20
195.986
 11
13.7482
 21
196.226
  0
LINE
  8
0
 10
13.7482
 20
196.226
 11
13.7
 21
196.5
  0
LINE
  8
0
 10
13.7
 20
196.5
 11
13.7482
 21
196.774
  0
LINE
  8
0
 10
13.7482
 20
196.774
 11
13.8872
 21
197.014
  0
LINE
  8
0
 10
13.8872
 20
197.014
 11
14.1
 21
197.193
  0
LINE
  8
0
 10
14.1
 20
197.193
 11
14.3611
 21
197.288
  0
LINE
  8
0
 10
14.3611
 20
197.288
 11
14.6389
 21
197.288
  0
LINE
  8
0
 10
14.6389
 20
197.288
 11
14.9
 21
197.193
  0
LINE
  8
0
 10
14.9
 20
197.193
 11
15.1128
 21
197.014
  0
LINE
  8
0
 10
15.1128
 20
197.014
 11
15.2517
 21
196.774
  0
LINE
  8
0
 10
15.2517
 20
196.774
 11
15.3
 21
196.5
  0
LINE
  8
0
 10
15.3
 20
196.5
 11
15.2517
 21
196.226
  0
LINE
  8
0
 10
15.2517
 20
196.226
 11
15.1128
 21
195.986
  0
LINE
  8
0
 10
15.1128
 20
195.986
 11
14.9
 21
195.807
  0
LINE
  8
0
 10
14.9
 20
195.807
 11
14.6389
 21
195.712
  0
LINE
  8
0
 10
14.6389
 20
195.712
 11
14.3611
 21
195.712
  0
LINE
  8
0
 10
24.3611
 20
181.712
 11
24.1
 21
181.807
  0
LINE
  8
0
 10
24.1
 20
181.807
 11
23.8872
 21
181.986
  0
LINE
  8
0
 10
23.8872
 20
181.986
 11
23.7482
 21
182.226
  0
LINE
  8
0
 10
23.7482
 20
182.226
 11
23.7
 21
182.5
  0
LINE
  8
0
 10
23.7
 20
182.5
 11
23.7482
 21
182.774
  0
LINE
  8
0
 10
23.7482
 20
182.774
 11
23.8872
 21
183.014
  0
LINE
  8
0
 10
23.8872
 20
183.014
 11
24.1
 21
183.193
  0
LINE
  8
0
 10
24.1
 20
183.193
 11
24.3611
 21
183.288
  0
LINE
  8
0
 10
24.3611
 20
183.288
 11
24.6389
 21
183.288
  0
LINE
  8
0
 10
24.6389
 20
183.288
 11
24.9
 21
183.193
  0
LINE
  8
0
 10
24.9
 20
183.193
 11
25.1128
 21
183.014
  0
LINE
  8
0
 10
25.1128
 20
183.014
 11
25.2518
 21
182.774
  0
LINE
  8
0
 10
25.2518
 20
182.774
 11
25.3
 21
182.5
  0
LINE
  8
0
 10
25.3
 20
182.5
 11
25.2518
 21
182.226
  0
LINE
  8
0
 10
25.2518
 20
182.226
 11
25.1128
 21
181.986
  0
LINE
  8
0
 10
25.1128
 20
181.986
 11
24.9
 21
181.807
  0
LINE
  8
0
 10
24.9
 20
181.807
 11
24.6389
 21
181.712
  0
LINE
  8
0
 10
24.6389
 20
181.712
 11
24.3611
 21
181.712
  0
LINE
  8
0
 10
48.3611
 20
181.712
 11
48.1
 21
181.807
  0
LINE
  8
0
 10
48.1
 20
181.807
 11
47.8872
 21
181.986
  0
LINE
  8
0
 10
47.8872
 20
181.986
 11
47.7482
 21
182.226
  0
LINE
  8
0
 10
47.7482
 20
182.226
 11
47.7
 21
182.5
  0
LINE
  8
0
 10
47.7
 20
182.5
 11
47.7482
 21
182.774
  0
LINE
  8
0
 10
47.7482
 20
182.774
 11
47.8872
 21
183.014
  0
LINE
  8
0
 10
47.8872
 20
183.014
 11
48.1
 21
183.193
  0
LINE
  8
0
 10
48.1
 20
183.193
 11
48.3611
 21
183.288
  0
LINE
  8
0
 10
48.3611
 20
183.288
 11
48.6389
 21
183.288
  0
LINE
  8
0
 10
48.6389
 20
183.288
 11
48.9
 21
183.193
  0
LINE
  8
0
 10
48.9
 20
183.193
 11
49.1128
 21
183.014
  0
LINE
  8
0
 10
49.1128
 20
183.014
 11
49.2518
 21
182.774
  0
LINE
  8
0
 10
49.2518
 20
182.774
 11
49.3
 21
182.5
  0
LINE
  8
0
 10
49.3
 20
182.5
 11
49.2518
 21
182.226
  0
LINE
  8
0
 10
49.2518
 20
182.226
 11
49.1128
 21
181.986
  0
LINE
  8
0
 10
49.1128
 20
181.986
 11
48.9
 21
181.807
  0
LINE
  8
0
 10
48.9
 20
181.807
 11
48.6389
 21
181.712
  0
LINE
  8
0
 10
48.6389
 20
181.712
 11
48.3611
 21
181.712
  0
LINE
  8
0
 10
42.3611
 20
174.712
 11
42.1
 21
174.807
  0
LINE
  8
0
 10
42.1
 20
174.807
 11
41.8872
 21
174.986
  0
LINE
  8
0
 10
41.8872
 20
174.986
 11
41.7482
 21
175.226
  0
LINE
  8
0
 10
41.7482
 20
175.226
 11
41.7
 21
175.5
  0
LINE
  8
0
 10
41.7
 20
175.5
 11
41.7482
 21
175.774
  0
LINE
  8
0
 10
41.7482
 20
175.774
 11
41.8872
 21
176.014
  0
LINE
  8
0
 10
41.8872
 20
176.014
 11
42.1
 21
176.193
  0
LINE
  8
0
 10
42.1
 20
176.193
 11
42.3611
 21
176.288
  0
LINE
  8
0
 10
42.3611
 20
176.288
 11
42.6389
 21
176.288
  0
LINE
  8
0
 10
42.6389
 20
176.288
 11
42.9
 21
176.193
  0
LINE
  8
0
 10
42.9
 20
176.193
 11
43.1128
 21
176.014
  0
LINE
  8
0
 10
43.1128
 20
176.014
 11
43.2518
 21
175.774
  0
LINE
  8
0
 10
43.2518
 20
175.774
 11
43.3
 21
175.5
  0
LINE
  8
0
 10
43.3
 20
175.5
 11
43.2518
 21
175.226
  0
LINE
  8
0
 10
43.2518
 20
175.226
 11
43.1128
 21
174.986
  0
LINE
  8
0
 10
43.1128
 20
174.986
 11
42.9
 21
174.807
  0
LINE
  8
0
 10
42.9
 20
174.807
 11
42.6389
 21
174.712
  0
LINE
  8
0
 10
42.6389
 20
174.712
 11
42.3611
 21
174.712
  0
LINE
  8
0
 10
18.3611
 20
174.712
 11
18.1
 21
174.807
  0
LINE
  8
0
 10
18.1
 20
174.807
 11
17.8872
 21
174.986
  0
LINE
  8
0
 10
17.8872
 20
174.986
 11
17.7482
 21
175.226
  0
LINE
  8
0
 10
17.7482
 20
175.226
 11
17.7
 21
175.5
  0
LINE
  8
0
 10
17.7
 20
175.5
 11
17.7482
 21
175.774
  0
LINE
  8
0
 10
17.7482
 20
175.774
 11
17.8872
 21
176.014
  0
LINE
  8
0
 10
17.8872
 20
176.014
 11
18.1
 21
176.193
  0
LINE
  8
0
 10
18.1
 20
176.193
 11
18.3611
 21
176.288
  0
LINE
  8
0
 10
18.3611
 20
176.288
 11
18.6389
 21
176.288
  0
LINE
  8
0
 10
18.6389
 20
176.288
 11
18.9
 21
176.193
  0
LINE
  8
0
 10
18.9
 20
176.193
 11
19.1128
 21
176.014
  0
LINE
  8
0
 10
19.1128
 20
176.014
 11
19.2518
 21
175.774
  0
LINE
  8
0
 10
19.2518
 20
175.774
 11
19.3
 21
175.5
  0
LINE
  8
0
 10
19.3
 20
175.5
 11
19.2518
 21
175.226
  0
LINE
  8
0
 10
19.2518
 20
175.226
 11
19.1128
 21
174.986
  0
LINE
  8
0
 10
19.1128
 20
174.986
 11
18.9
 21
174.807
  0
LINE
  8
0
 10
18.9
 20
174.807
 11
18.6389
 21
174.712
  0
LINE
  8
0
 10
18.6389
 20
174.712
 11
18.3611
 21
174.712
  0
LINE
  8
0
 10
14.3611
 20
167.712
 11
14.1
 21
167.807
  0
LINE
  8
0
 10
14.1
 20
167.807
 11
13.8872
 21
167.986
  0
LINE
  8
0
 10
13.8872
 20
167.986
 11
13.7482
 21
168.226
  0
LINE
  8
0
 10
13.7482
 20
168.226
 11
13.7
 21
168.5
  0
LINE
  8
0
 10
13.7
 20
168.5
 11
13.7482
 21
168.774
  0
LINE
  8
0
 10
13.7482
 20
168.774
 11
13.8872
 21
169.014
  0
LINE
  8
0
 10
13.8872
 20
169.014
 11
14.1
 21
169.193
  0
LINE
  8
0
 10
14.1
 20
169.193
 11
14.3611
 21
169.288
  0
LINE
  8
0
 10
14.3611
 20
169.288
 11
14.6389
 21
169.288
  0
LINE
  8
0
 10
14.6389
 20
169.288
 11
14.9
 21
169.193
  0
LINE
  8
0
 10
14.9
 20
169.193
 11
15.1128
 21
169.014
  0
LINE
  8
0
 10
15.1128
 20
169.014
 11
15.2517
 21
168.774
  0
LINE
  8
0
 10
15.2517
 20
168.774
 11
15.3
 21
168.5
  0
LINE
  8
0
 10
15.3
 20
168.5
 11
15.2517
 21
168.226
  0
LINE
  8
0
 10
15.2517
 20
168.226
 11
15.1128
 21
167.986
  0
LINE
  8
0
 10
15.1128
 20
167.986
 11
14.9
 21
167.807
  0
LINE
  8
0
 10
14.9
 20
167.807
 11
14.6389
 21
167.712
  0
LINE
  8
0
 10
14.6389
 20
167.712
 11
14.3611
 21
167.712
  0
LINE
  8
0
 10
38.3611
 20
167.712
 11
38.1
 21
167.807
  0
LINE
  8
0
 10
38.1
 20
167.807
 11
37.8872
 21
167.986
  0
LINE
  8
0
 10
37.8872
 20
167.986
 11
37.7482
 21
168.226
  0
LINE
  8
0
 10
37.7482
 20
168.226
 11
37.7
 21
168.5
  0
LINE
  8
0
 10
37.7
 20
168.5
 11
37.7482
 21
168.774
  0
LINE
  8
0
 10
37.7482
 20
168.774
 11
37.8872
 21
169.014
  0
LINE
  8
0
 10
37.8872
 20
169.014
 11
38.1
 21
169.193
  0
LINE
  8
0
 10
38.1
 20
169.193
 11
38.3611
 21
169.288
  0
LINE
  8
0
 10
38.3611
 20
169.288
 11
38.6389
 21
169.288
  0
LINE
  8
0
 10
38.6389
 20
169.288
 11
38.9
 21
169.193
  0
LINE
  8
0
 10
38.9
 20
169.193
 11
39.1128
 21
169.014
  0
LINE
  8
0
 10
39.1128
 20
169.014
 11
39.2518
 21
168.774
  0
LINE
  8
0
 10
39.2518
 20
168.774
 11
39.3
 21
168.5
  0
LINE
  8
0
 10
39.3
 20
168.5
 11
39.2518
 21
168.226
  0
LINE
  8
0
 10
39.2518
 20
168.226
 11
39.1128
 21
167.986
  0
LINE
  8
0
 10
39.1128
 20
167.986
 11
38.9
 21
167.807
  0
LINE
  8
0
 10
38.9
 20
167.807
 11
38.6389
 21
167.712
  0
LINE
  8
0
 10
38.6389
 20
167.712
 11
38.3611
 21
167.712
  0
LINE
  8
0
 10
38.3611
 20
153.712
 11
38.1
 21
153.807
  0
LINE
  8
0
 10
38.1
 20
153.807
 11
37.8872
 21
153.986
  0
LINE
  8
0
 10
37.8872
 20
153.986
 11
37.7482
 21
154.226
  0
LINE
  8
0
 10
37.7482
 20
154.226
 11
37.7
 21
154.5
  0
LINE
  8
0
 10
37.7
 20
154.5
 11
37.7482
 21
154.774
  0
LINE
  8
0
 10
37.7482
 20
154.774
 11
37.8872
 21
155.014
  0
LINE
  8
0
 10
37.8872
 20
155.014
 11
38.1
 21
155.193
  0
LINE
  8
0
 10
38.1
 20
155.193
 11
38.3611
 21
155.288
  0
LINE
  8
0
 10
38.3611
 20
155.288
 11
38.6389
 21
155.288
  0
LINE
  8
0
 10
38.6389
 20
155.288
 11
38.9
 21
155.193
  0
LINE
  8
0
 10
38.9
 20
155.193
 11
39.1128
 21
155.014
  0
LINE
  8
0
 10
39.1128
 20
155.014
 11
39.2518
 21
154.774
  0
LINE
  8
0
 10
39.2518
 20
154.774
 11
39.3
 21
154.5
  0
LINE
  8
0
 10
39.3
 20
154.5
 11
39.2518
 21
154.226
  0
LINE
  8
0
 10
39.2518
 20
154.226
 11
39.1128
 21
153.986
  0
LINE
  8
0
 10
39.1128
 20
153.986
 11
38.9
 21
153.807
  0
LINE
  8
0
 10
38.9
 20
153.807
 11
38.6389
 21
153.712
  0
LINE
  8
0
 10
38.6389
 20
153.712
 11
38.3611
 21
153.712
  0
LINE
  8
0
 10
14.3611
 20
153.712
 11
14.1
 21
153.807
  0
LINE
  8
0
 10
14.1
 20
153.807
 11
13.8872
 21
153.986
  0
LINE
  8
0
 10
13.8872
 20
153.986
 11
13.7482
 21
154.226
  0
LINE
  8
0
 10
13.7482
 20
154.226
 11
13.7
 21
154.5
  0
LINE
  8
0
 10
13.7
 20
154.5
 11
13.7482
 21
154.774
  0
LINE
  8
0
 10
13.7482
 20
154.774
 11
13.8872
 21
155.014
  0
LINE
  8
0
 10
13.8872
 20
155.014
 11
14.1
 21
155.193
  0
LINE
  8
0
 10
14.1
 20
155.193
 11
14.3611
 21
155.288
  0
LINE
  8
0
 10
14.3611
 20
155.288
 11
14.6389
 21
155.288
  0
LINE
  8
0
 10
14.6389
 20
155.288
 11
14.9
 21
155.193
  0
LINE
  8
0
 10
14.9
 20
155.193
 11
15.1128
 21
155.014
  0
LINE
  8
0
 10
15.1128
 20
155.014
 11
15.2517
 21
154.774
  0
LINE
  8
0
 10
15.2517
 20
154.774
 11
15.3
 21
154.5
  0
LINE
  8
0
 10
15.3
 20
154.5
 11
15.2517
 21
154.226
  0
LINE
  8
0
 10
15.2517
 20
154.226
 11
15.1128
 21
153.986
  0
LINE
  8
0
 10
15.1128
 20
153.986
 11
14.9
 21
153.807
  0
LINE
  8
0
 10
14.9
 20
153.807
 11
14.6389
 21
153.712
  0
LINE
  8
0
 10
14.6389
 20
153.712
 11
14.3611
 21
153.712
  0
LINE
  8
0
 10
38.3611
 20
139.712
 11
38.1
 21
139.807
  0
LINE
  8
0
 10
38.1
 20
139.807
 11
37.8872
 21
139.986
  0
LINE
  8
0
 10
37.8872
 20
139.986
 11
37.7482
 21
140.226
  0
LINE
  8
0
 10
37.7482
 20
140.226
 11
37.7
 21
140.5
  0
LINE
  8
0
 10
37.7
 20
140.5
 11
37.7482
 21
140.774
  0
LINE
  8
0
 10
37.7482
 20
140.774
 11
37.8872
 21
141.014
  0
LINE
  8
0
 10
37.8872
 20
141.014
 11
38.1
 21
141.193
  0
LINE
  8
0
 10
38.1
 20
141.193
 11
38.3611
 21
141.288
  0
LINE
  8
0
 10
38.3611
 20
141.288
 11
38.6389
 21
141.288
  0
LINE
  8
0
 10
38.6389
 20
141.288
 11
38.9
 21
141.193
  0
LINE
  8
0
 10
38.9
 20
141.193
 11
39.1128
 21
141.014
  0
LINE
  8
0
 10
39.1128
 20
141.014
 11
39.2518
 21
140.774
  0
LINE
  8
0
 10
39.2518
 20
140.774
 11
39.3
 21
140.5
  0
LINE
  8
0
 10
39.3
 20
140.5
 11
39.2518
 21
140.226
  0
LINE
  8
0
 10
39.2518
 20
140.226
 11
39.1128
 21
139.986
  0
LINE
  8
0
 10
39.1128
 20
139.986
 11
38.9
 21
139.807
  0
LINE
  8
0
 10
38.9
 20
139.807
 11
38.6389
 21
139.712
  0
LINE
  8
0
 10
38.6389
 20
139.712
 11
38.3611
 21
139.712
  0
LINE
  8
0
 10
14.3611
 20
139.712
 11
14.1
 21
139.807
  0
LINE
  8
0
 10
14.1
 20
139.807
 11
13.8872
 21
139.986
  0
LINE
  8
0
 10
13.8872
 20
139.986
 11
13.7482
 21
140.226
  0
LINE
  8
0
 10
13.7482
 20
140.226
 11
13.7
 21
140.5
  0
LINE
  8
0
 10
13.7
 20
140.5
 11
13.7482
 21
140.774
  0
LINE
  8
0
 10
13.7482
 20
140.774
 11
13.8872
 21
141.014
  0
LINE
  8
0
 10
13.8872
 20
141.014
 11
14.1
 21
141.193
  0
LINE
  8
0
 10
14.1
 20
141.193
 11
14.3611
 21
141.288
  0
LINE
  8
0
 10
14.3611
 20
141.288
 11
14.6389
 21
141.288
  0
LINE
  8
0
 10
14.6389
 20
141.288
 11
14.9
 21
141.193
  0
LINE
  8
0
 10
14.9
 20
141.193
 11
15.1128
 21
141.014
  0
LINE
  8
0
 10
15.1128
 20
141.014
 11
15.2517
 21
140.774
  0
LINE
  8
0
 10
15.2517
 20
140.774
 11
15.3
 21
140.5
  0
LINE
  8
0
 10
15.3
 20
140.5
 11
15.2517
 21
140.226
  0
LINE
  8
0
 10
15.2517
 20
140.226
 11
15.1128
 21
139.986
  0
LINE
  8
0
 10
15.1128
 20
139.986
 11
14.9
 21
139.807
  0
LINE
  8
0
 10
14.9
 20
139.807
 11
14.6389
 21
139.712
  0
LINE
  8
0
 10
14.6389
 20
139.712
 11
14.3611
 21
139.712
  0
LINE
  8
0
 10
32.3611
 20
90.7121
 11
32.1
 21
90.8072
  0
LINE
  8
0
 10
32.1
 20
90.8072
 11
31.8872
 21
90.9858
  0
LINE
  8
0
 10
31.8872
 20
90.9858
 11
31.7482
 21
91.2264
  0
LINE
  8
0
 10
31.7482
 20
91.2264
 11
31.7
 21
91.5
  0
LINE
  8
0
 10
31.7
 20
91.5
 11
31.7482
 21
91.7736
  0
LINE
  8
0
 10
31.7482
 20
91.7736
 11
31.8872
 21
92.0142
  0
LINE
  8
0
 10
31.8872
 20
92.0142
 11
32.1
 21
92.1928
  0
LINE
  8
0
 10
32.1
 20
92.1928
 11
32.3611
 21
92.2878
  0
LINE
  8
0
 10
32.3611
 20
92.2878
 11
32.6389
 21
92.2878
  0
LINE
  8
0
 10
32.6389
 20
92.2878
 11
32.9
 21
92.1928
  0
LINE
  8
0
 10
32.9
 20
92.1928
 11
33.1128
 21
92.0142
  0
LINE
  8
0
 10
33.1128
 20
92.0142
 11
33.2518
 21
91.7736
  0
LINE
  8
0
 10
33.2518
 20
91.7736
 11
33.3
 21
91.5
  0
LINE
  8
0
 10
33.3
 20
91.5
 11
33.2518
 21
91.2264
  0
LINE
  8
0
 10
33.2518
 20
91.2264
 11
33.1128
 21
90.9858
  0
LINE
  8
0
 10
33.1128
 20
90.9858
 11
32.9
 21
90.8072
  0
LINE
  8
0
 10
32.9
 20
90.8072
 11
32.6389
 21
90.7121
  0
LINE
  8
0
 10
32.6389
 20
90.7121
 11
32.3611
 21
90.7121
  0
LINE
  8
0
 10
52.3611
 20
90.7121
 11
52.1
 21
90.8072
  0
LINE
  8
0
 10
52.1
 20
90.8072
 11
51.8872
 21
90.9858
  0
LINE
  8
0
 10
51.8872
 20
90.9858
 11
51.7482
 21
91.2264
  0
LINE
  8
0
 10
51.7482
 20
91.2264
 11
51.7
 21
91.5
  0
LINE
  8
0
 10
51.7
 20
91.5
 11
51.7482
 21
91.7736
  0
LINE
  8
0
 10
51.7482
 20
91.7736
 11
51.8872
 21
92.0142
  0
LINE
  8
0
 10
51.8872
 20
92.0142
 11
52.1
 21
92.1928
  0
LINE
  8
0
 10
52.1
 20
92.1928
 11
52.3611
 21
92.2878
  0
LINE
  8
0
 10
52.3611
 20
92.2878
 11
52.6389
 21
92.2878
  0
LINE
  8
0
 10
52.6389
 20
92.2878
 11
52.9
 21
92.1928
  0
LINE
  8
0
 10
52.9
 20
92.1928
 11
53.1128
 21
92.0142
  0
LINE
  8
0
 10
53.1128
 20
92.0142
 11
53.2518
 21
91.7736
  0
LINE
  8
0
 10
53.2518
 20
91.7736
 11
53.3
 21
91.5
  0
LINE
  8
0
 10
53.3
 20
91.5
 11
53.2518
 21
91.2264
  0
LINE
  8
0
 10
53.2518
 20
91.2264
 11
53.1128
 21
90.9858
  0
LINE
  8
0
 10
53.1128
 20
90.9858
 11
52.9
 21
90.8072
  0
LINE
  8
0
 10
52.9
 20
90.8072
 11
52.6389
 21
90.7121
  0
LINE
  8
0
 10
52.6389
 20
90.7121
 11
52.3611
 21
90.7121
  0
LINE
  8
0
 10
48.3611
 20
76.7121
 11
48.1
 21
76.8072
  0
LINE
  8
0
 10
48.1
 20
76.8072
 11
47.8872
 21
76.9858
  0
LINE
  8
0
 10
47.8872
 20
76.9858
 11
47.7482
 21
77.2264
  0
LINE
  8
0
 10
47.7482
 20
77.2264
 11
47.7
 21
77.5
  0
LINE
  8
0
 10
47.7
 20
77.5
 11
47.7482
 21
77.7736
  0
LINE
  8
0
 10
47.7482
 20
77.7736
 11
47.8872
 21
78.0142
  0
LINE
  8
0
 10
47.8872
 20
78.0142
 11
48.1
 21
78.1928
  0
LINE
  8
0
 10
48.1
 20
78.1928
 11
48.3611
 21
78.2878
  0
LINE
  8
0
 10
48.3611
 20
78.2878
 11
48.6389
 21
78.2878
  0
LINE
  8
0
 10
48.6389
 20
78.2878
 11
48.9
 21
78.1928
  0
LINE
  8
0
 10
48.9
 20
78.1928
 11
49.1128
 21
78.0142
  0
LINE
  8
0
 10
49.1128
 20
78.0142
 11
49.2518
 21
77.7736
  0
LINE
  8
0
 10
49.2518
 20
77.7736
 11
49.3
 21
77.5
  0
LINE
  8
0
 10
49.3
 20
77.5
 11
49.2518
 21
77.2264
  0
LINE
  8
0
 10
49.2518
 20
77.2264
 11
49.1128
 21
76.9858
  0
LINE
  8
0
 10
49.1128
 20
76.9858
 11
48.9
 21
76.8072
  0
LINE
  8
0
 10
48.9
 20
76.8072
 11
48.6389
 21
76.7121
  0
LINE
  8
0
 10
48.6389
 20
76.7121
 11
48.3611
 21
76.7121
  0
LINE
  8
0
 10
24.3611
 20
76.7121
 11
24.1
 21
76.8072
  0
LINE
  8
0
 10
24.1
 20
76.8072
 11
23.8872
 21
76.9858
  0
LINE
  8
0
 10
23.8872
 20
76.9858
 11
23.7482
 21
77.2264
  0
LINE
  8
0
 10
23.7482
 20
77.2264
 11
23.7
 21
77.5
  0
LINE
  8
0
 10
23.7
 20
77.5
 11
23.7482
 21
77.7736
  0
LINE
  8
0
 10
23.7482
 20
77.7736
 11
23.8872
 21
78.0142
  0
LINE
  8
0
 10
23.8872
 20
78.0142
 11
24.1
 21
78.1928
  0
LINE
  8
0
 10
24.1
 20
78.1928
 11
24.3611
 21
78.2878
  0
LINE
  8
0
 10
24.3611
 20
78.2878
 11
24.6389
 21
78.2878
  0
LINE
  8
0
 10
24.6389
 20
78.2878
 11
24.9
 21
78.1928
  0
LINE
  8
0
 10
24.9
 20
78.1928
 11
25.1128
 21
78.0142
  0
LINE
  8
0
 10
25.1128
 20
78.0142
 11
25.2518
 21
77.7736
  0
LINE
  8
0
 10
25.2518
 20
77.7736
 11
25.3
 21
77.5
  0
LINE
  8
0
 10
25.3
 20
77.5
 11
25.2518
 21
77.2264
  0
LINE
  8
0
 10
25.2518
 20
77.2264
 11
25.1128
 21
76.9858
  0
LINE
  8
0
 10
25.1128
 20
76.9858
 11
24.9
 21
76.8072
  0
LINE
  8
0
 10
24.9
 20
76.8072
 11
24.6389
 21
76.7121
  0
LINE
  8
0
 10
24.6389
 20
76.7121
 11
24.3611
 21
76.7121
  0
LINE
  8
0
 10
22.3611
 20
62.7121
 11
22.1
 21
62.8072
  0
LINE
  8
0
 10
22.1
 20
62.8072
 11
21.8872
 21
62.9858
  0
LINE
  8
0
 10
21.8872
 20
62.9858
 11
21.7482
 21
63.2264
  0
LINE
  8
0
 10
21.7482
 20
63.2264
 11
21.7
 21
63.5
  0
LINE
  8
0
 10
21.7
 20
63.5
 11
21.7482
 21
63.7736
  0
LINE
  8
0
 10
21.7482
 20
63.7736
 11
21.8872
 21
64.0142
  0
LINE
  8
0
 10
21.8872
 20
64.0142
 11
22.1
 21
64.1928
  0
LINE
  8
0
 10
22.1
 20
64.1928
 11
22.3611
 21
64.2878
  0
LINE
  8
0
 10
22.3611
 20
64.2878
 11
22.6389
 21
64.2878
  0
LINE
  8
0
 10
22.6389
 20
64.2878
 11
22.9
 21
64.1928
  0
LINE
  8
0
 10
22.9
 20
64.1928
 11
23.1128
 21
64.0142
  0
LINE
  8
0
 10
23.1128
 20
64.0142
 11
23.2518
 21
63.7736
  0
LINE
  8
0
 10
23.2518
 20
63.7736
 11
23.3
 21
63.5
  0
LINE
  8
0
 10
23.3
 20
63.5
 11
23.2518
 21
63.2264
  0
LINE
  8
0
 10
23.2518
 20
63.2264
 11
23.1128
 21
62.9858
  0
LINE
  8
0
 10
23.1128
 20
62.9858
 11
22.9
 21
62.8072
  0
LINE
  8
0
 10
22.9
 20
62.8072
 11
22.6389
 21
62.7121
  0
LINE
  8
0
 10
22.6389
 20
62.7121
 11
22.3611
 21
62.7121
  0
LINE
  8
0
 10
46.3611
 20
62.7121
 11
46.1
 21
62.8072
  0
LINE
  8
0
 10
46.1
 20
62.8072
 11
45.8872
 21
62.9858
  0
LINE
  8
0
 10
45.8872
 20
62.9858
 11
45.7482
 21
63.2264
  0
LINE
  8
0
 10
45.7482
 20
63.2264
 11
45.7
 21
63.5
  0
LINE
  8
0
 10
45.7
 20
63.5
 11
45.7482
 21
63.7736
  0
LINE
  8
0
 10
45.7482
 20
63.7736
 11
45.8872
 21
64.0142
  0
LINE
  8
0
 10
45.8872
 20
64.0142
 11
46.1
 21
64.1928
  0
LINE
  8
0
 10
46.1
 20
64.1928
 11
46.3611
 21
64.2878
  0
LINE
  8
0
 10
46.3611
 20
64.2878
 11
46.6389
 21
64.2878
  0
LINE
  8
0
 10
46.6389
 20
64.2878
 11
46.9
 21
64.1928
  0
LINE
  8
0
 10
46.9
 20
64.1928
 11
47.1128
 21
64.0142
  0
LINE
  8
0
 10
47.1128
 20
64.0142
 11
47.2518
 21
63.7736
  0
LINE
  8
0
 10
47.2518
 20
63.7736
 11
47.3
 21
63.5
  0
LINE
  8
0
 10
47.3
 20
63.5
 11
47.2518
 21
63.2264
  0
LINE
  8
0
 10
47.2518
 20
63.2264
 11
47.1128
 21
62.9858
  0
LINE
  8
0
 10
47.1128
 20
62.9858
 11
46.9
 21
62.8072
  0
LINE
  8
0
 10
46.9
 20
62.8072
 11
46.6389
 21
62.7121
  0
LINE
  8
0
 10
46.6389
 20
62.7121
 11
46.3611
 21
62.7121
  0
LINE
  8
0
 10
42.3611
 20
55.7121
 11
42.1
 21
55.8072
  0
LINE
  8
0
 10
42.1
 20
55.8072
 11
41.8872
 21
55.9858
  0
LINE
  8
0
 10
41.8872
 20
55.9858
 11
41.7482
 21
56.2264
  0
LINE
  8
0
 10
41.7482
 20
56.2264
 11
41.7
 21
56.5
  0
LINE
  8
0
 10
41.7
 20
56.5
 11
41.7482
 21
56.7736
  0
LINE
  8
0
 10
41.7482
 20
56.7736
 11
41.8872
 21
57.0142
  0
LINE
  8
0
 10
41.8872
 20
57.0142
 11
42.1
 21
57.1928
  0
LINE
  8
0
 10
42.1
 20
57.1928
 11
42.3611
 21
57.2878
  0
LINE
  8
0
 10
42.3611
 20
57.2878
 11
42.6389
 21
57.2878
  0
LINE
  8
0
 10
42.6389
 20
57.2878
 11
42.9
 21
57.1928
  0
LINE
  8
0
 10
42.9
 20
57.1928
 11
43.1128
 21
57.0142
  0
LINE
  8
0
 10
43.1128
 20
57.0142
 11
43.2518
 21
56.7736
  0
LINE
  8
0
 10
43.2518
 20
56.7736
 11
43.3
 21
56.5
  0
LINE
  8
0
 10
43.3
 20
56.5
 11
43.2518
 21
56.2264
  0
LINE
  8
0
 10
43.2518
 20
56.2264
 11
43.1128
 21
55.9858
  0
LINE
  8
0
 10
43.1128
 20
55.9858
 11
42.9
 21
55.8072
  0
LINE
  8
0
 10
42.9
 20
55.8072
 11
42.6389
 21
55.7121
  0
LINE
  8
0
 10
42.6389
 20
55.7121
 11
42.3611
 21
55.7121
  0
LINE
  8
0
 10
18.3611
 20
55.7121
 11
18.1
 21
55.8072
  0
LINE
  8
0
 10
18.1
 20
55.8072
 11
17.8872
 21
55.9858
  0
LINE
  8
0
 10
17.8872
 20
55.9858
 11
17.7482
 21
56.2264
  0
LINE
  8
0
 10
17.7482
 20
56.2264
 11
17.7
 21
56.5
  0
LINE
  8
0
 10
17.7
 20
56.5
 11
17.7482
 21
56.7736
  0
LINE
  8
0
 10
17.7482
 20
56.7736
 11
17.8872
 21
57.0142
  0
LINE
  8
0
 10
17.8872
 20
57.0142
 11
18.1
 21
57.1928
  0
LINE
  8
0
 10
18.1
 20
57.1928
 11
18.3611
 21
57.2878
  0
LINE
  8
0
 10
18.3611
 20
57.2878
 11
18.6389
 21
57.2878
  0
LINE
  8
0
 10
18.6389
 20
57.2878
 11
18.9
 21
57.1928
  0
LINE
  8
0
 10
18.9
 20
57.1928
 11
19.1128
 21
57.0142
  0
LINE
  8
0
 10
19.1128
 20
57.0142
 11
19.2518
 21
56.7736
  0
LINE
  8
0
 10
19.2518
 20
56.7736
 11
19.3
 21
56.5
  0
LINE
  8
0
 10
19.3
 20
56.5
 11
19.2518
 21
56.2264
  0
LINE
  8
0
 10
19.2518
 20
56.2264
 11
19.1128
 21
55.9858
  0
LINE
  8
0
 10
19.1128
 20
55.9858
 11
18.9
 21
55.8072
  0
LINE
  8
0
 10
18.9
 20
55.8072
 11
18.6389
 21
55.7121
  0
LINE
  8
0
 10
18.6389
 20
55.7121
 11
18.3611
 21
55.7121
  0
LINE
  8
0
 10
42.3611
 20
41.7121
 11
42.1
 21
41.8072
  0
LINE
  8
0
 10
42.1
 20
41.8072
 11
41.8872
 21
41.9858
  0
LINE
  8
0
 10
41.8872
 20
41.9858
 11
41.7482
 21
42.2264
  0
LINE
  8
0
 10
41.7482
 20
42.2264
 11
41.7
 21
42.5
  0
LINE
  8
0
 10
41.7
 20
42.5
 11
41.7482
 21
42.7736
  0
LINE
  8
0
 10
41.7482
 20
42.7736
 11
41.8872
 21
43.0142
  0
LINE
  8
0
 10
41.8872
 20
43.0142
 11
42.1
 21
43.1928
  0
LINE
  8
0
 10
42.1
 20
43.1928
 11
42.3611
 21
43.2878
  0
LINE
  8
0
 10
42.3611
 20
43.2878
 11
42.6389
 21
43.2878
  0
LINE
  8
0
 10
42.6389
 20
43.2878
 11
42.9
 21
43.1928
  0
LINE
  8
0
 10
42.9
 20
43.1928
 11
43.1128
 21
43.0142
  0
LINE
  8
0
 10
43.1128
 20
43.0142
 11
43.2518
 21
42.7736
  0
LINE
  8
0
 10
43.2518
 20
42.7736
 11
43.3
 21
42.5
  0
LINE
  8
0
 10
43.3
 20
42.5
 11
43.2518
 21
42.2264
  0
LINE
  8
0
 10
43.2518
 20
42.2264
 11
43.1128
 21
41.9858
  0
LINE
  8
0
 10
43.1128
 20
41.9858
 11
42.9
 21
41.8072
  0
LINE
  8
0
 10
42.9
 20
41.8072
 11
42.6389
 21
41.7121
  0
LINE
  8
0
 10
42.6389
 20
41.7121
 11
42.3611
 21
41.7121
  0
LINE
  8
0
 10
18.3611
 20
41.7121
 11
18.1
 21
41.8072
  0
LINE
  8
0
 10
18.1
 20
41.8072
 11
17.8872
 21
41.9858
  0
LINE
  8
0
 10
17.8872
 20
41.9858
 11
17.7482
 21
42.2264
  0
LINE
  8
0
 10
17.7482
 20
42.2264
 11
17.7
 21
42.5
  0
LINE
  8
0
 10
17.7
 20
42.5
 11
17.7482
 21
42.7736
  0
LINE
  8
0
 10
17.7482
 20
42.7736
 11
17.8872
 21
43.0142
  0
LINE
  8
0
 10
17.8872
 20
43.0142
 11
18.1
 21
43.1928
  0
LINE
  8
0
 10
18.1
 20
43.1928
 11
18.3611
 21
43.2878
  0
LINE
  8
0
 10
18.3611
 20
43.2878
 11
18.6389
 21
43.2878
  0
LINE
  8
0
 10
18.6389
 20
43.2878
 11
18.9
 21
43.1928
  0
LINE
  8
0
 10
18.9
 20
43.1928
 11
19.1128
 21
43.0142
  0
LINE
  8
0
 10
19.1128
 20
43.0142
 11
19.2518
 21
42.7736
  0
LINE
  8
0
 10
19.2518
 20
42.7736
 11
19.3
 21
42.5
  0
LINE
  8
0
 10
19.3
 20
42.5
 11
19.2518
 21
42.2264
  0
LINE
  8
0
 10
19.2518
 20
42.2264
 11
19.1128
 21
41.9858
  0
LINE
  8
0
 10
19.1128
 20
41.9858
 11
18.9
 21
41.8072
  0
LINE
  8
0
 10
18.9
 20
41.8072
 11
18.6389
 21
41.7121
  0
LINE
  8
0
 10
18.6389
 20
41.7121
 11
18.3611
 21
41.7121
  0
LINE
  8
0
 10
18.3611
 20
27.7121
 11
18.1
 21
27.8072
  0
LINE
  8
0
 10
18.1
 20
27.8072
 11
17.8872
 21
27.9858
  0
LINE
  8
0
 10
17.8872
 20
27.9858
 11
17.7482
 21
28.2264
  0
LINE
  8
0
 10
17.7482
 20
28.2264
 11
17.7
 21
28.5
  0
LINE
  8
0
 10
17.7
 20
28.5
 11
17.7482
 21
28.7736
  0
LINE
  8
0
 10
17.7482
 20
28.7736
 11
17.8872
 21
29.0142
  0
LINE
  8
0
 10
17.8872
 20
29.0142
 11
18.1
 21
29.1928
  0
LINE
  8
0
 10
18.1
 20
29.1928
 11
18.3611
 21
29.2878
  0
LINE
  8
0
 10
18.3611
 20
29.2878
 11
18.6389
 21
29.2878
  0
LINE
  8
0
 10
18.6389
 20
29.2878
 11
18.9
 21
29.1928
  0
LINE
  8
0
 10
18.9
 20
29.1928
 11
19.1128
 21
29.0142
  0
LINE
  8
0
 10
19.1128
 20
29.0142
 11
19.2518
 21
28.7736
  0
LINE
  8
0
 10
19.2518
 20
28.7736
 11
19.3
 21
28.5
  0
LINE
  8
0
 10
19.3
 20
28.5
 11
19.2518
 21
28.2264
  0
LINE
  8
0
 10
19.2518
 20
28.2264
 11
19.1128
 21
27.9858
  0
LINE
  8
0
 10
19.1128
 20
27.9858
 11
18.9
 21
27.8072
  0
LINE
  8
0
 10
18.9
 20
27.8072
 11
18.6389
 21
27.7121
  0
LINE
  8
0
 10
18.6389
 20
27.7121
 11
18.3611
 21
27.7121
  0
LINE
  8
0
 10
42.3611
 20
27.7121
 11
42.1
 21
27.8072
  0
LINE
  8
0
 10
42.1
 20
27.8072
 11
41.8872
 21
27.9858
  0
LINE
  8
0
 10
41.8872
 20
27.9858
 11
41.7482
 21
28.2264
  0
LINE
  8
0
 10
41.7482
 20
28.2264
 11
41.7
 21
28.5
  0
LINE
  8
0
 10
41.7
 20
28.5
 11
41.7482
 21
28.7736
  0
LINE
  8
0
 10
41.7482
 20
28.7736
 11
41.8872
 21
29.0142
  0
LINE
  8
0
 10
41.8872
 20
29.0142
 11
42.1
 21
29.1928
  0
LINE
  8
0
 10
42.1
 20
29.1928
 11
42.3611
 21
29.2878
  0
LINE
  8
0
 10
42.3611
 20
29.2878
 11
42.6389
 21
29.2878
  0
LINE
  8
0
 10
42.6389
 20
29.2878
 11
42.9
 21
29.1928
  0
LINE
  8
0
 10
42.9
 20
29.1928
 11
43.1128
 21
29.0142
  0
LINE
  8
0
 10
43.1128
 20
29.0142
 11
43.2518
 21
28.7736
  0
LINE
  8
0
 10
43.2518
 20
28.7736
 11
43.3
 21
28.5
  0
LINE
  8
0
 10
43.3
 20
28.5
 11
43.2518
 21
28.2264
  0
LINE
  8
0
 10
43.2518
 20
28.2264
 11
43.1128
 21
27.9858
  0
LINE
  8
0
 10
43.1128
 20
27.9858
 11
42.9
 21
27.8072
  0
LINE
  8
0
 10
42.9
 20
27.8072
 11
42.6389
 21
27.7121
  0
LINE
  8
0
 10
42.6389
 20
27.7121
 11
42.3611
 21
27.7121
  0
LINE
  8
0
 10
48.3611
 20
13.7121
 11
48.1
 21
13.8072
  0
LINE
  8
0
 10
48.1
 20
13.8072
 11
47.8872
 21
13.9858
  0
LINE
  8
0
 10
47.8872
 20
13.9858
 11
47.7482
 21
14.2264
  0
LINE
  8
0
 10
47.7482
 20
14.2264
 11
47.7
 21
14.5
  0
LINE
  8
0
 10
47.7
 20
14.5
 11
47.7482
 21
14.7736
  0
LINE
  8
0
 10
47.7482
 20
14.7736
 11
47.8872
 21
15.0142
  0
LINE
  8
0
 10
47.8872
 20
15.0142
 11
48.1
 21
15.1928
  0
LINE
  8
0
 10
48.1
 20
15.1928
 11
48.3611
 21
15.2878
  0
LINE
  8
0
 10
48.3611
 20
15.2878
 11
48.6389
 21
15.2878
  0
LINE
  8
0
 10
48.6389
 20
15.2878
 11
48.9
 21
15.1928
  0
LINE
  8
0
 10
48.9
 20
15.1928
 11
49.1128
 21
15.0142
  0
LINE
  8
0
 10
49.1128
 20
15.0142
 11
49.2518
 21
14.7736
  0
LINE
  8
0
 10
49.2518
 20
14.7736
 11
49.3
 21
14.5
  0
LINE
  8
0
 10
49.3
 20
14.5
 11
49.2518
 21
14.2264
  0
LINE
  8
0
 10
49.2518
 20
14.2264
 11
49.1128
 21
13.9858
  0
LINE
  8
0
 10
49.1128
 20
13.9858
 11
48.9
 21
13.8072
  0
LINE
  8
0
 10
48.9
 20
13.8072
 11
48.6389
 21
13.7121
  0
LINE
  8
0
 10
48.6389
 20
13.7121
 11
48.3611
 21
13.7121
  0
LINE
  8
0
 10
24.3611
 20
13.7121
 11
24.1
 21
13.8072
  0
LINE
  8
0
 10
24.1
 20
13.8072
 11
23.8872
 21
13.9858
  0
LINE
  8
0
 10
23.8872
 20
13.9858
 11
23.7482
 21
14.2264
  0
LINE
  8
0
 10
23.7482
 20
14.2264
 11
23.7
 21
14.5
  0
LINE
  8
0
 10
23.7
 20
14.5
 11
23.7482
 21
14.7736
  0
LINE
  8
0
 10
23.7482
 20
14.7736
 11
23.8872
 21
15.0142
  0
LINE
  8
0
 10
23.8872
 20
15.0142
 11
24.1
 21
15.1928
  0
LINE
  8
0
 10
24.1
 20
15.1928
 11
24.3611
 21
15.2878
  0
LINE
  8
0
 10
24.3611
 20
15.2878
 11
24.6389
 21
15.2878
  0
LINE
  8
0
 10
24.6389
 20
15.2878
 11
24.9
 21
15.1928
  0
LINE
  8
0
 10
24.9
 20
15.1928
 11
25.1128
 21
15.0142
  0
LINE
  8
0
 10
25.1128
 20
15.0142
 11
25.2518
 21
14.7736
  0
LINE
  8
0
 10
25.2518
 20
14.7736
 11
25.3
 21
14.5
  0
LINE
  8
0
 10
25.3
 20
14.5
 11
25.2518
 21
14.2264
  0
LINE
  8
0
 10
25.2518
 20
14.2264
 11
25.1128
 21
13.9858
  0
LINE
  8
0
 10
25.1128
 20
13.9858
 11
24.9
 21
13.8072
  0
LINE
  8
0
 10
24.9
 20
13.8072
 11
24.6389
 21
13.7121
  0
LINE
  8
0
 10
24.6389
 20
13.7121
 11
24.3611
 21
13.7121
  0
LINE
  8
0
 10
42.3611
 20
6.71214
 11
42.1
 21
6.80717
  0
LINE
  8
0
 10
42.1
 20
6.80717
 11
41.8872
 21
6.98576
  0
LINE
  8
0
 10
41.8872
 20
6.98576
 11
41.7482
 21
7.22638
  0
LINE
  8
0
 10
41.7482
 20
7.22638
 11
41.7
 21
7.5
  0
LINE
  8
0
 10
41.7
 20
7.5
 11
41.7482
 21
7.77361
  0
LINE
  8
0
 10
41.7482
 20
7.77361
 11
41.8872
 21
8.01422
  0
LINE
  8
0
 10
41.8872
 20
8.01422
 11
42.1
 21
8.19281
  0
LINE
  8
0
 10
42.1
 20
8.19281
 11
42.3611
 21
8.28784
  0
LINE
  8
0
 10
42.3611
 20
8.28784
 11
42.6389
 21
8.28784
  0
LINE
  8
0
 10
42.6389
 20
8.28784
 11
42.9
 21
8.19281
  0
LINE
  8
0
 10
42.9
 20
8.19281
 11
43.1128
 21
8.01422
  0
LINE
  8
0
 10
43.1128
 20
8.01422
 11
43.2518
 21
7.77361
  0
LINE
  8
0
 10
43.2518
 20
7.77361
 11
43.3
 21
7.5
  0
LINE
  8
0
 10
43.3
 20
7.5
 11
43.2518
 21
7.22638
  0
LINE
  8
0
 10
43.2518
 20
7.22638
 11
43.1128
 21
6.98576
  0
LINE
  8
0
 10
43.1128
 20
6.98576
 11
42.9
 21
6.80717
  0
LINE
  8
0
 10
42.9
 20
6.80717
 11
42.6389
 21
6.71214
  0
LINE
  8
0
 10
42.6389
 20
6.71214
 11
42.3611
 21
6.71214
  0
LINE
  8
0
 10
18.3611
 20
6.71214
 11
18.1
 21
6.80717
  0
LINE
  8
0
 10
18.1
 20
6.80717
 11
17.8872
 21
6.98576
  0
LINE
  8
0
 10
17.8872
 20
6.98576
 11
17.7482
 21
7.22638
  0
LINE
  8
0
 10
17.7482
 20
7.22638
 11
17.7
 21
7.5
  0
LINE
  8
0
 10
17.7
 20
7.5
 11
17.7482
 21
7.77361
  0
LINE
  8
0
 10
17.7482
 20
7.77361
 11
17.8872
 21
8.01422
  0
LINE
  8
0
 10
17.8872
 20
8.01422
 11
18.1
 21
8.19281
  0
LINE
  8
0
 10
18.1
 20
8.19281
 11
18.3611
 21
8.28784
  0
LINE
  8
0
 10
18.3611
 20
8.28784
 11
18.6389
 21
8.28784
  0
LINE
  8
0
 10
18.6389
 20
8.28784
 11
18.9
 21
8.19281
  0
LINE
  8
0
 10
18.9
 20
8.19281
 11
19.1128
 21
8.01422
  0
LINE
  8
0
 10
19.1128
 20
8.01422
 11
19.2518
 21
7.77361
  0
LINE
  8
0
 10
19.2518
 20
7.77361
 11
19.3
 21
7.5
  0
LINE
  8
0
 10
19.3
 20
7.5
 11
19.2518
 21
7.22638
  0
LINE
  8
0
 10
19.2518
 20
7.22638
 11
19.1128
 21
6.98576
  0
LINE
  8
0
 10
19.1128
 20
6.98576
 11
18.9
 21
6.80717
  0
LINE
  8
0
 10
18.9
 20
6.80717
 11
18.6389
 21
6.71214
  0
LINE
  8
0
 10
18.6389
 20
6.71214
 11
18.3611
 21
6.71214
  0
ENDSEC
  0
SECTION
  2
OBJECTS
  0
DICTIONARY
  0
ENDSEC
  0
EOF
