  0
SECTION
  2
BLOCKS
  0
ENDSEC
  0
SECTION
  2
ENTITIES
  0
LINE
  8
0
 10
69
 20
650
 11
23.121
 21
650
  0
LINE
  8
0
 10
23.121
 20
650
 11
23.2518
 21
649.774
  0
LINE
  8
0
 10
23.2518
 20
649.774
 11
23.3
 21
649.5
  0
LINE
  8
0
 10
23.3
 20
649.5
 11
23.2518
 21
649.226
  0
LINE
  8
0
 10
23.2518
 20
649.226
 11
23.1128
 21
648.986
  0
LINE
  8
0
 10
23.1128
 20
648.986
 11
22.9
 21
648.807
  0
LINE
  8
0
 10
22.9
 20
648.807
 11
22.6389
 21
648.712
  0
LINE
  8
0
 10
22.6389
 20
648.712
 11
22.3611
 21
648.712
  0
LINE
  8
0
 10
22.3611
 20
648.712
 11
22.1
 21
648.807
  0
LINE
  8
0
 10
22.1
 20
648.807
 11
21.8872
 21
648.986
  0
LINE
  8
0
 10
21.8872
 20
648.986
 11
21.7482
 21
649.226
  0
LINE
  8
0
 10
21.7482
 20
649.226
 11
21.7
 21
649.5
  0
LINE
  8
0
 10
21.7
 20
649.5
 11
21.7482
 21
649.774
  0
LINE
  8
0
 10
21.7482
 20
649.774
 11
21.8789
 21
650
  0
LINE
  8
0
 10
21.8789
 20
650
 11
0
 21
650
  0
LINE
  8
0
 10
0
 20
650
 11
0
 21
0
  0
LINE
  8
0
 10
0
 20
0
 11
69
 21
0
  0
LINE
  8
0
 10
69
 20
0
 11
69
 21
650
  0
LINE
  8
0
 10
32.3611
 20
644.712
 11
32.1
 21
644.807
  0
LINE
  8
0
 10
32.1
 20
644.807
 11
31.8872
 21
644.986
  0
LINE
  8
0
 10
31.8872
 20
644.986
 11
31.7482
 21
645.226
  0
LINE
  8
0
 10
31.7482
 20
645.226
 11
31.7
 21
645.5
  0
LINE
  8
0
 10
31.7
 20
645.5
 11
31.7482
 21
645.774
  0
LINE
  8
0
 10
31.7482
 20
645.774
 11
31.8872
 21
646.014
  0
LINE
  8
0
 10
31.8872
 20
646.014
 11
32.1
 21
646.193
  0
LINE
  8
0
 10
32.1
 20
646.193
 11
32.3611
 21
646.288
  0
LINE
  8
0
 10
32.3611
 20
646.288
 11
32.6389
 21
646.288
  0
LINE
  8
0
 10
32.6389
 20
646.288
 11
32.9
 21
646.193
  0
LINE
  8
0
 10
32.9
 20
646.193
 11
33.1128
 21
646.014
  0
LINE
  8
0
 10
33.1128
 20
646.014
 11
33.2518
 21
645.774
  0
LINE
  8
0
 10
33.2518
 20
645.774
 11
33.3
 21
645.5
  0
LINE
  8
0
 10
33.3
 20
645.5
 11
33.2518
 21
645.226
  0
LINE
  8
0
 10
33.2518
 20
645.226
 11
33.1128
 21
644.986
  0
LINE
  8
0
 10
33.1128
 20
644.986
 11
32.9
 21
644.807
  0
LINE
  8
0
 10
32.9
 20
644.807
 11
32.6389
 21
644.712
  0
LINE
  8
0
 10
32.6389
 20
644.712
 11
32.3611
 21
644.712
  0
LINE
  8
0
 10
28.3611
 20
640.712
 11
28.1
 21
640.807
  0
LINE
  8
0
 10
28.1
 20
640.807
 11
27.8872
 21
640.986
  0
LINE
  8
0
 10
27.8872
 20
640.986
 11
27.7482
 21
641.226
  0
LINE
  8
0
 10
27.7482
 20
641.226
 11
27.7
 21
641.5
  0
LINE
  8
0
 10
27.7
 20
641.5
 11
27.7482
 21
641.774
  0
LINE
  8
0
 10
27.7482
 20
641.774
 11
27.8872
 21
642.014
  0
LINE
  8
0
 10
27.8872
 20
642.014
 11
28.1
 21
642.193
  0
LINE
  8
0
 10
28.1
 20
642.193
 11
28.3611
 21
642.288
  0
LINE
  8
0
 10
28.3611
 20
642.288
 11
28.6389
 21
642.288
  0
LINE
  8
0
 10
28.6389
 20
642.288
 11
28.9
 21
642.193
  0
LINE
  8
0
 10
28.9
 20
642.193
 11
29.1128
 21
642.014
  0
LINE
  8
0
 10
29.1128
 20
642.014
 11
29.2518
 21
641.774
  0
LINE
  8
0
 10
29.2518
 20
641.774
 11
29.3
 21
641.5
  0
LINE
  8
0
 10
29.3
 20
641.5
 11
29.2518
 21
641.226
  0
LINE
  8
0
 10
29.2518
 20
641.226
 11
29.1128
 21
640.986
  0
LINE
  8
0
 10
29.1128
 20
640.986
 11
28.9
 21
640.807
  0
LINE
  8
0
 10
28.9
 20
640.807
 11
28.6389
 21
640.712
  0
LINE
  8
0
 10
28.6389
 20
640.712
 11
28.3611
 21
640.712
  0
LINE
  8
0
 10
24.3611
 20
636.712
 11
24.1
 21
636.807
  0
LINE
  8
0
 10
24.1
 20
636.807
 11
23.8872
 21
636.986
  0
LINE
  8
0
 10
23.8872
 20
636.986
 11
23.7482
 21
637.226
  0
LINE
  8
0
 10
23.7482
 20
637.226
 11
23.7
 21
637.5
  0
LINE
  8
0
 10
23.7
 20
637.5
 11
23.7482
 21
637.774
  0
LINE
  8
0
 10
23.7482
 20
637.774
 11
23.8872
 21
638.014
  0
LINE
  8
0
 10
23.8872
 20
638.014
 11
24.1
 21
638.193
  0
LINE
  8
0
 10
24.1
 20
638.193
 11
24.3611
 21
638.288
  0
LINE
  8
0
 10
24.3611
 20
638.288
 11
24.6389
 21
638.288
  0
LINE
  8
0
 10
24.6389
 20
638.288
 11
24.9
 21
638.193
  0
LINE
  8
0
 10
24.9
 20
638.193
 11
25.1128
 21
638.014
  0
LINE
  8
0
 10
25.1128
 20
638.014
 11
25.2518
 21
637.774
  0
LINE
  8
0
 10
25.2518
 20
637.774
 11
25.3
 21
637.5
  0
LINE
  8
0
 10
25.3
 20
637.5
 11
25.2518
 21
637.226
  0
LINE
  8
0
 10
25.2518
 20
637.226
 11
25.1128
 21
636.986
  0
LINE
  8
0
 10
25.1128
 20
636.986
 11
24.9
 21
636.807
  0
LINE
  8
0
 10
24.9
 20
636.807
 11
24.6389
 21
636.712
  0
LINE
  8
0
 10
24.6389
 20
636.712
 11
24.3611
 21
636.712
  0
LINE
  8
0
 10
22.3611
 20
632.712
 11
22.1
 21
632.807
  0
LINE
  8
0
 10
22.1
 20
632.807
 11
21.8872
 21
632.986
  0
LINE
  8
0
 10
21.8872
 20
632.986
 11
21.7482
 21
633.226
  0
LINE
  8
0
 10
21.7482
 20
633.226
 11
21.7
 21
633.5
  0
LINE
  8
0
 10
21.7
 20
633.5
 11
21.7482
 21
633.774
  0
LINE
  8
0
 10
21.7482
 20
633.774
 11
21.8872
 21
634.014
  0
LINE
  8
0
 10
21.8872
 20
634.014
 11
22.1
 21
634.193
  0
LINE
  8
0
 10
22.1
 20
634.193
 11
22.3611
 21
634.288
  0
LINE
  8
0
 10
22.3611
 20
634.288
 11
22.6389
 21
634.288
  0
LINE
  8
0
 10
22.6389
 20
634.288
 11
22.9
 21
634.193
  0
LINE
  8
0
 10
22.9
 20
634.193
 11
23.1128
 21
634.014
  0
LINE
  8
0
 10
23.1128
 20
634.014
 11
23.2518
 21
633.774
  0
LINE
  8
0
 10
23.2518
 20
633.774
 11
23.3
 21
633.5
  0
LINE
  8
0
 10
23.3
 20
633.5
 11
23.2518
 21
633.226
  0
LINE
  8
0
 10
23.2518
 20
633.226
 11
23.1128
 21
632.986
  0
LINE
  8
0
 10
23.1128
 20
632.986
 11
22.9
 21
632.807
  0
LINE
  8
0
 10
22.9
 20
632.807
 11
22.6389
 21
632.712
  0
LINE
  8
0
 10
22.6389
 20
632.712
 11
22.3611
 21
632.712
  0
LINE
  8
0
 10
32.3611
 20
628.712
 11
32.1
 21
628.807
  0
LINE
  8
0
 10
32.1
 20
628.807
 11
31.8872
 21
628.986
  0
LINE
  8
0
 10
31.8872
 20
628.986
 11
31.7482
 21
629.226
  0
LINE
  8
0
 10
31.7482
 20
629.226
 11
31.7
 21
629.5
  0
LINE
  8
0
 10
31.7
 20
629.5
 11
31.7482
 21
629.774
  0
LINE
  8
0
 10
31.7482
 20
629.774
 11
31.8872
 21
630.014
  0
LINE
  8
0
 10
31.8872
 20
630.014
 11
32.1
 21
630.193
  0
LINE
  8
0
 10
32.1
 20
630.193
 11
32.3611
 21
630.288
  0
LINE
  8
0
 10
32.3611
 20
630.288
 11
32.6389
 21
630.288
  0
LINE
  8
0
 10
32.6389
 20
630.288
 11
32.9
 21
630.193
  0
LINE
  8
0
 10
32.9
 20
630.193
 11
33.1128
 21
630.014
  0
LINE
  8
0
 10
33.1128
 20
630.014
 11
33.2518
 21
629.774
  0
LINE
  8
0
 10
33.2518
 20
629.774
 11
33.3
 21
629.5
  0
LINE
  8
0
 10
33.3
 20
629.5
 11
33.2518
 21
629.226
  0
LINE
  8
0
 10
33.2518
 20
629.226
 11
33.1128
 21
628.986
  0
LINE
  8
0
 10
33.1128
 20
628.986
 11
32.9
 21
628.807
  0
LINE
  8
0
 10
32.9
 20
628.807
 11
32.6389
 21
628.712
  0
LINE
  8
0
 10
32.6389
 20
628.712
 11
32.3611
 21
628.712
  0
LINE
  8
0
 10
28.3611
 20
612.712
 11
28.1
 21
612.807
  0
LINE
  8
0
 10
28.1
 20
612.807
 11
27.8872
 21
612.986
  0
LINE
  8
0
 10
27.8872
 20
612.986
 11
27.7482
 21
613.226
  0
LINE
  8
0
 10
27.7482
 20
613.226
 11
27.7
 21
613.5
  0
LINE
  8
0
 10
27.7
 20
613.5
 11
27.7482
 21
613.774
  0
LINE
  8
0
 10
27.7482
 20
613.774
 11
27.8872
 21
614.014
  0
LINE
  8
0
 10
27.8872
 20
614.014
 11
28.1
 21
614.193
  0
LINE
  8
0
 10
28.1
 20
614.193
 11
28.3611
 21
614.288
  0
LINE
  8
0
 10
28.3611
 20
614.288
 11
28.6389
 21
614.288
  0
LINE
  8
0
 10
28.6389
 20
614.288
 11
28.9
 21
614.193
  0
LINE
  8
0
 10
28.9
 20
614.193
 11
29.1128
 21
614.014
  0
LINE
  8
0
 10
29.1128
 20
614.014
 11
29.2518
 21
613.774
  0
LINE
  8
0
 10
29.2518
 20
613.774
 11
29.3
 21
613.5
  0
LINE
  8
0
 10
29.3
 20
613.5
 11
29.2518
 21
613.226
  0
LINE
  8
0
 10
29.2518
 20
613.226
 11
29.1128
 21
612.986
  0
LINE
  8
0
 10
29.1128
 20
612.986
 11
28.9
 21
612.807
  0
LINE
  8
0
 10
28.9
 20
612.807
 11
28.6389
 21
612.712
  0
LINE
  8
0
 10
28.6389
 20
612.712
 11
28.3611
 21
612.712
  0
LINE
  8
0
 10
24.3611
 20
600.712
 11
24.1
 21
600.807
  0
LINE
  8
0
 10
24.1
 20
600.807
 11
23.8872
 21
600.986
  0
LINE
  8
0
 10
23.8872
 20
600.986
 11
23.7482
 21
601.226
  0
LINE
  8
0
 10
23.7482
 20
601.226
 11
23.7
 21
601.5
  0
LINE
  8
0
 10
23.7
 20
601.5
 11
23.7482
 21
601.774
  0
LINE
  8
0
 10
23.7482
 20
601.774
 11
23.8872
 21
602.014
  0
LINE
  8
0
 10
23.8872
 20
602.014
 11
24.1
 21
602.193
  0
LINE
  8
0
 10
24.1
 20
602.193
 11
24.3611
 21
602.288
  0
LINE
  8
0
 10
24.3611
 20
602.288
 11
24.6389
 21
602.288
  0
LINE
  8
0
 10
24.6389
 20
602.288
 11
24.9
 21
602.193
  0
LINE
  8
0
 10
24.9
 20
602.193
 11
25.1128
 21
602.014
  0
LINE
  8
0
 10
25.1128
 20
602.014
 11
25.2518
 21
601.774
  0
LINE
  8
0
 10
25.2518
 20
601.774
 11
25.3
 21
601.5
  0
LINE
  8
0
 10
25.3
 20
601.5
 11
25.2518
 21
601.226
  0
LINE
  8
0
 10
25.2518
 20
601.226
 11
25.1128
 21
600.986
  0
LINE
  8
0
 10
25.1128
 20
600.986
 11
24.9
 21
600.807
  0
LINE
  8
0
 10
24.9
 20
600.807
 11
24.6389
 21
600.712
  0
LINE
  8
0
 10
24.6389
 20
600.712
 11
24.3611
 21
600.712
  0
LINE
  8
0
 10
24.3611
 20
596.712
 11
24.1
 21
596.807
  0
LINE
  8
0
 10
24.1
 20
596.807
 11
23.8872
 21
596.986
  0
LINE
  8
0
 10
23.8872
 20
596.986
 11
23.7482
 21
597.226
  0
LINE
  8
0
 10
23.7482
 20
597.226
 11
23.7
 21
597.5
  0
LINE
  8
0
 10
23.7
 20
597.5
 11
23.7482
 21
597.774
  0
LINE
  8
0
 10
23.7482
 20
597.774
 11
23.8872
 21
598.014
  0
LINE
  8
0
 10
23.8872
 20
598.014
 11
24.1
 21
598.193
  0
LINE
  8
0
 10
24.1
 20
598.193
 11
24.3611
 21
598.288
  0
LINE
  8
0
 10
24.3611
 20
598.288
 11
24.6389
 21
598.288
  0
LINE
  8
0
 10
24.6389
 20
598.288
 11
24.9
 21
598.193
  0
LINE
  8
0
 10
24.9
 20
598.193
 11
25.1128
 21
598.014
  0
LINE
  8
0
 10
25.1128
 20
598.014
 11
25.2518
 21
597.774
  0
LINE
  8
0
 10
25.2518
 20
597.774
 11
25.3
 21
597.5
  0
LINE
  8
0
 10
25.3
 20
597.5
 11
25.2518
 21
597.226
  0
LINE
  8
0
 10
25.2518
 20
597.226
 11
25.1128
 21
596.986
  0
LINE
  8
0
 10
25.1128
 20
596.986
 11
24.9
 21
596.807
  0
LINE
  8
0
 10
24.9
 20
596.807
 11
24.6389
 21
596.712
  0
LINE
  8
0
 10
24.6389
 20
596.712
 11
24.3611
 21
596.712
  0
LINE
  8
0
 10
22.3611
 20
584.712
 11
22.1
 21
584.807
  0
LINE
  8
0
 10
22.1
 20
584.807
 11
21.8872
 21
584.986
  0
LINE
  8
0
 10
21.8872
 20
584.986
 11
21.7482
 21
585.226
  0
LINE
  8
0
 10
21.7482
 20
585.226
 11
21.7
 21
585.5
  0
LINE
  8
0
 10
21.7
 20
585.5
 11
21.7482
 21
585.774
  0
LINE
  8
0
 10
21.7482
 20
585.774
 11
21.8872
 21
586.014
  0
LINE
  8
0
 10
21.8872
 20
586.014
 11
22.1
 21
586.193
  0
LINE
  8
0
 10
22.1
 20
586.193
 11
22.3611
 21
586.288
  0
LINE
  8
0
 10
22.3611
 20
586.288
 11
22.6389
 21
586.288
  0
LINE
  8
0
 10
22.6389
 20
586.288
 11
22.9
 21
586.193
  0
LINE
  8
0
 10
22.9
 20
586.193
 11
23.1128
 21
586.014
  0
LINE
  8
0
 10
23.1128
 20
586.014
 11
23.2518
 21
585.774
  0
LINE
  8
0
 10
23.2518
 20
585.774
 11
23.3
 21
585.5
  0
LINE
  8
0
 10
23.3
 20
585.5
 11
23.2518
 21
585.226
  0
LINE
  8
0
 10
23.2518
 20
585.226
 11
23.1128
 21
584.986
  0
LINE
  8
0
 10
23.1128
 20
584.986
 11
22.9
 21
584.807
  0
LINE
  8
0
 10
22.9
 20
584.807
 11
22.6389
 21
584.712
  0
LINE
  8
0
 10
22.6389
 20
584.712
 11
22.3611
 21
584.712
  0
LINE
  8
0
 10
22.3611
 20
580.712
 11
22.1
 21
580.807
  0
LINE
  8
0
 10
22.1
 20
580.807
 11
21.8872
 21
580.986
  0
LINE
  8
0
 10
21.8872
 20
580.986
 11
21.7482
 21
581.226
  0
LINE
  8
0
 10
21.7482
 20
581.226
 11
21.7
 21
581.5
  0
LINE
  8
0
 10
21.7
 20
581.5
 11
21.7482
 21
581.774
  0
LINE
  8
0
 10
21.7482
 20
581.774
 11
21.8872
 21
582.014
  0
LINE
  8
0
 10
21.8872
 20
582.014
 11
22.1
 21
582.193
  0
LINE
  8
0
 10
22.1
 20
582.193
 11
22.3611
 21
582.288
  0
LINE
  8
0
 10
22.3611
 20
582.288
 11
22.6389
 21
582.288
  0
LINE
  8
0
 10
22.6389
 20
582.288
 11
22.9
 21
582.193
  0
LINE
  8
0
 10
22.9
 20
582.193
 11
23.1128
 21
582.014
  0
LINE
  8
0
 10
23.1128
 20
582.014
 11
23.2518
 21
581.774
  0
LINE
  8
0
 10
23.2518
 20
581.774
 11
23.3
 21
581.5
  0
LINE
  8
0
 10
23.3
 20
581.5
 11
23.2518
 21
581.226
  0
LINE
  8
0
 10
23.2518
 20
581.226
 11
23.1128
 21
580.986
  0
LINE
  8
0
 10
23.1128
 20
580.986
 11
22.9
 21
580.807
  0
LINE
  8
0
 10
22.9
 20
580.807
 11
22.6389
 21
580.712
  0
LINE
  8
0
 10
22.6389
 20
580.712
 11
22.3611
 21
580.712
  0
LINE
  8
0
 10
22.3611
 20
576.712
 11
22.1
 21
576.807
  0
LINE
  8
0
 10
22.1
 20
576.807
 11
21.8872
 21
576.986
  0
LINE
  8
0
 10
21.8872
 20
576.986
 11
21.7482
 21
577.226
  0
LINE
  8
0
 10
21.7482
 20
577.226
 11
21.7
 21
577.5
  0
LINE
  8
0
 10
21.7
 20
577.5
 11
21.7482
 21
577.774
  0
LINE
  8
0
 10
21.7482
 20
577.774
 11
21.8872
 21
578.014
  0
LINE
  8
0
 10
21.8872
 20
578.014
 11
22.1
 21
578.193
  0
LINE
  8
0
 10
22.1
 20
578.193
 11
22.3611
 21
578.288
  0
LINE
  8
0
 10
22.3611
 20
578.288
 11
22.6389
 21
578.288
  0
LINE
  8
0
 10
22.6389
 20
578.288
 11
22.9
 21
578.193
  0
LINE
  8
0
 10
22.9
 20
578.193
 11
23.1128
 21
578.014
  0
LINE
  8
0
 10
23.1128
 20
578.014
 11
23.2518
 21
577.774
  0
LINE
  8
0
 10
23.2518
 20
577.774
 11
23.3
 21
577.5
  0
LINE
  8
0
 10
23.3
 20
577.5
 11
23.2518
 21
577.226
  0
LINE
  8
0
 10
23.2518
 20
577.226
 11
23.1128
 21
576.986
  0
LINE
  8
0
 10
23.1128
 20
576.986
 11
22.9
 21
576.807
  0
LINE
  8
0
 10
22.9
 20
576.807
 11
22.6389
 21
576.712
  0
LINE
  8
0
 10
22.6389
 20
576.712
 11
22.3611
 21
576.712
  0
LINE
  8
0
 10
22.3611
 20
572.712
 11
22.1
 21
572.807
  0
LINE
  8
0
 10
22.1
 20
572.807
 11
21.8872
 21
572.986
  0
LINE
  8
0
 10
21.8872
 20
572.986
 11
21.7482
 21
573.226
  0
LINE
  8
0
 10
21.7482
 20
573.226
 11
21.7
 21
573.5
  0
LINE
  8
0
 10
21.7
 20
573.5
 11
21.7482
 21
573.774
  0
LINE
  8
0
 10
21.7482
 20
573.774
 11
21.8872
 21
574.014
  0
LINE
  8
0
 10
21.8872
 20
574.014
 11
22.1
 21
574.193
  0
LINE
  8
0
 10
22.1
 20
574.193
 11
22.3611
 21
574.288
  0
LINE
  8
0
 10
22.3611
 20
574.288
 11
22.6389
 21
574.288
  0
LINE
  8
0
 10
22.6389
 20
574.288
 11
22.9
 21
574.193
  0
LINE
  8
0
 10
22.9
 20
574.193
 11
23.1128
 21
574.014
  0
LINE
  8
0
 10
23.1128
 20
574.014
 11
23.2518
 21
573.774
  0
LINE
  8
0
 10
23.2518
 20
573.774
 11
23.3
 21
573.5
  0
LINE
  8
0
 10
23.3
 20
573.5
 11
23.2518
 21
573.226
  0
LINE
  8
0
 10
23.2518
 20
573.226
 11
23.1128
 21
572.986
  0
LINE
  8
0
 10
23.1128
 20
572.986
 11
22.9
 21
572.807
  0
LINE
  8
0
 10
22.9
 20
572.807
 11
22.6389
 21
572.712
  0
LINE
  8
0
 10
22.6389
 20
572.712
 11
22.3611
 21
572.712
  0
LINE
  8
0
 10
22.3611
 20
568.712
 11
22.1
 21
568.807
  0
LINE
  8
0
 10
22.1
 20
568.807
 11
21.8872
 21
568.986
  0
LINE
  8
0
 10
21.8872
 20
568.986
 11
21.7482
 21
569.226
  0
LINE
  8
0
 10
21.7482
 20
569.226
 11
21.7
 21
569.5
  0
LINE
  8
0
 10
21.7
 20
569.5
 11
21.7482
 21
569.774
  0
LINE
  8
0
 10
21.7482
 20
569.774
 11
21.8872
 21
570.014
  0
LINE
  8
0
 10
21.8872
 20
570.014
 11
22.1
 21
570.193
  0
LINE
  8
0
 10
22.1
 20
570.193
 11
22.3611
 21
570.288
  0
LINE
  8
0
 10
22.3611
 20
570.288
 11
22.6389
 21
570.288
  0
LINE
  8
0
 10
22.6389
 20
570.288
 11
22.9
 21
570.193
  0
LINE
  8
0
 10
22.9
 20
570.193
 11
23.1128
 21
570.014
  0
LINE
  8
0
 10
23.1128
 20
570.014
 11
23.2518
 21
569.774
  0
LINE
  8
0
 10
23.2518
 20
569.774
 11
23.3
 21
569.5
  0
LINE
  8
0
 10
23.3
 20
569.5
 11
23.2518
 21
569.226
  0
LINE
  8
0
 10
23.2518
 20
569.226
 11
23.1128
 21
568.986
  0
LINE
  8
0
 10
23.1128
 20
568.986
 11
22.9
 21
568.807
  0
LINE
  8
0
 10
22.9
 20
568.807
 11
22.6389
 21
568.712
  0
LINE
  8
0
 10
22.6389
 20
568.712
 11
22.3611
 21
568.712
  0
LINE
  8
0
 10
22.3611
 20
564.712
 11
22.1
 21
564.807
  0
LINE
  8
0
 10
22.1
 20
564.807
 11
21.8872
 21
564.986
  0
LINE
  8
0
 10
21.8872
 20
564.986
 11
21.7482
 21
565.226
  0
LINE
  8
0
 10
21.7482
 20
565.226
 11
21.7
 21
565.5
  0
LINE
  8
0
 10
21.7
 20
565.5
 11
21.7482
 21
565.774
  0
LINE
  8
0
 10
21.7482
 20
565.774
 11
21.8872
 21
566.014
  0
LINE
  8
0
 10
21.8872
 20
566.014
 11
22.1
 21
566.193
  0
LINE
  8
0
 10
22.1
 20
566.193
 11
22.3611
 21
566.288
  0
LINE
  8
0
 10
22.3611
 20
566.288
 11
22.6389
 21
566.288
  0
LINE
  8
0
 10
22.6389
 20
566.288
 11
22.9
 21
566.193
  0
LINE
  8
0
 10
22.9
 20
566.193
 11
23.1128
 21
566.014
  0
LINE
  8
0
 10
23.1128
 20
566.014
 11
23.2518
 21
565.774
  0
LINE
  8
0
 10
23.2518
 20
565.774
 11
23.3
 21
565.5
  0
LINE
  8
0
 10
23.3
 20
565.5
 11
23.2518
 21
565.226
  0
LINE
  8
0
 10
23.2518
 20
565.226
 11
23.1128
 21
564.986
  0
LINE
  8
0
 10
23.1128
 20
564.986
 11
22.9
 21
564.807
  0
LINE
  8
0
 10
22.9
 20
564.807
 11
22.6389
 21
564.712
  0
LINE
  8
0
 10
22.6389
 20
564.712
 11
22.3611
 21
564.712
  0
LINE
  8
0
 10
52.3611
 20
524.712
 11
52.1
 21
524.807
  0
LINE
  8
0
 10
52.1
 20
524.807
 11
51.8872
 21
524.986
  0
LINE
  8
0
 10
51.8872
 20
524.986
 11
51.7482
 21
525.226
  0
LINE
  8
0
 10
51.7482
 20
525.226
 11
51.7
 21
525.5
  0
LINE
  8
0
 10
51.7
 20
525.5
 11
51.7482
 21
525.774
  0
LINE
  8
0
 10
51.7482
 20
525.774
 11
51.8872
 21
526.014
  0
LINE
  8
0
 10
51.8872
 20
526.014
 11
52.1
 21
526.193
  0
LINE
  8
0
 10
52.1
 20
526.193
 11
52.3611
 21
526.288
  0
LINE
  8
0
 10
52.3611
 20
526.288
 11
52.6389
 21
526.288
  0
LINE
  8
0
 10
52.6389
 20
526.288
 11
52.9
 21
526.193
  0
LINE
  8
0
 10
52.9
 20
526.193
 11
53.1128
 21
526.014
  0
LINE
  8
0
 10
53.1128
 20
526.014
 11
53.2518
 21
525.774
  0
LINE
  8
0
 10
53.2518
 20
525.774
 11
53.3
 21
525.5
  0
LINE
  8
0
 10
53.3
 20
525.5
 11
53.2518
 21
525.226
  0
LINE
  8
0
 10
53.2518
 20
525.226
 11
53.1128
 21
524.986
  0
LINE
  8
0
 10
53.1128
 20
524.986
 11
52.9
 21
524.807
  0
LINE
  8
0
 10
52.9
 20
524.807
 11
52.6389
 21
524.712
  0
LINE
  8
0
 10
52.6389
 20
524.712
 11
52.3611
 21
524.712
  0
LINE
  8
0
 10
32.3611
 20
524.712
 11
32.1
 21
524.807
  0
LINE
  8
0
 10
32.1
 20
524.807
 11
31.8872
 21
524.986
  0
LINE
  8
0
 10
31.8872
 20
524.986
 11
31.7482
 21
525.226
  0
LINE
  8
0
 10
31.7482
 20
525.226
 11
31.7
 21
525.5
  0
LINE
  8
0
 10
31.7
 20
525.5
 11
31.7482
 21
525.774
  0
LINE
  8
0
 10
31.7482
 20
525.774
 11
31.8872
 21
526.014
  0
LINE
  8
0
 10
31.8872
 20
526.014
 11
32.1
 21
526.193
  0
LINE
  8
0
 10
32.1
 20
526.193
 11
32.3611
 21
526.288
  0
LINE
  8
0
 10
32.3611
 20
526.288
 11
32.6389
 21
526.288
  0
LINE
  8
0
 10
32.6389
 20
526.288
 11
32.9
 21
526.193
  0
LINE
  8
0
 10
32.9
 20
526.193
 11
33.1128
 21
526.014
  0
LINE
  8
0
 10
33.1128
 20
526.014
 11
33.2518
 21
525.774
  0
LINE
  8
0
 10
33.2518
 20
525.774
 11
33.3
 21
525.5
  0
LINE
  8
0
 10
33.3
 20
525.5
 11
33.2518
 21
525.226
  0
LINE
  8
0
 10
33.2518
 20
525.226
 11
33.1128
 21
524.986
  0
LINE
  8
0
 10
33.1128
 20
524.986
 11
32.9
 21
524.807
  0
LINE
  8
0
 10
32.9
 20
524.807
 11
32.6389
 21
524.712
  0
LINE
  8
0
 10
32.6389
 20
524.712
 11
32.3611
 21
524.712
  0
LINE
  8
0
 10
48.3611
 20
516.712
 11
48.1
 21
516.807
  0
LINE
  8
0
 10
48.1
 20
516.807
 11
47.8872
 21
516.986
  0
LINE
  8
0
 10
47.8872
 20
516.986
 11
47.7482
 21
517.226
  0
LINE
  8
0
 10
47.7482
 20
517.226
 11
47.7
 21
517.5
  0
LINE
  8
0
 10
47.7
 20
517.5
 11
47.7482
 21
517.774
  0
LINE
  8
0
 10
47.7482
 20
517.774
 11
47.8872
 21
518.014
  0
LINE
  8
0
 10
47.8872
 20
518.014
 11
48.1
 21
518.193
  0
LINE
  8
0
 10
48.1
 20
518.193
 11
48.3611
 21
518.288
  0
LINE
  8
0
 10
48.3611
 20
518.288
 11
48.6389
 21
518.288
  0
LINE
  8
0
 10
48.6389
 20
518.288
 11
48.9
 21
518.193
  0
LINE
  8
0
 10
48.9
 20
518.193
 11
49.1128
 21
518.014
  0
LINE
  8
0
 10
49.1128
 20
518.014
 11
49.2518
 21
517.774
  0
LINE
  8
0
 10
49.2518
 20
517.774
 11
49.3
 21
517.5
  0
LINE
  8
0
 10
49.3
 20
517.5
 11
49.2518
 21
517.226
  0
LINE
  8
0
 10
49.2518
 20
517.226
 11
49.1128
 21
516.986
  0
LINE
  8
0
 10
49.1128
 20
516.986
 11
48.9
 21
516.807
  0
LINE
  8
0
 10
48.9
 20
516.807
 11
48.6389
 21
516.712
  0
LINE
  8
0
 10
48.6389
 20
516.712
 11
48.3611
 21
516.712
  0
LINE
  8
0
 10
24.3611
 20
516.712
 11
24.1
 21
516.807
  0
LINE
  8
0
 10
24.1
 20
516.807
 11
23.8872
 21
516.986
  0
LINE
  8
0
 10
23.8872
 20
516.986
 11
23.7482
 21
517.226
  0
LINE
  8
0
 10
23.7482
 20
517.226
 11
23.7
 21
517.5
  0
LINE
  8
0
 10
23.7
 20
517.5
 11
23.7482
 21
517.774
  0
LINE
  8
0
 10
23.7482
 20
517.774
 11
23.8872
 21
518.014
  0
LINE
  8
0
 10
23.8872
 20
518.014
 11
24.1
 21
518.193
  0
LINE
  8
0
 10
24.1
 20
518.193
 11
24.3611
 21
518.288
  0
LINE
  8
0
 10
24.3611
 20
518.288
 11
24.6389
 21
518.288
  0
LINE
  8
0
 10
24.6389
 20
518.288
 11
24.9
 21
518.193
  0
LINE
  8
0
 10
24.9
 20
518.193
 11
25.1128
 21
518.014
  0
LINE
  8
0
 10
25.1128
 20
518.014
 11
25.2518
 21
517.774
  0
LINE
  8
0
 10
25.2518
 20
517.774
 11
25.3
 21
517.5
  0
LINE
  8
0
 10
25.3
 20
517.5
 11
25.2518
 21
517.226
  0
LINE
  8
0
 10
25.2518
 20
517.226
 11
25.1128
 21
516.986
  0
LINE
  8
0
 10
25.1128
 20
516.986
 11
24.9
 21
516.807
  0
LINE
  8
0
 10
24.9
 20
516.807
 11
24.6389
 21
516.712
  0
LINE
  8
0
 10
24.6389
 20
516.712
 11
24.3611
 21
516.712
  0
LINE
  8
0
 10
46.3611
 20
508.712
 11
46.1
 21
508.807
  0
LINE
  8
0
 10
46.1
 20
508.807
 11
45.8872
 21
508.986
  0
LINE
  8
0
 10
45.8872
 20
508.986
 11
45.7482
 21
509.226
  0
LINE
  8
0
 10
45.7482
 20
509.226
 11
45.7
 21
509.5
  0
LINE
  8
0
 10
45.7
 20
509.5
 11
45.7482
 21
509.774
  0
LINE
  8
0
 10
45.7482
 20
509.774
 11
45.8872
 21
510.014
  0
LINE
  8
0
 10
45.8872
 20
510.014
 11
46.1
 21
510.193
  0
LINE
  8
0
 10
46.1
 20
510.193
 11
46.3611
 21
510.288
  0
LINE
  8
0
 10
46.3611
 20
510.288
 11
46.6389
 21
510.288
  0
LINE
  8
0
 10
46.6389
 20
510.288
 11
46.9
 21
510.193
  0
LINE
  8
0
 10
46.9
 20
510.193
 11
47.1128
 21
510.014
  0
LINE
  8
0
 10
47.1128
 20
510.014
 11
47.2518
 21
509.774
  0
LINE
  8
0
 10
47.2518
 20
509.774
 11
47.3
 21
509.5
  0
LINE
  8
0
 10
47.3
 20
509.5
 11
47.2518
 21
509.226
  0
LINE
  8
0
 10
47.2518
 20
509.226
 11
47.1128
 21
508.986
  0
LINE
  8
0
 10
47.1128
 20
508.986
 11
46.9
 21
508.807
  0
LINE
  8
0
 10
46.9
 20
508.807
 11
46.6389
 21
508.712
  0
LINE
  8
0
 10
46.6389
 20
508.712
 11
46.3611
 21
508.712
  0
LINE
  8
0
 10
22.3611
 20
508.712
 11
22.1
 21
508.807
  0
LINE
  8
0
 10
22.1
 20
508.807
 11
21.8872
 21
508.986
  0
LINE
  8
0
 10
21.8872
 20
508.986
 11
21.7482
 21
509.226
  0
LINE
  8
0
 10
21.7482
 20
509.226
 11
21.7
 21
509.5
  0
LINE
  8
0
 10
21.7
 20
509.5
 11
21.7482
 21
509.774
  0
LINE
  8
0
 10
21.7482
 20
509.774
 11
21.8872
 21
510.014
  0
LINE
  8
0
 10
21.8872
 20
510.014
 11
22.1
 21
510.193
  0
LINE
  8
0
 10
22.1
 20
510.193
 11
22.3611
 21
510.288
  0
LINE
  8
0
 10
22.3611
 20
510.288
 11
22.6389
 21
510.288
  0
LINE
  8
0
 10
22.6389
 20
510.288
 11
22.9
 21
510.193
  0
LINE
  8
0
 10
22.9
 20
510.193
 11
23.1128
 21
510.014
  0
LINE
  8
0
 10
23.1128
 20
510.014
 11
23.2518
 21
509.774
  0
LINE
  8
0
 10
23.2518
 20
509.774
 11
23.3
 21
509.5
  0
LINE
  8
0
 10
23.3
 20
509.5
 11
23.2518
 21
509.226
  0
LINE
  8
0
 10
23.2518
 20
509.226
 11
23.1128
 21
508.986
  0
LINE
  8
0
 10
23.1128
 20
508.986
 11
22.9
 21
508.807
  0
LINE
  8
0
 10
22.9
 20
508.807
 11
22.6389
 21
508.712
  0
LINE
  8
0
 10
22.6389
 20
508.712
 11
22.3611
 21
508.712
  0
LINE
  8
0
 10
18.3611
 20
504.712
 11
18.1
 21
504.807
  0
LINE
  8
0
 10
18.1
 20
504.807
 11
17.8872
 21
504.986
  0
LINE
  8
0
 10
17.8872
 20
504.986
 11
17.7482
 21
505.226
  0
LINE
  8
0
 10
17.7482
 20
505.226
 11
17.7
 21
505.5
  0
LINE
  8
0
 10
17.7
 20
505.5
 11
17.7482
 21
505.774
  0
LINE
  8
0
 10
17.7482
 20
505.774
 11
17.8872
 21
506.014
  0
LINE
  8
0
 10
17.8872
 20
506.014
 11
18.1
 21
506.193
  0
LINE
  8
0
 10
18.1
 20
506.193
 11
18.3611
 21
506.288
  0
LINE
  8
0
 10
18.3611
 20
506.288
 11
18.6389
 21
506.288
  0
LINE
  8
0
 10
18.6389
 20
506.288
 11
18.9
 21
506.193
  0
LINE
  8
0
 10
18.9
 20
506.193
 11
19.1128
 21
506.014
  0
LINE
  8
0
 10
19.1128
 20
506.014
 11
19.2518
 21
505.774
  0
LINE
  8
0
 10
19.2518
 20
505.774
 11
19.3
 21
505.5
  0
LINE
  8
0
 10
19.3
 20
505.5
 11
19.2518
 21
505.226
  0
LINE
  8
0
 10
19.2518
 20
505.226
 11
19.1128
 21
504.986
  0
LINE
  8
0
 10
19.1128
 20
504.986
 11
18.9
 21
504.807
  0
LINE
  8
0
 10
18.9
 20
504.807
 11
18.6389
 21
504.712
  0
LINE
  8
0
 10
18.6389
 20
504.712
 11
18.3611
 21
504.712
  0
LINE
  8
0
 10
42.3611
 20
504.712
 11
42.1
 21
504.807
  0
LINE
  8
0
 10
42.1
 20
504.807
 11
41.8872
 21
504.986
  0
LINE
  8
0
 10
41.8872
 20
504.986
 11
41.7482
 21
505.226
  0
LINE
  8
0
 10
41.7482
 20
505.226
 11
41.7
 21
505.5
  0
LINE
  8
0
 10
41.7
 20
505.5
 11
41.7482
 21
505.774
  0
LINE
  8
0
 10
41.7482
 20
505.774
 11
41.8872
 21
506.014
  0
LINE
  8
0
 10
41.8872
 20
506.014
 11
42.1
 21
506.193
  0
LINE
  8
0
 10
42.1
 20
506.193
 11
42.3611
 21
506.288
  0
LINE
  8
0
 10
42.3611
 20
506.288
 11
42.6389
 21
506.288
  0
LINE
  8
0
 10
42.6389
 20
506.288
 11
42.9
 21
506.193
  0
LINE
  8
0
 10
42.9
 20
506.193
 11
43.1128
 21
506.014
  0
LINE
  8
0
 10
43.1128
 20
506.014
 11
43.2518
 21
505.774
  0
LINE
  8
0
 10
43.2518
 20
505.774
 11
43.3
 21
505.5
  0
LINE
  8
0
 10
43.3
 20
505.5
 11
43.2518
 21
505.226
  0
LINE
  8
0
 10
43.2518
 20
505.226
 11
43.1128
 21
504.986
  0
LINE
  8
0
 10
43.1128
 20
504.986
 11
42.9
 21
504.807
  0
LINE
  8
0
 10
42.9
 20
504.807
 11
42.6389
 21
504.712
  0
LINE
  8
0
 10
42.6389
 20
504.712
 11
42.3611
 21
504.712
  0
LINE
  8
0
 10
42.3611
 20
496.712
 11
42.1
 21
496.807
  0
LINE
  8
0
 10
42.1
 20
496.807
 11
41.8872
 21
496.986
  0
LINE
  8
0
 10
41.8872
 20
496.986
 11
41.7482
 21
497.226
  0
LINE
  8
0
 10
41.7482
 20
497.226
 11
41.7
 21
497.5
  0
LINE
  8
0
 10
41.7
 20
497.5
 11
41.7482
 21
497.774
  0
LINE
  8
0
 10
41.7482
 20
497.774
 11
41.8872
 21
498.014
  0
LINE
  8
0
 10
41.8872
 20
498.014
 11
42.1
 21
498.193
  0
LINE
  8
0
 10
42.1
 20
498.193
 11
42.3611
 21
498.288
  0
LINE
  8
0
 10
42.3611
 20
498.288
 11
42.6389
 21
498.288
  0
LINE
  8
0
 10
42.6389
 20
498.288
 11
42.9
 21
498.193
  0
LINE
  8
0
 10
42.9
 20
498.193
 11
43.1128
 21
498.014
  0
LINE
  8
0
 10
43.1128
 20
498.014
 11
43.2518
 21
497.774
  0
LINE
  8
0
 10
43.2518
 20
497.774
 11
43.3
 21
497.5
  0
LINE
  8
0
 10
43.3
 20
497.5
 11
43.2518
 21
497.226
  0
LINE
  8
0
 10
43.2518
 20
497.226
 11
43.1128
 21
496.986
  0
LINE
  8
0
 10
43.1128
 20
496.986
 11
42.9
 21
496.807
  0
LINE
  8
0
 10
42.9
 20
496.807
 11
42.6389
 21
496.712
  0
LINE
  8
0
 10
42.6389
 20
496.712
 11
42.3611
 21
496.712
  0
LINE
  8
0
 10
18.3611
 20
496.712
 11
18.1
 21
496.807
  0
LINE
  8
0
 10
18.1
 20
496.807
 11
17.8872
 21
496.986
  0
LINE
  8
0
 10
17.8872
 20
496.986
 11
17.7482
 21
497.226
  0
LINE
  8
0
 10
17.7482
 20
497.226
 11
17.7
 21
497.5
  0
LINE
  8
0
 10
17.7
 20
497.5
 11
17.7482
 21
497.774
  0
LINE
  8
0
 10
17.7482
 20
497.774
 11
17.8872
 21
498.014
  0
LINE
  8
0
 10
17.8872
 20
498.014
 11
18.1
 21
498.193
  0
LINE
  8
0
 10
18.1
 20
498.193
 11
18.3611
 21
498.288
  0
LINE
  8
0
 10
18.3611
 20
498.288
 11
18.6389
 21
498.288
  0
LINE
  8
0
 10
18.6389
 20
498.288
 11
18.9
 21
498.193
  0
LINE
  8
0
 10
18.9
 20
498.193
 11
19.1128
 21
498.014
  0
LINE
  8
0
 10
19.1128
 20
498.014
 11
19.2518
 21
497.774
  0
LINE
  8
0
 10
19.2518
 20
497.774
 11
19.3
 21
497.5
  0
LINE
  8
0
 10
19.3
 20
497.5
 11
19.2518
 21
497.226
  0
LINE
  8
0
 10
19.2518
 20
497.226
 11
19.1128
 21
496.986
  0
LINE
  8
0
 10
19.1128
 20
496.986
 11
18.9
 21
496.807
  0
LINE
  8
0
 10
18.9
 20
496.807
 11
18.6389
 21
496.712
  0
LINE
  8
0
 10
18.6389
 20
496.712
 11
18.3611
 21
496.712
  0
LINE
  8
0
 10
18.3611
 20
488.712
 11
18.1
 21
488.807
  0
LINE
  8
0
 10
18.1
 20
488.807
 11
17.8872
 21
488.986
  0
LINE
  8
0
 10
17.8872
 20
488.986
 11
17.7482
 21
489.226
  0
LINE
  8
0
 10
17.7482
 20
489.226
 11
17.7
 21
489.5
  0
LINE
  8
0
 10
17.7
 20
489.5
 11
17.7482
 21
489.774
  0
LINE
  8
0
 10
17.7482
 20
489.774
 11
17.8872
 21
490.014
  0
LINE
  8
0
 10
17.8872
 20
490.014
 11
18.1
 21
490.193
  0
LINE
  8
0
 10
18.1
 20
490.193
 11
18.3611
 21
490.288
  0
LINE
  8
0
 10
18.3611
 20
490.288
 11
18.6389
 21
490.288
  0
LINE
  8
0
 10
18.6389
 20
490.288
 11
18.9
 21
490.193
  0
LINE
  8
0
 10
18.9
 20
490.193
 11
19.1128
 21
490.014
  0
LINE
  8
0
 10
19.1128
 20
490.014
 11
19.2518
 21
489.774
  0
LINE
  8
0
 10
19.2518
 20
489.774
 11
19.3
 21
489.5
  0
LINE
  8
0
 10
19.3
 20
489.5
 11
19.2518
 21
489.226
  0
LINE
  8
0
 10
19.2518
 20
489.226
 11
19.1128
 21
488.986
  0
LINE
  8
0
 10
19.1128
 20
488.986
 11
18.9
 21
488.807
  0
LINE
  8
0
 10
18.9
 20
488.807
 11
18.6389
 21
488.712
  0
LINE
  8
0
 10
18.6389
 20
488.712
 11
18.3611
 21
488.712
  0
LINE
  8
0
 10
42.3611
 20
488.712
 11
42.1
 21
488.807
  0
LINE
  8
0
 10
42.1
 20
488.807
 11
41.8872
 21
488.986
  0
LINE
  8
0
 10
41.8872
 20
488.986
 11
41.7482
 21
489.226
  0
LINE
  8
0
 10
41.7482
 20
489.226
 11
41.7
 21
489.5
  0
LINE
  8
0
 10
41.7
 20
489.5
 11
41.7482
 21
489.774
  0
LINE
  8
0
 10
41.7482
 20
489.774
 11
41.8872
 21
490.014
  0
LINE
  8
0
 10
41.8872
 20
490.014
 11
42.1
 21
490.193
  0
LINE
  8
0
 10
42.1
 20
490.193
 11
42.3611
 21
490.288
  0
LINE
  8
0
 10
42.3611
 20
490.288
 11
42.6389
 21
490.288
  0
LINE
  8
0
 10
42.6389
 20
490.288
 11
42.9
 21
490.193
  0
LINE
  8
0
 10
42.9
 20
490.193
 11
43.1128
 21
490.014
  0
LINE
  8
0
 10
43.1128
 20
490.014
 11
43.2518
 21
489.774
  0
LINE
  8
0
 10
43.2518
 20
489.774
 11
43.3
 21
489.5
  0
LINE
  8
0
 10
43.3
 20
489.5
 11
43.2518
 21
489.226
  0
LINE
  8
0
 10
43.2518
 20
489.226
 11
43.1128
 21
488.986
  0
LINE
  8
0
 10
43.1128
 20
488.986
 11
42.9
 21
488.807
  0
LINE
  8
0
 10
42.9
 20
488.807
 11
42.6389
 21
488.712
  0
LINE
  8
0
 10
42.6389
 20
488.712
 11
42.3611
 21
488.712
  0
LINE
  8
0
 10
24.3611
 20
480.712
 11
24.1
 21
480.807
  0
LINE
  8
0
 10
24.1
 20
480.807
 11
23.8872
 21
480.986
  0
LINE
  8
0
 10
23.8872
 20
480.986
 11
23.7482
 21
481.226
  0
LINE
  8
0
 10
23.7482
 20
481.226
 11
23.7
 21
481.5
  0
LINE
  8
0
 10
23.7
 20
481.5
 11
23.7482
 21
481.774
  0
LINE
  8
0
 10
23.7482
 20
481.774
 11
23.8872
 21
482.014
  0
LINE
  8
0
 10
23.8872
 20
482.014
 11
24.1
 21
482.193
  0
LINE
  8
0
 10
24.1
 20
482.193
 11
24.3611
 21
482.288
  0
LINE
  8
0
 10
24.3611
 20
482.288
 11
24.6389
 21
482.288
  0
LINE
  8
0
 10
24.6389
 20
482.288
 11
24.9
 21
482.193
  0
LINE
  8
0
 10
24.9
 20
482.193
 11
25.1128
 21
482.014
  0
LINE
  8
0
 10
25.1128
 20
482.014
 11
25.2518
 21
481.774
  0
LINE
  8
0
 10
25.2518
 20
481.774
 11
25.3
 21
481.5
  0
LINE
  8
0
 10
25.3
 20
481.5
 11
25.2518
 21
481.226
  0
LINE
  8
0
 10
25.2518
 20
481.226
 11
25.1128
 21
480.986
  0
LINE
  8
0
 10
25.1128
 20
480.986
 11
24.9
 21
480.807
  0
LINE
  8
0
 10
24.9
 20
480.807
 11
24.6389
 21
480.712
  0
LINE
  8
0
 10
24.6389
 20
480.712
 11
24.3611
 21
480.712
  0
LINE
  8
0
 10
48.3611
 20
480.712
 11
48.1
 21
480.807
  0
LINE
  8
0
 10
48.1
 20
480.807
 11
47.8872
 21
480.986
  0
LINE
  8
0
 10
47.8872
 20
480.986
 11
47.7482
 21
481.226
  0
LINE
  8
0
 10
47.7482
 20
481.226
 11
47.7
 21
481.5
  0
LINE
  8
0
 10
47.7
 20
481.5
 11
47.7482
 21
481.774
  0
LINE
  8
0
 10
47.7482
 20
481.774
 11
47.8872
 21
482.014
  0
LINE
  8
0
 10
47.8872
 20
482.014
 11
48.1
 21
482.193
  0
LINE
  8
0
 10
48.1
 20
482.193
 11
48.3611
 21
482.288
  0
LINE
  8
0
 10
48.3611
 20
482.288
 11
48.6389
 21
482.288
  0
LINE
  8
0
 10
48.6389
 20
482.288
 11
48.9
 21
482.193
  0
LINE
  8
0
 10
48.9
 20
482.193
 11
49.1128
 21
482.014
  0
LINE
  8
0
 10
49.1128
 20
482.014
 11
49.2518
 21
481.774
  0
LINE
  8
0
 10
49.2518
 20
481.774
 11
49.3
 21
481.5
  0
LINE
  8
0
 10
49.3
 20
481.5
 11
49.2518
 21
481.226
  0
LINE
  8
0
 10
49.2518
 20
481.226
 11
49.1128
 21
480.986
  0
LINE
  8
0
 10
49.1128
 20
480.986
 11
48.9
 21
480.807
  0
LINE
  8
0
 10
48.9
 20
480.807
 11
48.6389
 21
480.712
  0
LINE
  8
0
 10
48.6389
 20
480.712
 11
48.3611
 21
480.712
  0
LINE
  8
0
 10
42.3611
 20
476.712
 11
42.1
 21
476.807
  0
LINE
  8
0
 10
42.1
 20
476.807
 11
41.8872
 21
476.986
  0
LINE
  8
0
 10
41.8872
 20
476.986
 11
41.7482
 21
477.226
  0
LINE
  8
0
 10
41.7482
 20
477.226
 11
41.7
 21
477.5
  0
LINE
  8
0
 10
41.7
 20
477.5
 11
41.7482
 21
477.774
  0
LINE
  8
0
 10
41.7482
 20
477.774
 11
41.8872
 21
478.014
  0
LINE
  8
0
 10
41.8872
 20
478.014
 11
42.1
 21
478.193
  0
LINE
  8
0
 10
42.1
 20
478.193
 11
42.3611
 21
478.288
  0
LINE
  8
0
 10
42.3611
 20
478.288
 11
42.6389
 21
478.288
  0
LINE
  8
0
 10
42.6389
 20
478.288
 11
42.9
 21
478.193
  0
LINE
  8
0
 10
42.9
 20
478.193
 11
43.1128
 21
478.014
  0
LINE
  8
0
 10
43.1128
 20
478.014
 11
43.2518
 21
477.774
  0
LINE
  8
0
 10
43.2518
 20
477.774
 11
43.3
 21
477.5
  0
LINE
  8
0
 10
43.3
 20
477.5
 11
43.2518
 21
477.226
  0
LINE
  8
0
 10
43.2518
 20
477.226
 11
43.1128
 21
476.986
  0
LINE
  8
0
 10
43.1128
 20
476.986
 11
42.9
 21
476.807
  0
LINE
  8
0
 10
42.9
 20
476.807
 11
42.6389
 21
476.712
  0
LINE
  8
0
 10
42.6389
 20
476.712
 11
42.3611
 21
476.712
  0
LINE
  8
0
 10
18.3611
 20
476.712
 11
18.1
 21
476.807
  0
LINE
  8
0
 10
18.1
 20
476.807
 11
17.8872
 21
476.986
  0
LINE
  8
0
 10
17.8872
 20
476.986
 11
17.7482
 21
477.226
  0
LINE
  8
0
 10
17.7482
 20
477.226
 11
17.7
 21
477.5
  0
LINE
  8
0
 10
17.7
 20
477.5
 11
17.7482
 21
477.774
  0
LINE
  8
0
 10
17.7482
 20
477.774
 11
17.8872
 21
478.014
  0
LINE
  8
0
 10
17.8872
 20
478.014
 11
18.1
 21
478.193
  0
LINE
  8
0
 10
18.1
 20
478.193
 11
18.3611
 21
478.288
  0
LINE
  8
0
 10
18.3611
 20
478.288
 11
18.6389
 21
478.288
  0
LINE
  8
0
 10
18.6389
 20
478.288
 11
18.9
 21
478.193
  0
LINE
  8
0
 10
18.9
 20
478.193
 11
19.1128
 21
478.014
  0
LINE
  8
0
 10
19.1128
 20
478.014
 11
19.2518
 21
477.774
  0
LINE
  8
0
 10
19.2518
 20
477.774
 11
19.3
 21
477.5
  0
LINE
  8
0
 10
19.3
 20
477.5
 11
19.2518
 21
477.226
  0
LINE
  8
0
 10
19.2518
 20
477.226
 11
19.1128
 21
476.986
  0
LINE
  8
0
 10
19.1128
 20
476.986
 11
18.9
 21
476.807
  0
LINE
  8
0
 10
18.9
 20
476.807
 11
18.6389
 21
476.712
  0
LINE
  8
0
 10
18.6389
 20
476.712
 11
18.3611
 21
476.712
  0
LINE
  8
0
 10
38.3611
 20
472.712
 11
38.1
 21
472.807
  0
LINE
  8
0
 10
38.1
 20
472.807
 11
37.8872
 21
472.986
  0
LINE
  8
0
 10
37.8872
 20
472.986
 11
37.7482
 21
473.226
  0
LINE
  8
0
 10
37.7482
 20
473.226
 11
37.7
 21
473.5
  0
LINE
  8
0
 10
37.7
 20
473.5
 11
37.7482
 21
473.774
  0
LINE
  8
0
 10
37.7482
 20
473.774
 11
37.8872
 21
474.014
  0
LINE
  8
0
 10
37.8872
 20
474.014
 11
38.1
 21
474.193
  0
LINE
  8
0
 10
38.1
 20
474.193
 11
38.3611
 21
474.288
  0
LINE
  8
0
 10
38.3611
 20
474.288
 11
38.6389
 21
474.288
  0
LINE
  8
0
 10
38.6389
 20
474.288
 11
38.9
 21
474.193
  0
LINE
  8
0
 10
38.9
 20
474.193
 11
39.1128
 21
474.014
  0
LINE
  8
0
 10
39.1128
 20
474.014
 11
39.2518
 21
473.774
  0
LINE
  8
0
 10
39.2518
 20
473.774
 11
39.3
 21
473.5
  0
LINE
  8
0
 10
39.3
 20
473.5
 11
39.2518
 21
473.226
  0
LINE
  8
0
 10
39.2518
 20
473.226
 11
39.1128
 21
472.986
  0
LINE
  8
0
 10
39.1128
 20
472.986
 11
38.9
 21
472.807
  0
LINE
  8
0
 10
38.9
 20
472.807
 11
38.6389
 21
472.712
  0
LINE
  8
0
 10
38.6389
 20
472.712
 11
38.3611
 21
472.712
  0
LINE
  8
0
 10
14.3611
 20
472.712
 11
14.1
 21
472.807
  0
LINE
  8
0
 10
14.1
 20
472.807
 11
13.8872
 21
472.986
  0
LINE
  8
0
 10
13.8872
 20
472.986
 11
13.7482
 21
473.226
  0
LINE
  8
0
 10
13.7482
 20
473.226
 11
13.7
 21
473.5
  0
LINE
  8
0
 10
13.7
 20
473.5
 11
13.7482
 21
473.774
  0
LINE
  8
0
 10
13.7482
 20
473.774
 11
13.8872
 21
474.014
  0
LINE
  8
0
 10
13.8872
 20
474.014
 11
14.1
 21
474.193
  0
LINE
  8
0
 10
14.1
 20
474.193
 11
14.3611
 21
474.288
  0
LINE
  8
0
 10
14.3611
 20
474.288
 11
14.6389
 21
474.288
  0
LINE
  8
0
 10
14.6389
 20
474.288
 11
14.9
 21
474.193
  0
LINE
  8
0
 10
14.9
 20
474.193
 11
15.1128
 21
474.014
  0
LINE
  8
0
 10
15.1128
 20
474.014
 11
15.2517
 21
473.774
  0
LINE
  8
0
 10
15.2517
 20
473.774
 11
15.3
 21
473.5
  0
LINE
  8
0
 10
15.3
 20
473.5
 11
15.2517
 21
473.226
  0
LINE
  8
0
 10
15.2517
 20
473.226
 11
15.1128
 21
472.986
  0
LINE
  8
0
 10
15.1128
 20
472.986
 11
14.9
 21
472.807
  0
LINE
  8
0
 10
14.9
 20
472.807
 11
14.6389
 21
472.712
  0
LINE
  8
0
 10
14.6389
 20
472.712
 11
14.3611
 21
472.712
  0
LINE
  8
0
 10
14.3611
 20
464.712
 11
14.1
 21
464.807
  0
LINE
  8
0
 10
14.1
 20
464.807
 11
13.8872
 21
464.986
  0
LINE
  8
0
 10
13.8872
 20
464.986
 11
13.7482
 21
465.226
  0
LINE
  8
0
 10
13.7482
 20
465.226
 11
13.7
 21
465.5
  0
LINE
  8
0
 10
13.7
 20
465.5
 11
13.7482
 21
465.774
  0
LINE
  8
0
 10
13.7482
 20
465.774
 11
13.8872
 21
466.014
  0
LINE
  8
0
 10
13.8872
 20
466.014
 11
14.1
 21
466.193
  0
LINE
  8
0
 10
14.1
 20
466.193
 11
14.3611
 21
466.288
  0
LINE
  8
0
 10
14.3611
 20
466.288
 11
14.6389
 21
466.288
  0
LINE
  8
0
 10
14.6389
 20
466.288
 11
14.9
 21
466.193
  0
LINE
  8
0
 10
14.9
 20
466.193
 11
15.1128
 21
466.014
  0
LINE
  8
0
 10
15.1128
 20
466.014
 11
15.2517
 21
465.774
  0
LINE
  8
0
 10
15.2517
 20
465.774
 11
15.3
 21
465.5
  0
LINE
  8
0
 10
15.3
 20
465.5
 11
15.2517
 21
465.226
  0
LINE
  8
0
 10
15.2517
 20
465.226
 11
15.1128
 21
464.986
  0
LINE
  8
0
 10
15.1128
 20
464.986
 11
14.9
 21
464.807
  0
LINE
  8
0
 10
14.9
 20
464.807
 11
14.6389
 21
464.712
  0
LINE
  8
0
 10
14.6389
 20
464.712
 11
14.3611
 21
464.712
  0
LINE
  8
0
 10
38.3611
 20
464.712
 11
38.1
 21
464.807
  0
LINE
  8
0
 10
38.1
 20
464.807
 11
37.8872
 21
464.986
  0
LINE
  8
0
 10
37.8872
 20
464.986
 11
37.7482
 21
465.226
  0
LINE
  8
0
 10
37.7482
 20
465.226
 11
37.7
 21
465.5
  0
LINE
  8
0
 10
37.7
 20
465.5
 11
37.7482
 21
465.774
  0
LINE
  8
0
 10
37.7482
 20
465.774
 11
37.8872
 21
466.014
  0
LINE
  8
0
 10
37.8872
 20
466.014
 11
38.1
 21
466.193
  0
LINE
  8
0
 10
38.1
 20
466.193
 11
38.3611
 21
466.288
  0
LINE
  8
0
 10
38.3611
 20
466.288
 11
38.6389
 21
466.288
  0
LINE
  8
0
 10
38.6389
 20
466.288
 11
38.9
 21
466.193
  0
LINE
  8
0
 10
38.9
 20
466.193
 11
39.1128
 21
466.014
  0
LINE
  8
0
 10
39.1128
 20
466.014
 11
39.2518
 21
465.774
  0
LINE
  8
0
 10
39.2518
 20
465.774
 11
39.3
 21
465.5
  0
LINE
  8
0
 10
39.3
 20
465.5
 11
39.2518
 21
465.226
  0
LINE
  8
0
 10
39.2518
 20
465.226
 11
39.1128
 21
464.986
  0
LINE
  8
0
 10
39.1128
 20
464.986
 11
38.9
 21
464.807
  0
LINE
  8
0
 10
38.9
 20
464.807
 11
38.6389
 21
464.712
  0
LINE
  8
0
 10
38.6389
 20
464.712
 11
38.3611
 21
464.712
  0
LINE
  8
0
 10
38.3611
 20
456.712
 11
38.1
 21
456.807
  0
LINE
  8
0
 10
38.1
 20
456.807
 11
37.8872
 21
456.986
  0
LINE
  8
0
 10
37.8872
 20
456.986
 11
37.7482
 21
457.226
  0
LINE
  8
0
 10
37.7482
 20
457.226
 11
37.7
 21
457.5
  0
LINE
  8
0
 10
37.7
 20
457.5
 11
37.7482
 21
457.774
  0
LINE
  8
0
 10
37.7482
 20
457.774
 11
37.8872
 21
458.014
  0
LINE
  8
0
 10
37.8872
 20
458.014
 11
38.1
 21
458.193
  0
LINE
  8
0
 10
38.1
 20
458.193
 11
38.3611
 21
458.288
  0
LINE
  8
0
 10
38.3611
 20
458.288
 11
38.6389
 21
458.288
  0
LINE
  8
0
 10
38.6389
 20
458.288
 11
38.9
 21
458.193
  0
LINE
  8
0
 10
38.9
 20
458.193
 11
39.1128
 21
458.014
  0
LINE
  8
0
 10
39.1128
 20
458.014
 11
39.2518
 21
457.774
  0
LINE
  8
0
 10
39.2518
 20
457.774
 11
39.3
 21
457.5
  0
LINE
  8
0
 10
39.3
 20
457.5
 11
39.2518
 21
457.226
  0
LINE
  8
0
 10
39.2518
 20
457.226
 11
39.1128
 21
456.986
  0
LINE
  8
0
 10
39.1128
 20
456.986
 11
38.9
 21
456.807
  0
LINE
  8
0
 10
38.9
 20
456.807
 11
38.6389
 21
456.712
  0
LINE
  8
0
 10
38.6389
 20
456.712
 11
38.3611
 21
456.712
  0
LINE
  8
0
 10
14.3611
 20
456.712
 11
14.1
 21
456.807
  0
LINE
  8
0
 10
14.1
 20
456.807
 11
13.8872
 21
456.986
  0
LINE
  8
0
 10
13.8872
 20
456.986
 11
13.7482
 21
457.226
  0
LINE
  8
0
 10
13.7482
 20
457.226
 11
13.7
 21
457.5
  0
LINE
  8
0
 10
13.7
 20
457.5
 11
13.7482
 21
457.774
  0
LINE
  8
0
 10
13.7482
 20
457.774
 11
13.8872
 21
458.014
  0
LINE
  8
0
 10
13.8872
 20
458.014
 11
14.1
 21
458.193
  0
LINE
  8
0
 10
14.1
 20
458.193
 11
14.3611
 21
458.288
  0
LINE
  8
0
 10
14.3611
 20
458.288
 11
14.6389
 21
458.288
  0
LINE
  8
0
 10
14.6389
 20
458.288
 11
14.9
 21
458.193
  0
LINE
  8
0
 10
14.9
 20
458.193
 11
15.1128
 21
458.014
  0
LINE
  8
0
 10
15.1128
 20
458.014
 11
15.2517
 21
457.774
  0
LINE
  8
0
 10
15.2517
 20
457.774
 11
15.3
 21
457.5
  0
LINE
  8
0
 10
15.3
 20
457.5
 11
15.2517
 21
457.226
  0
LINE
  8
0
 10
15.2517
 20
457.226
 11
15.1128
 21
456.986
  0
LINE
  8
0
 10
15.1128
 20
456.986
 11
14.9
 21
456.807
  0
LINE
  8
0
 10
14.9
 20
456.807
 11
14.6389
 21
456.712
  0
LINE
  8
0
 10
14.6389
 20
456.712
 11
14.3611
 21
456.712
  0
LINE
  8
0
 10
24.3611
 20
448.712
 11
24.1
 21
448.807
  0
LINE
  8
0
 10
24.1
 20
448.807
 11
23.8872
 21
448.986
  0
LINE
  8
0
 10
23.8872
 20
448.986
 11
23.7482
 21
449.226
  0
LINE
  8
0
 10
23.7482
 20
449.226
 11
23.7
 21
449.5
  0
LINE
  8
0
 10
23.7
 20
449.5
 11
23.7482
 21
449.774
  0
LINE
  8
0
 10
23.7482
 20
449.774
 11
23.8872
 21
450.014
  0
LINE
  8
0
 10
23.8872
 20
450.014
 11
24.1
 21
450.193
  0
LINE
  8
0
 10
24.1
 20
450.193
 11
24.3611
 21
450.288
  0
LINE
  8
0
 10
24.3611
 20
450.288
 11
24.6389
 21
450.288
  0
LINE
  8
0
 10
24.6389
 20
450.288
 11
24.9
 21
450.193
  0
LINE
  8
0
 10
24.9
 20
450.193
 11
25.1128
 21
450.014
  0
LINE
  8
0
 10
25.1128
 20
450.014
 11
25.2518
 21
449.774
  0
LINE
  8
0
 10
25.2518
 20
449.774
 11
25.3
 21
449.5
  0
LINE
  8
0
 10
25.3
 20
449.5
 11
25.2518
 21
449.226
  0
LINE
  8
0
 10
25.2518
 20
449.226
 11
25.1128
 21
448.986
  0
LINE
  8
0
 10
25.1128
 20
448.986
 11
24.9
 21
448.807
  0
LINE
  8
0
 10
24.9
 20
448.807
 11
24.6389
 21
448.712
  0
LINE
  8
0
 10
24.6389
 20
448.712
 11
24.3611
 21
448.712
  0
LINE
  8
0
 10
48.3611
 20
448.712
 11
48.1
 21
448.807
  0
LINE
  8
0
 10
48.1
 20
448.807
 11
47.8872
 21
448.986
  0
LINE
  8
0
 10
47.8872
 20
448.986
 11
47.7482
 21
449.226
  0
LINE
  8
0
 10
47.7482
 20
449.226
 11
47.7
 21
449.5
  0
LINE
  8
0
 10
47.7
 20
449.5
 11
47.7482
 21
449.774
  0
LINE
  8
0
 10
47.7482
 20
449.774
 11
47.8872
 21
450.014
  0
LINE
  8
0
 10
47.8872
 20
450.014
 11
48.1
 21
450.193
  0
LINE
  8
0
 10
48.1
 20
450.193
 11
48.3611
 21
450.288
  0
LINE
  8
0
 10
48.3611
 20
450.288
 11
48.6389
 21
450.288
  0
LINE
  8
0
 10
48.6389
 20
450.288
 11
48.9
 21
450.193
  0
LINE
  8
0
 10
48.9
 20
450.193
 11
49.1128
 21
450.014
  0
LINE
  8
0
 10
49.1128
 20
450.014
 11
49.2518
 21
449.774
  0
LINE
  8
0
 10
49.2518
 20
449.774
 11
49.3
 21
449.5
  0
LINE
  8
0
 10
49.3
 20
449.5
 11
49.2518
 21
449.226
  0
LINE
  8
0
 10
49.2518
 20
449.226
 11
49.1128
 21
448.986
  0
LINE
  8
0
 10
49.1128
 20
448.986
 11
48.9
 21
448.807
  0
LINE
  8
0
 10
48.9
 20
448.807
 11
48.6389
 21
448.712
  0
LINE
  8
0
 10
48.6389
 20
448.712
 11
48.3611
 21
448.712
  0
LINE
  8
0
 10
42.3611
 20
444.712
 11
42.1
 21
444.807
  0
LINE
  8
0
 10
42.1
 20
444.807
 11
41.8872
 21
444.986
  0
LINE
  8
0
 10
41.8872
 20
444.986
 11
41.7482
 21
445.226
  0
LINE
  8
0
 10
41.7482
 20
445.226
 11
41.7
 21
445.5
  0
LINE
  8
0
 10
41.7
 20
445.5
 11
41.7482
 21
445.774
  0
LINE
  8
0
 10
41.7482
 20
445.774
 11
41.8872
 21
446.014
  0
LINE
  8
0
 10
41.8872
 20
446.014
 11
42.1
 21
446.193
  0
LINE
  8
0
 10
42.1
 20
446.193
 11
42.3611
 21
446.288
  0
LINE
  8
0
 10
42.3611
 20
446.288
 11
42.6389
 21
446.288
  0
LINE
  8
0
 10
42.6389
 20
446.288
 11
42.9
 21
446.193
  0
LINE
  8
0
 10
42.9
 20
446.193
 11
43.1128
 21
446.014
  0
LINE
  8
0
 10
43.1128
 20
446.014
 11
43.2518
 21
445.774
  0
LINE
  8
0
 10
43.2518
 20
445.774
 11
43.3
 21
445.5
  0
LINE
  8
0
 10
43.3
 20
445.5
 11
43.2518
 21
445.226
  0
LINE
  8
0
 10
43.2518
 20
445.226
 11
43.1128
 21
444.986
  0
LINE
  8
0
 10
43.1128
 20
444.986
 11
42.9
 21
444.807
  0
LINE
  8
0
 10
42.9
 20
444.807
 11
42.6389
 21
444.712
  0
LINE
  8
0
 10
42.6389
 20
444.712
 11
42.3611
 21
444.712
  0
LINE
  8
0
 10
18.3611
 20
444.712
 11
18.1
 21
444.807
  0
LINE
  8
0
 10
18.1
 20
444.807
 11
17.8872
 21
444.986
  0
LINE
  8
0
 10
17.8872
 20
444.986
 11
17.7482
 21
445.226
  0
LINE
  8
0
 10
17.7482
 20
445.226
 11
17.7
 21
445.5
  0
LINE
  8
0
 10
17.7
 20
445.5
 11
17.7482
 21
445.774
  0
LINE
  8
0
 10
17.7482
 20
445.774
 11
17.8872
 21
446.014
  0
LINE
  8
0
 10
17.8872
 20
446.014
 11
18.1
 21
446.193
  0
LINE
  8
0
 10
18.1
 20
446.193
 11
18.3611
 21
446.288
  0
LINE
  8
0
 10
18.3611
 20
446.288
 11
18.6389
 21
446.288
  0
LINE
  8
0
 10
18.6389
 20
446.288
 11
18.9
 21
446.193
  0
LINE
  8
0
 10
18.9
 20
446.193
 11
19.1128
 21
446.014
  0
LINE
  8
0
 10
19.1128
 20
446.014
 11
19.2518
 21
445.774
  0
LINE
  8
0
 10
19.2518
 20
445.774
 11
19.3
 21
445.5
  0
LINE
  8
0
 10
19.3
 20
445.5
 11
19.2518
 21
445.226
  0
LINE
  8
0
 10
19.2518
 20
445.226
 11
19.1128
 21
444.986
  0
LINE
  8
0
 10
19.1128
 20
444.986
 11
18.9
 21
444.807
  0
LINE
  8
0
 10
18.9
 20
444.807
 11
18.6389
 21
444.712
  0
LINE
  8
0
 10
18.6389
 20
444.712
 11
18.3611
 21
444.712
  0
LINE
  8
0
 10
14.3611
 20
440.712
 11
14.1
 21
440.807
  0
LINE
  8
0
 10
14.1
 20
440.807
 11
13.8872
 21
440.986
  0
LINE
  8
0
 10
13.8872
 20
440.986
 11
13.7482
 21
441.226
  0
LINE
  8
0
 10
13.7482
 20
441.226
 11
13.7
 21
441.5
  0
LINE
  8
0
 10
13.7
 20
441.5
 11
13.7482
 21
441.774
  0
LINE
  8
0
 10
13.7482
 20
441.774
 11
13.8872
 21
442.014
  0
LINE
  8
0
 10
13.8872
 20
442.014
 11
14.1
 21
442.193
  0
LINE
  8
0
 10
14.1
 20
442.193
 11
14.3611
 21
442.288
  0
LINE
  8
0
 10
14.3611
 20
442.288
 11
14.6389
 21
442.288
  0
LINE
  8
0
 10
14.6389
 20
442.288
 11
14.9
 21
442.193
  0
LINE
  8
0
 10
14.9
 20
442.193
 11
15.1128
 21
442.014
  0
LINE
  8
0
 10
15.1128
 20
442.014
 11
15.2517
 21
441.774
  0
LINE
  8
0
 10
15.2517
 20
441.774
 11
15.3
 21
441.5
  0
LINE
  8
0
 10
15.3
 20
441.5
 11
15.2517
 21
441.226
  0
LINE
  8
0
 10
15.2517
 20
441.226
 11
15.1128
 21
440.986
  0
LINE
  8
0
 10
15.1128
 20
440.986
 11
14.9
 21
440.807
  0
LINE
  8
0
 10
14.9
 20
440.807
 11
14.6389
 21
440.712
  0
LINE
  8
0
 10
14.6389
 20
440.712
 11
14.3611
 21
440.712
  0
LINE
  8
0
 10
38.3611
 20
440.712
 11
38.1
 21
440.807
  0
LINE
  8
0
 10
38.1
 20
440.807
 11
37.8872
 21
440.986
  0
LINE
  8
0
 10
37.8872
 20
440.986
 11
37.7482
 21
441.226
  0
LINE
  8
0
 10
37.7482
 20
441.226
 11
37.7
 21
441.5
  0
LINE
  8
0
 10
37.7
 20
441.5
 11
37.7482
 21
441.774
  0
LINE
  8
0
 10
37.7482
 20
441.774
 11
37.8872
 21
442.014
  0
LINE
  8
0
 10
37.8872
 20
442.014
 11
38.1
 21
442.193
  0
LINE
  8
0
 10
38.1
 20
442.193
 11
38.3611
 21
442.288
  0
LINE
  8
0
 10
38.3611
 20
442.288
 11
38.6389
 21
442.288
  0
LINE
  8
0
 10
38.6389
 20
442.288
 11
38.9
 21
442.193
  0
LINE
  8
0
 10
38.9
 20
442.193
 11
39.1128
 21
442.014
  0
LINE
  8
0
 10
39.1128
 20
442.014
 11
39.2518
 21
441.774
  0
LINE
  8
0
 10
39.2518
 20
441.774
 11
39.3
 21
441.5
  0
LINE
  8
0
 10
39.3
 20
441.5
 11
39.2518
 21
441.226
  0
LINE
  8
0
 10
39.2518
 20
441.226
 11
39.1128
 21
440.986
  0
LINE
  8
0
 10
39.1128
 20
440.986
 11
38.9
 21
440.807
  0
LINE
  8
0
 10
38.9
 20
440.807
 11
38.6389
 21
440.712
  0
LINE
  8
0
 10
38.6389
 20
440.712
 11
38.3611
 21
440.712
  0
LINE
  8
0
 10
38.3611
 20
432.712
 11
38.1
 21
432.807
  0
LINE
  8
0
 10
38.1
 20
432.807
 11
37.8872
 21
432.986
  0
LINE
  8
0
 10
37.8872
 20
432.986
 11
37.7482
 21
433.226
  0
LINE
  8
0
 10
37.7482
 20
433.226
 11
37.7
 21
433.5
  0
LINE
  8
0
 10
37.7
 20
433.5
 11
37.7482
 21
433.774
  0
LINE
  8
0
 10
37.7482
 20
433.774
 11
37.8872
 21
434.014
  0
LINE
  8
0
 10
37.8872
 20
434.014
 11
38.1
 21
434.193
  0
LINE
  8
0
 10
38.1
 20
434.193
 11
38.3611
 21
434.288
  0
LINE
  8
0
 10
38.3611
 20
434.288
 11
38.6389
 21
434.288
  0
LINE
  8
0
 10
38.6389
 20
434.288
 11
38.9
 21
434.193
  0
LINE
  8
0
 10
38.9
 20
434.193
 11
39.1128
 21
434.014
  0
LINE
  8
0
 10
39.1128
 20
434.014
 11
39.2518
 21
433.774
  0
LINE
  8
0
 10
39.2518
 20
433.774
 11
39.3
 21
433.5
  0
LINE
  8
0
 10
39.3
 20
433.5
 11
39.2518
 21
433.226
  0
LINE
  8
0
 10
39.2518
 20
433.226
 11
39.1128
 21
432.986
  0
LINE
  8
0
 10
39.1128
 20
432.986
 11
38.9
 21
432.807
  0
LINE
  8
0
 10
38.9
 20
432.807
 11
38.6389
 21
432.712
  0
LINE
  8
0
 10
38.6389
 20
432.712
 11
38.3611
 21
432.712
  0
LINE
  8
0
 10
14.3611
 20
432.712
 11
14.1
 21
432.807
  0
LINE
  8
0
 10
14.1
 20
432.807
 11
13.8872
 21
432.986
  0
LINE
  8
0
 10
13.8872
 20
432.986
 11
13.7482
 21
433.226
  0
LINE
  8
0
 10
13.7482
 20
433.226
 11
13.7
 21
433.5
  0
LINE
  8
0
 10
13.7
 20
433.5
 11
13.7482
 21
433.774
  0
LINE
  8
0
 10
13.7482
 20
433.774
 11
13.8872
 21
434.014
  0
LINE
  8
0
 10
13.8872
 20
434.014
 11
14.1
 21
434.193
  0
LINE
  8
0
 10
14.1
 20
434.193
 11
14.3611
 21
434.288
  0
LINE
  8
0
 10
14.3611
 20
434.288
 11
14.6389
 21
434.288
  0
LINE
  8
0
 10
14.6389
 20
434.288
 11
14.9
 21
434.193
  0
LINE
  8
0
 10
14.9
 20
434.193
 11
15.1128
 21
434.014
  0
LINE
  8
0
 10
15.1128
 20
434.014
 11
15.2517
 21
433.774
  0
LINE
  8
0
 10
15.2517
 20
433.774
 11
15.3
 21
433.5
  0
LINE
  8
0
 10
15.3
 20
433.5
 11
15.2517
 21
433.226
  0
LINE
  8
0
 10
15.2517
 20
433.226
 11
15.1128
 21
432.986
  0
LINE
  8
0
 10
15.1128
 20
432.986
 11
14.9
 21
432.807
  0
LINE
  8
0
 10
14.9
 20
432.807
 11
14.6389
 21
432.712
  0
LINE
  8
0
 10
14.6389
 20
432.712
 11
14.3611
 21
432.712
  0
LINE
  8
0
 10
38.3611
 20
424.712
 11
38.1
 21
424.807
  0
LINE
  8
0
 10
38.1
 20
424.807
 11
37.8872
 21
424.986
  0
LINE
  8
0
 10
37.8872
 20
424.986
 11
37.7482
 21
425.226
  0
LINE
  8
0
 10
37.7482
 20
425.226
 11
37.7
 21
425.5
  0
LINE
  8
0
 10
37.7
 20
425.5
 11
37.7482
 21
425.774
  0
LINE
  8
0
 10
37.7482
 20
425.774
 11
37.8872
 21
426.014
  0
LINE
  8
0
 10
37.8872
 20
426.014
 11
38.1
 21
426.193
  0
LINE
  8
0
 10
38.1
 20
426.193
 11
38.3611
 21
426.288
  0
LINE
  8
0
 10
38.3611
 20
426.288
 11
38.6389
 21
426.288
  0
LINE
  8
0
 10
38.6389
 20
426.288
 11
38.9
 21
426.193
  0
LINE
  8
0
 10
38.9
 20
426.193
 11
39.1128
 21
426.014
  0
LINE
  8
0
 10
39.1128
 20
426.014
 11
39.2518
 21
425.774
  0
LINE
  8
0
 10
39.2518
 20
425.774
 11
39.3
 21
425.5
  0
LINE
  8
0
 10
39.3
 20
425.5
 11
39.2518
 21
425.226
  0
LINE
  8
0
 10
39.2518
 20
425.226
 11
39.1128
 21
424.986
  0
LINE
  8
0
 10
39.1128
 20
424.986
 11
38.9
 21
424.807
  0
LINE
  8
0
 10
38.9
 20
424.807
 11
38.6389
 21
424.712
  0
LINE
  8
0
 10
38.6389
 20
424.712
 11
38.3611
 21
424.712
  0
LINE
  8
0
 10
14.3611
 20
424.712
 11
14.1
 21
424.807
  0
LINE
  8
0
 10
14.1
 20
424.807
 11
13.8872
 21
424.986
  0
LINE
  8
0
 10
13.8872
 20
424.986
 11
13.7482
 21
425.226
  0
LINE
  8
0
 10
13.7482
 20
425.226
 11
13.7
 21
425.5
  0
LINE
  8
0
 10
13.7
 20
425.5
 11
13.7482
 21
425.774
  0
LINE
  8
0
 10
13.7482
 20
425.774
 11
13.8872
 21
426.014
  0
LINE
  8
0
 10
13.8872
 20
426.014
 11
14.1
 21
426.193
  0
LINE
  8
0
 10
14.1
 20
426.193
 11
14.3611
 21
426.288
  0
LINE
  8
0
 10
14.3611
 20
426.288
 11
14.6389
 21
426.288
  0
LINE
  8
0
 10
14.6389
 20
426.288
 11
14.9
 21
426.193
  0
LINE
  8
0
 10
14.9
 20
426.193
 11
15.1128
 21
426.014
  0
LINE
  8
0
 10
15.1128
 20
426.014
 11
15.2517
 21
425.774
  0
LINE
  8
0
 10
15.2517
 20
425.774
 11
15.3
 21
425.5
  0
LINE
  8
0
 10
15.3
 20
425.5
 11
15.2517
 21
425.226
  0
LINE
  8
0
 10
15.2517
 20
425.226
 11
15.1128
 21
424.986
  0
LINE
  8
0
 10
15.1128
 20
424.986
 11
14.9
 21
424.807
  0
LINE
  8
0
 10
14.9
 20
424.807
 11
14.6389
 21
424.712
  0
LINE
  8
0
 10
14.6389
 20
424.712
 11
14.3611
 21
424.712
  0
LINE
  8
0
 10
52.3611
 20
396.712
 11
52.1
 21
396.807
  0
LINE
  8
0
 10
52.1
 20
396.807
 11
51.8872
 21
396.986
  0
LINE
  8
0
 10
51.8872
 20
396.986
 11
51.7482
 21
397.226
  0
LINE
  8
0
 10
51.7482
 20
397.226
 11
51.7
 21
397.5
  0
LINE
  8
0
 10
51.7
 20
397.5
 11
51.7482
 21
397.774
  0
LINE
  8
0
 10
51.7482
 20
397.774
 11
51.8872
 21
398.014
  0
LINE
  8
0
 10
51.8872
 20
398.014
 11
52.1
 21
398.193
  0
LINE
  8
0
 10
52.1
 20
398.193
 11
52.3611
 21
398.288
  0
LINE
  8
0
 10
52.3611
 20
398.288
 11
52.6389
 21
398.288
  0
LINE
  8
0
 10
52.6389
 20
398.288
 11
52.9
 21
398.193
  0
LINE
  8
0
 10
52.9
 20
398.193
 11
53.1128
 21
398.014
  0
LINE
  8
0
 10
53.1128
 20
398.014
 11
53.2518
 21
397.774
  0
LINE
  8
0
 10
53.2518
 20
397.774
 11
53.3
 21
397.5
  0
LINE
  8
0
 10
53.3
 20
397.5
 11
53.2518
 21
397.226
  0
LINE
  8
0
 10
53.2518
 20
397.226
 11
53.1128
 21
396.986
  0
LINE
  8
0
 10
53.1128
 20
396.986
 11
52.9
 21
396.807
  0
LINE
  8
0
 10
52.9
 20
396.807
 11
52.6389
 21
396.712
  0
LINE
  8
0
 10
52.6389
 20
396.712
 11
52.3611
 21
396.712
  0
LINE
  8
0
 10
32.3611
 20
396.712
 11
32.1
 21
396.807
  0
LINE
  8
0
 10
32.1
 20
396.807
 11
31.8872
 21
396.986
  0
LINE
  8
0
 10
31.8872
 20
396.986
 11
31.7482
 21
397.226
  0
LINE
  8
0
 10
31.7482
 20
397.226
 11
31.7
 21
397.5
  0
LINE
  8
0
 10
31.7
 20
397.5
 11
31.7482
 21
397.774
  0
LINE
  8
0
 10
31.7482
 20
397.774
 11
31.8872
 21
398.014
  0
LINE
  8
0
 10
31.8872
 20
398.014
 11
32.1
 21
398.193
  0
LINE
  8
0
 10
32.1
 20
398.193
 11
32.3611
 21
398.288
  0
LINE
  8
0
 10
32.3611
 20
398.288
 11
32.6389
 21
398.288
  0
LINE
  8
0
 10
32.6389
 20
398.288
 11
32.9
 21
398.193
  0
LINE
  8
0
 10
32.9
 20
398.193
 11
33.1128
 21
398.014
  0
LINE
  8
0
 10
33.1128
 20
398.014
 11
33.2518
 21
397.774
  0
LINE
  8
0
 10
33.2518
 20
397.774
 11
33.3
 21
397.5
  0
LINE
  8
0
 10
33.3
 20
397.5
 11
33.2518
 21
397.226
  0
LINE
  8
0
 10
33.2518
 20
397.226
 11
33.1128
 21
396.986
  0
LINE
  8
0
 10
33.1128
 20
396.986
 11
32.9
 21
396.807
  0
LINE
  8
0
 10
32.9
 20
396.807
 11
32.6389
 21
396.712
  0
LINE
  8
0
 10
32.6389
 20
396.712
 11
32.3611
 21
396.712
  0
LINE
  8
0
 10
24.3611
 20
388.712
 11
24.1
 21
388.807
  0
LINE
  8
0
 10
24.1
 20
388.807
 11
23.8872
 21
388.986
  0
LINE
  8
0
 10
23.8872
 20
388.986
 11
23.7482
 21
389.226
  0
LINE
  8
0
 10
23.7482
 20
389.226
 11
23.7
 21
389.5
  0
LINE
  8
0
 10
23.7
 20
389.5
 11
23.7482
 21
389.774
  0
LINE
  8
0
 10
23.7482
 20
389.774
 11
23.8872
 21
390.014
  0
LINE
  8
0
 10
23.8872
 20
390.014
 11
24.1
 21
390.193
  0
LINE
  8
0
 10
24.1
 20
390.193
 11
24.3611
 21
390.288
  0
LINE
  8
0
 10
24.3611
 20
390.288
 11
24.6389
 21
390.288
  0
LINE
  8
0
 10
24.6389
 20
390.288
 11
24.9
 21
390.193
  0
LINE
  8
0
 10
24.9
 20
390.193
 11
25.1128
 21
390.014
  0
LINE
  8
0
 10
25.1128
 20
390.014
 11
25.2518
 21
389.774
  0
LINE
  8
0
 10
25.2518
 20
389.774
 11
25.3
 21
389.5
  0
LINE
  8
0
 10
25.3
 20
389.5
 11
25.2518
 21
389.226
  0
LINE
  8
0
 10
25.2518
 20
389.226
 11
25.1128
 21
388.986
  0
LINE
  8
0
 10
25.1128
 20
388.986
 11
24.9
 21
388.807
  0
LINE
  8
0
 10
24.9
 20
388.807
 11
24.6389
 21
388.712
  0
LINE
  8
0
 10
24.6389
 20
388.712
 11
24.3611
 21
388.712
  0
LINE
  8
0
 10
48.3611
 20
388.712
 11
48.1
 21
388.807
  0
LINE
  8
0
 10
48.1
 20
388.807
 11
47.8872
 21
388.986
  0
LINE
  8
0
 10
47.8872
 20
388.986
 11
47.7482
 21
389.226
  0
LINE
  8
0
 10
47.7482
 20
389.226
 11
47.7
 21
389.5
  0
LINE
  8
0
 10
47.7
 20
389.5
 11
47.7482
 21
389.774
  0
LINE
  8
0
 10
47.7482
 20
389.774
 11
47.8872
 21
390.014
  0
LINE
  8
0
 10
47.8872
 20
390.014
 11
48.1
 21
390.193
  0
LINE
  8
0
 10
48.1
 20
390.193
 11
48.3611
 21
390.288
  0
LINE
  8
0
 10
48.3611
 20
390.288
 11
48.6389
 21
390.288
  0
LINE
  8
0
 10
48.6389
 20
390.288
 11
48.9
 21
390.193
  0
LINE
  8
0
 10
48.9
 20
390.193
 11
49.1128
 21
390.014
  0
LINE
  8
0
 10
49.1128
 20
390.014
 11
49.2518
 21
389.774
  0
LINE
  8
0
 10
49.2518
 20
389.774
 11
49.3
 21
389.5
  0
LINE
  8
0
 10
49.3
 20
389.5
 11
49.2518
 21
389.226
  0
LINE
  8
0
 10
49.2518
 20
389.226
 11
49.1128
 21
388.986
  0
LINE
  8
0
 10
49.1128
 20
388.986
 11
48.9
 21
388.807
  0
LINE
  8
0
 10
48.9
 20
388.807
 11
48.6389
 21
388.712
  0
LINE
  8
0
 10
48.6389
 20
388.712
 11
48.3611
 21
388.712
  0
LINE
  8
0
 10
22.3611
 20
380.712
 11
22.1
 21
380.807
  0
LINE
  8
0
 10
22.1
 20
380.807
 11
21.8872
 21
380.986
  0
LINE
  8
0
 10
21.8872
 20
380.986
 11
21.7482
 21
381.226
  0
LINE
  8
0
 10
21.7482
 20
381.226
 11
21.7
 21
381.5
  0
LINE
  8
0
 10
21.7
 20
381.5
 11
21.7482
 21
381.774
  0
LINE
  8
0
 10
21.7482
 20
381.774
 11
21.8872
 21
382.014
  0
LINE
  8
0
 10
21.8872
 20
382.014
 11
22.1
 21
382.193
  0
LINE
  8
0
 10
22.1
 20
382.193
 11
22.3611
 21
382.288
  0
LINE
  8
0
 10
22.3611
 20
382.288
 11
22.6389
 21
382.288
  0
LINE
  8
0
 10
22.6389
 20
382.288
 11
22.9
 21
382.193
  0
LINE
  8
0
 10
22.9
 20
382.193
 11
23.1128
 21
382.014
  0
LINE
  8
0
 10
23.1128
 20
382.014
 11
23.2518
 21
381.774
  0
LINE
  8
0
 10
23.2518
 20
381.774
 11
23.3
 21
381.5
  0
LINE
  8
0
 10
23.3
 20
381.5
 11
23.2518
 21
381.226
  0
LINE
  8
0
 10
23.2518
 20
381.226
 11
23.1128
 21
380.986
  0
LINE
  8
0
 10
23.1128
 20
380.986
 11
22.9
 21
380.807
  0
LINE
  8
0
 10
22.9
 20
380.807
 11
22.6389
 21
380.712
  0
LINE
  8
0
 10
22.6389
 20
380.712
 11
22.3611
 21
380.712
  0
LINE
  8
0
 10
46.3611
 20
380.712
 11
46.1
 21
380.807
  0
LINE
  8
0
 10
46.1
 20
380.807
 11
45.8872
 21
380.986
  0
LINE
  8
0
 10
45.8872
 20
380.986
 11
45.7482
 21
381.226
  0
LINE
  8
0
 10
45.7482
 20
381.226
 11
45.7
 21
381.5
  0
LINE
  8
0
 10
45.7
 20
381.5
 11
45.7482
 21
381.774
  0
LINE
  8
0
 10
45.7482
 20
381.774
 11
45.8872
 21
382.014
  0
LINE
  8
0
 10
45.8872
 20
382.014
 11
46.1
 21
382.193
  0
LINE
  8
0
 10
46.1
 20
382.193
 11
46.3611
 21
382.288
  0
LINE
  8
0
 10
46.3611
 20
382.288
 11
46.6389
 21
382.288
  0
LINE
  8
0
 10
46.6389
 20
382.288
 11
46.9
 21
382.193
  0
LINE
  8
0
 10
46.9
 20
382.193
 11
47.1128
 21
382.014
  0
LINE
  8
0
 10
47.1128
 20
382.014
 11
47.2518
 21
381.774
  0
LINE
  8
0
 10
47.2518
 20
381.774
 11
47.3
 21
381.5
  0
LINE
  8
0
 10
47.3
 20
381.5
 11
47.2518
 21
381.226
  0
LINE
  8
0
 10
47.2518
 20
381.226
 11
47.1128
 21
380.986
  0
LINE
  8
0
 10
47.1128
 20
380.986
 11
46.9
 21
380.807
  0
LINE
  8
0
 10
46.9
 20
380.807
 11
46.6389
 21
380.712
  0
LINE
  8
0
 10
46.6389
 20
380.712
 11
46.3611
 21
380.712
  0
LINE
  8
0
 10
42.3611
 20
376.712
 11
42.1
 21
376.807
  0
LINE
  8
0
 10
42.1
 20
376.807
 11
41.8872
 21
376.986
  0
LINE
  8
0
 10
41.8872
 20
376.986
 11
41.7482
 21
377.226
  0
LINE
  8
0
 10
41.7482
 20
377.226
 11
41.7
 21
377.5
  0
LINE
  8
0
 10
41.7
 20
377.5
 11
41.7482
 21
377.774
  0
LINE
  8
0
 10
41.7482
 20
377.774
 11
41.8872
 21
378.014
  0
LINE
  8
0
 10
41.8872
 20
378.014
 11
42.1
 21
378.193
  0
LINE
  8
0
 10
42.1
 20
378.193
 11
42.3611
 21
378.288
  0
LINE
  8
0
 10
42.3611
 20
378.288
 11
42.6389
 21
378.288
  0
LINE
  8
0
 10
42.6389
 20
378.288
 11
42.9
 21
378.193
  0
LINE
  8
0
 10
42.9
 20
378.193
 11
43.1128
 21
378.014
  0
LINE
  8
0
 10
43.1128
 20
378.014
 11
43.2518
 21
377.774
  0
LINE
  8
0
 10
43.2518
 20
377.774
 11
43.3
 21
377.5
  0
LINE
  8
0
 10
43.3
 20
377.5
 11
43.2518
 21
377.226
  0
LINE
  8
0
 10
43.2518
 20
377.226
 11
43.1128
 21
376.986
  0
LINE
  8
0
 10
43.1128
 20
376.986
 11
42.9
 21
376.807
  0
LINE
  8
0
 10
42.9
 20
376.807
 11
42.6389
 21
376.712
  0
LINE
  8
0
 10
42.6389
 20
376.712
 11
42.3611
 21
376.712
  0
LINE
  8
0
 10
18.3611
 20
376.712
 11
18.1
 21
376.807
  0
LINE
  8
0
 10
18.1
 20
376.807
 11
17.8872
 21
376.986
  0
LINE
  8
0
 10
17.8872
 20
376.986
 11
17.7482
 21
377.226
  0
LINE
  8
0
 10
17.7482
 20
377.226
 11
17.7
 21
377.5
  0
LINE
  8
0
 10
17.7
 20
377.5
 11
17.7482
 21
377.774
  0
LINE
  8
0
 10
17.7482
 20
377.774
 11
17.8872
 21
378.014
  0
LINE
  8
0
 10
17.8872
 20
378.014
 11
18.1
 21
378.193
  0
LINE
  8
0
 10
18.1
 20
378.193
 11
18.3611
 21
378.288
  0
LINE
  8
0
 10
18.3611
 20
378.288
 11
18.6389
 21
378.288
  0
LINE
  8
0
 10
18.6389
 20
378.288
 11
18.9
 21
378.193
  0
LINE
  8
0
 10
18.9
 20
378.193
 11
19.1128
 21
378.014
  0
LINE
  8
0
 10
19.1128
 20
378.014
 11
19.2518
 21
377.774
  0
LINE
  8
0
 10
19.2518
 20
377.774
 11
19.3
 21
377.5
  0
LINE
  8
0
 10
19.3
 20
377.5
 11
19.2518
 21
377.226
  0
LINE
  8
0
 10
19.2518
 20
377.226
 11
19.1128
 21
376.986
  0
LINE
  8
0
 10
19.1128
 20
376.986
 11
18.9
 21
376.807
  0
LINE
  8
0
 10
18.9
 20
376.807
 11
18.6389
 21
376.712
  0
LINE
  8
0
 10
18.6389
 20
376.712
 11
18.3611
 21
376.712
  0
LINE
  8
0
 10
18.3611
 20
368.712
 11
18.1
 21
368.807
  0
LINE
  8
0
 10
18.1
 20
368.807
 11
17.8872
 21
368.986
  0
LINE
  8
0
 10
17.8872
 20
368.986
 11
17.7482
 21
369.226
  0
LINE
  8
0
 10
17.7482
 20
369.226
 11
17.7
 21
369.5
  0
LINE
  8
0
 10
17.7
 20
369.5
 11
17.7482
 21
369.774
  0
LINE
  8
0
 10
17.7482
 20
369.774
 11
17.8872
 21
370.014
  0
LINE
  8
0
 10
17.8872
 20
370.014
 11
18.1
 21
370.193
  0
LINE
  8
0
 10
18.1
 20
370.193
 11
18.3611
 21
370.288
  0
LINE
  8
0
 10
18.3611
 20
370.288
 11
18.6389
 21
370.288
  0
LINE
  8
0
 10
18.6389
 20
370.288
 11
18.9
 21
370.193
  0
LINE
  8
0
 10
18.9
 20
370.193
 11
19.1128
 21
370.014
  0
LINE
  8
0
 10
19.1128
 20
370.014
 11
19.2518
 21
369.774
  0
LINE
  8
0
 10
19.2518
 20
369.774
 11
19.3
 21
369.5
  0
LINE
  8
0
 10
19.3
 20
369.5
 11
19.2518
 21
369.226
  0
LINE
  8
0
 10
19.2518
 20
369.226
 11
19.1128
 21
368.986
  0
LINE
  8
0
 10
19.1128
 20
368.986
 11
18.9
 21
368.807
  0
LINE
  8
0
 10
18.9
 20
368.807
 11
18.6389
 21
368.712
  0
LINE
  8
0
 10
18.6389
 20
368.712
 11
18.3611
 21
368.712
  0
LINE
  8
0
 10
42.3611
 20
368.712
 11
42.1
 21
368.807
  0
LINE
  8
0
 10
42.1
 20
368.807
 11
41.8872
 21
368.986
  0
LINE
  8
0
 10
41.8872
 20
368.986
 11
41.7482
 21
369.226
  0
LINE
  8
0
 10
41.7482
 20
369.226
 11
41.7
 21
369.5
  0
LINE
  8
0
 10
41.7
 20
369.5
 11
41.7482
 21
369.774
  0
LINE
  8
0
 10
41.7482
 20
369.774
 11
41.8872
 21
370.014
  0
LINE
  8
0
 10
41.8872
 20
370.014
 11
42.1
 21
370.193
  0
LINE
  8
0
 10
42.1
 20
370.193
 11
42.3611
 21
370.288
  0
LINE
  8
0
 10
42.3611
 20
370.288
 11
42.6389
 21
370.288
  0
LINE
  8
0
 10
42.6389
 20
370.288
 11
42.9
 21
370.193
  0
LINE
  8
0
 10
42.9
 20
370.193
 11
43.1128
 21
370.014
  0
LINE
  8
0
 10
43.1128
 20
370.014
 11
43.2518
 21
369.774
  0
LINE
  8
0
 10
43.2518
 20
369.774
 11
43.3
 21
369.5
  0
LINE
  8
0
 10
43.3
 20
369.5
 11
43.2518
 21
369.226
  0
LINE
  8
0
 10
43.2518
 20
369.226
 11
43.1128
 21
368.986
  0
LINE
  8
0
 10
43.1128
 20
368.986
 11
42.9
 21
368.807
  0
LINE
  8
0
 10
42.9
 20
368.807
 11
42.6389
 21
368.712
  0
LINE
  8
0
 10
42.6389
 20
368.712
 11
42.3611
 21
368.712
  0
LINE
  8
0
 10
18.3611
 20
360.712
 11
18.1
 21
360.807
  0
LINE
  8
0
 10
18.1
 20
360.807
 11
17.8872
 21
360.986
  0
LINE
  8
0
 10
17.8872
 20
360.986
 11
17.7482
 21
361.226
  0
LINE
  8
0
 10
17.7482
 20
361.226
 11
17.7
 21
361.5
  0
LINE
  8
0
 10
17.7
 20
361.5
 11
17.7482
 21
361.774
  0
LINE
  8
0
 10
17.7482
 20
361.774
 11
17.8872
 21
362.014
  0
LINE
  8
0
 10
17.8872
 20
362.014
 11
18.1
 21
362.193
  0
LINE
  8
0
 10
18.1
 20
362.193
 11
18.3611
 21
362.288
  0
LINE
  8
0
 10
18.3611
 20
362.288
 11
18.6389
 21
362.288
  0
LINE
  8
0
 10
18.6389
 20
362.288
 11
18.9
 21
362.193
  0
LINE
  8
0
 10
18.9
 20
362.193
 11
19.1128
 21
362.014
  0
LINE
  8
0
 10
19.1128
 20
362.014
 11
19.2518
 21
361.774
  0
LINE
  8
0
 10
19.2518
 20
361.774
 11
19.3
 21
361.5
  0
LINE
  8
0
 10
19.3
 20
361.5
 11
19.2518
 21
361.226
  0
LINE
  8
0
 10
19.2518
 20
361.226
 11
19.1128
 21
360.986
  0
LINE
  8
0
 10
19.1128
 20
360.986
 11
18.9
 21
360.807
  0
LINE
  8
0
 10
18.9
 20
360.807
 11
18.6389
 21
360.712
  0
LINE
  8
0
 10
18.6389
 20
360.712
 11
18.3611
 21
360.712
  0
LINE
  8
0
 10
42.3611
 20
360.712
 11
42.1
 21
360.807
  0
LINE
  8
0
 10
42.1
 20
360.807
 11
41.8872
 21
360.986
  0
LINE
  8
0
 10
41.8872
 20
360.986
 11
41.7482
 21
361.226
  0
LINE
  8
0
 10
41.7482
 20
361.226
 11
41.7
 21
361.5
  0
LINE
  8
0
 10
41.7
 20
361.5
 11
41.7482
 21
361.774
  0
LINE
  8
0
 10
41.7482
 20
361.774
 11
41.8872
 21
362.014
  0
LINE
  8
0
 10
41.8872
 20
362.014
 11
42.1
 21
362.193
  0
LINE
  8
0
 10
42.1
 20
362.193
 11
42.3611
 21
362.288
  0
LINE
  8
0
 10
42.3611
 20
362.288
 11
42.6389
 21
362.288
  0
LINE
  8
0
 10
42.6389
 20
362.288
 11
42.9
 21
362.193
  0
LINE
  8
0
 10
42.9
 20
362.193
 11
43.1128
 21
362.014
  0
LINE
  8
0
 10
43.1128
 20
362.014
 11
43.2518
 21
361.774
  0
LINE
  8
0
 10
43.2518
 20
361.774
 11
43.3
 21
361.5
  0
LINE
  8
0
 10
43.3
 20
361.5
 11
43.2518
 21
361.226
  0
LINE
  8
0
 10
43.2518
 20
361.226
 11
43.1128
 21
360.986
  0
LINE
  8
0
 10
43.1128
 20
360.986
 11
42.9
 21
360.807
  0
LINE
  8
0
 10
42.9
 20
360.807
 11
42.6389
 21
360.712
  0
LINE
  8
0
 10
42.6389
 20
360.712
 11
42.3611
 21
360.712
  0
LINE
  8
0
 10
48.3611
 20
352.712
 11
48.1
 21
352.807
  0
LINE
  8
0
 10
48.1
 20
352.807
 11
47.8872
 21
352.986
  0
LINE
  8
0
 10
47.8872
 20
352.986
 11
47.7482
 21
353.226
  0
LINE
  8
0
 10
47.7482
 20
353.226
 11
47.7
 21
353.5
  0
LINE
  8
0
 10
47.7
 20
353.5
 11
47.7482
 21
353.774
  0
LINE
  8
0
 10
47.7482
 20
353.774
 11
47.8872
 21
354.014
  0
LINE
  8
0
 10
47.8872
 20
354.014
 11
48.1
 21
354.193
  0
LINE
  8
0
 10
48.1
 20
354.193
 11
48.3611
 21
354.288
  0
LINE
  8
0
 10
48.3611
 20
354.288
 11
48.6389
 21
354.288
  0
LINE
  8
0
 10
48.6389
 20
354.288
 11
48.9
 21
354.193
  0
LINE
  8
0
 10
48.9
 20
354.193
 11
49.1128
 21
354.014
  0
LINE
  8
0
 10
49.1128
 20
354.014
 11
49.2518
 21
353.774
  0
LINE
  8
0
 10
49.2518
 20
353.774
 11
49.3
 21
353.5
  0
LINE
  8
0
 10
49.3
 20
353.5
 11
49.2518
 21
353.226
  0
LINE
  8
0
 10
49.2518
 20
353.226
 11
49.1128
 21
352.986
  0
LINE
  8
0
 10
49.1128
 20
352.986
 11
48.9
 21
352.807
  0
LINE
  8
0
 10
48.9
 20
352.807
 11
48.6389
 21
352.712
  0
LINE
  8
0
 10
48.6389
 20
352.712
 11
48.3611
 21
352.712
  0
LINE
  8
0
 10
24.3611
 20
352.712
 11
24.1
 21
352.807
  0
LINE
  8
0
 10
24.1
 20
352.807
 11
23.8872
 21
352.986
  0
LINE
  8
0
 10
23.8872
 20
352.986
 11
23.7482
 21
353.226
  0
LINE
  8
0
 10
23.7482
 20
353.226
 11
23.7
 21
353.5
  0
LINE
  8
0
 10
23.7
 20
353.5
 11
23.7482
 21
353.774
  0
LINE
  8
0
 10
23.7482
 20
353.774
 11
23.8872
 21
354.014
  0
LINE
  8
0
 10
23.8872
 20
354.014
 11
24.1
 21
354.193
  0
LINE
  8
0
 10
24.1
 20
354.193
 11
24.3611
 21
354.288
  0
LINE
  8
0
 10
24.3611
 20
354.288
 11
24.6389
 21
354.288
  0
LINE
  8
0
 10
24.6389
 20
354.288
 11
24.9
 21
354.193
  0
LINE
  8
0
 10
24.9
 20
354.193
 11
25.1128
 21
354.014
  0
LINE
  8
0
 10
25.1128
 20
354.014
 11
25.2518
 21
353.774
  0
LINE
  8
0
 10
25.2518
 20
353.774
 11
25.3
 21
353.5
  0
LINE
  8
0
 10
25.3
 20
353.5
 11
25.2518
 21
353.226
  0
LINE
  8
0
 10
25.2518
 20
353.226
 11
25.1128
 21
352.986
  0
LINE
  8
0
 10
25.1128
 20
352.986
 11
24.9
 21
352.807
  0
LINE
  8
0
 10
24.9
 20
352.807
 11
24.6389
 21
352.712
  0
LINE
  8
0
 10
24.6389
 20
352.712
 11
24.3611
 21
352.712
  0
LINE
  8
0
 10
42.3611
 20
348.712
 11
42.1
 21
348.807
  0
LINE
  8
0
 10
42.1
 20
348.807
 11
41.8872
 21
348.986
  0
LINE
  8
0
 10
41.8872
 20
348.986
 11
41.7482
 21
349.226
  0
LINE
  8
0
 10
41.7482
 20
349.226
 11
41.7
 21
349.5
  0
LINE
  8
0
 10
41.7
 20
349.5
 11
41.7482
 21
349.774
  0
LINE
  8
0
 10
41.7482
 20
349.774
 11
41.8872
 21
350.014
  0
LINE
  8
0
 10
41.8872
 20
350.014
 11
42.1
 21
350.193
  0
LINE
  8
0
 10
42.1
 20
350.193
 11
42.3611
 21
350.288
  0
LINE
  8
0
 10
42.3611
 20
350.288
 11
42.6389
 21
350.288
  0
LINE
  8
0
 10
42.6389
 20
350.288
 11
42.9
 21
350.193
  0
LINE
  8
0
 10
42.9
 20
350.193
 11
43.1128
 21
350.014
  0
LINE
  8
0
 10
43.1128
 20
350.014
 11
43.2518
 21
349.774
  0
LINE
  8
0
 10
43.2518
 20
349.774
 11
43.3
 21
349.5
  0
LINE
  8
0
 10
43.3
 20
349.5
 11
43.2518
 21
349.226
  0
LINE
  8
0
 10
43.2518
 20
349.226
 11
43.1128
 21
348.986
  0
LINE
  8
0
 10
43.1128
 20
348.986
 11
42.9
 21
348.807
  0
LINE
  8
0
 10
42.9
 20
348.807
 11
42.6389
 21
348.712
  0
LINE
  8
0
 10
42.6389
 20
348.712
 11
42.3611
 21
348.712
  0
LINE
  8
0
 10
18.3611
 20
348.712
 11
18.1
 21
348.807
  0
LINE
  8
0
 10
18.1
 20
348.807
 11
17.8872
 21
348.986
  0
LINE
  8
0
 10
17.8872
 20
348.986
 11
17.7482
 21
349.226
  0
LINE
  8
0
 10
17.7482
 20
349.226
 11
17.7
 21
349.5
  0
LINE
  8
0
 10
17.7
 20
349.5
 11
17.7482
 21
349.774
  0
LINE
  8
0
 10
17.7482
 20
349.774
 11
17.8872
 21
350.014
  0
LINE
  8
0
 10
17.8872
 20
350.014
 11
18.1
 21
350.193
  0
LINE
  8
0
 10
18.1
 20
350.193
 11
18.3611
 21
350.288
  0
LINE
  8
0
 10
18.3611
 20
350.288
 11
18.6389
 21
350.288
  0
LINE
  8
0
 10
18.6389
 20
350.288
 11
18.9
 21
350.193
  0
LINE
  8
0
 10
18.9
 20
350.193
 11
19.1128
 21
350.014
  0
LINE
  8
0
 10
19.1128
 20
350.014
 11
19.2518
 21
349.774
  0
LINE
  8
0
 10
19.2518
 20
349.774
 11
19.3
 21
349.5
  0
LINE
  8
0
 10
19.3
 20
349.5
 11
19.2518
 21
349.226
  0
LINE
  8
0
 10
19.2518
 20
349.226
 11
19.1128
 21
348.986
  0
LINE
  8
0
 10
19.1128
 20
348.986
 11
18.9
 21
348.807
  0
LINE
  8
0
 10
18.9
 20
348.807
 11
18.6389
 21
348.712
  0
LINE
  8
0
 10
18.6389
 20
348.712
 11
18.3611
 21
348.712
  0
LINE
  8
0
 10
38.3611
 20
344.712
 11
38.1
 21
344.807
  0
LINE
  8
0
 10
38.1
 20
344.807
 11
37.8872
 21
344.986
  0
LINE
  8
0
 10
37.8872
 20
344.986
 11
37.7482
 21
345.226
  0
LINE
  8
0
 10
37.7482
 20
345.226
 11
37.7
 21
345.5
  0
LINE
  8
0
 10
37.7
 20
345.5
 11
37.7482
 21
345.774
  0
LINE
  8
0
 10
37.7482
 20
345.774
 11
37.8872
 21
346.014
  0
LINE
  8
0
 10
37.8872
 20
346.014
 11
38.1
 21
346.193
  0
LINE
  8
0
 10
38.1
 20
346.193
 11
38.3611
 21
346.288
  0
LINE
  8
0
 10
38.3611
 20
346.288
 11
38.6389
 21
346.288
  0
LINE
  8
0
 10
38.6389
 20
346.288
 11
38.9
 21
346.193
  0
LINE
  8
0
 10
38.9
 20
346.193
 11
39.1128
 21
346.014
  0
LINE
  8
0
 10
39.1128
 20
346.014
 11
39.2518
 21
345.774
  0
LINE
  8
0
 10
39.2518
 20
345.774
 11
39.3
 21
345.5
  0
LINE
  8
0
 10
39.3
 20
345.5
 11
39.2518
 21
345.226
  0
LINE
  8
0
 10
39.2518
 20
345.226
 11
39.1128
 21
344.986
  0
LINE
  8
0
 10
39.1128
 20
344.986
 11
38.9
 21
344.807
  0
LINE
  8
0
 10
38.9
 20
344.807
 11
38.6389
 21
344.712
  0
LINE
  8
0
 10
38.6389
 20
344.712
 11
38.3611
 21
344.712
  0
LINE
  8
0
 10
14.3611
 20
344.712
 11
14.1
 21
344.807
  0
LINE
  8
0
 10
14.1
 20
344.807
 11
13.8872
 21
344.986
  0
LINE
  8
0
 10
13.8872
 20
344.986
 11
13.7482
 21
345.226
  0
LINE
  8
0
 10
13.7482
 20
345.226
 11
13.7
 21
345.5
  0
LINE
  8
0
 10
13.7
 20
345.5
 11
13.7482
 21
345.774
  0
LINE
  8
0
 10
13.7482
 20
345.774
 11
13.8872
 21
346.014
  0
LINE
  8
0
 10
13.8872
 20
346.014
 11
14.1
 21
346.193
  0
LINE
  8
0
 10
14.1
 20
346.193
 11
14.3611
 21
346.288
  0
LINE
  8
0
 10
14.3611
 20
346.288
 11
14.6389
 21
346.288
  0
LINE
  8
0
 10
14.6389
 20
346.288
 11
14.9
 21
346.193
  0
LINE
  8
0
 10
14.9
 20
346.193
 11
15.1128
 21
346.014
  0
LINE
  8
0
 10
15.1128
 20
346.014
 11
15.2517
 21
345.774
  0
LINE
  8
0
 10
15.2517
 20
345.774
 11
15.3
 21
345.5
  0
LINE
  8
0
 10
15.3
 20
345.5
 11
15.2517
 21
345.226
  0
LINE
  8
0
 10
15.2517
 20
345.226
 11
15.1128
 21
344.986
  0
LINE
  8
0
 10
15.1128
 20
344.986
 11
14.9
 21
344.807
  0
LINE
  8
0
 10
14.9
 20
344.807
 11
14.6389
 21
344.712
  0
LINE
  8
0
 10
14.6389
 20
344.712
 11
14.3611
 21
344.712
  0
LINE
  8
0
 10
38.3611
 20
336.712
 11
38.1
 21
336.807
  0
LINE
  8
0
 10
38.1
 20
336.807
 11
37.8872
 21
336.986
  0
LINE
  8
0
 10
37.8872
 20
336.986
 11
37.7482
 21
337.226
  0
LINE
  8
0
 10
37.7482
 20
337.226
 11
37.7
 21
337.5
  0
LINE
  8
0
 10
37.7
 20
337.5
 11
37.7482
 21
337.774
  0
LINE
  8
0
 10
37.7482
 20
337.774
 11
37.8872
 21
338.014
  0
LINE
  8
0
 10
37.8872
 20
338.014
 11
38.1
 21
338.193
  0
LINE
  8
0
 10
38.1
 20
338.193
 11
38.3611
 21
338.288
  0
LINE
  8
0
 10
38.3611
 20
338.288
 11
38.6389
 21
338.288
  0
LINE
  8
0
 10
38.6389
 20
338.288
 11
38.9
 21
338.193
  0
LINE
  8
0
 10
38.9
 20
338.193
 11
39.1128
 21
338.014
  0
LINE
  8
0
 10
39.1128
 20
338.014
 11
39.2518
 21
337.774
  0
LINE
  8
0
 10
39.2518
 20
337.774
 11
39.3
 21
337.5
  0
LINE
  8
0
 10
39.3
 20
337.5
 11
39.2518
 21
337.226
  0
LINE
  8
0
 10
39.2518
 20
337.226
 11
39.1128
 21
336.986
  0
LINE
  8
0
 10
39.1128
 20
336.986
 11
38.9
 21
336.807
  0
LINE
  8
0
 10
38.9
 20
336.807
 11
38.6389
 21
336.712
  0
LINE
  8
0
 10
38.6389
 20
336.712
 11
38.3611
 21
336.712
  0
LINE
  8
0
 10
14.3611
 20
336.712
 11
14.1
 21
336.807
  0
LINE
  8
0
 10
14.1
 20
336.807
 11
13.8872
 21
336.986
  0
LINE
  8
0
 10
13.8872
 20
336.986
 11
13.7482
 21
337.226
  0
LINE
  8
0
 10
13.7482
 20
337.226
 11
13.7
 21
337.5
  0
LINE
  8
0
 10
13.7
 20
337.5
 11
13.7482
 21
337.774
  0
LINE
  8
0
 10
13.7482
 20
337.774
 11
13.8872
 21
338.014
  0
LINE
  8
0
 10
13.8872
 20
338.014
 11
14.1
 21
338.193
  0
LINE
  8
0
 10
14.1
 20
338.193
 11
14.3611
 21
338.288
  0
LINE
  8
0
 10
14.3611
 20
338.288
 11
14.6389
 21
338.288
  0
LINE
  8
0
 10
14.6389
 20
338.288
 11
14.9
 21
338.193
  0
LINE
  8
0
 10
14.9
 20
338.193
 11
15.1128
 21
338.014
  0
LINE
  8
0
 10
15.1128
 20
338.014
 11
15.2517
 21
337.774
  0
LINE
  8
0
 10
15.2517
 20
337.774
 11
15.3
 21
337.5
  0
LINE
  8
0
 10
15.3
 20
337.5
 11
15.2517
 21
337.226
  0
LINE
  8
0
 10
15.2517
 20
337.226
 11
15.1128
 21
336.986
  0
LINE
  8
0
 10
15.1128
 20
336.986
 11
14.9
 21
336.807
  0
LINE
  8
0
 10
14.9
 20
336.807
 11
14.6389
 21
336.712
  0
LINE
  8
0
 10
14.6389
 20
336.712
 11
14.3611
 21
336.712
  0
LINE
  8
0
 10
38.3611
 20
328.712
 11
38.1
 21
328.807
  0
LINE
  8
0
 10
38.1
 20
328.807
 11
37.8872
 21
328.986
  0
LINE
  8
0
 10
37.8872
 20
328.986
 11
37.7482
 21
329.226
  0
LINE
  8
0
 10
37.7482
 20
329.226
 11
37.7
 21
329.5
  0
LINE
  8
0
 10
37.7
 20
329.5
 11
37.7482
 21
329.774
  0
LINE
  8
0
 10
37.7482
 20
329.774
 11
37.8872
 21
330.014
  0
LINE
  8
0
 10
37.8872
 20
330.014
 11
38.1
 21
330.193
  0
LINE
  8
0
 10
38.1
 20
330.193
 11
38.3611
 21
330.288
  0
LINE
  8
0
 10
38.3611
 20
330.288
 11
38.6389
 21
330.288
  0
LINE
  8
0
 10
38.6389
 20
330.288
 11
38.9
 21
330.193
  0
LINE
  8
0
 10
38.9
 20
330.193
 11
39.1128
 21
330.014
  0
LINE
  8
0
 10
39.1128
 20
330.014
 11
39.2518
 21
329.774
  0
LINE
  8
0
 10
39.2518
 20
329.774
 11
39.3
 21
329.5
  0
LINE
  8
0
 10
39.3
 20
329.5
 11
39.2518
 21
329.226
  0
LINE
  8
0
 10
39.2518
 20
329.226
 11
39.1128
 21
328.986
  0
LINE
  8
0
 10
39.1128
 20
328.986
 11
38.9
 21
328.807
  0
LINE
  8
0
 10
38.9
 20
328.807
 11
38.6389
 21
328.712
  0
LINE
  8
0
 10
38.6389
 20
328.712
 11
38.3611
 21
328.712
  0
LINE
  8
0
 10
14.3611
 20
328.712
 11
14.1
 21
328.807
  0
LINE
  8
0
 10
14.1
 20
328.807
 11
13.8872
 21
328.986
  0
LINE
  8
0
 10
13.8872
 20
328.986
 11
13.7482
 21
329.226
  0
LINE
  8
0
 10
13.7482
 20
329.226
 11
13.7
 21
329.5
  0
LINE
  8
0
 10
13.7
 20
329.5
 11
13.7482
 21
329.774
  0
LINE
  8
0
 10
13.7482
 20
329.774
 11
13.8872
 21
330.014
  0
LINE
  8
0
 10
13.8872
 20
330.014
 11
14.1
 21
330.193
  0
LINE
  8
0
 10
14.1
 20
330.193
 11
14.3611
 21
330.288
  0
LINE
  8
0
 10
14.3611
 20
330.288
 11
14.6389
 21
330.288
  0
LINE
  8
0
 10
14.6389
 20
330.288
 11
14.9
 21
330.193
  0
LINE
  8
0
 10
14.9
 20
330.193
 11
15.1128
 21
330.014
  0
LINE
  8
0
 10
15.1128
 20
330.014
 11
15.2517
 21
329.774
  0
LINE
  8
0
 10
15.2517
 20
329.774
 11
15.3
 21
329.5
  0
LINE
  8
0
 10
15.3
 20
329.5
 11
15.2517
 21
329.226
  0
LINE
  8
0
 10
15.2517
 20
329.226
 11
15.1128
 21
328.986
  0
LINE
  8
0
 10
15.1128
 20
328.986
 11
14.9
 21
328.807
  0
LINE
  8
0
 10
14.9
 20
328.807
 11
14.6389
 21
328.712
  0
LINE
  8
0
 10
14.6389
 20
328.712
 11
14.3611
 21
328.712
  0
LINE
  8
0
 10
48.3611
 20
320.712
 11
48.1
 21
320.807
  0
LINE
  8
0
 10
48.1
 20
320.807
 11
47.8872
 21
320.986
  0
LINE
  8
0
 10
47.8872
 20
320.986
 11
47.7482
 21
321.226
  0
LINE
  8
0
 10
47.7482
 20
321.226
 11
47.7
 21
321.5
  0
LINE
  8
0
 10
47.7
 20
321.5
 11
47.7482
 21
321.774
  0
LINE
  8
0
 10
47.7482
 20
321.774
 11
47.8872
 21
322.014
  0
LINE
  8
0
 10
47.8872
 20
322.014
 11
48.1
 21
322.193
  0
LINE
  8
0
 10
48.1
 20
322.193
 11
48.3611
 21
322.288
  0
LINE
  8
0
 10
48.3611
 20
322.288
 11
48.6389
 21
322.288
  0
LINE
  8
0
 10
48.6389
 20
322.288
 11
48.9
 21
322.193
  0
LINE
  8
0
 10
48.9
 20
322.193
 11
49.1128
 21
322.014
  0
LINE
  8
0
 10
49.1128
 20
322.014
 11
49.2518
 21
321.774
  0
LINE
  8
0
 10
49.2518
 20
321.774
 11
49.3
 21
321.5
  0
LINE
  8
0
 10
49.3
 20
321.5
 11
49.2518
 21
321.226
  0
LINE
  8
0
 10
49.2518
 20
321.226
 11
49.1128
 21
320.986
  0
LINE
  8
0
 10
49.1128
 20
320.986
 11
48.9
 21
320.807
  0
LINE
  8
0
 10
48.9
 20
320.807
 11
48.6389
 21
320.712
  0
LINE
  8
0
 10
48.6389
 20
320.712
 11
48.3611
 21
320.712
  0
LINE
  8
0
 10
24.3611
 20
320.712
 11
24.1
 21
320.807
  0
LINE
  8
0
 10
24.1
 20
320.807
 11
23.8872
 21
320.986
  0
LINE
  8
0
 10
23.8872
 20
320.986
 11
23.7482
 21
321.226
  0
LINE
  8
0
 10
23.7482
 20
321.226
 11
23.7
 21
321.5
  0
LINE
  8
0
 10
23.7
 20
321.5
 11
23.7482
 21
321.774
  0
LINE
  8
0
 10
23.7482
 20
321.774
 11
23.8872
 21
322.014
  0
LINE
  8
0
 10
23.8872
 20
322.014
 11
24.1
 21
322.193
  0
LINE
  8
0
 10
24.1
 20
322.193
 11
24.3611
 21
322.288
  0
LINE
  8
0
 10
24.3611
 20
322.288
 11
24.6389
 21
322.288
  0
LINE
  8
0
 10
24.6389
 20
322.288
 11
24.9
 21
322.193
  0
LINE
  8
0
 10
24.9
 20
322.193
 11
25.1128
 21
322.014
  0
LINE
  8
0
 10
25.1128
 20
322.014
 11
25.2518
 21
321.774
  0
LINE
  8
0
 10
25.2518
 20
321.774
 11
25.3
 21
321.5
  0
LINE
  8
0
 10
25.3
 20
321.5
 11
25.2518
 21
321.226
  0
LINE
  8
0
 10
25.2518
 20
321.226
 11
25.1128
 21
320.986
  0
LINE
  8
0
 10
25.1128
 20
320.986
 11
24.9
 21
320.807
  0
LINE
  8
0
 10
24.9
 20
320.807
 11
24.6389
 21
320.712
  0
LINE
  8
0
 10
24.6389
 20
320.712
 11
24.3611
 21
320.712
  0
LINE
  8
0
 10
42.3611
 20
316.712
 11
42.1
 21
316.807
  0
LINE
  8
0
 10
42.1
 20
316.807
 11
41.8872
 21
316.986
  0
LINE
  8
0
 10
41.8872
 20
316.986
 11
41.7482
 21
317.226
  0
LINE
  8
0
 10
41.7482
 20
317.226
 11
41.7
 21
317.5
  0
LINE
  8
0
 10
41.7
 20
317.5
 11
41.7482
 21
317.774
  0
LINE
  8
0
 10
41.7482
 20
317.774
 11
41.8872
 21
318.014
  0
LINE
  8
0
 10
41.8872
 20
318.014
 11
42.1
 21
318.193
  0
LINE
  8
0
 10
42.1
 20
318.193
 11
42.3611
 21
318.288
  0
LINE
  8
0
 10
42.3611
 20
318.288
 11
42.6389
 21
318.288
  0
LINE
  8
0
 10
42.6389
 20
318.288
 11
42.9
 21
318.193
  0
LINE
  8
0
 10
42.9
 20
318.193
 11
43.1128
 21
318.014
  0
LINE
  8
0
 10
43.1128
 20
318.014
 11
43.2518
 21
317.774
  0
LINE
  8
0
 10
43.2518
 20
317.774
 11
43.3
 21
317.5
  0
LINE
  8
0
 10
43.3
 20
317.5
 11
43.2518
 21
317.226
  0
LINE
  8
0
 10
43.2518
 20
317.226
 11
43.1128
 21
316.986
  0
LINE
  8
0
 10
43.1128
 20
316.986
 11
42.9
 21
316.807
  0
LINE
  8
0
 10
42.9
 20
316.807
 11
42.6389
 21
316.712
  0
LINE
  8
0
 10
42.6389
 20
316.712
 11
42.3611
 21
316.712
  0
LINE
  8
0
 10
18.3611
 20
316.712
 11
18.1
 21
316.807
  0
LINE
  8
0
 10
18.1
 20
316.807
 11
17.8872
 21
316.986
  0
LINE
  8
0
 10
17.8872
 20
316.986
 11
17.7482
 21
317.226
  0
LINE
  8
0
 10
17.7482
 20
317.226
 11
17.7
 21
317.5
  0
LINE
  8
0
 10
17.7
 20
317.5
 11
17.7482
 21
317.774
  0
LINE
  8
0
 10
17.7482
 20
317.774
 11
17.8872
 21
318.014
  0
LINE
  8
0
 10
17.8872
 20
318.014
 11
18.1
 21
318.193
  0
LINE
  8
0
 10
18.1
 20
318.193
 11
18.3611
 21
318.288
  0
LINE
  8
0
 10
18.3611
 20
318.288
 11
18.6389
 21
318.288
  0
LINE
  8
0
 10
18.6389
 20
318.288
 11
18.9
 21
318.193
  0
LINE
  8
0
 10
18.9
 20
318.193
 11
19.1128
 21
318.014
  0
LINE
  8
0
 10
19.1128
 20
318.014
 11
19.2518
 21
317.774
  0
LINE
  8
0
 10
19.2518
 20
317.774
 11
19.3
 21
317.5
  0
LINE
  8
0
 10
19.3
 20
317.5
 11
19.2518
 21
317.226
  0
LINE
  8
0
 10
19.2518
 20
317.226
 11
19.1128
 21
316.986
  0
LINE
  8
0
 10
19.1128
 20
316.986
 11
18.9
 21
316.807
  0
LINE
  8
0
 10
18.9
 20
316.807
 11
18.6389
 21
316.712
  0
LINE
  8
0
 10
18.6389
 20
316.712
 11
18.3611
 21
316.712
  0
LINE
  8
0
 10
38.3611
 20
312.712
 11
38.1
 21
312.807
  0
LINE
  8
0
 10
38.1
 20
312.807
 11
37.8872
 21
312.986
  0
LINE
  8
0
 10
37.8872
 20
312.986
 11
37.7482
 21
313.226
  0
LINE
  8
0
 10
37.7482
 20
313.226
 11
37.7
 21
313.5
  0
LINE
  8
0
 10
37.7
 20
313.5
 11
37.7482
 21
313.774
  0
LINE
  8
0
 10
37.7482
 20
313.774
 11
37.8872
 21
314.014
  0
LINE
  8
0
 10
37.8872
 20
314.014
 11
38.1
 21
314.193
  0
LINE
  8
0
 10
38.1
 20
314.193
 11
38.3611
 21
314.288
  0
LINE
  8
0
 10
38.3611
 20
314.288
 11
38.6389
 21
314.288
  0
LINE
  8
0
 10
38.6389
 20
314.288
 11
38.9
 21
314.193
  0
LINE
  8
0
 10
38.9
 20
314.193
 11
39.1128
 21
314.014
  0
LINE
  8
0
 10
39.1128
 20
314.014
 11
39.2518
 21
313.774
  0
LINE
  8
0
 10
39.2518
 20
313.774
 11
39.3
 21
313.5
  0
LINE
  8
0
 10
39.3
 20
313.5
 11
39.2518
 21
313.226
  0
LINE
  8
0
 10
39.2518
 20
313.226
 11
39.1128
 21
312.986
  0
LINE
  8
0
 10
39.1128
 20
312.986
 11
38.9
 21
312.807
  0
LINE
  8
0
 10
38.9
 20
312.807
 11
38.6389
 21
312.712
  0
LINE
  8
0
 10
38.6389
 20
312.712
 11
38.3611
 21
312.712
  0
LINE
  8
0
 10
14.3611
 20
312.712
 11
14.1
 21
312.807
  0
LINE
  8
0
 10
14.1
 20
312.807
 11
13.8872
 21
312.986
  0
LINE
  8
0
 10
13.8872
 20
312.986
 11
13.7482
 21
313.226
  0
LINE
  8
0
 10
13.7482
 20
313.226
 11
13.7
 21
313.5
  0
LINE
  8
0
 10
13.7
 20
313.5
 11
13.7482
 21
313.774
  0
LINE
  8
0
 10
13.7482
 20
313.774
 11
13.8872
 21
314.014
  0
LINE
  8
0
 10
13.8872
 20
314.014
 11
14.1
 21
314.193
  0
LINE
  8
0
 10
14.1
 20
314.193
 11
14.3611
 21
314.288
  0
LINE
  8
0
 10
14.3611
 20
314.288
 11
14.6389
 21
314.288
  0
LINE
  8
0
 10
14.6389
 20
314.288
 11
14.9
 21
314.193
  0
LINE
  8
0
 10
14.9
 20
314.193
 11
15.1128
 21
314.014
  0
LINE
  8
0
 10
15.1128
 20
314.014
 11
15.2517
 21
313.774
  0
LINE
  8
0
 10
15.2517
 20
313.774
 11
15.3
 21
313.5
  0
LINE
  8
0
 10
15.3
 20
313.5
 11
15.2517
 21
313.226
  0
LINE
  8
0
 10
15.2517
 20
313.226
 11
15.1128
 21
312.986
  0
LINE
  8
0
 10
15.1128
 20
312.986
 11
14.9
 21
312.807
  0
LINE
  8
0
 10
14.9
 20
312.807
 11
14.6389
 21
312.712
  0
LINE
  8
0
 10
14.6389
 20
312.712
 11
14.3611
 21
312.712
  0
LINE
  8
0
 10
14.3611
 20
304.712
 11
14.1
 21
304.807
  0
LINE
  8
0
 10
14.1
 20
304.807
 11
13.8872
 21
304.986
  0
LINE
  8
0
 10
13.8872
 20
304.986
 11
13.7482
 21
305.226
  0
LINE
  8
0
 10
13.7482
 20
305.226
 11
13.7
 21
305.5
  0
LINE
  8
0
 10
13.7
 20
305.5
 11
13.7482
 21
305.774
  0
LINE
  8
0
 10
13.7482
 20
305.774
 11
13.8872
 21
306.014
  0
LINE
  8
0
 10
13.8872
 20
306.014
 11
14.1
 21
306.193
  0
LINE
  8
0
 10
14.1
 20
306.193
 11
14.3611
 21
306.288
  0
LINE
  8
0
 10
14.3611
 20
306.288
 11
14.6389
 21
306.288
  0
LINE
  8
0
 10
14.6389
 20
306.288
 11
14.9
 21
306.193
  0
LINE
  8
0
 10
14.9
 20
306.193
 11
15.1128
 21
306.014
  0
LINE
  8
0
 10
15.1128
 20
306.014
 11
15.2517
 21
305.774
  0
LINE
  8
0
 10
15.2517
 20
305.774
 11
15.3
 21
305.5
  0
LINE
  8
0
 10
15.3
 20
305.5
 11
15.2517
 21
305.226
  0
LINE
  8
0
 10
15.2517
 20
305.226
 11
15.1128
 21
304.986
  0
LINE
  8
0
 10
15.1128
 20
304.986
 11
14.9
 21
304.807
  0
LINE
  8
0
 10
14.9
 20
304.807
 11
14.6389
 21
304.712
  0
LINE
  8
0
 10
14.6389
 20
304.712
 11
14.3611
 21
304.712
  0
LINE
  8
0
 10
38.3611
 20
304.712
 11
38.1
 21
304.807
  0
LINE
  8
0
 10
38.1
 20
304.807
 11
37.8872
 21
304.986
  0
LINE
  8
0
 10
37.8872
 20
304.986
 11
37.7482
 21
305.226
  0
LINE
  8
0
 10
37.7482
 20
305.226
 11
37.7
 21
305.5
  0
LINE
  8
0
 10
37.7
 20
305.5
 11
37.7482
 21
305.774
  0
LINE
  8
0
 10
37.7482
 20
305.774
 11
37.8872
 21
306.014
  0
LINE
  8
0
 10
37.8872
 20
306.014
 11
38.1
 21
306.193
  0
LINE
  8
0
 10
38.1
 20
306.193
 11
38.3611
 21
306.288
  0
LINE
  8
0
 10
38.3611
 20
306.288
 11
38.6389
 21
306.288
  0
LINE
  8
0
 10
38.6389
 20
306.288
 11
38.9
 21
306.193
  0
LINE
  8
0
 10
38.9
 20
306.193
 11
39.1128
 21
306.014
  0
LINE
  8
0
 10
39.1128
 20
306.014
 11
39.2518
 21
305.774
  0
LINE
  8
0
 10
39.2518
 20
305.774
 11
39.3
 21
305.5
  0
LINE
  8
0
 10
39.3
 20
305.5
 11
39.2518
 21
305.226
  0
LINE
  8
0
 10
39.2518
 20
305.226
 11
39.1128
 21
304.986
  0
LINE
  8
0
 10
39.1128
 20
304.986
 11
38.9
 21
304.807
  0
LINE
  8
0
 10
38.9
 20
304.807
 11
38.6389
 21
304.712
  0
LINE
  8
0
 10
38.6389
 20
304.712
 11
38.3611
 21
304.712
  0
LINE
  8
0
 10
14.3611
 20
296.712
 11
14.1
 21
296.807
  0
LINE
  8
0
 10
14.1
 20
296.807
 11
13.8872
 21
296.986
  0
LINE
  8
0
 10
13.8872
 20
296.986
 11
13.7482
 21
297.226
  0
LINE
  8
0
 10
13.7482
 20
297.226
 11
13.7
 21
297.5
  0
LINE
  8
0
 10
13.7
 20
297.5
 11
13.7482
 21
297.774
  0
LINE
  8
0
 10
13.7482
 20
297.774
 11
13.8872
 21
298.014
  0
LINE
  8
0
 10
13.8872
 20
298.014
 11
14.1
 21
298.193
  0
LINE
  8
0
 10
14.1
 20
298.193
 11
14.3611
 21
298.288
  0
LINE
  8
0
 10
14.3611
 20
298.288
 11
14.6389
 21
298.288
  0
LINE
  8
0
 10
14.6389
 20
298.288
 11
14.9
 21
298.193
  0
LINE
  8
0
 10
14.9
 20
298.193
 11
15.1128
 21
298.014
  0
LINE
  8
0
 10
15.1128
 20
298.014
 11
15.2517
 21
297.774
  0
LINE
  8
0
 10
15.2517
 20
297.774
 11
15.3
 21
297.5
  0
LINE
  8
0
 10
15.3
 20
297.5
 11
15.2517
 21
297.226
  0
LINE
  8
0
 10
15.2517
 20
297.226
 11
15.1128
 21
296.986
  0
LINE
  8
0
 10
15.1128
 20
296.986
 11
14.9
 21
296.807
  0
LINE
  8
0
 10
14.9
 20
296.807
 11
14.6389
 21
296.712
  0
LINE
  8
0
 10
14.6389
 20
296.712
 11
14.3611
 21
296.712
  0
LINE
  8
0
 10
38.3611
 20
296.712
 11
38.1
 21
296.807
  0
LINE
  8
0
 10
38.1
 20
296.807
 11
37.8872
 21
296.986
  0
LINE
  8
0
 10
37.8872
 20
296.986
 11
37.7482
 21
297.226
  0
LINE
  8
0
 10
37.7482
 20
297.226
 11
37.7
 21
297.5
  0
LINE
  8
0
 10
37.7
 20
297.5
 11
37.7482
 21
297.774
  0
LINE
  8
0
 10
37.7482
 20
297.774
 11
37.8872
 21
298.014
  0
LINE
  8
0
 10
37.8872
 20
298.014
 11
38.1
 21
298.193
  0
LINE
  8
0
 10
38.1
 20
298.193
 11
38.3611
 21
298.288
  0
LINE
  8
0
 10
38.3611
 20
298.288
 11
38.6389
 21
298.288
  0
LINE
  8
0
 10
38.6389
 20
298.288
 11
38.9
 21
298.193
  0
LINE
  8
0
 10
38.9
 20
298.193
 11
39.1128
 21
298.014
  0
LINE
  8
0
 10
39.1128
 20
298.014
 11
39.2518
 21
297.774
  0
LINE
  8
0
 10
39.2518
 20
297.774
 11
39.3
 21
297.5
  0
LINE
  8
0
 10
39.3
 20
297.5
 11
39.2518
 21
297.226
  0
LINE
  8
0
 10
39.2518
 20
297.226
 11
39.1128
 21
296.986
  0
LINE
  8
0
 10
39.1128
 20
296.986
 11
38.9
 21
296.807
  0
LINE
  8
0
 10
38.9
 20
296.807
 11
38.6389
 21
296.712
  0
LINE
  8
0
 10
38.6389
 20
296.712
 11
38.3611
 21
296.712
  0
LINE
  8
0
 10
38.3611
 20
268.712
 11
38.1
 21
268.807
  0
LINE
  8
0
 10
38.1
 20
268.807
 11
37.8872
 21
268.986
  0
LINE
  8
0
 10
37.8872
 20
268.986
 11
37.7482
 21
269.226
  0
LINE
  8
0
 10
37.7482
 20
269.226
 11
37.7
 21
269.5
  0
LINE
  8
0
 10
37.7
 20
269.5
 11
37.7482
 21
269.774
  0
LINE
  8
0
 10
37.7482
 20
269.774
 11
37.8872
 21
270.014
  0
LINE
  8
0
 10
37.8872
 20
270.014
 11
38.1
 21
270.193
  0
LINE
  8
0
 10
38.1
 20
270.193
 11
38.3611
 21
270.288
  0
LINE
  8
0
 10
38.3611
 20
270.288
 11
38.6389
 21
270.288
  0
LINE
  8
0
 10
38.6389
 20
270.288
 11
38.9
 21
270.193
  0
LINE
  8
0
 10
38.9
 20
270.193
 11
39.1128
 21
270.014
  0
LINE
  8
0
 10
39.1128
 20
270.014
 11
39.2518
 21
269.774
  0
LINE
  8
0
 10
39.2518
 20
269.774
 11
39.3
 21
269.5
  0
LINE
  8
0
 10
39.3
 20
269.5
 11
39.2518
 21
269.226
  0
LINE
  8
0
 10
39.2518
 20
269.226
 11
39.1128
 21
268.986
  0
LINE
  8
0
 10
39.1128
 20
268.986
 11
38.9
 21
268.807
  0
LINE
  8
0
 10
38.9
 20
268.807
 11
38.6389
 21
268.712
  0
LINE
  8
0
 10
38.6389
 20
268.712
 11
38.3611
 21
268.712
  0
LINE
  8
0
 10
32.3611
 20
260.712
 11
32.1
 21
260.807
  0
LINE
  8
0
 10
32.1
 20
260.807
 11
31.8872
 21
260.986
  0
LINE
  8
0
 10
31.8872
 20
260.986
 11
31.7482
 21
261.226
  0
LINE
  8
0
 10
31.7482
 20
261.226
 11
31.7
 21
261.5
  0
LINE
  8
0
 10
31.7
 20
261.5
 11
31.7482
 21
261.774
  0
LINE
  8
0
 10
31.7482
 20
261.774
 11
31.8872
 21
262.014
  0
LINE
  8
0
 10
31.8872
 20
262.014
 11
32.1
 21
262.193
  0
LINE
  8
0
 10
32.1
 20
262.193
 11
32.3611
 21
262.288
  0
LINE
  8
0
 10
32.3611
 20
262.288
 11
32.6389
 21
262.288
  0
LINE
  8
0
 10
32.6389
 20
262.288
 11
32.9
 21
262.193
  0
LINE
  8
0
 10
32.9
 20
262.193
 11
33.1128
 21
262.014
  0
LINE
  8
0
 10
33.1128
 20
262.014
 11
33.2518
 21
261.774
  0
LINE
  8
0
 10
33.2518
 20
261.774
 11
33.3
 21
261.5
  0
LINE
  8
0
 10
33.3
 20
261.5
 11
33.2518
 21
261.226
  0
LINE
  8
0
 10
33.2518
 20
261.226
 11
33.1128
 21
260.986
  0
LINE
  8
0
 10
33.1128
 20
260.986
 11
32.9
 21
260.807
  0
LINE
  8
0
 10
32.9
 20
260.807
 11
32.6389
 21
260.712
  0
LINE
  8
0
 10
32.6389
 20
260.712
 11
32.3611
 21
260.712
  0
LINE
  8
0
 10
34.3611
 20
256.712
 11
34.1
 21
256.807
  0
LINE
  8
0
 10
34.1
 20
256.807
 11
33.8872
 21
256.986
  0
LINE
  8
0
 10
33.8872
 20
256.986
 11
33.7482
 21
257.226
  0
LINE
  8
0
 10
33.7482
 20
257.226
 11
33.7
 21
257.5
  0
LINE
  8
0
 10
33.7
 20
257.5
 11
33.7482
 21
257.774
  0
LINE
  8
0
 10
33.7482
 20
257.774
 11
33.8872
 21
258.014
  0
LINE
  8
0
 10
33.8872
 20
258.014
 11
34.1
 21
258.193
  0
LINE
  8
0
 10
34.1
 20
258.193
 11
34.3611
 21
258.288
  0
LINE
  8
0
 10
34.3611
 20
258.288
 11
34.6389
 21
258.288
  0
LINE
  8
0
 10
34.6389
 20
258.288
 11
34.9
 21
258.193
  0
LINE
  8
0
 10
34.9
 20
258.193
 11
35.1128
 21
258.014
  0
LINE
  8
0
 10
35.1128
 20
258.014
 11
35.2518
 21
257.774
  0
LINE
  8
0
 10
35.2518
 20
257.774
 11
35.3
 21
257.5
  0
LINE
  8
0
 10
35.3
 20
257.5
 11
35.2518
 21
257.226
  0
LINE
  8
0
 10
35.2518
 20
257.226
 11
35.1128
 21
256.986
  0
LINE
  8
0
 10
35.1128
 20
256.986
 11
34.9
 21
256.807
  0
LINE
  8
0
 10
34.9
 20
256.807
 11
34.6389
 21
256.712
  0
LINE
  8
0
 10
34.6389
 20
256.712
 11
34.3611
 21
256.712
  0
LINE
  8
0
 10
38.3611
 20
252.712
 11
38.1
 21
252.807
  0
LINE
  8
0
 10
38.1
 20
252.807
 11
37.8872
 21
252.986
  0
LINE
  8
0
 10
37.8872
 20
252.986
 11
37.7482
 21
253.226
  0
LINE
  8
0
 10
37.7482
 20
253.226
 11
37.7
 21
253.5
  0
LINE
  8
0
 10
37.7
 20
253.5
 11
37.7482
 21
253.774
  0
LINE
  8
0
 10
37.7482
 20
253.774
 11
37.8872
 21
254.014
  0
LINE
  8
0
 10
37.8872
 20
254.014
 11
38.1
 21
254.193
  0
LINE
  8
0
 10
38.1
 20
254.193
 11
38.3611
 21
254.288
  0
LINE
  8
0
 10
38.3611
 20
254.288
 11
38.6389
 21
254.288
  0
LINE
  8
0
 10
38.6389
 20
254.288
 11
38.9
 21
254.193
  0
LINE
  8
0
 10
38.9
 20
254.193
 11
39.1128
 21
254.014
  0
LINE
  8
0
 10
39.1128
 20
254.014
 11
39.2518
 21
253.774
  0
LINE
  8
0
 10
39.2518
 20
253.774
 11
39.3
 21
253.5
  0
LINE
  8
0
 10
39.3
 20
253.5
 11
39.2518
 21
253.226
  0
LINE
  8
0
 10
39.2518
 20
253.226
 11
39.1128
 21
252.986
  0
LINE
  8
0
 10
39.1128
 20
252.986
 11
38.9
 21
252.807
  0
LINE
  8
0
 10
38.9
 20
252.807
 11
38.6389
 21
252.712
  0
LINE
  8
0
 10
38.6389
 20
252.712
 11
38.3611
 21
252.712
  0
LINE
  8
0
 10
34.3611
 20
248.712
 11
34.1
 21
248.807
  0
LINE
  8
0
 10
34.1
 20
248.807
 11
33.8872
 21
248.986
  0
LINE
  8
0
 10
33.8872
 20
248.986
 11
33.7482
 21
249.226
  0
LINE
  8
0
 10
33.7482
 20
249.226
 11
33.7
 21
249.5
  0
LINE
  8
0
 10
33.7
 20
249.5
 11
33.7482
 21
249.774
  0
LINE
  8
0
 10
33.7482
 20
249.774
 11
33.8872
 21
250.014
  0
LINE
  8
0
 10
33.8872
 20
250.014
 11
34.1
 21
250.193
  0
LINE
  8
0
 10
34.1
 20
250.193
 11
34.3611
 21
250.288
  0
LINE
  8
0
 10
34.3611
 20
250.288
 11
34.6389
 21
250.288
  0
LINE
  8
0
 10
34.6389
 20
250.288
 11
34.9
 21
250.193
  0
LINE
  8
0
 10
34.9
 20
250.193
 11
35.1128
 21
250.014
  0
LINE
  8
0
 10
35.1128
 20
250.014
 11
35.2518
 21
249.774
  0
LINE
  8
0
 10
35.2518
 20
249.774
 11
35.3
 21
249.5
  0
LINE
  8
0
 10
35.3
 20
249.5
 11
35.2518
 21
249.226
  0
LINE
  8
0
 10
35.2518
 20
249.226
 11
35.1128
 21
248.986
  0
LINE
  8
0
 10
35.1128
 20
248.986
 11
34.9
 21
248.807
  0
LINE
  8
0
 10
34.9
 20
248.807
 11
34.6389
 21
248.712
  0
LINE
  8
0
 10
34.6389
 20
248.712
 11
34.3611
 21
248.712
  0
LINE
  8
0
 10
38.3611
 20
236.712
 11
38.1
 21
236.807
  0
LINE
  8
0
 10
38.1
 20
236.807
 11
37.8872
 21
236.986
  0
LINE
  8
0
 10
37.8872
 20
236.986
 11
37.7482
 21
237.226
  0
LINE
  8
0
 10
37.7482
 20
237.226
 11
37.7
 21
237.5
  0
LINE
  8
0
 10
37.7
 20
237.5
 11
37.7482
 21
237.774
  0
LINE
  8
0
 10
37.7482
 20
237.774
 11
37.8872
 21
238.014
  0
LINE
  8
0
 10
37.8872
 20
238.014
 11
38.1
 21
238.193
  0
LINE
  8
0
 10
38.1
 20
238.193
 11
38.3611
 21
238.288
  0
LINE
  8
0
 10
38.3611
 20
238.288
 11
38.6389
 21
238.288
  0
LINE
  8
0
 10
38.6389
 20
238.288
 11
38.9
 21
238.193
  0
LINE
  8
0
 10
38.9
 20
238.193
 11
39.1128
 21
238.014
  0
LINE
  8
0
 10
39.1128
 20
238.014
 11
39.2518
 21
237.774
  0
LINE
  8
0
 10
39.2518
 20
237.774
 11
39.3
 21
237.5
  0
LINE
  8
0
 10
39.3
 20
237.5
 11
39.2518
 21
237.226
  0
LINE
  8
0
 10
39.2518
 20
237.226
 11
39.1128
 21
236.986
  0
LINE
  8
0
 10
39.1128
 20
236.986
 11
38.9
 21
236.807
  0
LINE
  8
0
 10
38.9
 20
236.807
 11
38.6389
 21
236.712
  0
LINE
  8
0
 10
38.6389
 20
236.712
 11
38.3611
 21
236.712
  0
LINE
  8
0
 10
34.3611
 20
228.712
 11
34.1
 21
228.807
  0
LINE
  8
0
 10
34.1
 20
228.807
 11
33.8872
 21
228.986
  0
LINE
  8
0
 10
33.8872
 20
228.986
 11
33.7482
 21
229.226
  0
LINE
  8
0
 10
33.7482
 20
229.226
 11
33.7
 21
229.5
  0
LINE
  8
0
 10
33.7
 20
229.5
 11
33.7482
 21
229.774
  0
LINE
  8
0
 10
33.7482
 20
229.774
 11
33.8872
 21
230.014
  0
LINE
  8
0
 10
33.8872
 20
230.014
 11
34.1
 21
230.193
  0
LINE
  8
0
 10
34.1
 20
230.193
 11
34.3611
 21
230.288
  0
LINE
  8
0
 10
34.3611
 20
230.288
 11
34.6389
 21
230.288
  0
LINE
  8
0
 10
34.6389
 20
230.288
 11
34.9
 21
230.193
  0
LINE
  8
0
 10
34.9
 20
230.193
 11
35.1128
 21
230.014
  0
LINE
  8
0
 10
35.1128
 20
230.014
 11
35.2518
 21
229.774
  0
LINE
  8
0
 10
35.2518
 20
229.774
 11
35.3
 21
229.5
  0
LINE
  8
0
 10
35.3
 20
229.5
 11
35.2518
 21
229.226
  0
LINE
  8
0
 10
35.2518
 20
229.226
 11
35.1128
 21
228.986
  0
LINE
  8
0
 10
35.1128
 20
228.986
 11
34.9
 21
228.807
  0
LINE
  8
0
 10
34.9
 20
228.807
 11
34.6389
 21
228.712
  0
LINE
  8
0
 10
34.6389
 20
228.712
 11
34.3611
 21
228.712
  0
LINE
  8
0
 10
42.3611
 20
224.712
 11
42.1
 21
224.807
  0
LINE
  8
0
 10
42.1
 20
224.807
 11
41.8872
 21
224.986
  0
LINE
  8
0
 10
41.8872
 20
224.986
 11
41.7482
 21
225.226
  0
LINE
  8
0
 10
41.7482
 20
225.226
 11
41.7
 21
225.5
  0
LINE
  8
0
 10
41.7
 20
225.5
 11
41.7482
 21
225.774
  0
LINE
  8
0
 10
41.7482
 20
225.774
 11
41.8872
 21
226.014
  0
LINE
  8
0
 10
41.8872
 20
226.014
 11
42.1
 21
226.193
  0
LINE
  8
0
 10
42.1
 20
226.193
 11
42.3611
 21
226.288
  0
LINE
  8
0
 10
42.3611
 20
226.288
 11
42.6389
 21
226.288
  0
LINE
  8
0
 10
42.6389
 20
226.288
 11
42.9
 21
226.193
  0
LINE
  8
0
 10
42.9
 20
226.193
 11
43.1128
 21
226.014
  0
LINE
  8
0
 10
43.1128
 20
226.014
 11
43.2518
 21
225.774
  0
LINE
  8
0
 10
43.2518
 20
225.774
 11
43.3
 21
225.5
  0
LINE
  8
0
 10
43.3
 20
225.5
 11
43.2518
 21
225.226
  0
LINE
  8
0
 10
43.2518
 20
225.226
 11
43.1128
 21
224.986
  0
LINE
  8
0
 10
43.1128
 20
224.986
 11
42.9
 21
224.807
  0
LINE
  8
0
 10
42.9
 20
224.807
 11
42.6389
 21
224.712
  0
LINE
  8
0
 10
42.6389
 20
224.712
 11
42.3611
 21
224.712
  0
LINE
  8
0
 10
42.3611
 20
216.712
 11
42.1
 21
216.807
  0
LINE
  8
0
 10
42.1
 20
216.807
 11
41.8872
 21
216.986
  0
LINE
  8
0
 10
41.8872
 20
216.986
 11
41.7482
 21
217.226
  0
LINE
  8
0
 10
41.7482
 20
217.226
 11
41.7
 21
217.5
  0
LINE
  8
0
 10
41.7
 20
217.5
 11
41.7482
 21
217.774
  0
LINE
  8
0
 10
41.7482
 20
217.774
 11
41.8872
 21
218.014
  0
LINE
  8
0
 10
41.8872
 20
218.014
 11
42.1
 21
218.193
  0
LINE
  8
0
 10
42.1
 20
218.193
 11
42.3611
 21
218.288
  0
LINE
  8
0
 10
42.3611
 20
218.288
 11
42.6389
 21
218.288
  0
LINE
  8
0
 10
42.6389
 20
218.288
 11
42.9
 21
218.193
  0
LINE
  8
0
 10
42.9
 20
218.193
 11
43.1128
 21
218.014
  0
LINE
  8
0
 10
43.1128
 20
218.014
 11
43.2518
 21
217.774
  0
LINE
  8
0
 10
43.2518
 20
217.774
 11
43.3
 21
217.5
  0
LINE
  8
0
 10
43.3
 20
217.5
 11
43.2518
 21
217.226
  0
LINE
  8
0
 10
43.2518
 20
217.226
 11
43.1128
 21
216.986
  0
LINE
  8
0
 10
43.1128
 20
216.986
 11
42.9
 21
216.807
  0
LINE
  8
0
 10
42.9
 20
216.807
 11
42.6389
 21
216.712
  0
LINE
  8
0
 10
42.6389
 20
216.712
 11
42.3611
 21
216.712
  0
LINE
  8
0
 10
24.3611
 20
208.712
 11
24.1
 21
208.807
  0
LINE
  8
0
 10
24.1
 20
208.807
 11
23.8872
 21
208.986
  0
LINE
  8
0
 10
23.8872
 20
208.986
 11
23.7482
 21
209.226
  0
LINE
  8
0
 10
23.7482
 20
209.226
 11
23.7
 21
209.5
  0
LINE
  8
0
 10
23.7
 20
209.5
 11
23.7482
 21
209.774
  0
LINE
  8
0
 10
23.7482
 20
209.774
 11
23.8872
 21
210.014
  0
LINE
  8
0
 10
23.8872
 20
210.014
 11
24.1
 21
210.193
  0
LINE
  8
0
 10
24.1
 20
210.193
 11
24.3611
 21
210.288
  0
LINE
  8
0
 10
24.3611
 20
210.288
 11
24.6389
 21
210.288
  0
LINE
  8
0
 10
24.6389
 20
210.288
 11
24.9
 21
210.193
  0
LINE
  8
0
 10
24.9
 20
210.193
 11
25.1128
 21
210.014
  0
LINE
  8
0
 10
25.1128
 20
210.014
 11
25.2518
 21
209.774
  0
LINE
  8
0
 10
25.2518
 20
209.774
 11
25.3
 21
209.5
  0
LINE
  8
0
 10
25.3
 20
209.5
 11
25.2518
 21
209.226
  0
LINE
  8
0
 10
25.2518
 20
209.226
 11
25.1128
 21
208.986
  0
LINE
  8
0
 10
25.1128
 20
208.986
 11
24.9
 21
208.807
  0
LINE
  8
0
 10
24.9
 20
208.807
 11
24.6389
 21
208.712
  0
LINE
  8
0
 10
24.6389
 20
208.712
 11
24.3611
 21
208.712
  0
LINE
  8
0
 10
42.3611
 20
200.712
 11
42.1
 21
200.807
  0
LINE
  8
0
 10
42.1
 20
200.807
 11
41.8872
 21
200.986
  0
LINE
  8
0
 10
41.8872
 20
200.986
 11
41.7482
 21
201.226
  0
LINE
  8
0
 10
41.7482
 20
201.226
 11
41.7
 21
201.5
  0
LINE
  8
0
 10
41.7
 20
201.5
 11
41.7482
 21
201.774
  0
LINE
  8
0
 10
41.7482
 20
201.774
 11
41.8872
 21
202.014
  0
LINE
  8
0
 10
41.8872
 20
202.014
 11
42.1
 21
202.193
  0
LINE
  8
0
 10
42.1
 20
202.193
 11
42.3611
 21
202.288
  0
LINE
  8
0
 10
42.3611
 20
202.288
 11
42.6389
 21
202.288
  0
LINE
  8
0
 10
42.6389
 20
202.288
 11
42.9
 21
202.193
  0
LINE
  8
0
 10
42.9
 20
202.193
 11
43.1128
 21
202.014
  0
LINE
  8
0
 10
43.1128
 20
202.014
 11
43.2518
 21
201.774
  0
LINE
  8
0
 10
43.2518
 20
201.774
 11
43.3
 21
201.5
  0
LINE
  8
0
 10
43.3
 20
201.5
 11
43.2518
 21
201.226
  0
LINE
  8
0
 10
43.2518
 20
201.226
 11
43.1128
 21
200.986
  0
LINE
  8
0
 10
43.1128
 20
200.986
 11
42.9
 21
200.807
  0
LINE
  8
0
 10
42.9
 20
200.807
 11
42.6389
 21
200.712
  0
LINE
  8
0
 10
42.6389
 20
200.712
 11
42.3611
 21
200.712
  0
LINE
  8
0
 10
24.3611
 20
192.712
 11
24.1
 21
192.807
  0
LINE
  8
0
 10
24.1
 20
192.807
 11
23.8872
 21
192.986
  0
LINE
  8
0
 10
23.8872
 20
192.986
 11
23.7482
 21
193.226
  0
LINE
  8
0
 10
23.7482
 20
193.226
 11
23.7
 21
193.5
  0
LINE
  8
0
 10
23.7
 20
193.5
 11
23.7482
 21
193.774
  0
LINE
  8
0
 10
23.7482
 20
193.774
 11
23.8872
 21
194.014
  0
LINE
  8
0
 10
23.8872
 20
194.014
 11
24.1
 21
194.193
  0
LINE
  8
0
 10
24.1
 20
194.193
 11
24.3611
 21
194.288
  0
LINE
  8
0
 10
24.3611
 20
194.288
 11
24.6389
 21
194.288
  0
LINE
  8
0
 10
24.6389
 20
194.288
 11
24.9
 21
194.193
  0
LINE
  8
0
 10
24.9
 20
194.193
 11
25.1128
 21
194.014
  0
LINE
  8
0
 10
25.1128
 20
194.014
 11
25.2518
 21
193.774
  0
LINE
  8
0
 10
25.2518
 20
193.774
 11
25.3
 21
193.5
  0
LINE
  8
0
 10
25.3
 20
193.5
 11
25.2518
 21
193.226
  0
LINE
  8
0
 10
25.2518
 20
193.226
 11
25.1128
 21
192.986
  0
LINE
  8
0
 10
25.1128
 20
192.986
 11
24.9
 21
192.807
  0
LINE
  8
0
 10
24.9
 20
192.807
 11
24.6389
 21
192.712
  0
LINE
  8
0
 10
24.6389
 20
192.712
 11
24.3611
 21
192.712
  0
LINE
  8
0
 10
38.3611
 20
184.712
 11
38.1
 21
184.807
  0
LINE
  8
0
 10
38.1
 20
184.807
 11
37.8872
 21
184.986
  0
LINE
  8
0
 10
37.8872
 20
184.986
 11
37.7482
 21
185.226
  0
LINE
  8
0
 10
37.7482
 20
185.226
 11
37.7
 21
185.5
  0
LINE
  8
0
 10
37.7
 20
185.5
 11
37.7482
 21
185.774
  0
LINE
  8
0
 10
37.7482
 20
185.774
 11
37.8872
 21
186.014
  0
LINE
  8
0
 10
37.8872
 20
186.014
 11
38.1
 21
186.193
  0
LINE
  8
0
 10
38.1
 20
186.193
 11
38.3611
 21
186.288
  0
LINE
  8
0
 10
38.3611
 20
186.288
 11
38.6389
 21
186.288
  0
LINE
  8
0
 10
38.6389
 20
186.288
 11
38.9
 21
186.193
  0
LINE
  8
0
 10
38.9
 20
186.193
 11
39.1128
 21
186.014
  0
LINE
  8
0
 10
39.1128
 20
186.014
 11
39.2518
 21
185.774
  0
LINE
  8
0
 10
39.2518
 20
185.774
 11
39.3
 21
185.5
  0
LINE
  8
0
 10
39.3
 20
185.5
 11
39.2518
 21
185.226
  0
LINE
  8
0
 10
39.2518
 20
185.226
 11
39.1128
 21
184.986
  0
LINE
  8
0
 10
39.1128
 20
184.986
 11
38.9
 21
184.807
  0
LINE
  8
0
 10
38.9
 20
184.807
 11
38.6389
 21
184.712
  0
LINE
  8
0
 10
38.6389
 20
184.712
 11
38.3611
 21
184.712
  0
LINE
  8
0
 10
24.3611
 20
176.712
 11
24.1
 21
176.807
  0
LINE
  8
0
 10
24.1
 20
176.807
 11
23.8872
 21
176.986
  0
LINE
  8
0
 10
23.8872
 20
176.986
 11
23.7482
 21
177.226
  0
LINE
  8
0
 10
23.7482
 20
177.226
 11
23.7
 21
177.5
  0
LINE
  8
0
 10
23.7
 20
177.5
 11
23.7482
 21
177.774
  0
LINE
  8
0
 10
23.7482
 20
177.774
 11
23.8872
 21
178.014
  0
LINE
  8
0
 10
23.8872
 20
178.014
 11
24.1
 21
178.193
  0
LINE
  8
0
 10
24.1
 20
178.193
 11
24.3611
 21
178.288
  0
LINE
  8
0
 10
24.3611
 20
178.288
 11
24.6389
 21
178.288
  0
LINE
  8
0
 10
24.6389
 20
178.288
 11
24.9
 21
178.193
  0
LINE
  8
0
 10
24.9
 20
178.193
 11
25.1128
 21
178.014
  0
LINE
  8
0
 10
25.1128
 20
178.014
 11
25.2518
 21
177.774
  0
LINE
  8
0
 10
25.2518
 20
177.774
 11
25.3
 21
177.5
  0
LINE
  8
0
 10
25.3
 20
177.5
 11
25.2518
 21
177.226
  0
LINE
  8
0
 10
25.2518
 20
177.226
 11
25.1128
 21
176.986
  0
LINE
  8
0
 10
25.1128
 20
176.986
 11
24.9
 21
176.807
  0
LINE
  8
0
 10
24.9
 20
176.807
 11
24.6389
 21
176.712
  0
LINE
  8
0
 10
24.6389
 20
176.712
 11
24.3611
 21
176.712
  0
LINE
  8
0
 10
38.3611
 20
168.712
 11
38.1
 21
168.807
  0
LINE
  8
0
 10
38.1
 20
168.807
 11
37.8872
 21
168.986
  0
LINE
  8
0
 10
37.8872
 20
168.986
 11
37.7482
 21
169.226
  0
LINE
  8
0
 10
37.7482
 20
169.226
 11
37.7
 21
169.5
  0
LINE
  8
0
 10
37.7
 20
169.5
 11
37.7482
 21
169.774
  0
LINE
  8
0
 10
37.7482
 20
169.774
 11
37.8872
 21
170.014
  0
LINE
  8
0
 10
37.8872
 20
170.014
 11
38.1
 21
170.193
  0
LINE
  8
0
 10
38.1
 20
170.193
 11
38.3611
 21
170.288
  0
LINE
  8
0
 10
38.3611
 20
170.288
 11
38.6389
 21
170.288
  0
LINE
  8
0
 10
38.6389
 20
170.288
 11
38.9
 21
170.193
  0
LINE
  8
0
 10
38.9
 20
170.193
 11
39.1128
 21
170.014
  0
LINE
  8
0
 10
39.1128
 20
170.014
 11
39.2518
 21
169.774
  0
LINE
  8
0
 10
39.2518
 20
169.774
 11
39.3
 21
169.5
  0
LINE
  8
0
 10
39.3
 20
169.5
 11
39.2518
 21
169.226
  0
LINE
  8
0
 10
39.2518
 20
169.226
 11
39.1128
 21
168.986
  0
LINE
  8
0
 10
39.1128
 20
168.986
 11
38.9
 21
168.807
  0
LINE
  8
0
 10
38.9
 20
168.807
 11
38.6389
 21
168.712
  0
LINE
  8
0
 10
38.6389
 20
168.712
 11
38.3611
 21
168.712
  0
LINE
  8
0
 10
24.3611
 20
160.712
 11
24.1
 21
160.807
  0
LINE
  8
0
 10
24.1
 20
160.807
 11
23.8872
 21
160.986
  0
LINE
  8
0
 10
23.8872
 20
160.986
 11
23.7482
 21
161.226
  0
LINE
  8
0
 10
23.7482
 20
161.226
 11
23.7
 21
161.5
  0
LINE
  8
0
 10
23.7
 20
161.5
 11
23.7482
 21
161.774
  0
LINE
  8
0
 10
23.7482
 20
161.774
 11
23.8872
 21
162.014
  0
LINE
  8
0
 10
23.8872
 20
162.014
 11
24.1
 21
162.193
  0
LINE
  8
0
 10
24.1
 20
162.193
 11
24.3611
 21
162.288
  0
LINE
  8
0
 10
24.3611
 20
162.288
 11
24.6389
 21
162.288
  0
LINE
  8
0
 10
24.6389
 20
162.288
 11
24.9
 21
162.193
  0
LINE
  8
0
 10
24.9
 20
162.193
 11
25.1128
 21
162.014
  0
LINE
  8
0
 10
25.1128
 20
162.014
 11
25.2518
 21
161.774
  0
LINE
  8
0
 10
25.2518
 20
161.774
 11
25.3
 21
161.5
  0
LINE
  8
0
 10
25.3
 20
161.5
 11
25.2518
 21
161.226
  0
LINE
  8
0
 10
25.2518
 20
161.226
 11
25.1128
 21
160.986
  0
LINE
  8
0
 10
25.1128
 20
160.986
 11
24.9
 21
160.807
  0
LINE
  8
0
 10
24.9
 20
160.807
 11
24.6389
 21
160.712
  0
LINE
  8
0
 10
24.6389
 20
160.712
 11
24.3611
 21
160.712
  0
LINE
  8
0
 10
38.3611
 20
140.712
 11
38.1
 21
140.807
  0
LINE
  8
0
 10
38.1
 20
140.807
 11
37.8872
 21
140.986
  0
LINE
  8
0
 10
37.8872
 20
140.986
 11
37.7482
 21
141.226
  0
LINE
  8
0
 10
37.7482
 20
141.226
 11
37.7
 21
141.5
  0
LINE
  8
0
 10
37.7
 20
141.5
 11
37.7482
 21
141.774
  0
LINE
  8
0
 10
37.7482
 20
141.774
 11
37.8872
 21
142.014
  0
LINE
  8
0
 10
37.8872
 20
142.014
 11
38.1
 21
142.193
  0
LINE
  8
0
 10
38.1
 20
142.193
 11
38.3611
 21
142.288
  0
LINE
  8
0
 10
38.3611
 20
142.288
 11
38.6389
 21
142.288
  0
LINE
  8
0
 10
38.6389
 20
142.288
 11
38.9
 21
142.193
  0
LINE
  8
0
 10
38.9
 20
142.193
 11
39.1128
 21
142.014
  0
LINE
  8
0
 10
39.1128
 20
142.014
 11
39.2518
 21
141.774
  0
LINE
  8
0
 10
39.2518
 20
141.774
 11
39.3
 21
141.5
  0
LINE
  8
0
 10
39.3
 20
141.5
 11
39.2518
 21
141.226
  0
LINE
  8
0
 10
39.2518
 20
141.226
 11
39.1128
 21
140.986
  0
LINE
  8
0
 10
39.1128
 20
140.986
 11
38.9
 21
140.807
  0
LINE
  8
0
 10
38.9
 20
140.807
 11
38.6389
 21
140.712
  0
LINE
  8
0
 10
38.6389
 20
140.712
 11
38.3611
 21
140.712
  0
LINE
  8
0
 10
32.3611
 20
132.712
 11
32.1
 21
132.807
  0
LINE
  8
0
 10
32.1
 20
132.807
 11
31.8872
 21
132.986
  0
LINE
  8
0
 10
31.8872
 20
132.986
 11
31.7482
 21
133.226
  0
LINE
  8
0
 10
31.7482
 20
133.226
 11
31.7
 21
133.5
  0
LINE
  8
0
 10
31.7
 20
133.5
 11
31.7482
 21
133.774
  0
LINE
  8
0
 10
31.7482
 20
133.774
 11
31.8872
 21
134.014
  0
LINE
  8
0
 10
31.8872
 20
134.014
 11
32.1
 21
134.193
  0
LINE
  8
0
 10
32.1
 20
134.193
 11
32.3611
 21
134.288
  0
LINE
  8
0
 10
32.3611
 20
134.288
 11
32.6389
 21
134.288
  0
LINE
  8
0
 10
32.6389
 20
134.288
 11
32.9
 21
134.193
  0
LINE
  8
0
 10
32.9
 20
134.193
 11
33.1128
 21
134.014
  0
LINE
  8
0
 10
33.1128
 20
134.014
 11
33.2518
 21
133.774
  0
LINE
  8
0
 10
33.2518
 20
133.774
 11
33.3
 21
133.5
  0
LINE
  8
0
 10
33.3
 20
133.5
 11
33.2518
 21
133.226
  0
LINE
  8
0
 10
33.2518
 20
133.226
 11
33.1128
 21
132.986
  0
LINE
  8
0
 10
33.1128
 20
132.986
 11
32.9
 21
132.807
  0
LINE
  8
0
 10
32.9
 20
132.807
 11
32.6389
 21
132.712
  0
LINE
  8
0
 10
32.6389
 20
132.712
 11
32.3611
 21
132.712
  0
LINE
  8
0
 10
34.3611
 20
128.712
 11
34.1
 21
128.807
  0
LINE
  8
0
 10
34.1
 20
128.807
 11
33.8872
 21
128.986
  0
LINE
  8
0
 10
33.8872
 20
128.986
 11
33.7482
 21
129.226
  0
LINE
  8
0
 10
33.7482
 20
129.226
 11
33.7
 21
129.5
  0
LINE
  8
0
 10
33.7
 20
129.5
 11
33.7482
 21
129.774
  0
LINE
  8
0
 10
33.7482
 20
129.774
 11
33.8872
 21
130.014
  0
LINE
  8
0
 10
33.8872
 20
130.014
 11
34.1
 21
130.193
  0
LINE
  8
0
 10
34.1
 20
130.193
 11
34.3611
 21
130.288
  0
LINE
  8
0
 10
34.3611
 20
130.288
 11
34.6389
 21
130.288
  0
LINE
  8
0
 10
34.6389
 20
130.288
 11
34.9
 21
130.193
  0
LINE
  8
0
 10
34.9
 20
130.193
 11
35.1128
 21
130.014
  0
LINE
  8
0
 10
35.1128
 20
130.014
 11
35.2518
 21
129.774
  0
LINE
  8
0
 10
35.2518
 20
129.774
 11
35.3
 21
129.5
  0
LINE
  8
0
 10
35.3
 20
129.5
 11
35.2518
 21
129.226
  0
LINE
  8
0
 10
35.2518
 20
129.226
 11
35.1128
 21
128.986
  0
LINE
  8
0
 10
35.1128
 20
128.986
 11
34.9
 21
128.807
  0
LINE
  8
0
 10
34.9
 20
128.807
 11
34.6389
 21
128.712
  0
LINE
  8
0
 10
34.6389
 20
128.712
 11
34.3611
 21
128.712
  0
LINE
  8
0
 10
38.3611
 20
124.712
 11
38.1
 21
124.807
  0
LINE
  8
0
 10
38.1
 20
124.807
 11
37.8872
 21
124.986
  0
LINE
  8
0
 10
37.8872
 20
124.986
 11
37.7482
 21
125.226
  0
LINE
  8
0
 10
37.7482
 20
125.226
 11
37.7
 21
125.5
  0
LINE
  8
0
 10
37.7
 20
125.5
 11
37.7482
 21
125.774
  0
LINE
  8
0
 10
37.7482
 20
125.774
 11
37.8872
 21
126.014
  0
LINE
  8
0
 10
37.8872
 20
126.014
 11
38.1
 21
126.193
  0
LINE
  8
0
 10
38.1
 20
126.193
 11
38.3611
 21
126.288
  0
LINE
  8
0
 10
38.3611
 20
126.288
 11
38.6389
 21
126.288
  0
LINE
  8
0
 10
38.6389
 20
126.288
 11
38.9
 21
126.193
  0
LINE
  8
0
 10
38.9
 20
126.193
 11
39.1128
 21
126.014
  0
LINE
  8
0
 10
39.1128
 20
126.014
 11
39.2518
 21
125.774
  0
LINE
  8
0
 10
39.2518
 20
125.774
 11
39.3
 21
125.5
  0
LINE
  8
0
 10
39.3
 20
125.5
 11
39.2518
 21
125.226
  0
LINE
  8
0
 10
39.2518
 20
125.226
 11
39.1128
 21
124.986
  0
LINE
  8
0
 10
39.1128
 20
124.986
 11
38.9
 21
124.807
  0
LINE
  8
0
 10
38.9
 20
124.807
 11
38.6389
 21
124.712
  0
LINE
  8
0
 10
38.6389
 20
124.712
 11
38.3611
 21
124.712
  0
LINE
  8
0
 10
34.3611
 20
120.712
 11
34.1
 21
120.807
  0
LINE
  8
0
 10
34.1
 20
120.807
 11
33.8872
 21
120.986
  0
LINE
  8
0
 10
33.8872
 20
120.986
 11
33.7482
 21
121.226
  0
LINE
  8
0
 10
33.7482
 20
121.226
 11
33.7
 21
121.5
  0
LINE
  8
0
 10
33.7
 20
121.5
 11
33.7482
 21
121.774
  0
LINE
  8
0
 10
33.7482
 20
121.774
 11
33.8872
 21
122.014
  0
LINE
  8
0
 10
33.8872
 20
122.014
 11
34.1
 21
122.193
  0
LINE
  8
0
 10
34.1
 20
122.193
 11
34.3611
 21
122.288
  0
LINE
  8
0
 10
34.3611
 20
122.288
 11
34.6389
 21
122.288
  0
LINE
  8
0
 10
34.6389
 20
122.288
 11
34.9
 21
122.193
  0
LINE
  8
0
 10
34.9
 20
122.193
 11
35.1128
 21
122.014
  0
LINE
  8
0
 10
35.1128
 20
122.014
 11
35.2518
 21
121.774
  0
LINE
  8
0
 10
35.2518
 20
121.774
 11
35.3
 21
121.5
  0
LINE
  8
0
 10
35.3
 20
121.5
 11
35.2518
 21
121.226
  0
LINE
  8
0
 10
35.2518
 20
121.226
 11
35.1128
 21
120.986
  0
LINE
  8
0
 10
35.1128
 20
120.986
 11
34.9
 21
120.807
  0
LINE
  8
0
 10
34.9
 20
120.807
 11
34.6389
 21
120.712
  0
LINE
  8
0
 10
34.6389
 20
120.712
 11
34.3611
 21
120.712
  0
LINE
  8
0
 10
38.3611
 20
108.712
 11
38.1
 21
108.807
  0
LINE
  8
0
 10
38.1
 20
108.807
 11
37.8872
 21
108.986
  0
LINE
  8
0
 10
37.8872
 20
108.986
 11
37.7482
 21
109.226
  0
LINE
  8
0
 10
37.7482
 20
109.226
 11
37.7
 21
109.5
  0
LINE
  8
0
 10
37.7
 20
109.5
 11
37.7482
 21
109.774
  0
LINE
  8
0
 10
37.7482
 20
109.774
 11
37.8872
 21
110.014
  0
LINE
  8
0
 10
37.8872
 20
110.014
 11
38.1
 21
110.193
  0
LINE
  8
0
 10
38.1
 20
110.193
 11
38.3611
 21
110.288
  0
LINE
  8
0
 10
38.3611
 20
110.288
 11
38.6389
 21
110.288
  0
LINE
  8
0
 10
38.6389
 20
110.288
 11
38.9
 21
110.193
  0
LINE
  8
0
 10
38.9
 20
110.193
 11
39.1128
 21
110.014
  0
LINE
  8
0
 10
39.1128
 20
110.014
 11
39.2518
 21
109.774
  0
LINE
  8
0
 10
39.2518
 20
109.774
 11
39.3
 21
109.5
  0
LINE
  8
0
 10
39.3
 20
109.5
 11
39.2518
 21
109.226
  0
LINE
  8
0
 10
39.2518
 20
109.226
 11
39.1128
 21
108.986
  0
LINE
  8
0
 10
39.1128
 20
108.986
 11
38.9
 21
108.807
  0
LINE
  8
0
 10
38.9
 20
108.807
 11
38.6389
 21
108.712
  0
LINE
  8
0
 10
38.6389
 20
108.712
 11
38.3611
 21
108.712
  0
LINE
  8
0
 10
34.3611
 20
100.712
 11
34.1
 21
100.807
  0
LINE
  8
0
 10
34.1
 20
100.807
 11
33.8872
 21
100.986
  0
LINE
  8
0
 10
33.8872
 20
100.986
 11
33.7482
 21
101.226
  0
LINE
  8
0
 10
33.7482
 20
101.226
 11
33.7
 21
101.5
  0
LINE
  8
0
 10
33.7
 20
101.5
 11
33.7482
 21
101.774
  0
LINE
  8
0
 10
33.7482
 20
101.774
 11
33.8872
 21
102.014
  0
LINE
  8
0
 10
33.8872
 20
102.014
 11
34.1
 21
102.193
  0
LINE
  8
0
 10
34.1
 20
102.193
 11
34.3611
 21
102.288
  0
LINE
  8
0
 10
34.3611
 20
102.288
 11
34.6389
 21
102.288
  0
LINE
  8
0
 10
34.6389
 20
102.288
 11
34.9
 21
102.193
  0
LINE
  8
0
 10
34.9
 20
102.193
 11
35.1128
 21
102.014
  0
LINE
  8
0
 10
35.1128
 20
102.014
 11
35.2518
 21
101.774
  0
LINE
  8
0
 10
35.2518
 20
101.774
 11
35.3
 21
101.5
  0
LINE
  8
0
 10
35.3
 20
101.5
 11
35.2518
 21
101.226
  0
LINE
  8
0
 10
35.2518
 20
101.226
 11
35.1128
 21
100.986
  0
LINE
  8
0
 10
35.1128
 20
100.986
 11
34.9
 21
100.807
  0
LINE
  8
0
 10
34.9
 20
100.807
 11
34.6389
 21
100.712
  0
LINE
  8
0
 10
34.6389
 20
100.712
 11
34.3611
 21
100.712
  0
LINE
  8
0
 10
42.3611
 20
96.7121
 11
42.1
 21
96.8072
  0
LINE
  8
0
 10
42.1
 20
96.8072
 11
41.8872
 21
96.9858
  0
LINE
  8
0
 10
41.8872
 20
96.9858
 11
41.7482
 21
97.2264
  0
LINE
  8
0
 10
41.7482
 20
97.2264
 11
41.7
 21
97.5
  0
LINE
  8
0
 10
41.7
 20
97.5
 11
41.7482
 21
97.7736
  0
LINE
  8
0
 10
41.7482
 20
97.7736
 11
41.8872
 21
98.0142
  0
LINE
  8
0
 10
41.8872
 20
98.0142
 11
42.1
 21
98.1928
  0
LINE
  8
0
 10
42.1
 20
98.1928
 11
42.3611
 21
98.2878
  0
LINE
  8
0
 10
42.3611
 20
98.2878
 11
42.6389
 21
98.2878
  0
LINE
  8
0
 10
42.6389
 20
98.2878
 11
42.9
 21
98.1928
  0
LINE
  8
0
 10
42.9
 20
98.1928
 11
43.1128
 21
98.0142
  0
LINE
  8
0
 10
43.1128
 20
98.0142
 11
43.2518
 21
97.7736
  0
LINE
  8
0
 10
43.2518
 20
97.7736
 11
43.3
 21
97.5
  0
LINE
  8
0
 10
43.3
 20
97.5
 11
43.2518
 21
97.2264
  0
LINE
  8
0
 10
43.2518
 20
97.2264
 11
43.1128
 21
96.9858
  0
LINE
  8
0
 10
43.1128
 20
96.9858
 11
42.9
 21
96.8072
  0
LINE
  8
0
 10
42.9
 20
96.8072
 11
42.6389
 21
96.7121
  0
LINE
  8
0
 10
42.6389
 20
96.7121
 11
42.3611
 21
96.7121
  0
LINE
  8
0
 10
42.3611
 20
88.7121
 11
42.1
 21
88.8072
  0
LINE
  8
0
 10
42.1
 20
88.8072
 11
41.8872
 21
88.9858
  0
LINE
  8
0
 10
41.8872
 20
88.9858
 11
41.7482
 21
89.2264
  0
LINE
  8
0
 10
41.7482
 20
89.2264
 11
41.7
 21
89.5
  0
LINE
  8
0
 10
41.7
 20
89.5
 11
41.7482
 21
89.7736
  0
LINE
  8
0
 10
41.7482
 20
89.7736
 11
41.8872
 21
90.0142
  0
LINE
  8
0
 10
41.8872
 20
90.0142
 11
42.1
 21
90.1928
  0
LINE
  8
0
 10
42.1
 20
90.1928
 11
42.3611
 21
90.2878
  0
LINE
  8
0
 10
42.3611
 20
90.2878
 11
42.6389
 21
90.2878
  0
LINE
  8
0
 10
42.6389
 20
90.2878
 11
42.9
 21
90.1928
  0
LINE
  8
0
 10
42.9
 20
90.1928
 11
43.1128
 21
90.0142
  0
LINE
  8
0
 10
43.1128
 20
90.0142
 11
43.2518
 21
89.7736
  0
LINE
  8
0
 10
43.2518
 20
89.7736
 11
43.3
 21
89.5
  0
LINE
  8
0
 10
43.3
 20
89.5
 11
43.2518
 21
89.2264
  0
LINE
  8
0
 10
43.2518
 20
89.2264
 11
43.1128
 21
88.9858
  0
LINE
  8
0
 10
43.1128
 20
88.9858
 11
42.9
 21
88.8072
  0
LINE
  8
0
 10
42.9
 20
88.8072
 11
42.6389
 21
88.7121
  0
LINE
  8
0
 10
42.6389
 20
88.7121
 11
42.3611
 21
88.7121
  0
LINE
  8
0
 10
24.3611
 20
80.7121
 11
24.1
 21
80.8072
  0
LINE
  8
0
 10
24.1
 20
80.8072
 11
23.8872
 21
80.9858
  0
LINE
  8
0
 10
23.8872
 20
80.9858
 11
23.7482
 21
81.2264
  0
LINE
  8
0
 10
23.7482
 20
81.2264
 11
23.7
 21
81.5
  0
LINE
  8
0
 10
23.7
 20
81.5
 11
23.7482
 21
81.7736
  0
LINE
  8
0
 10
23.7482
 20
81.7736
 11
23.8872
 21
82.0142
  0
LINE
  8
0
 10
23.8872
 20
82.0142
 11
24.1
 21
82.1928
  0
LINE
  8
0
 10
24.1
 20
82.1928
 11
24.3611
 21
82.2878
  0
LINE
  8
0
 10
24.3611
 20
82.2878
 11
24.6389
 21
82.2878
  0
LINE
  8
0
 10
24.6389
 20
82.2878
 11
24.9
 21
82.1928
  0
LINE
  8
0
 10
24.9
 20
82.1928
 11
25.1128
 21
82.0142
  0
LINE
  8
0
 10
25.1128
 20
82.0142
 11
25.2518
 21
81.7736
  0
LINE
  8
0
 10
25.2518
 20
81.7736
 11
25.3
 21
81.5
  0
LINE
  8
0
 10
25.3
 20
81.5
 11
25.2518
 21
81.2264
  0
LINE
  8
0
 10
25.2518
 20
81.2264
 11
25.1128
 21
80.9858
  0
LINE
  8
0
 10
25.1128
 20
80.9858
 11
24.9
 21
80.8072
  0
LINE
  8
0
 10
24.9
 20
80.8072
 11
24.6389
 21
80.7121
  0
LINE
  8
0
 10
24.6389
 20
80.7121
 11
24.3611
 21
80.7121
  0
LINE
  8
0
 10
42.3611
 20
72.7121
 11
42.1
 21
72.8072
  0
LINE
  8
0
 10
42.1
 20
72.8072
 11
41.8872
 21
72.9858
  0
LINE
  8
0
 10
41.8872
 20
72.9858
 11
41.7482
 21
73.2264
  0
LINE
  8
0
 10
41.7482
 20
73.2264
 11
41.7
 21
73.5
  0
LINE
  8
0
 10
41.7
 20
73.5
 11
41.7482
 21
73.7736
  0
LINE
  8
0
 10
41.7482
 20
73.7736
 11
41.8872
 21
74.0142
  0
LINE
  8
0
 10
41.8872
 20
74.0142
 11
42.1
 21
74.1928
  0
LINE
  8
0
 10
42.1
 20
74.1928
 11
42.3611
 21
74.2878
  0
LINE
  8
0
 10
42.3611
 20
74.2878
 11
42.6389
 21
74.2878
  0
LINE
  8
0
 10
42.6389
 20
74.2878
 11
42.9
 21
74.1928
  0
LINE
  8
0
 10
42.9
 20
74.1928
 11
43.1128
 21
74.0142
  0
LINE
  8
0
 10
43.1128
 20
74.0142
 11
43.2518
 21
73.7736
  0
LINE
  8
0
 10
43.2518
 20
73.7736
 11
43.3
 21
73.5
  0
LINE
  8
0
 10
43.3
 20
73.5
 11
43.2518
 21
73.2264
  0
LINE
  8
0
 10
43.2518
 20
73.2264
 11
43.1128
 21
72.9858
  0
LINE
  8
0
 10
43.1128
 20
72.9858
 11
42.9
 21
72.8072
  0
LINE
  8
0
 10
42.9
 20
72.8072
 11
42.6389
 21
72.7121
  0
LINE
  8
0
 10
42.6389
 20
72.7121
 11
42.3611
 21
72.7121
  0
LINE
  8
0
 10
24.3611
 20
64.7121
 11
24.1
 21
64.8072
  0
LINE
  8
0
 10
24.1
 20
64.8072
 11
23.8872
 21
64.9858
  0
LINE
  8
0
 10
23.8872
 20
64.9858
 11
23.7482
 21
65.2264
  0
LINE
  8
0
 10
23.7482
 20
65.2264
 11
23.7
 21
65.5
  0
LINE
  8
0
 10
23.7
 20
65.5
 11
23.7482
 21
65.7736
  0
LINE
  8
0
 10
23.7482
 20
65.7736
 11
23.8872
 21
66.0142
  0
LINE
  8
0
 10
23.8872
 20
66.0142
 11
24.1
 21
66.1928
  0
LINE
  8
0
 10
24.1
 20
66.1928
 11
24.3611
 21
66.2878
  0
LINE
  8
0
 10
24.3611
 20
66.2878
 11
24.6389
 21
66.2878
  0
LINE
  8
0
 10
24.6389
 20
66.2878
 11
24.9
 21
66.1928
  0
LINE
  8
0
 10
24.9
 20
66.1928
 11
25.1128
 21
66.0142
  0
LINE
  8
0
 10
25.1128
 20
66.0142
 11
25.2518
 21
65.7736
  0
LINE
  8
0
 10
25.2518
 20
65.7736
 11
25.3
 21
65.5
  0
LINE
  8
0
 10
25.3
 20
65.5
 11
25.2518
 21
65.2264
  0
LINE
  8
0
 10
25.2518
 20
65.2264
 11
25.1128
 21
64.9858
  0
LINE
  8
0
 10
25.1128
 20
64.9858
 11
24.9
 21
64.8072
  0
LINE
  8
0
 10
24.9
 20
64.8072
 11
24.6389
 21
64.7121
  0
LINE
  8
0
 10
24.6389
 20
64.7121
 11
24.3611
 21
64.7121
  0
LINE
  8
0
 10
38.3611
 20
56.7121
 11
38.1
 21
56.8072
  0
LINE
  8
0
 10
38.1
 20
56.8072
 11
37.8872
 21
56.9858
  0
LINE
  8
0
 10
37.8872
 20
56.9858
 11
37.7482
 21
57.2264
  0
LINE
  8
0
 10
37.7482
 20
57.2264
 11
37.7
 21
57.5
  0
LINE
  8
0
 10
37.7
 20
57.5
 11
37.7482
 21
57.7736
  0
LINE
  8
0
 10
37.7482
 20
57.7736
 11
37.8872
 21
58.0142
  0
LINE
  8
0
 10
37.8872
 20
58.0142
 11
38.1
 21
58.1928
  0
LINE
  8
0
 10
38.1
 20
58.1928
 11
38.3611
 21
58.2878
  0
LINE
  8
0
 10
38.3611
 20
58.2878
 11
38.6389
 21
58.2878
  0
LINE
  8
0
 10
38.6389
 20
58.2878
 11
38.9
 21
58.1928
  0
LINE
  8
0
 10
38.9
 20
58.1928
 11
39.1128
 21
58.0142
  0
LINE
  8
0
 10
39.1128
 20
58.0142
 11
39.2518
 21
57.7736
  0
LINE
  8
0
 10
39.2518
 20
57.7736
 11
39.3
 21
57.5
  0
LINE
  8
0
 10
39.3
 20
57.5
 11
39.2518
 21
57.2264
  0
LINE
  8
0
 10
39.2518
 20
57.2264
 11
39.1128
 21
56.9858
  0
LINE
  8
0
 10
39.1128
 20
56.9858
 11
38.9
 21
56.8072
  0
LINE
  8
0
 10
38.9
 20
56.8072
 11
38.6389
 21
56.7121
  0
LINE
  8
0
 10
38.6389
 20
56.7121
 11
38.3611
 21
56.7121
  0
LINE
  8
0
 10
24.3611
 20
48.7121
 11
24.1
 21
48.8072
  0
LINE
  8
0
 10
24.1
 20
48.8072
 11
23.8872
 21
48.9858
  0
LINE
  8
0
 10
23.8872
 20
48.9858
 11
23.7482
 21
49.2264
  0
LINE
  8
0
 10
23.7482
 20
49.2264
 11
23.7
 21
49.5
  0
LINE
  8
0
 10
23.7
 20
49.5
 11
23.7482
 21
49.7736
  0
LINE
  8
0
 10
23.7482
 20
49.7736
 11
23.8872
 21
50.0142
  0
LINE
  8
0
 10
23.8872
 20
50.0142
 11
24.1
 21
50.1928
  0
LINE
  8
0
 10
24.1
 20
50.1928
 11
24.3611
 21
50.2878
  0
LINE
  8
0
 10
24.3611
 20
50.2878
 11
24.6389
 21
50.2878
  0
LINE
  8
0
 10
24.6389
 20
50.2878
 11
24.9
 21
50.1928
  0
LINE
  8
0
 10
24.9
 20
50.1928
 11
25.1128
 21
50.0142
  0
LINE
  8
0
 10
25.1128
 20
50.0142
 11
25.2518
 21
49.7736
  0
LINE
  8
0
 10
25.2518
 20
49.7736
 11
25.3
 21
49.5
  0
LINE
  8
0
 10
25.3
 20
49.5
 11
25.2518
 21
49.2264
  0
LINE
  8
0
 10
25.2518
 20
49.2264
 11
25.1128
 21
48.9858
  0
LINE
  8
0
 10
25.1128
 20
48.9858
 11
24.9
 21
48.8072
  0
LINE
  8
0
 10
24.9
 20
48.8072
 11
24.6389
 21
48.7121
  0
LINE
  8
0
 10
24.6389
 20
48.7121
 11
24.3611
 21
48.7121
  0
LINE
  8
0
 10
38.3611
 20
40.7121
 11
38.1
 21
40.8072
  0
LINE
  8
0
 10
38.1
 20
40.8072
 11
37.8872
 21
40.9858
  0
LINE
  8
0
 10
37.8872
 20
40.9858
 11
37.7482
 21
41.2264
  0
LINE
  8
0
 10
37.7482
 20
41.2264
 11
37.7
 21
41.5
  0
LINE
  8
0
 10
37.7
 20
41.5
 11
37.7482
 21
41.7736
  0
LINE
  8
0
 10
37.7482
 20
41.7736
 11
37.8872
 21
42.0142
  0
LINE
  8
0
 10
37.8872
 20
42.0142
 11
38.1
 21
42.1928
  0
LINE
  8
0
 10
38.1
 20
42.1928
 11
38.3611
 21
42.2878
  0
LINE
  8
0
 10
38.3611
 20
42.2878
 11
38.6389
 21
42.2878
  0
LINE
  8
0
 10
38.6389
 20
42.2878
 11
38.9
 21
42.1928
  0
LINE
  8
0
 10
38.9
 20
42.1928
 11
39.1128
 21
42.0142
  0
LINE
  8
0
 10
39.1128
 20
42.0142
 11
39.2518
 21
41.7736
  0
LINE
  8
0
 10
39.2518
 20
41.7736
 11
39.3
 21
41.5
  0
LINE
  8
0
 10
39.3
 20
41.5
 11
39.2518
 21
41.2264
  0
LINE
  8
0
 10
39.2518
 20
41.2264
 11
39.1128
 21
40.9858
  0
LINE
  8
0
 10
39.1128
 20
40.9858
 11
38.9
 21
40.8072
  0
LINE
  8
0
 10
38.9
 20
40.8072
 11
38.6389
 21
40.7121
  0
LINE
  8
0
 10
38.6389
 20
40.7121
 11
38.3611
 21
40.7121
  0
LINE
  8
0
 10
24.3611
 20
32.7121
 11
24.1
 21
32.8072
  0
LINE
  8
0
 10
24.1
 20
32.8072
 11
23.8872
 21
32.9858
  0
LINE
  8
0
 10
23.8872
 20
32.9858
 11
23.7482
 21
33.2264
  0
LINE
  8
0
 10
23.7482
 20
33.2264
 11
23.7
 21
33.5
  0
LINE
  8
0
 10
23.7
 20
33.5
 11
23.7482
 21
33.7736
  0
LINE
  8
0
 10
23.7482
 20
33.7736
 11
23.8872
 21
34.0142
  0
LINE
  8
0
 10
23.8872
 20
34.0142
 11
24.1
 21
34.1928
  0
LINE
  8
0
 10
24.1
 20
34.1928
 11
24.3611
 21
34.2878
  0
LINE
  8
0
 10
24.3611
 20
34.2878
 11
24.6389
 21
34.2878
  0
LINE
  8
0
 10
24.6389
 20
34.2878
 11
24.9
 21
34.1928
  0
LINE
  8
0
 10
24.9
 20
34.1928
 11
25.1128
 21
34.0142
  0
LINE
  8
0
 10
25.1128
 20
34.0142
 11
25.2518
 21
33.7736
  0
LINE
  8
0
 10
25.2518
 20
33.7736
 11
25.3
 21
33.5
  0
LINE
  8
0
 10
25.3
 20
33.5
 11
25.2518
 21
33.2264
  0
LINE
  8
0
 10
25.2518
 20
33.2264
 11
25.1128
 21
32.9858
  0
LINE
  8
0
 10
25.1128
 20
32.9858
 11
24.9
 21
32.8072
  0
LINE
  8
0
 10
24.9
 20
32.8072
 11
24.6389
 21
32.7121
  0
LINE
  8
0
 10
24.6389
 20
32.7121
 11
24.3611
 21
32.7121
  0
ENDSEC
  0
SECTION
  2
OBJECTS
  0
DICTIONARY
  0
ENDSEC
  0
EOF
