  0
SECTION
  2
BLOCKS
  0
ENDSEC
  0
SECTION
  2
ENTITIES
  0
LINE
  8
0
 10
41
 20
930
 11
0
 21
930
  0
LINE
  8
0
 10
0
 20
930
 11
0
 21
0
  0
LINE
  8
0
 10
0
 20
0
 11
41
 21
0
  0
LINE
  8
0
 10
41
 20
0
 11
41
 21
930
  0
LINE
  8
0
 10
20.7916
 20
915.818
 11
20.4
 21
915.961
  0
LINE
  8
0
 10
20.4
 20
915.961
 11
20.0807
 21
916.229
  0
LINE
  8
0
 10
20.0807
 20
916.229
 11
19.8724
 21
916.59
  0
LINE
  8
0
 10
19.8724
 20
916.59
 11
19.8
 21
917
  0
LINE
  8
0
 10
19.8
 20
917
 11
19.8724
 21
917.41
  0
LINE
  8
0
 10
19.8724
 20
917.41
 11
20.0807
 21
917.771
  0
LINE
  8
0
 10
20.0807
 20
917.771
 11
20.4
 21
918.039
  0
LINE
  8
0
 10
20.4
 20
918.039
 11
20.7916
 21
918.182
  0
LINE
  8
0
 10
20.7916
 20
918.182
 11
21.2084
 21
918.182
  0
LINE
  8
0
 10
21.2084
 20
918.182
 11
21.6
 21
918.039
  0
LINE
  8
0
 10
21.6
 20
918.039
 11
21.9193
 21
917.771
  0
LINE
  8
0
 10
21.9193
 20
917.771
 11
22.1276
 21
917.41
  0
LINE
  8
0
 10
22.1276
 20
917.41
 11
22.2
 21
917
  0
LINE
  8
0
 10
22.2
 20
917
 11
22.1276
 21
916.59
  0
LINE
  8
0
 10
22.1276
 20
916.59
 11
21.9193
 21
916.229
  0
LINE
  8
0
 10
21.9193
 20
916.229
 11
21.6
 21
915.961
  0
LINE
  8
0
 10
21.6
 20
915.961
 11
21.2084
 21
915.818
  0
LINE
  8
0
 10
21.2084
 20
915.818
 11
20.7916
 21
915.818
  0
LINE
  8
0
 10
20.7916
 20
899.818
 11
20.4
 21
899.961
  0
LINE
  8
0
 10
20.4
 20
899.961
 11
20.0807
 21
900.229
  0
LINE
  8
0
 10
20.0807
 20
900.229
 11
19.8724
 21
900.59
  0
LINE
  8
0
 10
19.8724
 20
900.59
 11
19.8
 21
901
  0
LINE
  8
0
 10
19.8
 20
901
 11
19.8724
 21
901.41
  0
LINE
  8
0
 10
19.8724
 20
901.41
 11
20.0807
 21
901.771
  0
LINE
  8
0
 10
20.0807
 20
901.771
 11
20.4
 21
902.039
  0
LINE
  8
0
 10
20.4
 20
902.039
 11
20.7916
 21
902.182
  0
LINE
  8
0
 10
20.7916
 20
902.182
 11
21.2084
 21
902.182
  0
LINE
  8
0
 10
21.2084
 20
902.182
 11
21.6
 21
902.039
  0
LINE
  8
0
 10
21.6
 20
902.039
 11
21.9193
 21
901.771
  0
LINE
  8
0
 10
21.9193
 20
901.771
 11
22.1276
 21
901.41
  0
LINE
  8
0
 10
22.1276
 20
901.41
 11
22.2
 21
901
  0
LINE
  8
0
 10
22.2
 20
901
 11
22.1276
 21
900.59
  0
LINE
  8
0
 10
22.1276
 20
900.59
 11
21.9193
 21
900.229
  0
LINE
  8
0
 10
21.9193
 20
900.229
 11
21.6
 21
899.961
  0
LINE
  8
0
 10
21.6
 20
899.961
 11
21.2084
 21
899.818
  0
LINE
  8
0
 10
21.2084
 20
899.818
 11
20.7916
 21
899.818
  0
LINE
  8
0
 10
24.7916
 20
883.818
 11
24.4
 21
883.961
  0
LINE
  8
0
 10
24.4
 20
883.961
 11
24.0807
 21
884.229
  0
LINE
  8
0
 10
24.0807
 20
884.229
 11
23.8724
 21
884.59
  0
LINE
  8
0
 10
23.8724
 20
884.59
 11
23.8
 21
885
  0
LINE
  8
0
 10
23.8
 20
885
 11
23.8724
 21
885.41
  0
LINE
  8
0
 10
23.8724
 20
885.41
 11
24.0807
 21
885.771
  0
LINE
  8
0
 10
24.0807
 20
885.771
 11
24.4
 21
886.039
  0
LINE
  8
0
 10
24.4
 20
886.039
 11
24.7916
 21
886.182
  0
LINE
  8
0
 10
24.7916
 20
886.182
 11
25.2084
 21
886.182
  0
LINE
  8
0
 10
25.2084
 20
886.182
 11
25.6
 21
886.039
  0
LINE
  8
0
 10
25.6
 20
886.039
 11
25.9193
 21
885.771
  0
LINE
  8
0
 10
25.9193
 20
885.771
 11
26.1276
 21
885.41
  0
LINE
  8
0
 10
26.1276
 20
885.41
 11
26.2
 21
885
  0
LINE
  8
0
 10
26.2
 20
885
 11
26.1276
 21
884.59
  0
LINE
  8
0
 10
26.1276
 20
884.59
 11
25.9193
 21
884.229
  0
LINE
  8
0
 10
25.9193
 20
884.229
 11
25.6
 21
883.961
  0
LINE
  8
0
 10
25.6
 20
883.961
 11
25.2084
 21
883.818
  0
LINE
  8
0
 10
25.2084
 20
883.818
 11
24.7916
 21
883.818
  0
LINE
  8
0
 10
20.7916
 20
875.818
 11
20.4
 21
875.961
  0
LINE
  8
0
 10
20.4
 20
875.961
 11
20.0807
 21
876.229
  0
LINE
  8
0
 10
20.0807
 20
876.229
 11
19.8724
 21
876.59
  0
LINE
  8
0
 10
19.8724
 20
876.59
 11
19.8
 21
877
  0
LINE
  8
0
 10
19.8
 20
877
 11
19.8724
 21
877.41
  0
LINE
  8
0
 10
19.8724
 20
877.41
 11
20.0807
 21
877.771
  0
LINE
  8
0
 10
20.0807
 20
877.771
 11
20.4
 21
878.039
  0
LINE
  8
0
 10
20.4
 20
878.039
 11
20.7916
 21
878.182
  0
LINE
  8
0
 10
20.7916
 20
878.182
 11
21.2084
 21
878.182
  0
LINE
  8
0
 10
21.2084
 20
878.182
 11
21.6
 21
878.039
  0
LINE
  8
0
 10
21.6
 20
878.039
 11
21.9193
 21
877.771
  0
LINE
  8
0
 10
21.9193
 20
877.771
 11
22.1276
 21
877.41
  0
LINE
  8
0
 10
22.1276
 20
877.41
 11
22.2
 21
877
  0
LINE
  8
0
 10
22.2
 20
877
 11
22.1276
 21
876.59
  0
LINE
  8
0
 10
22.1276
 20
876.59
 11
21.9193
 21
876.229
  0
LINE
  8
0
 10
21.9193
 20
876.229
 11
21.6
 21
875.961
  0
LINE
  8
0
 10
21.6
 20
875.961
 11
21.2084
 21
875.818
  0
LINE
  8
0
 10
21.2084
 20
875.818
 11
20.7916
 21
875.818
  0
LINE
  8
0
 10
18.7916
 20
867.818
 11
18.4
 21
867.961
  0
LINE
  8
0
 10
18.4
 20
867.961
 11
18.0807
 21
868.229
  0
LINE
  8
0
 10
18.0807
 20
868.229
 11
17.8724
 21
868.59
  0
LINE
  8
0
 10
17.8724
 20
868.59
 11
17.8
 21
869
  0
LINE
  8
0
 10
17.8
 20
869
 11
17.8724
 21
869.41
  0
LINE
  8
0
 10
17.8724
 20
869.41
 11
18.0807
 21
869.771
  0
LINE
  8
0
 10
18.0807
 20
869.771
 11
18.4
 21
870.039
  0
LINE
  8
0
 10
18.4
 20
870.039
 11
18.7916
 21
870.182
  0
LINE
  8
0
 10
18.7916
 20
870.182
 11
19.2084
 21
870.182
  0
LINE
  8
0
 10
19.2084
 20
870.182
 11
19.6
 21
870.039
  0
LINE
  8
0
 10
19.6
 20
870.039
 11
19.9193
 21
869.771
  0
LINE
  8
0
 10
19.9193
 20
869.771
 11
20.1276
 21
869.41
  0
LINE
  8
0
 10
20.1276
 20
869.41
 11
20.2
 21
869
  0
LINE
  8
0
 10
20.2
 20
869
 11
20.1276
 21
868.59
  0
LINE
  8
0
 10
20.1276
 20
868.59
 11
19.9193
 21
868.229
  0
LINE
  8
0
 10
19.9193
 20
868.229
 11
19.6
 21
867.961
  0
LINE
  8
0
 10
19.6
 20
867.961
 11
19.2084
 21
867.818
  0
LINE
  8
0
 10
19.2084
 20
867.818
 11
18.7916
 21
867.818
  0
LINE
  8
0
 10
18.7916
 20
851.818
 11
18.4
 21
851.961
  0
LINE
  8
0
 10
18.4
 20
851.961
 11
18.0807
 21
852.229
  0
LINE
  8
0
 10
18.0807
 20
852.229
 11
17.8724
 21
852.59
  0
LINE
  8
0
 10
17.8724
 20
852.59
 11
17.8
 21
853
  0
LINE
  8
0
 10
17.8
 20
853
 11
17.8724
 21
853.41
  0
LINE
  8
0
 10
17.8724
 20
853.41
 11
18.0807
 21
853.771
  0
LINE
  8
0
 10
18.0807
 20
853.771
 11
18.4
 21
854.039
  0
LINE
  8
0
 10
18.4
 20
854.039
 11
18.7916
 21
854.182
  0
LINE
  8
0
 10
18.7916
 20
854.182
 11
19.2084
 21
854.182
  0
LINE
  8
0
 10
19.2084
 20
854.182
 11
19.6
 21
854.039
  0
LINE
  8
0
 10
19.6
 20
854.039
 11
19.9193
 21
853.771
  0
LINE
  8
0
 10
19.9193
 20
853.771
 11
20.1276
 21
853.41
  0
LINE
  8
0
 10
20.1276
 20
853.41
 11
20.2
 21
853
  0
LINE
  8
0
 10
20.2
 20
853
 11
20.1276
 21
852.59
  0
LINE
  8
0
 10
20.1276
 20
852.59
 11
19.9193
 21
852.229
  0
LINE
  8
0
 10
19.9193
 20
852.229
 11
19.6
 21
851.961
  0
LINE
  8
0
 10
19.6
 20
851.961
 11
19.2084
 21
851.818
  0
LINE
  8
0
 10
19.2084
 20
851.818
 11
18.7916
 21
851.818
  0
LINE
  8
0
 10
18.7916
 20
835.818
 11
18.4
 21
835.961
  0
LINE
  8
0
 10
18.4
 20
835.961
 11
18.0807
 21
836.229
  0
LINE
  8
0
 10
18.0807
 20
836.229
 11
17.8724
 21
836.59
  0
LINE
  8
0
 10
17.8724
 20
836.59
 11
17.8
 21
837
  0
LINE
  8
0
 10
17.8
 20
837
 11
17.8724
 21
837.41
  0
LINE
  8
0
 10
17.8724
 20
837.41
 11
18.0807
 21
837.771
  0
LINE
  8
0
 10
18.0807
 20
837.771
 11
18.4
 21
838.039
  0
LINE
  8
0
 10
18.4
 20
838.039
 11
18.7916
 21
838.182
  0
LINE
  8
0
 10
18.7916
 20
838.182
 11
19.2084
 21
838.182
  0
LINE
  8
0
 10
19.2084
 20
838.182
 11
19.6
 21
838.039
  0
LINE
  8
0
 10
19.6
 20
838.039
 11
19.9193
 21
837.771
  0
LINE
  8
0
 10
19.9193
 20
837.771
 11
20.1276
 21
837.41
  0
LINE
  8
0
 10
20.1276
 20
837.41
 11
20.2
 21
837
  0
LINE
  8
0
 10
20.2
 20
837
 11
20.1276
 21
836.59
  0
LINE
  8
0
 10
20.1276
 20
836.59
 11
19.9193
 21
836.229
  0
LINE
  8
0
 10
19.9193
 20
836.229
 11
19.6
 21
835.961
  0
LINE
  8
0
 10
19.6
 20
835.961
 11
19.2084
 21
835.818
  0
LINE
  8
0
 10
19.2084
 20
835.818
 11
18.7916
 21
835.818
  0
LINE
  8
0
 10
24.7916
 20
819.818
 11
24.4
 21
819.961
  0
LINE
  8
0
 10
24.4
 20
819.961
 11
24.0807
 21
820.229
  0
LINE
  8
0
 10
24.0807
 20
820.229
 11
23.8724
 21
820.59
  0
LINE
  8
0
 10
23.8724
 20
820.59
 11
23.8
 21
821
  0
LINE
  8
0
 10
23.8
 20
821
 11
23.8724
 21
821.41
  0
LINE
  8
0
 10
23.8724
 20
821.41
 11
24.0807
 21
821.771
  0
LINE
  8
0
 10
24.0807
 20
821.771
 11
24.4
 21
822.039
  0
LINE
  8
0
 10
24.4
 20
822.039
 11
24.7916
 21
822.182
  0
LINE
  8
0
 10
24.7916
 20
822.182
 11
25.2084
 21
822.182
  0
LINE
  8
0
 10
25.2084
 20
822.182
 11
25.6
 21
822.039
  0
LINE
  8
0
 10
25.6
 20
822.039
 11
25.9193
 21
821.771
  0
LINE
  8
0
 10
25.9193
 20
821.771
 11
26.1276
 21
821.41
  0
LINE
  8
0
 10
26.1276
 20
821.41
 11
26.2
 21
821
  0
LINE
  8
0
 10
26.2
 20
821
 11
26.1276
 21
820.59
  0
LINE
  8
0
 10
26.1276
 20
820.59
 11
25.9193
 21
820.229
  0
LINE
  8
0
 10
25.9193
 20
820.229
 11
25.6
 21
819.961
  0
LINE
  8
0
 10
25.6
 20
819.961
 11
25.2084
 21
819.818
  0
LINE
  8
0
 10
25.2084
 20
819.818
 11
24.7916
 21
819.818
  0
LINE
  8
0
 10
20.7916
 20
811.818
 11
20.4
 21
811.961
  0
LINE
  8
0
 10
20.4
 20
811.961
 11
20.0807
 21
812.229
  0
LINE
  8
0
 10
20.0807
 20
812.229
 11
19.8724
 21
812.59
  0
LINE
  8
0
 10
19.8724
 20
812.59
 11
19.8
 21
813
  0
LINE
  8
0
 10
19.8
 20
813
 11
19.8724
 21
813.41
  0
LINE
  8
0
 10
19.8724
 20
813.41
 11
20.0807
 21
813.771
  0
LINE
  8
0
 10
20.0807
 20
813.771
 11
20.4
 21
814.039
  0
LINE
  8
0
 10
20.4
 20
814.039
 11
20.7916
 21
814.182
  0
LINE
  8
0
 10
20.7916
 20
814.182
 11
21.2084
 21
814.182
  0
LINE
  8
0
 10
21.2084
 20
814.182
 11
21.6
 21
814.039
  0
LINE
  8
0
 10
21.6
 20
814.039
 11
21.9193
 21
813.771
  0
LINE
  8
0
 10
21.9193
 20
813.771
 11
22.1276
 21
813.41
  0
LINE
  8
0
 10
22.1276
 20
813.41
 11
22.2
 21
813
  0
LINE
  8
0
 10
22.2
 20
813
 11
22.1276
 21
812.59
  0
LINE
  8
0
 10
22.1276
 20
812.59
 11
21.9193
 21
812.229
  0
LINE
  8
0
 10
21.9193
 20
812.229
 11
21.6
 21
811.961
  0
LINE
  8
0
 10
21.6
 20
811.961
 11
21.2084
 21
811.818
  0
LINE
  8
0
 10
21.2084
 20
811.818
 11
20.7916
 21
811.818
  0
LINE
  8
0
 10
18.7916
 20
803.818
 11
18.4
 21
803.961
  0
LINE
  8
0
 10
18.4
 20
803.961
 11
18.0807
 21
804.229
  0
LINE
  8
0
 10
18.0807
 20
804.229
 11
17.8724
 21
804.59
  0
LINE
  8
0
 10
17.8724
 20
804.59
 11
17.8
 21
805
  0
LINE
  8
0
 10
17.8
 20
805
 11
17.8724
 21
805.41
  0
LINE
  8
0
 10
17.8724
 20
805.41
 11
18.0807
 21
805.771
  0
LINE
  8
0
 10
18.0807
 20
805.771
 11
18.4
 21
806.039
  0
LINE
  8
0
 10
18.4
 20
806.039
 11
18.7916
 21
806.182
  0
LINE
  8
0
 10
18.7916
 20
806.182
 11
19.2084
 21
806.182
  0
LINE
  8
0
 10
19.2084
 20
806.182
 11
19.6
 21
806.039
  0
LINE
  8
0
 10
19.6
 20
806.039
 11
19.9193
 21
805.771
  0
LINE
  8
0
 10
19.9193
 20
805.771
 11
20.1276
 21
805.41
  0
LINE
  8
0
 10
20.1276
 20
805.41
 11
20.2
 21
805
  0
LINE
  8
0
 10
20.2
 20
805
 11
20.1276
 21
804.59
  0
LINE
  8
0
 10
20.1276
 20
804.59
 11
19.9193
 21
804.229
  0
LINE
  8
0
 10
19.9193
 20
804.229
 11
19.6
 21
803.961
  0
LINE
  8
0
 10
19.6
 20
803.961
 11
19.2084
 21
803.818
  0
LINE
  8
0
 10
19.2084
 20
803.818
 11
18.7916
 21
803.818
  0
LINE
  8
0
 10
18.7916
 20
787.818
 11
18.4
 21
787.961
  0
LINE
  8
0
 10
18.4
 20
787.961
 11
18.0807
 21
788.229
  0
LINE
  8
0
 10
18.0807
 20
788.229
 11
17.8724
 21
788.59
  0
LINE
  8
0
 10
17.8724
 20
788.59
 11
17.8
 21
789
  0
LINE
  8
0
 10
17.8
 20
789
 11
17.8724
 21
789.41
  0
LINE
  8
0
 10
17.8724
 20
789.41
 11
18.0807
 21
789.771
  0
LINE
  8
0
 10
18.0807
 20
789.771
 11
18.4
 21
790.039
  0
LINE
  8
0
 10
18.4
 20
790.039
 11
18.7916
 21
790.182
  0
LINE
  8
0
 10
18.7916
 20
790.182
 11
19.2084
 21
790.182
  0
LINE
  8
0
 10
19.2084
 20
790.182
 11
19.6
 21
790.039
  0
LINE
  8
0
 10
19.6
 20
790.039
 11
19.9193
 21
789.771
  0
LINE
  8
0
 10
19.9193
 20
789.771
 11
20.1276
 21
789.41
  0
LINE
  8
0
 10
20.1276
 20
789.41
 11
20.2
 21
789
  0
LINE
  8
0
 10
20.2
 20
789
 11
20.1276
 21
788.59
  0
LINE
  8
0
 10
20.1276
 20
788.59
 11
19.9193
 21
788.229
  0
LINE
  8
0
 10
19.9193
 20
788.229
 11
19.6
 21
787.961
  0
LINE
  8
0
 10
19.6
 20
787.961
 11
19.2084
 21
787.818
  0
LINE
  8
0
 10
19.2084
 20
787.818
 11
18.7916
 21
787.818
  0
LINE
  8
0
 10
18.7916
 20
771.818
 11
18.4
 21
771.961
  0
LINE
  8
0
 10
18.4
 20
771.961
 11
18.0807
 21
772.229
  0
LINE
  8
0
 10
18.0807
 20
772.229
 11
17.8724
 21
772.59
  0
LINE
  8
0
 10
17.8724
 20
772.59
 11
17.8
 21
773
  0
LINE
  8
0
 10
17.8
 20
773
 11
17.8724
 21
773.41
  0
LINE
  8
0
 10
17.8724
 20
773.41
 11
18.0807
 21
773.771
  0
LINE
  8
0
 10
18.0807
 20
773.771
 11
18.4
 21
774.039
  0
LINE
  8
0
 10
18.4
 20
774.039
 11
18.7916
 21
774.182
  0
LINE
  8
0
 10
18.7916
 20
774.182
 11
19.2084
 21
774.182
  0
LINE
  8
0
 10
19.2084
 20
774.182
 11
19.6
 21
774.039
  0
LINE
  8
0
 10
19.6
 20
774.039
 11
19.9193
 21
773.771
  0
LINE
  8
0
 10
19.9193
 20
773.771
 11
20.1276
 21
773.41
  0
LINE
  8
0
 10
20.1276
 20
773.41
 11
20.2
 21
773
  0
LINE
  8
0
 10
20.2
 20
773
 11
20.1276
 21
772.59
  0
LINE
  8
0
 10
20.1276
 20
772.59
 11
19.9193
 21
772.229
  0
LINE
  8
0
 10
19.9193
 20
772.229
 11
19.6
 21
771.961
  0
LINE
  8
0
 10
19.6
 20
771.961
 11
19.2084
 21
771.818
  0
LINE
  8
0
 10
19.2084
 20
771.818
 11
18.7916
 21
771.818
  0
LINE
  8
0
 10
28.7916
 20
715.818
 11
28.4
 21
715.961
  0
LINE
  8
0
 10
28.4
 20
715.961
 11
28.0807
 21
716.229
  0
LINE
  8
0
 10
28.0807
 20
716.229
 11
27.8724
 21
716.59
  0
LINE
  8
0
 10
27.8724
 20
716.59
 11
27.8
 21
717
  0
LINE
  8
0
 10
27.8
 20
717
 11
27.8724
 21
717.41
  0
LINE
  8
0
 10
27.8724
 20
717.41
 11
28.0807
 21
717.771
  0
LINE
  8
0
 10
28.0807
 20
717.771
 11
28.4
 21
718.039
  0
LINE
  8
0
 10
28.4
 20
718.039
 11
28.7916
 21
718.182
  0
LINE
  8
0
 10
28.7916
 20
718.182
 11
29.2084
 21
718.182
  0
LINE
  8
0
 10
29.2084
 20
718.182
 11
29.6
 21
718.039
  0
LINE
  8
0
 10
29.6
 20
718.039
 11
29.9193
 21
717.771
  0
LINE
  8
0
 10
29.9193
 20
717.771
 11
30.1276
 21
717.41
  0
LINE
  8
0
 10
30.1276
 20
717.41
 11
30.2
 21
717
  0
LINE
  8
0
 10
30.2
 20
717
 11
30.1276
 21
716.59
  0
LINE
  8
0
 10
30.1276
 20
716.59
 11
29.9193
 21
716.229
  0
LINE
  8
0
 10
29.9193
 20
716.229
 11
29.6
 21
715.961
  0
LINE
  8
0
 10
29.6
 20
715.961
 11
29.2084
 21
715.818
  0
LINE
  8
0
 10
29.2084
 20
715.818
 11
28.7916
 21
715.818
  0
LINE
  8
0
 10
24.7916
 20
699.818
 11
24.4
 21
699.961
  0
LINE
  8
0
 10
24.4
 20
699.961
 11
24.0807
 21
700.229
  0
LINE
  8
0
 10
24.0807
 20
700.229
 11
23.8724
 21
700.59
  0
LINE
  8
0
 10
23.8724
 20
700.59
 11
23.8
 21
701
  0
LINE
  8
0
 10
23.8
 20
701
 11
23.8724
 21
701.41
  0
LINE
  8
0
 10
23.8724
 20
701.41
 11
24.0807
 21
701.771
  0
LINE
  8
0
 10
24.0807
 20
701.771
 11
24.4
 21
702.039
  0
LINE
  8
0
 10
24.4
 20
702.039
 11
24.7916
 21
702.182
  0
LINE
  8
0
 10
24.7916
 20
702.182
 11
25.2084
 21
702.182
  0
LINE
  8
0
 10
25.2084
 20
702.182
 11
25.6
 21
702.039
  0
LINE
  8
0
 10
25.6
 20
702.039
 11
25.9193
 21
701.771
  0
LINE
  8
0
 10
25.9193
 20
701.771
 11
26.1276
 21
701.41
  0
LINE
  8
0
 10
26.1276
 20
701.41
 11
26.2
 21
701
  0
LINE
  8
0
 10
26.2
 20
701
 11
26.1276
 21
700.59
  0
LINE
  8
0
 10
26.1276
 20
700.59
 11
25.9193
 21
700.229
  0
LINE
  8
0
 10
25.9193
 20
700.229
 11
25.6
 21
699.961
  0
LINE
  8
0
 10
25.6
 20
699.961
 11
25.2084
 21
699.818
  0
LINE
  8
0
 10
25.2084
 20
699.818
 11
24.7916
 21
699.818
  0
LINE
  8
0
 10
22.7916
 20
683.818
 11
22.4
 21
683.961
  0
LINE
  8
0
 10
22.4
 20
683.961
 11
22.0807
 21
684.229
  0
LINE
  8
0
 10
22.0807
 20
684.229
 11
21.8724
 21
684.59
  0
LINE
  8
0
 10
21.8724
 20
684.59
 11
21.8
 21
685
  0
LINE
  8
0
 10
21.8
 20
685
 11
21.8724
 21
685.41
  0
LINE
  8
0
 10
21.8724
 20
685.41
 11
22.0807
 21
685.771
  0
LINE
  8
0
 10
22.0807
 20
685.771
 11
22.4
 21
686.039
  0
LINE
  8
0
 10
22.4
 20
686.039
 11
22.7916
 21
686.182
  0
LINE
  8
0
 10
22.7916
 20
686.182
 11
23.2084
 21
686.182
  0
LINE
  8
0
 10
23.2084
 20
686.182
 11
23.6
 21
686.039
  0
LINE
  8
0
 10
23.6
 20
686.039
 11
23.9193
 21
685.771
  0
LINE
  8
0
 10
23.9193
 20
685.771
 11
24.1276
 21
685.41
  0
LINE
  8
0
 10
24.1276
 20
685.41
 11
24.2
 21
685
  0
LINE
  8
0
 10
24.2
 20
685
 11
24.1276
 21
684.59
  0
LINE
  8
0
 10
24.1276
 20
684.59
 11
23.9193
 21
684.229
  0
LINE
  8
0
 10
23.9193
 20
684.229
 11
23.6
 21
683.961
  0
LINE
  8
0
 10
23.6
 20
683.961
 11
23.2084
 21
683.818
  0
LINE
  8
0
 10
23.2084
 20
683.818
 11
22.7916
 21
683.818
  0
LINE
  8
0
 10
20.7916
 20
675.818
 11
20.4
 21
675.961
  0
LINE
  8
0
 10
20.4
 20
675.961
 11
20.0807
 21
676.229
  0
LINE
  8
0
 10
20.0807
 20
676.229
 11
19.8724
 21
676.59
  0
LINE
  8
0
 10
19.8724
 20
676.59
 11
19.8
 21
677
  0
LINE
  8
0
 10
19.8
 20
677
 11
19.8724
 21
677.41
  0
LINE
  8
0
 10
19.8724
 20
677.41
 11
20.0807
 21
677.771
  0
LINE
  8
0
 10
20.0807
 20
677.771
 11
20.4
 21
678.039
  0
LINE
  8
0
 10
20.4
 20
678.039
 11
20.7916
 21
678.182
  0
LINE
  8
0
 10
20.7916
 20
678.182
 11
21.2084
 21
678.182
  0
LINE
  8
0
 10
21.2084
 20
678.182
 11
21.6
 21
678.039
  0
LINE
  8
0
 10
21.6
 20
678.039
 11
21.9193
 21
677.771
  0
LINE
  8
0
 10
21.9193
 20
677.771
 11
22.1276
 21
677.41
  0
LINE
  8
0
 10
22.1276
 20
677.41
 11
22.2
 21
677
  0
LINE
  8
0
 10
22.2
 20
677
 11
22.1276
 21
676.59
  0
LINE
  8
0
 10
22.1276
 20
676.59
 11
21.9193
 21
676.229
  0
LINE
  8
0
 10
21.9193
 20
676.229
 11
21.6
 21
675.961
  0
LINE
  8
0
 10
21.6
 20
675.961
 11
21.2084
 21
675.818
  0
LINE
  8
0
 10
21.2084
 20
675.818
 11
20.7916
 21
675.818
  0
LINE
  8
0
 10
20.7916
 20
659.818
 11
20.4
 21
659.961
  0
LINE
  8
0
 10
20.4
 20
659.961
 11
20.0807
 21
660.229
  0
LINE
  8
0
 10
20.0807
 20
660.229
 11
19.8724
 21
660.59
  0
LINE
  8
0
 10
19.8724
 20
660.59
 11
19.8
 21
661
  0
LINE
  8
0
 10
19.8
 20
661
 11
19.8724
 21
661.41
  0
LINE
  8
0
 10
19.8724
 20
661.41
 11
20.0807
 21
661.771
  0
LINE
  8
0
 10
20.0807
 20
661.771
 11
20.4
 21
662.039
  0
LINE
  8
0
 10
20.4
 20
662.039
 11
20.7916
 21
662.182
  0
LINE
  8
0
 10
20.7916
 20
662.182
 11
21.2084
 21
662.182
  0
LINE
  8
0
 10
21.2084
 20
662.182
 11
21.6
 21
662.039
  0
LINE
  8
0
 10
21.6
 20
662.039
 11
21.9193
 21
661.771
  0
LINE
  8
0
 10
21.9193
 20
661.771
 11
22.1276
 21
661.41
  0
LINE
  8
0
 10
22.1276
 20
661.41
 11
22.2
 21
661
  0
LINE
  8
0
 10
22.2
 20
661
 11
22.1276
 21
660.59
  0
LINE
  8
0
 10
22.1276
 20
660.59
 11
21.9193
 21
660.229
  0
LINE
  8
0
 10
21.9193
 20
660.229
 11
21.6
 21
659.961
  0
LINE
  8
0
 10
21.6
 20
659.961
 11
21.2084
 21
659.818
  0
LINE
  8
0
 10
21.2084
 20
659.818
 11
20.7916
 21
659.818
  0
LINE
  8
0
 10
20.7916
 20
643.818
 11
20.4
 21
643.961
  0
LINE
  8
0
 10
20.4
 20
643.961
 11
20.0807
 21
644.229
  0
LINE
  8
0
 10
20.0807
 20
644.229
 11
19.8724
 21
644.59
  0
LINE
  8
0
 10
19.8724
 20
644.59
 11
19.8
 21
645
  0
LINE
  8
0
 10
19.8
 20
645
 11
19.8724
 21
645.41
  0
LINE
  8
0
 10
19.8724
 20
645.41
 11
20.0807
 21
645.771
  0
LINE
  8
0
 10
20.0807
 20
645.771
 11
20.4
 21
646.039
  0
LINE
  8
0
 10
20.4
 20
646.039
 11
20.7916
 21
646.182
  0
LINE
  8
0
 10
20.7916
 20
646.182
 11
21.2084
 21
646.182
  0
LINE
  8
0
 10
21.2084
 20
646.182
 11
21.6
 21
646.039
  0
LINE
  8
0
 10
21.6
 20
646.039
 11
21.9193
 21
645.771
  0
LINE
  8
0
 10
21.9193
 20
645.771
 11
22.1276
 21
645.41
  0
LINE
  8
0
 10
22.1276
 20
645.41
 11
22.2
 21
645
  0
LINE
  8
0
 10
22.2
 20
645
 11
22.1276
 21
644.59
  0
LINE
  8
0
 10
22.1276
 20
644.59
 11
21.9193
 21
644.229
  0
LINE
  8
0
 10
21.9193
 20
644.229
 11
21.6
 21
643.961
  0
LINE
  8
0
 10
21.6
 20
643.961
 11
21.2084
 21
643.818
  0
LINE
  8
0
 10
21.2084
 20
643.818
 11
20.7916
 21
643.818
  0
LINE
  8
0
 10
24.7916
 20
627.818
 11
24.4
 21
627.961
  0
LINE
  8
0
 10
24.4
 20
627.961
 11
24.0807
 21
628.229
  0
LINE
  8
0
 10
24.0807
 20
628.229
 11
23.8724
 21
628.59
  0
LINE
  8
0
 10
23.8724
 20
628.59
 11
23.8
 21
629
  0
LINE
  8
0
 10
23.8
 20
629
 11
23.8724
 21
629.41
  0
LINE
  8
0
 10
23.8724
 20
629.41
 11
24.0807
 21
629.771
  0
LINE
  8
0
 10
24.0807
 20
629.771
 11
24.4
 21
630.039
  0
LINE
  8
0
 10
24.4
 20
630.039
 11
24.7916
 21
630.182
  0
LINE
  8
0
 10
24.7916
 20
630.182
 11
25.2084
 21
630.182
  0
LINE
  8
0
 10
25.2084
 20
630.182
 11
25.6
 21
630.039
  0
LINE
  8
0
 10
25.6
 20
630.039
 11
25.9193
 21
629.771
  0
LINE
  8
0
 10
25.9193
 20
629.771
 11
26.1276
 21
629.41
  0
LINE
  8
0
 10
26.1276
 20
629.41
 11
26.2
 21
629
  0
LINE
  8
0
 10
26.2
 20
629
 11
26.1276
 21
628.59
  0
LINE
  8
0
 10
26.1276
 20
628.59
 11
25.9193
 21
628.229
  0
LINE
  8
0
 10
25.9193
 20
628.229
 11
25.6
 21
627.961
  0
LINE
  8
0
 10
25.6
 20
627.961
 11
25.2084
 21
627.818
  0
LINE
  8
0
 10
25.2084
 20
627.818
 11
24.7916
 21
627.818
  0
LINE
  8
0
 10
20.7916
 20
619.818
 11
20.4
 21
619.961
  0
LINE
  8
0
 10
20.4
 20
619.961
 11
20.0807
 21
620.229
  0
LINE
  8
0
 10
20.0807
 20
620.229
 11
19.8724
 21
620.59
  0
LINE
  8
0
 10
19.8724
 20
620.59
 11
19.8
 21
621
  0
LINE
  8
0
 10
19.8
 20
621
 11
19.8724
 21
621.41
  0
LINE
  8
0
 10
19.8724
 20
621.41
 11
20.0807
 21
621.771
  0
LINE
  8
0
 10
20.0807
 20
621.771
 11
20.4
 21
622.039
  0
LINE
  8
0
 10
20.4
 20
622.039
 11
20.7916
 21
622.182
  0
LINE
  8
0
 10
20.7916
 20
622.182
 11
21.2084
 21
622.182
  0
LINE
  8
0
 10
21.2084
 20
622.182
 11
21.6
 21
622.039
  0
LINE
  8
0
 10
21.6
 20
622.039
 11
21.9193
 21
621.771
  0
LINE
  8
0
 10
21.9193
 20
621.771
 11
22.1276
 21
621.41
  0
LINE
  8
0
 10
22.1276
 20
621.41
 11
22.2
 21
621
  0
LINE
  8
0
 10
22.2
 20
621
 11
22.1276
 21
620.59
  0
LINE
  8
0
 10
22.1276
 20
620.59
 11
21.9193
 21
620.229
  0
LINE
  8
0
 10
21.9193
 20
620.229
 11
21.6
 21
619.961
  0
LINE
  8
0
 10
21.6
 20
619.961
 11
21.2084
 21
619.818
  0
LINE
  8
0
 10
21.2084
 20
619.818
 11
20.7916
 21
619.818
  0
LINE
  8
0
 10
18.7916
 20
611.818
 11
18.4
 21
611.961
  0
LINE
  8
0
 10
18.4
 20
611.961
 11
18.0807
 21
612.229
  0
LINE
  8
0
 10
18.0807
 20
612.229
 11
17.8724
 21
612.59
  0
LINE
  8
0
 10
17.8724
 20
612.59
 11
17.8
 21
613
  0
LINE
  8
0
 10
17.8
 20
613
 11
17.8724
 21
613.41
  0
LINE
  8
0
 10
17.8724
 20
613.41
 11
18.0807
 21
613.771
  0
LINE
  8
0
 10
18.0807
 20
613.771
 11
18.4
 21
614.039
  0
LINE
  8
0
 10
18.4
 20
614.039
 11
18.7916
 21
614.182
  0
LINE
  8
0
 10
18.7916
 20
614.182
 11
19.2084
 21
614.182
  0
LINE
  8
0
 10
19.2084
 20
614.182
 11
19.6
 21
614.039
  0
LINE
  8
0
 10
19.6
 20
614.039
 11
19.9193
 21
613.771
  0
LINE
  8
0
 10
19.9193
 20
613.771
 11
20.1276
 21
613.41
  0
LINE
  8
0
 10
20.1276
 20
613.41
 11
20.2
 21
613
  0
LINE
  8
0
 10
20.2
 20
613
 11
20.1276
 21
612.59
  0
LINE
  8
0
 10
20.1276
 20
612.59
 11
19.9193
 21
612.229
  0
LINE
  8
0
 10
19.9193
 20
612.229
 11
19.6
 21
611.961
  0
LINE
  8
0
 10
19.6
 20
611.961
 11
19.2084
 21
611.818
  0
LINE
  8
0
 10
19.2084
 20
611.818
 11
18.7916
 21
611.818
  0
LINE
  8
0
 10
18.7916
 20
595.818
 11
18.4
 21
595.961
  0
LINE
  8
0
 10
18.4
 20
595.961
 11
18.0807
 21
596.229
  0
LINE
  8
0
 10
18.0807
 20
596.229
 11
17.8724
 21
596.59
  0
LINE
  8
0
 10
17.8724
 20
596.59
 11
17.8
 21
597
  0
LINE
  8
0
 10
17.8
 20
597
 11
17.8724
 21
597.41
  0
LINE
  8
0
 10
17.8724
 20
597.41
 11
18.0807
 21
597.771
  0
LINE
  8
0
 10
18.0807
 20
597.771
 11
18.4
 21
598.039
  0
LINE
  8
0
 10
18.4
 20
598.039
 11
18.7916
 21
598.182
  0
LINE
  8
0
 10
18.7916
 20
598.182
 11
19.2084
 21
598.182
  0
LINE
  8
0
 10
19.2084
 20
598.182
 11
19.6
 21
598.039
  0
LINE
  8
0
 10
19.6
 20
598.039
 11
19.9193
 21
597.771
  0
LINE
  8
0
 10
19.9193
 20
597.771
 11
20.1276
 21
597.41
  0
LINE
  8
0
 10
20.1276
 20
597.41
 11
20.2
 21
597
  0
LINE
  8
0
 10
20.2
 20
597
 11
20.1276
 21
596.59
  0
LINE
  8
0
 10
20.1276
 20
596.59
 11
19.9193
 21
596.229
  0
LINE
  8
0
 10
19.9193
 20
596.229
 11
19.6
 21
595.961
  0
LINE
  8
0
 10
19.6
 20
595.961
 11
19.2084
 21
595.818
  0
LINE
  8
0
 10
19.2084
 20
595.818
 11
18.7916
 21
595.818
  0
LINE
  8
0
 10
18.7916
 20
579.818
 11
18.4
 21
579.961
  0
LINE
  8
0
 10
18.4
 20
579.961
 11
18.0807
 21
580.229
  0
LINE
  8
0
 10
18.0807
 20
580.229
 11
17.8724
 21
580.59
  0
LINE
  8
0
 10
17.8724
 20
580.59
 11
17.8
 21
581
  0
LINE
  8
0
 10
17.8
 20
581
 11
17.8724
 21
581.41
  0
LINE
  8
0
 10
17.8724
 20
581.41
 11
18.0807
 21
581.771
  0
LINE
  8
0
 10
18.0807
 20
581.771
 11
18.4
 21
582.039
  0
LINE
  8
0
 10
18.4
 20
582.039
 11
18.7916
 21
582.182
  0
LINE
  8
0
 10
18.7916
 20
582.182
 11
19.2084
 21
582.182
  0
LINE
  8
0
 10
19.2084
 20
582.182
 11
19.6
 21
582.039
  0
LINE
  8
0
 10
19.6
 20
582.039
 11
19.9193
 21
581.771
  0
LINE
  8
0
 10
19.9193
 20
581.771
 11
20.1276
 21
581.41
  0
LINE
  8
0
 10
20.1276
 20
581.41
 11
20.2
 21
581
  0
LINE
  8
0
 10
20.2
 20
581
 11
20.1276
 21
580.59
  0
LINE
  8
0
 10
20.1276
 20
580.59
 11
19.9193
 21
580.229
  0
LINE
  8
0
 10
19.9193
 20
580.229
 11
19.6
 21
579.961
  0
LINE
  8
0
 10
19.6
 20
579.961
 11
19.2084
 21
579.818
  0
LINE
  8
0
 10
19.2084
 20
579.818
 11
18.7916
 21
579.818
  0
LINE
  8
0
 10
24.7916
 20
563.818
 11
24.4
 21
563.961
  0
LINE
  8
0
 10
24.4
 20
563.961
 11
24.0807
 21
564.229
  0
LINE
  8
0
 10
24.0807
 20
564.229
 11
23.8724
 21
564.59
  0
LINE
  8
0
 10
23.8724
 20
564.59
 11
23.8
 21
565
  0
LINE
  8
0
 10
23.8
 20
565
 11
23.8724
 21
565.41
  0
LINE
  8
0
 10
23.8724
 20
565.41
 11
24.0807
 21
565.771
  0
LINE
  8
0
 10
24.0807
 20
565.771
 11
24.4
 21
566.039
  0
LINE
  8
0
 10
24.4
 20
566.039
 11
24.7916
 21
566.182
  0
LINE
  8
0
 10
24.7916
 20
566.182
 11
25.2084
 21
566.182
  0
LINE
  8
0
 10
25.2084
 20
566.182
 11
25.6
 21
566.039
  0
LINE
  8
0
 10
25.6
 20
566.039
 11
25.9193
 21
565.771
  0
LINE
  8
0
 10
25.9193
 20
565.771
 11
26.1276
 21
565.41
  0
LINE
  8
0
 10
26.1276
 20
565.41
 11
26.2
 21
565
  0
LINE
  8
0
 10
26.2
 20
565
 11
26.1276
 21
564.59
  0
LINE
  8
0
 10
26.1276
 20
564.59
 11
25.9193
 21
564.229
  0
LINE
  8
0
 10
25.9193
 20
564.229
 11
25.6
 21
563.961
  0
LINE
  8
0
 10
25.6
 20
563.961
 11
25.2084
 21
563.818
  0
LINE
  8
0
 10
25.2084
 20
563.818
 11
24.7916
 21
563.818
  0
LINE
  8
0
 10
20.7916
 20
555.818
 11
20.4
 21
555.961
  0
LINE
  8
0
 10
20.4
 20
555.961
 11
20.0807
 21
556.229
  0
LINE
  8
0
 10
20.0807
 20
556.229
 11
19.8724
 21
556.59
  0
LINE
  8
0
 10
19.8724
 20
556.59
 11
19.8
 21
557
  0
LINE
  8
0
 10
19.8
 20
557
 11
19.8724
 21
557.41
  0
LINE
  8
0
 10
19.8724
 20
557.41
 11
20.0807
 21
557.771
  0
LINE
  8
0
 10
20.0807
 20
557.771
 11
20.4
 21
558.039
  0
LINE
  8
0
 10
20.4
 20
558.039
 11
20.7916
 21
558.182
  0
LINE
  8
0
 10
20.7916
 20
558.182
 11
21.2084
 21
558.182
  0
LINE
  8
0
 10
21.2084
 20
558.182
 11
21.6
 21
558.039
  0
LINE
  8
0
 10
21.6
 20
558.039
 11
21.9193
 21
557.771
  0
LINE
  8
0
 10
21.9193
 20
557.771
 11
22.1276
 21
557.41
  0
LINE
  8
0
 10
22.1276
 20
557.41
 11
22.2
 21
557
  0
LINE
  8
0
 10
22.2
 20
557
 11
22.1276
 21
556.59
  0
LINE
  8
0
 10
22.1276
 20
556.59
 11
21.9193
 21
556.229
  0
LINE
  8
0
 10
21.9193
 20
556.229
 11
21.6
 21
555.961
  0
LINE
  8
0
 10
21.6
 20
555.961
 11
21.2084
 21
555.818
  0
LINE
  8
0
 10
21.2084
 20
555.818
 11
20.7916
 21
555.818
  0
LINE
  8
0
 10
18.7916
 20
547.818
 11
18.4
 21
547.961
  0
LINE
  8
0
 10
18.4
 20
547.961
 11
18.0807
 21
548.229
  0
LINE
  8
0
 10
18.0807
 20
548.229
 11
17.8724
 21
548.59
  0
LINE
  8
0
 10
17.8724
 20
548.59
 11
17.8
 21
549
  0
LINE
  8
0
 10
17.8
 20
549
 11
17.8724
 21
549.41
  0
LINE
  8
0
 10
17.8724
 20
549.41
 11
18.0807
 21
549.771
  0
LINE
  8
0
 10
18.0807
 20
549.771
 11
18.4
 21
550.039
  0
LINE
  8
0
 10
18.4
 20
550.039
 11
18.7916
 21
550.182
  0
LINE
  8
0
 10
18.7916
 20
550.182
 11
19.2084
 21
550.182
  0
LINE
  8
0
 10
19.2084
 20
550.182
 11
19.6
 21
550.039
  0
LINE
  8
0
 10
19.6
 20
550.039
 11
19.9193
 21
549.771
  0
LINE
  8
0
 10
19.9193
 20
549.771
 11
20.1276
 21
549.41
  0
LINE
  8
0
 10
20.1276
 20
549.41
 11
20.2
 21
549
  0
LINE
  8
0
 10
20.2
 20
549
 11
20.1276
 21
548.59
  0
LINE
  8
0
 10
20.1276
 20
548.59
 11
19.9193
 21
548.229
  0
LINE
  8
0
 10
19.9193
 20
548.229
 11
19.6
 21
547.961
  0
LINE
  8
0
 10
19.6
 20
547.961
 11
19.2084
 21
547.818
  0
LINE
  8
0
 10
19.2084
 20
547.818
 11
18.7916
 21
547.818
  0
LINE
  8
0
 10
18.7916
 20
531.818
 11
18.4
 21
531.961
  0
LINE
  8
0
 10
18.4
 20
531.961
 11
18.0807
 21
532.229
  0
LINE
  8
0
 10
18.0807
 20
532.229
 11
17.8724
 21
532.59
  0
LINE
  8
0
 10
17.8724
 20
532.59
 11
17.8
 21
533
  0
LINE
  8
0
 10
17.8
 20
533
 11
17.8724
 21
533.41
  0
LINE
  8
0
 10
17.8724
 20
533.41
 11
18.0807
 21
533.771
  0
LINE
  8
0
 10
18.0807
 20
533.771
 11
18.4
 21
534.039
  0
LINE
  8
0
 10
18.4
 20
534.039
 11
18.7916
 21
534.182
  0
LINE
  8
0
 10
18.7916
 20
534.182
 11
19.2084
 21
534.182
  0
LINE
  8
0
 10
19.2084
 20
534.182
 11
19.6
 21
534.039
  0
LINE
  8
0
 10
19.6
 20
534.039
 11
19.9193
 21
533.771
  0
LINE
  8
0
 10
19.9193
 20
533.771
 11
20.1276
 21
533.41
  0
LINE
  8
0
 10
20.1276
 20
533.41
 11
20.2
 21
533
  0
LINE
  8
0
 10
20.2
 20
533
 11
20.1276
 21
532.59
  0
LINE
  8
0
 10
20.1276
 20
532.59
 11
19.9193
 21
532.229
  0
LINE
  8
0
 10
19.9193
 20
532.229
 11
19.6
 21
531.961
  0
LINE
  8
0
 10
19.6
 20
531.961
 11
19.2084
 21
531.818
  0
LINE
  8
0
 10
19.2084
 20
531.818
 11
18.7916
 21
531.818
  0
LINE
  8
0
 10
18.7916
 20
515.818
 11
18.4
 21
515.961
  0
LINE
  8
0
 10
18.4
 20
515.961
 11
18.0807
 21
516.229
  0
LINE
  8
0
 10
18.0807
 20
516.229
 11
17.8724
 21
516.59
  0
LINE
  8
0
 10
17.8724
 20
516.59
 11
17.8
 21
517
  0
LINE
  8
0
 10
17.8
 20
517
 11
17.8724
 21
517.41
  0
LINE
  8
0
 10
17.8724
 20
517.41
 11
18.0807
 21
517.771
  0
LINE
  8
0
 10
18.0807
 20
517.771
 11
18.4
 21
518.039
  0
LINE
  8
0
 10
18.4
 20
518.039
 11
18.7916
 21
518.182
  0
LINE
  8
0
 10
18.7916
 20
518.182
 11
19.2084
 21
518.182
  0
LINE
  8
0
 10
19.2084
 20
518.182
 11
19.6
 21
518.039
  0
LINE
  8
0
 10
19.6
 20
518.039
 11
19.9193
 21
517.771
  0
LINE
  8
0
 10
19.9193
 20
517.771
 11
20.1276
 21
517.41
  0
LINE
  8
0
 10
20.1276
 20
517.41
 11
20.2
 21
517
  0
LINE
  8
0
 10
20.2
 20
517
 11
20.1276
 21
516.59
  0
LINE
  8
0
 10
20.1276
 20
516.59
 11
19.9193
 21
516.229
  0
LINE
  8
0
 10
19.9193
 20
516.229
 11
19.6
 21
515.961
  0
LINE
  8
0
 10
19.6
 20
515.961
 11
19.2084
 21
515.818
  0
LINE
  8
0
 10
19.2084
 20
515.818
 11
18.7916
 21
515.818
  0
LINE
  8
0
 10
18.7916
 20
459.818
 11
18.4
 21
459.961
  0
LINE
  8
0
 10
18.4
 20
459.961
 11
18.0807
 21
460.229
  0
LINE
  8
0
 10
18.0807
 20
460.229
 11
17.8724
 21
460.59
  0
LINE
  8
0
 10
17.8724
 20
460.59
 11
17.8
 21
461
  0
LINE
  8
0
 10
17.8
 20
461
 11
17.8724
 21
461.41
  0
LINE
  8
0
 10
17.8724
 20
461.41
 11
18.0807
 21
461.771
  0
LINE
  8
0
 10
18.0807
 20
461.771
 11
18.4
 21
462.039
  0
LINE
  8
0
 10
18.4
 20
462.039
 11
18.7916
 21
462.182
  0
LINE
  8
0
 10
18.7916
 20
462.182
 11
19.2084
 21
462.182
  0
LINE
  8
0
 10
19.2084
 20
462.182
 11
19.6
 21
462.039
  0
LINE
  8
0
 10
19.6
 20
462.039
 11
19.9193
 21
461.771
  0
LINE
  8
0
 10
19.9193
 20
461.771
 11
20.1276
 21
461.41
  0
LINE
  8
0
 10
20.1276
 20
461.41
 11
20.2
 21
461
  0
LINE
  8
0
 10
20.2
 20
461
 11
20.1276
 21
460.59
  0
LINE
  8
0
 10
20.1276
 20
460.59
 11
19.9193
 21
460.229
  0
LINE
  8
0
 10
19.9193
 20
460.229
 11
19.6
 21
459.961
  0
LINE
  8
0
 10
19.6
 20
459.961
 11
19.2084
 21
459.818
  0
LINE
  8
0
 10
19.2084
 20
459.818
 11
18.7916
 21
459.818
  0
LINE
  8
0
 10
14.7916
 20
443.818
 11
14.4
 21
443.961
  0
LINE
  8
0
 10
14.4
 20
443.961
 11
14.0807
 21
444.229
  0
LINE
  8
0
 10
14.0807
 20
444.229
 11
13.8724
 21
444.59
  0
LINE
  8
0
 10
13.8724
 20
444.59
 11
13.8
 21
445
  0
LINE
  8
0
 10
13.8
 20
445
 11
13.8724
 21
445.41
  0
LINE
  8
0
 10
13.8724
 20
445.41
 11
14.0807
 21
445.771
  0
LINE
  8
0
 10
14.0807
 20
445.771
 11
14.4
 21
446.039
  0
LINE
  8
0
 10
14.4
 20
446.039
 11
14.7916
 21
446.182
  0
LINE
  8
0
 10
14.7916
 20
446.182
 11
15.2084
 21
446.182
  0
LINE
  8
0
 10
15.2084
 20
446.182
 11
15.6
 21
446.039
  0
LINE
  8
0
 10
15.6
 20
446.039
 11
15.9193
 21
445.771
  0
LINE
  8
0
 10
15.9193
 20
445.771
 11
16.1276
 21
445.41
  0
LINE
  8
0
 10
16.1276
 20
445.41
 11
16.2
 21
445
  0
LINE
  8
0
 10
16.2
 20
445
 11
16.1276
 21
444.59
  0
LINE
  8
0
 10
16.1276
 20
444.59
 11
15.9193
 21
444.229
  0
LINE
  8
0
 10
15.9193
 20
444.229
 11
15.6
 21
443.961
  0
LINE
  8
0
 10
15.6
 20
443.961
 11
15.2084
 21
443.818
  0
LINE
  8
0
 10
15.2084
 20
443.818
 11
14.7916
 21
443.818
  0
LINE
  8
0
 10
16.7916
 20
435.818
 11
16.4
 21
435.961
  0
LINE
  8
0
 10
16.4
 20
435.961
 11
16.0807
 21
436.229
  0
LINE
  8
0
 10
16.0807
 20
436.229
 11
15.8724
 21
436.59
  0
LINE
  8
0
 10
15.8724
 20
436.59
 11
15.8
 21
437
  0
LINE
  8
0
 10
15.8
 20
437
 11
15.8724
 21
437.41
  0
LINE
  8
0
 10
15.8724
 20
437.41
 11
16.0807
 21
437.771
  0
LINE
  8
0
 10
16.0807
 20
437.771
 11
16.4
 21
438.039
  0
LINE
  8
0
 10
16.4
 20
438.039
 11
16.7916
 21
438.182
  0
LINE
  8
0
 10
16.7916
 20
438.182
 11
17.2084
 21
438.182
  0
LINE
  8
0
 10
17.2084
 20
438.182
 11
17.6
 21
438.039
  0
LINE
  8
0
 10
17.6
 20
438.039
 11
17.9193
 21
437.771
  0
LINE
  8
0
 10
17.9193
 20
437.771
 11
18.1276
 21
437.41
  0
LINE
  8
0
 10
18.1276
 20
437.41
 11
18.2
 21
437
  0
LINE
  8
0
 10
18.2
 20
437
 11
18.1276
 21
436.59
  0
LINE
  8
0
 10
18.1276
 20
436.59
 11
17.9193
 21
436.229
  0
LINE
  8
0
 10
17.9193
 20
436.229
 11
17.6
 21
435.961
  0
LINE
  8
0
 10
17.6
 20
435.961
 11
17.2084
 21
435.818
  0
LINE
  8
0
 10
17.2084
 20
435.818
 11
16.7916
 21
435.818
  0
LINE
  8
0
 10
18.7916
 20
427.818
 11
18.4
 21
427.961
  0
LINE
  8
0
 10
18.4
 20
427.961
 11
18.0807
 21
428.229
  0
LINE
  8
0
 10
18.0807
 20
428.229
 11
17.8724
 21
428.59
  0
LINE
  8
0
 10
17.8724
 20
428.59
 11
17.8
 21
429
  0
LINE
  8
0
 10
17.8
 20
429
 11
17.8724
 21
429.41
  0
LINE
  8
0
 10
17.8724
 20
429.41
 11
18.0807
 21
429.771
  0
LINE
  8
0
 10
18.0807
 20
429.771
 11
18.4
 21
430.039
  0
LINE
  8
0
 10
18.4
 20
430.039
 11
18.7916
 21
430.182
  0
LINE
  8
0
 10
18.7916
 20
430.182
 11
19.2084
 21
430.182
  0
LINE
  8
0
 10
19.2084
 20
430.182
 11
19.6
 21
430.039
  0
LINE
  8
0
 10
19.6
 20
430.039
 11
19.9193
 21
429.771
  0
LINE
  8
0
 10
19.9193
 20
429.771
 11
20.1276
 21
429.41
  0
LINE
  8
0
 10
20.1276
 20
429.41
 11
20.2
 21
429
  0
LINE
  8
0
 10
20.2
 20
429
 11
20.1276
 21
428.59
  0
LINE
  8
0
 10
20.1276
 20
428.59
 11
19.9193
 21
428.229
  0
LINE
  8
0
 10
19.9193
 20
428.229
 11
19.6
 21
427.961
  0
LINE
  8
0
 10
19.6
 20
427.961
 11
19.2084
 21
427.818
  0
LINE
  8
0
 10
19.2084
 20
427.818
 11
18.7916
 21
427.818
  0
LINE
  8
0
 10
16.7916
 20
419.818
 11
16.4
 21
419.961
  0
LINE
  8
0
 10
16.4
 20
419.961
 11
16.0807
 21
420.229
  0
LINE
  8
0
 10
16.0807
 20
420.229
 11
15.8724
 21
420.59
  0
LINE
  8
0
 10
15.8724
 20
420.59
 11
15.8
 21
421
  0
LINE
  8
0
 10
15.8
 20
421
 11
15.8724
 21
421.41
  0
LINE
  8
0
 10
15.8724
 20
421.41
 11
16.0807
 21
421.771
  0
LINE
  8
0
 10
16.0807
 20
421.771
 11
16.4
 21
422.039
  0
LINE
  8
0
 10
16.4
 20
422.039
 11
16.7916
 21
422.182
  0
LINE
  8
0
 10
16.7916
 20
422.182
 11
17.2084
 21
422.182
  0
LINE
  8
0
 10
17.2084
 20
422.182
 11
17.6
 21
422.039
  0
LINE
  8
0
 10
17.6
 20
422.039
 11
17.9193
 21
421.771
  0
LINE
  8
0
 10
17.9193
 20
421.771
 11
18.1276
 21
421.41
  0
LINE
  8
0
 10
18.1276
 20
421.41
 11
18.2
 21
421
  0
LINE
  8
0
 10
18.2
 20
421
 11
18.1276
 21
420.59
  0
LINE
  8
0
 10
18.1276
 20
420.59
 11
17.9193
 21
420.229
  0
LINE
  8
0
 10
17.9193
 20
420.229
 11
17.6
 21
419.961
  0
LINE
  8
0
 10
17.6
 20
419.961
 11
17.2084
 21
419.818
  0
LINE
  8
0
 10
17.2084
 20
419.818
 11
16.7916
 21
419.818
  0
LINE
  8
0
 10
18.7916
 20
395.818
 11
18.4
 21
395.961
  0
LINE
  8
0
 10
18.4
 20
395.961
 11
18.0807
 21
396.229
  0
LINE
  8
0
 10
18.0807
 20
396.229
 11
17.8724
 21
396.59
  0
LINE
  8
0
 10
17.8724
 20
396.59
 11
17.8
 21
397
  0
LINE
  8
0
 10
17.8
 20
397
 11
17.8724
 21
397.41
  0
LINE
  8
0
 10
17.8724
 20
397.41
 11
18.0807
 21
397.771
  0
LINE
  8
0
 10
18.0807
 20
397.771
 11
18.4
 21
398.039
  0
LINE
  8
0
 10
18.4
 20
398.039
 11
18.7916
 21
398.182
  0
LINE
  8
0
 10
18.7916
 20
398.182
 11
19.2084
 21
398.182
  0
LINE
  8
0
 10
19.2084
 20
398.182
 11
19.6
 21
398.039
  0
LINE
  8
0
 10
19.6
 20
398.039
 11
19.9193
 21
397.771
  0
LINE
  8
0
 10
19.9193
 20
397.771
 11
20.1276
 21
397.41
  0
LINE
  8
0
 10
20.1276
 20
397.41
 11
20.2
 21
397
  0
LINE
  8
0
 10
20.2
 20
397
 11
20.1276
 21
396.59
  0
LINE
  8
0
 10
20.1276
 20
396.59
 11
19.9193
 21
396.229
  0
LINE
  8
0
 10
19.9193
 20
396.229
 11
19.6
 21
395.961
  0
LINE
  8
0
 10
19.6
 20
395.961
 11
19.2084
 21
395.818
  0
LINE
  8
0
 10
19.2084
 20
395.818
 11
18.7916
 21
395.818
  0
LINE
  8
0
 10
16.7916
 20
379.818
 11
16.4
 21
379.961
  0
LINE
  8
0
 10
16.4
 20
379.961
 11
16.0807
 21
380.229
  0
LINE
  8
0
 10
16.0807
 20
380.229
 11
15.8724
 21
380.59
  0
LINE
  8
0
 10
15.8724
 20
380.59
 11
15.8
 21
381
  0
LINE
  8
0
 10
15.8
 20
381
 11
15.8724
 21
381.41
  0
LINE
  8
0
 10
15.8724
 20
381.41
 11
16.0807
 21
381.771
  0
LINE
  8
0
 10
16.0807
 20
381.771
 11
16.4
 21
382.039
  0
LINE
  8
0
 10
16.4
 20
382.039
 11
16.7916
 21
382.182
  0
LINE
  8
0
 10
16.7916
 20
382.182
 11
17.2084
 21
382.182
  0
LINE
  8
0
 10
17.2084
 20
382.182
 11
17.6
 21
382.039
  0
LINE
  8
0
 10
17.6
 20
382.039
 11
17.9193
 21
381.771
  0
LINE
  8
0
 10
17.9193
 20
381.771
 11
18.1276
 21
381.41
  0
LINE
  8
0
 10
18.1276
 20
381.41
 11
18.2
 21
381
  0
LINE
  8
0
 10
18.2
 20
381
 11
18.1276
 21
380.59
  0
LINE
  8
0
 10
18.1276
 20
380.59
 11
17.9193
 21
380.229
  0
LINE
  8
0
 10
17.9193
 20
380.229
 11
17.6
 21
379.961
  0
LINE
  8
0
 10
17.6
 20
379.961
 11
17.2084
 21
379.818
  0
LINE
  8
0
 10
17.2084
 20
379.818
 11
16.7916
 21
379.818
  0
LINE
  8
0
 10
20.7916
 20
371.818
 11
20.4
 21
371.961
  0
LINE
  8
0
 10
20.4
 20
371.961
 11
20.0807
 21
372.229
  0
LINE
  8
0
 10
20.0807
 20
372.229
 11
19.8724
 21
372.59
  0
LINE
  8
0
 10
19.8724
 20
372.59
 11
19.8
 21
373
  0
LINE
  8
0
 10
19.8
 20
373
 11
19.8724
 21
373.41
  0
LINE
  8
0
 10
19.8724
 20
373.41
 11
20.0807
 21
373.771
  0
LINE
  8
0
 10
20.0807
 20
373.771
 11
20.4
 21
374.039
  0
LINE
  8
0
 10
20.4
 20
374.039
 11
20.7916
 21
374.182
  0
LINE
  8
0
 10
20.7916
 20
374.182
 11
21.2084
 21
374.182
  0
LINE
  8
0
 10
21.2084
 20
374.182
 11
21.6
 21
374.039
  0
LINE
  8
0
 10
21.6
 20
374.039
 11
21.9193
 21
373.771
  0
LINE
  8
0
 10
21.9193
 20
373.771
 11
22.1276
 21
373.41
  0
LINE
  8
0
 10
22.1276
 20
373.41
 11
22.2
 21
373
  0
LINE
  8
0
 10
22.2
 20
373
 11
22.1276
 21
372.59
  0
LINE
  8
0
 10
22.1276
 20
372.59
 11
21.9193
 21
372.229
  0
LINE
  8
0
 10
21.9193
 20
372.229
 11
21.6
 21
371.961
  0
LINE
  8
0
 10
21.6
 20
371.961
 11
21.2084
 21
371.818
  0
LINE
  8
0
 10
21.2084
 20
371.818
 11
20.7916
 21
371.818
  0
LINE
  8
0
 10
20.7916
 20
355.818
 11
20.4
 21
355.961
  0
LINE
  8
0
 10
20.4
 20
355.961
 11
20.0807
 21
356.229
  0
LINE
  8
0
 10
20.0807
 20
356.229
 11
19.8724
 21
356.59
  0
LINE
  8
0
 10
19.8724
 20
356.59
 11
19.8
 21
357
  0
LINE
  8
0
 10
19.8
 20
357
 11
19.8724
 21
357.41
  0
LINE
  8
0
 10
19.8724
 20
357.41
 11
20.0807
 21
357.771
  0
LINE
  8
0
 10
20.0807
 20
357.771
 11
20.4
 21
358.039
  0
LINE
  8
0
 10
20.4
 20
358.039
 11
20.7916
 21
358.182
  0
LINE
  8
0
 10
20.7916
 20
358.182
 11
21.2084
 21
358.182
  0
LINE
  8
0
 10
21.2084
 20
358.182
 11
21.6
 21
358.039
  0
LINE
  8
0
 10
21.6
 20
358.039
 11
21.9193
 21
357.771
  0
LINE
  8
0
 10
21.9193
 20
357.771
 11
22.1276
 21
357.41
  0
LINE
  8
0
 10
22.1276
 20
357.41
 11
22.2
 21
357
  0
LINE
  8
0
 10
22.2
 20
357
 11
22.1276
 21
356.59
  0
LINE
  8
0
 10
22.1276
 20
356.59
 11
21.9193
 21
356.229
  0
LINE
  8
0
 10
21.9193
 20
356.229
 11
21.6
 21
355.961
  0
LINE
  8
0
 10
21.6
 20
355.961
 11
21.2084
 21
355.818
  0
LINE
  8
0
 10
21.2084
 20
355.818
 11
20.7916
 21
355.818
  0
LINE
  8
0
 10
10.7916
 20
339.818
 11
10.4
 21
339.961
  0
LINE
  8
0
 10
10.4
 20
339.961
 11
10.0807
 21
340.229
  0
LINE
  8
0
 10
10.0807
 20
340.229
 11
9.87236
 21
340.59
  0
LINE
  8
0
 10
9.87236
 20
340.59
 11
9.79999
 21
341
  0
LINE
  8
0
 10
9.79999
 20
341
 11
9.87236
 21
341.41
  0
LINE
  8
0
 10
9.87236
 20
341.41
 11
10.0807
 21
341.771
  0
LINE
  8
0
 10
10.0807
 20
341.771
 11
10.4
 21
342.039
  0
LINE
  8
0
 10
10.4
 20
342.039
 11
10.7916
 21
342.182
  0
LINE
  8
0
 10
10.7916
 20
342.182
 11
11.2084
 21
342.182
  0
LINE
  8
0
 10
11.2084
 20
342.182
 11
11.6
 21
342.039
  0
LINE
  8
0
 10
11.6
 20
342.039
 11
11.9193
 21
341.771
  0
LINE
  8
0
 10
11.9193
 20
341.771
 11
12.1276
 21
341.41
  0
LINE
  8
0
 10
12.1276
 20
341.41
 11
12.2
 21
341
  0
LINE
  8
0
 10
12.2
 20
341
 11
12.1276
 21
340.59
  0
LINE
  8
0
 10
12.1276
 20
340.59
 11
11.9193
 21
340.229
  0
LINE
  8
0
 10
11.9193
 20
340.229
 11
11.6
 21
339.961
  0
LINE
  8
0
 10
11.6
 20
339.961
 11
11.2084
 21
339.818
  0
LINE
  8
0
 10
11.2084
 20
339.818
 11
10.7916
 21
339.818
  0
LINE
  8
0
 10
20.7916
 20
323.818
 11
20.4
 21
323.961
  0
LINE
  8
0
 10
20.4
 20
323.961
 11
20.0807
 21
324.229
  0
LINE
  8
0
 10
20.0807
 20
324.229
 11
19.8724
 21
324.59
  0
LINE
  8
0
 10
19.8724
 20
324.59
 11
19.8
 21
325
  0
LINE
  8
0
 10
19.8
 20
325
 11
19.8724
 21
325.41
  0
LINE
  8
0
 10
19.8724
 20
325.41
 11
20.0807
 21
325.771
  0
LINE
  8
0
 10
20.0807
 20
325.771
 11
20.4
 21
326.039
  0
LINE
  8
0
 10
20.4
 20
326.039
 11
20.7916
 21
326.182
  0
LINE
  8
0
 10
20.7916
 20
326.182
 11
21.2084
 21
326.182
  0
LINE
  8
0
 10
21.2084
 20
326.182
 11
21.6
 21
326.039
  0
LINE
  8
0
 10
21.6
 20
326.039
 11
21.9193
 21
325.771
  0
LINE
  8
0
 10
21.9193
 20
325.771
 11
22.1276
 21
325.41
  0
LINE
  8
0
 10
22.1276
 20
325.41
 11
22.2
 21
325
  0
LINE
  8
0
 10
22.2
 20
325
 11
22.1276
 21
324.59
  0
LINE
  8
0
 10
22.1276
 20
324.59
 11
21.9193
 21
324.229
  0
LINE
  8
0
 10
21.9193
 20
324.229
 11
21.6
 21
323.961
  0
LINE
  8
0
 10
21.6
 20
323.961
 11
21.2084
 21
323.818
  0
LINE
  8
0
 10
21.2084
 20
323.818
 11
20.7916
 21
323.818
  0
LINE
  8
0
 10
10.7916
 20
307.818
 11
10.4
 21
307.961
  0
LINE
  8
0
 10
10.4
 20
307.961
 11
10.0807
 21
308.229
  0
LINE
  8
0
 10
10.0807
 20
308.229
 11
9.87236
 21
308.59
  0
LINE
  8
0
 10
9.87236
 20
308.59
 11
9.79999
 21
309
  0
LINE
  8
0
 10
9.79999
 20
309
 11
9.87236
 21
309.41
  0
LINE
  8
0
 10
9.87236
 20
309.41
 11
10.0807
 21
309.771
  0
LINE
  8
0
 10
10.0807
 20
309.771
 11
10.4
 21
310.039
  0
LINE
  8
0
 10
10.4
 20
310.039
 11
10.7916
 21
310.182
  0
LINE
  8
0
 10
10.7916
 20
310.182
 11
11.2084
 21
310.182
  0
LINE
  8
0
 10
11.2084
 20
310.182
 11
11.6
 21
310.039
  0
LINE
  8
0
 10
11.6
 20
310.039
 11
11.9193
 21
309.771
  0
LINE
  8
0
 10
11.9193
 20
309.771
 11
12.1276
 21
309.41
  0
LINE
  8
0
 10
12.1276
 20
309.41
 11
12.2
 21
309
  0
LINE
  8
0
 10
12.2
 20
309
 11
12.1276
 21
308.59
  0
LINE
  8
0
 10
12.1276
 20
308.59
 11
11.9193
 21
308.229
  0
LINE
  8
0
 10
11.9193
 20
308.229
 11
11.6
 21
307.961
  0
LINE
  8
0
 10
11.6
 20
307.961
 11
11.2084
 21
307.818
  0
LINE
  8
0
 10
11.2084
 20
307.818
 11
10.7916
 21
307.818
  0
LINE
  8
0
 10
18.7916
 20
291.818
 11
18.4
 21
291.961
  0
LINE
  8
0
 10
18.4
 20
291.961
 11
18.0807
 21
292.229
  0
LINE
  8
0
 10
18.0807
 20
292.229
 11
17.8724
 21
292.59
  0
LINE
  8
0
 10
17.8724
 20
292.59
 11
17.8
 21
293
  0
LINE
  8
0
 10
17.8
 20
293
 11
17.8724
 21
293.41
  0
LINE
  8
0
 10
17.8724
 20
293.41
 11
18.0807
 21
293.771
  0
LINE
  8
0
 10
18.0807
 20
293.771
 11
18.4
 21
294.039
  0
LINE
  8
0
 10
18.4
 20
294.039
 11
18.7916
 21
294.182
  0
LINE
  8
0
 10
18.7916
 20
294.182
 11
19.2084
 21
294.182
  0
LINE
  8
0
 10
19.2084
 20
294.182
 11
19.6
 21
294.039
  0
LINE
  8
0
 10
19.6
 20
294.039
 11
19.9193
 21
293.771
  0
LINE
  8
0
 10
19.9193
 20
293.771
 11
20.1276
 21
293.41
  0
LINE
  8
0
 10
20.1276
 20
293.41
 11
20.2
 21
293
  0
LINE
  8
0
 10
20.2
 20
293
 11
20.1276
 21
292.59
  0
LINE
  8
0
 10
20.1276
 20
292.59
 11
19.9193
 21
292.229
  0
LINE
  8
0
 10
19.9193
 20
292.229
 11
19.6
 21
291.961
  0
LINE
  8
0
 10
19.6
 20
291.961
 11
19.2084
 21
291.818
  0
LINE
  8
0
 10
19.2084
 20
291.818
 11
18.7916
 21
291.818
  0
LINE
  8
0
 10
10.7916
 20
275.818
 11
10.4
 21
275.961
  0
LINE
  8
0
 10
10.4
 20
275.961
 11
10.0807
 21
276.229
  0
LINE
  8
0
 10
10.0807
 20
276.229
 11
9.87236
 21
276.59
  0
LINE
  8
0
 10
9.87236
 20
276.59
 11
9.79999
 21
277
  0
LINE
  8
0
 10
9.79999
 20
277
 11
9.87236
 21
277.41
  0
LINE
  8
0
 10
9.87236
 20
277.41
 11
10.0807
 21
277.771
  0
LINE
  8
0
 10
10.0807
 20
277.771
 11
10.4
 21
278.039
  0
LINE
  8
0
 10
10.4
 20
278.039
 11
10.7916
 21
278.182
  0
LINE
  8
0
 10
10.7916
 20
278.182
 11
11.2084
 21
278.182
  0
LINE
  8
0
 10
11.2084
 20
278.182
 11
11.6
 21
278.039
  0
LINE
  8
0
 10
11.6
 20
278.039
 11
11.9193
 21
277.771
  0
LINE
  8
0
 10
11.9193
 20
277.771
 11
12.1276
 21
277.41
  0
LINE
  8
0
 10
12.1276
 20
277.41
 11
12.2
 21
277
  0
LINE
  8
0
 10
12.2
 20
277
 11
12.1276
 21
276.59
  0
LINE
  8
0
 10
12.1276
 20
276.59
 11
11.9193
 21
276.229
  0
LINE
  8
0
 10
11.9193
 20
276.229
 11
11.6
 21
275.961
  0
LINE
  8
0
 10
11.6
 20
275.961
 11
11.2084
 21
275.818
  0
LINE
  8
0
 10
11.2084
 20
275.818
 11
10.7916
 21
275.818
  0
LINE
  8
0
 10
18.7916
 20
259.818
 11
18.4
 21
259.961
  0
LINE
  8
0
 10
18.4
 20
259.961
 11
18.0807
 21
260.229
  0
LINE
  8
0
 10
18.0807
 20
260.229
 11
17.8724
 21
260.59
  0
LINE
  8
0
 10
17.8724
 20
260.59
 11
17.8
 21
261
  0
LINE
  8
0
 10
17.8
 20
261
 11
17.8724
 21
261.41
  0
LINE
  8
0
 10
17.8724
 20
261.41
 11
18.0807
 21
261.771
  0
LINE
  8
0
 10
18.0807
 20
261.771
 11
18.4
 21
262.039
  0
LINE
  8
0
 10
18.4
 20
262.039
 11
18.7916
 21
262.182
  0
LINE
  8
0
 10
18.7916
 20
262.182
 11
19.2084
 21
262.182
  0
LINE
  8
0
 10
19.2084
 20
262.182
 11
19.6
 21
262.039
  0
LINE
  8
0
 10
19.6
 20
262.039
 11
19.9193
 21
261.771
  0
LINE
  8
0
 10
19.9193
 20
261.771
 11
20.1276
 21
261.41
  0
LINE
  8
0
 10
20.1276
 20
261.41
 11
20.2
 21
261
  0
LINE
  8
0
 10
20.2
 20
261
 11
20.1276
 21
260.59
  0
LINE
  8
0
 10
20.1276
 20
260.59
 11
19.9193
 21
260.229
  0
LINE
  8
0
 10
19.9193
 20
260.229
 11
19.6
 21
259.961
  0
LINE
  8
0
 10
19.6
 20
259.961
 11
19.2084
 21
259.818
  0
LINE
  8
0
 10
19.2084
 20
259.818
 11
18.7916
 21
259.818
  0
LINE
  8
0
 10
10.7916
 20
243.818
 11
10.4
 21
243.961
  0
LINE
  8
0
 10
10.4
 20
243.961
 11
10.0807
 21
244.229
  0
LINE
  8
0
 10
10.0807
 20
244.229
 11
9.87236
 21
244.59
  0
LINE
  8
0
 10
9.87236
 20
244.59
 11
9.79999
 21
245
  0
LINE
  8
0
 10
9.79999
 20
245
 11
9.87236
 21
245.41
  0
LINE
  8
0
 10
9.87236
 20
245.41
 11
10.0807
 21
245.771
  0
LINE
  8
0
 10
10.0807
 20
245.771
 11
10.4
 21
246.039
  0
LINE
  8
0
 10
10.4
 20
246.039
 11
10.7916
 21
246.182
  0
LINE
  8
0
 10
10.7916
 20
246.182
 11
11.2084
 21
246.182
  0
LINE
  8
0
 10
11.2084
 20
246.182
 11
11.6
 21
246.039
  0
LINE
  8
0
 10
11.6
 20
246.039
 11
11.9193
 21
245.771
  0
LINE
  8
0
 10
11.9193
 20
245.771
 11
12.1276
 21
245.41
  0
LINE
  8
0
 10
12.1276
 20
245.41
 11
12.2
 21
245
  0
LINE
  8
0
 10
12.2
 20
245
 11
12.1276
 21
244.59
  0
LINE
  8
0
 10
12.1276
 20
244.59
 11
11.9193
 21
244.229
  0
LINE
  8
0
 10
11.9193
 20
244.229
 11
11.6
 21
243.961
  0
LINE
  8
0
 10
11.6
 20
243.961
 11
11.2084
 21
243.818
  0
LINE
  8
0
 10
11.2084
 20
243.818
 11
10.7916
 21
243.818
  0
LINE
  8
0
 10
18.7916
 20
203.818
 11
18.4
 21
203.961
  0
LINE
  8
0
 10
18.4
 20
203.961
 11
18.0807
 21
204.229
  0
LINE
  8
0
 10
18.0807
 20
204.229
 11
17.8724
 21
204.59
  0
LINE
  8
0
 10
17.8724
 20
204.59
 11
17.8
 21
205
  0
LINE
  8
0
 10
17.8
 20
205
 11
17.8724
 21
205.41
  0
LINE
  8
0
 10
17.8724
 20
205.41
 11
18.0807
 21
205.771
  0
LINE
  8
0
 10
18.0807
 20
205.771
 11
18.4
 21
206.039
  0
LINE
  8
0
 10
18.4
 20
206.039
 11
18.7916
 21
206.182
  0
LINE
  8
0
 10
18.7916
 20
206.182
 11
19.2084
 21
206.182
  0
LINE
  8
0
 10
19.2084
 20
206.182
 11
19.6
 21
206.039
  0
LINE
  8
0
 10
19.6
 20
206.039
 11
19.9193
 21
205.771
  0
LINE
  8
0
 10
19.9193
 20
205.771
 11
20.1276
 21
205.41
  0
LINE
  8
0
 10
20.1276
 20
205.41
 11
20.2
 21
205
  0
LINE
  8
0
 10
20.2
 20
205
 11
20.1276
 21
204.59
  0
LINE
  8
0
 10
20.1276
 20
204.59
 11
19.9193
 21
204.229
  0
LINE
  8
0
 10
19.9193
 20
204.229
 11
19.6
 21
203.961
  0
LINE
  8
0
 10
19.6
 20
203.961
 11
19.2084
 21
203.818
  0
LINE
  8
0
 10
19.2084
 20
203.818
 11
18.7916
 21
203.818
  0
LINE
  8
0
 10
14.7916
 20
187.818
 11
14.4
 21
187.961
  0
LINE
  8
0
 10
14.4
 20
187.961
 11
14.0807
 21
188.229
  0
LINE
  8
0
 10
14.0807
 20
188.229
 11
13.8724
 21
188.59
  0
LINE
  8
0
 10
13.8724
 20
188.59
 11
13.8
 21
189
  0
LINE
  8
0
 10
13.8
 20
189
 11
13.8724
 21
189.41
  0
LINE
  8
0
 10
13.8724
 20
189.41
 11
14.0807
 21
189.771
  0
LINE
  8
0
 10
14.0807
 20
189.771
 11
14.4
 21
190.039
  0
LINE
  8
0
 10
14.4
 20
190.039
 11
14.7916
 21
190.182
  0
LINE
  8
0
 10
14.7916
 20
190.182
 11
15.2084
 21
190.182
  0
LINE
  8
0
 10
15.2084
 20
190.182
 11
15.6
 21
190.039
  0
LINE
  8
0
 10
15.6
 20
190.039
 11
15.9193
 21
189.771
  0
LINE
  8
0
 10
15.9193
 20
189.771
 11
16.1276
 21
189.41
  0
LINE
  8
0
 10
16.1276
 20
189.41
 11
16.2
 21
189
  0
LINE
  8
0
 10
16.2
 20
189
 11
16.1276
 21
188.59
  0
LINE
  8
0
 10
16.1276
 20
188.59
 11
15.9193
 21
188.229
  0
LINE
  8
0
 10
15.9193
 20
188.229
 11
15.6
 21
187.961
  0
LINE
  8
0
 10
15.6
 20
187.961
 11
15.2084
 21
187.818
  0
LINE
  8
0
 10
15.2084
 20
187.818
 11
14.7916
 21
187.818
  0
LINE
  8
0
 10
16.7916
 20
179.818
 11
16.4
 21
179.961
  0
LINE
  8
0
 10
16.4
 20
179.961
 11
16.0807
 21
180.229
  0
LINE
  8
0
 10
16.0807
 20
180.229
 11
15.8724
 21
180.59
  0
LINE
  8
0
 10
15.8724
 20
180.59
 11
15.8
 21
181
  0
LINE
  8
0
 10
15.8
 20
181
 11
15.8724
 21
181.41
  0
LINE
  8
0
 10
15.8724
 20
181.41
 11
16.0807
 21
181.771
  0
LINE
  8
0
 10
16.0807
 20
181.771
 11
16.4
 21
182.039
  0
LINE
  8
0
 10
16.4
 20
182.039
 11
16.7916
 21
182.182
  0
LINE
  8
0
 10
16.7916
 20
182.182
 11
17.2084
 21
182.182
  0
LINE
  8
0
 10
17.2084
 20
182.182
 11
17.6
 21
182.039
  0
LINE
  8
0
 10
17.6
 20
182.039
 11
17.9193
 21
181.771
  0
LINE
  8
0
 10
17.9193
 20
181.771
 11
18.1276
 21
181.41
  0
LINE
  8
0
 10
18.1276
 20
181.41
 11
18.2
 21
181
  0
LINE
  8
0
 10
18.2
 20
181
 11
18.1276
 21
180.59
  0
LINE
  8
0
 10
18.1276
 20
180.59
 11
17.9193
 21
180.229
  0
LINE
  8
0
 10
17.9193
 20
180.229
 11
17.6
 21
179.961
  0
LINE
  8
0
 10
17.6
 20
179.961
 11
17.2084
 21
179.818
  0
LINE
  8
0
 10
17.2084
 20
179.818
 11
16.7916
 21
179.818
  0
LINE
  8
0
 10
18.7916
 20
171.818
 11
18.4
 21
171.961
  0
LINE
  8
0
 10
18.4
 20
171.961
 11
18.0807
 21
172.229
  0
LINE
  8
0
 10
18.0807
 20
172.229
 11
17.8724
 21
172.59
  0
LINE
  8
0
 10
17.8724
 20
172.59
 11
17.8
 21
173
  0
LINE
  8
0
 10
17.8
 20
173
 11
17.8724
 21
173.41
  0
LINE
  8
0
 10
17.8724
 20
173.41
 11
18.0807
 21
173.771
  0
LINE
  8
0
 10
18.0807
 20
173.771
 11
18.4
 21
174.039
  0
LINE
  8
0
 10
18.4
 20
174.039
 11
18.7916
 21
174.182
  0
LINE
  8
0
 10
18.7916
 20
174.182
 11
19.2084
 21
174.182
  0
LINE
  8
0
 10
19.2084
 20
174.182
 11
19.6
 21
174.039
  0
LINE
  8
0
 10
19.6
 20
174.039
 11
19.9193
 21
173.771
  0
LINE
  8
0
 10
19.9193
 20
173.771
 11
20.1276
 21
173.41
  0
LINE
  8
0
 10
20.1276
 20
173.41
 11
20.2
 21
173
  0
LINE
  8
0
 10
20.2
 20
173
 11
20.1276
 21
172.59
  0
LINE
  8
0
 10
20.1276
 20
172.59
 11
19.9193
 21
172.229
  0
LINE
  8
0
 10
19.9193
 20
172.229
 11
19.6
 21
171.961
  0
LINE
  8
0
 10
19.6
 20
171.961
 11
19.2084
 21
171.818
  0
LINE
  8
0
 10
19.2084
 20
171.818
 11
18.7916
 21
171.818
  0
LINE
  8
0
 10
16.7916
 20
163.818
 11
16.4
 21
163.961
  0
LINE
  8
0
 10
16.4
 20
163.961
 11
16.0807
 21
164.229
  0
LINE
  8
0
 10
16.0807
 20
164.229
 11
15.8724
 21
164.59
  0
LINE
  8
0
 10
15.8724
 20
164.59
 11
15.8
 21
165
  0
LINE
  8
0
 10
15.8
 20
165
 11
15.8724
 21
165.41
  0
LINE
  8
0
 10
15.8724
 20
165.41
 11
16.0807
 21
165.771
  0
LINE
  8
0
 10
16.0807
 20
165.771
 11
16.4
 21
166.039
  0
LINE
  8
0
 10
16.4
 20
166.039
 11
16.7916
 21
166.182
  0
LINE
  8
0
 10
16.7916
 20
166.182
 11
17.2084
 21
166.182
  0
LINE
  8
0
 10
17.2084
 20
166.182
 11
17.6
 21
166.039
  0
LINE
  8
0
 10
17.6
 20
166.039
 11
17.9193
 21
165.771
  0
LINE
  8
0
 10
17.9193
 20
165.771
 11
18.1276
 21
165.41
  0
LINE
  8
0
 10
18.1276
 20
165.41
 11
18.2
 21
165
  0
LINE
  8
0
 10
18.2
 20
165
 11
18.1276
 21
164.59
  0
LINE
  8
0
 10
18.1276
 20
164.59
 11
17.9193
 21
164.229
  0
LINE
  8
0
 10
17.9193
 20
164.229
 11
17.6
 21
163.961
  0
LINE
  8
0
 10
17.6
 20
163.961
 11
17.2084
 21
163.818
  0
LINE
  8
0
 10
17.2084
 20
163.818
 11
16.7916
 21
163.818
  0
LINE
  8
0
 10
18.7916
 20
139.818
 11
18.4
 21
139.961
  0
LINE
  8
0
 10
18.4
 20
139.961
 11
18.0807
 21
140.229
  0
LINE
  8
0
 10
18.0807
 20
140.229
 11
17.8724
 21
140.59
  0
LINE
  8
0
 10
17.8724
 20
140.59
 11
17.8
 21
141
  0
LINE
  8
0
 10
17.8
 20
141
 11
17.8724
 21
141.41
  0
LINE
  8
0
 10
17.8724
 20
141.41
 11
18.0807
 21
141.771
  0
LINE
  8
0
 10
18.0807
 20
141.771
 11
18.4
 21
142.039
  0
LINE
  8
0
 10
18.4
 20
142.039
 11
18.7916
 21
142.182
  0
LINE
  8
0
 10
18.7916
 20
142.182
 11
19.2084
 21
142.182
  0
LINE
  8
0
 10
19.2084
 20
142.182
 11
19.6
 21
142.039
  0
LINE
  8
0
 10
19.6
 20
142.039
 11
19.9193
 21
141.771
  0
LINE
  8
0
 10
19.9193
 20
141.771
 11
20.1276
 21
141.41
  0
LINE
  8
0
 10
20.1276
 20
141.41
 11
20.2
 21
141
  0
LINE
  8
0
 10
20.2
 20
141
 11
20.1276
 21
140.59
  0
LINE
  8
0
 10
20.1276
 20
140.59
 11
19.9193
 21
140.229
  0
LINE
  8
0
 10
19.9193
 20
140.229
 11
19.6
 21
139.961
  0
LINE
  8
0
 10
19.6
 20
139.961
 11
19.2084
 21
139.818
  0
LINE
  8
0
 10
19.2084
 20
139.818
 11
18.7916
 21
139.818
  0
LINE
  8
0
 10
16.7916
 20
123.818
 11
16.4
 21
123.961
  0
LINE
  8
0
 10
16.4
 20
123.961
 11
16.0807
 21
124.229
  0
LINE
  8
0
 10
16.0807
 20
124.229
 11
15.8724
 21
124.59
  0
LINE
  8
0
 10
15.8724
 20
124.59
 11
15.8
 21
125
  0
LINE
  8
0
 10
15.8
 20
125
 11
15.8724
 21
125.41
  0
LINE
  8
0
 10
15.8724
 20
125.41
 11
16.0807
 21
125.771
  0
LINE
  8
0
 10
16.0807
 20
125.771
 11
16.4
 21
126.039
  0
LINE
  8
0
 10
16.4
 20
126.039
 11
16.7916
 21
126.182
  0
LINE
  8
0
 10
16.7916
 20
126.182
 11
17.2084
 21
126.182
  0
LINE
  8
0
 10
17.2084
 20
126.182
 11
17.6
 21
126.039
  0
LINE
  8
0
 10
17.6
 20
126.039
 11
17.9193
 21
125.771
  0
LINE
  8
0
 10
17.9193
 20
125.771
 11
18.1276
 21
125.41
  0
LINE
  8
0
 10
18.1276
 20
125.41
 11
18.2
 21
125
  0
LINE
  8
0
 10
18.2
 20
125
 11
18.1276
 21
124.59
  0
LINE
  8
0
 10
18.1276
 20
124.59
 11
17.9193
 21
124.229
  0
LINE
  8
0
 10
17.9193
 20
124.229
 11
17.6
 21
123.961
  0
LINE
  8
0
 10
17.6
 20
123.961
 11
17.2084
 21
123.818
  0
LINE
  8
0
 10
17.2084
 20
123.818
 11
16.7916
 21
123.818
  0
LINE
  8
0
 10
20.7916
 20
115.818
 11
20.4
 21
115.961
  0
LINE
  8
0
 10
20.4
 20
115.961
 11
20.0807
 21
116.229
  0
LINE
  8
0
 10
20.0807
 20
116.229
 11
19.8724
 21
116.59
  0
LINE
  8
0
 10
19.8724
 20
116.59
 11
19.8
 21
117
  0
LINE
  8
0
 10
19.8
 20
117
 11
19.8724
 21
117.41
  0
LINE
  8
0
 10
19.8724
 20
117.41
 11
20.0807
 21
117.771
  0
LINE
  8
0
 10
20.0807
 20
117.771
 11
20.4
 21
118.039
  0
LINE
  8
0
 10
20.4
 20
118.039
 11
20.7916
 21
118.182
  0
LINE
  8
0
 10
20.7916
 20
118.182
 11
21.2084
 21
118.182
  0
LINE
  8
0
 10
21.2084
 20
118.182
 11
21.6
 21
118.039
  0
LINE
  8
0
 10
21.6
 20
118.039
 11
21.9193
 21
117.771
  0
LINE
  8
0
 10
21.9193
 20
117.771
 11
22.1276
 21
117.41
  0
LINE
  8
0
 10
22.1276
 20
117.41
 11
22.2
 21
117
  0
LINE
  8
0
 10
22.2
 20
117
 11
22.1276
 21
116.59
  0
LINE
  8
0
 10
22.1276
 20
116.59
 11
21.9193
 21
116.229
  0
LINE
  8
0
 10
21.9193
 20
116.229
 11
21.6
 21
115.961
  0
LINE
  8
0
 10
21.6
 20
115.961
 11
21.2084
 21
115.818
  0
LINE
  8
0
 10
21.2084
 20
115.818
 11
20.7916
 21
115.818
  0
LINE
  8
0
 10
20.7916
 20
99.8182
 11
20.4
 21
99.9608
  0
LINE
  8
0
 10
20.4
 20
99.9608
 11
20.0807
 21
100.229
  0
LINE
  8
0
 10
20.0807
 20
100.229
 11
19.8724
 21
100.59
  0
LINE
  8
0
 10
19.8724
 20
100.59
 11
19.8
 21
101
  0
LINE
  8
0
 10
19.8
 20
101
 11
19.8724
 21
101.41
  0
LINE
  8
0
 10
19.8724
 20
101.41
 11
20.0807
 21
101.771
  0
LINE
  8
0
 10
20.0807
 20
101.771
 11
20.4
 21
102.039
  0
LINE
  8
0
 10
20.4
 20
102.039
 11
20.7916
 21
102.182
  0
LINE
  8
0
 10
20.7916
 20
102.182
 11
21.2084
 21
102.182
  0
LINE
  8
0
 10
21.2084
 20
102.182
 11
21.6
 21
102.039
  0
LINE
  8
0
 10
21.6
 20
102.039
 11
21.9193
 21
101.771
  0
LINE
  8
0
 10
21.9193
 20
101.771
 11
22.1276
 21
101.41
  0
LINE
  8
0
 10
22.1276
 20
101.41
 11
22.2
 21
101
  0
LINE
  8
0
 10
22.2
 20
101
 11
22.1276
 21
100.59
  0
LINE
  8
0
 10
22.1276
 20
100.59
 11
21.9193
 21
100.229
  0
LINE
  8
0
 10
21.9193
 20
100.229
 11
21.6
 21
99.9608
  0
LINE
  8
0
 10
21.6
 20
99.9608
 11
21.2084
 21
99.8182
  0
LINE
  8
0
 10
21.2084
 20
99.8182
 11
20.7916
 21
99.8182
  0
LINE
  8
0
 10
10.7916
 20
83.8182
 11
10.4
 21
83.9608
  0
LINE
  8
0
 10
10.4
 20
83.9608
 11
10.0807
 21
84.2287
  0
LINE
  8
0
 10
10.0807
 20
84.2287
 11
9.87236
 21
84.5896
  0
LINE
  8
0
 10
9.87236
 20
84.5896
 11
9.79999
 21
85
  0
LINE
  8
0
 10
9.79999
 20
85
 11
9.87236
 21
85.4104
  0
LINE
  8
0
 10
9.87236
 20
85.4104
 11
10.0807
 21
85.7713
  0
LINE
  8
0
 10
10.0807
 20
85.7713
 11
10.4
 21
86.0392
  0
LINE
  8
0
 10
10.4
 20
86.0392
 11
10.7916
 21
86.1818
  0
LINE
  8
0
 10
10.7916
 20
86.1818
 11
11.2084
 21
86.1818
  0
LINE
  8
0
 10
11.2084
 20
86.1818
 11
11.6
 21
86.0392
  0
LINE
  8
0
 10
11.6
 20
86.0392
 11
11.9193
 21
85.7713
  0
LINE
  8
0
 10
11.9193
 20
85.7713
 11
12.1276
 21
85.4104
  0
LINE
  8
0
 10
12.1276
 20
85.4104
 11
12.2
 21
85
  0
LINE
  8
0
 10
12.2
 20
85
 11
12.1276
 21
84.5896
  0
LINE
  8
0
 10
12.1276
 20
84.5896
 11
11.9193
 21
84.2287
  0
LINE
  8
0
 10
11.9193
 20
84.2287
 11
11.6
 21
83.9608
  0
LINE
  8
0
 10
11.6
 20
83.9608
 11
11.2084
 21
83.8182
  0
LINE
  8
0
 10
11.2084
 20
83.8182
 11
10.7916
 21
83.8182
  0
LINE
  8
0
 10
20.7916
 20
67.8182
 11
20.4
 21
67.9608
  0
LINE
  8
0
 10
20.4
 20
67.9608
 11
20.0807
 21
68.2287
  0
LINE
  8
0
 10
20.0807
 20
68.2287
 11
19.8724
 21
68.5896
  0
LINE
  8
0
 10
19.8724
 20
68.5896
 11
19.8
 21
69
  0
LINE
  8
0
 10
19.8
 20
69
 11
19.8724
 21
69.4104
  0
LINE
  8
0
 10
19.8724
 20
69.4104
 11
20.0807
 21
69.7713
  0
LINE
  8
0
 10
20.0807
 20
69.7713
 11
20.4
 21
70.0392
  0
LINE
  8
0
 10
20.4
 20
70.0392
 11
20.7916
 21
70.1818
  0
LINE
  8
0
 10
20.7916
 20
70.1818
 11
21.2084
 21
70.1818
  0
LINE
  8
0
 10
21.2084
 20
70.1818
 11
21.6
 21
70.0392
  0
LINE
  8
0
 10
21.6
 20
70.0392
 11
21.9193
 21
69.7713
  0
LINE
  8
0
 10
21.9193
 20
69.7713
 11
22.1276
 21
69.4104
  0
LINE
  8
0
 10
22.1276
 20
69.4104
 11
22.2
 21
69
  0
LINE
  8
0
 10
22.2
 20
69
 11
22.1276
 21
68.5896
  0
LINE
  8
0
 10
22.1276
 20
68.5896
 11
21.9193
 21
68.2287
  0
LINE
  8
0
 10
21.9193
 20
68.2287
 11
21.6
 21
67.9608
  0
LINE
  8
0
 10
21.6
 20
67.9608
 11
21.2084
 21
67.8182
  0
LINE
  8
0
 10
21.2084
 20
67.8182
 11
20.7916
 21
67.8182
  0
LINE
  8
0
 10
10.7916
 20
51.8182
 11
10.4
 21
51.9608
  0
LINE
  8
0
 10
10.4
 20
51.9608
 11
10.0807
 21
52.2287
  0
LINE
  8
0
 10
10.0807
 20
52.2287
 11
9.87236
 21
52.5896
  0
LINE
  8
0
 10
9.87236
 20
52.5896
 11
9.79999
 21
53
  0
LINE
  8
0
 10
9.79999
 20
53
 11
9.87236
 21
53.4104
  0
LINE
  8
0
 10
9.87236
 20
53.4104
 11
10.0807
 21
53.7713
  0
LINE
  8
0
 10
10.0807
 20
53.7713
 11
10.4
 21
54.0392
  0
LINE
  8
0
 10
10.4
 20
54.0392
 11
10.7916
 21
54.1818
  0
LINE
  8
0
 10
10.7916
 20
54.1818
 11
11.2084
 21
54.1818
  0
LINE
  8
0
 10
11.2084
 20
54.1818
 11
11.6
 21
54.0392
  0
LINE
  8
0
 10
11.6
 20
54.0392
 11
11.9193
 21
53.7713
  0
LINE
  8
0
 10
11.9193
 20
53.7713
 11
12.1276
 21
53.4104
  0
LINE
  8
0
 10
12.1276
 20
53.4104
 11
12.2
 21
53
  0
LINE
  8
0
 10
12.2
 20
53
 11
12.1276
 21
52.5896
  0
LINE
  8
0
 10
12.1276
 20
52.5896
 11
11.9193
 21
52.2287
  0
LINE
  8
0
 10
11.9193
 20
52.2287
 11
11.6
 21
51.9608
  0
LINE
  8
0
 10
11.6
 20
51.9608
 11
11.2084
 21
51.8182
  0
LINE
  8
0
 10
11.2084
 20
51.8182
 11
10.7916
 21
51.8182
  0
LINE
  8
0
 10
18.7916
 20
35.8182
 11
18.4
 21
35.9608
  0
LINE
  8
0
 10
18.4
 20
35.9608
 11
18.0807
 21
36.2287
  0
LINE
  8
0
 10
18.0807
 20
36.2287
 11
17.8724
 21
36.5896
  0
LINE
  8
0
 10
17.8724
 20
36.5896
 11
17.8
 21
37
  0
LINE
  8
0
 10
17.8
 20
37
 11
17.8724
 21
37.4104
  0
LINE
  8
0
 10
17.8724
 20
37.4104
 11
18.0807
 21
37.7713
  0
LINE
  8
0
 10
18.0807
 20
37.7713
 11
18.4
 21
38.0392
  0
LINE
  8
0
 10
18.4
 20
38.0392
 11
18.7916
 21
38.1818
  0
LINE
  8
0
 10
18.7916
 20
38.1818
 11
19.2084
 21
38.1818
  0
LINE
  8
0
 10
19.2084
 20
38.1818
 11
19.6
 21
38.0392
  0
LINE
  8
0
 10
19.6
 20
38.0392
 11
19.9193
 21
37.7713
  0
LINE
  8
0
 10
19.9193
 20
37.7713
 11
20.1276
 21
37.4104
  0
LINE
  8
0
 10
20.1276
 20
37.4104
 11
20.2
 21
37
  0
LINE
  8
0
 10
20.2
 20
37
 11
20.1276
 21
36.5896
  0
LINE
  8
0
 10
20.1276
 20
36.5896
 11
19.9193
 21
36.2287
  0
LINE
  8
0
 10
19.9193
 20
36.2287
 11
19.6
 21
35.9608
  0
LINE
  8
0
 10
19.6
 20
35.9608
 11
19.2084
 21
35.8182
  0
LINE
  8
0
 10
19.2084
 20
35.8182
 11
18.7916
 21
35.8182
  0
LINE
  8
0
 10
10.7916
 20
19.8182
 11
10.4
 21
19.9608
  0
LINE
  8
0
 10
10.4
 20
19.9608
 11
10.0807
 21
20.2287
  0
LINE
  8
0
 10
10.0807
 20
20.2287
 11
9.87236
 21
20.5896
  0
LINE
  8
0
 10
9.87236
 20
20.5896
 11
9.79999
 21
21
  0
LINE
  8
0
 10
9.79999
 20
21
 11
9.87236
 21
21.4104
  0
LINE
  8
0
 10
9.87236
 20
21.4104
 11
10.0807
 21
21.7713
  0
LINE
  8
0
 10
10.0807
 20
21.7713
 11
10.4
 21
22.0392
  0
LINE
  8
0
 10
10.4
 20
22.0392
 11
10.7916
 21
22.1818
  0
LINE
  8
0
 10
10.7916
 20
22.1818
 11
11.2084
 21
22.1818
  0
LINE
  8
0
 10
11.2084
 20
22.1818
 11
11.6
 21
22.0392
  0
LINE
  8
0
 10
11.6
 20
22.0392
 11
11.9193
 21
21.7713
  0
LINE
  8
0
 10
11.9193
 20
21.7713
 11
12.1276
 21
21.4104
  0
LINE
  8
0
 10
12.1276
 20
21.4104
 11
12.2
 21
21
  0
LINE
  8
0
 10
12.2
 20
21
 11
12.1276
 21
20.5896
  0
LINE
  8
0
 10
12.1276
 20
20.5896
 11
11.9193
 21
20.2287
  0
LINE
  8
0
 10
11.9193
 20
20.2287
 11
11.6
 21
19.9608
  0
LINE
  8
0
 10
11.6
 20
19.9608
 11
11.2084
 21
19.8182
  0
LINE
  8
0
 10
11.2084
 20
19.8182
 11
10.7916
 21
19.8182
  0
LINE
  8
0
 10
18.7916
 20
3.81822
 11
18.4
 21
3.96075
  0
LINE
  8
0
 10
18.4
 20
3.96075
 11
18.0807
 21
4.22865
  0
LINE
  8
0
 10
18.0807
 20
4.22865
 11
17.8724
 21
4.58957
  0
LINE
  8
0
 10
17.8724
 20
4.58957
 11
17.8
 21
5
  0
LINE
  8
0
 10
17.8
 20
5
 11
17.8724
 21
5.41042
  0
LINE
  8
0
 10
17.8724
 20
5.41042
 11
18.0807
 21
5.77133
  0
LINE
  8
0
 10
18.0807
 20
5.77133
 11
18.4
 21
6.03923
  0
LINE
  8
0
 10
18.4
 20
6.03923
 11
18.7916
 21
6.18176
  0
LINE
  8
0
 10
18.7916
 20
6.18176
 11
19.2084
 21
6.18176
  0
LINE
  8
0
 10
19.2084
 20
6.18176
 11
19.6
 21
6.03923
  0
LINE
  8
0
 10
19.6
 20
6.03923
 11
19.9193
 21
5.77133
  0
LINE
  8
0
 10
19.9193
 20
5.77133
 11
20.1276
 21
5.41042
  0
LINE
  8
0
 10
20.1276
 20
5.41042
 11
20.2
 21
5
  0
LINE
  8
0
 10
20.2
 20
5
 11
20.1276
 21
4.58957
  0
LINE
  8
0
 10
20.1276
 20
4.58957
 11
19.9193
 21
4.22865
  0
LINE
  8
0
 10
19.9193
 20
4.22865
 11
19.6
 21
3.96075
  0
LINE
  8
0
 10
19.6
 20
3.96075
 11
19.2084
 21
3.81822
  0
LINE
  8
0
 10
19.2084
 20
3.81822
 11
18.7916
 21
3.81822
  0
ENDSEC
  0
SECTION
  2
OBJECTS
  0
DICTIONARY
  0
ENDSEC
  0
EOF
