  0
SECTION
  2
BLOCKS
  0
ENDSEC
  0
SECTION
  2
ENTITIES
  0
LINE
  8
0
 10
20.0807
 20
0.228653
 11
19.8724
 21
0.589569
  0
LINE
  8
0
 10
19.8724
 20
0.589569
 11
19.8
 21
1
  0
LINE
  8
0
 10
19.8
 20
1
 11
19.8724
 21
1.41042
  0
LINE
  8
0
 10
19.8724
 20
1.41042
 11
20.0807
 21
1.77133
  0
LINE
  8
0
 10
20.0807
 20
1.77133
 11
20.4
 21
2.03923
  0
LINE
  8
0
 10
20.4
 20
2.03923
 11
20.7916
 21
2.18176
  0
LINE
  8
0
 10
20.7916
 20
2.18176
 11
21.2084
 21
2.18176
  0
LINE
  8
0
 10
21.2084
 20
2.18176
 11
21.6
 21
2.03923
  0
LINE
  8
0
 10
21.6
 20
2.03923
 11
21.9193
 21
1.77133
  0
LINE
  8
0
 10
21.9193
 20
1.77133
 11
22.1276
 21
1.41042
  0
LINE
  8
0
 10
22.1276
 20
1.41042
 11
22.2
 21
1
  0
LINE
  8
0
 10
22.2
 20
1
 11
22.1276
 21
0.589569
  0
LINE
  8
0
 10
22.1276
 20
0.589569
 11
21.9193
 21
0.228653
  0
LINE
  8
0
 10
21.9193
 20
0.228653
 11
21.6467
 21
0
  0
LINE
  8
0
 10
21.6467
 20
0
 11
41
 21
0
  0
LINE
  8
0
 10
41
 20
0
 11
41
 21
930
  0
LINE
  8
0
 10
41
 20
930
 11
11.6467
 21
930
  0
LINE
  8
0
 10
11.6467
 20
930
 11
11.9193
 21
929.771
  0
LINE
  8
0
 10
11.9193
 20
929.771
 11
12.1276
 21
929.41
  0
LINE
  8
0
 10
12.1276
 20
929.41
 11
12.2
 21
929
  0
LINE
  8
0
 10
12.2
 20
929
 11
12.1276
 21
928.59
  0
LINE
  8
0
 10
12.1276
 20
928.59
 11
11.9193
 21
928.229
  0
LINE
  8
0
 10
11.9193
 20
928.229
 11
11.6
 21
927.961
  0
LINE
  8
0
 10
11.6
 20
927.961
 11
11.2084
 21
927.818
  0
LINE
  8
0
 10
11.2084
 20
927.818
 11
10.7916
 21
927.818
  0
LINE
  8
0
 10
10.7916
 20
927.818
 11
10.4
 21
927.961
  0
LINE
  8
0
 10
10.4
 20
927.961
 11
10.0807
 21
928.229
  0
LINE
  8
0
 10
10.0807
 20
928.229
 11
9.87236
 21
928.59
  0
LINE
  8
0
 10
9.87236
 20
928.59
 11
9.79999
 21
929
  0
LINE
  8
0
 10
9.79999
 20
929
 11
9.87236
 21
929.41
  0
LINE
  8
0
 10
9.87236
 20
929.41
 11
10.0807
 21
929.771
  0
LINE
  8
0
 10
10.0807
 20
929.771
 11
10.3532
 21
930
  0
LINE
  8
0
 10
10.3532
 20
930
 11
0
 21
930
  0
LINE
  8
0
 10
0
 20
930
 11
0
 21
0
  0
LINE
  8
0
 10
0
 20
0
 11
20.3532
 21
0
  0
LINE
  8
0
 10
20.3532
 20
0
 11
20.0807
 21
0.228653
  0
LINE
  8
0
 10
10.7916
 20
919.818
 11
10.4
 21
919.961
  0
LINE
  8
0
 10
10.4
 20
919.961
 11
10.0807
 21
920.229
  0
LINE
  8
0
 10
10.0807
 20
920.229
 11
9.87236
 21
920.59
  0
LINE
  8
0
 10
9.87236
 20
920.59
 11
9.79999
 21
921
  0
LINE
  8
0
 10
9.79999
 20
921
 11
9.87236
 21
921.41
  0
LINE
  8
0
 10
9.87236
 20
921.41
 11
10.0807
 21
921.771
  0
LINE
  8
0
 10
10.0807
 20
921.771
 11
10.4
 21
922.039
  0
LINE
  8
0
 10
10.4
 20
922.039
 11
10.7916
 21
922.182
  0
LINE
  8
0
 10
10.7916
 20
922.182
 11
11.2084
 21
922.182
  0
LINE
  8
0
 10
11.2084
 20
922.182
 11
11.6
 21
922.039
  0
LINE
  8
0
 10
11.6
 20
922.039
 11
11.9193
 21
921.771
  0
LINE
  8
0
 10
11.9193
 20
921.771
 11
12.1276
 21
921.41
  0
LINE
  8
0
 10
12.1276
 20
921.41
 11
12.2
 21
921
  0
LINE
  8
0
 10
12.2
 20
921
 11
12.1276
 21
920.59
  0
LINE
  8
0
 10
12.1276
 20
920.59
 11
11.9193
 21
920.229
  0
LINE
  8
0
 10
11.9193
 20
920.229
 11
11.6
 21
919.961
  0
LINE
  8
0
 10
11.6
 20
919.961
 11
11.2084
 21
919.818
  0
LINE
  8
0
 10
11.2084
 20
919.818
 11
10.7916
 21
919.818
  0
LINE
  8
0
 10
8.79161
 20
895.818
 11
8.39999
 21
895.961
  0
LINE
  8
0
 10
8.39999
 20
895.961
 11
8.08073
 21
896.229
  0
LINE
  8
0
 10
8.08073
 20
896.229
 11
7.87236
 21
896.59
  0
LINE
  8
0
 10
7.87236
 20
896.59
 11
7.79999
 21
897
  0
LINE
  8
0
 10
7.79999
 20
897
 11
7.87236
 21
897.41
  0
LINE
  8
0
 10
7.87236
 20
897.41
 11
8.08073
 21
897.771
  0
LINE
  8
0
 10
8.08073
 20
897.771
 11
8.39999
 21
898.039
  0
LINE
  8
0
 10
8.39999
 20
898.039
 11
8.79161
 21
898.182
  0
LINE
  8
0
 10
8.79161
 20
898.182
 11
9.20837
 21
898.182
  0
LINE
  8
0
 10
9.20837
 20
898.182
 11
9.59999
 21
898.039
  0
LINE
  8
0
 10
9.59999
 20
898.039
 11
9.91925
 21
897.771
  0
LINE
  8
0
 10
9.91925
 20
897.771
 11
10.1276
 21
897.41
  0
LINE
  8
0
 10
10.1276
 20
897.41
 11
10.2
 21
897
  0
LINE
  8
0
 10
10.2
 20
897
 11
10.1276
 21
896.59
  0
LINE
  8
0
 10
10.1276
 20
896.59
 11
9.91925
 21
896.229
  0
LINE
  8
0
 10
9.91925
 20
896.229
 11
9.59999
 21
895.961
  0
LINE
  8
0
 10
9.59999
 20
895.961
 11
9.20837
 21
895.818
  0
LINE
  8
0
 10
9.20837
 20
895.818
 11
8.79161
 21
895.818
  0
LINE
  8
0
 10
14.7916
 20
887.818
 11
14.4
 21
887.961
  0
LINE
  8
0
 10
14.4
 20
887.961
 11
14.0807
 21
888.229
  0
LINE
  8
0
 10
14.0807
 20
888.229
 11
13.8724
 21
888.59
  0
LINE
  8
0
 10
13.8724
 20
888.59
 11
13.8
 21
889
  0
LINE
  8
0
 10
13.8
 20
889
 11
13.8724
 21
889.41
  0
LINE
  8
0
 10
13.8724
 20
889.41
 11
14.0807
 21
889.771
  0
LINE
  8
0
 10
14.0807
 20
889.771
 11
14.4
 21
890.039
  0
LINE
  8
0
 10
14.4
 20
890.039
 11
14.7916
 21
890.182
  0
LINE
  8
0
 10
14.7916
 20
890.182
 11
15.2084
 21
890.182
  0
LINE
  8
0
 10
15.2084
 20
890.182
 11
15.6
 21
890.039
  0
LINE
  8
0
 10
15.6
 20
890.039
 11
15.9193
 21
889.771
  0
LINE
  8
0
 10
15.9193
 20
889.771
 11
16.1276
 21
889.41
  0
LINE
  8
0
 10
16.1276
 20
889.41
 11
16.2
 21
889
  0
LINE
  8
0
 10
16.2
 20
889
 11
16.1276
 21
888.59
  0
LINE
  8
0
 10
16.1276
 20
888.59
 11
15.9193
 21
888.229
  0
LINE
  8
0
 10
15.9193
 20
888.229
 11
15.6
 21
887.961
  0
LINE
  8
0
 10
15.6
 20
887.961
 11
15.2084
 21
887.818
  0
LINE
  8
0
 10
15.2084
 20
887.818
 11
14.7916
 21
887.818
  0
LINE
  8
0
 10
12.7916
 20
879.818
 11
12.4
 21
879.961
  0
LINE
  8
0
 10
12.4
 20
879.961
 11
12.0807
 21
880.229
  0
LINE
  8
0
 10
12.0807
 20
880.229
 11
11.8724
 21
880.59
  0
LINE
  8
0
 10
11.8724
 20
880.59
 11
11.8
 21
881
  0
LINE
  8
0
 10
11.8
 20
881
 11
11.8724
 21
881.41
  0
LINE
  8
0
 10
11.8724
 20
881.41
 11
12.0807
 21
881.771
  0
LINE
  8
0
 10
12.0807
 20
881.771
 11
12.4
 21
882.039
  0
LINE
  8
0
 10
12.4
 20
882.039
 11
12.7916
 21
882.182
  0
LINE
  8
0
 10
12.7916
 20
882.182
 11
13.2084
 21
882.182
  0
LINE
  8
0
 10
13.2084
 20
882.182
 11
13.6
 21
882.039
  0
LINE
  8
0
 10
13.6
 20
882.039
 11
13.9193
 21
881.771
  0
LINE
  8
0
 10
13.9193
 20
881.771
 11
14.1276
 21
881.41
  0
LINE
  8
0
 10
14.1276
 20
881.41
 11
14.2
 21
881
  0
LINE
  8
0
 10
14.2
 20
881
 11
14.1276
 21
880.59
  0
LINE
  8
0
 10
14.1276
 20
880.59
 11
13.9193
 21
880.229
  0
LINE
  8
0
 10
13.9193
 20
880.229
 11
13.6
 21
879.961
  0
LINE
  8
0
 10
13.6
 20
879.961
 11
13.2084
 21
879.818
  0
LINE
  8
0
 10
13.2084
 20
879.818
 11
12.7916
 21
879.818
  0
LINE
  8
0
 10
10.7916
 20
871.818
 11
10.4
 21
871.961
  0
LINE
  8
0
 10
10.4
 20
871.961
 11
10.0807
 21
872.229
  0
LINE
  8
0
 10
10.0807
 20
872.229
 11
9.87236
 21
872.59
  0
LINE
  8
0
 10
9.87236
 20
872.59
 11
9.79999
 21
873
  0
LINE
  8
0
 10
9.79999
 20
873
 11
9.87236
 21
873.41
  0
LINE
  8
0
 10
9.87236
 20
873.41
 11
10.0807
 21
873.771
  0
LINE
  8
0
 10
10.0807
 20
873.771
 11
10.4
 21
874.039
  0
LINE
  8
0
 10
10.4
 20
874.039
 11
10.7916
 21
874.182
  0
LINE
  8
0
 10
10.7916
 20
874.182
 11
11.2084
 21
874.182
  0
LINE
  8
0
 10
11.2084
 20
874.182
 11
11.6
 21
874.039
  0
LINE
  8
0
 10
11.6
 20
874.039
 11
11.9193
 21
873.771
  0
LINE
  8
0
 10
11.9193
 20
873.771
 11
12.1276
 21
873.41
  0
LINE
  8
0
 10
12.1276
 20
873.41
 11
12.2
 21
873
  0
LINE
  8
0
 10
12.2
 20
873
 11
12.1276
 21
872.59
  0
LINE
  8
0
 10
12.1276
 20
872.59
 11
11.9193
 21
872.229
  0
LINE
  8
0
 10
11.9193
 20
872.229
 11
11.6
 21
871.961
  0
LINE
  8
0
 10
11.6
 20
871.961
 11
11.2084
 21
871.818
  0
LINE
  8
0
 10
11.2084
 20
871.818
 11
10.7916
 21
871.818
  0
LINE
  8
0
 10
8.79161
 20
863.818
 11
8.39999
 21
863.961
  0
LINE
  8
0
 10
8.39999
 20
863.961
 11
8.08073
 21
864.229
  0
LINE
  8
0
 10
8.08073
 20
864.229
 11
7.87236
 21
864.59
  0
LINE
  8
0
 10
7.87236
 20
864.59
 11
7.79999
 21
865
  0
LINE
  8
0
 10
7.79999
 20
865
 11
7.87236
 21
865.41
  0
LINE
  8
0
 10
7.87236
 20
865.41
 11
8.08073
 21
865.771
  0
LINE
  8
0
 10
8.08073
 20
865.771
 11
8.39999
 21
866.039
  0
LINE
  8
0
 10
8.39999
 20
866.039
 11
8.79161
 21
866.182
  0
LINE
  8
0
 10
8.79161
 20
866.182
 11
9.20837
 21
866.182
  0
LINE
  8
0
 10
9.20837
 20
866.182
 11
9.59999
 21
866.039
  0
LINE
  8
0
 10
9.59999
 20
866.039
 11
9.91925
 21
865.771
  0
LINE
  8
0
 10
9.91925
 20
865.771
 11
10.1276
 21
865.41
  0
LINE
  8
0
 10
10.1276
 20
865.41
 11
10.2
 21
865
  0
LINE
  8
0
 10
10.2
 20
865
 11
10.1276
 21
864.59
  0
LINE
  8
0
 10
10.1276
 20
864.59
 11
9.91925
 21
864.229
  0
LINE
  8
0
 10
9.91925
 20
864.229
 11
9.59999
 21
863.961
  0
LINE
  8
0
 10
9.59999
 20
863.961
 11
9.20837
 21
863.818
  0
LINE
  8
0
 10
9.20837
 20
863.818
 11
8.79161
 21
863.818
  0
LINE
  8
0
 10
14.7916
 20
855.818
 11
14.4
 21
855.961
  0
LINE
  8
0
 10
14.4
 20
855.961
 11
14.0807
 21
856.229
  0
LINE
  8
0
 10
14.0807
 20
856.229
 11
13.8724
 21
856.59
  0
LINE
  8
0
 10
13.8724
 20
856.59
 11
13.8
 21
857
  0
LINE
  8
0
 10
13.8
 20
857
 11
13.8724
 21
857.41
  0
LINE
  8
0
 10
13.8724
 20
857.41
 11
14.0807
 21
857.771
  0
LINE
  8
0
 10
14.0807
 20
857.771
 11
14.4
 21
858.039
  0
LINE
  8
0
 10
14.4
 20
858.039
 11
14.7916
 21
858.182
  0
LINE
  8
0
 10
14.7916
 20
858.182
 11
15.2084
 21
858.182
  0
LINE
  8
0
 10
15.2084
 20
858.182
 11
15.6
 21
858.039
  0
LINE
  8
0
 10
15.6
 20
858.039
 11
15.9193
 21
857.771
  0
LINE
  8
0
 10
15.9193
 20
857.771
 11
16.1276
 21
857.41
  0
LINE
  8
0
 10
16.1276
 20
857.41
 11
16.2
 21
857
  0
LINE
  8
0
 10
16.2
 20
857
 11
16.1276
 21
856.59
  0
LINE
  8
0
 10
16.1276
 20
856.59
 11
15.9193
 21
856.229
  0
LINE
  8
0
 10
15.9193
 20
856.229
 11
15.6
 21
855.961
  0
LINE
  8
0
 10
15.6
 20
855.961
 11
15.2084
 21
855.818
  0
LINE
  8
0
 10
15.2084
 20
855.818
 11
14.7916
 21
855.818
  0
LINE
  8
0
 10
14.7916
 20
847.818
 11
14.4
 21
847.961
  0
LINE
  8
0
 10
14.4
 20
847.961
 11
14.0807
 21
848.229
  0
LINE
  8
0
 10
14.0807
 20
848.229
 11
13.8724
 21
848.59
  0
LINE
  8
0
 10
13.8724
 20
848.59
 11
13.8
 21
849
  0
LINE
  8
0
 10
13.8
 20
849
 11
13.8724
 21
849.41
  0
LINE
  8
0
 10
13.8724
 20
849.41
 11
14.0807
 21
849.771
  0
LINE
  8
0
 10
14.0807
 20
849.771
 11
14.4
 21
850.039
  0
LINE
  8
0
 10
14.4
 20
850.039
 11
14.7916
 21
850.182
  0
LINE
  8
0
 10
14.7916
 20
850.182
 11
15.2084
 21
850.182
  0
LINE
  8
0
 10
15.2084
 20
850.182
 11
15.6
 21
850.039
  0
LINE
  8
0
 10
15.6
 20
850.039
 11
15.9193
 21
849.771
  0
LINE
  8
0
 10
15.9193
 20
849.771
 11
16.1276
 21
849.41
  0
LINE
  8
0
 10
16.1276
 20
849.41
 11
16.2
 21
849
  0
LINE
  8
0
 10
16.2
 20
849
 11
16.1276
 21
848.59
  0
LINE
  8
0
 10
16.1276
 20
848.59
 11
15.9193
 21
848.229
  0
LINE
  8
0
 10
15.9193
 20
848.229
 11
15.6
 21
847.961
  0
LINE
  8
0
 10
15.6
 20
847.961
 11
15.2084
 21
847.818
  0
LINE
  8
0
 10
15.2084
 20
847.818
 11
14.7916
 21
847.818
  0
LINE
  8
0
 10
10.7916
 20
799.818
 11
10.4
 21
799.961
  0
LINE
  8
0
 10
10.4
 20
799.961
 11
10.0807
 21
800.229
  0
LINE
  8
0
 10
10.0807
 20
800.229
 11
9.87236
 21
800.59
  0
LINE
  8
0
 10
9.87236
 20
800.59
 11
9.79999
 21
801
  0
LINE
  8
0
 10
9.79999
 20
801
 11
9.87236
 21
801.41
  0
LINE
  8
0
 10
9.87236
 20
801.41
 11
10.0807
 21
801.771
  0
LINE
  8
0
 10
10.0807
 20
801.771
 11
10.4
 21
802.039
  0
LINE
  8
0
 10
10.4
 20
802.039
 11
10.7916
 21
802.182
  0
LINE
  8
0
 10
10.7916
 20
802.182
 11
11.2084
 21
802.182
  0
LINE
  8
0
 10
11.2084
 20
802.182
 11
11.6
 21
802.039
  0
LINE
  8
0
 10
11.6
 20
802.039
 11
11.9193
 21
801.771
  0
LINE
  8
0
 10
11.9193
 20
801.771
 11
12.1276
 21
801.41
  0
LINE
  8
0
 10
12.1276
 20
801.41
 11
12.2
 21
801
  0
LINE
  8
0
 10
12.2
 20
801
 11
12.1276
 21
800.59
  0
LINE
  8
0
 10
12.1276
 20
800.59
 11
11.9193
 21
800.229
  0
LINE
  8
0
 10
11.9193
 20
800.229
 11
11.6
 21
799.961
  0
LINE
  8
0
 10
11.6
 20
799.961
 11
11.2084
 21
799.818
  0
LINE
  8
0
 10
11.2084
 20
799.818
 11
10.7916
 21
799.818
  0
LINE
  8
0
 10
10.7916
 20
791.818
 11
10.4
 21
791.961
  0
LINE
  8
0
 10
10.4
 20
791.961
 11
10.0807
 21
792.229
  0
LINE
  8
0
 10
10.0807
 20
792.229
 11
9.87236
 21
792.59
  0
LINE
  8
0
 10
9.87236
 20
792.59
 11
9.79999
 21
793
  0
LINE
  8
0
 10
9.79999
 20
793
 11
9.87236
 21
793.41
  0
LINE
  8
0
 10
9.87236
 20
793.41
 11
10.0807
 21
793.771
  0
LINE
  8
0
 10
10.0807
 20
793.771
 11
10.4
 21
794.039
  0
LINE
  8
0
 10
10.4
 20
794.039
 11
10.7916
 21
794.182
  0
LINE
  8
0
 10
10.7916
 20
794.182
 11
11.2084
 21
794.182
  0
LINE
  8
0
 10
11.2084
 20
794.182
 11
11.6
 21
794.039
  0
LINE
  8
0
 10
11.6
 20
794.039
 11
11.9193
 21
793.771
  0
LINE
  8
0
 10
11.9193
 20
793.771
 11
12.1276
 21
793.41
  0
LINE
  8
0
 10
12.1276
 20
793.41
 11
12.2
 21
793
  0
LINE
  8
0
 10
12.2
 20
793
 11
12.1276
 21
792.59
  0
LINE
  8
0
 10
12.1276
 20
792.59
 11
11.9193
 21
792.229
  0
LINE
  8
0
 10
11.9193
 20
792.229
 11
11.6
 21
791.961
  0
LINE
  8
0
 10
11.6
 20
791.961
 11
11.2084
 21
791.818
  0
LINE
  8
0
 10
11.2084
 20
791.818
 11
10.7916
 21
791.818
  0
LINE
  8
0
 10
8.79161
 20
767.818
 11
8.39999
 21
767.961
  0
LINE
  8
0
 10
8.39999
 20
767.961
 11
8.08073
 21
768.229
  0
LINE
  8
0
 10
8.08073
 20
768.229
 11
7.87236
 21
768.59
  0
LINE
  8
0
 10
7.87236
 20
768.59
 11
7.79999
 21
769
  0
LINE
  8
0
 10
7.79999
 20
769
 11
7.87236
 21
769.41
  0
LINE
  8
0
 10
7.87236
 20
769.41
 11
8.08073
 21
769.771
  0
LINE
  8
0
 10
8.08073
 20
769.771
 11
8.39999
 21
770.039
  0
LINE
  8
0
 10
8.39999
 20
770.039
 11
8.79161
 21
770.182
  0
LINE
  8
0
 10
8.79161
 20
770.182
 11
9.20837
 21
770.182
  0
LINE
  8
0
 10
9.20837
 20
770.182
 11
9.59999
 21
770.039
  0
LINE
  8
0
 10
9.59999
 20
770.039
 11
9.91925
 21
769.771
  0
LINE
  8
0
 10
9.91925
 20
769.771
 11
10.1276
 21
769.41
  0
LINE
  8
0
 10
10.1276
 20
769.41
 11
10.2
 21
769
  0
LINE
  8
0
 10
10.2
 20
769
 11
10.1276
 21
768.59
  0
LINE
  8
0
 10
10.1276
 20
768.59
 11
9.91925
 21
768.229
  0
LINE
  8
0
 10
9.91925
 20
768.229
 11
9.59999
 21
767.961
  0
LINE
  8
0
 10
9.59999
 20
767.961
 11
9.20837
 21
767.818
  0
LINE
  8
0
 10
9.20837
 20
767.818
 11
8.79161
 21
767.818
  0
LINE
  8
0
 10
14.7916
 20
759.818
 11
14.4
 21
759.961
  0
LINE
  8
0
 10
14.4
 20
759.961
 11
14.0807
 21
760.229
  0
LINE
  8
0
 10
14.0807
 20
760.229
 11
13.8724
 21
760.59
  0
LINE
  8
0
 10
13.8724
 20
760.59
 11
13.8
 21
761
  0
LINE
  8
0
 10
13.8
 20
761
 11
13.8724
 21
761.41
  0
LINE
  8
0
 10
13.8724
 20
761.41
 11
14.0807
 21
761.771
  0
LINE
  8
0
 10
14.0807
 20
761.771
 11
14.4
 21
762.039
  0
LINE
  8
0
 10
14.4
 20
762.039
 11
14.7916
 21
762.182
  0
LINE
  8
0
 10
14.7916
 20
762.182
 11
15.2084
 21
762.182
  0
LINE
  8
0
 10
15.2084
 20
762.182
 11
15.6
 21
762.039
  0
LINE
  8
0
 10
15.6
 20
762.039
 11
15.9193
 21
761.771
  0
LINE
  8
0
 10
15.9193
 20
761.771
 11
16.1276
 21
761.41
  0
LINE
  8
0
 10
16.1276
 20
761.41
 11
16.2
 21
761
  0
LINE
  8
0
 10
16.2
 20
761
 11
16.1276
 21
760.59
  0
LINE
  8
0
 10
16.1276
 20
760.59
 11
15.9193
 21
760.229
  0
LINE
  8
0
 10
15.9193
 20
760.229
 11
15.6
 21
759.961
  0
LINE
  8
0
 10
15.6
 20
759.961
 11
15.2084
 21
759.818
  0
LINE
  8
0
 10
15.2084
 20
759.818
 11
14.7916
 21
759.818
  0
LINE
  8
0
 10
12.7916
 20
751.818
 11
12.4
 21
751.961
  0
LINE
  8
0
 10
12.4
 20
751.961
 11
12.0807
 21
752.229
  0
LINE
  8
0
 10
12.0807
 20
752.229
 11
11.8724
 21
752.59
  0
LINE
  8
0
 10
11.8724
 20
752.59
 11
11.8
 21
753
  0
LINE
  8
0
 10
11.8
 20
753
 11
11.8724
 21
753.41
  0
LINE
  8
0
 10
11.8724
 20
753.41
 11
12.0807
 21
753.771
  0
LINE
  8
0
 10
12.0807
 20
753.771
 11
12.4
 21
754.039
  0
LINE
  8
0
 10
12.4
 20
754.039
 11
12.7916
 21
754.182
  0
LINE
  8
0
 10
12.7916
 20
754.182
 11
13.2084
 21
754.182
  0
LINE
  8
0
 10
13.2084
 20
754.182
 11
13.6
 21
754.039
  0
LINE
  8
0
 10
13.6
 20
754.039
 11
13.9193
 21
753.771
  0
LINE
  8
0
 10
13.9193
 20
753.771
 11
14.1276
 21
753.41
  0
LINE
  8
0
 10
14.1276
 20
753.41
 11
14.2
 21
753
  0
LINE
  8
0
 10
14.2
 20
753
 11
14.1276
 21
752.59
  0
LINE
  8
0
 10
14.1276
 20
752.59
 11
13.9193
 21
752.229
  0
LINE
  8
0
 10
13.9193
 20
752.229
 11
13.6
 21
751.961
  0
LINE
  8
0
 10
13.6
 20
751.961
 11
13.2084
 21
751.818
  0
LINE
  8
0
 10
13.2084
 20
751.818
 11
12.7916
 21
751.818
  0
LINE
  8
0
 10
10.7916
 20
743.818
 11
10.4
 21
743.961
  0
LINE
  8
0
 10
10.4
 20
743.961
 11
10.0807
 21
744.229
  0
LINE
  8
0
 10
10.0807
 20
744.229
 11
9.87236
 21
744.59
  0
LINE
  8
0
 10
9.87236
 20
744.59
 11
9.79999
 21
745
  0
LINE
  8
0
 10
9.79999
 20
745
 11
9.87236
 21
745.41
  0
LINE
  8
0
 10
9.87236
 20
745.41
 11
10.0807
 21
745.771
  0
LINE
  8
0
 10
10.0807
 20
745.771
 11
10.4
 21
746.039
  0
LINE
  8
0
 10
10.4
 20
746.039
 11
10.7916
 21
746.182
  0
LINE
  8
0
 10
10.7916
 20
746.182
 11
11.2084
 21
746.182
  0
LINE
  8
0
 10
11.2084
 20
746.182
 11
11.6
 21
746.039
  0
LINE
  8
0
 10
11.6
 20
746.039
 11
11.9193
 21
745.771
  0
LINE
  8
0
 10
11.9193
 20
745.771
 11
12.1276
 21
745.41
  0
LINE
  8
0
 10
12.1276
 20
745.41
 11
12.2
 21
745
  0
LINE
  8
0
 10
12.2
 20
745
 11
12.1276
 21
744.59
  0
LINE
  8
0
 10
12.1276
 20
744.59
 11
11.9193
 21
744.229
  0
LINE
  8
0
 10
11.9193
 20
744.229
 11
11.6
 21
743.961
  0
LINE
  8
0
 10
11.6
 20
743.961
 11
11.2084
 21
743.818
  0
LINE
  8
0
 10
11.2084
 20
743.818
 11
10.7916
 21
743.818
  0
LINE
  8
0
 10
8.79161
 20
735.818
 11
8.39999
 21
735.961
  0
LINE
  8
0
 10
8.39999
 20
735.961
 11
8.08073
 21
736.229
  0
LINE
  8
0
 10
8.08073
 20
736.229
 11
7.87236
 21
736.59
  0
LINE
  8
0
 10
7.87236
 20
736.59
 11
7.79999
 21
737
  0
LINE
  8
0
 10
7.79999
 20
737
 11
7.87236
 21
737.41
  0
LINE
  8
0
 10
7.87236
 20
737.41
 11
8.08073
 21
737.771
  0
LINE
  8
0
 10
8.08073
 20
737.771
 11
8.39999
 21
738.039
  0
LINE
  8
0
 10
8.39999
 20
738.039
 11
8.79161
 21
738.182
  0
LINE
  8
0
 10
8.79161
 20
738.182
 11
9.20837
 21
738.182
  0
LINE
  8
0
 10
9.20837
 20
738.182
 11
9.59999
 21
738.039
  0
LINE
  8
0
 10
9.59999
 20
738.039
 11
9.91925
 21
737.771
  0
LINE
  8
0
 10
9.91925
 20
737.771
 11
10.1276
 21
737.41
  0
LINE
  8
0
 10
10.1276
 20
737.41
 11
10.2
 21
737
  0
LINE
  8
0
 10
10.2
 20
737
 11
10.1276
 21
736.59
  0
LINE
  8
0
 10
10.1276
 20
736.59
 11
9.91925
 21
736.229
  0
LINE
  8
0
 10
9.91925
 20
736.229
 11
9.59999
 21
735.961
  0
LINE
  8
0
 10
9.59999
 20
735.961
 11
9.20837
 21
735.818
  0
LINE
  8
0
 10
9.20837
 20
735.818
 11
8.79161
 21
735.818
  0
LINE
  8
0
 10
14.7916
 20
727.818
 11
14.4
 21
727.961
  0
LINE
  8
0
 10
14.4
 20
727.961
 11
14.0807
 21
728.229
  0
LINE
  8
0
 10
14.0807
 20
728.229
 11
13.8724
 21
728.59
  0
LINE
  8
0
 10
13.8724
 20
728.59
 11
13.8
 21
729
  0
LINE
  8
0
 10
13.8
 20
729
 11
13.8724
 21
729.41
  0
LINE
  8
0
 10
13.8724
 20
729.41
 11
14.0807
 21
729.771
  0
LINE
  8
0
 10
14.0807
 20
729.771
 11
14.4
 21
730.039
  0
LINE
  8
0
 10
14.4
 20
730.039
 11
14.7916
 21
730.182
  0
LINE
  8
0
 10
14.7916
 20
730.182
 11
15.2084
 21
730.182
  0
LINE
  8
0
 10
15.2084
 20
730.182
 11
15.6
 21
730.039
  0
LINE
  8
0
 10
15.6
 20
730.039
 11
15.9193
 21
729.771
  0
LINE
  8
0
 10
15.9193
 20
729.771
 11
16.1276
 21
729.41
  0
LINE
  8
0
 10
16.1276
 20
729.41
 11
16.2
 21
729
  0
LINE
  8
0
 10
16.2
 20
729
 11
16.1276
 21
728.59
  0
LINE
  8
0
 10
16.1276
 20
728.59
 11
15.9193
 21
728.229
  0
LINE
  8
0
 10
15.9193
 20
728.229
 11
15.6
 21
727.961
  0
LINE
  8
0
 10
15.6
 20
727.961
 11
15.2084
 21
727.818
  0
LINE
  8
0
 10
15.2084
 20
727.818
 11
14.7916
 21
727.818
  0
LINE
  8
0
 10
12.7916
 20
695.818
 11
12.4
 21
695.961
  0
LINE
  8
0
 10
12.4
 20
695.961
 11
12.0807
 21
696.229
  0
LINE
  8
0
 10
12.0807
 20
696.229
 11
11.8724
 21
696.59
  0
LINE
  8
0
 10
11.8724
 20
696.59
 11
11.8
 21
697
  0
LINE
  8
0
 10
11.8
 20
697
 11
11.8724
 21
697.41
  0
LINE
  8
0
 10
11.8724
 20
697.41
 11
12.0807
 21
697.771
  0
LINE
  8
0
 10
12.0807
 20
697.771
 11
12.4
 21
698.039
  0
LINE
  8
0
 10
12.4
 20
698.039
 11
12.7916
 21
698.182
  0
LINE
  8
0
 10
12.7916
 20
698.182
 11
13.2084
 21
698.182
  0
LINE
  8
0
 10
13.2084
 20
698.182
 11
13.6
 21
698.039
  0
LINE
  8
0
 10
13.6
 20
698.039
 11
13.9193
 21
697.771
  0
LINE
  8
0
 10
13.9193
 20
697.771
 11
14.1276
 21
697.41
  0
LINE
  8
0
 10
14.1276
 20
697.41
 11
14.2
 21
697
  0
LINE
  8
0
 10
14.2
 20
697
 11
14.1276
 21
696.59
  0
LINE
  8
0
 10
14.1276
 20
696.59
 11
13.9193
 21
696.229
  0
LINE
  8
0
 10
13.9193
 20
696.229
 11
13.6
 21
695.961
  0
LINE
  8
0
 10
13.6
 20
695.961
 11
13.2084
 21
695.818
  0
LINE
  8
0
 10
13.2084
 20
695.818
 11
12.7916
 21
695.818
  0
LINE
  8
0
 10
10.7916
 20
671.818
 11
10.4
 21
671.961
  0
LINE
  8
0
 10
10.4
 20
671.961
 11
10.0807
 21
672.229
  0
LINE
  8
0
 10
10.0807
 20
672.229
 11
9.87236
 21
672.59
  0
LINE
  8
0
 10
9.87236
 20
672.59
 11
9.79999
 21
673
  0
LINE
  8
0
 10
9.79999
 20
673
 11
9.87236
 21
673.41
  0
LINE
  8
0
 10
9.87236
 20
673.41
 11
10.0807
 21
673.771
  0
LINE
  8
0
 10
10.0807
 20
673.771
 11
10.4
 21
674.039
  0
LINE
  8
0
 10
10.4
 20
674.039
 11
10.7916
 21
674.182
  0
LINE
  8
0
 10
10.7916
 20
674.182
 11
11.2084
 21
674.182
  0
LINE
  8
0
 10
11.2084
 20
674.182
 11
11.6
 21
674.039
  0
LINE
  8
0
 10
11.6
 20
674.039
 11
11.9193
 21
673.771
  0
LINE
  8
0
 10
11.9193
 20
673.771
 11
12.1276
 21
673.41
  0
LINE
  8
0
 10
12.1276
 20
673.41
 11
12.2
 21
673
  0
LINE
  8
0
 10
12.2
 20
673
 11
12.1276
 21
672.59
  0
LINE
  8
0
 10
12.1276
 20
672.59
 11
11.9193
 21
672.229
  0
LINE
  8
0
 10
11.9193
 20
672.229
 11
11.6
 21
671.961
  0
LINE
  8
0
 10
11.6
 20
671.961
 11
11.2084
 21
671.818
  0
LINE
  8
0
 10
11.2084
 20
671.818
 11
10.7916
 21
671.818
  0
LINE
  8
0
 10
10.7916
 20
663.818
 11
10.4
 21
663.961
  0
LINE
  8
0
 10
10.4
 20
663.961
 11
10.0807
 21
664.229
  0
LINE
  8
0
 10
10.0807
 20
664.229
 11
9.87236
 21
664.59
  0
LINE
  8
0
 10
9.87236
 20
664.59
 11
9.79999
 21
665
  0
LINE
  8
0
 10
9.79999
 20
665
 11
9.87236
 21
665.41
  0
LINE
  8
0
 10
9.87236
 20
665.41
 11
10.0807
 21
665.771
  0
LINE
  8
0
 10
10.0807
 20
665.771
 11
10.4
 21
666.039
  0
LINE
  8
0
 10
10.4
 20
666.039
 11
10.7916
 21
666.182
  0
LINE
  8
0
 10
10.7916
 20
666.182
 11
11.2084
 21
666.182
  0
LINE
  8
0
 10
11.2084
 20
666.182
 11
11.6
 21
666.039
  0
LINE
  8
0
 10
11.6
 20
666.039
 11
11.9193
 21
665.771
  0
LINE
  8
0
 10
11.9193
 20
665.771
 11
12.1276
 21
665.41
  0
LINE
  8
0
 10
12.1276
 20
665.41
 11
12.2
 21
665
  0
LINE
  8
0
 10
12.2
 20
665
 11
12.1276
 21
664.59
  0
LINE
  8
0
 10
12.1276
 20
664.59
 11
11.9193
 21
664.229
  0
LINE
  8
0
 10
11.9193
 20
664.229
 11
11.6
 21
663.961
  0
LINE
  8
0
 10
11.6
 20
663.961
 11
11.2084
 21
663.818
  0
LINE
  8
0
 10
11.2084
 20
663.818
 11
10.7916
 21
663.818
  0
LINE
  8
0
 10
8.79161
 20
639.818
 11
8.39999
 21
639.961
  0
LINE
  8
0
 10
8.39999
 20
639.961
 11
8.08073
 21
640.229
  0
LINE
  8
0
 10
8.08073
 20
640.229
 11
7.87236
 21
640.59
  0
LINE
  8
0
 10
7.87236
 20
640.59
 11
7.79999
 21
641
  0
LINE
  8
0
 10
7.79999
 20
641
 11
7.87236
 21
641.41
  0
LINE
  8
0
 10
7.87236
 20
641.41
 11
8.08073
 21
641.771
  0
LINE
  8
0
 10
8.08073
 20
641.771
 11
8.39999
 21
642.039
  0
LINE
  8
0
 10
8.39999
 20
642.039
 11
8.79161
 21
642.182
  0
LINE
  8
0
 10
8.79161
 20
642.182
 11
9.20837
 21
642.182
  0
LINE
  8
0
 10
9.20837
 20
642.182
 11
9.59999
 21
642.039
  0
LINE
  8
0
 10
9.59999
 20
642.039
 11
9.91925
 21
641.771
  0
LINE
  8
0
 10
9.91925
 20
641.771
 11
10.1276
 21
641.41
  0
LINE
  8
0
 10
10.1276
 20
641.41
 11
10.2
 21
641
  0
LINE
  8
0
 10
10.2
 20
641
 11
10.1276
 21
640.59
  0
LINE
  8
0
 10
10.1276
 20
640.59
 11
9.91925
 21
640.229
  0
LINE
  8
0
 10
9.91925
 20
640.229
 11
9.59999
 21
639.961
  0
LINE
  8
0
 10
9.59999
 20
639.961
 11
9.20837
 21
639.818
  0
LINE
  8
0
 10
9.20837
 20
639.818
 11
8.79161
 21
639.818
  0
LINE
  8
0
 10
8.79161
 20
631.818
 11
8.39999
 21
631.961
  0
LINE
  8
0
 10
8.39999
 20
631.961
 11
8.08073
 21
632.229
  0
LINE
  8
0
 10
8.08073
 20
632.229
 11
7.87236
 21
632.59
  0
LINE
  8
0
 10
7.87236
 20
632.59
 11
7.79999
 21
633
  0
LINE
  8
0
 10
7.79999
 20
633
 11
7.87236
 21
633.41
  0
LINE
  8
0
 10
7.87236
 20
633.41
 11
8.08073
 21
633.771
  0
LINE
  8
0
 10
8.08073
 20
633.771
 11
8.39999
 21
634.039
  0
LINE
  8
0
 10
8.39999
 20
634.039
 11
8.79161
 21
634.182
  0
LINE
  8
0
 10
8.79161
 20
634.182
 11
9.20837
 21
634.182
  0
LINE
  8
0
 10
9.20837
 20
634.182
 11
9.59999
 21
634.039
  0
LINE
  8
0
 10
9.59999
 20
634.039
 11
9.91925
 21
633.771
  0
LINE
  8
0
 10
9.91925
 20
633.771
 11
10.1276
 21
633.41
  0
LINE
  8
0
 10
10.1276
 20
633.41
 11
10.2
 21
633
  0
LINE
  8
0
 10
10.2
 20
633
 11
10.1276
 21
632.59
  0
LINE
  8
0
 10
10.1276
 20
632.59
 11
9.91925
 21
632.229
  0
LINE
  8
0
 10
9.91925
 20
632.229
 11
9.59999
 21
631.961
  0
LINE
  8
0
 10
9.59999
 20
631.961
 11
9.20837
 21
631.818
  0
LINE
  8
0
 10
9.20837
 20
631.818
 11
8.79161
 21
631.818
  0
LINE
  8
0
 10
8.79161
 20
623.818
 11
8.39999
 21
623.961
  0
LINE
  8
0
 10
8.39999
 20
623.961
 11
8.08073
 21
624.229
  0
LINE
  8
0
 10
8.08073
 20
624.229
 11
7.87236
 21
624.59
  0
LINE
  8
0
 10
7.87236
 20
624.59
 11
7.79999
 21
625
  0
LINE
  8
0
 10
7.79999
 20
625
 11
7.87236
 21
625.41
  0
LINE
  8
0
 10
7.87236
 20
625.41
 11
8.08073
 21
625.771
  0
LINE
  8
0
 10
8.08073
 20
625.771
 11
8.39999
 21
626.039
  0
LINE
  8
0
 10
8.39999
 20
626.039
 11
8.79161
 21
626.182
  0
LINE
  8
0
 10
8.79161
 20
626.182
 11
9.20837
 21
626.182
  0
LINE
  8
0
 10
9.20837
 20
626.182
 11
9.59999
 21
626.039
  0
LINE
  8
0
 10
9.59999
 20
626.039
 11
9.91925
 21
625.771
  0
LINE
  8
0
 10
9.91925
 20
625.771
 11
10.1276
 21
625.41
  0
LINE
  8
0
 10
10.1276
 20
625.41
 11
10.2
 21
625
  0
LINE
  8
0
 10
10.2
 20
625
 11
10.1276
 21
624.59
  0
LINE
  8
0
 10
10.1276
 20
624.59
 11
9.91925
 21
624.229
  0
LINE
  8
0
 10
9.91925
 20
624.229
 11
9.59999
 21
623.961
  0
LINE
  8
0
 10
9.59999
 20
623.961
 11
9.20837
 21
623.818
  0
LINE
  8
0
 10
9.20837
 20
623.818
 11
8.79161
 21
623.818
  0
LINE
  8
0
 10
8.79161
 20
615.818
 11
8.39999
 21
615.961
  0
LINE
  8
0
 10
8.39999
 20
615.961
 11
8.08073
 21
616.229
  0
LINE
  8
0
 10
8.08073
 20
616.229
 11
7.87236
 21
616.59
  0
LINE
  8
0
 10
7.87236
 20
616.59
 11
7.79999
 21
617
  0
LINE
  8
0
 10
7.79999
 20
617
 11
7.87236
 21
617.41
  0
LINE
  8
0
 10
7.87236
 20
617.41
 11
8.08073
 21
617.771
  0
LINE
  8
0
 10
8.08073
 20
617.771
 11
8.39999
 21
618.039
  0
LINE
  8
0
 10
8.39999
 20
618.039
 11
8.79161
 21
618.182
  0
LINE
  8
0
 10
8.79161
 20
618.182
 11
9.20837
 21
618.182
  0
LINE
  8
0
 10
9.20837
 20
618.182
 11
9.59999
 21
618.039
  0
LINE
  8
0
 10
9.59999
 20
618.039
 11
9.91925
 21
617.771
  0
LINE
  8
0
 10
9.91925
 20
617.771
 11
10.1276
 21
617.41
  0
LINE
  8
0
 10
10.1276
 20
617.41
 11
10.2
 21
617
  0
LINE
  8
0
 10
10.2
 20
617
 11
10.1276
 21
616.59
  0
LINE
  8
0
 10
10.1276
 20
616.59
 11
9.91925
 21
616.229
  0
LINE
  8
0
 10
9.91925
 20
616.229
 11
9.59999
 21
615.961
  0
LINE
  8
0
 10
9.59999
 20
615.961
 11
9.20837
 21
615.818
  0
LINE
  8
0
 10
9.20837
 20
615.818
 11
8.79161
 21
615.818
  0
LINE
  8
0
 10
8.79161
 20
607.818
 11
8.39999
 21
607.961
  0
LINE
  8
0
 10
8.39999
 20
607.961
 11
8.08073
 21
608.229
  0
LINE
  8
0
 10
8.08073
 20
608.229
 11
7.87236
 21
608.59
  0
LINE
  8
0
 10
7.87236
 20
608.59
 11
7.79999
 21
609
  0
LINE
  8
0
 10
7.79999
 20
609
 11
7.87236
 21
609.41
  0
LINE
  8
0
 10
7.87236
 20
609.41
 11
8.08073
 21
609.771
  0
LINE
  8
0
 10
8.08073
 20
609.771
 11
8.39999
 21
610.039
  0
LINE
  8
0
 10
8.39999
 20
610.039
 11
8.79161
 21
610.182
  0
LINE
  8
0
 10
8.79161
 20
610.182
 11
9.20837
 21
610.182
  0
LINE
  8
0
 10
9.20837
 20
610.182
 11
9.59999
 21
610.039
  0
LINE
  8
0
 10
9.59999
 20
610.039
 11
9.91925
 21
609.771
  0
LINE
  8
0
 10
9.91925
 20
609.771
 11
10.1276
 21
609.41
  0
LINE
  8
0
 10
10.1276
 20
609.41
 11
10.2
 21
609
  0
LINE
  8
0
 10
10.2
 20
609
 11
10.1276
 21
608.59
  0
LINE
  8
0
 10
10.1276
 20
608.59
 11
9.91925
 21
608.229
  0
LINE
  8
0
 10
9.91925
 20
608.229
 11
9.59999
 21
607.961
  0
LINE
  8
0
 10
9.59999
 20
607.961
 11
9.20837
 21
607.818
  0
LINE
  8
0
 10
9.20837
 20
607.818
 11
8.79161
 21
607.818
  0
LINE
  8
0
 10
8.79161
 20
599.818
 11
8.39999
 21
599.961
  0
LINE
  8
0
 10
8.39999
 20
599.961
 11
8.08073
 21
600.229
  0
LINE
  8
0
 10
8.08073
 20
600.229
 11
7.87236
 21
600.59
  0
LINE
  8
0
 10
7.87236
 20
600.59
 11
7.79999
 21
601
  0
LINE
  8
0
 10
7.79999
 20
601
 11
7.87236
 21
601.41
  0
LINE
  8
0
 10
7.87236
 20
601.41
 11
8.08073
 21
601.771
  0
LINE
  8
0
 10
8.08073
 20
601.771
 11
8.39999
 21
602.039
  0
LINE
  8
0
 10
8.39999
 20
602.039
 11
8.79161
 21
602.182
  0
LINE
  8
0
 10
8.79161
 20
602.182
 11
9.20837
 21
602.182
  0
LINE
  8
0
 10
9.20837
 20
602.182
 11
9.59999
 21
602.039
  0
LINE
  8
0
 10
9.59999
 20
602.039
 11
9.91925
 21
601.771
  0
LINE
  8
0
 10
9.91925
 20
601.771
 11
10.1276
 21
601.41
  0
LINE
  8
0
 10
10.1276
 20
601.41
 11
10.2
 21
601
  0
LINE
  8
0
 10
10.2
 20
601
 11
10.1276
 21
600.59
  0
LINE
  8
0
 10
10.1276
 20
600.59
 11
9.91925
 21
600.229
  0
LINE
  8
0
 10
9.91925
 20
600.229
 11
9.59999
 21
599.961
  0
LINE
  8
0
 10
9.59999
 20
599.961
 11
9.20837
 21
599.818
  0
LINE
  8
0
 10
9.20837
 20
599.818
 11
8.79161
 21
599.818
  0
LINE
  8
0
 10
8.79161
 20
575.818
 11
8.39999
 21
575.961
  0
LINE
  8
0
 10
8.39999
 20
575.961
 11
8.08073
 21
576.229
  0
LINE
  8
0
 10
8.08073
 20
576.229
 11
7.87236
 21
576.59
  0
LINE
  8
0
 10
7.87236
 20
576.59
 11
7.79999
 21
577
  0
LINE
  8
0
 10
7.79999
 20
577
 11
7.87236
 21
577.41
  0
LINE
  8
0
 10
7.87236
 20
577.41
 11
8.08073
 21
577.771
  0
LINE
  8
0
 10
8.08073
 20
577.771
 11
8.39999
 21
578.039
  0
LINE
  8
0
 10
8.39999
 20
578.039
 11
8.79161
 21
578.182
  0
LINE
  8
0
 10
8.79161
 20
578.182
 11
9.20837
 21
578.182
  0
LINE
  8
0
 10
9.20837
 20
578.182
 11
9.59999
 21
578.039
  0
LINE
  8
0
 10
9.59999
 20
578.039
 11
9.91925
 21
577.771
  0
LINE
  8
0
 10
9.91925
 20
577.771
 11
10.1276
 21
577.41
  0
LINE
  8
0
 10
10.1276
 20
577.41
 11
10.2
 21
577
  0
LINE
  8
0
 10
10.2
 20
577
 11
10.1276
 21
576.59
  0
LINE
  8
0
 10
10.1276
 20
576.59
 11
9.91925
 21
576.229
  0
LINE
  8
0
 10
9.91925
 20
576.229
 11
9.59999
 21
575.961
  0
LINE
  8
0
 10
9.59999
 20
575.961
 11
9.20837
 21
575.818
  0
LINE
  8
0
 10
9.20837
 20
575.818
 11
8.79161
 21
575.818
  0
LINE
  8
0
 10
12.7916
 20
565.151
 11
12.4
 21
565.294
  0
LINE
  8
0
 10
12.4
 20
565.294
 11
12.0807
 21
565.562
  0
LINE
  8
0
 10
12.0807
 20
565.562
 11
11.8724
 21
565.923
  0
LINE
  8
0
 10
11.8724
 20
565.923
 11
11.8
 21
566.333
  0
LINE
  8
0
 10
11.8
 20
566.333
 11
11.8724
 21
566.744
  0
LINE
  8
0
 10
11.8724
 20
566.744
 11
12.0807
 21
567.105
  0
LINE
  8
0
 10
12.0807
 20
567.105
 11
12.4
 21
567.372
  0
LINE
  8
0
 10
12.4
 20
567.372
 11
12.7916
 21
567.515
  0
LINE
  8
0
 10
12.7916
 20
567.515
 11
13.2084
 21
567.515
  0
LINE
  8
0
 10
13.2084
 20
567.515
 11
13.6
 21
567.372
  0
LINE
  8
0
 10
13.6
 20
567.372
 11
13.9193
 21
567.105
  0
LINE
  8
0
 10
13.9193
 20
567.105
 11
14.1276
 21
566.744
  0
LINE
  8
0
 10
14.1276
 20
566.744
 11
14.2
 21
566.333
  0
LINE
  8
0
 10
14.2
 20
566.333
 11
14.1276
 21
565.923
  0
LINE
  8
0
 10
14.1276
 20
565.923
 11
13.9193
 21
565.562
  0
LINE
  8
0
 10
13.9193
 20
565.562
 11
13.6
 21
565.294
  0
LINE
  8
0
 10
13.6
 20
565.294
 11
13.2084
 21
565.151
  0
LINE
  8
0
 10
13.2084
 20
565.151
 11
12.7916
 21
565.151
  0
LINE
  8
0
 10
10.7916
 20
554.485
 11
10.4
 21
554.627
  0
LINE
  8
0
 10
10.4
 20
554.627
 11
10.0807
 21
554.895
  0
LINE
  8
0
 10
10.0807
 20
554.895
 11
9.87236
 21
555.256
  0
LINE
  8
0
 10
9.87236
 20
555.256
 11
9.79999
 21
555.667
  0
LINE
  8
0
 10
9.79999
 20
555.667
 11
9.87236
 21
556.077
  0
LINE
  8
0
 10
9.87236
 20
556.077
 11
10.0807
 21
556.438
  0
LINE
  8
0
 10
10.0807
 20
556.438
 11
10.4
 21
556.706
  0
LINE
  8
0
 10
10.4
 20
556.706
 11
10.7916
 21
556.848
  0
LINE
  8
0
 10
10.7916
 20
556.848
 11
11.2084
 21
556.848
  0
LINE
  8
0
 10
11.2084
 20
556.848
 11
11.6
 21
556.706
  0
LINE
  8
0
 10
11.6
 20
556.706
 11
11.9193
 21
556.438
  0
LINE
  8
0
 10
11.9193
 20
556.438
 11
12.1276
 21
556.077
  0
LINE
  8
0
 10
12.1276
 20
556.077
 11
12.2
 21
555.667
  0
LINE
  8
0
 10
12.2
 20
555.667
 11
12.1276
 21
555.256
  0
LINE
  8
0
 10
12.1276
 20
555.256
 11
11.9193
 21
554.895
  0
LINE
  8
0
 10
11.9193
 20
554.895
 11
11.6
 21
554.627
  0
LINE
  8
0
 10
11.6
 20
554.627
 11
11.2084
 21
554.485
  0
LINE
  8
0
 10
11.2084
 20
554.485
 11
10.7916
 21
554.485
  0
LINE
  8
0
 10
8.79161
 20
543.818
 11
8.39999
 21
543.961
  0
LINE
  8
0
 10
8.39999
 20
543.961
 11
8.08073
 21
544.229
  0
LINE
  8
0
 10
8.08073
 20
544.229
 11
7.87236
 21
544.59
  0
LINE
  8
0
 10
7.87236
 20
544.59
 11
7.79999
 21
545
  0
LINE
  8
0
 10
7.79999
 20
545
 11
7.87236
 21
545.41
  0
LINE
  8
0
 10
7.87236
 20
545.41
 11
8.08073
 21
545.771
  0
LINE
  8
0
 10
8.08073
 20
545.771
 11
8.39999
 21
546.039
  0
LINE
  8
0
 10
8.39999
 20
546.039
 11
8.79161
 21
546.182
  0
LINE
  8
0
 10
8.79161
 20
546.182
 11
9.20837
 21
546.182
  0
LINE
  8
0
 10
9.20837
 20
546.182
 11
9.59999
 21
546.039
  0
LINE
  8
0
 10
9.59999
 20
546.039
 11
9.91925
 21
545.771
  0
LINE
  8
0
 10
9.91925
 20
545.771
 11
10.1276
 21
545.41
  0
LINE
  8
0
 10
10.1276
 20
545.41
 11
10.2
 21
545
  0
LINE
  8
0
 10
10.2
 20
545
 11
10.1276
 21
544.59
  0
LINE
  8
0
 10
10.1276
 20
544.59
 11
9.91925
 21
544.229
  0
LINE
  8
0
 10
9.91925
 20
544.229
 11
9.59999
 21
543.961
  0
LINE
  8
0
 10
9.59999
 20
543.961
 11
9.20837
 21
543.818
  0
LINE
  8
0
 10
9.20837
 20
543.818
 11
8.79161
 21
543.818
  0
LINE
  8
0
 10
14.7916
 20
503.818
 11
14.4
 21
503.961
  0
LINE
  8
0
 10
14.4
 20
503.961
 11
14.0807
 21
504.229
  0
LINE
  8
0
 10
14.0807
 20
504.229
 11
13.8724
 21
504.59
  0
LINE
  8
0
 10
13.8724
 20
504.59
 11
13.8
 21
505
  0
LINE
  8
0
 10
13.8
 20
505
 11
13.8724
 21
505.41
  0
LINE
  8
0
 10
13.8724
 20
505.41
 11
14.0807
 21
505.771
  0
LINE
  8
0
 10
14.0807
 20
505.771
 11
14.4
 21
506.039
  0
LINE
  8
0
 10
14.4
 20
506.039
 11
14.7916
 21
506.182
  0
LINE
  8
0
 10
14.7916
 20
506.182
 11
15.2084
 21
506.182
  0
LINE
  8
0
 10
15.2084
 20
506.182
 11
15.6
 21
506.039
  0
LINE
  8
0
 10
15.6
 20
506.039
 11
15.9193
 21
505.771
  0
LINE
  8
0
 10
15.9193
 20
505.771
 11
16.1276
 21
505.41
  0
LINE
  8
0
 10
16.1276
 20
505.41
 11
16.2
 21
505
  0
LINE
  8
0
 10
16.2
 20
505
 11
16.1276
 21
504.59
  0
LINE
  8
0
 10
16.1276
 20
504.59
 11
15.9193
 21
504.229
  0
LINE
  8
0
 10
15.9193
 20
504.229
 11
15.6
 21
503.961
  0
LINE
  8
0
 10
15.6
 20
503.961
 11
15.2084
 21
503.818
  0
LINE
  8
0
 10
15.2084
 20
503.818
 11
14.7916
 21
503.818
  0
LINE
  8
0
 10
12.7916
 20
495.818
 11
12.4
 21
495.961
  0
LINE
  8
0
 10
12.4
 20
495.961
 11
12.0807
 21
496.229
  0
LINE
  8
0
 10
12.0807
 20
496.229
 11
11.8724
 21
496.59
  0
LINE
  8
0
 10
11.8724
 20
496.59
 11
11.8
 21
497
  0
LINE
  8
0
 10
11.8
 20
497
 11
11.8724
 21
497.41
  0
LINE
  8
0
 10
11.8724
 20
497.41
 11
12.0807
 21
497.771
  0
LINE
  8
0
 10
12.0807
 20
497.771
 11
12.4
 21
498.039
  0
LINE
  8
0
 10
12.4
 20
498.039
 11
12.7916
 21
498.182
  0
LINE
  8
0
 10
12.7916
 20
498.182
 11
13.2084
 21
498.182
  0
LINE
  8
0
 10
13.2084
 20
498.182
 11
13.6
 21
498.039
  0
LINE
  8
0
 10
13.6
 20
498.039
 11
13.9193
 21
497.771
  0
LINE
  8
0
 10
13.9193
 20
497.771
 11
14.1276
 21
497.41
  0
LINE
  8
0
 10
14.1276
 20
497.41
 11
14.2
 21
497
  0
LINE
  8
0
 10
14.2
 20
497
 11
14.1276
 21
496.59
  0
LINE
  8
0
 10
14.1276
 20
496.59
 11
13.9193
 21
496.229
  0
LINE
  8
0
 10
13.9193
 20
496.229
 11
13.6
 21
495.961
  0
LINE
  8
0
 10
13.6
 20
495.961
 11
13.2084
 21
495.818
  0
LINE
  8
0
 10
13.2084
 20
495.818
 11
12.7916
 21
495.818
  0
LINE
  8
0
 10
10.7916
 20
487.818
 11
10.4
 21
487.961
  0
LINE
  8
0
 10
10.4
 20
487.961
 11
10.0807
 21
488.229
  0
LINE
  8
0
 10
10.0807
 20
488.229
 11
9.87236
 21
488.59
  0
LINE
  8
0
 10
9.87236
 20
488.59
 11
9.79999
 21
489
  0
LINE
  8
0
 10
9.79999
 20
489
 11
9.87236
 21
489.41
  0
LINE
  8
0
 10
9.87236
 20
489.41
 11
10.0807
 21
489.771
  0
LINE
  8
0
 10
10.0807
 20
489.771
 11
10.4
 21
490.039
  0
LINE
  8
0
 10
10.4
 20
490.039
 11
10.7916
 21
490.182
  0
LINE
  8
0
 10
10.7916
 20
490.182
 11
11.2084
 21
490.182
  0
LINE
  8
0
 10
11.2084
 20
490.182
 11
11.6
 21
490.039
  0
LINE
  8
0
 10
11.6
 20
490.039
 11
11.9193
 21
489.771
  0
LINE
  8
0
 10
11.9193
 20
489.771
 11
12.1276
 21
489.41
  0
LINE
  8
0
 10
12.1276
 20
489.41
 11
12.2
 21
489
  0
LINE
  8
0
 10
12.2
 20
489
 11
12.1276
 21
488.59
  0
LINE
  8
0
 10
12.1276
 20
488.59
 11
11.9193
 21
488.229
  0
LINE
  8
0
 10
11.9193
 20
488.229
 11
11.6
 21
487.961
  0
LINE
  8
0
 10
11.6
 20
487.961
 11
11.2084
 21
487.818
  0
LINE
  8
0
 10
11.2084
 20
487.818
 11
10.7916
 21
487.818
  0
LINE
  8
0
 10
8.79161
 20
479.818
 11
8.39999
 21
479.961
  0
LINE
  8
0
 10
8.39999
 20
479.961
 11
8.08073
 21
480.229
  0
LINE
  8
0
 10
8.08073
 20
480.229
 11
7.87236
 21
480.59
  0
LINE
  8
0
 10
7.87236
 20
480.59
 11
7.79999
 21
481
  0
LINE
  8
0
 10
7.79999
 20
481
 11
7.87236
 21
481.41
  0
LINE
  8
0
 10
7.87236
 20
481.41
 11
8.08073
 21
481.771
  0
LINE
  8
0
 10
8.08073
 20
481.771
 11
8.39999
 21
482.039
  0
LINE
  8
0
 10
8.39999
 20
482.039
 11
8.79161
 21
482.182
  0
LINE
  8
0
 10
8.79161
 20
482.182
 11
9.20837
 21
482.182
  0
LINE
  8
0
 10
9.20837
 20
482.182
 11
9.59999
 21
482.039
  0
LINE
  8
0
 10
9.59999
 20
482.039
 11
9.91925
 21
481.771
  0
LINE
  8
0
 10
9.91925
 20
481.771
 11
10.1276
 21
481.41
  0
LINE
  8
0
 10
10.1276
 20
481.41
 11
10.2
 21
481
  0
LINE
  8
0
 10
10.2
 20
481
 11
10.1276
 21
480.59
  0
LINE
  8
0
 10
10.1276
 20
480.59
 11
9.91925
 21
480.229
  0
LINE
  8
0
 10
9.91925
 20
480.229
 11
9.59999
 21
479.961
  0
LINE
  8
0
 10
9.59999
 20
479.961
 11
9.20837
 21
479.818
  0
LINE
  8
0
 10
9.20837
 20
479.818
 11
8.79161
 21
479.818
  0
LINE
  8
0
 10
14.7916
 20
471.818
 11
14.4
 21
471.961
  0
LINE
  8
0
 10
14.4
 20
471.961
 11
14.0807
 21
472.229
  0
LINE
  8
0
 10
14.0807
 20
472.229
 11
13.8724
 21
472.59
  0
LINE
  8
0
 10
13.8724
 20
472.59
 11
13.8
 21
473
  0
LINE
  8
0
 10
13.8
 20
473
 11
13.8724
 21
473.41
  0
LINE
  8
0
 10
13.8724
 20
473.41
 11
14.0807
 21
473.771
  0
LINE
  8
0
 10
14.0807
 20
473.771
 11
14.4
 21
474.039
  0
LINE
  8
0
 10
14.4
 20
474.039
 11
14.7916
 21
474.182
  0
LINE
  8
0
 10
14.7916
 20
474.182
 11
15.2084
 21
474.182
  0
LINE
  8
0
 10
15.2084
 20
474.182
 11
15.6
 21
474.039
  0
LINE
  8
0
 10
15.6
 20
474.039
 11
15.9193
 21
473.771
  0
LINE
  8
0
 10
15.9193
 20
473.771
 11
16.1276
 21
473.41
  0
LINE
  8
0
 10
16.1276
 20
473.41
 11
16.2
 21
473
  0
LINE
  8
0
 10
16.2
 20
473
 11
16.1276
 21
472.59
  0
LINE
  8
0
 10
16.1276
 20
472.59
 11
15.9193
 21
472.229
  0
LINE
  8
0
 10
15.9193
 20
472.229
 11
15.6
 21
471.961
  0
LINE
  8
0
 10
15.6
 20
471.961
 11
15.2084
 21
471.818
  0
LINE
  8
0
 10
15.2084
 20
471.818
 11
14.7916
 21
471.818
  0
LINE
  8
0
 10
14.7916
 20
463.818
 11
14.4
 21
463.961
  0
LINE
  8
0
 10
14.4
 20
463.961
 11
14.0807
 21
464.229
  0
LINE
  8
0
 10
14.0807
 20
464.229
 11
13.8724
 21
464.59
  0
LINE
  8
0
 10
13.8724
 20
464.59
 11
13.8
 21
465
  0
LINE
  8
0
 10
13.8
 20
465
 11
13.8724
 21
465.41
  0
LINE
  8
0
 10
13.8724
 20
465.41
 11
14.0807
 21
465.771
  0
LINE
  8
0
 10
14.0807
 20
465.771
 11
14.4
 21
466.039
  0
LINE
  8
0
 10
14.4
 20
466.039
 11
14.7916
 21
466.182
  0
LINE
  8
0
 10
14.7916
 20
466.182
 11
15.2084
 21
466.182
  0
LINE
  8
0
 10
15.2084
 20
466.182
 11
15.6
 21
466.039
  0
LINE
  8
0
 10
15.6
 20
466.039
 11
15.9193
 21
465.771
  0
LINE
  8
0
 10
15.9193
 20
465.771
 11
16.1276
 21
465.41
  0
LINE
  8
0
 10
16.1276
 20
465.41
 11
16.2
 21
465
  0
LINE
  8
0
 10
16.2
 20
465
 11
16.1276
 21
464.59
  0
LINE
  8
0
 10
16.1276
 20
464.59
 11
15.9193
 21
464.229
  0
LINE
  8
0
 10
15.9193
 20
464.229
 11
15.6
 21
463.961
  0
LINE
  8
0
 10
15.6
 20
463.961
 11
15.2084
 21
463.818
  0
LINE
  8
0
 10
15.2084
 20
463.818
 11
14.7916
 21
463.818
  0
LINE
  8
0
 10
12.7916
 20
439.818
 11
12.4
 21
439.961
  0
LINE
  8
0
 10
12.4
 20
439.961
 11
12.0807
 21
440.229
  0
LINE
  8
0
 10
12.0807
 20
440.229
 11
11.8724
 21
440.59
  0
LINE
  8
0
 10
11.8724
 20
440.59
 11
11.8
 21
441
  0
LINE
  8
0
 10
11.8
 20
441
 11
11.8724
 21
441.41
  0
LINE
  8
0
 10
11.8724
 20
441.41
 11
12.0807
 21
441.771
  0
LINE
  8
0
 10
12.0807
 20
441.771
 11
12.4
 21
442.039
  0
LINE
  8
0
 10
12.4
 20
442.039
 11
12.7916
 21
442.182
  0
LINE
  8
0
 10
12.7916
 20
442.182
 11
13.2084
 21
442.182
  0
LINE
  8
0
 10
13.2084
 20
442.182
 11
13.6
 21
442.039
  0
LINE
  8
0
 10
13.6
 20
442.039
 11
13.9193
 21
441.771
  0
LINE
  8
0
 10
13.9193
 20
441.771
 11
14.1276
 21
441.41
  0
LINE
  8
0
 10
14.1276
 20
441.41
 11
14.2
 21
441
  0
LINE
  8
0
 10
14.2
 20
441
 11
14.1276
 21
440.59
  0
LINE
  8
0
 10
14.1276
 20
440.59
 11
13.9193
 21
440.229
  0
LINE
  8
0
 10
13.9193
 20
440.229
 11
13.6
 21
439.961
  0
LINE
  8
0
 10
13.6
 20
439.961
 11
13.2084
 21
439.818
  0
LINE
  8
0
 10
13.2084
 20
439.818
 11
12.7916
 21
439.818
  0
LINE
  8
0
 10
10.7916
 20
415.818
 11
10.4
 21
415.961
  0
LINE
  8
0
 10
10.4
 20
415.961
 11
10.0807
 21
416.229
  0
LINE
  8
0
 10
10.0807
 20
416.229
 11
9.87236
 21
416.59
  0
LINE
  8
0
 10
9.87236
 20
416.59
 11
9.79999
 21
417
  0
LINE
  8
0
 10
9.79999
 20
417
 11
9.87236
 21
417.41
  0
LINE
  8
0
 10
9.87236
 20
417.41
 11
10.0807
 21
417.771
  0
LINE
  8
0
 10
10.0807
 20
417.771
 11
10.4
 21
418.039
  0
LINE
  8
0
 10
10.4
 20
418.039
 11
10.7916
 21
418.182
  0
LINE
  8
0
 10
10.7916
 20
418.182
 11
11.2084
 21
418.182
  0
LINE
  8
0
 10
11.2084
 20
418.182
 11
11.6
 21
418.039
  0
LINE
  8
0
 10
11.6
 20
418.039
 11
11.9193
 21
417.771
  0
LINE
  8
0
 10
11.9193
 20
417.771
 11
12.1276
 21
417.41
  0
LINE
  8
0
 10
12.1276
 20
417.41
 11
12.2
 21
417
  0
LINE
  8
0
 10
12.2
 20
417
 11
12.1276
 21
416.59
  0
LINE
  8
0
 10
12.1276
 20
416.59
 11
11.9193
 21
416.229
  0
LINE
  8
0
 10
11.9193
 20
416.229
 11
11.6
 21
415.961
  0
LINE
  8
0
 10
11.6
 20
415.961
 11
11.2084
 21
415.818
  0
LINE
  8
0
 10
11.2084
 20
415.818
 11
10.7916
 21
415.818
  0
LINE
  8
0
 10
10.7916
 20
407.818
 11
10.4
 21
407.961
  0
LINE
  8
0
 10
10.4
 20
407.961
 11
10.0807
 21
408.229
  0
LINE
  8
0
 10
10.0807
 20
408.229
 11
9.87236
 21
408.59
  0
LINE
  8
0
 10
9.87236
 20
408.59
 11
9.79999
 21
409
  0
LINE
  8
0
 10
9.79999
 20
409
 11
9.87236
 21
409.41
  0
LINE
  8
0
 10
9.87236
 20
409.41
 11
10.0807
 21
409.771
  0
LINE
  8
0
 10
10.0807
 20
409.771
 11
10.4
 21
410.039
  0
LINE
  8
0
 10
10.4
 20
410.039
 11
10.7916
 21
410.182
  0
LINE
  8
0
 10
10.7916
 20
410.182
 11
11.2084
 21
410.182
  0
LINE
  8
0
 10
11.2084
 20
410.182
 11
11.6
 21
410.039
  0
LINE
  8
0
 10
11.6
 20
410.039
 11
11.9193
 21
409.771
  0
LINE
  8
0
 10
11.9193
 20
409.771
 11
12.1276
 21
409.41
  0
LINE
  8
0
 10
12.1276
 20
409.41
 11
12.2
 21
409
  0
LINE
  8
0
 10
12.2
 20
409
 11
12.1276
 21
408.59
  0
LINE
  8
0
 10
12.1276
 20
408.59
 11
11.9193
 21
408.229
  0
LINE
  8
0
 10
11.9193
 20
408.229
 11
11.6
 21
407.961
  0
LINE
  8
0
 10
11.6
 20
407.961
 11
11.2084
 21
407.818
  0
LINE
  8
0
 10
11.2084
 20
407.818
 11
10.7916
 21
407.818
  0
LINE
  8
0
 10
8.79161
 20
383.818
 11
8.39999
 21
383.961
  0
LINE
  8
0
 10
8.39999
 20
383.961
 11
8.08073
 21
384.229
  0
LINE
  8
0
 10
8.08073
 20
384.229
 11
7.87236
 21
384.59
  0
LINE
  8
0
 10
7.87236
 20
384.59
 11
7.79999
 21
385
  0
LINE
  8
0
 10
7.79999
 20
385
 11
7.87236
 21
385.41
  0
LINE
  8
0
 10
7.87236
 20
385.41
 11
8.08073
 21
385.771
  0
LINE
  8
0
 10
8.08073
 20
385.771
 11
8.39999
 21
386.039
  0
LINE
  8
0
 10
8.39999
 20
386.039
 11
8.79161
 21
386.182
  0
LINE
  8
0
 10
8.79161
 20
386.182
 11
9.20837
 21
386.182
  0
LINE
  8
0
 10
9.20837
 20
386.182
 11
9.59999
 21
386.039
  0
LINE
  8
0
 10
9.59999
 20
386.039
 11
9.91925
 21
385.771
  0
LINE
  8
0
 10
9.91925
 20
385.771
 11
10.1276
 21
385.41
  0
LINE
  8
0
 10
10.1276
 20
385.41
 11
10.2
 21
385
  0
LINE
  8
0
 10
10.2
 20
385
 11
10.1276
 21
384.59
  0
LINE
  8
0
 10
10.1276
 20
384.59
 11
9.91925
 21
384.229
  0
LINE
  8
0
 10
9.91925
 20
384.229
 11
9.59999
 21
383.961
  0
LINE
  8
0
 10
9.59999
 20
383.961
 11
9.20837
 21
383.818
  0
LINE
  8
0
 10
9.20837
 20
383.818
 11
8.79161
 21
383.818
  0
LINE
  8
0
 10
14.7916
 20
375.818
 11
14.4
 21
375.961
  0
LINE
  8
0
 10
14.4
 20
375.961
 11
14.0807
 21
376.229
  0
LINE
  8
0
 10
14.0807
 20
376.229
 11
13.8724
 21
376.59
  0
LINE
  8
0
 10
13.8724
 20
376.59
 11
13.8
 21
377
  0
LINE
  8
0
 10
13.8
 20
377
 11
13.8724
 21
377.41
  0
LINE
  8
0
 10
13.8724
 20
377.41
 11
14.0807
 21
377.771
  0
LINE
  8
0
 10
14.0807
 20
377.771
 11
14.4
 21
378.039
  0
LINE
  8
0
 10
14.4
 20
378.039
 11
14.7916
 21
378.182
  0
LINE
  8
0
 10
14.7916
 20
378.182
 11
15.2084
 21
378.182
  0
LINE
  8
0
 10
15.2084
 20
378.182
 11
15.6
 21
378.039
  0
LINE
  8
0
 10
15.6
 20
378.039
 11
15.9193
 21
377.771
  0
LINE
  8
0
 10
15.9193
 20
377.771
 11
16.1276
 21
377.41
  0
LINE
  8
0
 10
16.1276
 20
377.41
 11
16.2
 21
377
  0
LINE
  8
0
 10
16.2
 20
377
 11
16.1276
 21
376.59
  0
LINE
  8
0
 10
16.1276
 20
376.59
 11
15.9193
 21
376.229
  0
LINE
  8
0
 10
15.9193
 20
376.229
 11
15.6
 21
375.961
  0
LINE
  8
0
 10
15.6
 20
375.961
 11
15.2084
 21
375.818
  0
LINE
  8
0
 10
15.2084
 20
375.818
 11
14.7916
 21
375.818
  0
LINE
  8
0
 10
12.7916
 20
367.818
 11
12.4
 21
367.961
  0
LINE
  8
0
 10
12.4
 20
367.961
 11
12.0807
 21
368.229
  0
LINE
  8
0
 10
12.0807
 20
368.229
 11
11.8724
 21
368.59
  0
LINE
  8
0
 10
11.8724
 20
368.59
 11
11.8
 21
369
  0
LINE
  8
0
 10
11.8
 20
369
 11
11.8724
 21
369.41
  0
LINE
  8
0
 10
11.8724
 20
369.41
 11
12.0807
 21
369.771
  0
LINE
  8
0
 10
12.0807
 20
369.771
 11
12.4
 21
370.039
  0
LINE
  8
0
 10
12.4
 20
370.039
 11
12.7916
 21
370.182
  0
LINE
  8
0
 10
12.7916
 20
370.182
 11
13.2084
 21
370.182
  0
LINE
  8
0
 10
13.2084
 20
370.182
 11
13.6
 21
370.039
  0
LINE
  8
0
 10
13.6
 20
370.039
 11
13.9193
 21
369.771
  0
LINE
  8
0
 10
13.9193
 20
369.771
 11
14.1276
 21
369.41
  0
LINE
  8
0
 10
14.1276
 20
369.41
 11
14.2
 21
369
  0
LINE
  8
0
 10
14.2
 20
369
 11
14.1276
 21
368.59
  0
LINE
  8
0
 10
14.1276
 20
368.59
 11
13.9193
 21
368.229
  0
LINE
  8
0
 10
13.9193
 20
368.229
 11
13.6
 21
367.961
  0
LINE
  8
0
 10
13.6
 20
367.961
 11
13.2084
 21
367.818
  0
LINE
  8
0
 10
13.2084
 20
367.818
 11
12.7916
 21
367.818
  0
LINE
  8
0
 10
10.7916
 20
359.818
 11
10.4
 21
359.961
  0
LINE
  8
0
 10
10.4
 20
359.961
 11
10.0807
 21
360.229
  0
LINE
  8
0
 10
10.0807
 20
360.229
 11
9.87236
 21
360.59
  0
LINE
  8
0
 10
9.87236
 20
360.59
 11
9.79999
 21
361
  0
LINE
  8
0
 10
9.79999
 20
361
 11
9.87236
 21
361.41
  0
LINE
  8
0
 10
9.87236
 20
361.41
 11
10.0807
 21
361.771
  0
LINE
  8
0
 10
10.0807
 20
361.771
 11
10.4
 21
362.039
  0
LINE
  8
0
 10
10.4
 20
362.039
 11
10.7916
 21
362.182
  0
LINE
  8
0
 10
10.7916
 20
362.182
 11
11.2084
 21
362.182
  0
LINE
  8
0
 10
11.2084
 20
362.182
 11
11.6
 21
362.039
  0
LINE
  8
0
 10
11.6
 20
362.039
 11
11.9193
 21
361.771
  0
LINE
  8
0
 10
11.9193
 20
361.771
 11
12.1276
 21
361.41
  0
LINE
  8
0
 10
12.1276
 20
361.41
 11
12.2
 21
361
  0
LINE
  8
0
 10
12.2
 20
361
 11
12.1276
 21
360.59
  0
LINE
  8
0
 10
12.1276
 20
360.59
 11
11.9193
 21
360.229
  0
LINE
  8
0
 10
11.9193
 20
360.229
 11
11.6
 21
359.961
  0
LINE
  8
0
 10
11.6
 20
359.961
 11
11.2084
 21
359.818
  0
LINE
  8
0
 10
11.2084
 20
359.818
 11
10.7916
 21
359.818
  0
LINE
  8
0
 10
8.79161
 20
351.818
 11
8.39999
 21
351.961
  0
LINE
  8
0
 10
8.39999
 20
351.961
 11
8.08073
 21
352.229
  0
LINE
  8
0
 10
8.08073
 20
352.229
 11
7.87236
 21
352.59
  0
LINE
  8
0
 10
7.87236
 20
352.59
 11
7.79999
 21
353
  0
LINE
  8
0
 10
7.79999
 20
353
 11
7.87236
 21
353.41
  0
LINE
  8
0
 10
7.87236
 20
353.41
 11
8.08073
 21
353.771
  0
LINE
  8
0
 10
8.08073
 20
353.771
 11
8.39999
 21
354.039
  0
LINE
  8
0
 10
8.39999
 20
354.039
 11
8.79161
 21
354.182
  0
LINE
  8
0
 10
8.79161
 20
354.182
 11
9.20837
 21
354.182
  0
LINE
  8
0
 10
9.20837
 20
354.182
 11
9.59999
 21
354.039
  0
LINE
  8
0
 10
9.59999
 20
354.039
 11
9.91925
 21
353.771
  0
LINE
  8
0
 10
9.91925
 20
353.771
 11
10.1276
 21
353.41
  0
LINE
  8
0
 10
10.1276
 20
353.41
 11
10.2
 21
353
  0
LINE
  8
0
 10
10.2
 20
353
 11
10.1276
 21
352.59
  0
LINE
  8
0
 10
10.1276
 20
352.59
 11
9.91925
 21
352.229
  0
LINE
  8
0
 10
9.91925
 20
352.229
 11
9.59999
 21
351.961
  0
LINE
  8
0
 10
9.59999
 20
351.961
 11
9.20837
 21
351.818
  0
LINE
  8
0
 10
9.20837
 20
351.818
 11
8.79161
 21
351.818
  0
LINE
  8
0
 10
14.7916
 20
343.818
 11
14.4
 21
343.961
  0
LINE
  8
0
 10
14.4
 20
343.961
 11
14.0807
 21
344.229
  0
LINE
  8
0
 10
14.0807
 20
344.229
 11
13.8724
 21
344.59
  0
LINE
  8
0
 10
13.8724
 20
344.59
 11
13.8
 21
345
  0
LINE
  8
0
 10
13.8
 20
345
 11
13.8724
 21
345.41
  0
LINE
  8
0
 10
13.8724
 20
345.41
 11
14.0807
 21
345.771
  0
LINE
  8
0
 10
14.0807
 20
345.771
 11
14.4
 21
346.039
  0
LINE
  8
0
 10
14.4
 20
346.039
 11
14.7916
 21
346.182
  0
LINE
  8
0
 10
14.7916
 20
346.182
 11
15.2084
 21
346.182
  0
LINE
  8
0
 10
15.2084
 20
346.182
 11
15.6
 21
346.039
  0
LINE
  8
0
 10
15.6
 20
346.039
 11
15.9193
 21
345.771
  0
LINE
  8
0
 10
15.9193
 20
345.771
 11
16.1276
 21
345.41
  0
LINE
  8
0
 10
16.1276
 20
345.41
 11
16.2
 21
345
  0
LINE
  8
0
 10
16.2
 20
345
 11
16.1276
 21
344.59
  0
LINE
  8
0
 10
16.1276
 20
344.59
 11
15.9193
 21
344.229
  0
LINE
  8
0
 10
15.9193
 20
344.229
 11
15.6
 21
343.961
  0
LINE
  8
0
 10
15.6
 20
343.961
 11
15.2084
 21
343.818
  0
LINE
  8
0
 10
15.2084
 20
343.818
 11
14.7916
 21
343.818
  0
LINE
  8
0
 10
14.7916
 20
335.818
 11
14.4
 21
335.961
  0
LINE
  8
0
 10
14.4
 20
335.961
 11
14.0807
 21
336.229
  0
LINE
  8
0
 10
14.0807
 20
336.229
 11
13.8724
 21
336.59
  0
LINE
  8
0
 10
13.8724
 20
336.59
 11
13.8
 21
337
  0
LINE
  8
0
 10
13.8
 20
337
 11
13.8724
 21
337.41
  0
LINE
  8
0
 10
13.8724
 20
337.41
 11
14.0807
 21
337.771
  0
LINE
  8
0
 10
14.0807
 20
337.771
 11
14.4
 21
338.039
  0
LINE
  8
0
 10
14.4
 20
338.039
 11
14.7916
 21
338.182
  0
LINE
  8
0
 10
14.7916
 20
338.182
 11
15.2084
 21
338.182
  0
LINE
  8
0
 10
15.2084
 20
338.182
 11
15.6
 21
338.039
  0
LINE
  8
0
 10
15.6
 20
338.039
 11
15.9193
 21
337.771
  0
LINE
  8
0
 10
15.9193
 20
337.771
 11
16.1276
 21
337.41
  0
LINE
  8
0
 10
16.1276
 20
337.41
 11
16.2
 21
337
  0
LINE
  8
0
 10
16.2
 20
337
 11
16.1276
 21
336.59
  0
LINE
  8
0
 10
16.1276
 20
336.59
 11
15.9193
 21
336.229
  0
LINE
  8
0
 10
15.9193
 20
336.229
 11
15.6
 21
335.961
  0
LINE
  8
0
 10
15.6
 20
335.961
 11
15.2084
 21
335.818
  0
LINE
  8
0
 10
15.2084
 20
335.818
 11
14.7916
 21
335.818
  0
LINE
  8
0
 10
10.7916
 20
287.818
 11
10.4
 21
287.961
  0
LINE
  8
0
 10
10.4
 20
287.961
 11
10.0807
 21
288.229
  0
LINE
  8
0
 10
10.0807
 20
288.229
 11
9.87236
 21
288.59
  0
LINE
  8
0
 10
9.87236
 20
288.59
 11
9.79999
 21
289
  0
LINE
  8
0
 10
9.79999
 20
289
 11
9.87236
 21
289.41
  0
LINE
  8
0
 10
9.87236
 20
289.41
 11
10.0807
 21
289.771
  0
LINE
  8
0
 10
10.0807
 20
289.771
 11
10.4
 21
290.039
  0
LINE
  8
0
 10
10.4
 20
290.039
 11
10.7916
 21
290.182
  0
LINE
  8
0
 10
10.7916
 20
290.182
 11
11.2084
 21
290.182
  0
LINE
  8
0
 10
11.2084
 20
290.182
 11
11.6
 21
290.039
  0
LINE
  8
0
 10
11.6
 20
290.039
 11
11.9193
 21
289.771
  0
LINE
  8
0
 10
11.9193
 20
289.771
 11
12.1276
 21
289.41
  0
LINE
  8
0
 10
12.1276
 20
289.41
 11
12.2
 21
289
  0
LINE
  8
0
 10
12.2
 20
289
 11
12.1276
 21
288.59
  0
LINE
  8
0
 10
12.1276
 20
288.59
 11
11.9193
 21
288.229
  0
LINE
  8
0
 10
11.9193
 20
288.229
 11
11.6
 21
287.961
  0
LINE
  8
0
 10
11.6
 20
287.961
 11
11.2084
 21
287.818
  0
LINE
  8
0
 10
11.2084
 20
287.818
 11
10.7916
 21
287.818
  0
LINE
  8
0
 10
10.7916
 20
279.818
 11
10.4
 21
279.961
  0
LINE
  8
0
 10
10.4
 20
279.961
 11
10.0807
 21
280.229
  0
LINE
  8
0
 10
10.0807
 20
280.229
 11
9.87236
 21
280.59
  0
LINE
  8
0
 10
9.87236
 20
280.59
 11
9.79999
 21
281
  0
LINE
  8
0
 10
9.79999
 20
281
 11
9.87236
 21
281.41
  0
LINE
  8
0
 10
9.87236
 20
281.41
 11
10.0807
 21
281.771
  0
LINE
  8
0
 10
10.0807
 20
281.771
 11
10.4
 21
282.039
  0
LINE
  8
0
 10
10.4
 20
282.039
 11
10.7916
 21
282.182
  0
LINE
  8
0
 10
10.7916
 20
282.182
 11
11.2084
 21
282.182
  0
LINE
  8
0
 10
11.2084
 20
282.182
 11
11.6
 21
282.039
  0
LINE
  8
0
 10
11.6
 20
282.039
 11
11.9193
 21
281.771
  0
LINE
  8
0
 10
11.9193
 20
281.771
 11
12.1276
 21
281.41
  0
LINE
  8
0
 10
12.1276
 20
281.41
 11
12.2
 21
281
  0
LINE
  8
0
 10
12.2
 20
281
 11
12.1276
 21
280.59
  0
LINE
  8
0
 10
12.1276
 20
280.59
 11
11.9193
 21
280.229
  0
LINE
  8
0
 10
11.9193
 20
280.229
 11
11.6
 21
279.961
  0
LINE
  8
0
 10
11.6
 20
279.961
 11
11.2084
 21
279.818
  0
LINE
  8
0
 10
11.2084
 20
279.818
 11
10.7916
 21
279.818
  0
LINE
  8
0
 10
8.79161
 20
255.818
 11
8.39999
 21
255.961
  0
LINE
  8
0
 10
8.39999
 20
255.961
 11
8.08073
 21
256.229
  0
LINE
  8
0
 10
8.08073
 20
256.229
 11
7.87236
 21
256.59
  0
LINE
  8
0
 10
7.87236
 20
256.59
 11
7.79999
 21
257
  0
LINE
  8
0
 10
7.79999
 20
257
 11
7.87236
 21
257.41
  0
LINE
  8
0
 10
7.87236
 20
257.41
 11
8.08073
 21
257.771
  0
LINE
  8
0
 10
8.08073
 20
257.771
 11
8.39999
 21
258.039
  0
LINE
  8
0
 10
8.39999
 20
258.039
 11
8.79161
 21
258.182
  0
LINE
  8
0
 10
8.79161
 20
258.182
 11
9.20837
 21
258.182
  0
LINE
  8
0
 10
9.20837
 20
258.182
 11
9.59999
 21
258.039
  0
LINE
  8
0
 10
9.59999
 20
258.039
 11
9.91925
 21
257.771
  0
LINE
  8
0
 10
9.91925
 20
257.771
 11
10.1276
 21
257.41
  0
LINE
  8
0
 10
10.1276
 20
257.41
 11
10.2
 21
257
  0
LINE
  8
0
 10
10.2
 20
257
 11
10.1276
 21
256.59
  0
LINE
  8
0
 10
10.1276
 20
256.59
 11
9.91925
 21
256.229
  0
LINE
  8
0
 10
9.91925
 20
256.229
 11
9.59999
 21
255.961
  0
LINE
  8
0
 10
9.59999
 20
255.961
 11
9.20837
 21
255.818
  0
LINE
  8
0
 10
9.20837
 20
255.818
 11
8.79161
 21
255.818
  0
LINE
  8
0
 10
14.7916
 20
247.818
 11
14.4
 21
247.961
  0
LINE
  8
0
 10
14.4
 20
247.961
 11
14.0807
 21
248.229
  0
LINE
  8
0
 10
14.0807
 20
248.229
 11
13.8724
 21
248.59
  0
LINE
  8
0
 10
13.8724
 20
248.59
 11
13.8
 21
249
  0
LINE
  8
0
 10
13.8
 20
249
 11
13.8724
 21
249.41
  0
LINE
  8
0
 10
13.8724
 20
249.41
 11
14.0807
 21
249.771
  0
LINE
  8
0
 10
14.0807
 20
249.771
 11
14.4
 21
250.039
  0
LINE
  8
0
 10
14.4
 20
250.039
 11
14.7916
 21
250.182
  0
LINE
  8
0
 10
14.7916
 20
250.182
 11
15.2084
 21
250.182
  0
LINE
  8
0
 10
15.2084
 20
250.182
 11
15.6
 21
250.039
  0
LINE
  8
0
 10
15.6
 20
250.039
 11
15.9193
 21
249.771
  0
LINE
  8
0
 10
15.9193
 20
249.771
 11
16.1276
 21
249.41
  0
LINE
  8
0
 10
16.1276
 20
249.41
 11
16.2
 21
249
  0
LINE
  8
0
 10
16.2
 20
249
 11
16.1276
 21
248.59
  0
LINE
  8
0
 10
16.1276
 20
248.59
 11
15.9193
 21
248.229
  0
LINE
  8
0
 10
15.9193
 20
248.229
 11
15.6
 21
247.961
  0
LINE
  8
0
 10
15.6
 20
247.961
 11
15.2084
 21
247.818
  0
LINE
  8
0
 10
15.2084
 20
247.818
 11
14.7916
 21
247.818
  0
LINE
  8
0
 10
12.7916
 20
239.818
 11
12.4
 21
239.961
  0
LINE
  8
0
 10
12.4
 20
239.961
 11
12.0807
 21
240.229
  0
LINE
  8
0
 10
12.0807
 20
240.229
 11
11.8724
 21
240.59
  0
LINE
  8
0
 10
11.8724
 20
240.59
 11
11.8
 21
241
  0
LINE
  8
0
 10
11.8
 20
241
 11
11.8724
 21
241.41
  0
LINE
  8
0
 10
11.8724
 20
241.41
 11
12.0807
 21
241.771
  0
LINE
  8
0
 10
12.0807
 20
241.771
 11
12.4
 21
242.039
  0
LINE
  8
0
 10
12.4
 20
242.039
 11
12.7916
 21
242.182
  0
LINE
  8
0
 10
12.7916
 20
242.182
 11
13.2084
 21
242.182
  0
LINE
  8
0
 10
13.2084
 20
242.182
 11
13.6
 21
242.039
  0
LINE
  8
0
 10
13.6
 20
242.039
 11
13.9193
 21
241.771
  0
LINE
  8
0
 10
13.9193
 20
241.771
 11
14.1276
 21
241.41
  0
LINE
  8
0
 10
14.1276
 20
241.41
 11
14.2
 21
241
  0
LINE
  8
0
 10
14.2
 20
241
 11
14.1276
 21
240.59
  0
LINE
  8
0
 10
14.1276
 20
240.59
 11
13.9193
 21
240.229
  0
LINE
  8
0
 10
13.9193
 20
240.229
 11
13.6
 21
239.961
  0
LINE
  8
0
 10
13.6
 20
239.961
 11
13.2084
 21
239.818
  0
LINE
  8
0
 10
13.2084
 20
239.818
 11
12.7916
 21
239.818
  0
LINE
  8
0
 10
10.7916
 20
231.818
 11
10.4
 21
231.961
  0
LINE
  8
0
 10
10.4
 20
231.961
 11
10.0807
 21
232.229
  0
LINE
  8
0
 10
10.0807
 20
232.229
 11
9.87236
 21
232.59
  0
LINE
  8
0
 10
9.87236
 20
232.59
 11
9.79999
 21
233
  0
LINE
  8
0
 10
9.79999
 20
233
 11
9.87236
 21
233.41
  0
LINE
  8
0
 10
9.87236
 20
233.41
 11
10.0807
 21
233.771
  0
LINE
  8
0
 10
10.0807
 20
233.771
 11
10.4
 21
234.039
  0
LINE
  8
0
 10
10.4
 20
234.039
 11
10.7916
 21
234.182
  0
LINE
  8
0
 10
10.7916
 20
234.182
 11
11.2084
 21
234.182
  0
LINE
  8
0
 10
11.2084
 20
234.182
 11
11.6
 21
234.039
  0
LINE
  8
0
 10
11.6
 20
234.039
 11
11.9193
 21
233.771
  0
LINE
  8
0
 10
11.9193
 20
233.771
 11
12.1276
 21
233.41
  0
LINE
  8
0
 10
12.1276
 20
233.41
 11
12.2
 21
233
  0
LINE
  8
0
 10
12.2
 20
233
 11
12.1276
 21
232.59
  0
LINE
  8
0
 10
12.1276
 20
232.59
 11
11.9193
 21
232.229
  0
LINE
  8
0
 10
11.9193
 20
232.229
 11
11.6
 21
231.961
  0
LINE
  8
0
 10
11.6
 20
231.961
 11
11.2084
 21
231.818
  0
LINE
  8
0
 10
11.2084
 20
231.818
 11
10.7916
 21
231.818
  0
LINE
  8
0
 10
8.79161
 20
223.818
 11
8.39999
 21
223.961
  0
LINE
  8
0
 10
8.39999
 20
223.961
 11
8.08073
 21
224.229
  0
LINE
  8
0
 10
8.08073
 20
224.229
 11
7.87236
 21
224.59
  0
LINE
  8
0
 10
7.87236
 20
224.59
 11
7.79999
 21
225
  0
LINE
  8
0
 10
7.79999
 20
225
 11
7.87236
 21
225.41
  0
LINE
  8
0
 10
7.87236
 20
225.41
 11
8.08073
 21
225.771
  0
LINE
  8
0
 10
8.08073
 20
225.771
 11
8.39999
 21
226.039
  0
LINE
  8
0
 10
8.39999
 20
226.039
 11
8.79161
 21
226.182
  0
LINE
  8
0
 10
8.79161
 20
226.182
 11
9.20837
 21
226.182
  0
LINE
  8
0
 10
9.20837
 20
226.182
 11
9.59999
 21
226.039
  0
LINE
  8
0
 10
9.59999
 20
226.039
 11
9.91925
 21
225.771
  0
LINE
  8
0
 10
9.91925
 20
225.771
 11
10.1276
 21
225.41
  0
LINE
  8
0
 10
10.1276
 20
225.41
 11
10.2
 21
225
  0
LINE
  8
0
 10
10.2
 20
225
 11
10.1276
 21
224.59
  0
LINE
  8
0
 10
10.1276
 20
224.59
 11
9.91925
 21
224.229
  0
LINE
  8
0
 10
9.91925
 20
224.229
 11
9.59999
 21
223.961
  0
LINE
  8
0
 10
9.59999
 20
223.961
 11
9.20837
 21
223.818
  0
LINE
  8
0
 10
9.20837
 20
223.818
 11
8.79161
 21
223.818
  0
LINE
  8
0
 10
14.7916
 20
215.818
 11
14.4
 21
215.961
  0
LINE
  8
0
 10
14.4
 20
215.961
 11
14.0807
 21
216.229
  0
LINE
  8
0
 10
14.0807
 20
216.229
 11
13.8724
 21
216.59
  0
LINE
  8
0
 10
13.8724
 20
216.59
 11
13.8
 21
217
  0
LINE
  8
0
 10
13.8
 20
217
 11
13.8724
 21
217.41
  0
LINE
  8
0
 10
13.8724
 20
217.41
 11
14.0807
 21
217.771
  0
LINE
  8
0
 10
14.0807
 20
217.771
 11
14.4
 21
218.039
  0
LINE
  8
0
 10
14.4
 20
218.039
 11
14.7916
 21
218.182
  0
LINE
  8
0
 10
14.7916
 20
218.182
 11
15.2084
 21
218.182
  0
LINE
  8
0
 10
15.2084
 20
218.182
 11
15.6
 21
218.039
  0
LINE
  8
0
 10
15.6
 20
218.039
 11
15.9193
 21
217.771
  0
LINE
  8
0
 10
15.9193
 20
217.771
 11
16.1276
 21
217.41
  0
LINE
  8
0
 10
16.1276
 20
217.41
 11
16.2
 21
217
  0
LINE
  8
0
 10
16.2
 20
217
 11
16.1276
 21
216.59
  0
LINE
  8
0
 10
16.1276
 20
216.59
 11
15.9193
 21
216.229
  0
LINE
  8
0
 10
15.9193
 20
216.229
 11
15.6
 21
215.961
  0
LINE
  8
0
 10
15.6
 20
215.961
 11
15.2084
 21
215.818
  0
LINE
  8
0
 10
15.2084
 20
215.818
 11
14.7916
 21
215.818
  0
LINE
  8
0
 10
12.7916
 20
183.818
 11
12.4
 21
183.961
  0
LINE
  8
0
 10
12.4
 20
183.961
 11
12.0807
 21
184.229
  0
LINE
  8
0
 10
12.0807
 20
184.229
 11
11.8724
 21
184.59
  0
LINE
  8
0
 10
11.8724
 20
184.59
 11
11.8
 21
185
  0
LINE
  8
0
 10
11.8
 20
185
 11
11.8724
 21
185.41
  0
LINE
  8
0
 10
11.8724
 20
185.41
 11
12.0807
 21
185.771
  0
LINE
  8
0
 10
12.0807
 20
185.771
 11
12.4
 21
186.039
  0
LINE
  8
0
 10
12.4
 20
186.039
 11
12.7916
 21
186.182
  0
LINE
  8
0
 10
12.7916
 20
186.182
 11
13.2084
 21
186.182
  0
LINE
  8
0
 10
13.2084
 20
186.182
 11
13.6
 21
186.039
  0
LINE
  8
0
 10
13.6
 20
186.039
 11
13.9193
 21
185.771
  0
LINE
  8
0
 10
13.9193
 20
185.771
 11
14.1276
 21
185.41
  0
LINE
  8
0
 10
14.1276
 20
185.41
 11
14.2
 21
185
  0
LINE
  8
0
 10
14.2
 20
185
 11
14.1276
 21
184.59
  0
LINE
  8
0
 10
14.1276
 20
184.59
 11
13.9193
 21
184.229
  0
LINE
  8
0
 10
13.9193
 20
184.229
 11
13.6
 21
183.961
  0
LINE
  8
0
 10
13.6
 20
183.961
 11
13.2084
 21
183.818
  0
LINE
  8
0
 10
13.2084
 20
183.818
 11
12.7916
 21
183.818
  0
LINE
  8
0
 10
10.7916
 20
159.818
 11
10.4
 21
159.961
  0
LINE
  8
0
 10
10.4
 20
159.961
 11
10.0807
 21
160.229
  0
LINE
  8
0
 10
10.0807
 20
160.229
 11
9.87236
 21
160.59
  0
LINE
  8
0
 10
9.87236
 20
160.59
 11
9.79999
 21
161
  0
LINE
  8
0
 10
9.79999
 20
161
 11
9.87236
 21
161.41
  0
LINE
  8
0
 10
9.87236
 20
161.41
 11
10.0807
 21
161.771
  0
LINE
  8
0
 10
10.0807
 20
161.771
 11
10.4
 21
162.039
  0
LINE
  8
0
 10
10.4
 20
162.039
 11
10.7916
 21
162.182
  0
LINE
  8
0
 10
10.7916
 20
162.182
 11
11.2084
 21
162.182
  0
LINE
  8
0
 10
11.2084
 20
162.182
 11
11.6
 21
162.039
  0
LINE
  8
0
 10
11.6
 20
162.039
 11
11.9193
 21
161.771
  0
LINE
  8
0
 10
11.9193
 20
161.771
 11
12.1276
 21
161.41
  0
LINE
  8
0
 10
12.1276
 20
161.41
 11
12.2
 21
161
  0
LINE
  8
0
 10
12.2
 20
161
 11
12.1276
 21
160.59
  0
LINE
  8
0
 10
12.1276
 20
160.59
 11
11.9193
 21
160.229
  0
LINE
  8
0
 10
11.9193
 20
160.229
 11
11.6
 21
159.961
  0
LINE
  8
0
 10
11.6
 20
159.961
 11
11.2084
 21
159.818
  0
LINE
  8
0
 10
11.2084
 20
159.818
 11
10.7916
 21
159.818
  0
LINE
  8
0
 10
10.7916
 20
151.818
 11
10.4
 21
151.961
  0
LINE
  8
0
 10
10.4
 20
151.961
 11
10.0807
 21
152.229
  0
LINE
  8
0
 10
10.0807
 20
152.229
 11
9.87236
 21
152.59
  0
LINE
  8
0
 10
9.87236
 20
152.59
 11
9.79999
 21
153
  0
LINE
  8
0
 10
9.79999
 20
153
 11
9.87236
 21
153.41
  0
LINE
  8
0
 10
9.87236
 20
153.41
 11
10.0807
 21
153.771
  0
LINE
  8
0
 10
10.0807
 20
153.771
 11
10.4
 21
154.039
  0
LINE
  8
0
 10
10.4
 20
154.039
 11
10.7916
 21
154.182
  0
LINE
  8
0
 10
10.7916
 20
154.182
 11
11.2084
 21
154.182
  0
LINE
  8
0
 10
11.2084
 20
154.182
 11
11.6
 21
154.039
  0
LINE
  8
0
 10
11.6
 20
154.039
 11
11.9193
 21
153.771
  0
LINE
  8
0
 10
11.9193
 20
153.771
 11
12.1276
 21
153.41
  0
LINE
  8
0
 10
12.1276
 20
153.41
 11
12.2
 21
153
  0
LINE
  8
0
 10
12.2
 20
153
 11
12.1276
 21
152.59
  0
LINE
  8
0
 10
12.1276
 20
152.59
 11
11.9193
 21
152.229
  0
LINE
  8
0
 10
11.9193
 20
152.229
 11
11.6
 21
151.961
  0
LINE
  8
0
 10
11.6
 20
151.961
 11
11.2084
 21
151.818
  0
LINE
  8
0
 10
11.2084
 20
151.818
 11
10.7916
 21
151.818
  0
LINE
  8
0
 10
8.79161
 20
127.818
 11
8.39999
 21
127.961
  0
LINE
  8
0
 10
8.39999
 20
127.961
 11
8.08073
 21
128.229
  0
LINE
  8
0
 10
8.08073
 20
128.229
 11
7.87236
 21
128.59
  0
LINE
  8
0
 10
7.87236
 20
128.59
 11
7.79999
 21
129
  0
LINE
  8
0
 10
7.79999
 20
129
 11
7.87236
 21
129.41
  0
LINE
  8
0
 10
7.87236
 20
129.41
 11
8.08073
 21
129.771
  0
LINE
  8
0
 10
8.08073
 20
129.771
 11
8.39999
 21
130.039
  0
LINE
  8
0
 10
8.39999
 20
130.039
 11
8.79161
 21
130.182
  0
LINE
  8
0
 10
8.79161
 20
130.182
 11
9.20837
 21
130.182
  0
LINE
  8
0
 10
9.20837
 20
130.182
 11
9.59999
 21
130.039
  0
LINE
  8
0
 10
9.59999
 20
130.039
 11
9.91925
 21
129.771
  0
LINE
  8
0
 10
9.91925
 20
129.771
 11
10.1276
 21
129.41
  0
LINE
  8
0
 10
10.1276
 20
129.41
 11
10.2
 21
129
  0
LINE
  8
0
 10
10.2
 20
129
 11
10.1276
 21
128.59
  0
LINE
  8
0
 10
10.1276
 20
128.59
 11
9.91925
 21
128.229
  0
LINE
  8
0
 10
9.91925
 20
128.229
 11
9.59999
 21
127.961
  0
LINE
  8
0
 10
9.59999
 20
127.961
 11
9.20837
 21
127.818
  0
LINE
  8
0
 10
9.20837
 20
127.818
 11
8.79161
 21
127.818
  0
LINE
  8
0
 10
8.79161
 20
119.818
 11
8.39999
 21
119.961
  0
LINE
  8
0
 10
8.39999
 20
119.961
 11
8.08073
 21
120.229
  0
LINE
  8
0
 10
8.08073
 20
120.229
 11
7.87236
 21
120.59
  0
LINE
  8
0
 10
7.87236
 20
120.59
 11
7.79999
 21
121
  0
LINE
  8
0
 10
7.79999
 20
121
 11
7.87236
 21
121.41
  0
LINE
  8
0
 10
7.87236
 20
121.41
 11
8.08073
 21
121.771
  0
LINE
  8
0
 10
8.08073
 20
121.771
 11
8.39999
 21
122.039
  0
LINE
  8
0
 10
8.39999
 20
122.039
 11
8.79161
 21
122.182
  0
LINE
  8
0
 10
8.79161
 20
122.182
 11
9.20837
 21
122.182
  0
LINE
  8
0
 10
9.20837
 20
122.182
 11
9.59999
 21
122.039
  0
LINE
  8
0
 10
9.59999
 20
122.039
 11
9.91925
 21
121.771
  0
LINE
  8
0
 10
9.91925
 20
121.771
 11
10.1276
 21
121.41
  0
LINE
  8
0
 10
10.1276
 20
121.41
 11
10.2
 21
121
  0
LINE
  8
0
 10
10.2
 20
121
 11
10.1276
 21
120.59
  0
LINE
  8
0
 10
10.1276
 20
120.59
 11
9.91925
 21
120.229
  0
LINE
  8
0
 10
9.91925
 20
120.229
 11
9.59999
 21
119.961
  0
LINE
  8
0
 10
9.59999
 20
119.961
 11
9.20837
 21
119.818
  0
LINE
  8
0
 10
9.20837
 20
119.818
 11
8.79161
 21
119.818
  0
LINE
  8
0
 10
8.79161
 20
111.818
 11
8.39999
 21
111.961
  0
LINE
  8
0
 10
8.39999
 20
111.961
 11
8.08073
 21
112.229
  0
LINE
  8
0
 10
8.08073
 20
112.229
 11
7.87236
 21
112.59
  0
LINE
  8
0
 10
7.87236
 20
112.59
 11
7.79999
 21
113
  0
LINE
  8
0
 10
7.79999
 20
113
 11
7.87236
 21
113.41
  0
LINE
  8
0
 10
7.87236
 20
113.41
 11
8.08073
 21
113.771
  0
LINE
  8
0
 10
8.08073
 20
113.771
 11
8.39999
 21
114.039
  0
LINE
  8
0
 10
8.39999
 20
114.039
 11
8.79161
 21
114.182
  0
LINE
  8
0
 10
8.79161
 20
114.182
 11
9.20837
 21
114.182
  0
LINE
  8
0
 10
9.20837
 20
114.182
 11
9.59999
 21
114.039
  0
LINE
  8
0
 10
9.59999
 20
114.039
 11
9.91925
 21
113.771
  0
LINE
  8
0
 10
9.91925
 20
113.771
 11
10.1276
 21
113.41
  0
LINE
  8
0
 10
10.1276
 20
113.41
 11
10.2
 21
113
  0
LINE
  8
0
 10
10.2
 20
113
 11
10.1276
 21
112.59
  0
LINE
  8
0
 10
10.1276
 20
112.59
 11
9.91925
 21
112.229
  0
LINE
  8
0
 10
9.91925
 20
112.229
 11
9.59999
 21
111.961
  0
LINE
  8
0
 10
9.59999
 20
111.961
 11
9.20837
 21
111.818
  0
LINE
  8
0
 10
9.20837
 20
111.818
 11
8.79161
 21
111.818
  0
LINE
  8
0
 10
8.79161
 20
103.818
 11
8.39999
 21
103.961
  0
LINE
  8
0
 10
8.39999
 20
103.961
 11
8.08073
 21
104.229
  0
LINE
  8
0
 10
8.08073
 20
104.229
 11
7.87236
 21
104.59
  0
LINE
  8
0
 10
7.87236
 20
104.59
 11
7.79999
 21
105
  0
LINE
  8
0
 10
7.79999
 20
105
 11
7.87236
 21
105.41
  0
LINE
  8
0
 10
7.87236
 20
105.41
 11
8.08073
 21
105.771
  0
LINE
  8
0
 10
8.08073
 20
105.771
 11
8.39999
 21
106.039
  0
LINE
  8
0
 10
8.39999
 20
106.039
 11
8.79161
 21
106.182
  0
LINE
  8
0
 10
8.79161
 20
106.182
 11
9.20837
 21
106.182
  0
LINE
  8
0
 10
9.20837
 20
106.182
 11
9.59999
 21
106.039
  0
LINE
  8
0
 10
9.59999
 20
106.039
 11
9.91925
 21
105.771
  0
LINE
  8
0
 10
9.91925
 20
105.771
 11
10.1276
 21
105.41
  0
LINE
  8
0
 10
10.1276
 20
105.41
 11
10.2
 21
105
  0
LINE
  8
0
 10
10.2
 20
105
 11
10.1276
 21
104.59
  0
LINE
  8
0
 10
10.1276
 20
104.59
 11
9.91925
 21
104.229
  0
LINE
  8
0
 10
9.91925
 20
104.229
 11
9.59999
 21
103.961
  0
LINE
  8
0
 10
9.59999
 20
103.961
 11
9.20837
 21
103.818
  0
LINE
  8
0
 10
9.20837
 20
103.818
 11
8.79161
 21
103.818
  0
LINE
  8
0
 10
8.79161
 20
95.8182
 11
8.39999
 21
95.9608
  0
LINE
  8
0
 10
8.39999
 20
95.9608
 11
8.08073
 21
96.2287
  0
LINE
  8
0
 10
8.08073
 20
96.2287
 11
7.87236
 21
96.5896
  0
LINE
  8
0
 10
7.87236
 20
96.5896
 11
7.79999
 21
97
  0
LINE
  8
0
 10
7.79999
 20
97
 11
7.87236
 21
97.4104
  0
LINE
  8
0
 10
7.87236
 20
97.4104
 11
8.08073
 21
97.7713
  0
LINE
  8
0
 10
8.08073
 20
97.7713
 11
8.39999
 21
98.0392
  0
LINE
  8
0
 10
8.39999
 20
98.0392
 11
8.79161
 21
98.1818
  0
LINE
  8
0
 10
8.79161
 20
98.1818
 11
9.20837
 21
98.1818
  0
LINE
  8
0
 10
9.20837
 20
98.1818
 11
9.59999
 21
98.0392
  0
LINE
  8
0
 10
9.59999
 20
98.0392
 11
9.91925
 21
97.7713
  0
LINE
  8
0
 10
9.91925
 20
97.7713
 11
10.1276
 21
97.4104
  0
LINE
  8
0
 10
10.1276
 20
97.4104
 11
10.2
 21
97
  0
LINE
  8
0
 10
10.2
 20
97
 11
10.1276
 21
96.5896
  0
LINE
  8
0
 10
10.1276
 20
96.5896
 11
9.91925
 21
96.2287
  0
LINE
  8
0
 10
9.91925
 20
96.2287
 11
9.59999
 21
95.9608
  0
LINE
  8
0
 10
9.59999
 20
95.9608
 11
9.20837
 21
95.8182
  0
LINE
  8
0
 10
9.20837
 20
95.8182
 11
8.79161
 21
95.8182
  0
LINE
  8
0
 10
8.79161
 20
87.8182
 11
8.39999
 21
87.9608
  0
LINE
  8
0
 10
8.39999
 20
87.9608
 11
8.08073
 21
88.2287
  0
LINE
  8
0
 10
8.08073
 20
88.2287
 11
7.87236
 21
88.5896
  0
LINE
  8
0
 10
7.87236
 20
88.5896
 11
7.79999
 21
89
  0
LINE
  8
0
 10
7.79999
 20
89
 11
7.87236
 21
89.4104
  0
LINE
  8
0
 10
7.87236
 20
89.4104
 11
8.08073
 21
89.7713
  0
LINE
  8
0
 10
8.08073
 20
89.7713
 11
8.39999
 21
90.0392
  0
LINE
  8
0
 10
8.39999
 20
90.0392
 11
8.79161
 21
90.1818
  0
LINE
  8
0
 10
8.79161
 20
90.1818
 11
9.20837
 21
90.1818
  0
LINE
  8
0
 10
9.20837
 20
90.1818
 11
9.59999
 21
90.0392
  0
LINE
  8
0
 10
9.59999
 20
90.0392
 11
9.91925
 21
89.7713
  0
LINE
  8
0
 10
9.91925
 20
89.7713
 11
10.1276
 21
89.4104
  0
LINE
  8
0
 10
10.1276
 20
89.4104
 11
10.2
 21
89
  0
LINE
  8
0
 10
10.2
 20
89
 11
10.1276
 21
88.5896
  0
LINE
  8
0
 10
10.1276
 20
88.5896
 11
9.91925
 21
88.2287
  0
LINE
  8
0
 10
9.91925
 20
88.2287
 11
9.59999
 21
87.9608
  0
LINE
  8
0
 10
9.59999
 20
87.9608
 11
9.20837
 21
87.8182
  0
LINE
  8
0
 10
9.20837
 20
87.8182
 11
8.79161
 21
87.8182
  0
LINE
  8
0
 10
28.7916
 20
71.8182
 11
28.4
 21
71.9608
  0
LINE
  8
0
 10
28.4
 20
71.9608
 11
28.0807
 21
72.2287
  0
LINE
  8
0
 10
28.0807
 20
72.2287
 11
27.8724
 21
72.5896
  0
LINE
  8
0
 10
27.8724
 20
72.5896
 11
27.8
 21
73
  0
LINE
  8
0
 10
27.8
 20
73
 11
27.8724
 21
73.4104
  0
LINE
  8
0
 10
27.8724
 20
73.4104
 11
28.0807
 21
73.7713
  0
LINE
  8
0
 10
28.0807
 20
73.7713
 11
28.4
 21
74.0392
  0
LINE
  8
0
 10
28.4
 20
74.0392
 11
28.7916
 21
74.1818
  0
LINE
  8
0
 10
28.7916
 20
74.1818
 11
29.2084
 21
74.1818
  0
LINE
  8
0
 10
29.2084
 20
74.1818
 11
29.6
 21
74.0392
  0
LINE
  8
0
 10
29.6
 20
74.0392
 11
29.9193
 21
73.7713
  0
LINE
  8
0
 10
29.9193
 20
73.7713
 11
30.1276
 21
73.4104
  0
LINE
  8
0
 10
30.1276
 20
73.4104
 11
30.2
 21
73
  0
LINE
  8
0
 10
30.2
 20
73
 11
30.1276
 21
72.5896
  0
LINE
  8
0
 10
30.1276
 20
72.5896
 11
29.9193
 21
72.2287
  0
LINE
  8
0
 10
29.9193
 20
72.2287
 11
29.6
 21
71.9608
  0
LINE
  8
0
 10
29.6
 20
71.9608
 11
29.2084
 21
71.8182
  0
LINE
  8
0
 10
29.2084
 20
71.8182
 11
28.7916
 21
71.8182
  0
LINE
  8
0
 10
24.7916
 20
55.8182
 11
24.4
 21
55.9608
  0
LINE
  8
0
 10
24.4
 20
55.9608
 11
24.0807
 21
56.2287
  0
LINE
  8
0
 10
24.0807
 20
56.2287
 11
23.8724
 21
56.5896
  0
LINE
  8
0
 10
23.8724
 20
56.5896
 11
23.8
 21
57
  0
LINE
  8
0
 10
23.8
 20
57
 11
23.8724
 21
57.4104
  0
LINE
  8
0
 10
23.8724
 20
57.4104
 11
24.0807
 21
57.7713
  0
LINE
  8
0
 10
24.0807
 20
57.7713
 11
24.4
 21
58.0392
  0
LINE
  8
0
 10
24.4
 20
58.0392
 11
24.7916
 21
58.1818
  0
LINE
  8
0
 10
24.7916
 20
58.1818
 11
25.2084
 21
58.1818
  0
LINE
  8
0
 10
25.2084
 20
58.1818
 11
25.6
 21
58.0392
  0
LINE
  8
0
 10
25.6
 20
58.0392
 11
25.9193
 21
57.7713
  0
LINE
  8
0
 10
25.9193
 20
57.7713
 11
26.1276
 21
57.4104
  0
LINE
  8
0
 10
26.1276
 20
57.4104
 11
26.2
 21
57
  0
LINE
  8
0
 10
26.2
 20
57
 11
26.1276
 21
56.5896
  0
LINE
  8
0
 10
26.1276
 20
56.5896
 11
25.9193
 21
56.2287
  0
LINE
  8
0
 10
25.9193
 20
56.2287
 11
25.6
 21
55.9608
  0
LINE
  8
0
 10
25.6
 20
55.9608
 11
25.2084
 21
55.8182
  0
LINE
  8
0
 10
25.2084
 20
55.8182
 11
24.7916
 21
55.8182
  0
LINE
  8
0
 10
22.7916
 20
39.8182
 11
22.4
 21
39.9608
  0
LINE
  8
0
 10
22.4
 20
39.9608
 11
22.0807
 21
40.2287
  0
LINE
  8
0
 10
22.0807
 20
40.2287
 11
21.8724
 21
40.5896
  0
LINE
  8
0
 10
21.8724
 20
40.5896
 11
21.8
 21
41
  0
LINE
  8
0
 10
21.8
 20
41
 11
21.8724
 21
41.4104
  0
LINE
  8
0
 10
21.8724
 20
41.4104
 11
22.0807
 21
41.7713
  0
LINE
  8
0
 10
22.0807
 20
41.7713
 11
22.4
 21
42.0392
  0
LINE
  8
0
 10
22.4
 20
42.0392
 11
22.7916
 21
42.1818
  0
LINE
  8
0
 10
22.7916
 20
42.1818
 11
23.2084
 21
42.1818
  0
LINE
  8
0
 10
23.2084
 20
42.1818
 11
23.6
 21
42.0392
  0
LINE
  8
0
 10
23.6
 20
42.0392
 11
23.9193
 21
41.7713
  0
LINE
  8
0
 10
23.9193
 20
41.7713
 11
24.1276
 21
41.4104
  0
LINE
  8
0
 10
24.1276
 20
41.4104
 11
24.2
 21
41
  0
LINE
  8
0
 10
24.2
 20
41
 11
24.1276
 21
40.5896
  0
LINE
  8
0
 10
24.1276
 20
40.5896
 11
23.9193
 21
40.2287
  0
LINE
  8
0
 10
23.9193
 20
40.2287
 11
23.6
 21
39.9608
  0
LINE
  8
0
 10
23.6
 20
39.9608
 11
23.2084
 21
39.8182
  0
LINE
  8
0
 10
23.2084
 20
39.8182
 11
22.7916
 21
39.8182
  0
LINE
  8
0
 10
20.7916
 20
31.8182
 11
20.4
 21
31.9608
  0
LINE
  8
0
 10
20.4
 20
31.9608
 11
20.0807
 21
32.2287
  0
LINE
  8
0
 10
20.0807
 20
32.2287
 11
19.8724
 21
32.5896
  0
LINE
  8
0
 10
19.8724
 20
32.5896
 11
19.8
 21
33
  0
LINE
  8
0
 10
19.8
 20
33
 11
19.8724
 21
33.4104
  0
LINE
  8
0
 10
19.8724
 20
33.4104
 11
20.0807
 21
33.7713
  0
LINE
  8
0
 10
20.0807
 20
33.7713
 11
20.4
 21
34.0392
  0
LINE
  8
0
 10
20.4
 20
34.0392
 11
20.7916
 21
34.1818
  0
LINE
  8
0
 10
20.7916
 20
34.1818
 11
21.2084
 21
34.1818
  0
LINE
  8
0
 10
21.2084
 20
34.1818
 11
21.6
 21
34.0392
  0
LINE
  8
0
 10
21.6
 20
34.0392
 11
21.9193
 21
33.7713
  0
LINE
  8
0
 10
21.9193
 20
33.7713
 11
22.1276
 21
33.4104
  0
LINE
  8
0
 10
22.1276
 20
33.4104
 11
22.2
 21
33
  0
LINE
  8
0
 10
22.2
 20
33
 11
22.1276
 21
32.5896
  0
LINE
  8
0
 10
22.1276
 20
32.5896
 11
21.9193
 21
32.2287
  0
LINE
  8
0
 10
21.9193
 20
32.2287
 11
21.6
 21
31.9608
  0
LINE
  8
0
 10
21.6
 20
31.9608
 11
21.2084
 21
31.8182
  0
LINE
  8
0
 10
21.2084
 20
31.8182
 11
20.7916
 21
31.8182
  0
LINE
  8
0
 10
20.7916
 20
15.8182
 11
20.4
 21
15.9608
  0
LINE
  8
0
 10
20.4
 20
15.9608
 11
20.0807
 21
16.2287
  0
LINE
  8
0
 10
20.0807
 20
16.2287
 11
19.8724
 21
16.5896
  0
LINE
  8
0
 10
19.8724
 20
16.5896
 11
19.8
 21
17
  0
LINE
  8
0
 10
19.8
 20
17
 11
19.8724
 21
17.4104
  0
LINE
  8
0
 10
19.8724
 20
17.4104
 11
20.0807
 21
17.7713
  0
LINE
  8
0
 10
20.0807
 20
17.7713
 11
20.4
 21
18.0392
  0
LINE
  8
0
 10
20.4
 20
18.0392
 11
20.7916
 21
18.1818
  0
LINE
  8
0
 10
20.7916
 20
18.1818
 11
21.2084
 21
18.1818
  0
LINE
  8
0
 10
21.2084
 20
18.1818
 11
21.6
 21
18.0392
  0
LINE
  8
0
 10
21.6
 20
18.0392
 11
21.9193
 21
17.7713
  0
LINE
  8
0
 10
21.9193
 20
17.7713
 11
22.1276
 21
17.4104
  0
LINE
  8
0
 10
22.1276
 20
17.4104
 11
22.2
 21
17
  0
LINE
  8
0
 10
22.2
 20
17
 11
22.1276
 21
16.5896
  0
LINE
  8
0
 10
22.1276
 20
16.5896
 11
21.9193
 21
16.2287
  0
LINE
  8
0
 10
21.9193
 20
16.2287
 11
21.6
 21
15.9608
  0
LINE
  8
0
 10
21.6
 20
15.9608
 11
21.2084
 21
15.8182
  0
LINE
  8
0
 10
21.2084
 20
15.8182
 11
20.7916
 21
15.8182
  0
ENDSEC
  0
SECTION
  2
OBJECTS
  0
DICTIONARY
  0
ENDSEC
  0
EOF
