  0
SECTION
  2
BLOCKS
  0
ENDSEC
  0
SECTION
  2
ENTITIES
  0
LINE
  8
0
 10
41
 20
930
 11
0
 21
930
  0
LINE
  8
0
 10
0
 20
930
 11
0
 21
0
  0
LINE
  8
0
 10
0
 20
0
 11
41
 21
0
  0
LINE
  8
0
 10
41
 20
0
 11
41
 21
930
  0
LINE
  8
0
 10
8.79161
 20
315.818
 11
8.39999
 21
315.961
  0
LINE
  8
0
 10
8.39999
 20
315.961
 11
8.08073
 21
316.229
  0
LINE
  8
0
 10
8.08073
 20
316.229
 11
7.87236
 21
316.59
  0
LINE
  8
0
 10
7.87236
 20
316.59
 11
7.79999
 21
317
  0
LINE
  8
0
 10
7.79999
 20
317
 11
7.87236
 21
317.41
  0
LINE
  8
0
 10
7.87236
 20
317.41
 11
8.08073
 21
317.771
  0
LINE
  8
0
 10
8.08073
 20
317.771
 11
8.39999
 21
318.039
  0
LINE
  8
0
 10
8.39999
 20
318.039
 11
8.79161
 21
318.182
  0
LINE
  8
0
 10
8.79161
 20
318.182
 11
9.20837
 21
318.182
  0
LINE
  8
0
 10
9.20837
 20
318.182
 11
9.59999
 21
318.039
  0
LINE
  8
0
 10
9.59999
 20
318.039
 11
9.91925
 21
317.771
  0
LINE
  8
0
 10
9.91925
 20
317.771
 11
10.1276
 21
317.41
  0
LINE
  8
0
 10
10.1276
 20
317.41
 11
10.2
 21
317
  0
LINE
  8
0
 10
10.2
 20
317
 11
10.1276
 21
316.59
  0
LINE
  8
0
 10
10.1276
 20
316.59
 11
9.91925
 21
316.229
  0
LINE
  8
0
 10
9.91925
 20
316.229
 11
9.59999
 21
315.961
  0
LINE
  8
0
 10
9.59999
 20
315.961
 11
9.20837
 21
315.818
  0
LINE
  8
0
 10
9.20837
 20
315.818
 11
8.79161
 21
315.818
  0
LINE
  8
0
 10
12.7916
 20
305.152
 11
12.4
 21
305.294
  0
LINE
  8
0
 10
12.4
 20
305.294
 11
12.0807
 21
305.562
  0
LINE
  8
0
 10
12.0807
 20
305.562
 11
11.8724
 21
305.923
  0
LINE
  8
0
 10
11.8724
 20
305.923
 11
11.8
 21
306.333
  0
LINE
  8
0
 10
11.8
 20
306.333
 11
11.8724
 21
306.744
  0
LINE
  8
0
 10
11.8724
 20
306.744
 11
12.0807
 21
307.105
  0
LINE
  8
0
 10
12.0807
 20
307.105
 11
12.4
 21
307.372
  0
LINE
  8
0
 10
12.4
 20
307.372
 11
12.7916
 21
307.515
  0
LINE
  8
0
 10
12.7916
 20
307.515
 11
13.2084
 21
307.515
  0
LINE
  8
0
 10
13.2084
 20
307.515
 11
13.6
 21
307.372
  0
LINE
  8
0
 10
13.6
 20
307.372
 11
13.9193
 21
307.105
  0
LINE
  8
0
 10
13.9193
 20
307.105
 11
14.1276
 21
306.744
  0
LINE
  8
0
 10
14.1276
 20
306.744
 11
14.2
 21
306.333
  0
LINE
  8
0
 10
14.2
 20
306.333
 11
14.1276
 21
305.923
  0
LINE
  8
0
 10
14.1276
 20
305.923
 11
13.9193
 21
305.562
  0
LINE
  8
0
 10
13.9193
 20
305.562
 11
13.6
 21
305.294
  0
LINE
  8
0
 10
13.6
 20
305.294
 11
13.2084
 21
305.152
  0
LINE
  8
0
 10
13.2084
 20
305.152
 11
12.7916
 21
305.152
  0
LINE
  8
0
 10
10.7916
 20
294.485
 11
10.4
 21
294.627
  0
LINE
  8
0
 10
10.4
 20
294.627
 11
10.0807
 21
294.895
  0
LINE
  8
0
 10
10.0807
 20
294.895
 11
9.87236
 21
295.256
  0
LINE
  8
0
 10
9.87236
 20
295.256
 11
9.79999
 21
295.667
  0
LINE
  8
0
 10
9.79999
 20
295.667
 11
9.87236
 21
296.077
  0
LINE
  8
0
 10
9.87236
 20
296.077
 11
10.0807
 21
296.438
  0
LINE
  8
0
 10
10.0807
 20
296.438
 11
10.4
 21
296.706
  0
LINE
  8
0
 10
10.4
 20
296.706
 11
10.7916
 21
296.848
  0
LINE
  8
0
 10
10.7916
 20
296.848
 11
11.2084
 21
296.848
  0
LINE
  8
0
 10
11.2084
 20
296.848
 11
11.6
 21
296.706
  0
LINE
  8
0
 10
11.6
 20
296.706
 11
11.9193
 21
296.438
  0
LINE
  8
0
 10
11.9193
 20
296.438
 11
12.1276
 21
296.077
  0
LINE
  8
0
 10
12.1276
 20
296.077
 11
12.2
 21
295.667
  0
LINE
  8
0
 10
12.2
 20
295.667
 11
12.1276
 21
295.256
  0
LINE
  8
0
 10
12.1276
 20
295.256
 11
11.9193
 21
294.895
  0
LINE
  8
0
 10
11.9193
 20
294.895
 11
11.6
 21
294.627
  0
LINE
  8
0
 10
11.6
 20
294.627
 11
11.2084
 21
294.485
  0
LINE
  8
0
 10
11.2084
 20
294.485
 11
10.7916
 21
294.485
  0
LINE
  8
0
 10
8.79161
 20
283.818
 11
8.39999
 21
283.961
  0
LINE
  8
0
 10
8.39999
 20
283.961
 11
8.08073
 21
284.229
  0
LINE
  8
0
 10
8.08073
 20
284.229
 11
7.87236
 21
284.59
  0
LINE
  8
0
 10
7.87236
 20
284.59
 11
7.79999
 21
285
  0
LINE
  8
0
 10
7.79999
 20
285
 11
7.87236
 21
285.41
  0
LINE
  8
0
 10
7.87236
 20
285.41
 11
8.08073
 21
285.771
  0
LINE
  8
0
 10
8.08073
 20
285.771
 11
8.39999
 21
286.039
  0
LINE
  8
0
 10
8.39999
 20
286.039
 11
8.79161
 21
286.182
  0
LINE
  8
0
 10
8.79161
 20
286.182
 11
9.20837
 21
286.182
  0
LINE
  8
0
 10
9.20837
 20
286.182
 11
9.59999
 21
286.039
  0
LINE
  8
0
 10
9.59999
 20
286.039
 11
9.91925
 21
285.771
  0
LINE
  8
0
 10
9.91925
 20
285.771
 11
10.1276
 21
285.41
  0
LINE
  8
0
 10
10.1276
 20
285.41
 11
10.2
 21
285
  0
LINE
  8
0
 10
10.2
 20
285
 11
10.1276
 21
284.59
  0
LINE
  8
0
 10
10.1276
 20
284.59
 11
9.91925
 21
284.229
  0
LINE
  8
0
 10
9.91925
 20
284.229
 11
9.59999
 21
283.961
  0
LINE
  8
0
 10
9.59999
 20
283.961
 11
9.20837
 21
283.818
  0
LINE
  8
0
 10
9.20837
 20
283.818
 11
8.79161
 21
283.818
  0
LINE
  8
0
 10
14.7916
 20
275.818
 11
14.4
 21
275.961
  0
LINE
  8
0
 10
14.4
 20
275.961
 11
14.0807
 21
276.229
  0
LINE
  8
0
 10
14.0807
 20
276.229
 11
13.8724
 21
276.59
  0
LINE
  8
0
 10
13.8724
 20
276.59
 11
13.8
 21
277
  0
LINE
  8
0
 10
13.8
 20
277
 11
13.8724
 21
277.41
  0
LINE
  8
0
 10
13.8724
 20
277.41
 11
14.0807
 21
277.771
  0
LINE
  8
0
 10
14.0807
 20
277.771
 11
14.4
 21
278.039
  0
LINE
  8
0
 10
14.4
 20
278.039
 11
14.7916
 21
278.182
  0
LINE
  8
0
 10
14.7916
 20
278.182
 11
15.2084
 21
278.182
  0
LINE
  8
0
 10
15.2084
 20
278.182
 11
15.6
 21
278.039
  0
LINE
  8
0
 10
15.6
 20
278.039
 11
15.9193
 21
277.771
  0
LINE
  8
0
 10
15.9193
 20
277.771
 11
16.1276
 21
277.41
  0
LINE
  8
0
 10
16.1276
 20
277.41
 11
16.2
 21
277
  0
LINE
  8
0
 10
16.2
 20
277
 11
16.1276
 21
276.59
  0
LINE
  8
0
 10
16.1276
 20
276.59
 11
15.9193
 21
276.229
  0
LINE
  8
0
 10
15.9193
 20
276.229
 11
15.6
 21
275.961
  0
LINE
  8
0
 10
15.6
 20
275.961
 11
15.2084
 21
275.818
  0
LINE
  8
0
 10
15.2084
 20
275.818
 11
14.7916
 21
275.818
  0
LINE
  8
0
 10
14.7916
 20
243.818
 11
14.4
 21
243.961
  0
LINE
  8
0
 10
14.4
 20
243.961
 11
14.0807
 21
244.229
  0
LINE
  8
0
 10
14.0807
 20
244.229
 11
13.8724
 21
244.59
  0
LINE
  8
0
 10
13.8724
 20
244.59
 11
13.8
 21
245
  0
LINE
  8
0
 10
13.8
 20
245
 11
13.8724
 21
245.41
  0
LINE
  8
0
 10
13.8724
 20
245.41
 11
14.0807
 21
245.771
  0
LINE
  8
0
 10
14.0807
 20
245.771
 11
14.4
 21
246.039
  0
LINE
  8
0
 10
14.4
 20
246.039
 11
14.7916
 21
246.182
  0
LINE
  8
0
 10
14.7916
 20
246.182
 11
15.2084
 21
246.182
  0
LINE
  8
0
 10
15.2084
 20
246.182
 11
15.6
 21
246.039
  0
LINE
  8
0
 10
15.6
 20
246.039
 11
15.9193
 21
245.771
  0
LINE
  8
0
 10
15.9193
 20
245.771
 11
16.1276
 21
245.41
  0
LINE
  8
0
 10
16.1276
 20
245.41
 11
16.2
 21
245
  0
LINE
  8
0
 10
16.2
 20
245
 11
16.1276
 21
244.59
  0
LINE
  8
0
 10
16.1276
 20
244.59
 11
15.9193
 21
244.229
  0
LINE
  8
0
 10
15.9193
 20
244.229
 11
15.6
 21
243.961
  0
LINE
  8
0
 10
15.6
 20
243.961
 11
15.2084
 21
243.818
  0
LINE
  8
0
 10
15.2084
 20
243.818
 11
14.7916
 21
243.818
  0
LINE
  8
0
 10
14.7916
 20
235.818
 11
14.4
 21
235.961
  0
LINE
  8
0
 10
14.4
 20
235.961
 11
14.0807
 21
236.229
  0
LINE
  8
0
 10
14.0807
 20
236.229
 11
13.8724
 21
236.59
  0
LINE
  8
0
 10
13.8724
 20
236.59
 11
13.8
 21
237
  0
LINE
  8
0
 10
13.8
 20
237
 11
13.8724
 21
237.41
  0
LINE
  8
0
 10
13.8724
 20
237.41
 11
14.0807
 21
237.771
  0
LINE
  8
0
 10
14.0807
 20
237.771
 11
14.4
 21
238.039
  0
LINE
  8
0
 10
14.4
 20
238.039
 11
14.7916
 21
238.182
  0
LINE
  8
0
 10
14.7916
 20
238.182
 11
15.2084
 21
238.182
  0
LINE
  8
0
 10
15.2084
 20
238.182
 11
15.6
 21
238.039
  0
LINE
  8
0
 10
15.6
 20
238.039
 11
15.9193
 21
237.771
  0
LINE
  8
0
 10
15.9193
 20
237.771
 11
16.1276
 21
237.41
  0
LINE
  8
0
 10
16.1276
 20
237.41
 11
16.2
 21
237
  0
LINE
  8
0
 10
16.2
 20
237
 11
16.1276
 21
236.59
  0
LINE
  8
0
 10
16.1276
 20
236.59
 11
15.9193
 21
236.229
  0
LINE
  8
0
 10
15.9193
 20
236.229
 11
15.6
 21
235.961
  0
LINE
  8
0
 10
15.6
 20
235.961
 11
15.2084
 21
235.818
  0
LINE
  8
0
 10
15.2084
 20
235.818
 11
14.7916
 21
235.818
  0
LINE
  8
0
 10
8.79161
 20
187.818
 11
8.39999
 21
187.961
  0
LINE
  8
0
 10
8.39999
 20
187.961
 11
8.08073
 21
188.229
  0
LINE
  8
0
 10
8.08073
 20
188.229
 11
7.87236
 21
188.59
  0
LINE
  8
0
 10
7.87236
 20
188.59
 11
7.79999
 21
189
  0
LINE
  8
0
 10
7.79999
 20
189
 11
7.87236
 21
189.41
  0
LINE
  8
0
 10
7.87236
 20
189.41
 11
8.08073
 21
189.771
  0
LINE
  8
0
 10
8.08073
 20
189.771
 11
8.39999
 21
190.039
  0
LINE
  8
0
 10
8.39999
 20
190.039
 11
8.79161
 21
190.182
  0
LINE
  8
0
 10
8.79161
 20
190.182
 11
9.20837
 21
190.182
  0
LINE
  8
0
 10
9.20837
 20
190.182
 11
9.59999
 21
190.039
  0
LINE
  8
0
 10
9.59999
 20
190.039
 11
9.91925
 21
189.771
  0
LINE
  8
0
 10
9.91925
 20
189.771
 11
10.1276
 21
189.41
  0
LINE
  8
0
 10
10.1276
 20
189.41
 11
10.2
 21
189
  0
LINE
  8
0
 10
10.2
 20
189
 11
10.1276
 21
188.59
  0
LINE
  8
0
 10
10.1276
 20
188.59
 11
9.91925
 21
188.229
  0
LINE
  8
0
 10
9.91925
 20
188.229
 11
9.59999
 21
187.961
  0
LINE
  8
0
 10
9.59999
 20
187.961
 11
9.20837
 21
187.818
  0
LINE
  8
0
 10
9.20837
 20
187.818
 11
8.79161
 21
187.818
  0
LINE
  8
0
 10
12.7916
 20
177.152
 11
12.4
 21
177.294
  0
LINE
  8
0
 10
12.4
 20
177.294
 11
12.0807
 21
177.562
  0
LINE
  8
0
 10
12.0807
 20
177.562
 11
11.8724
 21
177.923
  0
LINE
  8
0
 10
11.8724
 20
177.923
 11
11.8
 21
178.333
  0
LINE
  8
0
 10
11.8
 20
178.333
 11
11.8724
 21
178.744
  0
LINE
  8
0
 10
11.8724
 20
178.744
 11
12.0807
 21
179.105
  0
LINE
  8
0
 10
12.0807
 20
179.105
 11
12.4
 21
179.373
  0
LINE
  8
0
 10
12.4
 20
179.373
 11
12.7916
 21
179.515
  0
LINE
  8
0
 10
12.7916
 20
179.515
 11
13.2084
 21
179.515
  0
LINE
  8
0
 10
13.2084
 20
179.515
 11
13.6
 21
179.373
  0
LINE
  8
0
 10
13.6
 20
179.373
 11
13.9193
 21
179.105
  0
LINE
  8
0
 10
13.9193
 20
179.105
 11
14.1276
 21
178.744
  0
LINE
  8
0
 10
14.1276
 20
178.744
 11
14.2
 21
178.333
  0
LINE
  8
0
 10
14.2
 20
178.333
 11
14.1276
 21
177.923
  0
LINE
  8
0
 10
14.1276
 20
177.923
 11
13.9193
 21
177.562
  0
LINE
  8
0
 10
13.9193
 20
177.562
 11
13.6
 21
177.294
  0
LINE
  8
0
 10
13.6
 20
177.294
 11
13.2084
 21
177.152
  0
LINE
  8
0
 10
13.2084
 20
177.152
 11
12.7916
 21
177.152
  0
LINE
  8
0
 10
10.7916
 20
166.485
 11
10.4
 21
166.627
  0
LINE
  8
0
 10
10.4
 20
166.627
 11
10.0807
 21
166.895
  0
LINE
  8
0
 10
10.0807
 20
166.895
 11
9.87236
 21
167.256
  0
LINE
  8
0
 10
9.87236
 20
167.256
 11
9.79999
 21
167.667
  0
LINE
  8
0
 10
9.79999
 20
167.667
 11
9.87236
 21
168.077
  0
LINE
  8
0
 10
9.87236
 20
168.077
 11
10.0807
 21
168.438
  0
LINE
  8
0
 10
10.0807
 20
168.438
 11
10.4
 21
168.706
  0
LINE
  8
0
 10
10.4
 20
168.706
 11
10.7916
 21
168.848
  0
LINE
  8
0
 10
10.7916
 20
168.848
 11
11.2084
 21
168.848
  0
LINE
  8
0
 10
11.2084
 20
168.848
 11
11.6
 21
168.706
  0
LINE
  8
0
 10
11.6
 20
168.706
 11
11.9193
 21
168.438
  0
LINE
  8
0
 10
11.9193
 20
168.438
 11
12.1276
 21
168.077
  0
LINE
  8
0
 10
12.1276
 20
168.077
 11
12.2
 21
167.667
  0
LINE
  8
0
 10
12.2
 20
167.667
 11
12.1276
 21
167.256
  0
LINE
  8
0
 10
12.1276
 20
167.256
 11
11.9193
 21
166.895
  0
LINE
  8
0
 10
11.9193
 20
166.895
 11
11.6
 21
166.627
  0
LINE
  8
0
 10
11.6
 20
166.627
 11
11.2084
 21
166.485
  0
LINE
  8
0
 10
11.2084
 20
166.485
 11
10.7916
 21
166.485
  0
LINE
  8
0
 10
8.79161
 20
155.818
 11
8.39999
 21
155.961
  0
LINE
  8
0
 10
8.39999
 20
155.961
 11
8.08073
 21
156.229
  0
LINE
  8
0
 10
8.08073
 20
156.229
 11
7.87236
 21
156.59
  0
LINE
  8
0
 10
7.87236
 20
156.59
 11
7.79999
 21
157
  0
LINE
  8
0
 10
7.79999
 20
157
 11
7.87236
 21
157.41
  0
LINE
  8
0
 10
7.87236
 20
157.41
 11
8.08073
 21
157.771
  0
LINE
  8
0
 10
8.08073
 20
157.771
 11
8.39999
 21
158.039
  0
LINE
  8
0
 10
8.39999
 20
158.039
 11
8.79161
 21
158.182
  0
LINE
  8
0
 10
8.79161
 20
158.182
 11
9.20837
 21
158.182
  0
LINE
  8
0
 10
9.20837
 20
158.182
 11
9.59999
 21
158.039
  0
LINE
  8
0
 10
9.59999
 20
158.039
 11
9.91925
 21
157.771
  0
LINE
  8
0
 10
9.91925
 20
157.771
 11
10.1276
 21
157.41
  0
LINE
  8
0
 10
10.1276
 20
157.41
 11
10.2
 21
157
  0
LINE
  8
0
 10
10.2
 20
157
 11
10.1276
 21
156.59
  0
LINE
  8
0
 10
10.1276
 20
156.59
 11
9.91925
 21
156.229
  0
LINE
  8
0
 10
9.91925
 20
156.229
 11
9.59999
 21
155.961
  0
LINE
  8
0
 10
9.59999
 20
155.961
 11
9.20837
 21
155.818
  0
LINE
  8
0
 10
9.20837
 20
155.818
 11
8.79161
 21
155.818
  0
LINE
  8
0
 10
14.7916
 20
115.818
 11
14.4
 21
115.961
  0
LINE
  8
0
 10
14.4
 20
115.961
 11
14.0807
 21
116.229
  0
LINE
  8
0
 10
14.0807
 20
116.229
 11
13.8724
 21
116.59
  0
LINE
  8
0
 10
13.8724
 20
116.59
 11
13.8
 21
117
  0
LINE
  8
0
 10
13.8
 20
117
 11
13.8724
 21
117.41
  0
LINE
  8
0
 10
13.8724
 20
117.41
 11
14.0807
 21
117.771
  0
LINE
  8
0
 10
14.0807
 20
117.771
 11
14.4
 21
118.039
  0
LINE
  8
0
 10
14.4
 20
118.039
 11
14.7916
 21
118.182
  0
LINE
  8
0
 10
14.7916
 20
118.182
 11
15.2084
 21
118.182
  0
LINE
  8
0
 10
15.2084
 20
118.182
 11
15.6
 21
118.039
  0
LINE
  8
0
 10
15.6
 20
118.039
 11
15.9193
 21
117.771
  0
LINE
  8
0
 10
15.9193
 20
117.771
 11
16.1276
 21
117.41
  0
LINE
  8
0
 10
16.1276
 20
117.41
 11
16.2
 21
117
  0
LINE
  8
0
 10
16.2
 20
117
 11
16.1276
 21
116.59
  0
LINE
  8
0
 10
16.1276
 20
116.59
 11
15.9193
 21
116.229
  0
LINE
  8
0
 10
15.9193
 20
116.229
 11
15.6
 21
115.961
  0
LINE
  8
0
 10
15.6
 20
115.961
 11
15.2084
 21
115.818
  0
LINE
  8
0
 10
15.2084
 20
115.818
 11
14.7916
 21
115.818
  0
LINE
  8
0
 10
12.7916
 20
107.818
 11
12.4
 21
107.961
  0
LINE
  8
0
 10
12.4
 20
107.961
 11
12.0807
 21
108.229
  0
LINE
  8
0
 10
12.0807
 20
108.229
 11
11.8724
 21
108.59
  0
LINE
  8
0
 10
11.8724
 20
108.59
 11
11.8
 21
109
  0
LINE
  8
0
 10
11.8
 20
109
 11
11.8724
 21
109.41
  0
LINE
  8
0
 10
11.8724
 20
109.41
 11
12.0807
 21
109.771
  0
LINE
  8
0
 10
12.0807
 20
109.771
 11
12.4
 21
110.039
  0
LINE
  8
0
 10
12.4
 20
110.039
 11
12.7916
 21
110.182
  0
LINE
  8
0
 10
12.7916
 20
110.182
 11
13.2084
 21
110.182
  0
LINE
  8
0
 10
13.2084
 20
110.182
 11
13.6
 21
110.039
  0
LINE
  8
0
 10
13.6
 20
110.039
 11
13.9193
 21
109.771
  0
LINE
  8
0
 10
13.9193
 20
109.771
 11
14.1276
 21
109.41
  0
LINE
  8
0
 10
14.1276
 20
109.41
 11
14.2
 21
109
  0
LINE
  8
0
 10
14.2
 20
109
 11
14.1276
 21
108.59
  0
LINE
  8
0
 10
14.1276
 20
108.59
 11
13.9193
 21
108.229
  0
LINE
  8
0
 10
13.9193
 20
108.229
 11
13.6
 21
107.961
  0
LINE
  8
0
 10
13.6
 20
107.961
 11
13.2084
 21
107.818
  0
LINE
  8
0
 10
13.2084
 20
107.818
 11
12.7916
 21
107.818
  0
LINE
  8
0
 10
10.7916
 20
99.8182
 11
10.4
 21
99.9608
  0
LINE
  8
0
 10
10.4
 20
99.9608
 11
10.0807
 21
100.229
  0
LINE
  8
0
 10
10.0807
 20
100.229
 11
9.87236
 21
100.59
  0
LINE
  8
0
 10
9.87236
 20
100.59
 11
9.79999
 21
101
  0
LINE
  8
0
 10
9.79999
 20
101
 11
9.87236
 21
101.41
  0
LINE
  8
0
 10
9.87236
 20
101.41
 11
10.0807
 21
101.771
  0
LINE
  8
0
 10
10.0807
 20
101.771
 11
10.4
 21
102.039
  0
LINE
  8
0
 10
10.4
 20
102.039
 11
10.7916
 21
102.182
  0
LINE
  8
0
 10
10.7916
 20
102.182
 11
11.2084
 21
102.182
  0
LINE
  8
0
 10
11.2084
 20
102.182
 11
11.6
 21
102.039
  0
LINE
  8
0
 10
11.6
 20
102.039
 11
11.9193
 21
101.771
  0
LINE
  8
0
 10
11.9193
 20
101.771
 11
12.1276
 21
101.41
  0
LINE
  8
0
 10
12.1276
 20
101.41
 11
12.2
 21
101
  0
LINE
  8
0
 10
12.2
 20
101
 11
12.1276
 21
100.59
  0
LINE
  8
0
 10
12.1276
 20
100.59
 11
11.9193
 21
100.229
  0
LINE
  8
0
 10
11.9193
 20
100.229
 11
11.6
 21
99.9608
  0
LINE
  8
0
 10
11.6
 20
99.9608
 11
11.2084
 21
99.8182
  0
LINE
  8
0
 10
11.2084
 20
99.8182
 11
10.7916
 21
99.8182
  0
LINE
  8
0
 10
8.79161
 20
91.8182
 11
8.39999
 21
91.9608
  0
LINE
  8
0
 10
8.39999
 20
91.9608
 11
8.08073
 21
92.2287
  0
LINE
  8
0
 10
8.08073
 20
92.2287
 11
7.87236
 21
92.5896
  0
LINE
  8
0
 10
7.87236
 20
92.5896
 11
7.79999
 21
93
  0
LINE
  8
0
 10
7.79999
 20
93
 11
7.87236
 21
93.4104
  0
LINE
  8
0
 10
7.87236
 20
93.4104
 11
8.08073
 21
93.7713
  0
LINE
  8
0
 10
8.08073
 20
93.7713
 11
8.39999
 21
94.0392
  0
LINE
  8
0
 10
8.39999
 20
94.0392
 11
8.79161
 21
94.1818
  0
LINE
  8
0
 10
8.79161
 20
94.1818
 11
9.20837
 21
94.1818
  0
LINE
  8
0
 10
9.20837
 20
94.1818
 11
9.59999
 21
94.0392
  0
LINE
  8
0
 10
9.59999
 20
94.0392
 11
9.91925
 21
93.7713
  0
LINE
  8
0
 10
9.91925
 20
93.7713
 11
10.1276
 21
93.4104
  0
LINE
  8
0
 10
10.1276
 20
93.4104
 11
10.2
 21
93
  0
LINE
  8
0
 10
10.2
 20
93
 11
10.1276
 21
92.5896
  0
LINE
  8
0
 10
10.1276
 20
92.5896
 11
9.91925
 21
92.2287
  0
LINE
  8
0
 10
9.91925
 20
92.2287
 11
9.59999
 21
91.9608
  0
LINE
  8
0
 10
9.59999
 20
91.9608
 11
9.20837
 21
91.8182
  0
LINE
  8
0
 10
9.20837
 20
91.8182
 11
8.79161
 21
91.8182
  0
LINE
  8
0
 10
14.7916
 20
83.8182
 11
14.4
 21
83.9608
  0
LINE
  8
0
 10
14.4
 20
83.9608
 11
14.0807
 21
84.2287
  0
LINE
  8
0
 10
14.0807
 20
84.2287
 11
13.8724
 21
84.5896
  0
LINE
  8
0
 10
13.8724
 20
84.5896
 11
13.8
 21
85
  0
LINE
  8
0
 10
13.8
 20
85
 11
13.8724
 21
85.4104
  0
LINE
  8
0
 10
13.8724
 20
85.4104
 11
14.0807
 21
85.7713
  0
LINE
  8
0
 10
14.0807
 20
85.7713
 11
14.4
 21
86.0392
  0
LINE
  8
0
 10
14.4
 20
86.0392
 11
14.7916
 21
86.1818
  0
LINE
  8
0
 10
14.7916
 20
86.1818
 11
15.2084
 21
86.1818
  0
LINE
  8
0
 10
15.2084
 20
86.1818
 11
15.6
 21
86.0392
  0
LINE
  8
0
 10
15.6
 20
86.0392
 11
15.9193
 21
85.7713
  0
LINE
  8
0
 10
15.9193
 20
85.7713
 11
16.1276
 21
85.4104
  0
LINE
  8
0
 10
16.1276
 20
85.4104
 11
16.2
 21
85
  0
LINE
  8
0
 10
16.2
 20
85
 11
16.1276
 21
84.5896
  0
LINE
  8
0
 10
16.1276
 20
84.5896
 11
15.9193
 21
84.2287
  0
LINE
  8
0
 10
15.9193
 20
84.2287
 11
15.6
 21
83.9608
  0
LINE
  8
0
 10
15.6
 20
83.9608
 11
15.2084
 21
83.8182
  0
LINE
  8
0
 10
15.2084
 20
83.8182
 11
14.7916
 21
83.8182
  0
LINE
  8
0
 10
14.7916
 20
75.8182
 11
14.4
 21
75.9608
  0
LINE
  8
0
 10
14.4
 20
75.9608
 11
14.0807
 21
76.2287
  0
LINE
  8
0
 10
14.0807
 20
76.2287
 11
13.8724
 21
76.5896
  0
LINE
  8
0
 10
13.8724
 20
76.5896
 11
13.8
 21
77
  0
LINE
  8
0
 10
13.8
 20
77
 11
13.8724
 21
77.4104
  0
LINE
  8
0
 10
13.8724
 20
77.4104
 11
14.0807
 21
77.7713
  0
LINE
  8
0
 10
14.0807
 20
77.7713
 11
14.4
 21
78.0392
  0
LINE
  8
0
 10
14.4
 20
78.0392
 11
14.7916
 21
78.1818
  0
LINE
  8
0
 10
14.7916
 20
78.1818
 11
15.2084
 21
78.1818
  0
LINE
  8
0
 10
15.2084
 20
78.1818
 11
15.6
 21
78.0392
  0
LINE
  8
0
 10
15.6
 20
78.0392
 11
15.9193
 21
77.7713
  0
LINE
  8
0
 10
15.9193
 20
77.7713
 11
16.1276
 21
77.4104
  0
LINE
  8
0
 10
16.1276
 20
77.4104
 11
16.2
 21
77
  0
LINE
  8
0
 10
16.2
 20
77
 11
16.1276
 21
76.5896
  0
LINE
  8
0
 10
16.1276
 20
76.5896
 11
15.9193
 21
76.2287
  0
LINE
  8
0
 10
15.9193
 20
76.2287
 11
15.6
 21
75.9608
  0
LINE
  8
0
 10
15.6
 20
75.9608
 11
15.2084
 21
75.8182
  0
LINE
  8
0
 10
15.2084
 20
75.8182
 11
14.7916
 21
75.8182
  0
LINE
  8
0
 10
12.7916
 20
51.8182
 11
12.4
 21
51.9608
  0
LINE
  8
0
 10
12.4
 20
51.9608
 11
12.0807
 21
52.2287
  0
LINE
  8
0
 10
12.0807
 20
52.2287
 11
11.8724
 21
52.5896
  0
LINE
  8
0
 10
11.8724
 20
52.5896
 11
11.8
 21
53
  0
LINE
  8
0
 10
11.8
 20
53
 11
11.8724
 21
53.4104
  0
LINE
  8
0
 10
11.8724
 20
53.4104
 11
12.0807
 21
53.7713
  0
LINE
  8
0
 10
12.0807
 20
53.7713
 11
12.4
 21
54.0392
  0
LINE
  8
0
 10
12.4
 20
54.0392
 11
12.7916
 21
54.1818
  0
LINE
  8
0
 10
12.7916
 20
54.1818
 11
13.2084
 21
54.1818
  0
LINE
  8
0
 10
13.2084
 20
54.1818
 11
13.6
 21
54.0392
  0
LINE
  8
0
 10
13.6
 20
54.0392
 11
13.9193
 21
53.7713
  0
LINE
  8
0
 10
13.9193
 20
53.7713
 11
14.1276
 21
53.4104
  0
LINE
  8
0
 10
14.1276
 20
53.4104
 11
14.2
 21
53
  0
LINE
  8
0
 10
14.2
 20
53
 11
14.1276
 21
52.5896
  0
LINE
  8
0
 10
14.1276
 20
52.5896
 11
13.9193
 21
52.2287
  0
LINE
  8
0
 10
13.9193
 20
52.2287
 11
13.6
 21
51.9608
  0
LINE
  8
0
 10
13.6
 20
51.9608
 11
13.2084
 21
51.8182
  0
LINE
  8
0
 10
13.2084
 20
51.8182
 11
12.7916
 21
51.8182
  0
LINE
  8
0
 10
10.7916
 20
27.8182
 11
10.4
 21
27.9608
  0
LINE
  8
0
 10
10.4
 20
27.9608
 11
10.0807
 21
28.2287
  0
LINE
  8
0
 10
10.0807
 20
28.2287
 11
9.87236
 21
28.5896
  0
LINE
  8
0
 10
9.87236
 20
28.5896
 11
9.79999
 21
29
  0
LINE
  8
0
 10
9.79999
 20
29
 11
9.87236
 21
29.4104
  0
LINE
  8
0
 10
9.87236
 20
29.4104
 11
10.0807
 21
29.7713
  0
LINE
  8
0
 10
10.0807
 20
29.7713
 11
10.4
 21
30.0392
  0
LINE
  8
0
 10
10.4
 20
30.0392
 11
10.7916
 21
30.1818
  0
LINE
  8
0
 10
10.7916
 20
30.1818
 11
11.2084
 21
30.1818
  0
LINE
  8
0
 10
11.2084
 20
30.1818
 11
11.6
 21
30.0392
  0
LINE
  8
0
 10
11.6
 20
30.0392
 11
11.9193
 21
29.7713
  0
LINE
  8
0
 10
11.9193
 20
29.7713
 11
12.1276
 21
29.4104
  0
LINE
  8
0
 10
12.1276
 20
29.4104
 11
12.2
 21
29
  0
LINE
  8
0
 10
12.2
 20
29
 11
12.1276
 21
28.5896
  0
LINE
  8
0
 10
12.1276
 20
28.5896
 11
11.9193
 21
28.2287
  0
LINE
  8
0
 10
11.9193
 20
28.2287
 11
11.6
 21
27.9608
  0
LINE
  8
0
 10
11.6
 20
27.9608
 11
11.2084
 21
27.8182
  0
LINE
  8
0
 10
11.2084
 20
27.8182
 11
10.7916
 21
27.8182
  0
LINE
  8
0
 10
10.7916
 20
19.8182
 11
10.4
 21
19.9608
  0
LINE
  8
0
 10
10.4
 20
19.9608
 11
10.0807
 21
20.2287
  0
LINE
  8
0
 10
10.0807
 20
20.2287
 11
9.87236
 21
20.5896
  0
LINE
  8
0
 10
9.87236
 20
20.5896
 11
9.79999
 21
21
  0
LINE
  8
0
 10
9.79999
 20
21
 11
9.87236
 21
21.4104
  0
LINE
  8
0
 10
9.87236
 20
21.4104
 11
10.0807
 21
21.7713
  0
LINE
  8
0
 10
10.0807
 20
21.7713
 11
10.4
 21
22.0392
  0
LINE
  8
0
 10
10.4
 20
22.0392
 11
10.7916
 21
22.1818
  0
LINE
  8
0
 10
10.7916
 20
22.1818
 11
11.2084
 21
22.1818
  0
LINE
  8
0
 10
11.2084
 20
22.1818
 11
11.6
 21
22.0392
  0
LINE
  8
0
 10
11.6
 20
22.0392
 11
11.9193
 21
21.7713
  0
LINE
  8
0
 10
11.9193
 20
21.7713
 11
12.1276
 21
21.4104
  0
LINE
  8
0
 10
12.1276
 20
21.4104
 11
12.2
 21
21
  0
LINE
  8
0
 10
12.2
 20
21
 11
12.1276
 21
20.5896
  0
LINE
  8
0
 10
12.1276
 20
20.5896
 11
11.9193
 21
20.2287
  0
LINE
  8
0
 10
11.9193
 20
20.2287
 11
11.6
 21
19.9608
  0
LINE
  8
0
 10
11.6
 20
19.9608
 11
11.2084
 21
19.8182
  0
LINE
  8
0
 10
11.2084
 20
19.8182
 11
10.7916
 21
19.8182
  0
ENDSEC
  0
SECTION
  2
OBJECTS
  0
DICTIONARY
  0
ENDSEC
  0
EOF
