  0
SECTION
  2
BLOCKS
  0
ENDSEC
  0
SECTION
  2
ENTITIES
  0
LINE
  8
0
 10
41
 20
930
 11
0
 21
930
  0
LINE
  8
0
 10
0
 20
930
 11
0
 21
0
  0
LINE
  8
0
 10
0
 20
0
 11
41
 21
0
  0
LINE
  8
0
 10
41
 20
0
 11
41
 21
930
  0
LINE
  8
0
 10
18.7916
 20
923.818
 11
18.4
 21
923.961
  0
LINE
  8
0
 10
18.4
 20
923.961
 11
18.0807
 21
924.229
  0
LINE
  8
0
 10
18.0807
 20
924.229
 11
17.8724
 21
924.59
  0
LINE
  8
0
 10
17.8724
 20
924.59
 11
17.8
 21
925
  0
LINE
  8
0
 10
17.8
 20
925
 11
17.8724
 21
925.41
  0
LINE
  8
0
 10
17.8724
 20
925.41
 11
18.0807
 21
925.771
  0
LINE
  8
0
 10
18.0807
 20
925.771
 11
18.4
 21
926.039
  0
LINE
  8
0
 10
18.4
 20
926.039
 11
18.7916
 21
926.182
  0
LINE
  8
0
 10
18.7916
 20
926.182
 11
19.2084
 21
926.182
  0
LINE
  8
0
 10
19.2084
 20
926.182
 11
19.6
 21
926.039
  0
LINE
  8
0
 10
19.6
 20
926.039
 11
19.9193
 21
925.771
  0
LINE
  8
0
 10
19.9193
 20
925.771
 11
20.1276
 21
925.41
  0
LINE
  8
0
 10
20.1276
 20
925.41
 11
20.2
 21
925
  0
LINE
  8
0
 10
20.2
 20
925
 11
20.1276
 21
924.59
  0
LINE
  8
0
 10
20.1276
 20
924.59
 11
19.9193
 21
924.229
  0
LINE
  8
0
 10
19.9193
 20
924.229
 11
19.6
 21
923.961
  0
LINE
  8
0
 10
19.6
 20
923.961
 11
19.2084
 21
923.818
  0
LINE
  8
0
 10
19.2084
 20
923.818
 11
18.7916
 21
923.818
  0
LINE
  8
0
 10
18.7916
 20
907.818
 11
18.4
 21
907.961
  0
LINE
  8
0
 10
18.4
 20
907.961
 11
18.0807
 21
908.229
  0
LINE
  8
0
 10
18.0807
 20
908.229
 11
17.8724
 21
908.59
  0
LINE
  8
0
 10
17.8724
 20
908.59
 11
17.8
 21
909
  0
LINE
  8
0
 10
17.8
 20
909
 11
17.8724
 21
909.41
  0
LINE
  8
0
 10
17.8724
 20
909.41
 11
18.0807
 21
909.771
  0
LINE
  8
0
 10
18.0807
 20
909.771
 11
18.4
 21
910.039
  0
LINE
  8
0
 10
18.4
 20
910.039
 11
18.7916
 21
910.182
  0
LINE
  8
0
 10
18.7916
 20
910.182
 11
19.2084
 21
910.182
  0
LINE
  8
0
 10
19.2084
 20
910.182
 11
19.6
 21
910.039
  0
LINE
  8
0
 10
19.6
 20
910.039
 11
19.9193
 21
909.771
  0
LINE
  8
0
 10
19.9193
 20
909.771
 11
20.1276
 21
909.41
  0
LINE
  8
0
 10
20.1276
 20
909.41
 11
20.2
 21
909
  0
LINE
  8
0
 10
20.2
 20
909
 11
20.1276
 21
908.59
  0
LINE
  8
0
 10
20.1276
 20
908.59
 11
19.9193
 21
908.229
  0
LINE
  8
0
 10
19.9193
 20
908.229
 11
19.6
 21
907.961
  0
LINE
  8
0
 10
19.6
 20
907.961
 11
19.2084
 21
907.818
  0
LINE
  8
0
 10
19.2084
 20
907.818
 11
18.7916
 21
907.818
  0
LINE
  8
0
 10
24.7916
 20
891.818
 11
24.4
 21
891.961
  0
LINE
  8
0
 10
24.4
 20
891.961
 11
24.0807
 21
892.229
  0
LINE
  8
0
 10
24.0807
 20
892.229
 11
23.8724
 21
892.59
  0
LINE
  8
0
 10
23.8724
 20
892.59
 11
23.8
 21
893
  0
LINE
  8
0
 10
23.8
 20
893
 11
23.8724
 21
893.41
  0
LINE
  8
0
 10
23.8724
 20
893.41
 11
24.0807
 21
893.771
  0
LINE
  8
0
 10
24.0807
 20
893.771
 11
24.4
 21
894.039
  0
LINE
  8
0
 10
24.4
 20
894.039
 11
24.7916
 21
894.182
  0
LINE
  8
0
 10
24.7916
 20
894.182
 11
25.2084
 21
894.182
  0
LINE
  8
0
 10
25.2084
 20
894.182
 11
25.6
 21
894.039
  0
LINE
  8
0
 10
25.6
 20
894.039
 11
25.9193
 21
893.771
  0
LINE
  8
0
 10
25.9193
 20
893.771
 11
26.1276
 21
893.41
  0
LINE
  8
0
 10
26.1276
 20
893.41
 11
26.2
 21
893
  0
LINE
  8
0
 10
26.2
 20
893
 11
26.1276
 21
892.59
  0
LINE
  8
0
 10
26.1276
 20
892.59
 11
25.9193
 21
892.229
  0
LINE
  8
0
 10
25.9193
 20
892.229
 11
25.6
 21
891.961
  0
LINE
  8
0
 10
25.6
 20
891.961
 11
25.2084
 21
891.818
  0
LINE
  8
0
 10
25.2084
 20
891.818
 11
24.7916
 21
891.818
  0
LINE
  8
0
 10
20.7916
 20
883.818
 11
20.4
 21
883.961
  0
LINE
  8
0
 10
20.4
 20
883.961
 11
20.0807
 21
884.229
  0
LINE
  8
0
 10
20.0807
 20
884.229
 11
19.8724
 21
884.59
  0
LINE
  8
0
 10
19.8724
 20
884.59
 11
19.8
 21
885
  0
LINE
  8
0
 10
19.8
 20
885
 11
19.8724
 21
885.41
  0
LINE
  8
0
 10
19.8724
 20
885.41
 11
20.0807
 21
885.771
  0
LINE
  8
0
 10
20.0807
 20
885.771
 11
20.4
 21
886.039
  0
LINE
  8
0
 10
20.4
 20
886.039
 11
20.7916
 21
886.182
  0
LINE
  8
0
 10
20.7916
 20
886.182
 11
21.2084
 21
886.182
  0
LINE
  8
0
 10
21.2084
 20
886.182
 11
21.6
 21
886.039
  0
LINE
  8
0
 10
21.6
 20
886.039
 11
21.9193
 21
885.771
  0
LINE
  8
0
 10
21.9193
 20
885.771
 11
22.1276
 21
885.41
  0
LINE
  8
0
 10
22.1276
 20
885.41
 11
22.2
 21
885
  0
LINE
  8
0
 10
22.2
 20
885
 11
22.1276
 21
884.59
  0
LINE
  8
0
 10
22.1276
 20
884.59
 11
21.9193
 21
884.229
  0
LINE
  8
0
 10
21.9193
 20
884.229
 11
21.6
 21
883.961
  0
LINE
  8
0
 10
21.6
 20
883.961
 11
21.2084
 21
883.818
  0
LINE
  8
0
 10
21.2084
 20
883.818
 11
20.7916
 21
883.818
  0
LINE
  8
0
 10
18.7916
 20
875.818
 11
18.4
 21
875.961
  0
LINE
  8
0
 10
18.4
 20
875.961
 11
18.0807
 21
876.229
  0
LINE
  8
0
 10
18.0807
 20
876.229
 11
17.8724
 21
876.59
  0
LINE
  8
0
 10
17.8724
 20
876.59
 11
17.8
 21
877
  0
LINE
  8
0
 10
17.8
 20
877
 11
17.8724
 21
877.41
  0
LINE
  8
0
 10
17.8724
 20
877.41
 11
18.0807
 21
877.771
  0
LINE
  8
0
 10
18.0807
 20
877.771
 11
18.4
 21
878.039
  0
LINE
  8
0
 10
18.4
 20
878.039
 11
18.7916
 21
878.182
  0
LINE
  8
0
 10
18.7916
 20
878.182
 11
19.2084
 21
878.182
  0
LINE
  8
0
 10
19.2084
 20
878.182
 11
19.6
 21
878.039
  0
LINE
  8
0
 10
19.6
 20
878.039
 11
19.9193
 21
877.771
  0
LINE
  8
0
 10
19.9193
 20
877.771
 11
20.1276
 21
877.41
  0
LINE
  8
0
 10
20.1276
 20
877.41
 11
20.2
 21
877
  0
LINE
  8
0
 10
20.2
 20
877
 11
20.1276
 21
876.59
  0
LINE
  8
0
 10
20.1276
 20
876.59
 11
19.9193
 21
876.229
  0
LINE
  8
0
 10
19.9193
 20
876.229
 11
19.6
 21
875.961
  0
LINE
  8
0
 10
19.6
 20
875.961
 11
19.2084
 21
875.818
  0
LINE
  8
0
 10
19.2084
 20
875.818
 11
18.7916
 21
875.818
  0
LINE
  8
0
 10
18.7916
 20
859.818
 11
18.4
 21
859.961
  0
LINE
  8
0
 10
18.4
 20
859.961
 11
18.0807
 21
860.229
  0
LINE
  8
0
 10
18.0807
 20
860.229
 11
17.8724
 21
860.59
  0
LINE
  8
0
 10
17.8724
 20
860.59
 11
17.8
 21
861
  0
LINE
  8
0
 10
17.8
 20
861
 11
17.8724
 21
861.41
  0
LINE
  8
0
 10
17.8724
 20
861.41
 11
18.0807
 21
861.771
  0
LINE
  8
0
 10
18.0807
 20
861.771
 11
18.4
 21
862.039
  0
LINE
  8
0
 10
18.4
 20
862.039
 11
18.7916
 21
862.182
  0
LINE
  8
0
 10
18.7916
 20
862.182
 11
19.2084
 21
862.182
  0
LINE
  8
0
 10
19.2084
 20
862.182
 11
19.6
 21
862.039
  0
LINE
  8
0
 10
19.6
 20
862.039
 11
19.9193
 21
861.771
  0
LINE
  8
0
 10
19.9193
 20
861.771
 11
20.1276
 21
861.41
  0
LINE
  8
0
 10
20.1276
 20
861.41
 11
20.2
 21
861
  0
LINE
  8
0
 10
20.2
 20
861
 11
20.1276
 21
860.59
  0
LINE
  8
0
 10
20.1276
 20
860.59
 11
19.9193
 21
860.229
  0
LINE
  8
0
 10
19.9193
 20
860.229
 11
19.6
 21
859.961
  0
LINE
  8
0
 10
19.6
 20
859.961
 11
19.2084
 21
859.818
  0
LINE
  8
0
 10
19.2084
 20
859.818
 11
18.7916
 21
859.818
  0
LINE
  8
0
 10
18.7916
 20
843.818
 11
18.4
 21
843.961
  0
LINE
  8
0
 10
18.4
 20
843.961
 11
18.0807
 21
844.229
  0
LINE
  8
0
 10
18.0807
 20
844.229
 11
17.8724
 21
844.59
  0
LINE
  8
0
 10
17.8724
 20
844.59
 11
17.8
 21
845
  0
LINE
  8
0
 10
17.8
 20
845
 11
17.8724
 21
845.41
  0
LINE
  8
0
 10
17.8724
 20
845.41
 11
18.0807
 21
845.771
  0
LINE
  8
0
 10
18.0807
 20
845.771
 11
18.4
 21
846.039
  0
LINE
  8
0
 10
18.4
 20
846.039
 11
18.7916
 21
846.182
  0
LINE
  8
0
 10
18.7916
 20
846.182
 11
19.2084
 21
846.182
  0
LINE
  8
0
 10
19.2084
 20
846.182
 11
19.6
 21
846.039
  0
LINE
  8
0
 10
19.6
 20
846.039
 11
19.9193
 21
845.771
  0
LINE
  8
0
 10
19.9193
 20
845.771
 11
20.1276
 21
845.41
  0
LINE
  8
0
 10
20.1276
 20
845.41
 11
20.2
 21
845
  0
LINE
  8
0
 10
20.2
 20
845
 11
20.1276
 21
844.59
  0
LINE
  8
0
 10
20.1276
 20
844.59
 11
19.9193
 21
844.229
  0
LINE
  8
0
 10
19.9193
 20
844.229
 11
19.6
 21
843.961
  0
LINE
  8
0
 10
19.6
 20
843.961
 11
19.2084
 21
843.818
  0
LINE
  8
0
 10
19.2084
 20
843.818
 11
18.7916
 21
843.818
  0
LINE
  8
0
 10
28.7916
 20
787.818
 11
28.4
 21
787.961
  0
LINE
  8
0
 10
28.4
 20
787.961
 11
28.0807
 21
788.229
  0
LINE
  8
0
 10
28.0807
 20
788.229
 11
27.8724
 21
788.59
  0
LINE
  8
0
 10
27.8724
 20
788.59
 11
27.8
 21
789
  0
LINE
  8
0
 10
27.8
 20
789
 11
27.8724
 21
789.41
  0
LINE
  8
0
 10
27.8724
 20
789.41
 11
28.0807
 21
789.771
  0
LINE
  8
0
 10
28.0807
 20
789.771
 11
28.4
 21
790.039
  0
LINE
  8
0
 10
28.4
 20
790.039
 11
28.7916
 21
790.182
  0
LINE
  8
0
 10
28.7916
 20
790.182
 11
29.2084
 21
790.182
  0
LINE
  8
0
 10
29.2084
 20
790.182
 11
29.6
 21
790.039
  0
LINE
  8
0
 10
29.6
 20
790.039
 11
29.9193
 21
789.771
  0
LINE
  8
0
 10
29.9193
 20
789.771
 11
30.1276
 21
789.41
  0
LINE
  8
0
 10
30.1276
 20
789.41
 11
30.2
 21
789
  0
LINE
  8
0
 10
30.2
 20
789
 11
30.1276
 21
788.59
  0
LINE
  8
0
 10
30.1276
 20
788.59
 11
29.9193
 21
788.229
  0
LINE
  8
0
 10
29.9193
 20
788.229
 11
29.6
 21
787.961
  0
LINE
  8
0
 10
29.6
 20
787.961
 11
29.2084
 21
787.818
  0
LINE
  8
0
 10
29.2084
 20
787.818
 11
28.7916
 21
787.818
  0
LINE
  8
0
 10
24.7916
 20
771.818
 11
24.4
 21
771.961
  0
LINE
  8
0
 10
24.4
 20
771.961
 11
24.0807
 21
772.229
  0
LINE
  8
0
 10
24.0807
 20
772.229
 11
23.8724
 21
772.59
  0
LINE
  8
0
 10
23.8724
 20
772.59
 11
23.8
 21
773
  0
LINE
  8
0
 10
23.8
 20
773
 11
23.8724
 21
773.41
  0
LINE
  8
0
 10
23.8724
 20
773.41
 11
24.0807
 21
773.771
  0
LINE
  8
0
 10
24.0807
 20
773.771
 11
24.4
 21
774.039
  0
LINE
  8
0
 10
24.4
 20
774.039
 11
24.7916
 21
774.182
  0
LINE
  8
0
 10
24.7916
 20
774.182
 11
25.2084
 21
774.182
  0
LINE
  8
0
 10
25.2084
 20
774.182
 11
25.6
 21
774.039
  0
LINE
  8
0
 10
25.6
 20
774.039
 11
25.9193
 21
773.771
  0
LINE
  8
0
 10
25.9193
 20
773.771
 11
26.1276
 21
773.41
  0
LINE
  8
0
 10
26.1276
 20
773.41
 11
26.2
 21
773
  0
LINE
  8
0
 10
26.2
 20
773
 11
26.1276
 21
772.59
  0
LINE
  8
0
 10
26.1276
 20
772.59
 11
25.9193
 21
772.229
  0
LINE
  8
0
 10
25.9193
 20
772.229
 11
25.6
 21
771.961
  0
LINE
  8
0
 10
25.6
 20
771.961
 11
25.2084
 21
771.818
  0
LINE
  8
0
 10
25.2084
 20
771.818
 11
24.7916
 21
771.818
  0
LINE
  8
0
 10
22.7916
 20
755.818
 11
22.4
 21
755.961
  0
LINE
  8
0
 10
22.4
 20
755.961
 11
22.0807
 21
756.229
  0
LINE
  8
0
 10
22.0807
 20
756.229
 11
21.8724
 21
756.59
  0
LINE
  8
0
 10
21.8724
 20
756.59
 11
21.8
 21
757
  0
LINE
  8
0
 10
21.8
 20
757
 11
21.8724
 21
757.41
  0
LINE
  8
0
 10
21.8724
 20
757.41
 11
22.0807
 21
757.771
  0
LINE
  8
0
 10
22.0807
 20
757.771
 11
22.4
 21
758.039
  0
LINE
  8
0
 10
22.4
 20
758.039
 11
22.7916
 21
758.182
  0
LINE
  8
0
 10
22.7916
 20
758.182
 11
23.2084
 21
758.182
  0
LINE
  8
0
 10
23.2084
 20
758.182
 11
23.6
 21
758.039
  0
LINE
  8
0
 10
23.6
 20
758.039
 11
23.9193
 21
757.771
  0
LINE
  8
0
 10
23.9193
 20
757.771
 11
24.1276
 21
757.41
  0
LINE
  8
0
 10
24.1276
 20
757.41
 11
24.2
 21
757
  0
LINE
  8
0
 10
24.2
 20
757
 11
24.1276
 21
756.59
  0
LINE
  8
0
 10
24.1276
 20
756.59
 11
23.9193
 21
756.229
  0
LINE
  8
0
 10
23.9193
 20
756.229
 11
23.6
 21
755.961
  0
LINE
  8
0
 10
23.6
 20
755.961
 11
23.2084
 21
755.818
  0
LINE
  8
0
 10
23.2084
 20
755.818
 11
22.7916
 21
755.818
  0
LINE
  8
0
 10
20.7916
 20
747.818
 11
20.4
 21
747.961
  0
LINE
  8
0
 10
20.4
 20
747.961
 11
20.0807
 21
748.229
  0
LINE
  8
0
 10
20.0807
 20
748.229
 11
19.8724
 21
748.59
  0
LINE
  8
0
 10
19.8724
 20
748.59
 11
19.8
 21
749
  0
LINE
  8
0
 10
19.8
 20
749
 11
19.8724
 21
749.41
  0
LINE
  8
0
 10
19.8724
 20
749.41
 11
20.0807
 21
749.771
  0
LINE
  8
0
 10
20.0807
 20
749.771
 11
20.4
 21
750.039
  0
LINE
  8
0
 10
20.4
 20
750.039
 11
20.7916
 21
750.182
  0
LINE
  8
0
 10
20.7916
 20
750.182
 11
21.2084
 21
750.182
  0
LINE
  8
0
 10
21.2084
 20
750.182
 11
21.6
 21
750.039
  0
LINE
  8
0
 10
21.6
 20
750.039
 11
21.9193
 21
749.771
  0
LINE
  8
0
 10
21.9193
 20
749.771
 11
22.1276
 21
749.41
  0
LINE
  8
0
 10
22.1276
 20
749.41
 11
22.2
 21
749
  0
LINE
  8
0
 10
22.2
 20
749
 11
22.1276
 21
748.59
  0
LINE
  8
0
 10
22.1276
 20
748.59
 11
21.9193
 21
748.229
  0
LINE
  8
0
 10
21.9193
 20
748.229
 11
21.6
 21
747.961
  0
LINE
  8
0
 10
21.6
 20
747.961
 11
21.2084
 21
747.818
  0
LINE
  8
0
 10
21.2084
 20
747.818
 11
20.7916
 21
747.818
  0
LINE
  8
0
 10
20.7916
 20
731.818
 11
20.4
 21
731.961
  0
LINE
  8
0
 10
20.4
 20
731.961
 11
20.0807
 21
732.229
  0
LINE
  8
0
 10
20.0807
 20
732.229
 11
19.8724
 21
732.59
  0
LINE
  8
0
 10
19.8724
 20
732.59
 11
19.8
 21
733
  0
LINE
  8
0
 10
19.8
 20
733
 11
19.8724
 21
733.41
  0
LINE
  8
0
 10
19.8724
 20
733.41
 11
20.0807
 21
733.771
  0
LINE
  8
0
 10
20.0807
 20
733.771
 11
20.4
 21
734.039
  0
LINE
  8
0
 10
20.4
 20
734.039
 11
20.7916
 21
734.182
  0
LINE
  8
0
 10
20.7916
 20
734.182
 11
21.2084
 21
734.182
  0
LINE
  8
0
 10
21.2084
 20
734.182
 11
21.6
 21
734.039
  0
LINE
  8
0
 10
21.6
 20
734.039
 11
21.9193
 21
733.771
  0
LINE
  8
0
 10
21.9193
 20
733.771
 11
22.1276
 21
733.41
  0
LINE
  8
0
 10
22.1276
 20
733.41
 11
22.2
 21
733
  0
LINE
  8
0
 10
22.2
 20
733
 11
22.1276
 21
732.59
  0
LINE
  8
0
 10
22.1276
 20
732.59
 11
21.9193
 21
732.229
  0
LINE
  8
0
 10
21.9193
 20
732.229
 11
21.6
 21
731.961
  0
LINE
  8
0
 10
21.6
 20
731.961
 11
21.2084
 21
731.818
  0
LINE
  8
0
 10
21.2084
 20
731.818
 11
20.7916
 21
731.818
  0
LINE
  8
0
 10
20.7916
 20
715.818
 11
20.4
 21
715.961
  0
LINE
  8
0
 10
20.4
 20
715.961
 11
20.0807
 21
716.229
  0
LINE
  8
0
 10
20.0807
 20
716.229
 11
19.8724
 21
716.59
  0
LINE
  8
0
 10
19.8724
 20
716.59
 11
19.8
 21
717
  0
LINE
  8
0
 10
19.8
 20
717
 11
19.8724
 21
717.41
  0
LINE
  8
0
 10
19.8724
 20
717.41
 11
20.0807
 21
717.771
  0
LINE
  8
0
 10
20.0807
 20
717.771
 11
20.4
 21
718.039
  0
LINE
  8
0
 10
20.4
 20
718.039
 11
20.7916
 21
718.182
  0
LINE
  8
0
 10
20.7916
 20
718.182
 11
21.2084
 21
718.182
  0
LINE
  8
0
 10
21.2084
 20
718.182
 11
21.6
 21
718.039
  0
LINE
  8
0
 10
21.6
 20
718.039
 11
21.9193
 21
717.771
  0
LINE
  8
0
 10
21.9193
 20
717.771
 11
22.1276
 21
717.41
  0
LINE
  8
0
 10
22.1276
 20
717.41
 11
22.2
 21
717
  0
LINE
  8
0
 10
22.2
 20
717
 11
22.1276
 21
716.59
  0
LINE
  8
0
 10
22.1276
 20
716.59
 11
21.9193
 21
716.229
  0
LINE
  8
0
 10
21.9193
 20
716.229
 11
21.6
 21
715.961
  0
LINE
  8
0
 10
21.6
 20
715.961
 11
21.2084
 21
715.818
  0
LINE
  8
0
 10
21.2084
 20
715.818
 11
20.7916
 21
715.818
  0
LINE
  8
0
 10
24.7916
 20
699.818
 11
24.4
 21
699.961
  0
LINE
  8
0
 10
24.4
 20
699.961
 11
24.0807
 21
700.229
  0
LINE
  8
0
 10
24.0807
 20
700.229
 11
23.8724
 21
700.59
  0
LINE
  8
0
 10
23.8724
 20
700.59
 11
23.8
 21
701
  0
LINE
  8
0
 10
23.8
 20
701
 11
23.8724
 21
701.41
  0
LINE
  8
0
 10
23.8724
 20
701.41
 11
24.0807
 21
701.771
  0
LINE
  8
0
 10
24.0807
 20
701.771
 11
24.4
 21
702.039
  0
LINE
  8
0
 10
24.4
 20
702.039
 11
24.7916
 21
702.182
  0
LINE
  8
0
 10
24.7916
 20
702.182
 11
25.2084
 21
702.182
  0
LINE
  8
0
 10
25.2084
 20
702.182
 11
25.6
 21
702.039
  0
LINE
  8
0
 10
25.6
 20
702.039
 11
25.9193
 21
701.771
  0
LINE
  8
0
 10
25.9193
 20
701.771
 11
26.1276
 21
701.41
  0
LINE
  8
0
 10
26.1276
 20
701.41
 11
26.2
 21
701
  0
LINE
  8
0
 10
26.2
 20
701
 11
26.1276
 21
700.59
  0
LINE
  8
0
 10
26.1276
 20
700.59
 11
25.9193
 21
700.229
  0
LINE
  8
0
 10
25.9193
 20
700.229
 11
25.6
 21
699.961
  0
LINE
  8
0
 10
25.6
 20
699.961
 11
25.2084
 21
699.818
  0
LINE
  8
0
 10
25.2084
 20
699.818
 11
24.7916
 21
699.818
  0
LINE
  8
0
 10
20.7916
 20
691.818
 11
20.4
 21
691.961
  0
LINE
  8
0
 10
20.4
 20
691.961
 11
20.0807
 21
692.229
  0
LINE
  8
0
 10
20.0807
 20
692.229
 11
19.8724
 21
692.59
  0
LINE
  8
0
 10
19.8724
 20
692.59
 11
19.8
 21
693
  0
LINE
  8
0
 10
19.8
 20
693
 11
19.8724
 21
693.41
  0
LINE
  8
0
 10
19.8724
 20
693.41
 11
20.0807
 21
693.771
  0
LINE
  8
0
 10
20.0807
 20
693.771
 11
20.4
 21
694.039
  0
LINE
  8
0
 10
20.4
 20
694.039
 11
20.7916
 21
694.182
  0
LINE
  8
0
 10
20.7916
 20
694.182
 11
21.2084
 21
694.182
  0
LINE
  8
0
 10
21.2084
 20
694.182
 11
21.6
 21
694.039
  0
LINE
  8
0
 10
21.6
 20
694.039
 11
21.9193
 21
693.771
  0
LINE
  8
0
 10
21.9193
 20
693.771
 11
22.1276
 21
693.41
  0
LINE
  8
0
 10
22.1276
 20
693.41
 11
22.2
 21
693
  0
LINE
  8
0
 10
22.2
 20
693
 11
22.1276
 21
692.59
  0
LINE
  8
0
 10
22.1276
 20
692.59
 11
21.9193
 21
692.229
  0
LINE
  8
0
 10
21.9193
 20
692.229
 11
21.6
 21
691.961
  0
LINE
  8
0
 10
21.6
 20
691.961
 11
21.2084
 21
691.818
  0
LINE
  8
0
 10
21.2084
 20
691.818
 11
20.7916
 21
691.818
  0
LINE
  8
0
 10
18.7916
 20
683.818
 11
18.4
 21
683.961
  0
LINE
  8
0
 10
18.4
 20
683.961
 11
18.0807
 21
684.229
  0
LINE
  8
0
 10
18.0807
 20
684.229
 11
17.8724
 21
684.59
  0
LINE
  8
0
 10
17.8724
 20
684.59
 11
17.8
 21
685
  0
LINE
  8
0
 10
17.8
 20
685
 11
17.8724
 21
685.41
  0
LINE
  8
0
 10
17.8724
 20
685.41
 11
18.0807
 21
685.771
  0
LINE
  8
0
 10
18.0807
 20
685.771
 11
18.4
 21
686.039
  0
LINE
  8
0
 10
18.4
 20
686.039
 11
18.7916
 21
686.182
  0
LINE
  8
0
 10
18.7916
 20
686.182
 11
19.2084
 21
686.182
  0
LINE
  8
0
 10
19.2084
 20
686.182
 11
19.6
 21
686.039
  0
LINE
  8
0
 10
19.6
 20
686.039
 11
19.9193
 21
685.771
  0
LINE
  8
0
 10
19.9193
 20
685.771
 11
20.1276
 21
685.41
  0
LINE
  8
0
 10
20.1276
 20
685.41
 11
20.2
 21
685
  0
LINE
  8
0
 10
20.2
 20
685
 11
20.1276
 21
684.59
  0
LINE
  8
0
 10
20.1276
 20
684.59
 11
19.9193
 21
684.229
  0
LINE
  8
0
 10
19.9193
 20
684.229
 11
19.6
 21
683.961
  0
LINE
  8
0
 10
19.6
 20
683.961
 11
19.2084
 21
683.818
  0
LINE
  8
0
 10
19.2084
 20
683.818
 11
18.7916
 21
683.818
  0
LINE
  8
0
 10
18.7916
 20
667.818
 11
18.4
 21
667.961
  0
LINE
  8
0
 10
18.4
 20
667.961
 11
18.0807
 21
668.229
  0
LINE
  8
0
 10
18.0807
 20
668.229
 11
17.8724
 21
668.59
  0
LINE
  8
0
 10
17.8724
 20
668.59
 11
17.8
 21
669
  0
LINE
  8
0
 10
17.8
 20
669
 11
17.8724
 21
669.41
  0
LINE
  8
0
 10
17.8724
 20
669.41
 11
18.0807
 21
669.771
  0
LINE
  8
0
 10
18.0807
 20
669.771
 11
18.4
 21
670.039
  0
LINE
  8
0
 10
18.4
 20
670.039
 11
18.7916
 21
670.182
  0
LINE
  8
0
 10
18.7916
 20
670.182
 11
19.2084
 21
670.182
  0
LINE
  8
0
 10
19.2084
 20
670.182
 11
19.6
 21
670.039
  0
LINE
  8
0
 10
19.6
 20
670.039
 11
19.9193
 21
669.771
  0
LINE
  8
0
 10
19.9193
 20
669.771
 11
20.1276
 21
669.41
  0
LINE
  8
0
 10
20.1276
 20
669.41
 11
20.2
 21
669
  0
LINE
  8
0
 10
20.2
 20
669
 11
20.1276
 21
668.59
  0
LINE
  8
0
 10
20.1276
 20
668.59
 11
19.9193
 21
668.229
  0
LINE
  8
0
 10
19.9193
 20
668.229
 11
19.6
 21
667.961
  0
LINE
  8
0
 10
19.6
 20
667.961
 11
19.2084
 21
667.818
  0
LINE
  8
0
 10
19.2084
 20
667.818
 11
18.7916
 21
667.818
  0
LINE
  8
0
 10
18.7916
 20
651.818
 11
18.4
 21
651.961
  0
LINE
  8
0
 10
18.4
 20
651.961
 11
18.0807
 21
652.229
  0
LINE
  8
0
 10
18.0807
 20
652.229
 11
17.8724
 21
652.59
  0
LINE
  8
0
 10
17.8724
 20
652.59
 11
17.8
 21
653
  0
LINE
  8
0
 10
17.8
 20
653
 11
17.8724
 21
653.41
  0
LINE
  8
0
 10
17.8724
 20
653.41
 11
18.0807
 21
653.771
  0
LINE
  8
0
 10
18.0807
 20
653.771
 11
18.4
 21
654.039
  0
LINE
  8
0
 10
18.4
 20
654.039
 11
18.7916
 21
654.182
  0
LINE
  8
0
 10
18.7916
 20
654.182
 11
19.2084
 21
654.182
  0
LINE
  8
0
 10
19.2084
 20
654.182
 11
19.6
 21
654.039
  0
LINE
  8
0
 10
19.6
 20
654.039
 11
19.9193
 21
653.771
  0
LINE
  8
0
 10
19.9193
 20
653.771
 11
20.1276
 21
653.41
  0
LINE
  8
0
 10
20.1276
 20
653.41
 11
20.2
 21
653
  0
LINE
  8
0
 10
20.2
 20
653
 11
20.1276
 21
652.59
  0
LINE
  8
0
 10
20.1276
 20
652.59
 11
19.9193
 21
652.229
  0
LINE
  8
0
 10
19.9193
 20
652.229
 11
19.6
 21
651.961
  0
LINE
  8
0
 10
19.6
 20
651.961
 11
19.2084
 21
651.818
  0
LINE
  8
0
 10
19.2084
 20
651.818
 11
18.7916
 21
651.818
  0
LINE
  8
0
 10
24.7916
 20
635.818
 11
24.4
 21
635.961
  0
LINE
  8
0
 10
24.4
 20
635.961
 11
24.0807
 21
636.229
  0
LINE
  8
0
 10
24.0807
 20
636.229
 11
23.8724
 21
636.59
  0
LINE
  8
0
 10
23.8724
 20
636.59
 11
23.8
 21
637
  0
LINE
  8
0
 10
23.8
 20
637
 11
23.8724
 21
637.41
  0
LINE
  8
0
 10
23.8724
 20
637.41
 11
24.0807
 21
637.771
  0
LINE
  8
0
 10
24.0807
 20
637.771
 11
24.4
 21
638.039
  0
LINE
  8
0
 10
24.4
 20
638.039
 11
24.7916
 21
638.182
  0
LINE
  8
0
 10
24.7916
 20
638.182
 11
25.2084
 21
638.182
  0
LINE
  8
0
 10
25.2084
 20
638.182
 11
25.6
 21
638.039
  0
LINE
  8
0
 10
25.6
 20
638.039
 11
25.9193
 21
637.771
  0
LINE
  8
0
 10
25.9193
 20
637.771
 11
26.1276
 21
637.41
  0
LINE
  8
0
 10
26.1276
 20
637.41
 11
26.2
 21
637
  0
LINE
  8
0
 10
26.2
 20
637
 11
26.1276
 21
636.59
  0
LINE
  8
0
 10
26.1276
 20
636.59
 11
25.9193
 21
636.229
  0
LINE
  8
0
 10
25.9193
 20
636.229
 11
25.6
 21
635.961
  0
LINE
  8
0
 10
25.6
 20
635.961
 11
25.2084
 21
635.818
  0
LINE
  8
0
 10
25.2084
 20
635.818
 11
24.7916
 21
635.818
  0
LINE
  8
0
 10
20.7916
 20
627.818
 11
20.4
 21
627.961
  0
LINE
  8
0
 10
20.4
 20
627.961
 11
20.0807
 21
628.229
  0
LINE
  8
0
 10
20.0807
 20
628.229
 11
19.8724
 21
628.59
  0
LINE
  8
0
 10
19.8724
 20
628.59
 11
19.8
 21
629
  0
LINE
  8
0
 10
19.8
 20
629
 11
19.8724
 21
629.41
  0
LINE
  8
0
 10
19.8724
 20
629.41
 11
20.0807
 21
629.771
  0
LINE
  8
0
 10
20.0807
 20
629.771
 11
20.4
 21
630.039
  0
LINE
  8
0
 10
20.4
 20
630.039
 11
20.7916
 21
630.182
  0
LINE
  8
0
 10
20.7916
 20
630.182
 11
21.2084
 21
630.182
  0
LINE
  8
0
 10
21.2084
 20
630.182
 11
21.6
 21
630.039
  0
LINE
  8
0
 10
21.6
 20
630.039
 11
21.9193
 21
629.771
  0
LINE
  8
0
 10
21.9193
 20
629.771
 11
22.1276
 21
629.41
  0
LINE
  8
0
 10
22.1276
 20
629.41
 11
22.2
 21
629
  0
LINE
  8
0
 10
22.2
 20
629
 11
22.1276
 21
628.59
  0
LINE
  8
0
 10
22.1276
 20
628.59
 11
21.9193
 21
628.229
  0
LINE
  8
0
 10
21.9193
 20
628.229
 11
21.6
 21
627.961
  0
LINE
  8
0
 10
21.6
 20
627.961
 11
21.2084
 21
627.818
  0
LINE
  8
0
 10
21.2084
 20
627.818
 11
20.7916
 21
627.818
  0
LINE
  8
0
 10
18.7916
 20
619.818
 11
18.4
 21
619.961
  0
LINE
  8
0
 10
18.4
 20
619.961
 11
18.0807
 21
620.229
  0
LINE
  8
0
 10
18.0807
 20
620.229
 11
17.8724
 21
620.59
  0
LINE
  8
0
 10
17.8724
 20
620.59
 11
17.8
 21
621
  0
LINE
  8
0
 10
17.8
 20
621
 11
17.8724
 21
621.41
  0
LINE
  8
0
 10
17.8724
 20
621.41
 11
18.0807
 21
621.771
  0
LINE
  8
0
 10
18.0807
 20
621.771
 11
18.4
 21
622.039
  0
LINE
  8
0
 10
18.4
 20
622.039
 11
18.7916
 21
622.182
  0
LINE
  8
0
 10
18.7916
 20
622.182
 11
19.2084
 21
622.182
  0
LINE
  8
0
 10
19.2084
 20
622.182
 11
19.6
 21
622.039
  0
LINE
  8
0
 10
19.6
 20
622.039
 11
19.9193
 21
621.771
  0
LINE
  8
0
 10
19.9193
 20
621.771
 11
20.1276
 21
621.41
  0
LINE
  8
0
 10
20.1276
 20
621.41
 11
20.2
 21
621
  0
LINE
  8
0
 10
20.2
 20
621
 11
20.1276
 21
620.59
  0
LINE
  8
0
 10
20.1276
 20
620.59
 11
19.9193
 21
620.229
  0
LINE
  8
0
 10
19.9193
 20
620.229
 11
19.6
 21
619.961
  0
LINE
  8
0
 10
19.6
 20
619.961
 11
19.2084
 21
619.818
  0
LINE
  8
0
 10
19.2084
 20
619.818
 11
18.7916
 21
619.818
  0
LINE
  8
0
 10
18.7916
 20
603.818
 11
18.4
 21
603.961
  0
LINE
  8
0
 10
18.4
 20
603.961
 11
18.0807
 21
604.229
  0
LINE
  8
0
 10
18.0807
 20
604.229
 11
17.8724
 21
604.59
  0
LINE
  8
0
 10
17.8724
 20
604.59
 11
17.8
 21
605
  0
LINE
  8
0
 10
17.8
 20
605
 11
17.8724
 21
605.41
  0
LINE
  8
0
 10
17.8724
 20
605.41
 11
18.0807
 21
605.771
  0
LINE
  8
0
 10
18.0807
 20
605.771
 11
18.4
 21
606.039
  0
LINE
  8
0
 10
18.4
 20
606.039
 11
18.7916
 21
606.182
  0
LINE
  8
0
 10
18.7916
 20
606.182
 11
19.2084
 21
606.182
  0
LINE
  8
0
 10
19.2084
 20
606.182
 11
19.6
 21
606.039
  0
LINE
  8
0
 10
19.6
 20
606.039
 11
19.9193
 21
605.771
  0
LINE
  8
0
 10
19.9193
 20
605.771
 11
20.1276
 21
605.41
  0
LINE
  8
0
 10
20.1276
 20
605.41
 11
20.2
 21
605
  0
LINE
  8
0
 10
20.2
 20
605
 11
20.1276
 21
604.59
  0
LINE
  8
0
 10
20.1276
 20
604.59
 11
19.9193
 21
604.229
  0
LINE
  8
0
 10
19.9193
 20
604.229
 11
19.6
 21
603.961
  0
LINE
  8
0
 10
19.6
 20
603.961
 11
19.2084
 21
603.818
  0
LINE
  8
0
 10
19.2084
 20
603.818
 11
18.7916
 21
603.818
  0
LINE
  8
0
 10
18.7916
 20
587.818
 11
18.4
 21
587.961
  0
LINE
  8
0
 10
18.4
 20
587.961
 11
18.0807
 21
588.229
  0
LINE
  8
0
 10
18.0807
 20
588.229
 11
17.8724
 21
588.59
  0
LINE
  8
0
 10
17.8724
 20
588.59
 11
17.8
 21
589
  0
LINE
  8
0
 10
17.8
 20
589
 11
17.8724
 21
589.41
  0
LINE
  8
0
 10
17.8724
 20
589.41
 11
18.0807
 21
589.771
  0
LINE
  8
0
 10
18.0807
 20
589.771
 11
18.4
 21
590.039
  0
LINE
  8
0
 10
18.4
 20
590.039
 11
18.7916
 21
590.182
  0
LINE
  8
0
 10
18.7916
 20
590.182
 11
19.2084
 21
590.182
  0
LINE
  8
0
 10
19.2084
 20
590.182
 11
19.6
 21
590.039
  0
LINE
  8
0
 10
19.6
 20
590.039
 11
19.9193
 21
589.771
  0
LINE
  8
0
 10
19.9193
 20
589.771
 11
20.1276
 21
589.41
  0
LINE
  8
0
 10
20.1276
 20
589.41
 11
20.2
 21
589
  0
LINE
  8
0
 10
20.2
 20
589
 11
20.1276
 21
588.59
  0
LINE
  8
0
 10
20.1276
 20
588.59
 11
19.9193
 21
588.229
  0
LINE
  8
0
 10
19.9193
 20
588.229
 11
19.6
 21
587.961
  0
LINE
  8
0
 10
19.6
 20
587.961
 11
19.2084
 21
587.818
  0
LINE
  8
0
 10
19.2084
 20
587.818
 11
18.7916
 21
587.818
  0
LINE
  8
0
 10
18.7916
 20
531.818
 11
18.4
 21
531.961
  0
LINE
  8
0
 10
18.4
 20
531.961
 11
18.0807
 21
532.229
  0
LINE
  8
0
 10
18.0807
 20
532.229
 11
17.8724
 21
532.59
  0
LINE
  8
0
 10
17.8724
 20
532.59
 11
17.8
 21
533
  0
LINE
  8
0
 10
17.8
 20
533
 11
17.8724
 21
533.41
  0
LINE
  8
0
 10
17.8724
 20
533.41
 11
18.0807
 21
533.771
  0
LINE
  8
0
 10
18.0807
 20
533.771
 11
18.4
 21
534.039
  0
LINE
  8
0
 10
18.4
 20
534.039
 11
18.7916
 21
534.182
  0
LINE
  8
0
 10
18.7916
 20
534.182
 11
19.2084
 21
534.182
  0
LINE
  8
0
 10
19.2084
 20
534.182
 11
19.6
 21
534.039
  0
LINE
  8
0
 10
19.6
 20
534.039
 11
19.9193
 21
533.771
  0
LINE
  8
0
 10
19.9193
 20
533.771
 11
20.1276
 21
533.41
  0
LINE
  8
0
 10
20.1276
 20
533.41
 11
20.2
 21
533
  0
LINE
  8
0
 10
20.2
 20
533
 11
20.1276
 21
532.59
  0
LINE
  8
0
 10
20.1276
 20
532.59
 11
19.9193
 21
532.229
  0
LINE
  8
0
 10
19.9193
 20
532.229
 11
19.6
 21
531.961
  0
LINE
  8
0
 10
19.6
 20
531.961
 11
19.2084
 21
531.818
  0
LINE
  8
0
 10
19.2084
 20
531.818
 11
18.7916
 21
531.818
  0
LINE
  8
0
 10
14.7916
 20
515.818
 11
14.4
 21
515.961
  0
LINE
  8
0
 10
14.4
 20
515.961
 11
14.0807
 21
516.229
  0
LINE
  8
0
 10
14.0807
 20
516.229
 11
13.8724
 21
516.59
  0
LINE
  8
0
 10
13.8724
 20
516.59
 11
13.8
 21
517
  0
LINE
  8
0
 10
13.8
 20
517
 11
13.8724
 21
517.41
  0
LINE
  8
0
 10
13.8724
 20
517.41
 11
14.0807
 21
517.771
  0
LINE
  8
0
 10
14.0807
 20
517.771
 11
14.4
 21
518.039
  0
LINE
  8
0
 10
14.4
 20
518.039
 11
14.7916
 21
518.182
  0
LINE
  8
0
 10
14.7916
 20
518.182
 11
15.2084
 21
518.182
  0
LINE
  8
0
 10
15.2084
 20
518.182
 11
15.6
 21
518.039
  0
LINE
  8
0
 10
15.6
 20
518.039
 11
15.9193
 21
517.771
  0
LINE
  8
0
 10
15.9193
 20
517.771
 11
16.1276
 21
517.41
  0
LINE
  8
0
 10
16.1276
 20
517.41
 11
16.2
 21
517
  0
LINE
  8
0
 10
16.2
 20
517
 11
16.1276
 21
516.59
  0
LINE
  8
0
 10
16.1276
 20
516.59
 11
15.9193
 21
516.229
  0
LINE
  8
0
 10
15.9193
 20
516.229
 11
15.6
 21
515.961
  0
LINE
  8
0
 10
15.6
 20
515.961
 11
15.2084
 21
515.818
  0
LINE
  8
0
 10
15.2084
 20
515.818
 11
14.7916
 21
515.818
  0
LINE
  8
0
 10
16.7916
 20
507.818
 11
16.4
 21
507.961
  0
LINE
  8
0
 10
16.4
 20
507.961
 11
16.0807
 21
508.229
  0
LINE
  8
0
 10
16.0807
 20
508.229
 11
15.8724
 21
508.59
  0
LINE
  8
0
 10
15.8724
 20
508.59
 11
15.8
 21
509
  0
LINE
  8
0
 10
15.8
 20
509
 11
15.8724
 21
509.41
  0
LINE
  8
0
 10
15.8724
 20
509.41
 11
16.0807
 21
509.771
  0
LINE
  8
0
 10
16.0807
 20
509.771
 11
16.4
 21
510.039
  0
LINE
  8
0
 10
16.4
 20
510.039
 11
16.7916
 21
510.182
  0
LINE
  8
0
 10
16.7916
 20
510.182
 11
17.2084
 21
510.182
  0
LINE
  8
0
 10
17.2084
 20
510.182
 11
17.6
 21
510.039
  0
LINE
  8
0
 10
17.6
 20
510.039
 11
17.9193
 21
509.771
  0
LINE
  8
0
 10
17.9193
 20
509.771
 11
18.1276
 21
509.41
  0
LINE
  8
0
 10
18.1276
 20
509.41
 11
18.2
 21
509
  0
LINE
  8
0
 10
18.2
 20
509
 11
18.1276
 21
508.59
  0
LINE
  8
0
 10
18.1276
 20
508.59
 11
17.9193
 21
508.229
  0
LINE
  8
0
 10
17.9193
 20
508.229
 11
17.6
 21
507.961
  0
LINE
  8
0
 10
17.6
 20
507.961
 11
17.2084
 21
507.818
  0
LINE
  8
0
 10
17.2084
 20
507.818
 11
16.7916
 21
507.818
  0
LINE
  8
0
 10
18.7916
 20
499.818
 11
18.4
 21
499.961
  0
LINE
  8
0
 10
18.4
 20
499.961
 11
18.0807
 21
500.229
  0
LINE
  8
0
 10
18.0807
 20
500.229
 11
17.8724
 21
500.59
  0
LINE
  8
0
 10
17.8724
 20
500.59
 11
17.8
 21
501
  0
LINE
  8
0
 10
17.8
 20
501
 11
17.8724
 21
501.41
  0
LINE
  8
0
 10
17.8724
 20
501.41
 11
18.0807
 21
501.771
  0
LINE
  8
0
 10
18.0807
 20
501.771
 11
18.4
 21
502.039
  0
LINE
  8
0
 10
18.4
 20
502.039
 11
18.7916
 21
502.182
  0
LINE
  8
0
 10
18.7916
 20
502.182
 11
19.2084
 21
502.182
  0
LINE
  8
0
 10
19.2084
 20
502.182
 11
19.6
 21
502.039
  0
LINE
  8
0
 10
19.6
 20
502.039
 11
19.9193
 21
501.771
  0
LINE
  8
0
 10
19.9193
 20
501.771
 11
20.1276
 21
501.41
  0
LINE
  8
0
 10
20.1276
 20
501.41
 11
20.2
 21
501
  0
LINE
  8
0
 10
20.2
 20
501
 11
20.1276
 21
500.59
  0
LINE
  8
0
 10
20.1276
 20
500.59
 11
19.9193
 21
500.229
  0
LINE
  8
0
 10
19.9193
 20
500.229
 11
19.6
 21
499.961
  0
LINE
  8
0
 10
19.6
 20
499.961
 11
19.2084
 21
499.818
  0
LINE
  8
0
 10
19.2084
 20
499.818
 11
18.7916
 21
499.818
  0
LINE
  8
0
 10
16.7916
 20
491.818
 11
16.4
 21
491.961
  0
LINE
  8
0
 10
16.4
 20
491.961
 11
16.0807
 21
492.229
  0
LINE
  8
0
 10
16.0807
 20
492.229
 11
15.8724
 21
492.59
  0
LINE
  8
0
 10
15.8724
 20
492.59
 11
15.8
 21
493
  0
LINE
  8
0
 10
15.8
 20
493
 11
15.8724
 21
493.41
  0
LINE
  8
0
 10
15.8724
 20
493.41
 11
16.0807
 21
493.771
  0
LINE
  8
0
 10
16.0807
 20
493.771
 11
16.4
 21
494.039
  0
LINE
  8
0
 10
16.4
 20
494.039
 11
16.7916
 21
494.182
  0
LINE
  8
0
 10
16.7916
 20
494.182
 11
17.2084
 21
494.182
  0
LINE
  8
0
 10
17.2084
 20
494.182
 11
17.6
 21
494.039
  0
LINE
  8
0
 10
17.6
 20
494.039
 11
17.9193
 21
493.771
  0
LINE
  8
0
 10
17.9193
 20
493.771
 11
18.1276
 21
493.41
  0
LINE
  8
0
 10
18.1276
 20
493.41
 11
18.2
 21
493
  0
LINE
  8
0
 10
18.2
 20
493
 11
18.1276
 21
492.59
  0
LINE
  8
0
 10
18.1276
 20
492.59
 11
17.9193
 21
492.229
  0
LINE
  8
0
 10
17.9193
 20
492.229
 11
17.6
 21
491.961
  0
LINE
  8
0
 10
17.6
 20
491.961
 11
17.2084
 21
491.818
  0
LINE
  8
0
 10
17.2084
 20
491.818
 11
16.7916
 21
491.818
  0
LINE
  8
0
 10
18.7916
 20
467.818
 11
18.4
 21
467.961
  0
LINE
  8
0
 10
18.4
 20
467.961
 11
18.0807
 21
468.229
  0
LINE
  8
0
 10
18.0807
 20
468.229
 11
17.8724
 21
468.59
  0
LINE
  8
0
 10
17.8724
 20
468.59
 11
17.8
 21
469
  0
LINE
  8
0
 10
17.8
 20
469
 11
17.8724
 21
469.41
  0
LINE
  8
0
 10
17.8724
 20
469.41
 11
18.0807
 21
469.771
  0
LINE
  8
0
 10
18.0807
 20
469.771
 11
18.4
 21
470.039
  0
LINE
  8
0
 10
18.4
 20
470.039
 11
18.7916
 21
470.182
  0
LINE
  8
0
 10
18.7916
 20
470.182
 11
19.2084
 21
470.182
  0
LINE
  8
0
 10
19.2084
 20
470.182
 11
19.6
 21
470.039
  0
LINE
  8
0
 10
19.6
 20
470.039
 11
19.9193
 21
469.771
  0
LINE
  8
0
 10
19.9193
 20
469.771
 11
20.1276
 21
469.41
  0
LINE
  8
0
 10
20.1276
 20
469.41
 11
20.2
 21
469
  0
LINE
  8
0
 10
20.2
 20
469
 11
20.1276
 21
468.59
  0
LINE
  8
0
 10
20.1276
 20
468.59
 11
19.9193
 21
468.229
  0
LINE
  8
0
 10
19.9193
 20
468.229
 11
19.6
 21
467.961
  0
LINE
  8
0
 10
19.6
 20
467.961
 11
19.2084
 21
467.818
  0
LINE
  8
0
 10
19.2084
 20
467.818
 11
18.7916
 21
467.818
  0
LINE
  8
0
 10
16.7916
 20
451.818
 11
16.4
 21
451.961
  0
LINE
  8
0
 10
16.4
 20
451.961
 11
16.0807
 21
452.229
  0
LINE
  8
0
 10
16.0807
 20
452.229
 11
15.8724
 21
452.59
  0
LINE
  8
0
 10
15.8724
 20
452.59
 11
15.8
 21
453
  0
LINE
  8
0
 10
15.8
 20
453
 11
15.8724
 21
453.41
  0
LINE
  8
0
 10
15.8724
 20
453.41
 11
16.0807
 21
453.771
  0
LINE
  8
0
 10
16.0807
 20
453.771
 11
16.4
 21
454.039
  0
LINE
  8
0
 10
16.4
 20
454.039
 11
16.7916
 21
454.182
  0
LINE
  8
0
 10
16.7916
 20
454.182
 11
17.2084
 21
454.182
  0
LINE
  8
0
 10
17.2084
 20
454.182
 11
17.6
 21
454.039
  0
LINE
  8
0
 10
17.6
 20
454.039
 11
17.9193
 21
453.771
  0
LINE
  8
0
 10
17.9193
 20
453.771
 11
18.1276
 21
453.41
  0
LINE
  8
0
 10
18.1276
 20
453.41
 11
18.2
 21
453
  0
LINE
  8
0
 10
18.2
 20
453
 11
18.1276
 21
452.59
  0
LINE
  8
0
 10
18.1276
 20
452.59
 11
17.9193
 21
452.229
  0
LINE
  8
0
 10
17.9193
 20
452.229
 11
17.6
 21
451.961
  0
LINE
  8
0
 10
17.6
 20
451.961
 11
17.2084
 21
451.818
  0
LINE
  8
0
 10
17.2084
 20
451.818
 11
16.7916
 21
451.818
  0
LINE
  8
0
 10
20.7916
 20
443.818
 11
20.4
 21
443.961
  0
LINE
  8
0
 10
20.4
 20
443.961
 11
20.0807
 21
444.229
  0
LINE
  8
0
 10
20.0807
 20
444.229
 11
19.8724
 21
444.59
  0
LINE
  8
0
 10
19.8724
 20
444.59
 11
19.8
 21
445
  0
LINE
  8
0
 10
19.8
 20
445
 11
19.8724
 21
445.41
  0
LINE
  8
0
 10
19.8724
 20
445.41
 11
20.0807
 21
445.771
  0
LINE
  8
0
 10
20.0807
 20
445.771
 11
20.4
 21
446.039
  0
LINE
  8
0
 10
20.4
 20
446.039
 11
20.7916
 21
446.182
  0
LINE
  8
0
 10
20.7916
 20
446.182
 11
21.2084
 21
446.182
  0
LINE
  8
0
 10
21.2084
 20
446.182
 11
21.6
 21
446.039
  0
LINE
  8
0
 10
21.6
 20
446.039
 11
21.9193
 21
445.771
  0
LINE
  8
0
 10
21.9193
 20
445.771
 11
22.1276
 21
445.41
  0
LINE
  8
0
 10
22.1276
 20
445.41
 11
22.2
 21
445
  0
LINE
  8
0
 10
22.2
 20
445
 11
22.1276
 21
444.59
  0
LINE
  8
0
 10
22.1276
 20
444.59
 11
21.9193
 21
444.229
  0
LINE
  8
0
 10
21.9193
 20
444.229
 11
21.6
 21
443.961
  0
LINE
  8
0
 10
21.6
 20
443.961
 11
21.2084
 21
443.818
  0
LINE
  8
0
 10
21.2084
 20
443.818
 11
20.7916
 21
443.818
  0
LINE
  8
0
 10
20.7916
 20
427.818
 11
20.4
 21
427.961
  0
LINE
  8
0
 10
20.4
 20
427.961
 11
20.0807
 21
428.229
  0
LINE
  8
0
 10
20.0807
 20
428.229
 11
19.8724
 21
428.59
  0
LINE
  8
0
 10
19.8724
 20
428.59
 11
19.8
 21
429
  0
LINE
  8
0
 10
19.8
 20
429
 11
19.8724
 21
429.41
  0
LINE
  8
0
 10
19.8724
 20
429.41
 11
20.0807
 21
429.771
  0
LINE
  8
0
 10
20.0807
 20
429.771
 11
20.4
 21
430.039
  0
LINE
  8
0
 10
20.4
 20
430.039
 11
20.7916
 21
430.182
  0
LINE
  8
0
 10
20.7916
 20
430.182
 11
21.2084
 21
430.182
  0
LINE
  8
0
 10
21.2084
 20
430.182
 11
21.6
 21
430.039
  0
LINE
  8
0
 10
21.6
 20
430.039
 11
21.9193
 21
429.771
  0
LINE
  8
0
 10
21.9193
 20
429.771
 11
22.1276
 21
429.41
  0
LINE
  8
0
 10
22.1276
 20
429.41
 11
22.2
 21
429
  0
LINE
  8
0
 10
22.2
 20
429
 11
22.1276
 21
428.59
  0
LINE
  8
0
 10
22.1276
 20
428.59
 11
21.9193
 21
428.229
  0
LINE
  8
0
 10
21.9193
 20
428.229
 11
21.6
 21
427.961
  0
LINE
  8
0
 10
21.6
 20
427.961
 11
21.2084
 21
427.818
  0
LINE
  8
0
 10
21.2084
 20
427.818
 11
20.7916
 21
427.818
  0
LINE
  8
0
 10
10.7916
 20
411.818
 11
10.4
 21
411.961
  0
LINE
  8
0
 10
10.4
 20
411.961
 11
10.0807
 21
412.229
  0
LINE
  8
0
 10
10.0807
 20
412.229
 11
9.87236
 21
412.59
  0
LINE
  8
0
 10
9.87236
 20
412.59
 11
9.79999
 21
413
  0
LINE
  8
0
 10
9.79999
 20
413
 11
9.87236
 21
413.41
  0
LINE
  8
0
 10
9.87236
 20
413.41
 11
10.0807
 21
413.771
  0
LINE
  8
0
 10
10.0807
 20
413.771
 11
10.4
 21
414.039
  0
LINE
  8
0
 10
10.4
 20
414.039
 11
10.7916
 21
414.182
  0
LINE
  8
0
 10
10.7916
 20
414.182
 11
11.2084
 21
414.182
  0
LINE
  8
0
 10
11.2084
 20
414.182
 11
11.6
 21
414.039
  0
LINE
  8
0
 10
11.6
 20
414.039
 11
11.9193
 21
413.771
  0
LINE
  8
0
 10
11.9193
 20
413.771
 11
12.1276
 21
413.41
  0
LINE
  8
0
 10
12.1276
 20
413.41
 11
12.2
 21
413
  0
LINE
  8
0
 10
12.2
 20
413
 11
12.1276
 21
412.59
  0
LINE
  8
0
 10
12.1276
 20
412.59
 11
11.9193
 21
412.229
  0
LINE
  8
0
 10
11.9193
 20
412.229
 11
11.6
 21
411.961
  0
LINE
  8
0
 10
11.6
 20
411.961
 11
11.2084
 21
411.818
  0
LINE
  8
0
 10
11.2084
 20
411.818
 11
10.7916
 21
411.818
  0
LINE
  8
0
 10
20.7916
 20
395.818
 11
20.4
 21
395.961
  0
LINE
  8
0
 10
20.4
 20
395.961
 11
20.0807
 21
396.229
  0
LINE
  8
0
 10
20.0807
 20
396.229
 11
19.8724
 21
396.59
  0
LINE
  8
0
 10
19.8724
 20
396.59
 11
19.8
 21
397
  0
LINE
  8
0
 10
19.8
 20
397
 11
19.8724
 21
397.41
  0
LINE
  8
0
 10
19.8724
 20
397.41
 11
20.0807
 21
397.771
  0
LINE
  8
0
 10
20.0807
 20
397.771
 11
20.4
 21
398.039
  0
LINE
  8
0
 10
20.4
 20
398.039
 11
20.7916
 21
398.182
  0
LINE
  8
0
 10
20.7916
 20
398.182
 11
21.2084
 21
398.182
  0
LINE
  8
0
 10
21.2084
 20
398.182
 11
21.6
 21
398.039
  0
LINE
  8
0
 10
21.6
 20
398.039
 11
21.9193
 21
397.771
  0
LINE
  8
0
 10
21.9193
 20
397.771
 11
22.1276
 21
397.41
  0
LINE
  8
0
 10
22.1276
 20
397.41
 11
22.2
 21
397
  0
LINE
  8
0
 10
22.2
 20
397
 11
22.1276
 21
396.59
  0
LINE
  8
0
 10
22.1276
 20
396.59
 11
21.9193
 21
396.229
  0
LINE
  8
0
 10
21.9193
 20
396.229
 11
21.6
 21
395.961
  0
LINE
  8
0
 10
21.6
 20
395.961
 11
21.2084
 21
395.818
  0
LINE
  8
0
 10
21.2084
 20
395.818
 11
20.7916
 21
395.818
  0
LINE
  8
0
 10
10.7916
 20
379.818
 11
10.4
 21
379.961
  0
LINE
  8
0
 10
10.4
 20
379.961
 11
10.0807
 21
380.229
  0
LINE
  8
0
 10
10.0807
 20
380.229
 11
9.87236
 21
380.59
  0
LINE
  8
0
 10
9.87236
 20
380.59
 11
9.79999
 21
381
  0
LINE
  8
0
 10
9.79999
 20
381
 11
9.87236
 21
381.41
  0
LINE
  8
0
 10
9.87236
 20
381.41
 11
10.0807
 21
381.771
  0
LINE
  8
0
 10
10.0807
 20
381.771
 11
10.4
 21
382.039
  0
LINE
  8
0
 10
10.4
 20
382.039
 11
10.7916
 21
382.182
  0
LINE
  8
0
 10
10.7916
 20
382.182
 11
11.2084
 21
382.182
  0
LINE
  8
0
 10
11.2084
 20
382.182
 11
11.6
 21
382.039
  0
LINE
  8
0
 10
11.6
 20
382.039
 11
11.9193
 21
381.771
  0
LINE
  8
0
 10
11.9193
 20
381.771
 11
12.1276
 21
381.41
  0
LINE
  8
0
 10
12.1276
 20
381.41
 11
12.2
 21
381
  0
LINE
  8
0
 10
12.2
 20
381
 11
12.1276
 21
380.59
  0
LINE
  8
0
 10
12.1276
 20
380.59
 11
11.9193
 21
380.229
  0
LINE
  8
0
 10
11.9193
 20
380.229
 11
11.6
 21
379.961
  0
LINE
  8
0
 10
11.6
 20
379.961
 11
11.2084
 21
379.818
  0
LINE
  8
0
 10
11.2084
 20
379.818
 11
10.7916
 21
379.818
  0
LINE
  8
0
 10
18.7916
 20
363.818
 11
18.4
 21
363.961
  0
LINE
  8
0
 10
18.4
 20
363.961
 11
18.0807
 21
364.229
  0
LINE
  8
0
 10
18.0807
 20
364.229
 11
17.8724
 21
364.59
  0
LINE
  8
0
 10
17.8724
 20
364.59
 11
17.8
 21
365
  0
LINE
  8
0
 10
17.8
 20
365
 11
17.8724
 21
365.41
  0
LINE
  8
0
 10
17.8724
 20
365.41
 11
18.0807
 21
365.771
  0
LINE
  8
0
 10
18.0807
 20
365.771
 11
18.4
 21
366.039
  0
LINE
  8
0
 10
18.4
 20
366.039
 11
18.7916
 21
366.182
  0
LINE
  8
0
 10
18.7916
 20
366.182
 11
19.2084
 21
366.182
  0
LINE
  8
0
 10
19.2084
 20
366.182
 11
19.6
 21
366.039
  0
LINE
  8
0
 10
19.6
 20
366.039
 11
19.9193
 21
365.771
  0
LINE
  8
0
 10
19.9193
 20
365.771
 11
20.1276
 21
365.41
  0
LINE
  8
0
 10
20.1276
 20
365.41
 11
20.2
 21
365
  0
LINE
  8
0
 10
20.2
 20
365
 11
20.1276
 21
364.59
  0
LINE
  8
0
 10
20.1276
 20
364.59
 11
19.9193
 21
364.229
  0
LINE
  8
0
 10
19.9193
 20
364.229
 11
19.6
 21
363.961
  0
LINE
  8
0
 10
19.6
 20
363.961
 11
19.2084
 21
363.818
  0
LINE
  8
0
 10
19.2084
 20
363.818
 11
18.7916
 21
363.818
  0
LINE
  8
0
 10
10.7916
 20
347.818
 11
10.4
 21
347.961
  0
LINE
  8
0
 10
10.4
 20
347.961
 11
10.0807
 21
348.229
  0
LINE
  8
0
 10
10.0807
 20
348.229
 11
9.87236
 21
348.59
  0
LINE
  8
0
 10
9.87236
 20
348.59
 11
9.79999
 21
349
  0
LINE
  8
0
 10
9.79999
 20
349
 11
9.87236
 21
349.41
  0
LINE
  8
0
 10
9.87236
 20
349.41
 11
10.0807
 21
349.771
  0
LINE
  8
0
 10
10.0807
 20
349.771
 11
10.4
 21
350.039
  0
LINE
  8
0
 10
10.4
 20
350.039
 11
10.7916
 21
350.182
  0
LINE
  8
0
 10
10.7916
 20
350.182
 11
11.2084
 21
350.182
  0
LINE
  8
0
 10
11.2084
 20
350.182
 11
11.6
 21
350.039
  0
LINE
  8
0
 10
11.6
 20
350.039
 11
11.9193
 21
349.771
  0
LINE
  8
0
 10
11.9193
 20
349.771
 11
12.1276
 21
349.41
  0
LINE
  8
0
 10
12.1276
 20
349.41
 11
12.2
 21
349
  0
LINE
  8
0
 10
12.2
 20
349
 11
12.1276
 21
348.59
  0
LINE
  8
0
 10
12.1276
 20
348.59
 11
11.9193
 21
348.229
  0
LINE
  8
0
 10
11.9193
 20
348.229
 11
11.6
 21
347.961
  0
LINE
  8
0
 10
11.6
 20
347.961
 11
11.2084
 21
347.818
  0
LINE
  8
0
 10
11.2084
 20
347.818
 11
10.7916
 21
347.818
  0
LINE
  8
0
 10
18.7916
 20
331.818
 11
18.4
 21
331.961
  0
LINE
  8
0
 10
18.4
 20
331.961
 11
18.0807
 21
332.229
  0
LINE
  8
0
 10
18.0807
 20
332.229
 11
17.8724
 21
332.59
  0
LINE
  8
0
 10
17.8724
 20
332.59
 11
17.8
 21
333
  0
LINE
  8
0
 10
17.8
 20
333
 11
17.8724
 21
333.41
  0
LINE
  8
0
 10
17.8724
 20
333.41
 11
18.0807
 21
333.771
  0
LINE
  8
0
 10
18.0807
 20
333.771
 11
18.4
 21
334.039
  0
LINE
  8
0
 10
18.4
 20
334.039
 11
18.7916
 21
334.182
  0
LINE
  8
0
 10
18.7916
 20
334.182
 11
19.2084
 21
334.182
  0
LINE
  8
0
 10
19.2084
 20
334.182
 11
19.6
 21
334.039
  0
LINE
  8
0
 10
19.6
 20
334.039
 11
19.9193
 21
333.771
  0
LINE
  8
0
 10
19.9193
 20
333.771
 11
20.1276
 21
333.41
  0
LINE
  8
0
 10
20.1276
 20
333.41
 11
20.2
 21
333
  0
LINE
  8
0
 10
20.2
 20
333
 11
20.1276
 21
332.59
  0
LINE
  8
0
 10
20.1276
 20
332.59
 11
19.9193
 21
332.229
  0
LINE
  8
0
 10
19.9193
 20
332.229
 11
19.6
 21
331.961
  0
LINE
  8
0
 10
19.6
 20
331.961
 11
19.2084
 21
331.818
  0
LINE
  8
0
 10
19.2084
 20
331.818
 11
18.7916
 21
331.818
  0
LINE
  8
0
 10
10.7916
 20
315.818
 11
10.4
 21
315.961
  0
LINE
  8
0
 10
10.4
 20
315.961
 11
10.0807
 21
316.229
  0
LINE
  8
0
 10
10.0807
 20
316.229
 11
9.87236
 21
316.59
  0
LINE
  8
0
 10
9.87236
 20
316.59
 11
9.79999
 21
317
  0
LINE
  8
0
 10
9.79999
 20
317
 11
9.87236
 21
317.41
  0
LINE
  8
0
 10
9.87236
 20
317.41
 11
10.0807
 21
317.771
  0
LINE
  8
0
 10
10.0807
 20
317.771
 11
10.4
 21
318.039
  0
LINE
  8
0
 10
10.4
 20
318.039
 11
10.7916
 21
318.182
  0
LINE
  8
0
 10
10.7916
 20
318.182
 11
11.2084
 21
318.182
  0
LINE
  8
0
 10
11.2084
 20
318.182
 11
11.6
 21
318.039
  0
LINE
  8
0
 10
11.6
 20
318.039
 11
11.9193
 21
317.771
  0
LINE
  8
0
 10
11.9193
 20
317.771
 11
12.1276
 21
317.41
  0
LINE
  8
0
 10
12.1276
 20
317.41
 11
12.2
 21
317
  0
LINE
  8
0
 10
12.2
 20
317
 11
12.1276
 21
316.59
  0
LINE
  8
0
 10
12.1276
 20
316.59
 11
11.9193
 21
316.229
  0
LINE
  8
0
 10
11.9193
 20
316.229
 11
11.6
 21
315.961
  0
LINE
  8
0
 10
11.6
 20
315.961
 11
11.2084
 21
315.818
  0
LINE
  8
0
 10
11.2084
 20
315.818
 11
10.7916
 21
315.818
  0
LINE
  8
0
 10
18.7916
 20
275.818
 11
18.4
 21
275.961
  0
LINE
  8
0
 10
18.4
 20
275.961
 11
18.0807
 21
276.229
  0
LINE
  8
0
 10
18.0807
 20
276.229
 11
17.8724
 21
276.59
  0
LINE
  8
0
 10
17.8724
 20
276.59
 11
17.8
 21
277
  0
LINE
  8
0
 10
17.8
 20
277
 11
17.8724
 21
277.41
  0
LINE
  8
0
 10
17.8724
 20
277.41
 11
18.0807
 21
277.771
  0
LINE
  8
0
 10
18.0807
 20
277.771
 11
18.4
 21
278.039
  0
LINE
  8
0
 10
18.4
 20
278.039
 11
18.7916
 21
278.182
  0
LINE
  8
0
 10
18.7916
 20
278.182
 11
19.2084
 21
278.182
  0
LINE
  8
0
 10
19.2084
 20
278.182
 11
19.6
 21
278.039
  0
LINE
  8
0
 10
19.6
 20
278.039
 11
19.9193
 21
277.771
  0
LINE
  8
0
 10
19.9193
 20
277.771
 11
20.1276
 21
277.41
  0
LINE
  8
0
 10
20.1276
 20
277.41
 11
20.2
 21
277
  0
LINE
  8
0
 10
20.2
 20
277
 11
20.1276
 21
276.59
  0
LINE
  8
0
 10
20.1276
 20
276.59
 11
19.9193
 21
276.229
  0
LINE
  8
0
 10
19.9193
 20
276.229
 11
19.6
 21
275.961
  0
LINE
  8
0
 10
19.6
 20
275.961
 11
19.2084
 21
275.818
  0
LINE
  8
0
 10
19.2084
 20
275.818
 11
18.7916
 21
275.818
  0
LINE
  8
0
 10
14.7916
 20
259.818
 11
14.4
 21
259.961
  0
LINE
  8
0
 10
14.4
 20
259.961
 11
14.0807
 21
260.229
  0
LINE
  8
0
 10
14.0807
 20
260.229
 11
13.8724
 21
260.59
  0
LINE
  8
0
 10
13.8724
 20
260.59
 11
13.8
 21
261
  0
LINE
  8
0
 10
13.8
 20
261
 11
13.8724
 21
261.41
  0
LINE
  8
0
 10
13.8724
 20
261.41
 11
14.0807
 21
261.771
  0
LINE
  8
0
 10
14.0807
 20
261.771
 11
14.4
 21
262.039
  0
LINE
  8
0
 10
14.4
 20
262.039
 11
14.7916
 21
262.182
  0
LINE
  8
0
 10
14.7916
 20
262.182
 11
15.2084
 21
262.182
  0
LINE
  8
0
 10
15.2084
 20
262.182
 11
15.6
 21
262.039
  0
LINE
  8
0
 10
15.6
 20
262.039
 11
15.9193
 21
261.771
  0
LINE
  8
0
 10
15.9193
 20
261.771
 11
16.1276
 21
261.41
  0
LINE
  8
0
 10
16.1276
 20
261.41
 11
16.2
 21
261
  0
LINE
  8
0
 10
16.2
 20
261
 11
16.1276
 21
260.59
  0
LINE
  8
0
 10
16.1276
 20
260.59
 11
15.9193
 21
260.229
  0
LINE
  8
0
 10
15.9193
 20
260.229
 11
15.6
 21
259.961
  0
LINE
  8
0
 10
15.6
 20
259.961
 11
15.2084
 21
259.818
  0
LINE
  8
0
 10
15.2084
 20
259.818
 11
14.7916
 21
259.818
  0
LINE
  8
0
 10
16.7916
 20
251.818
 11
16.4
 21
251.961
  0
LINE
  8
0
 10
16.4
 20
251.961
 11
16.0807
 21
252.229
  0
LINE
  8
0
 10
16.0807
 20
252.229
 11
15.8724
 21
252.59
  0
LINE
  8
0
 10
15.8724
 20
252.59
 11
15.8
 21
253
  0
LINE
  8
0
 10
15.8
 20
253
 11
15.8724
 21
253.41
  0
LINE
  8
0
 10
15.8724
 20
253.41
 11
16.0807
 21
253.771
  0
LINE
  8
0
 10
16.0807
 20
253.771
 11
16.4
 21
254.039
  0
LINE
  8
0
 10
16.4
 20
254.039
 11
16.7916
 21
254.182
  0
LINE
  8
0
 10
16.7916
 20
254.182
 11
17.2084
 21
254.182
  0
LINE
  8
0
 10
17.2084
 20
254.182
 11
17.6
 21
254.039
  0
LINE
  8
0
 10
17.6
 20
254.039
 11
17.9193
 21
253.771
  0
LINE
  8
0
 10
17.9193
 20
253.771
 11
18.1276
 21
253.41
  0
LINE
  8
0
 10
18.1276
 20
253.41
 11
18.2
 21
253
  0
LINE
  8
0
 10
18.2
 20
253
 11
18.1276
 21
252.59
  0
LINE
  8
0
 10
18.1276
 20
252.59
 11
17.9193
 21
252.229
  0
LINE
  8
0
 10
17.9193
 20
252.229
 11
17.6
 21
251.961
  0
LINE
  8
0
 10
17.6
 20
251.961
 11
17.2084
 21
251.818
  0
LINE
  8
0
 10
17.2084
 20
251.818
 11
16.7916
 21
251.818
  0
LINE
  8
0
 10
18.7916
 20
243.818
 11
18.4
 21
243.961
  0
LINE
  8
0
 10
18.4
 20
243.961
 11
18.0807
 21
244.229
  0
LINE
  8
0
 10
18.0807
 20
244.229
 11
17.8724
 21
244.59
  0
LINE
  8
0
 10
17.8724
 20
244.59
 11
17.8
 21
245
  0
LINE
  8
0
 10
17.8
 20
245
 11
17.8724
 21
245.41
  0
LINE
  8
0
 10
17.8724
 20
245.41
 11
18.0807
 21
245.771
  0
LINE
  8
0
 10
18.0807
 20
245.771
 11
18.4
 21
246.039
  0
LINE
  8
0
 10
18.4
 20
246.039
 11
18.7916
 21
246.182
  0
LINE
  8
0
 10
18.7916
 20
246.182
 11
19.2084
 21
246.182
  0
LINE
  8
0
 10
19.2084
 20
246.182
 11
19.6
 21
246.039
  0
LINE
  8
0
 10
19.6
 20
246.039
 11
19.9193
 21
245.771
  0
LINE
  8
0
 10
19.9193
 20
245.771
 11
20.1276
 21
245.41
  0
LINE
  8
0
 10
20.1276
 20
245.41
 11
20.2
 21
245
  0
LINE
  8
0
 10
20.2
 20
245
 11
20.1276
 21
244.59
  0
LINE
  8
0
 10
20.1276
 20
244.59
 11
19.9193
 21
244.229
  0
LINE
  8
0
 10
19.9193
 20
244.229
 11
19.6
 21
243.961
  0
LINE
  8
0
 10
19.6
 20
243.961
 11
19.2084
 21
243.818
  0
LINE
  8
0
 10
19.2084
 20
243.818
 11
18.7916
 21
243.818
  0
LINE
  8
0
 10
16.7916
 20
235.818
 11
16.4
 21
235.961
  0
LINE
  8
0
 10
16.4
 20
235.961
 11
16.0807
 21
236.229
  0
LINE
  8
0
 10
16.0807
 20
236.229
 11
15.8724
 21
236.59
  0
LINE
  8
0
 10
15.8724
 20
236.59
 11
15.8
 21
237
  0
LINE
  8
0
 10
15.8
 20
237
 11
15.8724
 21
237.41
  0
LINE
  8
0
 10
15.8724
 20
237.41
 11
16.0807
 21
237.771
  0
LINE
  8
0
 10
16.0807
 20
237.771
 11
16.4
 21
238.039
  0
LINE
  8
0
 10
16.4
 20
238.039
 11
16.7916
 21
238.182
  0
LINE
  8
0
 10
16.7916
 20
238.182
 11
17.2084
 21
238.182
  0
LINE
  8
0
 10
17.2084
 20
238.182
 11
17.6
 21
238.039
  0
LINE
  8
0
 10
17.6
 20
238.039
 11
17.9193
 21
237.771
  0
LINE
  8
0
 10
17.9193
 20
237.771
 11
18.1276
 21
237.41
  0
LINE
  8
0
 10
18.1276
 20
237.41
 11
18.2
 21
237
  0
LINE
  8
0
 10
18.2
 20
237
 11
18.1276
 21
236.59
  0
LINE
  8
0
 10
18.1276
 20
236.59
 11
17.9193
 21
236.229
  0
LINE
  8
0
 10
17.9193
 20
236.229
 11
17.6
 21
235.961
  0
LINE
  8
0
 10
17.6
 20
235.961
 11
17.2084
 21
235.818
  0
LINE
  8
0
 10
17.2084
 20
235.818
 11
16.7916
 21
235.818
  0
LINE
  8
0
 10
18.7916
 20
211.818
 11
18.4
 21
211.961
  0
LINE
  8
0
 10
18.4
 20
211.961
 11
18.0807
 21
212.229
  0
LINE
  8
0
 10
18.0807
 20
212.229
 11
17.8724
 21
212.59
  0
LINE
  8
0
 10
17.8724
 20
212.59
 11
17.8
 21
213
  0
LINE
  8
0
 10
17.8
 20
213
 11
17.8724
 21
213.41
  0
LINE
  8
0
 10
17.8724
 20
213.41
 11
18.0807
 21
213.771
  0
LINE
  8
0
 10
18.0807
 20
213.771
 11
18.4
 21
214.039
  0
LINE
  8
0
 10
18.4
 20
214.039
 11
18.7916
 21
214.182
  0
LINE
  8
0
 10
18.7916
 20
214.182
 11
19.2084
 21
214.182
  0
LINE
  8
0
 10
19.2084
 20
214.182
 11
19.6
 21
214.039
  0
LINE
  8
0
 10
19.6
 20
214.039
 11
19.9193
 21
213.771
  0
LINE
  8
0
 10
19.9193
 20
213.771
 11
20.1276
 21
213.41
  0
LINE
  8
0
 10
20.1276
 20
213.41
 11
20.2
 21
213
  0
LINE
  8
0
 10
20.2
 20
213
 11
20.1276
 21
212.59
  0
LINE
  8
0
 10
20.1276
 20
212.59
 11
19.9193
 21
212.229
  0
LINE
  8
0
 10
19.9193
 20
212.229
 11
19.6
 21
211.961
  0
LINE
  8
0
 10
19.6
 20
211.961
 11
19.2084
 21
211.818
  0
LINE
  8
0
 10
19.2084
 20
211.818
 11
18.7916
 21
211.818
  0
LINE
  8
0
 10
16.7916
 20
195.818
 11
16.4
 21
195.961
  0
LINE
  8
0
 10
16.4
 20
195.961
 11
16.0807
 21
196.229
  0
LINE
  8
0
 10
16.0807
 20
196.229
 11
15.8724
 21
196.59
  0
LINE
  8
0
 10
15.8724
 20
196.59
 11
15.8
 21
197
  0
LINE
  8
0
 10
15.8
 20
197
 11
15.8724
 21
197.41
  0
LINE
  8
0
 10
15.8724
 20
197.41
 11
16.0807
 21
197.771
  0
LINE
  8
0
 10
16.0807
 20
197.771
 11
16.4
 21
198.039
  0
LINE
  8
0
 10
16.4
 20
198.039
 11
16.7916
 21
198.182
  0
LINE
  8
0
 10
16.7916
 20
198.182
 11
17.2084
 21
198.182
  0
LINE
  8
0
 10
17.2084
 20
198.182
 11
17.6
 21
198.039
  0
LINE
  8
0
 10
17.6
 20
198.039
 11
17.9193
 21
197.771
  0
LINE
  8
0
 10
17.9193
 20
197.771
 11
18.1276
 21
197.41
  0
LINE
  8
0
 10
18.1276
 20
197.41
 11
18.2
 21
197
  0
LINE
  8
0
 10
18.2
 20
197
 11
18.1276
 21
196.59
  0
LINE
  8
0
 10
18.1276
 20
196.59
 11
17.9193
 21
196.229
  0
LINE
  8
0
 10
17.9193
 20
196.229
 11
17.6
 21
195.961
  0
LINE
  8
0
 10
17.6
 20
195.961
 11
17.2084
 21
195.818
  0
LINE
  8
0
 10
17.2084
 20
195.818
 11
16.7916
 21
195.818
  0
LINE
  8
0
 10
20.7916
 20
187.818
 11
20.4
 21
187.961
  0
LINE
  8
0
 10
20.4
 20
187.961
 11
20.0807
 21
188.229
  0
LINE
  8
0
 10
20.0807
 20
188.229
 11
19.8724
 21
188.59
  0
LINE
  8
0
 10
19.8724
 20
188.59
 11
19.8
 21
189
  0
LINE
  8
0
 10
19.8
 20
189
 11
19.8724
 21
189.41
  0
LINE
  8
0
 10
19.8724
 20
189.41
 11
20.0807
 21
189.771
  0
LINE
  8
0
 10
20.0807
 20
189.771
 11
20.4
 21
190.039
  0
LINE
  8
0
 10
20.4
 20
190.039
 11
20.7916
 21
190.182
  0
LINE
  8
0
 10
20.7916
 20
190.182
 11
21.2084
 21
190.182
  0
LINE
  8
0
 10
21.2084
 20
190.182
 11
21.6
 21
190.039
  0
LINE
  8
0
 10
21.6
 20
190.039
 11
21.9193
 21
189.771
  0
LINE
  8
0
 10
21.9193
 20
189.771
 11
22.1276
 21
189.41
  0
LINE
  8
0
 10
22.1276
 20
189.41
 11
22.2
 21
189
  0
LINE
  8
0
 10
22.2
 20
189
 11
22.1276
 21
188.59
  0
LINE
  8
0
 10
22.1276
 20
188.59
 11
21.9193
 21
188.229
  0
LINE
  8
0
 10
21.9193
 20
188.229
 11
21.6
 21
187.961
  0
LINE
  8
0
 10
21.6
 20
187.961
 11
21.2084
 21
187.818
  0
LINE
  8
0
 10
21.2084
 20
187.818
 11
20.7916
 21
187.818
  0
LINE
  8
0
 10
20.7916
 20
171.818
 11
20.4
 21
171.961
  0
LINE
  8
0
 10
20.4
 20
171.961
 11
20.0807
 21
172.229
  0
LINE
  8
0
 10
20.0807
 20
172.229
 11
19.8724
 21
172.59
  0
LINE
  8
0
 10
19.8724
 20
172.59
 11
19.8
 21
173
  0
LINE
  8
0
 10
19.8
 20
173
 11
19.8724
 21
173.41
  0
LINE
  8
0
 10
19.8724
 20
173.41
 11
20.0807
 21
173.771
  0
LINE
  8
0
 10
20.0807
 20
173.771
 11
20.4
 21
174.039
  0
LINE
  8
0
 10
20.4
 20
174.039
 11
20.7916
 21
174.182
  0
LINE
  8
0
 10
20.7916
 20
174.182
 11
21.2084
 21
174.182
  0
LINE
  8
0
 10
21.2084
 20
174.182
 11
21.6
 21
174.039
  0
LINE
  8
0
 10
21.6
 20
174.039
 11
21.9193
 21
173.771
  0
LINE
  8
0
 10
21.9193
 20
173.771
 11
22.1276
 21
173.41
  0
LINE
  8
0
 10
22.1276
 20
173.41
 11
22.2
 21
173
  0
LINE
  8
0
 10
22.2
 20
173
 11
22.1276
 21
172.59
  0
LINE
  8
0
 10
22.1276
 20
172.59
 11
21.9193
 21
172.229
  0
LINE
  8
0
 10
21.9193
 20
172.229
 11
21.6
 21
171.961
  0
LINE
  8
0
 10
21.6
 20
171.961
 11
21.2084
 21
171.818
  0
LINE
  8
0
 10
21.2084
 20
171.818
 11
20.7916
 21
171.818
  0
LINE
  8
0
 10
10.7916
 20
155.818
 11
10.4
 21
155.961
  0
LINE
  8
0
 10
10.4
 20
155.961
 11
10.0807
 21
156.229
  0
LINE
  8
0
 10
10.0807
 20
156.229
 11
9.87236
 21
156.59
  0
LINE
  8
0
 10
9.87236
 20
156.59
 11
9.79999
 21
157
  0
LINE
  8
0
 10
9.79999
 20
157
 11
9.87236
 21
157.41
  0
LINE
  8
0
 10
9.87236
 20
157.41
 11
10.0807
 21
157.771
  0
LINE
  8
0
 10
10.0807
 20
157.771
 11
10.4
 21
158.039
  0
LINE
  8
0
 10
10.4
 20
158.039
 11
10.7916
 21
158.182
  0
LINE
  8
0
 10
10.7916
 20
158.182
 11
11.2084
 21
158.182
  0
LINE
  8
0
 10
11.2084
 20
158.182
 11
11.6
 21
158.039
  0
LINE
  8
0
 10
11.6
 20
158.039
 11
11.9193
 21
157.771
  0
LINE
  8
0
 10
11.9193
 20
157.771
 11
12.1276
 21
157.41
  0
LINE
  8
0
 10
12.1276
 20
157.41
 11
12.2
 21
157
  0
LINE
  8
0
 10
12.2
 20
157
 11
12.1276
 21
156.59
  0
LINE
  8
0
 10
12.1276
 20
156.59
 11
11.9193
 21
156.229
  0
LINE
  8
0
 10
11.9193
 20
156.229
 11
11.6
 21
155.961
  0
LINE
  8
0
 10
11.6
 20
155.961
 11
11.2084
 21
155.818
  0
LINE
  8
0
 10
11.2084
 20
155.818
 11
10.7916
 21
155.818
  0
LINE
  8
0
 10
20.7916
 20
139.818
 11
20.4
 21
139.961
  0
LINE
  8
0
 10
20.4
 20
139.961
 11
20.0807
 21
140.229
  0
LINE
  8
0
 10
20.0807
 20
140.229
 11
19.8724
 21
140.59
  0
LINE
  8
0
 10
19.8724
 20
140.59
 11
19.8
 21
141
  0
LINE
  8
0
 10
19.8
 20
141
 11
19.8724
 21
141.41
  0
LINE
  8
0
 10
19.8724
 20
141.41
 11
20.0807
 21
141.771
  0
LINE
  8
0
 10
20.0807
 20
141.771
 11
20.4
 21
142.039
  0
LINE
  8
0
 10
20.4
 20
142.039
 11
20.7916
 21
142.182
  0
LINE
  8
0
 10
20.7916
 20
142.182
 11
21.2084
 21
142.182
  0
LINE
  8
0
 10
21.2084
 20
142.182
 11
21.6
 21
142.039
  0
LINE
  8
0
 10
21.6
 20
142.039
 11
21.9193
 21
141.771
  0
LINE
  8
0
 10
21.9193
 20
141.771
 11
22.1276
 21
141.41
  0
LINE
  8
0
 10
22.1276
 20
141.41
 11
22.2
 21
141
  0
LINE
  8
0
 10
22.2
 20
141
 11
22.1276
 21
140.59
  0
LINE
  8
0
 10
22.1276
 20
140.59
 11
21.9193
 21
140.229
  0
LINE
  8
0
 10
21.9193
 20
140.229
 11
21.6
 21
139.961
  0
LINE
  8
0
 10
21.6
 20
139.961
 11
21.2084
 21
139.818
  0
LINE
  8
0
 10
21.2084
 20
139.818
 11
20.7916
 21
139.818
  0
LINE
  8
0
 10
10.7916
 20
123.818
 11
10.4
 21
123.961
  0
LINE
  8
0
 10
10.4
 20
123.961
 11
10.0807
 21
124.229
  0
LINE
  8
0
 10
10.0807
 20
124.229
 11
9.87236
 21
124.59
  0
LINE
  8
0
 10
9.87236
 20
124.59
 11
9.79999
 21
125
  0
LINE
  8
0
 10
9.79999
 20
125
 11
9.87236
 21
125.41
  0
LINE
  8
0
 10
9.87236
 20
125.41
 11
10.0807
 21
125.771
  0
LINE
  8
0
 10
10.0807
 20
125.771
 11
10.4
 21
126.039
  0
LINE
  8
0
 10
10.4
 20
126.039
 11
10.7916
 21
126.182
  0
LINE
  8
0
 10
10.7916
 20
126.182
 11
11.2084
 21
126.182
  0
LINE
  8
0
 10
11.2084
 20
126.182
 11
11.6
 21
126.039
  0
LINE
  8
0
 10
11.6
 20
126.039
 11
11.9193
 21
125.771
  0
LINE
  8
0
 10
11.9193
 20
125.771
 11
12.1276
 21
125.41
  0
LINE
  8
0
 10
12.1276
 20
125.41
 11
12.2
 21
125
  0
LINE
  8
0
 10
12.2
 20
125
 11
12.1276
 21
124.59
  0
LINE
  8
0
 10
12.1276
 20
124.59
 11
11.9193
 21
124.229
  0
LINE
  8
0
 10
11.9193
 20
124.229
 11
11.6
 21
123.961
  0
LINE
  8
0
 10
11.6
 20
123.961
 11
11.2084
 21
123.818
  0
LINE
  8
0
 10
11.2084
 20
123.818
 11
10.7916
 21
123.818
  0
LINE
  8
0
 10
18.7916
 20
107.818
 11
18.4
 21
107.961
  0
LINE
  8
0
 10
18.4
 20
107.961
 11
18.0807
 21
108.229
  0
LINE
  8
0
 10
18.0807
 20
108.229
 11
17.8724
 21
108.59
  0
LINE
  8
0
 10
17.8724
 20
108.59
 11
17.8
 21
109
  0
LINE
  8
0
 10
17.8
 20
109
 11
17.8724
 21
109.41
  0
LINE
  8
0
 10
17.8724
 20
109.41
 11
18.0807
 21
109.771
  0
LINE
  8
0
 10
18.0807
 20
109.771
 11
18.4
 21
110.039
  0
LINE
  8
0
 10
18.4
 20
110.039
 11
18.7916
 21
110.182
  0
LINE
  8
0
 10
18.7916
 20
110.182
 11
19.2084
 21
110.182
  0
LINE
  8
0
 10
19.2084
 20
110.182
 11
19.6
 21
110.039
  0
LINE
  8
0
 10
19.6
 20
110.039
 11
19.9193
 21
109.771
  0
LINE
  8
0
 10
19.9193
 20
109.771
 11
20.1276
 21
109.41
  0
LINE
  8
0
 10
20.1276
 20
109.41
 11
20.2
 21
109
  0
LINE
  8
0
 10
20.2
 20
109
 11
20.1276
 21
108.59
  0
LINE
  8
0
 10
20.1276
 20
108.59
 11
19.9193
 21
108.229
  0
LINE
  8
0
 10
19.9193
 20
108.229
 11
19.6
 21
107.961
  0
LINE
  8
0
 10
19.6
 20
107.961
 11
19.2084
 21
107.818
  0
LINE
  8
0
 10
19.2084
 20
107.818
 11
18.7916
 21
107.818
  0
LINE
  8
0
 10
10.7916
 20
91.8182
 11
10.4
 21
91.9608
  0
LINE
  8
0
 10
10.4
 20
91.9608
 11
10.0807
 21
92.2287
  0
LINE
  8
0
 10
10.0807
 20
92.2287
 11
9.87236
 21
92.5896
  0
LINE
  8
0
 10
9.87236
 20
92.5896
 11
9.79999
 21
93
  0
LINE
  8
0
 10
9.79999
 20
93
 11
9.87236
 21
93.4104
  0
LINE
  8
0
 10
9.87236
 20
93.4104
 11
10.0807
 21
93.7713
  0
LINE
  8
0
 10
10.0807
 20
93.7713
 11
10.4
 21
94.0392
  0
LINE
  8
0
 10
10.4
 20
94.0392
 11
10.7916
 21
94.1818
  0
LINE
  8
0
 10
10.7916
 20
94.1818
 11
11.2084
 21
94.1818
  0
LINE
  8
0
 10
11.2084
 20
94.1818
 11
11.6
 21
94.0392
  0
LINE
  8
0
 10
11.6
 20
94.0392
 11
11.9193
 21
93.7713
  0
LINE
  8
0
 10
11.9193
 20
93.7713
 11
12.1276
 21
93.4104
  0
LINE
  8
0
 10
12.1276
 20
93.4104
 11
12.2
 21
93
  0
LINE
  8
0
 10
12.2
 20
93
 11
12.1276
 21
92.5896
  0
LINE
  8
0
 10
12.1276
 20
92.5896
 11
11.9193
 21
92.2287
  0
LINE
  8
0
 10
11.9193
 20
92.2287
 11
11.6
 21
91.9608
  0
LINE
  8
0
 10
11.6
 20
91.9608
 11
11.2084
 21
91.8182
  0
LINE
  8
0
 10
11.2084
 20
91.8182
 11
10.7916
 21
91.8182
  0
LINE
  8
0
 10
18.7916
 20
75.8182
 11
18.4
 21
75.9608
  0
LINE
  8
0
 10
18.4
 20
75.9608
 11
18.0807
 21
76.2287
  0
LINE
  8
0
 10
18.0807
 20
76.2287
 11
17.8724
 21
76.5896
  0
LINE
  8
0
 10
17.8724
 20
76.5896
 11
17.8
 21
77
  0
LINE
  8
0
 10
17.8
 20
77
 11
17.8724
 21
77.4104
  0
LINE
  8
0
 10
17.8724
 20
77.4104
 11
18.0807
 21
77.7713
  0
LINE
  8
0
 10
18.0807
 20
77.7713
 11
18.4
 21
78.0392
  0
LINE
  8
0
 10
18.4
 20
78.0392
 11
18.7916
 21
78.1818
  0
LINE
  8
0
 10
18.7916
 20
78.1818
 11
19.2084
 21
78.1818
  0
LINE
  8
0
 10
19.2084
 20
78.1818
 11
19.6
 21
78.0392
  0
LINE
  8
0
 10
19.6
 20
78.0392
 11
19.9193
 21
77.7713
  0
LINE
  8
0
 10
19.9193
 20
77.7713
 11
20.1276
 21
77.4104
  0
LINE
  8
0
 10
20.1276
 20
77.4104
 11
20.2
 21
77
  0
LINE
  8
0
 10
20.2
 20
77
 11
20.1276
 21
76.5896
  0
LINE
  8
0
 10
20.1276
 20
76.5896
 11
19.9193
 21
76.2287
  0
LINE
  8
0
 10
19.9193
 20
76.2287
 11
19.6
 21
75.9608
  0
LINE
  8
0
 10
19.6
 20
75.9608
 11
19.2084
 21
75.8182
  0
LINE
  8
0
 10
19.2084
 20
75.8182
 11
18.7916
 21
75.8182
  0
LINE
  8
0
 10
10.7916
 20
59.8182
 11
10.4
 21
59.9608
  0
LINE
  8
0
 10
10.4
 20
59.9608
 11
10.0807
 21
60.2287
  0
LINE
  8
0
 10
10.0807
 20
60.2287
 11
9.87236
 21
60.5896
  0
LINE
  8
0
 10
9.87236
 20
60.5896
 11
9.79999
 21
61
  0
LINE
  8
0
 10
9.79999
 20
61
 11
9.87236
 21
61.4104
  0
LINE
  8
0
 10
9.87236
 20
61.4104
 11
10.0807
 21
61.7713
  0
LINE
  8
0
 10
10.0807
 20
61.7713
 11
10.4
 21
62.0392
  0
LINE
  8
0
 10
10.4
 20
62.0392
 11
10.7916
 21
62.1818
  0
LINE
  8
0
 10
10.7916
 20
62.1818
 11
11.2084
 21
62.1818
  0
LINE
  8
0
 10
11.2084
 20
62.1818
 11
11.6
 21
62.0392
  0
LINE
  8
0
 10
11.6
 20
62.0392
 11
11.9193
 21
61.7713
  0
LINE
  8
0
 10
11.9193
 20
61.7713
 11
12.1276
 21
61.4104
  0
LINE
  8
0
 10
12.1276
 20
61.4104
 11
12.2
 21
61
  0
LINE
  8
0
 10
12.2
 20
61
 11
12.1276
 21
60.5896
  0
LINE
  8
0
 10
12.1276
 20
60.5896
 11
11.9193
 21
60.2287
  0
LINE
  8
0
 10
11.9193
 20
60.2287
 11
11.6
 21
59.9608
  0
LINE
  8
0
 10
11.6
 20
59.9608
 11
11.2084
 21
59.8182
  0
LINE
  8
0
 10
11.2084
 20
59.8182
 11
10.7916
 21
59.8182
  0
ENDSEC
  0
SECTION
  2
OBJECTS
  0
DICTIONARY
  0
ENDSEC
  0
EOF
