  0
SECTION
  2
BLOCKS
  0
ENDSEC
  0
SECTION
  2
ENTITIES
  0
LINE
  8
0
 10
41
 20
930
 11
0
 21
930
  0
LINE
  8
0
 10
0
 20
930
 11
0
 21
0
  0
LINE
  8
0
 10
0
 20
0
 11
41
 21
0
  0
LINE
  8
0
 10
41
 20
0
 11
41
 21
930
  0
LINE
  8
0
 10
10.7916
 20
919.818
 11
10.4
 21
919.961
  0
LINE
  8
0
 10
10.4
 20
919.961
 11
10.0807
 21
920.229
  0
LINE
  8
0
 10
10.0807
 20
920.229
 11
9.87236
 21
920.59
  0
LINE
  8
0
 10
9.87236
 20
920.59
 11
9.79999
 21
921
  0
LINE
  8
0
 10
9.79999
 20
921
 11
9.87236
 21
921.41
  0
LINE
  8
0
 10
9.87236
 20
921.41
 11
10.0807
 21
921.771
  0
LINE
  8
0
 10
10.0807
 20
921.771
 11
10.4
 21
922.039
  0
LINE
  8
0
 10
10.4
 20
922.039
 11
10.7916
 21
922.182
  0
LINE
  8
0
 10
10.7916
 20
922.182
 11
11.2084
 21
922.182
  0
LINE
  8
0
 10
11.2084
 20
922.182
 11
11.6
 21
922.039
  0
LINE
  8
0
 10
11.6
 20
922.039
 11
11.9193
 21
921.771
  0
LINE
  8
0
 10
11.9193
 20
921.771
 11
12.1276
 21
921.41
  0
LINE
  8
0
 10
12.1276
 20
921.41
 11
12.2
 21
921
  0
LINE
  8
0
 10
12.2
 20
921
 11
12.1276
 21
920.59
  0
LINE
  8
0
 10
12.1276
 20
920.59
 11
11.9193
 21
920.229
  0
LINE
  8
0
 10
11.9193
 20
920.229
 11
11.6
 21
919.961
  0
LINE
  8
0
 10
11.6
 20
919.961
 11
11.2084
 21
919.818
  0
LINE
  8
0
 10
11.2084
 20
919.818
 11
10.7916
 21
919.818
  0
LINE
  8
0
 10
18.7916
 20
903.818
 11
18.4
 21
903.961
  0
LINE
  8
0
 10
18.4
 20
903.961
 11
18.0807
 21
904.229
  0
LINE
  8
0
 10
18.0807
 20
904.229
 11
17.8724
 21
904.59
  0
LINE
  8
0
 10
17.8724
 20
904.59
 11
17.8
 21
905
  0
LINE
  8
0
 10
17.8
 20
905
 11
17.8724
 21
905.41
  0
LINE
  8
0
 10
17.8724
 20
905.41
 11
18.0807
 21
905.771
  0
LINE
  8
0
 10
18.0807
 20
905.771
 11
18.4
 21
906.039
  0
LINE
  8
0
 10
18.4
 20
906.039
 11
18.7916
 21
906.182
  0
LINE
  8
0
 10
18.7916
 20
906.182
 11
19.2084
 21
906.182
  0
LINE
  8
0
 10
19.2084
 20
906.182
 11
19.6
 21
906.039
  0
LINE
  8
0
 10
19.6
 20
906.039
 11
19.9193
 21
905.771
  0
LINE
  8
0
 10
19.9193
 20
905.771
 11
20.1276
 21
905.41
  0
LINE
  8
0
 10
20.1276
 20
905.41
 11
20.2
 21
905
  0
LINE
  8
0
 10
20.2
 20
905
 11
20.1276
 21
904.59
  0
LINE
  8
0
 10
20.1276
 20
904.59
 11
19.9193
 21
904.229
  0
LINE
  8
0
 10
19.9193
 20
904.229
 11
19.6
 21
903.961
  0
LINE
  8
0
 10
19.6
 20
903.961
 11
19.2084
 21
903.818
  0
LINE
  8
0
 10
19.2084
 20
903.818
 11
18.7916
 21
903.818
  0
LINE
  8
0
 10
10.7916
 20
887.818
 11
10.4
 21
887.961
  0
LINE
  8
0
 10
10.4
 20
887.961
 11
10.0807
 21
888.229
  0
LINE
  8
0
 10
10.0807
 20
888.229
 11
9.87236
 21
888.59
  0
LINE
  8
0
 10
9.87236
 20
888.59
 11
9.79999
 21
889
  0
LINE
  8
0
 10
9.79999
 20
889
 11
9.87236
 21
889.41
  0
LINE
  8
0
 10
9.87236
 20
889.41
 11
10.0807
 21
889.771
  0
LINE
  8
0
 10
10.0807
 20
889.771
 11
10.4
 21
890.039
  0
LINE
  8
0
 10
10.4
 20
890.039
 11
10.7916
 21
890.182
  0
LINE
  8
0
 10
10.7916
 20
890.182
 11
11.2084
 21
890.182
  0
LINE
  8
0
 10
11.2084
 20
890.182
 11
11.6
 21
890.039
  0
LINE
  8
0
 10
11.6
 20
890.039
 11
11.9193
 21
889.771
  0
LINE
  8
0
 10
11.9193
 20
889.771
 11
12.1276
 21
889.41
  0
LINE
  8
0
 10
12.1276
 20
889.41
 11
12.2
 21
889
  0
LINE
  8
0
 10
12.2
 20
889
 11
12.1276
 21
888.59
  0
LINE
  8
0
 10
12.1276
 20
888.59
 11
11.9193
 21
888.229
  0
LINE
  8
0
 10
11.9193
 20
888.229
 11
11.6
 21
887.961
  0
LINE
  8
0
 10
11.6
 20
887.961
 11
11.2084
 21
887.818
  0
LINE
  8
0
 10
11.2084
 20
887.818
 11
10.7916
 21
887.818
  0
LINE
  8
0
 10
8.79161
 20
839.818
 11
8.39999
 21
839.961
  0
LINE
  8
0
 10
8.39999
 20
839.961
 11
8.08073
 21
840.229
  0
LINE
  8
0
 10
8.08073
 20
840.229
 11
7.87236
 21
840.59
  0
LINE
  8
0
 10
7.87236
 20
840.59
 11
7.79999
 21
841
  0
LINE
  8
0
 10
7.79999
 20
841
 11
7.87236
 21
841.41
  0
LINE
  8
0
 10
7.87236
 20
841.41
 11
8.08073
 21
841.771
  0
LINE
  8
0
 10
8.08073
 20
841.771
 11
8.39999
 21
842.039
  0
LINE
  8
0
 10
8.39999
 20
842.039
 11
8.79161
 21
842.182
  0
LINE
  8
0
 10
8.79161
 20
842.182
 11
9.20837
 21
842.182
  0
LINE
  8
0
 10
9.20837
 20
842.182
 11
9.59999
 21
842.039
  0
LINE
  8
0
 10
9.59999
 20
842.039
 11
9.91925
 21
841.771
  0
LINE
  8
0
 10
9.91925
 20
841.771
 11
10.1276
 21
841.41
  0
LINE
  8
0
 10
10.1276
 20
841.41
 11
10.2
 21
841
  0
LINE
  8
0
 10
10.2
 20
841
 11
10.1276
 21
840.59
  0
LINE
  8
0
 10
10.1276
 20
840.59
 11
9.91925
 21
840.229
  0
LINE
  8
0
 10
9.91925
 20
840.229
 11
9.59999
 21
839.961
  0
LINE
  8
0
 10
9.59999
 20
839.961
 11
9.20837
 21
839.818
  0
LINE
  8
0
 10
9.20837
 20
839.818
 11
8.79161
 21
839.818
  0
LINE
  8
0
 10
12.7916
 20
829.151
 11
12.4
 21
829.294
  0
LINE
  8
0
 10
12.4
 20
829.294
 11
12.0807
 21
829.562
  0
LINE
  8
0
 10
12.0807
 20
829.562
 11
11.8724
 21
829.923
  0
LINE
  8
0
 10
11.8724
 20
829.923
 11
11.8
 21
830.333
  0
LINE
  8
0
 10
11.8
 20
830.333
 11
11.8724
 21
830.744
  0
LINE
  8
0
 10
11.8724
 20
830.744
 11
12.0807
 21
831.105
  0
LINE
  8
0
 10
12.0807
 20
831.105
 11
12.4
 21
831.372
  0
LINE
  8
0
 10
12.4
 20
831.372
 11
12.7916
 21
831.515
  0
LINE
  8
0
 10
12.7916
 20
831.515
 11
13.2084
 21
831.515
  0
LINE
  8
0
 10
13.2084
 20
831.515
 11
13.6
 21
831.372
  0
LINE
  8
0
 10
13.6
 20
831.372
 11
13.9193
 21
831.105
  0
LINE
  8
0
 10
13.9193
 20
831.105
 11
14.1276
 21
830.744
  0
LINE
  8
0
 10
14.1276
 20
830.744
 11
14.2
 21
830.333
  0
LINE
  8
0
 10
14.2
 20
830.333
 11
14.1276
 21
829.923
  0
LINE
  8
0
 10
14.1276
 20
829.923
 11
13.9193
 21
829.562
  0
LINE
  8
0
 10
13.9193
 20
829.562
 11
13.6
 21
829.294
  0
LINE
  8
0
 10
13.6
 20
829.294
 11
13.2084
 21
829.151
  0
LINE
  8
0
 10
13.2084
 20
829.151
 11
12.7916
 21
829.151
  0
LINE
  8
0
 10
10.7916
 20
818.485
 11
10.4
 21
818.627
  0
LINE
  8
0
 10
10.4
 20
818.627
 11
10.0807
 21
818.895
  0
LINE
  8
0
 10
10.0807
 20
818.895
 11
9.87236
 21
819.256
  0
LINE
  8
0
 10
9.87236
 20
819.256
 11
9.79999
 21
819.667
  0
LINE
  8
0
 10
9.79999
 20
819.667
 11
9.87236
 21
820.077
  0
LINE
  8
0
 10
9.87236
 20
820.077
 11
10.0807
 21
820.438
  0
LINE
  8
0
 10
10.0807
 20
820.438
 11
10.4
 21
820.706
  0
LINE
  8
0
 10
10.4
 20
820.706
 11
10.7916
 21
820.848
  0
LINE
  8
0
 10
10.7916
 20
820.848
 11
11.2084
 21
820.848
  0
LINE
  8
0
 10
11.2084
 20
820.848
 11
11.6
 21
820.706
  0
LINE
  8
0
 10
11.6
 20
820.706
 11
11.9193
 21
820.438
  0
LINE
  8
0
 10
11.9193
 20
820.438
 11
12.1276
 21
820.077
  0
LINE
  8
0
 10
12.1276
 20
820.077
 11
12.2
 21
819.667
  0
LINE
  8
0
 10
12.2
 20
819.667
 11
12.1276
 21
819.256
  0
LINE
  8
0
 10
12.1276
 20
819.256
 11
11.9193
 21
818.895
  0
LINE
  8
0
 10
11.9193
 20
818.895
 11
11.6
 21
818.627
  0
LINE
  8
0
 10
11.6
 20
818.627
 11
11.2084
 21
818.485
  0
LINE
  8
0
 10
11.2084
 20
818.485
 11
10.7916
 21
818.485
  0
LINE
  8
0
 10
8.79161
 20
807.818
 11
8.39999
 21
807.961
  0
LINE
  8
0
 10
8.39999
 20
807.961
 11
8.08073
 21
808.229
  0
LINE
  8
0
 10
8.08073
 20
808.229
 11
7.87236
 21
808.59
  0
LINE
  8
0
 10
7.87236
 20
808.59
 11
7.79999
 21
809
  0
LINE
  8
0
 10
7.79999
 20
809
 11
7.87236
 21
809.41
  0
LINE
  8
0
 10
7.87236
 20
809.41
 11
8.08073
 21
809.771
  0
LINE
  8
0
 10
8.08073
 20
809.771
 11
8.39999
 21
810.039
  0
LINE
  8
0
 10
8.39999
 20
810.039
 11
8.79161
 21
810.182
  0
LINE
  8
0
 10
8.79161
 20
810.182
 11
9.20837
 21
810.182
  0
LINE
  8
0
 10
9.20837
 20
810.182
 11
9.59999
 21
810.039
  0
LINE
  8
0
 10
9.59999
 20
810.039
 11
9.91925
 21
809.771
  0
LINE
  8
0
 10
9.91925
 20
809.771
 11
10.1276
 21
809.41
  0
LINE
  8
0
 10
10.1276
 20
809.41
 11
10.2
 21
809
  0
LINE
  8
0
 10
10.2
 20
809
 11
10.1276
 21
808.59
  0
LINE
  8
0
 10
10.1276
 20
808.59
 11
9.91925
 21
808.229
  0
LINE
  8
0
 10
9.91925
 20
808.229
 11
9.59999
 21
807.961
  0
LINE
  8
0
 10
9.59999
 20
807.961
 11
9.20837
 21
807.818
  0
LINE
  8
0
 10
9.20837
 20
807.818
 11
8.79161
 21
807.818
  0
LINE
  8
0
 10
14.7916
 20
799.818
 11
14.4
 21
799.961
  0
LINE
  8
0
 10
14.4
 20
799.961
 11
14.0807
 21
800.229
  0
LINE
  8
0
 10
14.0807
 20
800.229
 11
13.8724
 21
800.59
  0
LINE
  8
0
 10
13.8724
 20
800.59
 11
13.8
 21
801
  0
LINE
  8
0
 10
13.8
 20
801
 11
13.8724
 21
801.41
  0
LINE
  8
0
 10
13.8724
 20
801.41
 11
14.0807
 21
801.771
  0
LINE
  8
0
 10
14.0807
 20
801.771
 11
14.4
 21
802.039
  0
LINE
  8
0
 10
14.4
 20
802.039
 11
14.7916
 21
802.182
  0
LINE
  8
0
 10
14.7916
 20
802.182
 11
15.2084
 21
802.182
  0
LINE
  8
0
 10
15.2084
 20
802.182
 11
15.6
 21
802.039
  0
LINE
  8
0
 10
15.6
 20
802.039
 11
15.9193
 21
801.771
  0
LINE
  8
0
 10
15.9193
 20
801.771
 11
16.1276
 21
801.41
  0
LINE
  8
0
 10
16.1276
 20
801.41
 11
16.2
 21
801
  0
LINE
  8
0
 10
16.2
 20
801
 11
16.1276
 21
800.59
  0
LINE
  8
0
 10
16.1276
 20
800.59
 11
15.9193
 21
800.229
  0
LINE
  8
0
 10
15.9193
 20
800.229
 11
15.6
 21
799.961
  0
LINE
  8
0
 10
15.6
 20
799.961
 11
15.2084
 21
799.818
  0
LINE
  8
0
 10
15.2084
 20
799.818
 11
14.7916
 21
799.818
  0
LINE
  8
0
 10
14.7916
 20
767.818
 11
14.4
 21
767.961
  0
LINE
  8
0
 10
14.4
 20
767.961
 11
14.0807
 21
768.229
  0
LINE
  8
0
 10
14.0807
 20
768.229
 11
13.8724
 21
768.59
  0
LINE
  8
0
 10
13.8724
 20
768.59
 11
13.8
 21
769
  0
LINE
  8
0
 10
13.8
 20
769
 11
13.8724
 21
769.41
  0
LINE
  8
0
 10
13.8724
 20
769.41
 11
14.0807
 21
769.771
  0
LINE
  8
0
 10
14.0807
 20
769.771
 11
14.4
 21
770.039
  0
LINE
  8
0
 10
14.4
 20
770.039
 11
14.7916
 21
770.182
  0
LINE
  8
0
 10
14.7916
 20
770.182
 11
15.2084
 21
770.182
  0
LINE
  8
0
 10
15.2084
 20
770.182
 11
15.6
 21
770.039
  0
LINE
  8
0
 10
15.6
 20
770.039
 11
15.9193
 21
769.771
  0
LINE
  8
0
 10
15.9193
 20
769.771
 11
16.1276
 21
769.41
  0
LINE
  8
0
 10
16.1276
 20
769.41
 11
16.2
 21
769
  0
LINE
  8
0
 10
16.2
 20
769
 11
16.1276
 21
768.59
  0
LINE
  8
0
 10
16.1276
 20
768.59
 11
15.9193
 21
768.229
  0
LINE
  8
0
 10
15.9193
 20
768.229
 11
15.6
 21
767.961
  0
LINE
  8
0
 10
15.6
 20
767.961
 11
15.2084
 21
767.818
  0
LINE
  8
0
 10
15.2084
 20
767.818
 11
14.7916
 21
767.818
  0
LINE
  8
0
 10
14.7916
 20
759.818
 11
14.4
 21
759.961
  0
LINE
  8
0
 10
14.4
 20
759.961
 11
14.0807
 21
760.229
  0
LINE
  8
0
 10
14.0807
 20
760.229
 11
13.8724
 21
760.59
  0
LINE
  8
0
 10
13.8724
 20
760.59
 11
13.8
 21
761
  0
LINE
  8
0
 10
13.8
 20
761
 11
13.8724
 21
761.41
  0
LINE
  8
0
 10
13.8724
 20
761.41
 11
14.0807
 21
761.771
  0
LINE
  8
0
 10
14.0807
 20
761.771
 11
14.4
 21
762.039
  0
LINE
  8
0
 10
14.4
 20
762.039
 11
14.7916
 21
762.182
  0
LINE
  8
0
 10
14.7916
 20
762.182
 11
15.2084
 21
762.182
  0
LINE
  8
0
 10
15.2084
 20
762.182
 11
15.6
 21
762.039
  0
LINE
  8
0
 10
15.6
 20
762.039
 11
15.9193
 21
761.771
  0
LINE
  8
0
 10
15.9193
 20
761.771
 11
16.1276
 21
761.41
  0
LINE
  8
0
 10
16.1276
 20
761.41
 11
16.2
 21
761
  0
LINE
  8
0
 10
16.2
 20
761
 11
16.1276
 21
760.59
  0
LINE
  8
0
 10
16.1276
 20
760.59
 11
15.9193
 21
760.229
  0
LINE
  8
0
 10
15.9193
 20
760.229
 11
15.6
 21
759.961
  0
LINE
  8
0
 10
15.6
 20
759.961
 11
15.2084
 21
759.818
  0
LINE
  8
0
 10
15.2084
 20
759.818
 11
14.7916
 21
759.818
  0
LINE
  8
0
 10
8.79161
 20
711.818
 11
8.39999
 21
711.961
  0
LINE
  8
0
 10
8.39999
 20
711.961
 11
8.08073
 21
712.229
  0
LINE
  8
0
 10
8.08073
 20
712.229
 11
7.87236
 21
712.59
  0
LINE
  8
0
 10
7.87236
 20
712.59
 11
7.79999
 21
713
  0
LINE
  8
0
 10
7.79999
 20
713
 11
7.87236
 21
713.41
  0
LINE
  8
0
 10
7.87236
 20
713.41
 11
8.08073
 21
713.771
  0
LINE
  8
0
 10
8.08073
 20
713.771
 11
8.39999
 21
714.039
  0
LINE
  8
0
 10
8.39999
 20
714.039
 11
8.79161
 21
714.182
  0
LINE
  8
0
 10
8.79161
 20
714.182
 11
9.20837
 21
714.182
  0
LINE
  8
0
 10
9.20837
 20
714.182
 11
9.59999
 21
714.039
  0
LINE
  8
0
 10
9.59999
 20
714.039
 11
9.91925
 21
713.771
  0
LINE
  8
0
 10
9.91925
 20
713.771
 11
10.1276
 21
713.41
  0
LINE
  8
0
 10
10.1276
 20
713.41
 11
10.2
 21
713
  0
LINE
  8
0
 10
10.2
 20
713
 11
10.1276
 21
712.59
  0
LINE
  8
0
 10
10.1276
 20
712.59
 11
9.91925
 21
712.229
  0
LINE
  8
0
 10
9.91925
 20
712.229
 11
9.59999
 21
711.961
  0
LINE
  8
0
 10
9.59999
 20
711.961
 11
9.20837
 21
711.818
  0
LINE
  8
0
 10
9.20837
 20
711.818
 11
8.79161
 21
711.818
  0
LINE
  8
0
 10
12.7916
 20
701.151
 11
12.4
 21
701.294
  0
LINE
  8
0
 10
12.4
 20
701.294
 11
12.0807
 21
701.562
  0
LINE
  8
0
 10
12.0807
 20
701.562
 11
11.8724
 21
701.923
  0
LINE
  8
0
 10
11.8724
 20
701.923
 11
11.8
 21
702.333
  0
LINE
  8
0
 10
11.8
 20
702.333
 11
11.8724
 21
702.744
  0
LINE
  8
0
 10
11.8724
 20
702.744
 11
12.0807
 21
703.105
  0
LINE
  8
0
 10
12.0807
 20
703.105
 11
12.4
 21
703.372
  0
LINE
  8
0
 10
12.4
 20
703.372
 11
12.7916
 21
703.515
  0
LINE
  8
0
 10
12.7916
 20
703.515
 11
13.2084
 21
703.515
  0
LINE
  8
0
 10
13.2084
 20
703.515
 11
13.6
 21
703.372
  0
LINE
  8
0
 10
13.6
 20
703.372
 11
13.9193
 21
703.105
  0
LINE
  8
0
 10
13.9193
 20
703.105
 11
14.1276
 21
702.744
  0
LINE
  8
0
 10
14.1276
 20
702.744
 11
14.2
 21
702.333
  0
LINE
  8
0
 10
14.2
 20
702.333
 11
14.1276
 21
701.923
  0
LINE
  8
0
 10
14.1276
 20
701.923
 11
13.9193
 21
701.562
  0
LINE
  8
0
 10
13.9193
 20
701.562
 11
13.6
 21
701.294
  0
LINE
  8
0
 10
13.6
 20
701.294
 11
13.2084
 21
701.151
  0
LINE
  8
0
 10
13.2084
 20
701.151
 11
12.7916
 21
701.151
  0
LINE
  8
0
 10
10.7916
 20
690.485
 11
10.4
 21
690.627
  0
LINE
  8
0
 10
10.4
 20
690.627
 11
10.0807
 21
690.895
  0
LINE
  8
0
 10
10.0807
 20
690.895
 11
9.87236
 21
691.256
  0
LINE
  8
0
 10
9.87236
 20
691.256
 11
9.79999
 21
691.667
  0
LINE
  8
0
 10
9.79999
 20
691.667
 11
9.87236
 21
692.077
  0
LINE
  8
0
 10
9.87236
 20
692.077
 11
10.0807
 21
692.438
  0
LINE
  8
0
 10
10.0807
 20
692.438
 11
10.4
 21
692.706
  0
LINE
  8
0
 10
10.4
 20
692.706
 11
10.7916
 21
692.848
  0
LINE
  8
0
 10
10.7916
 20
692.848
 11
11.2084
 21
692.848
  0
LINE
  8
0
 10
11.2084
 20
692.848
 11
11.6
 21
692.706
  0
LINE
  8
0
 10
11.6
 20
692.706
 11
11.9193
 21
692.438
  0
LINE
  8
0
 10
11.9193
 20
692.438
 11
12.1276
 21
692.077
  0
LINE
  8
0
 10
12.1276
 20
692.077
 11
12.2
 21
691.667
  0
LINE
  8
0
 10
12.2
 20
691.667
 11
12.1276
 21
691.256
  0
LINE
  8
0
 10
12.1276
 20
691.256
 11
11.9193
 21
690.895
  0
LINE
  8
0
 10
11.9193
 20
690.895
 11
11.6
 21
690.627
  0
LINE
  8
0
 10
11.6
 20
690.627
 11
11.2084
 21
690.485
  0
LINE
  8
0
 10
11.2084
 20
690.485
 11
10.7916
 21
690.485
  0
LINE
  8
0
 10
8.79161
 20
679.818
 11
8.39999
 21
679.961
  0
LINE
  8
0
 10
8.39999
 20
679.961
 11
8.08073
 21
680.229
  0
LINE
  8
0
 10
8.08073
 20
680.229
 11
7.87236
 21
680.59
  0
LINE
  8
0
 10
7.87236
 20
680.59
 11
7.79999
 21
681
  0
LINE
  8
0
 10
7.79999
 20
681
 11
7.87236
 21
681.41
  0
LINE
  8
0
 10
7.87236
 20
681.41
 11
8.08073
 21
681.771
  0
LINE
  8
0
 10
8.08073
 20
681.771
 11
8.39999
 21
682.039
  0
LINE
  8
0
 10
8.39999
 20
682.039
 11
8.79161
 21
682.182
  0
LINE
  8
0
 10
8.79161
 20
682.182
 11
9.20837
 21
682.182
  0
LINE
  8
0
 10
9.20837
 20
682.182
 11
9.59999
 21
682.039
  0
LINE
  8
0
 10
9.59999
 20
682.039
 11
9.91925
 21
681.771
  0
LINE
  8
0
 10
9.91925
 20
681.771
 11
10.1276
 21
681.41
  0
LINE
  8
0
 10
10.1276
 20
681.41
 11
10.2
 21
681
  0
LINE
  8
0
 10
10.2
 20
681
 11
10.1276
 21
680.59
  0
LINE
  8
0
 10
10.1276
 20
680.59
 11
9.91925
 21
680.229
  0
LINE
  8
0
 10
9.91925
 20
680.229
 11
9.59999
 21
679.961
  0
LINE
  8
0
 10
9.59999
 20
679.961
 11
9.20837
 21
679.818
  0
LINE
  8
0
 10
9.20837
 20
679.818
 11
8.79161
 21
679.818
  0
LINE
  8
0
 10
14.7916
 20
639.818
 11
14.4
 21
639.961
  0
LINE
  8
0
 10
14.4
 20
639.961
 11
14.0807
 21
640.229
  0
LINE
  8
0
 10
14.0807
 20
640.229
 11
13.8724
 21
640.59
  0
LINE
  8
0
 10
13.8724
 20
640.59
 11
13.8
 21
641
  0
LINE
  8
0
 10
13.8
 20
641
 11
13.8724
 21
641.41
  0
LINE
  8
0
 10
13.8724
 20
641.41
 11
14.0807
 21
641.771
  0
LINE
  8
0
 10
14.0807
 20
641.771
 11
14.4
 21
642.039
  0
LINE
  8
0
 10
14.4
 20
642.039
 11
14.7916
 21
642.182
  0
LINE
  8
0
 10
14.7916
 20
642.182
 11
15.2084
 21
642.182
  0
LINE
  8
0
 10
15.2084
 20
642.182
 11
15.6
 21
642.039
  0
LINE
  8
0
 10
15.6
 20
642.039
 11
15.9193
 21
641.771
  0
LINE
  8
0
 10
15.9193
 20
641.771
 11
16.1276
 21
641.41
  0
LINE
  8
0
 10
16.1276
 20
641.41
 11
16.2
 21
641
  0
LINE
  8
0
 10
16.2
 20
641
 11
16.1276
 21
640.59
  0
LINE
  8
0
 10
16.1276
 20
640.59
 11
15.9193
 21
640.229
  0
LINE
  8
0
 10
15.9193
 20
640.229
 11
15.6
 21
639.961
  0
LINE
  8
0
 10
15.6
 20
639.961
 11
15.2084
 21
639.818
  0
LINE
  8
0
 10
15.2084
 20
639.818
 11
14.7916
 21
639.818
  0
LINE
  8
0
 10
12.7916
 20
631.818
 11
12.4
 21
631.961
  0
LINE
  8
0
 10
12.4
 20
631.961
 11
12.0807
 21
632.229
  0
LINE
  8
0
 10
12.0807
 20
632.229
 11
11.8724
 21
632.59
  0
LINE
  8
0
 10
11.8724
 20
632.59
 11
11.8
 21
633
  0
LINE
  8
0
 10
11.8
 20
633
 11
11.8724
 21
633.41
  0
LINE
  8
0
 10
11.8724
 20
633.41
 11
12.0807
 21
633.771
  0
LINE
  8
0
 10
12.0807
 20
633.771
 11
12.4
 21
634.039
  0
LINE
  8
0
 10
12.4
 20
634.039
 11
12.7916
 21
634.182
  0
LINE
  8
0
 10
12.7916
 20
634.182
 11
13.2084
 21
634.182
  0
LINE
  8
0
 10
13.2084
 20
634.182
 11
13.6
 21
634.039
  0
LINE
  8
0
 10
13.6
 20
634.039
 11
13.9193
 21
633.771
  0
LINE
  8
0
 10
13.9193
 20
633.771
 11
14.1276
 21
633.41
  0
LINE
  8
0
 10
14.1276
 20
633.41
 11
14.2
 21
633
  0
LINE
  8
0
 10
14.2
 20
633
 11
14.1276
 21
632.59
  0
LINE
  8
0
 10
14.1276
 20
632.59
 11
13.9193
 21
632.229
  0
LINE
  8
0
 10
13.9193
 20
632.229
 11
13.6
 21
631.961
  0
LINE
  8
0
 10
13.6
 20
631.961
 11
13.2084
 21
631.818
  0
LINE
  8
0
 10
13.2084
 20
631.818
 11
12.7916
 21
631.818
  0
LINE
  8
0
 10
10.7916
 20
623.818
 11
10.4
 21
623.961
  0
LINE
  8
0
 10
10.4
 20
623.961
 11
10.0807
 21
624.229
  0
LINE
  8
0
 10
10.0807
 20
624.229
 11
9.87236
 21
624.59
  0
LINE
  8
0
 10
9.87236
 20
624.59
 11
9.79999
 21
625
  0
LINE
  8
0
 10
9.79999
 20
625
 11
9.87236
 21
625.41
  0
LINE
  8
0
 10
9.87236
 20
625.41
 11
10.0807
 21
625.771
  0
LINE
  8
0
 10
10.0807
 20
625.771
 11
10.4
 21
626.039
  0
LINE
  8
0
 10
10.4
 20
626.039
 11
10.7916
 21
626.182
  0
LINE
  8
0
 10
10.7916
 20
626.182
 11
11.2084
 21
626.182
  0
LINE
  8
0
 10
11.2084
 20
626.182
 11
11.6
 21
626.039
  0
LINE
  8
0
 10
11.6
 20
626.039
 11
11.9193
 21
625.771
  0
LINE
  8
0
 10
11.9193
 20
625.771
 11
12.1276
 21
625.41
  0
LINE
  8
0
 10
12.1276
 20
625.41
 11
12.2
 21
625
  0
LINE
  8
0
 10
12.2
 20
625
 11
12.1276
 21
624.59
  0
LINE
  8
0
 10
12.1276
 20
624.59
 11
11.9193
 21
624.229
  0
LINE
  8
0
 10
11.9193
 20
624.229
 11
11.6
 21
623.961
  0
LINE
  8
0
 10
11.6
 20
623.961
 11
11.2084
 21
623.818
  0
LINE
  8
0
 10
11.2084
 20
623.818
 11
10.7916
 21
623.818
  0
LINE
  8
0
 10
8.79161
 20
615.818
 11
8.39999
 21
615.961
  0
LINE
  8
0
 10
8.39999
 20
615.961
 11
8.08073
 21
616.229
  0
LINE
  8
0
 10
8.08073
 20
616.229
 11
7.87236
 21
616.59
  0
LINE
  8
0
 10
7.87236
 20
616.59
 11
7.79999
 21
617
  0
LINE
  8
0
 10
7.79999
 20
617
 11
7.87236
 21
617.41
  0
LINE
  8
0
 10
7.87236
 20
617.41
 11
8.08073
 21
617.771
  0
LINE
  8
0
 10
8.08073
 20
617.771
 11
8.39999
 21
618.039
  0
LINE
  8
0
 10
8.39999
 20
618.039
 11
8.79161
 21
618.182
  0
LINE
  8
0
 10
8.79161
 20
618.182
 11
9.20837
 21
618.182
  0
LINE
  8
0
 10
9.20837
 20
618.182
 11
9.59999
 21
618.039
  0
LINE
  8
0
 10
9.59999
 20
618.039
 11
9.91925
 21
617.771
  0
LINE
  8
0
 10
9.91925
 20
617.771
 11
10.1276
 21
617.41
  0
LINE
  8
0
 10
10.1276
 20
617.41
 11
10.2
 21
617
  0
LINE
  8
0
 10
10.2
 20
617
 11
10.1276
 21
616.59
  0
LINE
  8
0
 10
10.1276
 20
616.59
 11
9.91925
 21
616.229
  0
LINE
  8
0
 10
9.91925
 20
616.229
 11
9.59999
 21
615.961
  0
LINE
  8
0
 10
9.59999
 20
615.961
 11
9.20837
 21
615.818
  0
LINE
  8
0
 10
9.20837
 20
615.818
 11
8.79161
 21
615.818
  0
LINE
  8
0
 10
14.7916
 20
607.818
 11
14.4
 21
607.961
  0
LINE
  8
0
 10
14.4
 20
607.961
 11
14.0807
 21
608.229
  0
LINE
  8
0
 10
14.0807
 20
608.229
 11
13.8724
 21
608.59
  0
LINE
  8
0
 10
13.8724
 20
608.59
 11
13.8
 21
609
  0
LINE
  8
0
 10
13.8
 20
609
 11
13.8724
 21
609.41
  0
LINE
  8
0
 10
13.8724
 20
609.41
 11
14.0807
 21
609.771
  0
LINE
  8
0
 10
14.0807
 20
609.771
 11
14.4
 21
610.039
  0
LINE
  8
0
 10
14.4
 20
610.039
 11
14.7916
 21
610.182
  0
LINE
  8
0
 10
14.7916
 20
610.182
 11
15.2084
 21
610.182
  0
LINE
  8
0
 10
15.2084
 20
610.182
 11
15.6
 21
610.039
  0
LINE
  8
0
 10
15.6
 20
610.039
 11
15.9193
 21
609.771
  0
LINE
  8
0
 10
15.9193
 20
609.771
 11
16.1276
 21
609.41
  0
LINE
  8
0
 10
16.1276
 20
609.41
 11
16.2
 21
609
  0
LINE
  8
0
 10
16.2
 20
609
 11
16.1276
 21
608.59
  0
LINE
  8
0
 10
16.1276
 20
608.59
 11
15.9193
 21
608.229
  0
LINE
  8
0
 10
15.9193
 20
608.229
 11
15.6
 21
607.961
  0
LINE
  8
0
 10
15.6
 20
607.961
 11
15.2084
 21
607.818
  0
LINE
  8
0
 10
15.2084
 20
607.818
 11
14.7916
 21
607.818
  0
LINE
  8
0
 10
14.7916
 20
599.818
 11
14.4
 21
599.961
  0
LINE
  8
0
 10
14.4
 20
599.961
 11
14.0807
 21
600.229
  0
LINE
  8
0
 10
14.0807
 20
600.229
 11
13.8724
 21
600.59
  0
LINE
  8
0
 10
13.8724
 20
600.59
 11
13.8
 21
601
  0
LINE
  8
0
 10
13.8
 20
601
 11
13.8724
 21
601.41
  0
LINE
  8
0
 10
13.8724
 20
601.41
 11
14.0807
 21
601.771
  0
LINE
  8
0
 10
14.0807
 20
601.771
 11
14.4
 21
602.039
  0
LINE
  8
0
 10
14.4
 20
602.039
 11
14.7916
 21
602.182
  0
LINE
  8
0
 10
14.7916
 20
602.182
 11
15.2084
 21
602.182
  0
LINE
  8
0
 10
15.2084
 20
602.182
 11
15.6
 21
602.039
  0
LINE
  8
0
 10
15.6
 20
602.039
 11
15.9193
 21
601.771
  0
LINE
  8
0
 10
15.9193
 20
601.771
 11
16.1276
 21
601.41
  0
LINE
  8
0
 10
16.1276
 20
601.41
 11
16.2
 21
601
  0
LINE
  8
0
 10
16.2
 20
601
 11
16.1276
 21
600.59
  0
LINE
  8
0
 10
16.1276
 20
600.59
 11
15.9193
 21
600.229
  0
LINE
  8
0
 10
15.9193
 20
600.229
 11
15.6
 21
599.961
  0
LINE
  8
0
 10
15.6
 20
599.961
 11
15.2084
 21
599.818
  0
LINE
  8
0
 10
15.2084
 20
599.818
 11
14.7916
 21
599.818
  0
LINE
  8
0
 10
12.7916
 20
575.818
 11
12.4
 21
575.961
  0
LINE
  8
0
 10
12.4
 20
575.961
 11
12.0807
 21
576.229
  0
LINE
  8
0
 10
12.0807
 20
576.229
 11
11.8724
 21
576.59
  0
LINE
  8
0
 10
11.8724
 20
576.59
 11
11.8
 21
577
  0
LINE
  8
0
 10
11.8
 20
577
 11
11.8724
 21
577.41
  0
LINE
  8
0
 10
11.8724
 20
577.41
 11
12.0807
 21
577.771
  0
LINE
  8
0
 10
12.0807
 20
577.771
 11
12.4
 21
578.039
  0
LINE
  8
0
 10
12.4
 20
578.039
 11
12.7916
 21
578.182
  0
LINE
  8
0
 10
12.7916
 20
578.182
 11
13.2084
 21
578.182
  0
LINE
  8
0
 10
13.2084
 20
578.182
 11
13.6
 21
578.039
  0
LINE
  8
0
 10
13.6
 20
578.039
 11
13.9193
 21
577.771
  0
LINE
  8
0
 10
13.9193
 20
577.771
 11
14.1276
 21
577.41
  0
LINE
  8
0
 10
14.1276
 20
577.41
 11
14.2
 21
577
  0
LINE
  8
0
 10
14.2
 20
577
 11
14.1276
 21
576.59
  0
LINE
  8
0
 10
14.1276
 20
576.59
 11
13.9193
 21
576.229
  0
LINE
  8
0
 10
13.9193
 20
576.229
 11
13.6
 21
575.961
  0
LINE
  8
0
 10
13.6
 20
575.961
 11
13.2084
 21
575.818
  0
LINE
  8
0
 10
13.2084
 20
575.818
 11
12.7916
 21
575.818
  0
LINE
  8
0
 10
10.7916
 20
551.818
 11
10.4
 21
551.961
  0
LINE
  8
0
 10
10.4
 20
551.961
 11
10.0807
 21
552.229
  0
LINE
  8
0
 10
10.0807
 20
552.229
 11
9.87236
 21
552.59
  0
LINE
  8
0
 10
9.87236
 20
552.59
 11
9.79999
 21
553
  0
LINE
  8
0
 10
9.79999
 20
553
 11
9.87236
 21
553.41
  0
LINE
  8
0
 10
9.87236
 20
553.41
 11
10.0807
 21
553.771
  0
LINE
  8
0
 10
10.0807
 20
553.771
 11
10.4
 21
554.039
  0
LINE
  8
0
 10
10.4
 20
554.039
 11
10.7916
 21
554.182
  0
LINE
  8
0
 10
10.7916
 20
554.182
 11
11.2084
 21
554.182
  0
LINE
  8
0
 10
11.2084
 20
554.182
 11
11.6
 21
554.039
  0
LINE
  8
0
 10
11.6
 20
554.039
 11
11.9193
 21
553.771
  0
LINE
  8
0
 10
11.9193
 20
553.771
 11
12.1276
 21
553.41
  0
LINE
  8
0
 10
12.1276
 20
553.41
 11
12.2
 21
553
  0
LINE
  8
0
 10
12.2
 20
553
 11
12.1276
 21
552.59
  0
LINE
  8
0
 10
12.1276
 20
552.59
 11
11.9193
 21
552.229
  0
LINE
  8
0
 10
11.9193
 20
552.229
 11
11.6
 21
551.961
  0
LINE
  8
0
 10
11.6
 20
551.961
 11
11.2084
 21
551.818
  0
LINE
  8
0
 10
11.2084
 20
551.818
 11
10.7916
 21
551.818
  0
LINE
  8
0
 10
10.7916
 20
543.818
 11
10.4
 21
543.961
  0
LINE
  8
0
 10
10.4
 20
543.961
 11
10.0807
 21
544.229
  0
LINE
  8
0
 10
10.0807
 20
544.229
 11
9.87236
 21
544.59
  0
LINE
  8
0
 10
9.87236
 20
544.59
 11
9.79999
 21
545
  0
LINE
  8
0
 10
9.79999
 20
545
 11
9.87236
 21
545.41
  0
LINE
  8
0
 10
9.87236
 20
545.41
 11
10.0807
 21
545.771
  0
LINE
  8
0
 10
10.0807
 20
545.771
 11
10.4
 21
546.039
  0
LINE
  8
0
 10
10.4
 20
546.039
 11
10.7916
 21
546.182
  0
LINE
  8
0
 10
10.7916
 20
546.182
 11
11.2084
 21
546.182
  0
LINE
  8
0
 10
11.2084
 20
546.182
 11
11.6
 21
546.039
  0
LINE
  8
0
 10
11.6
 20
546.039
 11
11.9193
 21
545.771
  0
LINE
  8
0
 10
11.9193
 20
545.771
 11
12.1276
 21
545.41
  0
LINE
  8
0
 10
12.1276
 20
545.41
 11
12.2
 21
545
  0
LINE
  8
0
 10
12.2
 20
545
 11
12.1276
 21
544.59
  0
LINE
  8
0
 10
12.1276
 20
544.59
 11
11.9193
 21
544.229
  0
LINE
  8
0
 10
11.9193
 20
544.229
 11
11.6
 21
543.961
  0
LINE
  8
0
 10
11.6
 20
543.961
 11
11.2084
 21
543.818
  0
LINE
  8
0
 10
11.2084
 20
543.818
 11
10.7916
 21
543.818
  0
LINE
  8
0
 10
8.79161
 20
519.818
 11
8.39999
 21
519.961
  0
LINE
  8
0
 10
8.39999
 20
519.961
 11
8.08073
 21
520.229
  0
LINE
  8
0
 10
8.08073
 20
520.229
 11
7.87236
 21
520.59
  0
LINE
  8
0
 10
7.87236
 20
520.59
 11
7.79999
 21
521
  0
LINE
  8
0
 10
7.79999
 20
521
 11
7.87236
 21
521.41
  0
LINE
  8
0
 10
7.87236
 20
521.41
 11
8.08073
 21
521.771
  0
LINE
  8
0
 10
8.08073
 20
521.771
 11
8.39999
 21
522.039
  0
LINE
  8
0
 10
8.39999
 20
522.039
 11
8.79161
 21
522.182
  0
LINE
  8
0
 10
8.79161
 20
522.182
 11
9.20837
 21
522.182
  0
LINE
  8
0
 10
9.20837
 20
522.182
 11
9.59999
 21
522.039
  0
LINE
  8
0
 10
9.59999
 20
522.039
 11
9.91925
 21
521.771
  0
LINE
  8
0
 10
9.91925
 20
521.771
 11
10.1276
 21
521.41
  0
LINE
  8
0
 10
10.1276
 20
521.41
 11
10.2
 21
521
  0
LINE
  8
0
 10
10.2
 20
521
 11
10.1276
 21
520.59
  0
LINE
  8
0
 10
10.1276
 20
520.59
 11
9.91925
 21
520.229
  0
LINE
  8
0
 10
9.91925
 20
520.229
 11
9.59999
 21
519.961
  0
LINE
  8
0
 10
9.59999
 20
519.961
 11
9.20837
 21
519.818
  0
LINE
  8
0
 10
9.20837
 20
519.818
 11
8.79161
 21
519.818
  0
LINE
  8
0
 10
14.7916
 20
511.818
 11
14.4
 21
511.961
  0
LINE
  8
0
 10
14.4
 20
511.961
 11
14.0807
 21
512.229
  0
LINE
  8
0
 10
14.0807
 20
512.229
 11
13.8724
 21
512.59
  0
LINE
  8
0
 10
13.8724
 20
512.59
 11
13.8
 21
513
  0
LINE
  8
0
 10
13.8
 20
513
 11
13.8724
 21
513.41
  0
LINE
  8
0
 10
13.8724
 20
513.41
 11
14.0807
 21
513.771
  0
LINE
  8
0
 10
14.0807
 20
513.771
 11
14.4
 21
514.039
  0
LINE
  8
0
 10
14.4
 20
514.039
 11
14.7916
 21
514.182
  0
LINE
  8
0
 10
14.7916
 20
514.182
 11
15.2084
 21
514.182
  0
LINE
  8
0
 10
15.2084
 20
514.182
 11
15.6
 21
514.039
  0
LINE
  8
0
 10
15.6
 20
514.039
 11
15.9193
 21
513.771
  0
LINE
  8
0
 10
15.9193
 20
513.771
 11
16.1276
 21
513.41
  0
LINE
  8
0
 10
16.1276
 20
513.41
 11
16.2
 21
513
  0
LINE
  8
0
 10
16.2
 20
513
 11
16.1276
 21
512.59
  0
LINE
  8
0
 10
16.1276
 20
512.59
 11
15.9193
 21
512.229
  0
LINE
  8
0
 10
15.9193
 20
512.229
 11
15.6
 21
511.961
  0
LINE
  8
0
 10
15.6
 20
511.961
 11
15.2084
 21
511.818
  0
LINE
  8
0
 10
15.2084
 20
511.818
 11
14.7916
 21
511.818
  0
LINE
  8
0
 10
12.7916
 20
503.818
 11
12.4
 21
503.961
  0
LINE
  8
0
 10
12.4
 20
503.961
 11
12.0807
 21
504.229
  0
LINE
  8
0
 10
12.0807
 20
504.229
 11
11.8724
 21
504.59
  0
LINE
  8
0
 10
11.8724
 20
504.59
 11
11.8
 21
505
  0
LINE
  8
0
 10
11.8
 20
505
 11
11.8724
 21
505.41
  0
LINE
  8
0
 10
11.8724
 20
505.41
 11
12.0807
 21
505.771
  0
LINE
  8
0
 10
12.0807
 20
505.771
 11
12.4
 21
506.039
  0
LINE
  8
0
 10
12.4
 20
506.039
 11
12.7916
 21
506.182
  0
LINE
  8
0
 10
12.7916
 20
506.182
 11
13.2084
 21
506.182
  0
LINE
  8
0
 10
13.2084
 20
506.182
 11
13.6
 21
506.039
  0
LINE
  8
0
 10
13.6
 20
506.039
 11
13.9193
 21
505.771
  0
LINE
  8
0
 10
13.9193
 20
505.771
 11
14.1276
 21
505.41
  0
LINE
  8
0
 10
14.1276
 20
505.41
 11
14.2
 21
505
  0
LINE
  8
0
 10
14.2
 20
505
 11
14.1276
 21
504.59
  0
LINE
  8
0
 10
14.1276
 20
504.59
 11
13.9193
 21
504.229
  0
LINE
  8
0
 10
13.9193
 20
504.229
 11
13.6
 21
503.961
  0
LINE
  8
0
 10
13.6
 20
503.961
 11
13.2084
 21
503.818
  0
LINE
  8
0
 10
13.2084
 20
503.818
 11
12.7916
 21
503.818
  0
LINE
  8
0
 10
10.7916
 20
495.818
 11
10.4
 21
495.961
  0
LINE
  8
0
 10
10.4
 20
495.961
 11
10.0807
 21
496.229
  0
LINE
  8
0
 10
10.0807
 20
496.229
 11
9.87236
 21
496.59
  0
LINE
  8
0
 10
9.87236
 20
496.59
 11
9.79999
 21
497
  0
LINE
  8
0
 10
9.79999
 20
497
 11
9.87236
 21
497.41
  0
LINE
  8
0
 10
9.87236
 20
497.41
 11
10.0807
 21
497.771
  0
LINE
  8
0
 10
10.0807
 20
497.771
 11
10.4
 21
498.039
  0
LINE
  8
0
 10
10.4
 20
498.039
 11
10.7916
 21
498.182
  0
LINE
  8
0
 10
10.7916
 20
498.182
 11
11.2084
 21
498.182
  0
LINE
  8
0
 10
11.2084
 20
498.182
 11
11.6
 21
498.039
  0
LINE
  8
0
 10
11.6
 20
498.039
 11
11.9193
 21
497.771
  0
LINE
  8
0
 10
11.9193
 20
497.771
 11
12.1276
 21
497.41
  0
LINE
  8
0
 10
12.1276
 20
497.41
 11
12.2
 21
497
  0
LINE
  8
0
 10
12.2
 20
497
 11
12.1276
 21
496.59
  0
LINE
  8
0
 10
12.1276
 20
496.59
 11
11.9193
 21
496.229
  0
LINE
  8
0
 10
11.9193
 20
496.229
 11
11.6
 21
495.961
  0
LINE
  8
0
 10
11.6
 20
495.961
 11
11.2084
 21
495.818
  0
LINE
  8
0
 10
11.2084
 20
495.818
 11
10.7916
 21
495.818
  0
LINE
  8
0
 10
8.79161
 20
487.818
 11
8.39999
 21
487.961
  0
LINE
  8
0
 10
8.39999
 20
487.961
 11
8.08073
 21
488.229
  0
LINE
  8
0
 10
8.08073
 20
488.229
 11
7.87236
 21
488.59
  0
LINE
  8
0
 10
7.87236
 20
488.59
 11
7.79999
 21
489
  0
LINE
  8
0
 10
7.79999
 20
489
 11
7.87236
 21
489.41
  0
LINE
  8
0
 10
7.87236
 20
489.41
 11
8.08073
 21
489.771
  0
LINE
  8
0
 10
8.08073
 20
489.771
 11
8.39999
 21
490.039
  0
LINE
  8
0
 10
8.39999
 20
490.039
 11
8.79161
 21
490.182
  0
LINE
  8
0
 10
8.79161
 20
490.182
 11
9.20837
 21
490.182
  0
LINE
  8
0
 10
9.20837
 20
490.182
 11
9.59999
 21
490.039
  0
LINE
  8
0
 10
9.59999
 20
490.039
 11
9.91925
 21
489.771
  0
LINE
  8
0
 10
9.91925
 20
489.771
 11
10.1276
 21
489.41
  0
LINE
  8
0
 10
10.1276
 20
489.41
 11
10.2
 21
489
  0
LINE
  8
0
 10
10.2
 20
489
 11
10.1276
 21
488.59
  0
LINE
  8
0
 10
10.1276
 20
488.59
 11
9.91925
 21
488.229
  0
LINE
  8
0
 10
9.91925
 20
488.229
 11
9.59999
 21
487.961
  0
LINE
  8
0
 10
9.59999
 20
487.961
 11
9.20837
 21
487.818
  0
LINE
  8
0
 10
9.20837
 20
487.818
 11
8.79161
 21
487.818
  0
LINE
  8
0
 10
14.7916
 20
479.818
 11
14.4
 21
479.961
  0
LINE
  8
0
 10
14.4
 20
479.961
 11
14.0807
 21
480.229
  0
LINE
  8
0
 10
14.0807
 20
480.229
 11
13.8724
 21
480.59
  0
LINE
  8
0
 10
13.8724
 20
480.59
 11
13.8
 21
481
  0
LINE
  8
0
 10
13.8
 20
481
 11
13.8724
 21
481.41
  0
LINE
  8
0
 10
13.8724
 20
481.41
 11
14.0807
 21
481.771
  0
LINE
  8
0
 10
14.0807
 20
481.771
 11
14.4
 21
482.039
  0
LINE
  8
0
 10
14.4
 20
482.039
 11
14.7916
 21
482.182
  0
LINE
  8
0
 10
14.7916
 20
482.182
 11
15.2084
 21
482.182
  0
LINE
  8
0
 10
15.2084
 20
482.182
 11
15.6
 21
482.039
  0
LINE
  8
0
 10
15.6
 20
482.039
 11
15.9193
 21
481.771
  0
LINE
  8
0
 10
15.9193
 20
481.771
 11
16.1276
 21
481.41
  0
LINE
  8
0
 10
16.1276
 20
481.41
 11
16.2
 21
481
  0
LINE
  8
0
 10
16.2
 20
481
 11
16.1276
 21
480.59
  0
LINE
  8
0
 10
16.1276
 20
480.59
 11
15.9193
 21
480.229
  0
LINE
  8
0
 10
15.9193
 20
480.229
 11
15.6
 21
479.961
  0
LINE
  8
0
 10
15.6
 20
479.961
 11
15.2084
 21
479.818
  0
LINE
  8
0
 10
15.2084
 20
479.818
 11
14.7916
 21
479.818
  0
LINE
  8
0
 10
14.7916
 20
471.818
 11
14.4
 21
471.961
  0
LINE
  8
0
 10
14.4
 20
471.961
 11
14.0807
 21
472.229
  0
LINE
  8
0
 10
14.0807
 20
472.229
 11
13.8724
 21
472.59
  0
LINE
  8
0
 10
13.8724
 20
472.59
 11
13.8
 21
473
  0
LINE
  8
0
 10
13.8
 20
473
 11
13.8724
 21
473.41
  0
LINE
  8
0
 10
13.8724
 20
473.41
 11
14.0807
 21
473.771
  0
LINE
  8
0
 10
14.0807
 20
473.771
 11
14.4
 21
474.039
  0
LINE
  8
0
 10
14.4
 20
474.039
 11
14.7916
 21
474.182
  0
LINE
  8
0
 10
14.7916
 20
474.182
 11
15.2084
 21
474.182
  0
LINE
  8
0
 10
15.2084
 20
474.182
 11
15.6
 21
474.039
  0
LINE
  8
0
 10
15.6
 20
474.039
 11
15.9193
 21
473.771
  0
LINE
  8
0
 10
15.9193
 20
473.771
 11
16.1276
 21
473.41
  0
LINE
  8
0
 10
16.1276
 20
473.41
 11
16.2
 21
473
  0
LINE
  8
0
 10
16.2
 20
473
 11
16.1276
 21
472.59
  0
LINE
  8
0
 10
16.1276
 20
472.59
 11
15.9193
 21
472.229
  0
LINE
  8
0
 10
15.9193
 20
472.229
 11
15.6
 21
471.961
  0
LINE
  8
0
 10
15.6
 20
471.961
 11
15.2084
 21
471.818
  0
LINE
  8
0
 10
15.2084
 20
471.818
 11
14.7916
 21
471.818
  0
LINE
  8
0
 10
10.7916
 20
423.818
 11
10.4
 21
423.961
  0
LINE
  8
0
 10
10.4
 20
423.961
 11
10.0807
 21
424.229
  0
LINE
  8
0
 10
10.0807
 20
424.229
 11
9.87236
 21
424.59
  0
LINE
  8
0
 10
9.87236
 20
424.59
 11
9.79999
 21
425
  0
LINE
  8
0
 10
9.79999
 20
425
 11
9.87236
 21
425.41
  0
LINE
  8
0
 10
9.87236
 20
425.41
 11
10.0807
 21
425.771
  0
LINE
  8
0
 10
10.0807
 20
425.771
 11
10.4
 21
426.039
  0
LINE
  8
0
 10
10.4
 20
426.039
 11
10.7916
 21
426.182
  0
LINE
  8
0
 10
10.7916
 20
426.182
 11
11.2084
 21
426.182
  0
LINE
  8
0
 10
11.2084
 20
426.182
 11
11.6
 21
426.039
  0
LINE
  8
0
 10
11.6
 20
426.039
 11
11.9193
 21
425.771
  0
LINE
  8
0
 10
11.9193
 20
425.771
 11
12.1276
 21
425.41
  0
LINE
  8
0
 10
12.1276
 20
425.41
 11
12.2
 21
425
  0
LINE
  8
0
 10
12.2
 20
425
 11
12.1276
 21
424.59
  0
LINE
  8
0
 10
12.1276
 20
424.59
 11
11.9193
 21
424.229
  0
LINE
  8
0
 10
11.9193
 20
424.229
 11
11.6
 21
423.961
  0
LINE
  8
0
 10
11.6
 20
423.961
 11
11.2084
 21
423.818
  0
LINE
  8
0
 10
11.2084
 20
423.818
 11
10.7916
 21
423.818
  0
LINE
  8
0
 10
10.7916
 20
415.818
 11
10.4
 21
415.961
  0
LINE
  8
0
 10
10.4
 20
415.961
 11
10.0807
 21
416.229
  0
LINE
  8
0
 10
10.0807
 20
416.229
 11
9.87236
 21
416.59
  0
LINE
  8
0
 10
9.87236
 20
416.59
 11
9.79999
 21
417
  0
LINE
  8
0
 10
9.79999
 20
417
 11
9.87236
 21
417.41
  0
LINE
  8
0
 10
9.87236
 20
417.41
 11
10.0807
 21
417.771
  0
LINE
  8
0
 10
10.0807
 20
417.771
 11
10.4
 21
418.039
  0
LINE
  8
0
 10
10.4
 20
418.039
 11
10.7916
 21
418.182
  0
LINE
  8
0
 10
10.7916
 20
418.182
 11
11.2084
 21
418.182
  0
LINE
  8
0
 10
11.2084
 20
418.182
 11
11.6
 21
418.039
  0
LINE
  8
0
 10
11.6
 20
418.039
 11
11.9193
 21
417.771
  0
LINE
  8
0
 10
11.9193
 20
417.771
 11
12.1276
 21
417.41
  0
LINE
  8
0
 10
12.1276
 20
417.41
 11
12.2
 21
417
  0
LINE
  8
0
 10
12.2
 20
417
 11
12.1276
 21
416.59
  0
LINE
  8
0
 10
12.1276
 20
416.59
 11
11.9193
 21
416.229
  0
LINE
  8
0
 10
11.9193
 20
416.229
 11
11.6
 21
415.961
  0
LINE
  8
0
 10
11.6
 20
415.961
 11
11.2084
 21
415.818
  0
LINE
  8
0
 10
11.2084
 20
415.818
 11
10.7916
 21
415.818
  0
LINE
  8
0
 10
8.79161
 20
391.818
 11
8.39999
 21
391.961
  0
LINE
  8
0
 10
8.39999
 20
391.961
 11
8.08073
 21
392.229
  0
LINE
  8
0
 10
8.08073
 20
392.229
 11
7.87236
 21
392.59
  0
LINE
  8
0
 10
7.87236
 20
392.59
 11
7.79999
 21
393
  0
LINE
  8
0
 10
7.79999
 20
393
 11
7.87236
 21
393.41
  0
LINE
  8
0
 10
7.87236
 20
393.41
 11
8.08073
 21
393.771
  0
LINE
  8
0
 10
8.08073
 20
393.771
 11
8.39999
 21
394.039
  0
LINE
  8
0
 10
8.39999
 20
394.039
 11
8.79161
 21
394.182
  0
LINE
  8
0
 10
8.79161
 20
394.182
 11
9.20837
 21
394.182
  0
LINE
  8
0
 10
9.20837
 20
394.182
 11
9.59999
 21
394.039
  0
LINE
  8
0
 10
9.59999
 20
394.039
 11
9.91925
 21
393.771
  0
LINE
  8
0
 10
9.91925
 20
393.771
 11
10.1276
 21
393.41
  0
LINE
  8
0
 10
10.1276
 20
393.41
 11
10.2
 21
393
  0
LINE
  8
0
 10
10.2
 20
393
 11
10.1276
 21
392.59
  0
LINE
  8
0
 10
10.1276
 20
392.59
 11
9.91925
 21
392.229
  0
LINE
  8
0
 10
9.91925
 20
392.229
 11
9.59999
 21
391.961
  0
LINE
  8
0
 10
9.59999
 20
391.961
 11
9.20837
 21
391.818
  0
LINE
  8
0
 10
9.20837
 20
391.818
 11
8.79161
 21
391.818
  0
LINE
  8
0
 10
14.7916
 20
383.818
 11
14.4
 21
383.961
  0
LINE
  8
0
 10
14.4
 20
383.961
 11
14.0807
 21
384.229
  0
LINE
  8
0
 10
14.0807
 20
384.229
 11
13.8724
 21
384.59
  0
LINE
  8
0
 10
13.8724
 20
384.59
 11
13.8
 21
385
  0
LINE
  8
0
 10
13.8
 20
385
 11
13.8724
 21
385.41
  0
LINE
  8
0
 10
13.8724
 20
385.41
 11
14.0807
 21
385.771
  0
LINE
  8
0
 10
14.0807
 20
385.771
 11
14.4
 21
386.039
  0
LINE
  8
0
 10
14.4
 20
386.039
 11
14.7916
 21
386.182
  0
LINE
  8
0
 10
14.7916
 20
386.182
 11
15.2084
 21
386.182
  0
LINE
  8
0
 10
15.2084
 20
386.182
 11
15.6
 21
386.039
  0
LINE
  8
0
 10
15.6
 20
386.039
 11
15.9193
 21
385.771
  0
LINE
  8
0
 10
15.9193
 20
385.771
 11
16.1276
 21
385.41
  0
LINE
  8
0
 10
16.1276
 20
385.41
 11
16.2
 21
385
  0
LINE
  8
0
 10
16.2
 20
385
 11
16.1276
 21
384.59
  0
LINE
  8
0
 10
16.1276
 20
384.59
 11
15.9193
 21
384.229
  0
LINE
  8
0
 10
15.9193
 20
384.229
 11
15.6
 21
383.961
  0
LINE
  8
0
 10
15.6
 20
383.961
 11
15.2084
 21
383.818
  0
LINE
  8
0
 10
15.2084
 20
383.818
 11
14.7916
 21
383.818
  0
LINE
  8
0
 10
12.7916
 20
375.818
 11
12.4
 21
375.961
  0
LINE
  8
0
 10
12.4
 20
375.961
 11
12.0807
 21
376.229
  0
LINE
  8
0
 10
12.0807
 20
376.229
 11
11.8724
 21
376.59
  0
LINE
  8
0
 10
11.8724
 20
376.59
 11
11.8
 21
377
  0
LINE
  8
0
 10
11.8
 20
377
 11
11.8724
 21
377.41
  0
LINE
  8
0
 10
11.8724
 20
377.41
 11
12.0807
 21
377.771
  0
LINE
  8
0
 10
12.0807
 20
377.771
 11
12.4
 21
378.039
  0
LINE
  8
0
 10
12.4
 20
378.039
 11
12.7916
 21
378.182
  0
LINE
  8
0
 10
12.7916
 20
378.182
 11
13.2084
 21
378.182
  0
LINE
  8
0
 10
13.2084
 20
378.182
 11
13.6
 21
378.039
  0
LINE
  8
0
 10
13.6
 20
378.039
 11
13.9193
 21
377.771
  0
LINE
  8
0
 10
13.9193
 20
377.771
 11
14.1276
 21
377.41
  0
LINE
  8
0
 10
14.1276
 20
377.41
 11
14.2
 21
377
  0
LINE
  8
0
 10
14.2
 20
377
 11
14.1276
 21
376.59
  0
LINE
  8
0
 10
14.1276
 20
376.59
 11
13.9193
 21
376.229
  0
LINE
  8
0
 10
13.9193
 20
376.229
 11
13.6
 21
375.961
  0
LINE
  8
0
 10
13.6
 20
375.961
 11
13.2084
 21
375.818
  0
LINE
  8
0
 10
13.2084
 20
375.818
 11
12.7916
 21
375.818
  0
LINE
  8
0
 10
10.7916
 20
367.818
 11
10.4
 21
367.961
  0
LINE
  8
0
 10
10.4
 20
367.961
 11
10.0807
 21
368.229
  0
LINE
  8
0
 10
10.0807
 20
368.229
 11
9.87236
 21
368.59
  0
LINE
  8
0
 10
9.87236
 20
368.59
 11
9.79999
 21
369
  0
LINE
  8
0
 10
9.79999
 20
369
 11
9.87236
 21
369.41
  0
LINE
  8
0
 10
9.87236
 20
369.41
 11
10.0807
 21
369.771
  0
LINE
  8
0
 10
10.0807
 20
369.771
 11
10.4
 21
370.039
  0
LINE
  8
0
 10
10.4
 20
370.039
 11
10.7916
 21
370.182
  0
LINE
  8
0
 10
10.7916
 20
370.182
 11
11.2084
 21
370.182
  0
LINE
  8
0
 10
11.2084
 20
370.182
 11
11.6
 21
370.039
  0
LINE
  8
0
 10
11.6
 20
370.039
 11
11.9193
 21
369.771
  0
LINE
  8
0
 10
11.9193
 20
369.771
 11
12.1276
 21
369.41
  0
LINE
  8
0
 10
12.1276
 20
369.41
 11
12.2
 21
369
  0
LINE
  8
0
 10
12.2
 20
369
 11
12.1276
 21
368.59
  0
LINE
  8
0
 10
12.1276
 20
368.59
 11
11.9193
 21
368.229
  0
LINE
  8
0
 10
11.9193
 20
368.229
 11
11.6
 21
367.961
  0
LINE
  8
0
 10
11.6
 20
367.961
 11
11.2084
 21
367.818
  0
LINE
  8
0
 10
11.2084
 20
367.818
 11
10.7916
 21
367.818
  0
LINE
  8
0
 10
8.79161
 20
359.818
 11
8.39999
 21
359.961
  0
LINE
  8
0
 10
8.39999
 20
359.961
 11
8.08073
 21
360.229
  0
LINE
  8
0
 10
8.08073
 20
360.229
 11
7.87236
 21
360.59
  0
LINE
  8
0
 10
7.87236
 20
360.59
 11
7.79999
 21
361
  0
LINE
  8
0
 10
7.79999
 20
361
 11
7.87236
 21
361.41
  0
LINE
  8
0
 10
7.87236
 20
361.41
 11
8.08073
 21
361.771
  0
LINE
  8
0
 10
8.08073
 20
361.771
 11
8.39999
 21
362.039
  0
LINE
  8
0
 10
8.39999
 20
362.039
 11
8.79161
 21
362.182
  0
LINE
  8
0
 10
8.79161
 20
362.182
 11
9.20837
 21
362.182
  0
LINE
  8
0
 10
9.20837
 20
362.182
 11
9.59999
 21
362.039
  0
LINE
  8
0
 10
9.59999
 20
362.039
 11
9.91925
 21
361.771
  0
LINE
  8
0
 10
9.91925
 20
361.771
 11
10.1276
 21
361.41
  0
LINE
  8
0
 10
10.1276
 20
361.41
 11
10.2
 21
361
  0
LINE
  8
0
 10
10.2
 20
361
 11
10.1276
 21
360.59
  0
LINE
  8
0
 10
10.1276
 20
360.59
 11
9.91925
 21
360.229
  0
LINE
  8
0
 10
9.91925
 20
360.229
 11
9.59999
 21
359.961
  0
LINE
  8
0
 10
9.59999
 20
359.961
 11
9.20837
 21
359.818
  0
LINE
  8
0
 10
9.20837
 20
359.818
 11
8.79161
 21
359.818
  0
LINE
  8
0
 10
14.7916
 20
351.818
 11
14.4
 21
351.961
  0
LINE
  8
0
 10
14.4
 20
351.961
 11
14.0807
 21
352.229
  0
LINE
  8
0
 10
14.0807
 20
352.229
 11
13.8724
 21
352.59
  0
LINE
  8
0
 10
13.8724
 20
352.59
 11
13.8
 21
353
  0
LINE
  8
0
 10
13.8
 20
353
 11
13.8724
 21
353.41
  0
LINE
  8
0
 10
13.8724
 20
353.41
 11
14.0807
 21
353.771
  0
LINE
  8
0
 10
14.0807
 20
353.771
 11
14.4
 21
354.039
  0
LINE
  8
0
 10
14.4
 20
354.039
 11
14.7916
 21
354.182
  0
LINE
  8
0
 10
14.7916
 20
354.182
 11
15.2084
 21
354.182
  0
LINE
  8
0
 10
15.2084
 20
354.182
 11
15.6
 21
354.039
  0
LINE
  8
0
 10
15.6
 20
354.039
 11
15.9193
 21
353.771
  0
LINE
  8
0
 10
15.9193
 20
353.771
 11
16.1276
 21
353.41
  0
LINE
  8
0
 10
16.1276
 20
353.41
 11
16.2
 21
353
  0
LINE
  8
0
 10
16.2
 20
353
 11
16.1276
 21
352.59
  0
LINE
  8
0
 10
16.1276
 20
352.59
 11
15.9193
 21
352.229
  0
LINE
  8
0
 10
15.9193
 20
352.229
 11
15.6
 21
351.961
  0
LINE
  8
0
 10
15.6
 20
351.961
 11
15.2084
 21
351.818
  0
LINE
  8
0
 10
15.2084
 20
351.818
 11
14.7916
 21
351.818
  0
LINE
  8
0
 10
12.7916
 20
319.818
 11
12.4
 21
319.961
  0
LINE
  8
0
 10
12.4
 20
319.961
 11
12.0807
 21
320.229
  0
LINE
  8
0
 10
12.0807
 20
320.229
 11
11.8724
 21
320.59
  0
LINE
  8
0
 10
11.8724
 20
320.59
 11
11.8
 21
321
  0
LINE
  8
0
 10
11.8
 20
321
 11
11.8724
 21
321.41
  0
LINE
  8
0
 10
11.8724
 20
321.41
 11
12.0807
 21
321.771
  0
LINE
  8
0
 10
12.0807
 20
321.771
 11
12.4
 21
322.039
  0
LINE
  8
0
 10
12.4
 20
322.039
 11
12.7916
 21
322.182
  0
LINE
  8
0
 10
12.7916
 20
322.182
 11
13.2084
 21
322.182
  0
LINE
  8
0
 10
13.2084
 20
322.182
 11
13.6
 21
322.039
  0
LINE
  8
0
 10
13.6
 20
322.039
 11
13.9193
 21
321.771
  0
LINE
  8
0
 10
13.9193
 20
321.771
 11
14.1276
 21
321.41
  0
LINE
  8
0
 10
14.1276
 20
321.41
 11
14.2
 21
321
  0
LINE
  8
0
 10
14.2
 20
321
 11
14.1276
 21
320.59
  0
LINE
  8
0
 10
14.1276
 20
320.59
 11
13.9193
 21
320.229
  0
LINE
  8
0
 10
13.9193
 20
320.229
 11
13.6
 21
319.961
  0
LINE
  8
0
 10
13.6
 20
319.961
 11
13.2084
 21
319.818
  0
LINE
  8
0
 10
13.2084
 20
319.818
 11
12.7916
 21
319.818
  0
LINE
  8
0
 10
10.7916
 20
295.818
 11
10.4
 21
295.961
  0
LINE
  8
0
 10
10.4
 20
295.961
 11
10.0807
 21
296.229
  0
LINE
  8
0
 10
10.0807
 20
296.229
 11
9.87236
 21
296.59
  0
LINE
  8
0
 10
9.87236
 20
296.59
 11
9.79999
 21
297
  0
LINE
  8
0
 10
9.79999
 20
297
 11
9.87236
 21
297.41
  0
LINE
  8
0
 10
9.87236
 20
297.41
 11
10.0807
 21
297.771
  0
LINE
  8
0
 10
10.0807
 20
297.771
 11
10.4
 21
298.039
  0
LINE
  8
0
 10
10.4
 20
298.039
 11
10.7916
 21
298.182
  0
LINE
  8
0
 10
10.7916
 20
298.182
 11
11.2084
 21
298.182
  0
LINE
  8
0
 10
11.2084
 20
298.182
 11
11.6
 21
298.039
  0
LINE
  8
0
 10
11.6
 20
298.039
 11
11.9193
 21
297.771
  0
LINE
  8
0
 10
11.9193
 20
297.771
 11
12.1276
 21
297.41
  0
LINE
  8
0
 10
12.1276
 20
297.41
 11
12.2
 21
297
  0
LINE
  8
0
 10
12.2
 20
297
 11
12.1276
 21
296.59
  0
LINE
  8
0
 10
12.1276
 20
296.59
 11
11.9193
 21
296.229
  0
LINE
  8
0
 10
11.9193
 20
296.229
 11
11.6
 21
295.961
  0
LINE
  8
0
 10
11.6
 20
295.961
 11
11.2084
 21
295.818
  0
LINE
  8
0
 10
11.2084
 20
295.818
 11
10.7916
 21
295.818
  0
LINE
  8
0
 10
10.7916
 20
287.818
 11
10.4
 21
287.961
  0
LINE
  8
0
 10
10.4
 20
287.961
 11
10.0807
 21
288.229
  0
LINE
  8
0
 10
10.0807
 20
288.229
 11
9.87236
 21
288.59
  0
LINE
  8
0
 10
9.87236
 20
288.59
 11
9.79999
 21
289
  0
LINE
  8
0
 10
9.79999
 20
289
 11
9.87236
 21
289.41
  0
LINE
  8
0
 10
9.87236
 20
289.41
 11
10.0807
 21
289.771
  0
LINE
  8
0
 10
10.0807
 20
289.771
 11
10.4
 21
290.039
  0
LINE
  8
0
 10
10.4
 20
290.039
 11
10.7916
 21
290.182
  0
LINE
  8
0
 10
10.7916
 20
290.182
 11
11.2084
 21
290.182
  0
LINE
  8
0
 10
11.2084
 20
290.182
 11
11.6
 21
290.039
  0
LINE
  8
0
 10
11.6
 20
290.039
 11
11.9193
 21
289.771
  0
LINE
  8
0
 10
11.9193
 20
289.771
 11
12.1276
 21
289.41
  0
LINE
  8
0
 10
12.1276
 20
289.41
 11
12.2
 21
289
  0
LINE
  8
0
 10
12.2
 20
289
 11
12.1276
 21
288.59
  0
LINE
  8
0
 10
12.1276
 20
288.59
 11
11.9193
 21
288.229
  0
LINE
  8
0
 10
11.9193
 20
288.229
 11
11.6
 21
287.961
  0
LINE
  8
0
 10
11.6
 20
287.961
 11
11.2084
 21
287.818
  0
LINE
  8
0
 10
11.2084
 20
287.818
 11
10.7916
 21
287.818
  0
LINE
  8
0
 10
8.79161
 20
263.818
 11
8.39999
 21
263.961
  0
LINE
  8
0
 10
8.39999
 20
263.961
 11
8.08073
 21
264.229
  0
LINE
  8
0
 10
8.08073
 20
264.229
 11
7.87236
 21
264.59
  0
LINE
  8
0
 10
7.87236
 20
264.59
 11
7.79999
 21
265
  0
LINE
  8
0
 10
7.79999
 20
265
 11
7.87236
 21
265.41
  0
LINE
  8
0
 10
7.87236
 20
265.41
 11
8.08073
 21
265.771
  0
LINE
  8
0
 10
8.08073
 20
265.771
 11
8.39999
 21
266.039
  0
LINE
  8
0
 10
8.39999
 20
266.039
 11
8.79161
 21
266.182
  0
LINE
  8
0
 10
8.79161
 20
266.182
 11
9.20837
 21
266.182
  0
LINE
  8
0
 10
9.20837
 20
266.182
 11
9.59999
 21
266.039
  0
LINE
  8
0
 10
9.59999
 20
266.039
 11
9.91925
 21
265.771
  0
LINE
  8
0
 10
9.91925
 20
265.771
 11
10.1276
 21
265.41
  0
LINE
  8
0
 10
10.1276
 20
265.41
 11
10.2
 21
265
  0
LINE
  8
0
 10
10.2
 20
265
 11
10.1276
 21
264.59
  0
LINE
  8
0
 10
10.1276
 20
264.59
 11
9.91925
 21
264.229
  0
LINE
  8
0
 10
9.91925
 20
264.229
 11
9.59999
 21
263.961
  0
LINE
  8
0
 10
9.59999
 20
263.961
 11
9.20837
 21
263.818
  0
LINE
  8
0
 10
9.20837
 20
263.818
 11
8.79161
 21
263.818
  0
LINE
  8
0
 10
8.79161
 20
255.818
 11
8.39999
 21
255.961
  0
LINE
  8
0
 10
8.39999
 20
255.961
 11
8.08073
 21
256.229
  0
LINE
  8
0
 10
8.08073
 20
256.229
 11
7.87236
 21
256.59
  0
LINE
  8
0
 10
7.87236
 20
256.59
 11
7.79999
 21
257
  0
LINE
  8
0
 10
7.79999
 20
257
 11
7.87236
 21
257.41
  0
LINE
  8
0
 10
7.87236
 20
257.41
 11
8.08073
 21
257.771
  0
LINE
  8
0
 10
8.08073
 20
257.771
 11
8.39999
 21
258.039
  0
LINE
  8
0
 10
8.39999
 20
258.039
 11
8.79161
 21
258.182
  0
LINE
  8
0
 10
8.79161
 20
258.182
 11
9.20837
 21
258.182
  0
LINE
  8
0
 10
9.20837
 20
258.182
 11
9.59999
 21
258.039
  0
LINE
  8
0
 10
9.59999
 20
258.039
 11
9.91925
 21
257.771
  0
LINE
  8
0
 10
9.91925
 20
257.771
 11
10.1276
 21
257.41
  0
LINE
  8
0
 10
10.1276
 20
257.41
 11
10.2
 21
257
  0
LINE
  8
0
 10
10.2
 20
257
 11
10.1276
 21
256.59
  0
LINE
  8
0
 10
10.1276
 20
256.59
 11
9.91925
 21
256.229
  0
LINE
  8
0
 10
9.91925
 20
256.229
 11
9.59999
 21
255.961
  0
LINE
  8
0
 10
9.59999
 20
255.961
 11
9.20837
 21
255.818
  0
LINE
  8
0
 10
9.20837
 20
255.818
 11
8.79161
 21
255.818
  0
LINE
  8
0
 10
8.79161
 20
247.818
 11
8.39999
 21
247.961
  0
LINE
  8
0
 10
8.39999
 20
247.961
 11
8.08073
 21
248.229
  0
LINE
  8
0
 10
8.08073
 20
248.229
 11
7.87236
 21
248.59
  0
LINE
  8
0
 10
7.87236
 20
248.59
 11
7.79999
 21
249
  0
LINE
  8
0
 10
7.79999
 20
249
 11
7.87236
 21
249.41
  0
LINE
  8
0
 10
7.87236
 20
249.41
 11
8.08073
 21
249.771
  0
LINE
  8
0
 10
8.08073
 20
249.771
 11
8.39999
 21
250.039
  0
LINE
  8
0
 10
8.39999
 20
250.039
 11
8.79161
 21
250.182
  0
LINE
  8
0
 10
8.79161
 20
250.182
 11
9.20837
 21
250.182
  0
LINE
  8
0
 10
9.20837
 20
250.182
 11
9.59999
 21
250.039
  0
LINE
  8
0
 10
9.59999
 20
250.039
 11
9.91925
 21
249.771
  0
LINE
  8
0
 10
9.91925
 20
249.771
 11
10.1276
 21
249.41
  0
LINE
  8
0
 10
10.1276
 20
249.41
 11
10.2
 21
249
  0
LINE
  8
0
 10
10.2
 20
249
 11
10.1276
 21
248.59
  0
LINE
  8
0
 10
10.1276
 20
248.59
 11
9.91925
 21
248.229
  0
LINE
  8
0
 10
9.91925
 20
248.229
 11
9.59999
 21
247.961
  0
LINE
  8
0
 10
9.59999
 20
247.961
 11
9.20837
 21
247.818
  0
LINE
  8
0
 10
9.20837
 20
247.818
 11
8.79161
 21
247.818
  0
LINE
  8
0
 10
8.79161
 20
239.818
 11
8.39999
 21
239.961
  0
LINE
  8
0
 10
8.39999
 20
239.961
 11
8.08073
 21
240.229
  0
LINE
  8
0
 10
8.08073
 20
240.229
 11
7.87236
 21
240.59
  0
LINE
  8
0
 10
7.87236
 20
240.59
 11
7.79999
 21
241
  0
LINE
  8
0
 10
7.79999
 20
241
 11
7.87236
 21
241.41
  0
LINE
  8
0
 10
7.87236
 20
241.41
 11
8.08073
 21
241.771
  0
LINE
  8
0
 10
8.08073
 20
241.771
 11
8.39999
 21
242.039
  0
LINE
  8
0
 10
8.39999
 20
242.039
 11
8.79161
 21
242.182
  0
LINE
  8
0
 10
8.79161
 20
242.182
 11
9.20837
 21
242.182
  0
LINE
  8
0
 10
9.20837
 20
242.182
 11
9.59999
 21
242.039
  0
LINE
  8
0
 10
9.59999
 20
242.039
 11
9.91925
 21
241.771
  0
LINE
  8
0
 10
9.91925
 20
241.771
 11
10.1276
 21
241.41
  0
LINE
  8
0
 10
10.1276
 20
241.41
 11
10.2
 21
241
  0
LINE
  8
0
 10
10.2
 20
241
 11
10.1276
 21
240.59
  0
LINE
  8
0
 10
10.1276
 20
240.59
 11
9.91925
 21
240.229
  0
LINE
  8
0
 10
9.91925
 20
240.229
 11
9.59999
 21
239.961
  0
LINE
  8
0
 10
9.59999
 20
239.961
 11
9.20837
 21
239.818
  0
LINE
  8
0
 10
9.20837
 20
239.818
 11
8.79161
 21
239.818
  0
LINE
  8
0
 10
8.79161
 20
231.818
 11
8.39999
 21
231.961
  0
LINE
  8
0
 10
8.39999
 20
231.961
 11
8.08073
 21
232.229
  0
LINE
  8
0
 10
8.08073
 20
232.229
 11
7.87236
 21
232.59
  0
LINE
  8
0
 10
7.87236
 20
232.59
 11
7.79999
 21
233
  0
LINE
  8
0
 10
7.79999
 20
233
 11
7.87236
 21
233.41
  0
LINE
  8
0
 10
7.87236
 20
233.41
 11
8.08073
 21
233.771
  0
LINE
  8
0
 10
8.08073
 20
233.771
 11
8.39999
 21
234.039
  0
LINE
  8
0
 10
8.39999
 20
234.039
 11
8.79161
 21
234.182
  0
LINE
  8
0
 10
8.79161
 20
234.182
 11
9.20837
 21
234.182
  0
LINE
  8
0
 10
9.20837
 20
234.182
 11
9.59999
 21
234.039
  0
LINE
  8
0
 10
9.59999
 20
234.039
 11
9.91925
 21
233.771
  0
LINE
  8
0
 10
9.91925
 20
233.771
 11
10.1276
 21
233.41
  0
LINE
  8
0
 10
10.1276
 20
233.41
 11
10.2
 21
233
  0
LINE
  8
0
 10
10.2
 20
233
 11
10.1276
 21
232.59
  0
LINE
  8
0
 10
10.1276
 20
232.59
 11
9.91925
 21
232.229
  0
LINE
  8
0
 10
9.91925
 20
232.229
 11
9.59999
 21
231.961
  0
LINE
  8
0
 10
9.59999
 20
231.961
 11
9.20837
 21
231.818
  0
LINE
  8
0
 10
9.20837
 20
231.818
 11
8.79161
 21
231.818
  0
LINE
  8
0
 10
8.79161
 20
223.818
 11
8.39999
 21
223.961
  0
LINE
  8
0
 10
8.39999
 20
223.961
 11
8.08073
 21
224.229
  0
LINE
  8
0
 10
8.08073
 20
224.229
 11
7.87236
 21
224.59
  0
LINE
  8
0
 10
7.87236
 20
224.59
 11
7.79999
 21
225
  0
LINE
  8
0
 10
7.79999
 20
225
 11
7.87236
 21
225.41
  0
LINE
  8
0
 10
7.87236
 20
225.41
 11
8.08073
 21
225.771
  0
LINE
  8
0
 10
8.08073
 20
225.771
 11
8.39999
 21
226.039
  0
LINE
  8
0
 10
8.39999
 20
226.039
 11
8.79161
 21
226.182
  0
LINE
  8
0
 10
8.79161
 20
226.182
 11
9.20837
 21
226.182
  0
LINE
  8
0
 10
9.20837
 20
226.182
 11
9.59999
 21
226.039
  0
LINE
  8
0
 10
9.59999
 20
226.039
 11
9.91925
 21
225.771
  0
LINE
  8
0
 10
9.91925
 20
225.771
 11
10.1276
 21
225.41
  0
LINE
  8
0
 10
10.1276
 20
225.41
 11
10.2
 21
225
  0
LINE
  8
0
 10
10.2
 20
225
 11
10.1276
 21
224.59
  0
LINE
  8
0
 10
10.1276
 20
224.59
 11
9.91925
 21
224.229
  0
LINE
  8
0
 10
9.91925
 20
224.229
 11
9.59999
 21
223.961
  0
LINE
  8
0
 10
9.59999
 20
223.961
 11
9.20837
 21
223.818
  0
LINE
  8
0
 10
9.20837
 20
223.818
 11
8.79161
 21
223.818
  0
LINE
  8
0
 10
28.7916
 20
143.818
 11
28.4
 21
143.961
  0
LINE
  8
0
 10
28.4
 20
143.961
 11
28.0807
 21
144.229
  0
LINE
  8
0
 10
28.0807
 20
144.229
 11
27.8724
 21
144.59
  0
LINE
  8
0
 10
27.8724
 20
144.59
 11
27.8
 21
145
  0
LINE
  8
0
 10
27.8
 20
145
 11
27.8724
 21
145.41
  0
LINE
  8
0
 10
27.8724
 20
145.41
 11
28.0807
 21
145.771
  0
LINE
  8
0
 10
28.0807
 20
145.771
 11
28.4
 21
146.039
  0
LINE
  8
0
 10
28.4
 20
146.039
 11
28.7916
 21
146.182
  0
LINE
  8
0
 10
28.7916
 20
146.182
 11
29.2084
 21
146.182
  0
LINE
  8
0
 10
29.2084
 20
146.182
 11
29.6
 21
146.039
  0
LINE
  8
0
 10
29.6
 20
146.039
 11
29.9193
 21
145.771
  0
LINE
  8
0
 10
29.9193
 20
145.771
 11
30.1276
 21
145.41
  0
LINE
  8
0
 10
30.1276
 20
145.41
 11
30.2
 21
145
  0
LINE
  8
0
 10
30.2
 20
145
 11
30.1276
 21
144.59
  0
LINE
  8
0
 10
30.1276
 20
144.59
 11
29.9193
 21
144.229
  0
LINE
  8
0
 10
29.9193
 20
144.229
 11
29.6
 21
143.961
  0
LINE
  8
0
 10
29.6
 20
143.961
 11
29.2084
 21
143.818
  0
LINE
  8
0
 10
29.2084
 20
143.818
 11
28.7916
 21
143.818
  0
LINE
  8
0
 10
24.7916
 20
127.818
 11
24.4
 21
127.961
  0
LINE
  8
0
 10
24.4
 20
127.961
 11
24.0807
 21
128.229
  0
LINE
  8
0
 10
24.0807
 20
128.229
 11
23.8724
 21
128.59
  0
LINE
  8
0
 10
23.8724
 20
128.59
 11
23.8
 21
129
  0
LINE
  8
0
 10
23.8
 20
129
 11
23.8724
 21
129.41
  0
LINE
  8
0
 10
23.8724
 20
129.41
 11
24.0807
 21
129.771
  0
LINE
  8
0
 10
24.0807
 20
129.771
 11
24.4
 21
130.039
  0
LINE
  8
0
 10
24.4
 20
130.039
 11
24.7916
 21
130.182
  0
LINE
  8
0
 10
24.7916
 20
130.182
 11
25.2084
 21
130.182
  0
LINE
  8
0
 10
25.2084
 20
130.182
 11
25.6
 21
130.039
  0
LINE
  8
0
 10
25.6
 20
130.039
 11
25.9193
 21
129.771
  0
LINE
  8
0
 10
25.9193
 20
129.771
 11
26.1276
 21
129.41
  0
LINE
  8
0
 10
26.1276
 20
129.41
 11
26.2
 21
129
  0
LINE
  8
0
 10
26.2
 20
129
 11
26.1276
 21
128.59
  0
LINE
  8
0
 10
26.1276
 20
128.59
 11
25.9193
 21
128.229
  0
LINE
  8
0
 10
25.9193
 20
128.229
 11
25.6
 21
127.961
  0
LINE
  8
0
 10
25.6
 20
127.961
 11
25.2084
 21
127.818
  0
LINE
  8
0
 10
25.2084
 20
127.818
 11
24.7916
 21
127.818
  0
LINE
  8
0
 10
22.7916
 20
111.818
 11
22.4
 21
111.961
  0
LINE
  8
0
 10
22.4
 20
111.961
 11
22.0807
 21
112.229
  0
LINE
  8
0
 10
22.0807
 20
112.229
 11
21.8724
 21
112.59
  0
LINE
  8
0
 10
21.8724
 20
112.59
 11
21.8
 21
113
  0
LINE
  8
0
 10
21.8
 20
113
 11
21.8724
 21
113.41
  0
LINE
  8
0
 10
21.8724
 20
113.41
 11
22.0807
 21
113.771
  0
LINE
  8
0
 10
22.0807
 20
113.771
 11
22.4
 21
114.039
  0
LINE
  8
0
 10
22.4
 20
114.039
 11
22.7916
 21
114.182
  0
LINE
  8
0
 10
22.7916
 20
114.182
 11
23.2084
 21
114.182
  0
LINE
  8
0
 10
23.2084
 20
114.182
 11
23.6
 21
114.039
  0
LINE
  8
0
 10
23.6
 20
114.039
 11
23.9193
 21
113.771
  0
LINE
  8
0
 10
23.9193
 20
113.771
 11
24.1276
 21
113.41
  0
LINE
  8
0
 10
24.1276
 20
113.41
 11
24.2
 21
113
  0
LINE
  8
0
 10
24.2
 20
113
 11
24.1276
 21
112.59
  0
LINE
  8
0
 10
24.1276
 20
112.59
 11
23.9193
 21
112.229
  0
LINE
  8
0
 10
23.9193
 20
112.229
 11
23.6
 21
111.961
  0
LINE
  8
0
 10
23.6
 20
111.961
 11
23.2084
 21
111.818
  0
LINE
  8
0
 10
23.2084
 20
111.818
 11
22.7916
 21
111.818
  0
LINE
  8
0
 10
20.7916
 20
103.818
 11
20.4
 21
103.961
  0
LINE
  8
0
 10
20.4
 20
103.961
 11
20.0807
 21
104.229
  0
LINE
  8
0
 10
20.0807
 20
104.229
 11
19.8724
 21
104.59
  0
LINE
  8
0
 10
19.8724
 20
104.59
 11
19.8
 21
105
  0
LINE
  8
0
 10
19.8
 20
105
 11
19.8724
 21
105.41
  0
LINE
  8
0
 10
19.8724
 20
105.41
 11
20.0807
 21
105.771
  0
LINE
  8
0
 10
20.0807
 20
105.771
 11
20.4
 21
106.039
  0
LINE
  8
0
 10
20.4
 20
106.039
 11
20.7916
 21
106.182
  0
LINE
  8
0
 10
20.7916
 20
106.182
 11
21.2084
 21
106.182
  0
LINE
  8
0
 10
21.2084
 20
106.182
 11
21.6
 21
106.039
  0
LINE
  8
0
 10
21.6
 20
106.039
 11
21.9193
 21
105.771
  0
LINE
  8
0
 10
21.9193
 20
105.771
 11
22.1276
 21
105.41
  0
LINE
  8
0
 10
22.1276
 20
105.41
 11
22.2
 21
105
  0
LINE
  8
0
 10
22.2
 20
105
 11
22.1276
 21
104.59
  0
LINE
  8
0
 10
22.1276
 20
104.59
 11
21.9193
 21
104.229
  0
LINE
  8
0
 10
21.9193
 20
104.229
 11
21.6
 21
103.961
  0
LINE
  8
0
 10
21.6
 20
103.961
 11
21.2084
 21
103.818
  0
LINE
  8
0
 10
21.2084
 20
103.818
 11
20.7916
 21
103.818
  0
LINE
  8
0
 10
20.7916
 20
87.8182
 11
20.4
 21
87.9608
  0
LINE
  8
0
 10
20.4
 20
87.9608
 11
20.0807
 21
88.2287
  0
LINE
  8
0
 10
20.0807
 20
88.2287
 11
19.8724
 21
88.5896
  0
LINE
  8
0
 10
19.8724
 20
88.5896
 11
19.8
 21
89
  0
LINE
  8
0
 10
19.8
 20
89
 11
19.8724
 21
89.4104
  0
LINE
  8
0
 10
19.8724
 20
89.4104
 11
20.0807
 21
89.7713
  0
LINE
  8
0
 10
20.0807
 20
89.7713
 11
20.4
 21
90.0392
  0
LINE
  8
0
 10
20.4
 20
90.0392
 11
20.7916
 21
90.1818
  0
LINE
  8
0
 10
20.7916
 20
90.1818
 11
21.2084
 21
90.1818
  0
LINE
  8
0
 10
21.2084
 20
90.1818
 11
21.6
 21
90.0392
  0
LINE
  8
0
 10
21.6
 20
90.0392
 11
21.9193
 21
89.7713
  0
LINE
  8
0
 10
21.9193
 20
89.7713
 11
22.1276
 21
89.4104
  0
LINE
  8
0
 10
22.1276
 20
89.4104
 11
22.2
 21
89
  0
LINE
  8
0
 10
22.2
 20
89
 11
22.1276
 21
88.5896
  0
LINE
  8
0
 10
22.1276
 20
88.5896
 11
21.9193
 21
88.2287
  0
LINE
  8
0
 10
21.9193
 20
88.2287
 11
21.6
 21
87.9608
  0
LINE
  8
0
 10
21.6
 20
87.9608
 11
21.2084
 21
87.8182
  0
LINE
  8
0
 10
21.2084
 20
87.8182
 11
20.7916
 21
87.8182
  0
LINE
  8
0
 10
20.7916
 20
71.8182
 11
20.4
 21
71.9608
  0
LINE
  8
0
 10
20.4
 20
71.9608
 11
20.0807
 21
72.2287
  0
LINE
  8
0
 10
20.0807
 20
72.2287
 11
19.8724
 21
72.5896
  0
LINE
  8
0
 10
19.8724
 20
72.5896
 11
19.8
 21
73
  0
LINE
  8
0
 10
19.8
 20
73
 11
19.8724
 21
73.4104
  0
LINE
  8
0
 10
19.8724
 20
73.4104
 11
20.0807
 21
73.7713
  0
LINE
  8
0
 10
20.0807
 20
73.7713
 11
20.4
 21
74.0392
  0
LINE
  8
0
 10
20.4
 20
74.0392
 11
20.7916
 21
74.1818
  0
LINE
  8
0
 10
20.7916
 20
74.1818
 11
21.2084
 21
74.1818
  0
LINE
  8
0
 10
21.2084
 20
74.1818
 11
21.6
 21
74.0392
  0
LINE
  8
0
 10
21.6
 20
74.0392
 11
21.9193
 21
73.7713
  0
LINE
  8
0
 10
21.9193
 20
73.7713
 11
22.1276
 21
73.4104
  0
LINE
  8
0
 10
22.1276
 20
73.4104
 11
22.2
 21
73
  0
LINE
  8
0
 10
22.2
 20
73
 11
22.1276
 21
72.5896
  0
LINE
  8
0
 10
22.1276
 20
72.5896
 11
21.9193
 21
72.2287
  0
LINE
  8
0
 10
21.9193
 20
72.2287
 11
21.6
 21
71.9608
  0
LINE
  8
0
 10
21.6
 20
71.9608
 11
21.2084
 21
71.8182
  0
LINE
  8
0
 10
21.2084
 20
71.8182
 11
20.7916
 21
71.8182
  0
LINE
  8
0
 10
24.7916
 20
55.8182
 11
24.4
 21
55.9608
  0
LINE
  8
0
 10
24.4
 20
55.9608
 11
24.0807
 21
56.2287
  0
LINE
  8
0
 10
24.0807
 20
56.2287
 11
23.8724
 21
56.5896
  0
LINE
  8
0
 10
23.8724
 20
56.5896
 11
23.8
 21
57
  0
LINE
  8
0
 10
23.8
 20
57
 11
23.8724
 21
57.4104
  0
LINE
  8
0
 10
23.8724
 20
57.4104
 11
24.0807
 21
57.7713
  0
LINE
  8
0
 10
24.0807
 20
57.7713
 11
24.4
 21
58.0392
  0
LINE
  8
0
 10
24.4
 20
58.0392
 11
24.7916
 21
58.1818
  0
LINE
  8
0
 10
24.7916
 20
58.1818
 11
25.2084
 21
58.1818
  0
LINE
  8
0
 10
25.2084
 20
58.1818
 11
25.6
 21
58.0392
  0
LINE
  8
0
 10
25.6
 20
58.0392
 11
25.9193
 21
57.7713
  0
LINE
  8
0
 10
25.9193
 20
57.7713
 11
26.1276
 21
57.4104
  0
LINE
  8
0
 10
26.1276
 20
57.4104
 11
26.2
 21
57
  0
LINE
  8
0
 10
26.2
 20
57
 11
26.1276
 21
56.5896
  0
LINE
  8
0
 10
26.1276
 20
56.5896
 11
25.9193
 21
56.2287
  0
LINE
  8
0
 10
25.9193
 20
56.2287
 11
25.6
 21
55.9608
  0
LINE
  8
0
 10
25.6
 20
55.9608
 11
25.2084
 21
55.8182
  0
LINE
  8
0
 10
25.2084
 20
55.8182
 11
24.7916
 21
55.8182
  0
LINE
  8
0
 10
20.7916
 20
47.8182
 11
20.4
 21
47.9608
  0
LINE
  8
0
 10
20.4
 20
47.9608
 11
20.0807
 21
48.2287
  0
LINE
  8
0
 10
20.0807
 20
48.2287
 11
19.8724
 21
48.5896
  0
LINE
  8
0
 10
19.8724
 20
48.5896
 11
19.8
 21
49
  0
LINE
  8
0
 10
19.8
 20
49
 11
19.8724
 21
49.4104
  0
LINE
  8
0
 10
19.8724
 20
49.4104
 11
20.0807
 21
49.7713
  0
LINE
  8
0
 10
20.0807
 20
49.7713
 11
20.4
 21
50.0392
  0
LINE
  8
0
 10
20.4
 20
50.0392
 11
20.7916
 21
50.1818
  0
LINE
  8
0
 10
20.7916
 20
50.1818
 11
21.2084
 21
50.1818
  0
LINE
  8
0
 10
21.2084
 20
50.1818
 11
21.6
 21
50.0392
  0
LINE
  8
0
 10
21.6
 20
50.0392
 11
21.9193
 21
49.7713
  0
LINE
  8
0
 10
21.9193
 20
49.7713
 11
22.1276
 21
49.4104
  0
LINE
  8
0
 10
22.1276
 20
49.4104
 11
22.2
 21
49
  0
LINE
  8
0
 10
22.2
 20
49
 11
22.1276
 21
48.5896
  0
LINE
  8
0
 10
22.1276
 20
48.5896
 11
21.9193
 21
48.2287
  0
LINE
  8
0
 10
21.9193
 20
48.2287
 11
21.6
 21
47.9608
  0
LINE
  8
0
 10
21.6
 20
47.9608
 11
21.2084
 21
47.8182
  0
LINE
  8
0
 10
21.2084
 20
47.8182
 11
20.7916
 21
47.8182
  0
LINE
  8
0
 10
18.7916
 20
39.8182
 11
18.4
 21
39.9608
  0
LINE
  8
0
 10
18.4
 20
39.9608
 11
18.0807
 21
40.2287
  0
LINE
  8
0
 10
18.0807
 20
40.2287
 11
17.8724
 21
40.5896
  0
LINE
  8
0
 10
17.8724
 20
40.5896
 11
17.8
 21
41
  0
LINE
  8
0
 10
17.8
 20
41
 11
17.8724
 21
41.4104
  0
LINE
  8
0
 10
17.8724
 20
41.4104
 11
18.0807
 21
41.7713
  0
LINE
  8
0
 10
18.0807
 20
41.7713
 11
18.4
 21
42.0392
  0
LINE
  8
0
 10
18.4
 20
42.0392
 11
18.7916
 21
42.1818
  0
LINE
  8
0
 10
18.7916
 20
42.1818
 11
19.2084
 21
42.1818
  0
LINE
  8
0
 10
19.2084
 20
42.1818
 11
19.6
 21
42.0392
  0
LINE
  8
0
 10
19.6
 20
42.0392
 11
19.9193
 21
41.7713
  0
LINE
  8
0
 10
19.9193
 20
41.7713
 11
20.1276
 21
41.4104
  0
LINE
  8
0
 10
20.1276
 20
41.4104
 11
20.2
 21
41
  0
LINE
  8
0
 10
20.2
 20
41
 11
20.1276
 21
40.5896
  0
LINE
  8
0
 10
20.1276
 20
40.5896
 11
19.9193
 21
40.2287
  0
LINE
  8
0
 10
19.9193
 20
40.2287
 11
19.6
 21
39.9608
  0
LINE
  8
0
 10
19.6
 20
39.9608
 11
19.2084
 21
39.8182
  0
LINE
  8
0
 10
19.2084
 20
39.8182
 11
18.7916
 21
39.8182
  0
LINE
  8
0
 10
18.7916
 20
23.8182
 11
18.4
 21
23.9608
  0
LINE
  8
0
 10
18.4
 20
23.9608
 11
18.0807
 21
24.2287
  0
LINE
  8
0
 10
18.0807
 20
24.2287
 11
17.8724
 21
24.5896
  0
LINE
  8
0
 10
17.8724
 20
24.5896
 11
17.8
 21
25
  0
LINE
  8
0
 10
17.8
 20
25
 11
17.8724
 21
25.4104
  0
LINE
  8
0
 10
17.8724
 20
25.4104
 11
18.0807
 21
25.7713
  0
LINE
  8
0
 10
18.0807
 20
25.7713
 11
18.4
 21
26.0392
  0
LINE
  8
0
 10
18.4
 20
26.0392
 11
18.7916
 21
26.1818
  0
LINE
  8
0
 10
18.7916
 20
26.1818
 11
19.2084
 21
26.1818
  0
LINE
  8
0
 10
19.2084
 20
26.1818
 11
19.6
 21
26.0392
  0
LINE
  8
0
 10
19.6
 20
26.0392
 11
19.9193
 21
25.7713
  0
LINE
  8
0
 10
19.9193
 20
25.7713
 11
20.1276
 21
25.4104
  0
LINE
  8
0
 10
20.1276
 20
25.4104
 11
20.2
 21
25
  0
LINE
  8
0
 10
20.2
 20
25
 11
20.1276
 21
24.5896
  0
LINE
  8
0
 10
20.1276
 20
24.5896
 11
19.9193
 21
24.2287
  0
LINE
  8
0
 10
19.9193
 20
24.2287
 11
19.6
 21
23.9608
  0
LINE
  8
0
 10
19.6
 20
23.9608
 11
19.2084
 21
23.8182
  0
LINE
  8
0
 10
19.2084
 20
23.8182
 11
18.7916
 21
23.8182
  0
LINE
  8
0
 10
18.7916
 20
7.81822
 11
18.4
 21
7.96075
  0
LINE
  8
0
 10
18.4
 20
7.96075
 11
18.0807
 21
8.22865
  0
LINE
  8
0
 10
18.0807
 20
8.22865
 11
17.8724
 21
8.58957
  0
LINE
  8
0
 10
17.8724
 20
8.58957
 11
17.8
 21
9
  0
LINE
  8
0
 10
17.8
 20
9
 11
17.8724
 21
9.41042
  0
LINE
  8
0
 10
17.8724
 20
9.41042
 11
18.0807
 21
9.77133
  0
LINE
  8
0
 10
18.0807
 20
9.77133
 11
18.4
 21
10.0392
  0
LINE
  8
0
 10
18.4
 20
10.0392
 11
18.7916
 21
10.1818
  0
LINE
  8
0
 10
18.7916
 20
10.1818
 11
19.2084
 21
10.1818
  0
LINE
  8
0
 10
19.2084
 20
10.1818
 11
19.6
 21
10.0392
  0
LINE
  8
0
 10
19.6
 20
10.0392
 11
19.9193
 21
9.77133
  0
LINE
  8
0
 10
19.9193
 20
9.77133
 11
20.1276
 21
9.41042
  0
LINE
  8
0
 10
20.1276
 20
9.41042
 11
20.2
 21
9
  0
LINE
  8
0
 10
20.2
 20
9
 11
20.1276
 21
8.58957
  0
LINE
  8
0
 10
20.1276
 20
8.58957
 11
19.9193
 21
8.22865
  0
LINE
  8
0
 10
19.9193
 20
8.22865
 11
19.6
 21
7.96075
  0
LINE
  8
0
 10
19.6
 20
7.96075
 11
19.2084
 21
7.81822
  0
LINE
  8
0
 10
19.2084
 20
7.81822
 11
18.7916
 21
7.81822
  0
ENDSEC
  0
SECTION
  2
OBJECTS
  0
DICTIONARY
  0
ENDSEC
  0
EOF
